<?xml version="1.0" encoding="utf-8" ?>
<svg baseProfile="full" height="300mm" version="1.1" viewBox="0,0,200,300" width="200mm" xmlns="http://www.w3.org/2000/svg" xmlns:ev="http://www.w3.org/2001/xml-events" xmlns:xlink="http://www.w3.org/1999/xlink"><defs /><rect fill="#222222" height="300" width="200" x="0" y="0" /><text fill="#FFFFFF" style="font-size:12px; font-family:Arial; font-weight:bold;" x="10" y="20">Over 10km Runs</text><text fill="#FFFFFF" style="font-size:4px; font-family:Arial" x="10" y="280">ATHLETE</text><text fill="#FFFFFF" style="font-size:9px; font-family:Arial" x="10" y="290">Yunlong</text><text fill="#FFFFFF" style="font-size:4px; font-family:Arial" x="120" y="280">STATISTICS</text><text fill="#FFFFFF" style="font-size:3px; font-family:Arial" x="120" y="285">Number: 38</text><text fill="#FFFFFF" style="font-size:3px; font-family:Arial" x="120" y="290">Weekly: 2.0</text><text fill="#FFFFFF" style="font-size:3px; font-family:Arial" x="141" y="285">Total: 180.7 km</text><text fill="#FFFFFF" style="font-size:3px; font-family:Arial" x="141" y="290">Avg: 4.8 km</text><text fill="#FFFFFF" style="font-size:3px; font-family:Arial" x="167" y="285">Min: 1.1 km</text><text fill="#FFFFFF" style="font-size:3px; font-family:Arial" x="167" y="290">Max: 39.1 km</text><polyline fill="none" points="34.74818897573277,55.975944241647085 32.63129002926871,58.46589150284126 32.26540626073256,58.5 30.8802748513408,57.050380065935315 30.08317092701327,56.64107234880794 29.534345274209045,55.890671132809075 28.920183234266005,55.65190609599813 28.00547381292563,54.52629290318146 22.112131684145425,49.83612087347137 16.179587723105215,44.34411581286986 15.683031180058606,43.133110913739074 15.774502122250851,42.26322638594138 15.43475290859351,41.12042703592306 15.630762070242781,38.39130860591831 17.329508138413075,36.497945128634456 17.747661016706843,36.46383018911729 17.355642693291884,36.42971523968299 16.806817040545866,35.74741415165772 16.480135104386136,35.90093224492739 15.656896625179797,37.043782801847556 15.879040341766085,38.08427878130897 15.526223850727547,38.25485100602236 15.251811024267226,34.34868442667357 15.356349243898876,31.994686725527572 18.361823056824505,31.5 19.446407084877137,31.7217563781669 21.77238247054629,31.56823277670628 19.42027252999833,34.723955025903706 24.777856283413712,39.329450278113654 26.55500601622043,40.3187551294468 27.35210994054796,41.61507290684676 30.932543961156625,44.66818541123939 27.63959004438948,48.77867418661481 28.24068480695132,48.94923075303086 30.331449198536575,46.35674399560958" stroke="#4dd2ff" stroke-linecap="round" stroke-linejoin="round" stroke-width="0.5"><title>2024-08-10 5.2km</title><desc>1723241479000</desc></polyline><polyline fill="none" points="70.67520891362801,55.454916798495105 69.41169916430954,57.08433109683392 68.7799442896503,58.43888936055009 67.92256267409539,57.830321398272645 67.32089136482682,57.79105885431636 66.14763231197139,55.84754856022482 64.07186629524222,54.748176730645355 63.575487465190236,53.805850846882095 61.966016713064164,52.66719823672611 58.882451253419276,49.604567383474205 57.27298050140962,48.70147057407303 55.5281337047345,46.89525871023943 53.00111420603935,44.735625635570614 52.805571030592546,44.93195735226618 52.188857938628644,44.205528564736596 51.01559888571501,43.49872921065253 50.57938718661899,42.615224779205164 49.78217270190362,42.16365359969495 49.1955431754468,40.789297174691455 49.45125348184956,40.04321207368048 49.0,38.49212713052111 49.48133704729844,36.68577774746518 50.624512534821406,35.782593930722214 51.211142061220016,34.7223269049573 53.99387186631793,31.620015971828252 54.565459609963,31.561110639435356 54.62562674086075,31.875272113029496 54.911420612828806,31.83600196907355 56.23509749304503,32.81775211704371 56.73147632309701,33.583512242446886 58.11532033421099,34.604518940104754 58.581615598814096,34.64378827322798 59.25849582173396,36.13601440966886 60.627298050094396,36.45016516442411 62.10139275761321,36.29308987900731 63.07910863502184,36.90175558492774 63.34986072423635,37.922737016444444 63.12423398322426,38.25651772142737 60.161002785433084,41.3979424721183 58.897493036231026,43.55762929908815 59.3938718662248,43.75396274049126 60.25125348183792,42.9882606936153 61.981058495817706,40.61259318386146 63.07910863502184,39.4738285458734 63.53036211698782,39.37565872776031 69.30640668520937,44.08772893108835 70.43454038997879,45.50131770520238 72.22451253479812,46.83636008766189 73.08189415041124,46.93452444419381 73.29247910861159,47.58240739502071 74.05961002787808,48.03396032789897 74.3002785515855,48.56404226558516 76.0,49.36897749771015 75.74428969359724,50.58618745241256 72.34484679665184,54.159223829206894" stroke="#4dd2ff" stroke-linecap="round" stroke-linejoin="round" stroke-width="0.5"><title>2024-08-09 5.2km</title><desc>1723159591000</desc></polyline><polyline fill="none" points="108.64698572165798,55.363511272575124 108.82950784778222,55.74068780467496 107.84084633161547,56.236971117177745 107.11075782740954,57.16997882806754 107.04991711874027,57.686107995716156 106.15251666563563,58.5 104.58586841705255,56.336227561710984 104.05351221602177,56.276673703687266 103.27779318031389,55.363511272575124 102.13702989253215,54.84737326564209 101.66551440017065,54.4106395716517 101.7111449316726,53.91434957571619 101.37652103387518,54.11286579203443 88.15887707221555,42.77712437052105 87.20063591044163,41.38738858627039 86.86601201270241,40.3351505890314 86.57701864652336,37.77400888623379 86.72912041813834,36.3445134118665 88.1132465407718,35.37165370672301 90.15141028165817,32.6515803460934 91.53553640423343,31.5 92.08310278243152,31.519854916390614 95.76396565785399,34.71645854317467 96.66136611090042,35.07383811577165 96.85909841413377,35.92757439297566 99.6425608364516,37.59532277606195 99.9619745570235,38.270357956615044 104.3881361138192,42.00284476217348 104.50981753115775,42.34035180165665 100.90500554163009,46.56904527434381 100.69206306122942,46.9859515739372 100.93542589602293,47.28374100319343 101.60467369150138,47.045509512070566 103.26258300314657,44.78228947255411 105.30074674409116,42.91609716558014 113.42298135347664,49.963816439470975 112.25179771118565,51.79020787151239 110.44178662786726,53.53716796422668" stroke="#4dd2ff" stroke-linecap="round" stroke-linejoin="round" stroke-width="0.5"><title>2024-08-08 4.9km</title><desc>1723122982000</desc></polyline><polyline fill="none" points="150.9269192913489,43.97718026632356 150.96013779529312,43.95550234961411 150.96345964567445,44.016200476387894 151.0,43.87746171811341 150.95349409450137,43.80375648844347 150.6910679133871,43.9858514285479 150.32898622048378,43.6390029588656 150.24261811023462,43.62599606222466 150.13631889765384,43.72571545709798 150.02337598426675,43.64333858979808 149.9436515748239,43.66935236212157 149.2460629921261,44.50178101246456 148.2328986220382,45.47291820264218 144.80142716536648,49.50886601677121 144.60875984252198,49.61723512291428 139.7555364173313,45.49893036807771 138.7357283464662,44.83994846887617 138.5530265748239,44.549471528638605 138.47662401576235,44.211300755663615 137.57640255906153,43.76473599846577 137.14456200788845,43.87746171811341 136.7027559055132,43.881797314141295 135.82246555118763,43.76473599846577 134.89899114174477,43.756064771492674 127.01624015749258,44.06822734319394 126.49138779527857,44.03787834867035 126.13262795277114,43.83410572287539 125.72071850394423,44.07256291129488 124.1328740157478,44.14193191470804 124.08304625985329,44.102911870282696 124.0,42.277583452865656 124.01660925196484,41.56216276771556 129.17876476379752,41.341029241093565 129.2983513779618,41.3497011752097 130.3746309055132,41.852669008841985 130.86958661417884,42.008760737542616 136.21776574803516,42.03477594566175 136.7459399606305,41.93505085706056 137.95177165354835,41.393060807688016 138.47994586615823,41.406068685042555 138.97157972441346,41.28899758309126 138.98818897639285,41.19360597264313 140.6690452756011,40.469486910174965 140.87500000001455,40.51284783147821 141.23375984253653,40.43913422747755 142.86146653543983,40.38276487708754 142.87807578741922,40.508511742202245 142.95115649607033,40.534528268315626 146.1002706693107,40.43479812741316 146.1600639763783,40.62558592971982 146.18331692914944,41.3497011752097 146.27300688976538,41.679232789794696 146.46567421260988,42.01309660714469 149.24938484252198,44.41073526835862 149.42212106300576,44.28934050751923 149.58821358268324,44.34570242263726 150.16621555118763,43.73872230992856 150.6578494094574,44.10724743330866" stroke="#4dd2ff" stroke-linecap="round" stroke-linejoin="round" stroke-width="0.5"><title>2024-07-21 16.7km</title><desc>1721568012000</desc></polyline><polyline fill="none" points="163.48353388218675,46.67436205971171 162.2865737809334,45.580715543212136 161.92748575046426,44.44242206035415 161.94458518049214,42.36668853271112 161.5,41.3622911945713 161.63679544016486,39.50971874357492 163.00474984169705,38.683865937491646 164.8856871437165,35.84914794439101 166.3391386953881,34.666139805165585 166.6298290057457,33.88490298129909 167.31380620639538,33.817939638742246 169.348638378724,35.20184274150233 169.57093096891185,35.84914794439101 173.02501583273988,38.59458428506332 173.21310956293019,39.15259375491587 174.20487650408177,39.44275787194783 176.2055098163546,41.58549117493385 177.00918302719947,41.853330720055965 181.8312222925597,46.31725385579921 185.3024065864738,49.01786388960318 186.12317922734655,50.06684827477147 188.5,51.71842608237057 188.43160227988847,52.23175067496777 186.84135528816842,53.77171408235154 185.47340088663623,56.1820603612432" stroke="#4dd2ff" stroke-linecap="round" stroke-linejoin="round" stroke-width="0.5"><title>2024-07-16 2.5km</title><desc>1721136594000</desc></polyline><polyline fill="none" points="35.094464619265636,72.04863265130552 33.73267822878552,73.59310542929961 32.68606510775862,75.0211206335116 31.603771993948612,75.75839603874192 30.640412189328345,76.79832497290408 29.63542572647566,76.0765854153251 22.909747090598103,70.3023152679707 22.808653777785366,69.85214412885034 22.70161379946512,66.1031566953061 22.66593380671111,63.61144696160409 22.77297378500225,61.99681861638237 23.962306877132505,61.67078192459303 25.448973242251668,61.5 25.651159867906244,66.39035558557953 25.781986508023692,66.96474869849771 26.10310644292622,67.64780267798778 31.252918731741374,72.02534879786981 33.42345162489801,74.07428876162885 32.6265984531492,75.09872905365046 31.615665324847214,75.75063529839463 30.616625527472934,76.81384614580384 30.72961217124248,76.93801536554747 30.664198851183755,77.09322648135276 31.46699868835276,77.8227126404272 31.443212026468245,77.93911907781876 30.152785621554358,79.48342029947162 29.76030570117291,80.15855293702771 28.678012587333797,81.44671320591078 27.637346131756203,82.47101108835705 26.810759632731788,82.99867197409912 25.906866482720943,83.22370222562677 24.84241336528794,84.47299074109105 24.84241336528794,84.92303777917186 26.01985312649049,85.95502777613365 26.42422637779964,86.1567678353058 26.989159596530953,86.05589790164595 27.61355946987169,85.35756233049324 27.982252728485037,84.83768432402212 27.904946077469504,84.32556070855571 26.459906370553654,83.16162501023791 25.91875981364865,83.2392215181062 24.84836003073724,84.4807502051226 24.824573368910933,85.1247817635558 24.652120070531964,85.73776839277707 24.12881351003307,86.65335548121948 22.885960428742692,88.27499213251212 22.59457382117398,88.5 19.12172119220486,85.63689766227253 15.2801753047097,81.93558511753872 14.90553538070526,81.45447311272801 15.214761984650977,81.5631116888544 18.146468056715094,77.58213852677727 19.323907817859435,75.23842392365623 19.42500113073038,74.84262083615249 20.198067640594672,74.36920541989821 22.523213835665956,73.58534437203343 23.177347036311403,73.15848447263124 24.414253452123376,71.82355497306344 25.550066555093508,70.20141517257434 27.096199574851198,68.4860841704176 31.28265205907519,72.03311008349556 33.39371829756419,74.00443983915102 34.56521139331744,72.6229644661762 34.91606465546647,72.11072287716524 34.86849133175565,72.00206493418227" stroke="#4dd2ff" stroke-linecap="round" stroke-linejoin="round" stroke-width="0.5"><title>2024-07-06 16.1km</title><desc>1720267100000</desc></polyline><polyline fill="none" points="53.812978896312416,72.66674423438963 55.72923355130479,71.33340739167761 58.79524099966511,87.00001678068656 67.09901117254049,87.50001140637323 70.67601986275986,82.33338969573379 68.5042645870708,64.5000315879006 62.11674906872213,62.333342900150456 56.11248448258266,67.50005527865142 57.517737896647304,84.66670562699437 61.73349813837558,88.33333529520314 67.35451179370284,87.50001140637323 70.80377017334104,81.16672993882094 69.27076644916087,65.166704201838 62.11674906872213,62.16667436843272 57.64548820676282,65.66670840629376 56.623485723976046,69.6667341440916 58.15648944815621,84.83337086765096 63.522002483252436,88.00000581308268 67.86551303509623,86.83335185656324 70.93152048345655,80.00006898795255 70.42051924206316,67.83339075685944 67.86551303509623,63.16668519063387 58.79524099966511,63.50002193625551 56.36798510327935,69.16673169471323 57.77323851687834,85.16670127620455 61.605747828260064,87.833341035177 67.9932633456774,87.33334655570798 70.80377017334104,84.00004441977944 70.29276893194765,68.00005845958367 66.07700869021937,62.16667436843272 62.5,61.5 57.26223727595061,65.33337229397148 56.87898634467274,82.66672083549201 58.53974037896842,86.000026871101 63.905253414064646,88.5 70.80377017334104,84.16670975787565 70.16501862090081,67.50005527865142 63.77750310394913,61.833337233169004 59.43399255210534,63.33335357543547 56.49573541386053,67.33338750316761 57.64548820676282,84.16670975787565 60.45599503489211,87.16668168001343 65.94925838010386,88.16667056630831 71.05927079403773,83.33338282222394 69.65401737997308,65.00003608502448 62.11674906872213,62.000005812966265 56.49573541386053,67.83339075685944 57.77323851687834,84.66670562699437 63.522002483252436,88.16667056630831 68.63201489718631,87.16668168001343 71.18702110368758,79.66673706821166" stroke="#4dd2ff" stroke-linecap="round" stroke-linejoin="round" stroke-width="0.5"><title>2024-02-29 2.9km</title><desc>1709196138000</desc></polyline><polyline fill="none" points="88.05535122239962,61.5 97.89212080324069,67.33338750316761 97.50887004099786,82.83338636858389 102.6188802132383,88.33333529508673 109.26189343677834,86.83335185598116 111.81689852289855,83.16671736212447 110.7948964885436,66.3333803373389 105.55713606160134,61.833337233169004 100.31937563605607,62.333342899917625 96.8701187693514,65.66670840617735 98.14762131264433,84.33337507175747 103.89638275606558,88.33333529508673 111.30589750595391,85.16670127632096 110.9226467423141,66.3333803373389 105.55713606160134,62.16667436878197 97.3811197867617,64.83336794318166 97.89212080324069,82.83338636858389 100.57487614406273,87.33334655524231 107.34563962183893,88.5 111.43364775972441,85.00003608386032 111.6891482686624,73.1667451482499 108.36764165665954,63.000016781152226 98.78637258382514,63.50002193602268 96.8701187693514,68.66672902554274 99.29737360123545,86.50002193532418 107.98439089395106,88.5 111.05039699701592,86.00002687051892 111.94464877760038,81.16672993893735 109.77289445372298,64.83336794318166 106.83463860535994,62.50001140648965 99.8083746181801,63.000016781152226 96.99786902358755,68.00005845935084 98.91412283852696,85.66669670608826" stroke="#4dd2ff" stroke-linecap="round" stroke-linejoin="round" stroke-width="0.5"><title>2024-02-26 2.1km</title><desc>1708947688000</desc></polyline><polyline fill="none" points="132.99268657295033,72.26694831845816 129.31065588677302,78.06449348235037 131.84998739464208,85.68407914135605 136.4207841088064,88.5 143.65787890693173,86.84357681323308 144.92754466086626,67.79453605914023 138.57921589072794,61.5 131.97695396933705,64.64727240230422 131.215154517442,81.54300633713137 135.02415177971125,87.17486164462753 139.72191506950185,87.67178870958742 145.18147781165317,84.52458028239198 145.05451123602688,67.62889082136098 139.21404876746237,61.66564613406081 131.4690876682289,65.80679160903674 131.3421210926026,82.53686519083567 133.7544860257767,87.00921924074646 137.05561698554084,88.00307329848874 144.80057808570564,84.85586579178926 144.92754466086626,67.79453605914023 143.65787890693173,64.4816267042188 137.9443830139935,61.66564613406081 131.3421210926026,67.29760027374141 131.7230208190158,84.19329467555508 136.92865041084588,88.00307329848874 142.51517972862348,86.67793436127249 145.68934411276132,81.70864954008721 144.80057808570564,65.97243711340707 142.007313426584,62.32823042757809 137.69044986274093,61.5 131.97695396933705,65.3098549512215 131.215154517442,82.03993587312289 136.0398843823932,88.00307329848874 141.4994471250102,87.50614637858234 145.18147781165317,84.19329467555508 145.43541096244007,68.78840697626583 144.16574520803988,65.1442093505757 139.46798191871494,62.32823042757809 134.00841917656362,63.322106140782125 132.103920545429,65.97243711340707 131.4690876682289,84.35893749108072 135.91291780676693,88.16871555661783 144.16574520803988,85.35279387363698 144.80057808570564,68.1258264615899 142.51517972862348,63.81904367066454 138.57921589072794,62.32823042757809 131.08818794228137,66.46937347960193 131.3421210926026,83.53072317270562 133.88145260093734,87.8374310163781 142.76911287894472,86.84357681323308 145.05451123602688,83.19943727517966 145.18147781165317,73.4264597252477" stroke="#4dd2ff" stroke-linecap="round" stroke-linejoin="round" stroke-width="0.5"><title>2024-01-18 3.0km</title><desc>1705581243000</desc></polyline><polyline fill="none" points="171.80624317470938,64.83336794329807 168.22923553083092,66.1667123909574 168.10148525843397,84.16670975799207 171.16749180993065,87.50001140625682 176.27750272955745,88.33333529555239 181.38751364918426,85.0000360844424 181.38751364918426,67.00005187850911 179.08800873486325,62.833348347223364 175.12775027239695,61.5 169.76223880704492,63.66669027204625 167.46273389318958,67.33338750293478 167.71823443938047,82.66672083549201 173.59474699618295,88.00000581273343 181.13201310299337,84.66670562652871 181.25976337585598,66.83338402933441 175.89425191050395,61.83333723281976 171.03974153706804,63.00001678126864 167.84598471224308,67.00005187850911 168.35698580369353,83.33338282257318 171.03974153706804,87.50001140625682 174.87224972667173,88.5 181.38751364918426,84.50004036154132 181.77076446823776,67.66672302980442 177.17175464099273,62.000005812966265 171.42299235565588,62.666679889312945 168.48473607655615,65.83337642531842 168.35698580369353,83.33338282257318 174.3612486347556,88.5 181.89851474110037,85.0000360844424 181.00426283013076,66.83338402933441 175.76650163717568,62.666679889312945 168.35698580369353,65.66670840571169 168.48473607655615,84.16670975799207 175.25550054572523,88.5 181.38751364918426,85.33336644410156 181.5152639215812,67.16671970312018 176.66075354861096,62.000005812966265 170.91199126420543,62.833348347223364 167.71823443938047,67.33338750293478 167.97373498557135,82.00005845841952 173.21149617806077,88.00000581273343 181.13201310299337,85.50003158731852 181.5152639215812,66.83338402933441 175.51100109145045,61.5 168.10148525843397,66.33338033745531 168.35698580369353,82.50005527795292 170.40099017182365,86.16669191711117 174.74449945334345,87.66667623317335 179.98226064629853,87.0000167802209 182.53726610634476,83.16671736259013 180.87651255680248,65.33337229420431 177.04400436766446,62.000005812966265 171.67849290184677,62.16667436843272 168.35698580369353,65.33337229420431 168.10148525843397,79.16673900594469" stroke="#4dd2ff" stroke-linecap="round" stroke-linejoin="round" stroke-width="0.5"><title>2024-01-17 3.3km</title><desc>1705483266000</desc></polyline><polyline fill="none" points="18.6221255492419,106.95290702185594 15.6284293779172,109.50006975582801 20.704696798231453,116.12266671471298 26.822249843738973,117.99057184869889 32.93980288784951,115.78304727654904 33.85092781018466,99.48119743622374 30.336588826496154,93.02831864915788 25.00000000046566,91.83962653996423 19.92373258015141,95.06607371894643 19.533250470645726,111.87741659942549 24.349196485243738,117.31133396551013 33.590606403537095,115.27361793338787 33.33028499735519,98.46232422208413 28.514338983222842,91.66981328232214 19.012607658281922,96.76420021243393 19.142768361140043,109.83969103102572 22.917428751010448,117.82076241495088 32.54932077927515,116.63209568534512 33.85092781018466,99.14157313096803 30.596910233143717,92.5188793229172 23.43807156337425,92.68869245657697 19.012607658281922,96.93401272536721 19.533250470645726,113.40570842847228 25.650803515687585,118.5 33.200124294962734,116.46228605299257 33.720767106860876,97.4434501142241 29.034981796052307,91.5 23.047589453868568,92.34906616492663 20.31421468919143,95.74532461480703 19.663411173503846,113.40570842847228 21.095178907271475,116.46228605299257 27.342892655637115,118.5 34.37157062254846,113.7453285624506" stroke="#4dd2ff" stroke-linecap="round" stroke-linejoin="round" stroke-width="0.5"><title>2024-01-13 2.0km</title><desc>1705132259000</desc></polyline><polyline fill="none" points="54.5451420461759,99.26256470545195 55.96796216722578,113.94379430869594 58.296213276684284,117.31876321486197 63.21141006145626,118.5 70.32551067043096,113.10005053936038 69.80812153499573,96.39379687560722 63.34075734484941,91.83750389900524 56.61469858651981,95.7187916438561 56.61469858651981,113.60629687458277 62.04728450672701,117.82500769919716 70.4548579538241,113.77504560397938 70.19616338657215,96.39379687560722 65.9277030210942,92.17500769952312 61.14185352018103,92.006255811546 55.83861488383263,97.74380615423433 56.22665673494339,112.42505507986061 59.460338830482215,117.99375581101049 62.30597907397896,118.5 68.6439959811978,116.30627357913181 70.32551067043096,112.76255285891239 69.67877425206825,95.88754298910499 63.21141006145626,91.83750389900524 59.71903339866549,92.006255811546 56.22665673494339,96.22504560498055 56.48535130312666,113.94379430869594 62.95271549327299,118.5 70.19616338657215,113.26879934268072 69.29073240002617,95.38128887990024 63.082062777131796,91.5 56.22665673494339,96.05629430920817 57.261435005348176,112.5938039815519 62.95271549327299,117.48751140071545" stroke="#4dd2ff" stroke-linecap="round" stroke-linejoin="round" stroke-width="0.5"><title>2024-01-11 2.0km</title><desc>1704963338000</desc></polyline><polyline fill="none" points="97.08281276514754,98.10645157343242 95.21140963351354,101.26604313729331 95.43157470738515,114.04792344977614 99.94495873106644,118.35638494248269 104.67850782861933,117.78192450263305 107.10032364632934,114.47877044946654 106.32974588591605,98.82454145798692 103.13735230918974,95.5213236414711 96.31223500473425,95.95217876986135 92.45934620453045,92.79257010918809 93.56017157575116,91.5 93.34000650187954,95.37770522356732 96.97273022774607,95.95217876986135 95.10132709611207,98.96815937163774 95.54165724478662,112.61176541814348 97.74330798815936,117.3510789515567 102.80710469698533,118.5 106.54991096025333,116.3457719310536 107.32048872020096,101.12242555926787 102.47685708617792,95.5213236414711 98.62396828504279,96.09579710348044 95.32149217044935,99.82986641401658 95.65173978172243,114.04792344977614 100.05504126800224,118.21276986418525 104.01801260607317,118.06915476452559 106.99024110892788,114.47877044946654 106.43982842331752,98.68092352291569 100.49537141667679,95.09046832495369 95.87190485652536,99.5426308172755 96.20215246779844,114.90961726062233 100.71553649147972,118.06915476452559 105.22892051469535,117.06384847918525 107.54065379500389,113.61707626050338 106.7700760345906,98.53730556712253 103.79784753127024,95.09046832495369 100.93570156535134,94.80323134205537 95.87190485652536,98.82454145798692 95.9819873929955,113.47346048912732 100.49537141667679,117.63830933981808 104.67850782861933,117.2074637261685 107.32048872020096,113.7606920110411 106.99024110892788,98.96815937163774 105.55916812596843,95.80856041470543 102.25669201090932,94.65961281914497 95.65173978172243,98.39368759014178 95.54165724478662,113.18622888275422 98.29372067376971,116.63300261320546" stroke="#4dd2ff" stroke-linecap="round" stroke-linejoin="round" stroke-width="0.5"><title>2024-01-09 2.6km</title><desc>1704792913000</desc></polyline><polyline fill="none" points="127.08673413656652,101.06969162542373 132.19512871094048,97.48106644977815 133.2430045218207,115.25319755601231 137.69647671468556,118.1582317459397 142.54290233645588,117.98734758188948 146.73440557718277,114.74054371356033 147.38932795869187,110.29753432807047 146.9963745297864,97.31017926183995 143.3288091942668,92.18355200090446 137.04155433317646,91.84177605004515 133.2430045218207,94.9177560058888 133.2430045218207,113.03169594914652 138.87533700093627,118.5 146.34145214874297,116.79115773225203 147.25834348192438,98.33550201519392 143.3288091942668,92.18355200090446 137.04155433317646,92.18355200090446 133.63595794979483,95.77219344524201 133.63595794979483,112.17727112979628 137.43450776254758,117.47469493933022 144.24570052837953,117.64557917835191 147.25834348192438,115.25319755601231 147.25834348192438,97.82284075079951 144.24570052837953,92.69621573900804 139.00632147677243,91.5 136.12466299906373,91.84177605004515 133.37398899765685,95.94308085832745 133.50497347395867,114.05700490798336 139.792228335049,117.98734758188948 147.65129691082984,114.9114283528179 147.38932795869187,98.67727606592234 142.93585576536134,91.84177605004515 137.3035232857801,91.67088803753722 132.9810355687514,96.96840481087565 133.76694242609665,114.9114283528179 140.44715071609244,118.32911588542629 147.65129691082984,114.22788964677602 146.73440557718277,95.25953105615918 142.41191786015406,91.84177605004515 137.3035232857801,92.0126640376402 133.2430045218207,95.4304185443325 133.2430045218207,112.68992609635461 138.351399095729,117.81646339292638 147.38932795869187,114.74054371356033 147.91326586343348,99.18993695557583 144.24570052837953,92.0126640376402 136.12466299906373,92.52532785164658 133.2430045218207,99.18993695557583 134.42186480760574,116.27850456547458 143.72176262317225,117.47469493933022" stroke="#4dd2ff" stroke-linecap="round" stroke-linejoin="round" stroke-width="0.5"><title>2024-01-08 3.0km</title><desc>1704701613000</desc></polyline><polyline fill="none" points="167.6181492912583,96.48730782361235 168.40906186727807,114.88857094454579 175.39545628754422,117.98408224270679 181.4591193702072,113.168838925194 180.80002555716783,96.14335623942316 176.05455010058358,92.01592937600799 168.54088062932715,94.93952490098309 167.88178681628779,112.4809454131173 172.89089979743585,118.15605485334527 178.2954690665938,117.8121096061077 181.72275689523667,113.85673203435726 180.9318443192169,97.17521069175564 175.92273133806884,91.84395294240676 170.91361835738644,92.53185852686875 168.01360557880253,95.62742867390625 167.74996805377305,113.68475879484322 173.6818123734556,118.32802743907087 177.76819401606917,118.15605485334527 181.9863944207318,114.20067843887955 181.59093813225627,97.69113757787272 175.39545628754422,91.5 170.51816206937656,92.53185852686875 167.6181492912583,96.31533204414882 167.74996805377305,112.9968655849807 172.49544350942597,118.15605485334527 178.16365030407906,117.98408224270679 181.59093813225627,114.88857094454579 181.9863944207318,99.5828675593948 176.845462677069,91.67197648389265 170.51816206937656,92.70383485953789 167.88178681628779,95.4554527682485 168.8045181548223,116.43632761226036 177.50455649057403,118.15605485334527 182.51366947125643,112.65291882900055 180.27275050617754,94.59557286347263 172.23180598393083,91.67197648389265 167.35451176576316,96.83125930826645 168.14542434131727,115.06054400838912 174.99999999953434,118.5 182.11821318324655,113.51278553029988 180.27275050617754,94.76754889450967 172.89089979743585,91.67197648389265 167.4863305282779,99.06694150273688 167.88178681628779,114.02870524919126 171.30907464539632,118.15605485334527 176.05455010058358,118.5 179.74547545565292,117.46816425863653 182.64548823423684,111.79305149905849" stroke="#4dd2ff" stroke-linecap="round" stroke-linejoin="round" stroke-width="0.5"><title>2023-12-29 2.9km</title><desc>1703839119000</desc></polyline><polyline fill="none" points="19.72849306697026,124.38682242622599 17.776083091273904,128.80194872617722 19.598332401830703,145.95285700750537 27.407972302287817,147.65095295628998 31.44295291788876,142.21703717962373 30.792149593122303,125.0660737195285 28.18893629265949,122.17925298109185 22.85234902659431,121.5 18.16656508669257,126.42457511241082 19.338011072017252,146.29247639642563 27.798454297706485,147.65095295628998 31.70327424770221,143.2358983248705 30.661988927517086,124.55663528700825 22.85234902659431,121.5 18.296725751366466,126.25476252532098 18.426886416506022,144.08494859619532 24.544437672477216,148.5 32.09375624312088,143.7453285616357 30.661988927517086,124.72644812276121 22.201545701827854,121.5 18.16656508669257,128.63213648681995 18.296725751366466,143.7453285616357 19.98881439678371,146.8019052920863 25.455562327522784,148.16038125671912 31.963595578446984,143.91513859131373 31.573113583028316,125.74532461480703 23.633313016965985,122.0094397731591 17.776083091273904,128.4623242225498 18.687207747250795,144.93399824667722 26.366686982568353,148.5 31.573113583028316,143.2358983248705 31.70327424770221,126.42457511241082 28.18893629265949,122.68869245704263 23.372991687152535,122.51887932315003 17.90624375687912,128.4623242225498 18.81736841145903,145.61323752021417 27.538132967893034,148.16038125671912 32.35407757339999,141.87741659930907 31.573113583028316,125.40569921641145 27.798454297706485,122.34906616492663 22.59202769678086,122.0094397731591 17.64592242660001,129.31138529616874 18.947529076598585,145.7830472763162 27.277811638079584,148.3301906407578 32.223916907794774,142.55665766075253" stroke="#4dd2ff" stroke-linecap="round" stroke-linejoin="round" stroke-width="0.5"><title>2023-12-28 2.9km</title><desc>1703769423000</desc></polyline><polyline fill="none" points="57.773237825836986,127.83339075697586 54.32397894188762,126.33338033687323 56.240233877208084,143.0000518776942 60.83924572262913,147.50001140648965 67.6100131617859,145.83336180110928 70.42052040016279,142.16672408941668 70.29277007095516,129.83340157847852 66.077009213157,122.50001140707172 60.71149539388716,122.16667436878197 56.112483548000455,125.00003608490806 56.112483548000455,143.16671736212447 60.32824440672994,147.33334655570798 64.92725625168532,147.83334103564266 70.03726941300556,143.16671736212447 69.3985177683644,127.33338750293478 64.92725625168532,122.33334289991762 57.90098815411329,122.50001140707172 55.60148223256692,125.00003608490806 55.85698289005086,141.5000614199089 59.561742432415485,147.50001140648965 65.56600789632648,147.66667623328976 68.63201579404995,145.00003608432598 69.27076743869111,128.16672613762785 65.8215085552074,122.16667436878197 57.26223650947213,123.00001678115223 54.96273058699444,127.83339075697586 57.51773716742173,146.00002687145025 64.41625493578613,148.0000058131991 70.16501974267885,141.5000614199089 68.24876480689272,124.166695134365 63.52200263226405,121.5 57.51773716742173,122.83334834722336 55.2182312454097,128.83339660661295 57.90098815411329,146.33335693844128 63.13875164510682,148.5 66.71576085779816,147.50001140648965 69.9095190842636,143.16671736212447 70.67602105857804,135.66674642788712" stroke="#4dd2ff" stroke-linecap="round" stroke-linejoin="round" stroke-width="0.5"><title>2023-11-08 2.1km</title><desc>1699431646000</desc></polyline><polyline fill="none" points="94.79475135030225,123.79093438549899 92.16077010519803,129.6818869812414 93.16419153194875,144.5727677618852 100.31356919649988,148.00909672433045 106.33409775514156,145.5545771131292 107.58837453881279,142.93641692830715 106.33409775514156,125.26367544219829 102.94755044113845,121.99091490660794 97.93044330831617,121.66363832645584 93.03876385372132,126.90005211986136 93.28961920971051,143.75459264428355 100.43899687472731,148.00909672433045 107.21209150366485,143.2636872860603 106.83580846851692,126.24550173606258 103.9509718674235,122.31819139060099 99.31014776974916,121.5 93.16419153194875,128.04551437112968 93.28961920971051,143.918227715767 99.93728616088629,148.17273117334116 107.08666382497177,143.42732242960483 106.83580846851692,126.73641456000041 103.70011651096866,122.48182959691621 100.1881415178068,121.99091490660794 96.299883489497,122.80910593783483 92.9133361754939,127.71823956188746 93.4150468884036,143.1000521191163 96.04902813304216,147.19092411885504 101.44241830101237,147.84546225098893 105.45610400754958,146.3727509152377 107.83922989526764,141.3000637012301 106.83580846851692,125.91822640039027 99.43557544751093,121.5 96.299883489497,122.80910593783483 93.03876385372132,129.02733822411392 93.6659022453241,143.2636872860603 96.04902813304216,147.19092411885504 101.19156294455752,148.5 107.4629468601197,142.7727817130508 106.83580846851692,126.73641456000041 101.06613526586443,121.99091490660794 93.54047456663102,126.57277697592508 93.54047456663102,144.7364027139265 99.81185848312452,148.5 107.08666382497177,144.24549778655637 107.08666382497177,127.06368965632282 104.57811025902629,122.80910593783483 99.31014776974916,121.5 93.4150468884036,126.57277697592508 93.79132992355153,143.1000521191163" stroke="#4dd2ff" stroke-linecap="round" stroke-linejoin="round" stroke-width="0.5"><title>2023-10-27 2.9km</title><desc>1698413800000</desc></polyline><polyline fill="none" points="133.98686697892845,123.00001678103581 129.89885764522478,126.83338402980007 131.94286231184378,145.66669670597184 140.50213185418397,147.50001140672248 144.7178914793767,141.16672993870452 143.8236394370906,125.00003608467523 139.7356301038526,121.5 134.49786814535037,121.5 131.30411085346714,123.6666902723955 130.28210852015764,129.50006668525748 131.81511201988906,145.50003158731852 140.11888097925112,148.16667056665756 143.18488797917962,146.833351856214 145.10114235430956,141.33339569158852 143.31263827066869,125.00003608467523 135.26436989568174,122.5000114068389 130.4098588116467,127.66672302992083 131.4318611449562,145.00003608420957 138.9691283539869,148.5 144.7178914793767,143.16671736247372 143.44038856215775,125.33337229420431 136.15862193750218,122.00000581296626 130.4098588116467,126.83338402980007 131.55961143691093,145.16670127643738 136.15862193750218,148.33333529543597 140.62988214567304,147.83334103494417 144.7178914793767,142.5000552778365 143.95138972904533,126.16671239130665 139.9911306872964,122.16667436831631 133.2203652281314,122.83334834768903 130.02660793671384,128.3333937911084 132.70936406217515,146.833351856214 138.71362777007744,148.16667056665756 143.6958891460672,145.16670127643738 144.7178914793767,132.66674423450604 144.4623908950016,127.33338750316761 140.88538272865117,122.33334289945196 135.51987047865987,122.16667436831631 130.79310968704522,125.33337229420431 130.6653593950905,142.83338636881672 133.2203652281314,147.33334655535873 140.3743815626949,148.16667056665756 143.8236394370906,145.00003608420957 144.3346406039782,127.8333907565102 139.9911306872964,122.33334289945196 131.81511201988906,123.83335858397186 130.53760910360143,141.66672712389845 133.98686697892845,147.66667623294052" stroke="#4dd2ff" stroke-linecap="round" stroke-linejoin="round" stroke-width="0.5"><title>2023-10-21 2.9km</title><desc>1697891041000</desc></polyline><polyline fill="none" points="167.81743507133797,121.5 168.30438862601295,142.30594168405514 172.32175545021892,148.18235684302635 181.20865781931207,145.9588521438418 181.20865781931207,127.0588784016436 178.77389004686847,123.8823799417587 174.2695696684532,122.92942859232426 168.30438862601295,127.21770308096893 169.15655734576285,145.64120824378915 173.9043545019813,148.34117843292188 178.89562843600288,147.38824854406994 181.33039620751515,144.21180954331066 181.6956113735214,129.44124614959583 176.58259905176237,123.08825387549587 168.6696037920192,126.26475465786643 168.1826502373442,142.1471192111494 170.49567962111905,147.0706050619483 176.46086066309363,148.5 180.3564890990965,146.59413966536522 181.8173497626558,130.71184014517348 181.20865781931207,126.58240422513336 177.67824454978108,123.56472958507948 169.5217725117691,125.78828013280872 168.4261270146817,144.68827598600183 173.29566255863756,148.5 181.20865781931207,145.80003020563163 181.6956113735214,127.69417697924655 179.1391052128747,124.35885530337691 174.63478483399376,123.56472958507948 168.79134218022227,127.3765277370112 168.54786540288478,143.10005369863939 172.20001706155017,148.18235684302635 177.92172132665291,148.02353522996418 181.93908815085888,144.21180954331066 182.18256492866203,130.87066428991966 181.08691943064332,126.58240422513336 177.19129099464044,123.72355477511883 172.8087090048939,123.8823799417587 168.1826502373442,127.69417697924655 168.91308056889102,144.37063171423506 172.6869706157595,148.18235684302635 177.79998293798417,147.86471359303687 181.8173497626558,143.89416513266042 181.57387298485264,127.8530015652068 176.58259905176237,123.40590437164064 169.5217725117691,125.62945524486713 167.93917345954105,131.98243265401106 170.00872606644407,146.911783286836 173.53913933690637,148.5 179.99127393309027,146.911783286836 181.6956113735214,133.57067119912244" stroke="#4dd2ff" stroke-linecap="round" stroke-linejoin="round" stroke-width="0.5"><title>2023-10-16 3.1km</title><desc>1697460359000</desc></polyline><polyline fill="none" points="16.810660677030683,155.30985495168716 18.84212469542399,173.6963660841575 24.809550248086452,178.5 33.06237282138318,173.36508023599163 32.046640812885016,155.80679160915315 27.221913769375533,151.5 21.000555214006454,152.49387644033413 18.461225191596895,155.14420935045928 18.84212469542399,173.36508023599163 25.06348325079307,178.33435779006686 29.507310790009797,177.34050402313005 32.93540632072836,171.87429271859583 31.919674311298877,155.6411460810341 25.06348325079307,151.6656461340608 18.84212469542399,155.30985495168716 18.969091196078807,173.53072317223996 23.03201923239976,178.00307329790667 28.11067927768454,177.83743101579603 33.18933932296932,173.19943727517966 32.681473318021744,158.1258264617063 26.71404776489362,151.6656461340608 20.746622211765498,153.15646024933085 18.715158194303513,156.13808259309735 18.969091196078807,173.53072317223996 21.38145471783355,177.17486164346337 26.33314826199785,178.5 32.808439819607884,173.53072317223996 31.15787530411035,153.98468946525827" stroke="#4dd2ff" stroke-linecap="round" stroke-linejoin="round" stroke-width="0.5"><title>2023-10-12 1.8km</title><desc>1697101056000</desc></polyline><polyline fill="none" points="54.70642480161041,160.38614482281264 56.80217611603439,176.10762012621854 65.44715028489009,177.64557917881757 70.03160628443584,171.83550102752633 68.19782388489693,154.9177560057724 59.42186525836587,152.01266403798945 55.230362630449235,157.13929204898886 56.40922274440527,175.4240821202984 64.53025908581913,178.15823174640536 69.63865291280672,173.54435054119676 68.98373062768951,157.3101792621892 63.74435234302655,152.35443993890658 59.552849715109915,152.35443993890658 55.75430045835674,155.94308085832745 55.49233154440299,172.34815614379477 59.02891188673675,177.98734758235514 67.93585497047752,176.79115773318335 70.29357519838959,171.83550102752633 69.24569954164326,156.45574294694234 65.44715028489009,152.52532785153016 59.552849715109915,152.1835520005552 55.49233154440299,156.62663025967777 55.885284916032106,173.88612014369573 58.897927429527044,177.64557917881757 63.35139897139743,178.15823174640536 69.37668399885297,174.5696590502048 69.90062182722613,171.4937308243243 68.45979279885069,154.74686844309326 61.517616571858525,151.84177605051082 55.36134708765894,156.79751754796598 56.01626937324181,174.5696590502048 62.04155440023169,178.5 68.06683942722157,176.62027336878236 69.76963737048209,173.37346570240334 68.98373062768951,156.9684048112249 61.910569943487644,151.5 55.230362630449235,157.13929204898886 56.933160572778434,175.93673566239886 64.66124354302883,177.81646339269355 68.85274617001414,175.25319755647797 69.90062182722613,170.81019011954777 68.59077725606039,155.25953105674125 64.13730571419,151.67088803788647 58.11202068673447,152.52532785153016 55.230362630449235,157.99372786399908 56.67119165882468,175.5949666594388 61.12466320069507,178.5 66.10207257093862,178.15823174640536 69.90062182722613,168.75956560508348" stroke="#4dd2ff" stroke-linecap="round" stroke-linejoin="round" stroke-width="0.5"><title>2023-10-10 2.9km</title><desc>1696942258000</desc></polyline><polyline fill="none" points="99.0428181993775,175.55262200058496 100.93912176659796,174.44439391013293 105.07486954657361,174.96313992375508 105.72503076959401,175.69409737778187 104.80396903690416,176.99094920723292 105.36383009015117,178.5 108.88553671492264,177.32105527706153 109.82465848163702,176.07136444227945 110.83602038410027,173.05320316445432 111.0166207238799,165.60187515296275 109.06613705470227,162.1826376451063 109.51763790403493,160.9328292532009 111.43200150527991,159.2821240483463 111.75708211679012,158.31527456500044 111.55842174310237,157.13618196752213 110.40257956879213,155.60334867464553 110.2219792290125,154.1648303034017 104.13574777997565,151.5 95.7378319822019,152.51405567086476 90.89774287724867,151.73582747044566 88.24291788320988,152.46689043255174" stroke="#4dd2ff" stroke-linecap="round" stroke-linejoin="round" stroke-width="0.5"><title>2023-10-07 3.0km</title><desc>1696669067000</desc></polyline><polyline fill="none" points="132.42252212995663,152.84162991598714 129.8516472587362,156.86651024583261 130.62290972005576,171.12118113820907 135.76465946203098,178.16460017219651 140.7778654601425,177.49380022333935 145.1483527412638,173.63669290184043 144.63417776674032,156.86651024583261 138.07844684645534,151.83540762588382 133.57941582193598,152.84162991598714 130.23727848939598,157.36961929430254 131.26562843751162,174.3074951072922 135.89320320589468,178.5 140.13514674268663,178.16460017219651 144.8912652535364,173.63669290184043 144.37709027901292,157.36961929430254 139.23534053843468,152.33851888112258 131.26562843751162,154.51866510347463 130.8799972073175,173.63669290184043 136.2788344360888,178.5 140.6493217172101,178.16460017219651 144.63417776674032,173.80439348972868 143.9914590488188,156.1956978389062 138.33553433278576,151.66770382528193 130.10873474599794,155.86029148800299 131.39417218137532,174.13979459297843 137.94990310212597,177.82920024706982 144.76272151013836,173.63669290184043 144.12000279221684,156.02799467591103 137.3071843846701,151.5 130.23727848939598,155.5248850391945 130.75145346391946,173.46899228950497 135.5075719752349,177.82920024706982 142.19184663938358,176.82299988158047 144.50563402287662,173.13359099067748 144.37709027901292,157.0342132867081 139.23534053843468,151.83540762588382 130.62290972005576,155.3571817780612 131.13708469411358,174.3074951072922 137.05009689740837,178.5 143.22019658749923,176.31989936868194 144.76272151013836,173.30129165260587 144.12000279221684,156.1956978389062 138.20699058938771,151.66770382528193 133.83650330919772,152.17081515409518 130.36582223325968,156.1956978389062 130.8799972073175,173.63669290184043 134.86485325777903,177.99690022179857" stroke="#4dd2ff" stroke-linecap="round" stroke-linejoin="round" stroke-width="0.5"><title>2023-10-06 2.9km</title><desc>1696597953000</desc></polyline><polyline fill="none" points="168.6861901197626,153.3565927369982 168.59524700598558,153.2005930129444 168.24157934131654,152.8292632095836 168.1068488023884,152.0118658612846 168.069797904187,151.94374740801595 168.10348053891357,151.8844181809227 168.23989520958276,151.8646417198197 168.64577095807908,151.8668391056699 168.6255613772446,151.72840316921884 168.30220808383456,151.7701538240899 166.89932634730212,151.77235122376533 164.96089071856113,151.85365478573658 164.7385853293381,151.8844181809227 164.39333832334523,152.00527376640093 163.15550149699993,152.59855072100527 162.65363023951795,152.79410724964964 162.41279940120148,152.97428067472538 162.60815868263307,154.12558178961808 162.73615269460424,156.4345095700337 162.78162425148912,159.20651180519508 162.75299401197844,159.5161887092445 162.77320359281293,161.1698871662784 162.68899700598558,161.35435221161788 162.77320359281293,161.58712630102855 162.79172904191364,163.73462669727087 162.76141467065463,164.65457649763994 162.46669161676255,164.76654745309406 162.313435628741,164.94438196318515 161.5185254491007,164.9312091086158 161.5,164.95755480621847 161.58589071856113,164.97072763771484 161.57747005987767,165.02122338489698 161.51684131736693,165.03659162213808 161.53031437125173,165.05854621951676 161.95808383233816,165.04537346493726 162.3016467065827,165.0717189625684 162.48690119759704,165.28906755732078 162.72267964071216,165.34614848572983 162.78162425148912,165.3900567447954 162.79341317364742,166.8367621983134 162.6755239520935,167.03652394637083 162.60815868263307,167.35921039777713 162.61657934130926,167.47116122293664 162.77825598802156,167.47774653965553 162.8068862275395,167.64018343945736 162.79509730538848,169.67049673251404 162.69741766467632,169.86363659167364 162.69236526946042,170.02824246953332 162.63847305389208,170.0984737627523 162.53574101795675,170.15553644714146 162.67383982035244,170.08311069536558 162.76646706586325,170.2213777371844 162.7698353293381,170.3311125804421 162.8506736526906,170.48912934897453 162.92645958084177,171.05973164424358 163.06455838323018,172.76263140735955 163.0308757485036,173.21465749060553 162.94161676646036,173.40116915152248 162.69741766467632,173.71055398709086 162.71425898203597,173.92777783805377 162.96182634730212,174.06600956576585 163.10834580838127,174.21521064113495 163.20939371257555,174.43023311921024 163.3255988023957,174.8953732785576 163.51085329341004,175.31223196525298 163.8948353293381,175.88703922397326 164.81605538921576,177.16601633567097 165.1511976047841,177.50603485284864 165.09056886227336,177.4577746275927 165.0501497005971,177.4687428741845 165.67159431137407,177.78901215234418 165.96631736526615,177.8723687925949 166.28293413173378,177.90746618728735 167.84749251497124,177.9250148539668 168.4554640718561,177.89649826023742 168.59019461077696,177.99082217188243 168.7552395209641,178.25404856796376 168.90175898203597,178.27159683078207 168.9960703592733,178.0544356391838 169.15269461077696,177.81533535174367 169.52151946107915,177.51480942263697 172.5815868263453,176.40697955944597 172.68600299401442,176.3762662833151 172.70958083832375,176.43111137531923 172.6624251497051,176.36090962175786 172.60853293412947,176.46182453958045 172.64053143712226,176.43549897404228 172.65905688622297,176.4552431525144 172.67421407184884,176.37187866732802 172.73147455089202,176.4552431525144 172.70958083832375,176.37846009082932 172.76684131736693,176.34335913222367 173.36639221556834,176.16785311180683 174.08046407184884,176.13494550522955 175.96500748503604,176.16127159624102 178.3867889221583,176.13275166223593 178.5198353293381,176.16127159624102 179.4056886227554,176.13494550522955 180.27133233533095,176.16565927360534 181.53779940120148,176.12836397528554 181.96388473053958,175.9879573177859 182.62743263472657,175.86948818209112 184.2391467065827,175.73566081498575 185.53592814371223,175.7575998091461 185.84749251497124,175.73566081498575 186.18431886227336,175.63693494567542 186.54640718563314,175.45045098182345 186.89165419161873,175.16304176148424 186.84449850298552,175.18278760863177 186.77544910179859,175.13671392500328 186.70134730538848,175.2091153645424 186.782185628741,175.13232594777946 186.8815494011942,175.17401167975459 186.94386227545328,175.1411019009438 187.16616766466177,175.12793796927144 187.40868263473385,174.85368677506995 187.43057634730212,174.58820686037507 187.85160928143887,174.17352225423474 188.12107035928784,173.85975858544407 188.22043413174106,173.64472795885195 188.27432634730212,173.40775187380405 188.36021706586325,166.10793860192916 188.39389970060438,165.89499251196867 188.39221556886332,165.3768842805348 188.47642215569067,165.15295062310724 188.5,164.8807130592295 188.4949476047841,164.54480024189888 188.42252994012233,164.33402758483226 188.4258982035899,163.80049609502657 188.35853293412947,162.36008610570025 188.39221556886332,159.95323958443896" stroke="#ff0000" stroke-linecap="round" stroke-linejoin="round" stroke-width="0.5"><title>2023-09-14 39.1km</title><desc>1694696482000</desc></polyline><polyline fill="none" points="24.695653672795743,181.5 17.63481887197122,188.3294751845533 18.486988589633256,201.82947419618722 21.40871333470568,206.91178328637034 27.495639886241406,207.38824854465201 32.36518112802878,203.10005369817372 31.513011410366744,186.42357945349067 27.252162824384868,181.97647640679497 22.139144520740956,182.770603285986 18.243511527776718,187.05887840176 18.852204182650894,204.68827598600183 25.06086926534772,208.5 32.24344259686768,203.4176983416546 31.513011410366744,187.535352369654 28.347809603903443,183.40590437175706 23.11305276909843,182.770603285986 17.63481887197122,188.3294751845533 18.730465651489794,202.62358655931894 24.573915141634643,207.8647135932697 29.443456382956356,206.7529614875093 31.756488473154604,203.89416513219476 31.269534348510206,186.42357945349067 27.617378417868167,182.6117779565975 22.017405989579856,182.9294285926735 18.365250058472157,186.26475465798285 18.608727120794356,204.05298734956887 22.382621583063155,207.38824854465201 26.88694723136723,207.8647135932697 31.878227003850043,202.1471192111494 31.878227003850043,185.3118053986691" stroke="#4dd2ff" stroke-linecap="round" stroke-linejoin="round" stroke-width="0.5"><title>2023-09-11 1.8km</title><desc>1694438011000</desc></polyline><polyline fill="none" points="62.74657534249127,196.72912134061335 67.12328767124563,193.27094943705015 73.78082191757858,195.68362980266102 72.91780821909197,199.5438963713823 56.95205479464494,200.50895877956646 54.85616438370198,199.22220852551982 52.020547945285216,200.26769333635457 50.726027397438884,199.14178653480485 50.5410958903376,196.16616460564546 60.157534246798605,197.1312329415232 67.49315068498254,194.47729094314855 73.65753424656577,195.20109457644867 73.47260273969732,199.70474022370763 56.64383561629802,199.86558402900118 53.31506849313155,197.69418868847424 52.267123288009316,199.14178653480485 50.29452054784633,198.57883226958802 50.232876712456346,196.08574216801208 59.35616438346915,196.64869898522738 68.97260273969732,194.31644556182437 74.15068493131548,195.4423622424947 72.73287671222351,199.70474022370763 59.7876712330617,199.46347442740807 53.25342465774156,200.58938057057094 49.92465753434226,198.57883226958802 50.047945205587894,196.2465870315791 64.34931506845169,195.92489725718042 70.88356164377183,194.39686825824901 74.08904109569266,195.52278477448272 72.97945205471478,199.62431830348214 56.767123287776485,199.86558402900118 52.82191780838184,200.83064587268746 50.726027397438884,199.78516213217517 49.0,196.88996601616964 49.49315068521537,196.08574216801208 54.486301369965076,196.4074318485218 60.95890410942957,195.12067199742887 66.07534246565774,196.0053197183879 73.41095890384167,195.12067199742887 73.41095890384167,188.847674608347 76.0,189.0085215891013 73.0410958903376,188.52598050562665 72.60958904097788,199.5438963713823 59.664383561583236,199.30263050476788 51.9589041096624,201.47401949443156 49.86301369895227,197.4529220102704 50.232876712456346,196.4878542391234 60.71232876717113,195.20109457644867 66.26027397252619,196.08574216801208 70.14383561629802,195.28151714347769 73.71917808195576,196.16616460564546 73.22602739697322,200.02642778703012 56.64383561629802,199.70474022370763 55.84246575366706,200.83064587268746 51.835616438416764,201.47401949443156 50.66438356181607,200.42853697692044 50.232876712456346,196.16616460564546 58.92465753434226,193.91433190292446 62.43835616461001,195.12067199742887 66.07534246565774,194.87940419034567" stroke="#4dd2ff" stroke-linecap="round" stroke-linejoin="round" stroke-width="0.5"><title>2023-08-30 4.9km</title><desc>1693396264000</desc></polyline><polyline fill="none" points="90.23067120462656,183.51244428521022 93.5728100030683,187.03421328705736 95.75805460149422,203.97209405410103 100.25708759948611,207.99690022249706 109.12660979526117,202.96589030476753 109.25515359593555,184.51866510382388 101.15689419955015,181.66770382528193 94.47261660220101,185.3571817779448 95.88659840123728,204.64289606327657 99.87145619979128,208.5 105.27029579784721,208.16460017266218 109.64078499563038,205.14599731226917 109.64078499563038,187.20191630290356 107.06990899704397,182.84162991598714 101.92815699893981,181.66770382528193 94.85824800189584,187.36961929430254 96.14368600212038,205.31369767943397 99.61436859983951,208.3323000984965 109.51224119542167,203.80439349031076 109.38369739567861,186.86651024629828 106.94136519683525,183.00933354522567 101.79961319919676,181.83540762588382 96.9149488019757,183.34474073001184 94.72970420215279,186.86651024629828 95.50096700200811,204.13979459286202 102.05670079914853,208.16460017266218 109.51224119542167,204.81059650389943 109.12660979526117,186.86651024629828 107.19845279678702,183.51244428521022 100.51417519990355,181.83540762588382 94.72970420215279,185.69258827588055 95.50096700200811,203.13359099067748 101.79961319919676,208.3323000984965 106.94136519683525,207.32610017526895 109.64078499563038,203.6366929024225 108.74097839556634,185.5248850393109 103.85631399834529,181.5 95.62951080175117,185.0217751818709 95.62951080175117,203.6366929024225 98.58601820049807,207.6615002474282 105.3988395971246,207.99690022249706 109.51224119542167,203.46899228950497 109.38369739567861,188.87894511432387 105.1417519976385,182.170815154328 95.88659840123728,184.6863684875425 95.37242320226505,202.2950873146765 99.3572810003534,207.49380022357218 105.7844709972851,207.99690022249706 109.12660979526117,205.31369767943397 109.76932879537344,191.89759079378564" stroke="#4dd2ff" stroke-linecap="round" stroke-linejoin="round" stroke-width="0.5"><title>2023-08-25 3.1km</title><desc>1692968645000</desc></polyline><polyline fill="none" points="141.85483870934695,190.31280009931652 141.41935483831912,194.1951437544776 150.6370967742987,194.57390774285886 151.0,199.68719990062527 124.0,199.59250967216212 124.43548387056217,195.04736241674982 140.40322580607608,195.04736241674982 148.3870967742987,193.43761511310004 150.56451612897217,194.38452577602584 150.7096774186939,199.21374861942604 141.56451612897217,199.30843890324468" stroke="#4dd2ff" stroke-linecap="round" stroke-linejoin="round" stroke-width="0.5"><title>2023-08-24 1.1km</title><desc>1692883156000</desc></polyline><polyline fill="none" points="175.3379449674394,208.5 175.41746143030468,208.11098019758356 175.6162525875261,208.26658822098398 175.03975823160727,192.00481134827714 174.56265945418272,189.0220269482379 175.3379449674394,188.4514016063913 174.58253856992815,187.7510861771152 174.84096707426943,184.94979680079268 174.3837474125903,181.5" stroke="#4dd2ff" stroke-linecap="round" stroke-linejoin="round" stroke-width="0.5"><title>2023-08-21 1.2km</title><desc>1692620048000</desc></polyline><polyline fill="none" points="25.56658891425468,229.02468051756296 25.206032332440373,229.79751953664527 25.46357274800539,238.5 25.32192551944172,227.69740137329063 25.0,225.54684058270504 25.090139145439025,223.09380802355008 24.510673210432287,212.23935023228114 24.832598729874007,211.65123111658613 25.373433602566365,211.5 24.74245958449319,211.56721385417768 24.43341108574532,212.12172665009712 24.459165127307642,215.81841020203137 25.012877020810265,222.64015927595756 24.845475750684272,225.00919409366907 25.193155311630107,227.12616259037895 25.527957851823885,238.4832004797354 25.244663394754753,230.80556261688616" stroke="#4dd2ff" stroke-linecap="round" stroke-linejoin="round" stroke-width="0.5"><title>2023-08-10 4.8km</title><desc>1691669615000</desc></polyline><polyline fill="none" points="64.30481283413246,224.0110793687054 66.68716577533633,221.27972575224703 74.70053475908935,221.27972575224703 75.49465240677819,226.64823738660198 49.79411764675751,227.8726285097655 49.0,223.8227105255355 58.0962566845119,220.62043176451698 63.94385026721284,222.31575779797276 74.84491978632286,221.93901906500105 76.0,225.89476476906566 61.12834224617109,227.6842607963481 50.37165775382891,227.2133412710973 49.072192512918264,226.83660540293204 49.0,225.14129127009073 50.66042780736461,222.4099424466258 58.89037433126941,223.1634191412013 69.06951871654019,221.27972575224703 75.35026737954468,221.84483434748836 74.91711229970679,226.55405335745309 56.36363636376336,227.9668123460142 49.43315507983789,227.11915732483612 49.43315507983789,223.54015715781134 51.45454545458779,222.59831170312827 65.82085561519489,223.35178817703854 68.0588235296309,222.12738845899003 75.56684491969645,222.22157313558273 75.56684491969645,226.64823738660198 59.75668449187651,227.02497336477973 54.55882352916524,229.19120096275583 50.01069518737495,227.4958930273424 49.14438502630219,224.67036988545442 50.08288770029321,223.7285260835779 59.54010695172474,223.25760366610484 60.83957219263539,222.03320376906777 65.89304812811315,223.7285260835779 75.78342245984823,222.59831170312827 75.56684491969645,226.74242140172282 54.99197860946879,227.7784446599544 49.5775401070714,226.45986931480002 49.50534759322181,223.54015715781134 51.09358288766816,222.4099424466258 66.47058823565021,223.54015715781134 76.0,222.69249631051207 75.4224598929286,226.9307893908117 58.6737967915833,227.4958930273424 56.14705882361159,229.00283363478957 50.58823529398069,227.8726285097655 49.72192513337359,225.51802812964888 50.73262032074854,223.25760366610484 66.18181818164885,223.91689495416358 75.7112299464643,222.5041270814836 75.92780748661608,227.02497336477973 61.9224598929286,226.9307893908117 58.3850267380476,227.4958930273424 56.9411764703691,229.3795682354248" stroke="#4dd2ff" stroke-linecap="round" stroke-linejoin="round" stroke-width="0.5"><title>2023-08-08 4.7km</title><desc>1691498421000</desc></polyline><polyline fill="none" points="101.92443649237975,211.5 102.12414216611069,220.33470591754303 103.19529077969491,220.68997891817708 103.14082559593953,221.21104457628098 96.8047092204215,221.0215663490817 97.53091167018283,222.60843965646927 97.82139265025035,233.33719011524227 98.31157930393238,237.0080122128129 98.8380760801956,238.5" stroke="#4dd2ff" stroke-linecap="round" stroke-linejoin="round" stroke-width="0.5"><title>2023-08-04 1.6km</title><desc>1691107871000</desc></polyline><polyline fill="none" points="136.93455497385003,223.06356320006307 144.5680628272239,221.3115291815484 150.01047120429575,222.2336529561435 150.64659685874358,227.3975211729994 139.97382198972628,226.75203995860647 124.35340314148925,228.13521318056155 124.42408376955427,225.00001618842361 126.47382198972628,222.69471433776198 131.9162303665653,221.95701596525032 137.21727748727426,222.8791387960664 144.78010471211746,220.48161663144128 150.5052356023807,222.51028982555727 150.85863874363713,227.30530961160548 124.35340314148925,228.04300172673538 124.42408376955427,224.72338041168405 126.61518324632198,222.69471433776198 133.25916230352595,221.49595404439606 136.51047120429575,222.6025020882371 149.93979057623073,222.6025020882371 151.0,227.3975211729994 125.20157068083063,228.50405886070803 124.0,226.56761663331417 125.27225130912848,224.26232051325496 132.90575916250236,222.04922830912983 149.86910994793288,222.51028982555727 150.43455497385003,227.21309803659096 125.3429319371935,228.50405886070803 124.70680628274567,224.53895649279002 130.07853403151967,222.97135100484593 141.45811518328264,223.89347235218156 150.64659685874358,222.8791387960664 150.71727748727426,226.9364632302313 126.47382198972628,228.41184746084036 124.1413612565957,227.02867484587478 124.91884816787206,224.6311684589018 131.28010471211746,222.69471433776198 150.57591623067856,223.34019970556255 150.64659685874358,226.8442516013165 135.0261780107394,227.58194425608963 130.57329842960462,229.51838336855872 127.25130890053697,228.96511565742549 125.41361256549135,228.04300172673538 124.91884816787206,225.00001618842361 130.14921466005035,222.6025020882371 141.38743455521762,224.3545325200539 150.22251308895648,223.06356320006307 150.78795811533928,227.30530961160548 135.3795811519958,226.9364632302313 130.36125654471107,228.50405886070803" stroke="#4dd2ff" stroke-linecap="round" stroke-linejoin="round" stroke-width="0.5"><title>2023-07-26 4.8km</title><desc>1690377436000</desc></polyline><polyline fill="none" points="170.5,223.49708411691245 185.62000000011176,221.24268283619313 188.4279999998398,221.8062838979531 187.8519999999553,226.78473846788984 170.21200000029057,226.97260392288445 163.660000000149,229.22698509308975 161.78799999970943,227.25440200173762 162.1480000000447,223.5910173318116 168.34000000031665,221.24268283619313 172.73199999984354,222.74561790260486 187.8519999999553,221.90021736058407 187.70800000010058,226.31507459114073 163.15599999995902,228.47552558220923 161.5,226.50294018298155 162.07599999988452,223.7788837206317 167.90800000028685,220.96088211983442 172.15599999995902,220.77301490691025 175.39600000018254,222.74561790260486 181.73199999984354,220.96088211983442 187.99599999981,221.99415080901235 188.0679999999702,226.87867120222654 161.9320000000298,226.97260392288445 161.9320000000298,223.5910173318116 163.15599999995902,223.02741783601232 178.42000000039116,222.65168456389802 184.03599999984726,220.96088211983442 188.2839999999851,221.99415080901235 187.92399999964982,226.69080572010716 161.9320000000298,227.16046932234894 162.07599999988452,223.49708411691245 165.02799999993294,222.27595107199159 177.84400000050664,222.46381784550613 184.03599999984726,220.77301490691025 188.5,221.99415080901235 187.92399999964982,226.87867120222654 162.3640000000596,227.72406519192737 162.8680000002496,223.21528438961832 175.10800000000745,222.65168456389802 182.52400000020862,220.86694852029905 188.2119999998249,222.08808424370363 188.14000000013039,226.78473846788984 161.9320000000298,226.78473846788984 162.29200000036508,223.21528438961832 171.5800000000745,224.530348726199 183.10000000009313,220.86694852029905 188.3560000001453,221.90021736058407 188.2839999999851,226.87867120222654 163.08399999979883,227.4422673190711" stroke="#4dd2ff" stroke-linecap="round" stroke-linejoin="round" stroke-width="0.5"><title>2023-07-24 4.9km</title><desc>1690201802000</desc></polyline><polyline fill="none" points="28.090709373471327,241.80918372313317 28.051211490179412,241.5 26.92552181414794,242.1441321441962 26.76753028074745,243.0716782946256 27.202006997773424,248.81720258526911 28.248700906871818,249.30672289905488 28.288198790396564,249.71894947676628 23.647197494632564,249.92506240401417 21.13908190082293,249.64165706688073 21.948788509820588,250.54339973890455 22.14627792662941,251.72854023214313 22.383265226962976,262.7293552663323 23.50895490287803,268.5 22.77824406058062,265.69198665853764 23.647197494632564,264.919131097442 22.916486652335152,242.35025393293472 27.932717840070836,242.01530590372568 28.544935032259673,241.88647956910427 28.64367974072229,241.52576533101092 28.86091809917707,241.96377538118395" stroke="#4dd2ff" stroke-linecap="round" stroke-linejoin="round" stroke-width="0.5"><title>2023-07-24 3.0km</title><desc>1690157385000</desc></polyline><polyline fill="none" points="62.68140674883034,259.79373846709495 63.18675412045559,268.5 62.82394062291132,256.86896365902066 62.55183049966581,255.58406809056032 62.79802537307842,254.48513291648123 62.60366099938983,253.94411483879958 62.059440752957016,242.70050969385193 62.38338137581013,241.85508163082704 62.992389746708795,241.58454334440466 62.448169500450604,241.5338173451819 62.007610253291205,242.22707074056234 62.007610253291205,245.8454477910127 62.51295762491645,253.8595805353325 62.62957624916453,252.91279211294022 61.95577975362539,242.59905865287874 62.189017002121545,241.92271610349417 62.79802537307842,241.56763468044664 62.34450850106077,241.5 61.85211875429377,242.37924775850115 61.81324587960262,245.72709145543922 62.305635626311414,254.1300900886199" stroke="#4dd2ff" stroke-linecap="round" stroke-linejoin="round" stroke-width="0.5"><title>2023-07-22 4.9km</title><desc>1690030226000</desc></polyline><polyline fill="none" points="96.78209478687495,252.69520053523593 92.11297741951421,249.89641083835158 94.13205520017073,264.3841881727567 98.04401839990169,267.3475742052542 104.35363646410406,266.03051470941864 107.5084454966709,260.59762800252065 106.37271424476057,246.76834353117738 103.97505938028917,242.65245225431863 99.68451909674332,241.5 93.12251631030813,244.7927175963996 94.38443992240354,263.23175816470757 96.90828714799136,267.0183094756212 100.5678656254895,268.00610337546095 107.88702258048579,262.0793269771384 107.12986841285601,250.0610457189614 102.20836632279679,241.66463610855862 96.65590242575854,242.15854428964667 92.61774686444551,246.10980193840805 93.62728575477377,262.73785922897514 99.30594201292843,267.8414711188525 106.87748368969187,263.72565688437317 106.62509896699339,246.76834353117738 99.05355728976429,242.48781628976576 92.87013158714399,246.93297886964865 93.8796704779379,264.71345367317554 99.05355728976429,268.5 107.63463785732165,262.9024922319222 107.00367605080828,250.22568057558965" stroke="#4dd2ff" stroke-linecap="round" stroke-linejoin="round" stroke-width="0.5"><title>2023-07-18 1.7km</title><desc>1689685608000</desc></polyline></svg>