<?xml version="1.0" encoding="utf-8" ?>
<svg baseProfile="full" height="300mm" version="1.1" viewBox="0,0,200,300" width="200mm" xmlns="http://www.w3.org/2000/svg" xmlns:ev="http://www.w3.org/2001/xml-events" xmlns:xlink="http://www.w3.org/1999/xlink"><defs /><rect fill="#222222" height="300" width="200" x="0" y="0" /><text fill="#FFFFFF" style="font-size:12px; font-family:Arial; font-weight:bold;" x="10" y="20">Over 10km Runs</text><text fill="#FFFFFF" style="font-size:4px; font-family:Arial" x="10" y="280">ATHLETE</text><text fill="#FFFFFF" style="font-size:9px; font-family:Arial" x="10" y="290">Yunlong</text><text fill="#FFFFFF" style="font-size:4px; font-family:Arial" x="120" y="280">STATISTICS</text><text fill="#FFFFFF" style="font-size:3px; font-family:Arial" x="120" y="285">Number: 36</text><text fill="#FFFFFF" style="font-size:3px; font-family:Arial" x="120" y="290">Weekly: 1.9</text><text fill="#FFFFFF" style="font-size:3px; font-family:Arial" x="141" y="285">Total: 170.3 km</text><text fill="#FFFFFF" style="font-size:3px; font-family:Arial" x="141" y="290">Avg: 4.7 km</text><text fill="#FFFFFF" style="font-size:3px; font-family:Arial" x="167" y="285">Min: 1.1 km</text><text fill="#FFFFFF" style="font-size:3px; font-family:Arial" x="167" y="290">Max: 39.1 km</text><polyline fill="none" points="33.646985721657984,55.363511272575124 33.829507847782224,55.74068780467496 32.84084633161547,56.236971117177745 32.11075782740954,57.16997882806754 32.04991711874027,57.686107995716156 31.15251666563563,58.5 29.585868417052552,56.336227561710984 29.053512216021772,56.276673703687266 28.277793180313893,55.363511272575124 27.137029892532155,54.84737326564209 26.66551440017065,54.4106395716517 26.711144931672607,53.91434957571619 26.37652103387518,54.11286579203443 13.158877072215546,42.77712437052105 12.200635910441633,41.38738858627039 11.866012012702413,40.3351505890314 11.577018646523356,37.77400888623379 11.729120418138336,36.3445134118665 13.113246540771797,35.37165370672301 15.151410281658173,32.6515803460934 16.535536404233426,31.5 17.083102782431524,31.519854916390614 20.763965657853987,34.71645854317467 21.661366110900417,35.07383811577165 21.85909841413377,35.92757439297566 24.642560836451594,37.59532277606195 24.961974557023495,38.270357956615044 29.3881361138192,42.00284476217348 29.50981753115775,42.34035180165665 25.90500554163009,46.56904527434381 25.69206306122942,46.9859515739372 25.935425896022934,47.28374100319343 26.604673691501375,47.045509512070566 28.262583003146574,44.78228947255411 30.300746744091157,42.91609716558014 38.422981353476644,49.963816439470975 37.251797711185645,51.79020787151239 35.44178662786726,53.53716796422668" stroke="#4dd2ff" stroke-linecap="round" stroke-linejoin="round" stroke-width="0.5"><title>2024-08-08 4.9km</title><desc>1723122982000</desc></polyline><polyline fill="none" points="75.9269192913489,43.97718026632356 75.96013779529312,43.95550234961411 75.96345964567445,44.016200476387894 76.0,43.87746171811341 75.95349409450137,43.80375648844347 75.69106791338709,43.9858514285479 75.32898622048378,43.6390029588656 75.24261811023462,43.62599606222466 75.13631889765384,43.72571545709798 75.02337598426675,43.64333858979808 74.94365157482389,43.66935236212157 74.2460629921261,44.50178101246456 73.23289862203819,45.47291820264218 69.80142716536648,49.50886601677121 69.60875984252198,49.61723512291428 64.75553641733131,45.49893036807771 63.7357283464662,44.83994846887617 63.55302657482389,44.549471528638605 63.476624015762354,44.211300755663615 62.576402559061535,43.76473599846577 62.14456200788845,43.87746171811341 61.702755905513186,43.881797314141295 60.82246555118763,43.76473599846577 59.89899114174477,43.756064771492674 52.016240157492575,44.06822734319394 51.49138779527857,44.03787834867035 51.132627952771145,43.83410572287539 50.72071850394423,44.07256291129488 49.1328740157478,44.14193191470804 49.08304625985329,44.102911870282696 49.0,42.277583452865656 49.01660925196484,41.56216276771556 54.17876476379752,41.341029241093565 54.29835137796181,41.3497011752097 55.374630905513186,41.852669008841985 55.86958661417884,42.008760737542616 61.21776574803516,42.03477594566175 61.745939960630494,41.93505085706056 62.95177165354835,41.393060807688016 63.47994586615823,41.406068685042555 63.97157972441346,41.28899758309126 63.98818897639285,41.19360597264313 65.66904527560109,40.469486910174965 65.87500000001455,40.51284783147821 66.23375984253653,40.43913422747755 67.86146653543983,40.38276487708754 67.87807578741922,40.508511742202245 67.95115649607033,40.534528268315626 71.1002706693107,40.43479812741316 71.1600639763783,40.62558592971982 71.18331692914944,41.3497011752097 71.27300688976538,41.679232789794696 71.46567421260988,42.01309660714469 74.24938484252198,44.41073526835862 74.42212106300576,44.28934050751923 74.58821358268324,44.34570242263726 75.16621555118763,43.73872230992856 75.65784940945741,44.10724743330866" stroke="#4dd2ff" stroke-linecap="round" stroke-linejoin="round" stroke-width="0.5"><title>2024-07-21 16.7km</title><desc>1721568012000</desc></polyline><polyline fill="none" points="88.48353388218675,46.67436205971171 87.2865737809334,45.580715543212136 86.92748575046426,44.44242206035415 86.94458518049214,42.36668853271112 86.5,41.3622911945713 86.63679544016486,39.50971874357492 88.00474984169705,38.683865937491646 89.8856871437165,35.84914794439101 91.3391386953881,34.666139805165585 91.6298290057457,33.88490298129909 92.31380620639538,33.817939638742246 94.34863837872399,35.20184274150233 94.57093096891185,35.84914794439101 98.02501583273988,38.59458428506332 98.21310956293019,39.15259375491587 99.20487650408177,39.44275787194783 101.2055098163546,41.58549117493385 102.00918302719947,41.853330720055965 106.83122229255969,46.31725385579921 110.30240658647381,49.01786388960318 111.12317922734655,50.06684827477147 113.5,51.71842608237057 113.43160227988847,52.23175067496777 111.84135528816842,53.77171408235154 110.47340088663623,56.1820603612432" stroke="#4dd2ff" stroke-linecap="round" stroke-linejoin="round" stroke-width="0.5"><title>2024-07-16 2.5km</title><desc>1721136594000</desc></polyline><polyline fill="none" points="147.59446461926564,42.048632651305525 146.23267822878552,43.59310542929961 145.18606510775862,45.0211206335116 144.1037719939486,45.75839603874192 143.14041218932834,46.79832497290408 142.13542572647566,46.0765854153251 135.4097470905981,40.3023152679707 135.30865377778537,39.85214412885034 135.20161379946512,36.1031566953061 135.1659338067111,33.61144696160409 135.27297378500225,31.99681861638237 136.4623068771325,31.67078192459303 137.94897324225167,31.5 138.15115986790624,36.39035558557953 138.2819865080237,36.964748698497715 138.60310644292622,37.647802677987784 143.75291873174137,42.02534879786981 145.923451624898,44.07428876162885 145.1265984531492,45.09872905365046 144.1156653248472,45.75063529839463 143.11662552747293,46.813846145803836 143.22961217124248,46.93801536554747 143.16419885118376,47.09322648135276 143.96699868835276,47.8227126404272 143.94321202646825,47.93911907781876 142.65278562155436,49.48342029947162 142.2603057011729,50.15855293702771 141.1780125873338,51.44671320591078 140.1373461317562,52.471011088357045 139.3107596327318,52.998671974099125 138.40686648272094,53.22370222562677 137.34241336528794,54.47299074109105 137.34241336528794,54.923037779171864 138.5198531264905,55.95502777613365 138.92422637779964,56.1567678353058 139.48915959653095,56.05589790164595 140.1135594698717,55.35756233049324 140.48225272848504,54.83768432402212 140.4049460774695,54.32556070855571 138.95990637055365,53.16162501023791 138.41875981364865,53.239221518106206 137.34836003073724,54.480750205122604 137.32457336891093,55.1247817635558 137.15212007053196,55.73776839277707 136.62881351003307,56.65335548121948 135.3859604287427,58.274992132512125 135.09457382117398,58.5 131.62172119220486,55.63689766227253 127.7801753047097,51.93558511753872 127.40553538070526,51.45447311272801 127.71476198465098,51.563111688854406 130.6464680567151,47.58213852677727 131.82390781785944,45.23842392365623 131.92500113073038,44.84262083615249 132.69806764059467,44.36920541989821 135.02321383566596,43.58534437203343 135.6773470363114,43.158484472631244 136.91425345212338,41.82355497306344 138.0500665550935,40.20141517257434 139.5961995748512,38.4860841704176 143.7826520590752,42.03311008349556 145.8937182975642,44.00443983915102 147.06521139331744,42.6229644661762 147.41606465546647,42.110722877165244 147.36849133175565,42.00206493418227" stroke="#4dd2ff" stroke-linecap="round" stroke-linejoin="round" stroke-width="0.5"><title>2024-07-06 16.1km</title><desc>1720267100000</desc></polyline><polyline fill="none" points="166.31297889631242,42.666744234389625 168.2292335513048,41.33340739167761 171.2952409996651,57.000016780686565 179.5990111725405,57.50001140637323 183.17601986275986,52.333389695733786 181.0042645870708,34.500031587900594 174.61674906872213,32.333342900150456 168.61248448258266,37.500055278651416 170.0177378966473,54.66670562699437 174.23349813837558,58.33333529520314 179.85451179370284,57.50001140637323 183.30377017334104,51.166729938820936 181.77076644916087,35.166704201838 174.61674906872213,32.16667436843272 170.14548820676282,35.666708406293765 169.12348572397605,39.666734144091606 170.6564894481562,54.833370867650956 176.02200248325244,58.00000581308268 180.36551303509623,56.83335185656324 183.43152048345655,50.000068987952545 182.92051924206316,37.833390756859444 180.36551303509623,33.16668519063387 171.2952409996651,33.50002193625551 168.86798510327935,39.166731694713235 170.27323851687834,55.16670127620455 174.10574782826006,57.833341035177 180.4932633456774,57.333346555707976 183.30377017334104,54.00004441977944 182.79276893194765,38.00005845958367 178.57700869021937,32.16667436843272 175.0,31.5 169.7622372759506,35.33337229397148 169.37898634467274,52.666720835492015 171.03974037896842,56.000026871101 176.40525341406465,58.5 183.30377017334104,54.16670975787565 182.6650186209008,37.500055278651416 176.27750310394913,31.833337233169004 171.93399255210534,33.33335357543547 168.99573541386053,37.333387503167614 170.14548820676282,54.16670975787565 172.9559950348921,57.166681680013426 178.44925838010386,58.16667056630831 183.55927079403773,53.33338282222394 182.15401737997308,35.000036085024476 174.61674906872213,32.000005812966265 168.99573541386053,37.833390756859444 170.27323851687834,54.66670562699437 176.02200248325244,58.16667056630831 181.1320148971863,57.166681680013426 183.68702110368758,49.66673706821166" stroke="#4dd2ff" stroke-linecap="round" stroke-linejoin="round" stroke-width="0.5"><title>2024-02-29 2.9km</title><desc>1709196138000</desc></polyline><polyline fill="none" points="13.055351222399622,61.5 22.892120803240687,67.33338750316761 22.508870040997863,82.83338636858389 27.6188802132383,88.33333529508673 34.26189343677834,86.83335185598116 36.816898522898555,83.16671736212447 35.7948964885436,66.3333803373389 30.55713606160134,61.833337233169004 25.319375636056066,62.333342899917625 21.870118769351393,65.66670840617735 23.147621312644333,84.33337507175747 28.896382756065577,88.33333529508673 36.30589750595391,85.16670127632096 35.9226467423141,66.3333803373389 30.55713606160134,62.16667436878197 22.3811197867617,64.83336794318166 22.892120803240687,82.83338636858389 25.574876144062728,87.33334655524231 32.34563962183893,88.5 36.43364775972441,85.00003608386032 36.68914826866239,73.1667451482499 33.36764165665954,63.000016781152226 23.78637258382514,63.50002193602268 21.870118769351393,68.66672902554274 24.29737360123545,86.50002193532418 32.98439089395106,88.5 36.05039699701592,86.00002687051892 36.94464877760038,81.16672993893735 34.772894453722984,64.83336794318166 31.83463860535994,62.50001140648965 24.808374618180096,63.000016781152226 21.997869023587555,68.00005845935084 23.914122838526964,85.66669670608826" stroke="#4dd2ff" stroke-linecap="round" stroke-linejoin="round" stroke-width="0.5"><title>2024-02-26 2.1km</title><desc>1708947688000</desc></polyline><polyline fill="none" points="57.99268657295033,72.26694831845816 54.31065588677302,78.06449348235037 56.849987394642085,85.68407914135605 61.4207841088064,88.5 68.65787890693173,86.84357681323308 69.92754466086626,67.79453605914023 63.57921589072794,61.5 56.976953969337046,64.64727240230422 56.21515451744199,81.54300633713137 60.02415177971125,87.17486164462753 64.72191506950185,87.67178870958742 70.18147781165317,84.52458028239198 70.05451123602688,67.62889082136098 64.21404876746237,61.66564613406081 56.469087668228894,65.80679160903674 56.34212109260261,82.53686519083567 58.754486025776714,87.00921924074646 62.05561698554084,88.00307329848874 69.80057808570564,84.85586579178926 69.92754466086626,67.79453605914023 68.65787890693173,64.4816267042188 62.9443830139935,61.66564613406081 56.34212109260261,67.29760027374141 56.7230208190158,84.19329467555508 61.928650410845876,88.00307329848874 67.51517972862348,86.67793436127249 70.68934411276132,81.70864954008721 69.80057808570564,65.97243711340707 67.007313426584,62.32823042757809 62.690449862740934,61.5 56.976953969337046,65.3098549512215 56.21515451744199,82.03993587312289 61.03988438239321,88.00307329848874 66.49944712501019,87.50614637858234 70.18147781165317,84.19329467555508 70.43541096244007,68.78840697626583 69.16574520803988,65.1442093505757 64.46798191871494,62.32823042757809 59.00841917656362,63.322106140782125 57.10392054542899,65.97243711340707 56.469087668228894,84.35893749108072 60.91291780676693,88.16871555661783 69.16574520803988,85.35279387363698 69.80057808570564,68.1258264615899 67.51517972862348,63.81904367066454 63.57921589072794,62.32823042757809 56.088187942281365,66.46937347960193 56.34212109260261,83.53072317270562 58.88145260093734,87.8374310163781 67.76911287894472,86.84357681323308 70.05451123602688,83.19943727517966 70.18147781165317,73.4264597252477" stroke="#4dd2ff" stroke-linecap="round" stroke-linejoin="round" stroke-width="0.5"><title>2024-01-18 3.0km</title><desc>1705581243000</desc></polyline><polyline fill="none" points="96.80624317470938,64.83336794329807 93.22923553083092,66.1667123909574 93.10148525843397,84.16670975799207 96.16749180993065,87.50001140625682 101.27750272955745,88.33333529555239 106.38751364918426,85.0000360844424 106.38751364918426,67.00005187850911 104.08800873486325,62.833348347223364 100.12775027239695,61.5 94.76223880704492,63.66669027204625 92.46273389318958,67.33338750293478 92.71823443938047,82.66672083549201 98.59474699618295,88.00000581273343 106.13201310299337,84.66670562652871 106.25976337585598,66.83338402933441 100.89425191050395,61.83333723281976 96.03974153706804,63.00001678126864 92.84598471224308,67.00005187850911 93.35698580369353,83.33338282257318 96.03974153706804,87.50001140625682 99.87224972667173,88.5 106.38751364918426,84.50004036154132 106.77076446823776,67.66672302980442 102.17175464099273,62.000005812966265 96.42299235565588,62.666679889312945 93.48473607655615,65.83337642531842 93.35698580369353,83.33338282257318 99.36124863475561,88.5 106.89851474110037,85.0000360844424 106.00426283013076,66.83338402933441 100.76650163717568,62.666679889312945 93.35698580369353,65.66670840571169 93.48473607655615,84.16670975799207 100.25550054572523,88.5 106.38751364918426,85.33336644410156 106.51526392158121,67.16671970312018 101.66075354861096,62.000005812966265 95.91199126420543,62.833348347223364 92.71823443938047,67.33338750293478 92.97373498557135,82.00005845841952 98.21149617806077,88.00000581273343 106.13201310299337,85.50003158731852 106.51526392158121,66.83338402933441 100.51100109145045,61.5 93.10148525843397,66.33338033745531 93.35698580369353,82.50005527795292 95.40099017182365,86.16669191711117 99.74449945334345,87.66667623317335 104.98226064629853,87.0000167802209 107.53726610634476,83.16671736259013 105.87651255680248,65.33337229420431 102.04400436766446,62.000005812966265 96.67849290184677,62.16667436843272 93.35698580369353,65.33337229420431 93.10148525843397,79.16673900594469" stroke="#4dd2ff" stroke-linecap="round" stroke-linejoin="round" stroke-width="0.5"><title>2024-01-17 3.3km</title><desc>1705483266000</desc></polyline><polyline fill="none" points="131.1221255492419,76.95290702185594 128.1284293779172,79.50006975582801 133.20469679823145,86.12266671471298 139.32224984373897,87.99057184869889 145.4398028878495,85.78304727654904 146.35092781018466,69.48119743622374 142.83658882649615,63.02831864915788 137.50000000046566,61.83962653996423 132.4237325801514,65.06607371894643 132.03325047064573,81.87741659942549 136.84919648524374,87.31133396551013 146.0906064035371,85.27361793338787 145.8302849973552,68.46232422208413 141.01433898322284,61.66981328232214 131.51260765828192,66.76420021243393 131.64276836114004,79.83969103102572 135.41742875101045,87.82076241495088 145.04932077927515,86.63209568534512 146.35092781018466,69.14157313096803 143.09691023314372,62.5188793229172 135.93807156337425,62.68869245657697 131.51260765828192,66.93401272536721 132.03325047064573,83.40570842847228 138.15080351568758,88.5 145.70012429496273,86.46228605299257 146.22076710686088,67.4434501142241 141.5349817960523,61.5 135.54758945386857,62.349066164926626 132.81421468919143,65.74532461480703 132.16341117350385,83.40570842847228 133.59517890727147,86.46228605299257 139.84289265563712,88.5 146.87157062254846,83.7453285624506" stroke="#4dd2ff" stroke-linecap="round" stroke-linejoin="round" stroke-width="0.5"><title>2024-01-13 2.0km</title><desc>1705132259000</desc></polyline><polyline fill="none" points="167.0451420461759,69.26256470545195 168.46796216722578,83.94379430869594 170.79621327668428,87.31876321486197 175.71141006145626,88.5 182.82551067043096,83.10005053936038 182.30812153499573,66.39379687560722 175.8407573448494,61.83750389900524 169.1146985865198,65.7187916438561 169.1146985865198,83.60629687458277 174.547284506727,87.82500769919716 182.9548579538241,83.77504560397938 182.69616338657215,66.39379687560722 178.4277030210942,62.17500769952312 173.64185352018103,62.006255811546 168.33861488383263,67.74380615423433 168.7266567349434,82.42505507986061 171.96033883048221,87.99375581101049 174.80597907397896,88.5 181.1439959811978,86.30627357913181 182.82551067043096,82.76255285891239 182.17877425206825,65.88754298910499 175.71141006145626,61.83750389900524 172.2190333986655,62.006255811546 168.7266567349434,66.22504560498055 168.98535130312666,83.94379430869594 175.452715493273,88.5 182.69616338657215,83.26879934268072 181.79073240002617,65.38128887990024 175.5820627771318,61.5 168.7266567349434,66.05629430920817 169.76143500534818,82.5938039815519 175.452715493273,87.48751140071545" stroke="#4dd2ff" stroke-linecap="round" stroke-linejoin="round" stroke-width="0.5"><title>2024-01-11 2.0km</title><desc>1704963338000</desc></polyline><polyline fill="none" points="22.082812765147537,98.10645157343242 20.21140963351354,101.26604313729331 20.431574707385153,114.04792344977614 24.944958731066436,118.35638494248269 29.67850782861933,117.78192450263305 32.10032364632934,114.47877044946654 31.329745885916054,98.82454145798692 28.137352309189737,95.5213236414711 21.312235004734248,95.95217876986135 17.459346204530448,92.79257010918809 18.560171575751156,91.5 18.340006501879543,95.37770522356732 21.97273022774607,95.95217876986135 20.101327096112072,98.96815937163774 20.54165724478662,112.61176541814348 22.74330798815936,117.3510789515567 27.807104696985334,118.5 31.549910960253328,116.3457719310536 32.320488720200956,101.12242555926787 27.476857086177915,95.5213236414711 23.623968285042793,96.09579710348044 20.321492170449346,99.82986641401658 20.651739781722426,114.04792344977614 25.055041268002242,118.21276986418525 29.01801260607317,118.06915476452559 31.990241108927876,114.47877044946654 31.439828423317522,98.68092352291569 25.49537141667679,95.09046832495369 20.87190485652536,99.5426308172755 21.20215246779844,114.90961726062233 25.715536491479725,118.06915476452559 30.228920514695346,117.06384847918525 32.54065379500389,113.61707626050338 31.770076034590602,98.53730556712253 28.797847531270236,95.09046832495369 25.935701565351337,94.80323134205537 20.87190485652536,98.82454145798692 20.981987392995507,113.47346048912732 25.49537141667679,117.63830933981808 29.67850782861933,117.2074637261685 32.320488720200956,113.7606920110411 31.990241108927876,98.96815937163774 30.559168125968426,95.80856041470543 27.25669201090932,94.65961281914497 20.651739781722426,98.39368759014178 20.54165724478662,113.18622888275422 23.293720673769712,116.63300261320546" stroke="#4dd2ff" stroke-linecap="round" stroke-linejoin="round" stroke-width="0.5"><title>2024-01-09 2.6km</title><desc>1704792913000</desc></polyline><polyline fill="none" points="52.08673413656652,101.06969162542373 57.19512871094048,97.48106644977815 58.243004521820694,115.25319755601231 62.69647671468556,118.1582317459397 67.54290233645588,117.98734758188948 71.73440557718277,114.74054371356033 72.38932795869187,110.29753432807047 71.99637452978641,97.31017926183995 68.3288091942668,92.18355200090446 62.041554333176464,91.84177605004515 58.243004521820694,94.9177560058888 58.243004521820694,113.03169594914652 63.87533700093627,118.5 71.34145214874297,116.79115773225203 72.25834348192438,98.33550201519392 68.3288091942668,92.18355200090446 62.041554333176464,92.18355200090446 58.63595794979483,95.77219344524201 58.63595794979483,112.17727112979628 62.43450776254758,117.47469493933022 69.24570052837953,117.64557917835191 72.25834348192438,115.25319755601231 72.25834348192438,97.82284075079951 69.24570052837953,92.69621573900804 64.00632147677243,91.5 61.12466299906373,91.84177605004515 58.37398899765685,95.94308085832745 58.50497347395867,114.05700490798336 64.792228335049,117.98734758188948 72.65129691082984,114.9114283528179 72.38932795869187,98.67727606592234 67.93585576536134,91.84177605004515 62.3035232857801,91.67088803753722 57.981035568751395,96.96840481087565 58.76694242609665,114.9114283528179 65.44715071609244,118.32911588542629 72.65129691082984,114.22788964677602 71.73440557718277,95.25953105615918 67.41191786015406,91.84177605004515 62.3035232857801,92.0126640376402 58.243004521820694,95.4304185443325 58.243004521820694,112.68992609635461 63.35139909572899,117.81646339292638 72.38932795869187,114.74054371356033 72.91326586343348,99.18993695557583 69.24570052837953,92.0126640376402 61.12466299906373,92.52532785164658 58.243004521820694,99.18993695557583 59.42186480760574,116.27850456547458 68.72176262317225,117.47469493933022" stroke="#4dd2ff" stroke-linecap="round" stroke-linejoin="round" stroke-width="0.5"><title>2024-01-08 3.0km</title><desc>1704701613000</desc></polyline><polyline fill="none" points="92.6181492912583,96.48730782361235 93.40906186727807,114.88857094454579 100.39545628754422,117.98408224270679 106.45911937020719,113.168838925194 105.80002555716783,96.14335623942316 101.05455010058358,92.01592937600799 93.54088062932715,94.93952490098309 92.88178681628779,112.4809454131173 97.89089979743585,118.15605485334527 103.2954690665938,117.8121096061077 106.72275689523667,113.85673203435726 105.9318443192169,97.17521069175564 100.92273133806884,91.84395294240676 95.91361835738644,92.53185852686875 93.01360557880253,95.62742867390625 92.74996805377305,113.68475879484322 98.68181237345561,118.32802743907087 102.76819401606917,118.15605485334527 106.98639442073181,114.20067843887955 106.59093813225627,97.69113757787272 100.39545628754422,91.5 95.51816206937656,92.53185852686875 92.6181492912583,96.31533204414882 92.74996805377305,112.9968655849807 97.49544350942597,118.15605485334527 103.16365030407906,117.98408224270679 106.59093813225627,114.88857094454579 106.98639442073181,99.5828675593948 101.84546267706901,91.67197648389265 95.51816206937656,92.70383485953789 92.88178681628779,95.4554527682485 93.80451815482229,116.43632761226036 102.50455649057403,118.15605485334527 107.51366947125643,112.65291882900055 105.27275050617754,94.59557286347263 97.23180598393083,91.67197648389265 92.35451176576316,96.83125930826645 93.14542434131727,115.06054400838912 99.99999999953434,118.5 107.11821318324655,113.51278553029988 105.27275050617754,94.76754889450967 97.89089979743585,91.67197648389265 92.4863305282779,99.06694150273688 92.88178681628779,114.02870524919126 96.30907464539632,118.15605485334527 101.05455010058358,118.5 104.74547545565292,117.46816425863653 107.64548823423684,111.79305149905849" stroke="#4dd2ff" stroke-linecap="round" stroke-linejoin="round" stroke-width="0.5"><title>2023-12-29 2.9km</title><desc>1703839119000</desc></polyline><polyline fill="none" points="132.22849306697026,94.38682242622599 130.2760830912739,98.80194872617722 132.0983324018307,115.95285700750537 139.90797230228782,117.65095295628998 143.94295291788876,112.21703717962373 143.2921495931223,95.0660737195285 140.6889362926595,92.17925298109185 135.3523490265943,91.5 130.66656508669257,96.42457511241082 131.83801107201725,116.29247639642563 140.29845429770648,117.65095295628998 144.2032742477022,113.2358983248705 143.1619889275171,94.55663528700825 135.3523490265943,91.5 130.79672575136647,96.25476252532098 130.92688641650602,114.08494859619532 137.04443767247722,118.5 144.59375624312088,113.74532856163569 143.1619889275171,94.72644812276121 134.70154570182785,91.5 130.66656508669257,98.63213648681995 130.79672575136647,113.74532856163569 132.4888143967837,116.8019052920863 137.95556232752278,118.16038125671912 144.46359557844698,113.91513859131373 144.07311358302832,95.74532461480703 136.13331301696599,92.0094397731591 130.2760830912739,98.4623242225498 131.1872077472508,114.93399824667722 138.86668698256835,118.5 144.07311358302832,113.2358983248705 144.2032742477022,96.42457511241082 140.6889362926595,92.68869245704263 135.87299168715253,92.51887932315003 130.40624375687912,98.4623242225498 131.31736841145903,115.61323752021417 140.03813296789303,118.16038125671912 144.8540775734,111.87741659930907 144.07311358302832,95.40569921641145 140.29845429770648,92.34906616492663 135.09202769678086,92.0094397731591 130.1459224266,99.31138529616874 131.44752907659858,115.78304727631621 139.77781163807958,118.33019064075779 144.72391690779477,112.55665766075253" stroke="#4dd2ff" stroke-linecap="round" stroke-linejoin="round" stroke-width="0.5"><title>2023-12-28 2.9km</title><desc>1703769423000</desc></polyline><polyline fill="none" points="170.273237825837,97.83339075697586 166.82397894188762,96.33338033687323 168.74023387720808,113.0000518776942 173.33924572262913,117.50001140648965 180.1100131617859,115.83336180110928 182.9205204001628,112.16672408941668 182.79277007095516,99.83340157847852 178.577009213157,92.50001140707172 173.21149539388716,92.16667436878197 168.61248354800045,95.00003608490806 168.61248354800045,113.16671736212447 172.82824440672994,117.33334655570798 177.42725625168532,117.83334103564266 182.53726941300556,113.16671736212447 181.8985177683644,97.33338750293478 177.42725625168532,92.33334289991762 170.4009881541133,92.50001140707172 168.10148223256692,95.00003608490806 168.35698289005086,111.50006141990889 172.06174243241549,117.50001140648965 178.06600789632648,117.66667623328976 181.13201579404995,115.00003608432598 181.7707674386911,98.16672613762785 178.3215085552074,92.16667436878197 169.76223650947213,93.00001678115223 167.46273058699444,97.83339075697586 170.01773716742173,116.00002687145025 176.91625493578613,118.0000058131991 182.66501974267885,111.50006141990889 180.74876480689272,94.166695134365 176.02200263226405,91.5 170.01773716742173,92.83334834722336 167.7182312454097,98.83339660661295 170.4009881541133,116.33335693844128 175.63875164510682,118.5 179.21576085779816,117.50001140648965 182.4095190842636,113.16671736212447 183.17602105857804,105.66674642788712" stroke="#4dd2ff" stroke-linecap="round" stroke-linejoin="round" stroke-width="0.5"><title>2023-11-08 2.1km</title><desc>1699431646000</desc></polyline><polyline fill="none" points="19.79475135030225,123.79093438549899 17.160770105198026,129.6818869812414 18.164191531948745,144.5727677618852 25.313569196499884,148.00909672433045 31.334097755141556,145.5545771131292 32.588374538812786,142.93641692830715 31.334097755141556,125.26367544219829 27.947550441138446,121.99091490660794 22.93044330831617,121.66363832645584 18.03876385372132,126.90005211986136 18.28961920971051,143.75459264428355 25.43899687472731,148.00909672433045 32.21209150366485,143.2636872860603 31.835808468516916,126.24550173606258 28.950971867423505,122.31819139060099 24.310147769749165,121.5 18.164191531948745,128.04551437112968 18.28961920971051,143.918227715767 24.937286160886288,148.17273117334116 32.086663824971765,143.42732242960483 31.835808468516916,126.73641456000041 28.700116510968655,122.48182959691621 25.188141517806798,121.99091490660794 21.299883489497006,122.80910593783483 17.913336175493896,127.71823956188746 18.415046888403594,143.1000521191163 21.049028133042157,147.19092411885504 26.442418301012367,147.84546225098893 30.456104007549584,146.3727509152377 32.839229895267636,141.3000637012301 31.835808468516916,125.91822640039027 24.435575447510928,121.5 21.299883489497006,122.80910593783483 18.03876385372132,129.02733822411392 18.665902245324105,143.2636872860603 21.049028133042157,147.19092411885504 26.191562944557518,148.5 32.4629468601197,142.7727817130508 31.835808468516916,126.73641456000041 26.066135265864432,121.99091490660794 18.54047456663102,126.57277697592508 18.54047456663102,144.7364027139265 24.811858483124524,148.5 32.086663824971765,144.24549778655637 32.086663824971765,127.06368965632282 29.57811025902629,122.80910593783483 24.310147769749165,121.5 18.415046888403594,126.57277697592508 18.79132992355153,143.1000521191163" stroke="#4dd2ff" stroke-linecap="round" stroke-linejoin="round" stroke-width="0.5"><title>2023-10-27 2.9km</title><desc>1698413800000</desc></polyline><polyline fill="none" points="58.98686697892845,123.00001678103581 54.89885764522478,126.83338402980007 56.94286231184378,145.66669670597184 65.50213185418397,147.50001140672248 69.7178914793767,141.16672993870452 68.8236394370906,125.00003608467523 64.7356301038526,121.5 59.49786814535037,121.5 56.30411085346714,123.6666902723955 55.282108520157635,129.50006668525748 56.81511201988906,145.50003158731852 65.11888097925112,148.16667056665756 68.18488797917962,146.833351856214 70.10114235430956,141.33339569158852 68.31263827066869,125.00003608467523 60.26436989568174,122.5000114068389 55.4098588116467,127.66672302992083 56.4318611449562,145.00003608420957 63.96912835398689,148.5 69.7178914793767,143.16671736247372 68.44038856215775,125.33337229420431 61.158621937502176,122.00000581296626 55.4098588116467,126.83338402980007 56.55961143691093,145.16670127643738 61.158621937502176,148.33333529543597 65.62988214567304,147.83334103494417 69.7178914793767,142.5000552778365 68.95138972904533,126.16671239130665 64.99113068729639,122.16667436831631 58.22036522813141,122.83334834768903 55.026607936713845,128.3333937911084 57.709364062175155,146.833351856214 63.71362777007744,148.16667056665756 68.6958891460672,145.16670127643738 69.7178914793767,132.66674423450604 69.46239089500159,127.33338750316761 65.88538272865117,122.33334289945196 60.51987047865987,122.16667436831631 55.79310968704522,125.33337229420431 55.66535939509049,142.83338636881672 58.22036522813141,147.33334655535873 65.37438156269491,148.16667056665756 68.8236394370906,145.00003608420957 69.33464060397819,127.8333907565102 64.99113068729639,122.33334289945196 56.81511201988906,123.83335858397186 55.537609103601426,141.66672712389845 58.98686697892845,147.66667623294052" stroke="#4dd2ff" stroke-linecap="round" stroke-linejoin="round" stroke-width="0.5"><title>2023-10-21 2.9km</title><desc>1697891041000</desc></polyline><polyline fill="none" points="92.81743507133797,121.5 93.30438862601295,142.30594168405514 97.32175545021892,148.18235684302635 106.20865781931207,145.9588521438418 106.20865781931207,127.0588784016436 103.77389004686847,123.8823799417587 99.26956966845319,122.92942859232426 93.30438862601295,127.21770308096893 94.15655734576285,145.64120824378915 98.90435450198129,148.34117843292188 103.89562843600288,147.38824854406994 106.33039620751515,144.21180954331066 106.69561137352139,129.44124614959583 101.58259905176237,123.08825387549587 93.66960379201919,126.26475465786643 93.1826502373442,142.1471192111494 95.49567962111905,147.0706050619483 101.46086066309363,148.5 105.3564890990965,146.59413966536522 106.8173497626558,130.71184014517348 106.20865781931207,126.58240422513336 102.67824454978108,123.56472958507948 94.52177251176909,125.78828013280872 93.4261270146817,144.68827598600183 98.29566255863756,148.5 106.20865781931207,145.80003020563163 106.69561137352139,127.69417697924655 104.13910521287471,124.35885530337691 99.63478483399376,123.56472958507948 93.79134218022227,127.3765277370112 93.54786540288478,143.10005369863939 97.20001706155017,148.18235684302635 102.92172132665291,148.02353522996418 106.93908815085888,144.21180954331066 107.18256492866203,130.87066428991966 106.08691943064332,126.58240422513336 102.19129099464044,123.72355477511883 97.8087090048939,123.8823799417587 93.1826502373442,127.69417697924655 93.91308056889102,144.37063171423506 97.68697061575949,148.18235684302635 102.79998293798417,147.86471359303687 106.8173497626558,143.89416513266042 106.57387298485264,127.8530015652068 101.58259905176237,123.40590437164064 94.52177251176909,125.62945524486713 92.93917345954105,131.98243265401106 95.00872606644407,146.911783286836 98.53913933690637,148.5 104.99127393309027,146.911783286836 106.69561137352139,133.57067119912244" stroke="#4dd2ff" stroke-linecap="round" stroke-linejoin="round" stroke-width="0.5"><title>2023-10-16 3.1km</title><desc>1697460359000</desc></polyline><polyline fill="none" points="129.31066067703068,125.30985495168716 131.342124695424,143.6963660841575 137.30955024808645,148.5 145.56237282138318,143.36508023599163 144.54664081288502,125.80679160915315 139.72191376937553,121.5 133.50055521400645,122.49387644033413 130.9612251915969,125.14420935045928 131.342124695424,143.36508023599163 137.56348325079307,148.33435779006686 142.0073107900098,147.34050402313005 145.43540632072836,141.87429271859583 144.41967431129888,125.6411460810341 137.56348325079307,121.66564613406081 131.342124695424,125.30985495168716 131.4690911960788,143.53072317223996 135.53201923239976,148.00307329790667 140.61067927768454,147.83743101579603 145.68933932296932,143.19943727517966 145.18147331802174,128.1258264617063 139.21404776489362,121.66564613406081 133.2466222117655,123.15646024933085 131.2151581943035,126.13808259309735 131.4690911960788,143.53072317223996 133.88145471783355,147.17486164346337 138.83314826199785,148.5 145.30843981960788,143.53072317223996 143.65787530411035,123.98468946525827" stroke="#4dd2ff" stroke-linecap="round" stroke-linejoin="round" stroke-width="0.5"><title>2023-10-12 1.8km</title><desc>1697101056000</desc></polyline><polyline fill="none" points="167.2064248016104,130.38614482281264 169.3021761160344,146.10762012621854 177.94715028489009,147.64557917881757 182.53160628443584,141.83550102752633 180.69782388489693,124.91775600577239 171.92186525836587,122.01266403798945 167.73036263044924,127.13929204898886 168.90922274440527,145.4240821202984 177.03025908581913,148.15823174640536 182.13865291280672,143.54435054119676 181.4837306276895,127.3101792621892 176.24435234302655,122.35443993890658 172.05284971510991,122.35443993890658 168.25430045835674,125.94308085832745 167.992331544403,142.34815614379477 171.52891188673675,147.98734758235514 180.43585497047752,146.79115773318335 182.7935751983896,141.83550102752633 181.74569954164326,126.45574294694234 177.94715028489009,122.52532785153016 172.05284971510991,122.18355200055521 167.992331544403,126.62663025967777 168.3852849160321,143.88612014369573 171.39792742952704,147.64557917881757 175.85139897139743,148.15823174640536 181.87668399885297,144.5696590502048 182.40062182722613,141.4937308243243 180.95979279885069,124.74686844309326 174.01761657185853,121.84177605051082 167.86134708765894,126.79751754796598 168.5162693732418,144.5696590502048 174.5415544002317,148.5 180.56683942722157,146.62027336878236 182.2696373704821,143.37346570240334 181.4837306276895,126.9684048112249 174.41056994348764,121.5 167.73036263044924,127.13929204898886 169.43316057277843,145.93673566239886 177.16124354302883,147.81646339269355 181.35274617001414,145.25319755647797 182.40062182722613,140.81019011954777 181.0907772560604,125.25953105674125 176.63730571419,121.67088803788647 170.61202068673447,122.52532785153016 167.73036263044924,127.99372786399908 169.17119165882468,145.5949666594388 173.62466320069507,148.5 178.60207257093862,148.15823174640536 182.40062182722613,138.75956560508348" stroke="#4dd2ff" stroke-linecap="round" stroke-linejoin="round" stroke-width="0.5"><title>2023-10-10 2.9km</title><desc>1696942258000</desc></polyline><polyline fill="none" points="24.042818199377507,175.55262200058496 25.939121766597964,174.44439391013293 30.07486954657361,174.96313992375508 30.725030769594014,175.69409737778187 29.803969036904164,176.99094920723292 30.36383009015117,178.5 33.88553671492264,177.32105527706153 34.824658481637016,176.07136444227945 35.836020384100266,173.05320316445432 36.016620723879896,165.60187515296275 34.06613705470227,162.1826376451063 34.51763790403493,160.9328292532009 36.43200150527991,159.2821240483463 36.757082116790116,158.31527456500044 36.55842174310237,157.13618196752213 35.402579568792135,155.60334867464553 35.221979229012504,154.1648303034017 29.135747779975645,151.5 20.737831982201897,152.51405567086476 15.897742877248675,151.73582747044566 13.242917883209884,152.46689043255174" stroke="#4dd2ff" stroke-linecap="round" stroke-linejoin="round" stroke-width="0.5"><title>2023-10-07 3.0km</title><desc>1696669067000</desc></polyline><polyline fill="none" points="57.42252212995663,152.84162991598714 54.85164725873619,156.86651024583261 55.62290972005576,171.12118113820907 60.76465946203098,178.16460017219651 65.7778654601425,177.49380022333935 70.1483527412638,173.63669290184043 69.63417776674032,156.86651024583261 63.078446846455336,151.83540762588382 58.57941582193598,152.84162991598714 55.237278489395976,157.36961929430254 56.26562843751162,174.3074951072922 60.89320320589468,178.5 65.13514674268663,178.16460017219651 69.8912652535364,173.63669290184043 69.37709027901292,157.36961929430254 64.23534053843468,152.33851888112258 56.26562843751162,154.51866510347463 55.8799972073175,173.63669290184043 61.2788344360888,178.5 65.64932171721011,178.16460017219651 69.63417776674032,173.80439348972868 68.9914590488188,156.1956978389062 63.335534332785755,151.66770382528193 55.108734745997936,155.86029148800299 56.394172181375325,174.13979459297843 62.94990310212597,177.82920024706982 69.76272151013836,173.63669290184043 69.12000279221684,156.02799467591103 62.30718438467011,151.5 55.237278489395976,155.5248850391945 55.75145346391946,173.46899228950497 60.507571975234896,177.82920024706982 67.19184663938358,176.82299988158047 69.50563402287662,173.13359099067748 69.37709027901292,157.0342132867081 64.23534053843468,151.83540762588382 55.62290972005576,155.3571817780612 56.13708469411358,174.3074951072922 62.050096897408366,178.5 68.22019658749923,176.31989936868194 69.76272151013836,173.30129165260587 69.12000279221684,156.1956978389062 63.206990589387715,151.66770382528193 58.836503309197724,152.17081515409518 55.36582223325968,156.1956978389062 55.8799972073175,173.63669290184043 59.86485325777903,177.99690022179857" stroke="#4dd2ff" stroke-linecap="round" stroke-linejoin="round" stroke-width="0.5"><title>2023-10-06 2.9km</title><desc>1696597953000</desc></polyline><polyline fill="none" points="93.68619011976261,153.3565927369982 93.59524700598558,153.2005930129444 93.24157934131654,152.8292632095836 93.10684880238841,152.0118658612846 93.069797904187,151.94374740801595 93.10348053891357,151.8844181809227 93.23989520958276,151.8646417198197 93.64577095807908,151.8668391056699 93.6255613772446,151.72840316921884 93.30220808383456,151.7701538240899 91.89932634730212,151.77235122376533 89.96089071856113,151.85365478573658 89.7385853293381,151.8844181809227 89.39333832334523,152.00527376640093 88.15550149699993,152.59855072100527 87.65363023951795,152.79410724964964 87.41279940120148,152.97428067472538 87.60815868263307,154.12558178961808 87.73615269460424,156.4345095700337 87.78162425148912,159.20651180519508 87.75299401197844,159.5161887092445 87.77320359281293,161.1698871662784 87.68899700598558,161.35435221161788 87.77320359281293,161.58712630102855 87.79172904191364,163.73462669727087 87.76141467065463,164.65457649763994 87.46669161676255,164.76654745309406 87.31343562874099,164.94438196318515 86.51852544910071,164.9312091086158 86.5,164.95755480621847 86.58589071856113,164.97072763771484 86.57747005987767,165.02122338489698 86.51684131736693,165.03659162213808 86.53031437125173,165.05854621951676 86.95808383233816,165.04537346493726 87.30164670658269,165.0717189625684 87.48690119759704,165.28906755732078 87.72267964071216,165.34614848572983 87.78162425148912,165.3900567447954 87.79341317364742,166.8367621983134 87.6755239520935,167.03652394637083 87.60815868263307,167.35921039777713 87.61657934130926,167.47116122293664 87.77825598802156,167.47774653965553 87.80688622753951,167.64018343945736 87.79509730538848,169.67049673251404 87.69741766467632,169.86363659167364 87.69236526946042,170.02824246953332 87.63847305389208,170.0984737627523 87.53574101795675,170.15553644714146 87.67383982035244,170.08311069536558 87.76646706586325,170.2213777371844 87.7698353293381,170.3311125804421 87.8506736526906,170.48912934897453 87.92645958084177,171.05973164424358 88.06455838323018,172.76263140735955 88.0308757485036,173.21465749060553 87.94161676646036,173.40116915152248 87.69741766467632,173.71055398709086 87.71425898203597,173.92777783805377 87.96182634730212,174.06600956576585 88.10834580838127,174.21521064113495 88.20939371257555,174.43023311921024 88.32559880239569,174.8953732785576 88.51085329341004,175.31223196525298 88.8948353293381,175.88703922397326 89.81605538921576,177.16601633567097 90.1511976047841,177.50603485284864 90.09056886227336,177.4577746275927 90.0501497005971,177.4687428741845 90.67159431137407,177.78901215234418 90.96631736526615,177.8723687925949 91.28293413173378,177.90746618728735 92.84749251497124,177.9250148539668 93.45546407185611,177.89649826023742 93.59019461077696,177.99082217188243 93.7552395209641,178.25404856796376 93.90175898203597,178.27159683078207 93.99607035927329,178.0544356391838 94.15269461077696,177.81533535174367 94.52151946107915,177.51480942263697 97.5815868263453,176.40697955944597 97.68600299401442,176.3762662833151 97.70958083832375,176.43111137531923 97.66242514970509,176.36090962175786 97.60853293412947,176.46182453958045 97.64053143712226,176.43549897404228 97.65905688622297,176.4552431525144 97.67421407184884,176.37187866732802 97.73147455089202,176.4552431525144 97.70958083832375,176.37846009082932 97.76684131736693,176.34335913222367 98.36639221556834,176.16785311180683 99.08046407184884,176.13494550522955 100.96500748503604,176.16127159624102 103.3867889221583,176.13275166223593 103.5198353293381,176.16127159624102 104.4056886227554,176.13494550522955 105.27133233533095,176.16565927360534 106.53779940120148,176.12836397528554 106.96388473053958,175.9879573177859 107.62743263472657,175.86948818209112 109.23914670658269,175.73566081498575 110.53592814371223,175.7575998091461 110.84749251497124,175.73566081498575 111.18431886227336,175.63693494567542 111.54640718563314,175.45045098182345 111.89165419161873,175.16304176148424 111.84449850298552,175.18278760863177 111.77544910179859,175.13671392500328 111.70134730538848,175.2091153645424 111.78218562874099,175.13232594777946 111.8815494011942,175.17401167975459 111.94386227545328,175.1411019009438 112.16616766466177,175.12793796927144 112.40868263473385,174.85368677506995 112.43057634730212,174.58820686037507 112.85160928143887,174.17352225423474 113.12107035928784,173.85975858544407 113.22043413174106,173.64472795885195 113.27432634730212,173.40775187380405 113.36021706586325,166.10793860192916 113.39389970060438,165.89499251196867 113.39221556886332,165.3768842805348 113.47642215569067,165.15295062310724 113.5,164.8807130592295 113.4949476047841,164.54480024189888 113.42252994012233,164.33402758483226 113.4258982035899,163.80049609502657 113.35853293412947,162.36008610570025 113.39221556886332,159.95323958443896" stroke="#ff0000" stroke-linecap="round" stroke-linejoin="round" stroke-width="0.5"><title>2023-09-14 39.1km</title><desc>1694696482000</desc></polyline><polyline fill="none" points="137.19565367279574,151.5 130.13481887197122,158.3294751845533 130.98698858963326,171.82947419618722 133.90871333470568,176.91178328637034 139.9956398862414,177.38824854465201 144.86518112802878,173.10005369817372 144.01301141036674,156.42357945349067 139.75216282438487,151.97647640679497 134.63914452074096,152.770603285986 130.74351152777672,157.05887840176 131.3522041826509,174.68827598600183 137.56086926534772,178.5 144.74344259686768,173.4176983416546 144.01301141036674,157.535352369654 140.84780960390344,153.40590437175706 135.61305276909843,152.770603285986 130.13481887197122,158.3294751845533 131.2304656514898,172.62358655931894 137.07391514163464,177.8647135932697 141.94345638295636,176.7529614875093 144.2564884731546,173.89416513219476 143.7695343485102,156.42357945349067 140.11737841786817,152.6117779565975 134.51740598957986,152.9294285926735 130.86525005847216,156.26475465798285 131.10872712079436,174.05298734956887 134.88262158306316,177.38824854465201 139.38694723136723,177.8647135932697 144.37822700385004,172.1471192111494 144.37822700385004,155.3118053986691" stroke="#4dd2ff" stroke-linecap="round" stroke-linejoin="round" stroke-width="0.5"><title>2023-09-11 1.8km</title><desc>1694438011000</desc></polyline><polyline fill="none" points="175.24657534249127,166.72912134061335 179.62328767124563,163.27094943705015 186.28082191757858,165.68362980266102 185.41780821909197,169.5438963713823 169.45205479464494,170.50895877956646 167.35616438370198,169.22220852551982 164.52054794528522,170.26769333635457 163.22602739743888,169.14178653480485 163.0410958903376,166.16616460564546 172.6575342467986,167.1312329415232 179.99315068498254,164.47729094314855 186.15753424656577,165.20109457644867 185.97260273969732,169.70474022370763 169.14383561629802,169.86558402900118 165.81506849313155,167.69418868847424 164.76712328800932,169.14178653480485 162.79452054784633,168.57883226958802 162.73287671245635,166.08574216801208 171.85616438346915,166.64869898522738 181.47260273969732,164.31644556182437 186.65068493131548,165.4423622424947 185.23287671222351,169.70474022370763 172.2876712330617,169.46347442740807 165.75342465774156,170.58938057057094 162.42465753434226,168.57883226958802 162.5479452055879,166.2465870315791 176.8493150684517,165.92489725718042 183.38356164377183,164.39686825824901 186.58904109569266,165.52278477448272 185.47945205471478,169.62431830348214 169.26712328777649,169.86558402900118 165.32191780838184,170.83064587268746 163.22602739743888,169.78516213217517 161.5,166.88996601616964 161.99315068521537,166.08574216801208 166.98630136996508,166.4074318485218 173.45890410942957,165.12067199742887 178.57534246565774,166.0053197183879 185.91095890384167,165.12067199742887 185.91095890384167,158.847674608347 188.5,159.0085215891013 185.5410958903376,158.52598050562665 185.10958904097788,169.5438963713823 172.16438356158324,169.30263050476788 164.4589041096624,171.47401949443156 162.36301369895227,167.4529220102704 162.73287671245635,166.4878542391234 173.21232876717113,165.20109457644867 178.7602739725262,166.08574216801208 182.64383561629802,165.28151714347769 186.21917808195576,166.16616460564546 185.72602739697322,170.02642778703012 169.14383561629802,169.70474022370763 168.34246575366706,170.83064587268746 164.33561643841676,171.47401949443156 163.16438356181607,170.42853697692044 162.73287671245635,166.16616460564546 171.42465753434226,163.91433190292446 174.93835616461,165.12067199742887 178.57534246565774,164.87940419034567" stroke="#4dd2ff" stroke-linecap="round" stroke-linejoin="round" stroke-width="0.5"><title>2023-08-30 4.9km</title><desc>1693396264000</desc></polyline><polyline fill="none" points="15.23067120462656,183.51244428521022 18.572810003068298,187.03421328705736 20.758054601494223,203.97209405410103 25.257087599486113,207.99690022249706 34.126609795261174,202.96589030476753 34.25515359593555,184.51866510382388 26.156894199550152,181.66770382528193 19.472616602201015,185.3571817779448 20.88659840123728,204.64289606327657 24.871456199791282,208.5 30.27029579784721,208.16460017266218 34.64078499563038,205.14599731226917 34.64078499563038,187.20191630290356 32.06990899704397,182.84162991598714 26.928156998939812,181.66770382528193 19.858248001895845,187.36961929430254 21.143686002120376,205.31369767943397 24.61436859983951,208.3323000984965 34.512241195421666,203.80439349031076 34.38369739567861,186.86651024629828 31.94136519683525,183.00933354522567 26.799613199196756,181.83540762588382 21.914948801975697,183.34474073001184 19.72970420215279,186.86651024629828 20.50096700200811,204.13979459286202 27.05670079914853,208.16460017266218 34.512241195421666,204.81059650389943 34.126609795261174,186.86651024629828 32.19845279678702,183.51244428521022 25.514175199903548,181.83540762588382 19.72970420215279,185.69258827588055 20.50096700200811,203.13359099067748 26.799613199196756,208.3323000984965 31.94136519683525,207.32610017526895 34.64078499563038,203.6366929024225 33.740978395566344,185.5248850393109 28.856313998345286,181.5 20.629510801751167,185.0217751818709 20.629510801751167,203.6366929024225 23.586018200498074,207.6615002474282 30.398839597124606,207.99690022249706 34.512241195421666,203.46899228950497 34.38369739567861,188.87894511432387 30.141751997638494,182.170815154328 20.88659840123728,184.6863684875425 20.372423202265054,202.2950873146765 24.357281000353396,207.49380022357218 30.784470997285098,207.99690022249706 34.126609795261174,205.31369767943397 34.76932879537344,191.89759079378564" stroke="#4dd2ff" stroke-linecap="round" stroke-linejoin="round" stroke-width="0.5"><title>2023-08-25 3.1km</title><desc>1692968645000</desc></polyline><polyline fill="none" points="66.85483870934695,190.31280009931652 66.41935483831912,194.1951437544776 75.6370967742987,194.57390774285886 76.0,199.68719990062527 49.0,199.59250967216212 49.435483870562166,195.04736241674982 65.40322580607608,195.04736241674982 73.3870967742987,193.43761511310004 75.56451612897217,194.38452577602584 75.7096774186939,199.21374861942604 66.56451612897217,199.30843890324468" stroke="#4dd2ff" stroke-linecap="round" stroke-linejoin="round" stroke-width="0.5"><title>2023-08-24 1.1km</title><desc>1692883156000</desc></polyline><polyline fill="none" points="100.3379449674394,208.5 100.41746143030468,208.11098019758356 100.6162525875261,208.26658822098398 100.03975823160727,192.00481134827714 99.56265945418272,189.0220269482379 100.3379449674394,188.4514016063913 99.58253856992815,187.7510861771152 99.84096707426943,184.94979680079268 99.38374741259031,181.5" stroke="#4dd2ff" stroke-linecap="round" stroke-linejoin="round" stroke-width="0.5"><title>2023-08-21 1.2km</title><desc>1692620048000</desc></polyline><polyline fill="none" points="138.06658891425468,199.02468051756296 137.70603233244037,199.79751953664527 137.9635727480054,208.5 137.82192551944172,197.69740137329063 137.5,195.54684058270504 137.59013914543903,193.09380802355008 137.0106732104323,182.23935023228114 137.332598729874,181.65123111658613 137.87343360256637,181.5 137.2424595844932,181.56721385417768 136.93341108574532,182.12172665009712 136.95916512730764,185.81841020203137 137.51287702081027,192.64015927595756 137.34547575068427,195.00919409366907 137.6931553116301,197.12616259037895 138.02795785182388,208.4832004797354 137.74466339475475,200.80556261688616" stroke="#4dd2ff" stroke-linecap="round" stroke-linejoin="round" stroke-width="0.5"><title>2023-08-10 4.8km</title><desc>1691669615000</desc></polyline><polyline fill="none" points="176.80481283413246,194.0110793687054 179.18716577533633,191.27972575224703 187.20053475908935,191.27972575224703 187.9946524067782,196.64823738660198 162.2941176467575,197.8726285097655 161.5,193.8227105255355 170.5962566845119,190.62043176451698 176.44385026721284,192.31575779797276 187.34491978632286,191.93901906500105 188.5,195.89476476906566 173.6283422461711,197.6842607963481 162.8716577538289,197.2133412710973 161.57219251291826,196.83660540293204 161.5,195.14129127009073 163.1604278073646,192.4099424466258 171.3903743312694,193.1634191412013 181.5695187165402,191.27972575224703 187.85026737954468,191.84483434748836 187.4171122997068,196.55405335745309 168.86363636376336,197.9668123460142 161.9331550798379,197.11915732483612 161.9331550798379,193.54015715781134 163.9545454545878,192.59831170312827 178.3208556151949,193.35178817703854 180.5588235296309,192.12738845899003 188.06684491969645,192.22157313558273 188.06684491969645,196.64823738660198 172.2566844918765,197.02497336477973 167.05882352916524,199.19120096275583 162.51069518737495,197.4958930273424 161.6443850263022,194.67036988545442 162.5828877002932,193.7285260835779 172.04010695172474,193.25760366610484 173.3395721926354,192.03320376906777 178.39304812811315,193.7285260835779 188.28342245984823,192.59831170312827 188.06684491969645,196.74242140172282 167.4919786094688,197.7784446599544 162.0775401070714,196.45986931480002 162.0053475932218,193.54015715781134 163.59358288766816,192.4099424466258 178.9705882356502,193.54015715781134 188.5,192.69249631051207 187.9224598929286,196.9307893908117 171.1737967915833,197.4958930273424 168.6470588236116,199.00283363478957 163.0882352939807,197.8726285097655 162.2219251333736,195.51802812964888 163.23262032074854,193.25760366610484 178.68181818164885,193.91689495416358 188.2112299464643,192.5041270814836 188.42780748661608,197.02497336477973 174.4224598929286,196.9307893908117 170.8850267380476,197.4958930273424 169.4411764703691,199.3795682354248" stroke="#4dd2ff" stroke-linecap="round" stroke-linejoin="round" stroke-width="0.5"><title>2023-08-08 4.7km</title><desc>1691498421000</desc></polyline><polyline fill="none" points="26.924436492379755,211.5 27.124142166110687,220.33470591754303 28.195290779694915,220.68997891817708 28.140825595939532,221.21104457628098 21.8047092204215,221.0215663490817 22.53091167018283,222.60843965646927 22.821392650250345,233.33719011524227 23.311579303932376,237.0080122128129 23.838076080195606,238.5" stroke="#4dd2ff" stroke-linecap="round" stroke-linejoin="round" stroke-width="0.5"><title>2023-08-04 1.6km</title><desc>1691107871000</desc></polyline><polyline fill="none" points="61.93455497385003,223.06356320006307 69.56806282722391,221.3115291815484 75.01047120429575,222.2336529561435 75.64659685874358,227.3975211729994 64.97382198972628,226.75203995860647 49.35340314148925,228.13521318056155 49.42408376955427,225.00001618842361 51.473821989726275,222.69471433776198 56.91623036656529,221.95701596525032 62.21727748727426,222.8791387960664 69.78010471211746,220.48161663144128 75.50523560238071,222.51028982555727 75.85863874363713,227.30530961160548 49.35340314148925,228.04300172673538 49.42408376955427,224.72338041168405 51.615183246321976,222.69471433776198 58.259162303525954,221.49595404439606 61.510471204295754,222.6025020882371 74.93979057623073,222.6025020882371 76.0,227.3975211729994 50.20157068083063,228.50405886070803 49.0,226.56761663331417 50.27225130912848,224.26232051325496 57.90575916250236,222.04922830912983 74.86910994793288,222.51028982555727 75.43455497385003,227.21309803659096 50.3429319371935,228.50405886070803 49.706806282745674,224.53895649279002 55.078534031519666,222.97135100484593 66.45811518328264,223.89347235218156 75.64659685874358,222.8791387960664 75.71727748727426,226.9364632302313 51.473821989726275,228.41184746084036 49.1413612565957,227.02867484587478 49.918848167872056,224.6311684589018 56.28010471211746,222.69471433776198 75.57591623067856,223.34019970556255 75.64659685874358,226.8442516013165 60.026178010739386,227.58194425608963 55.57329842960462,229.51838336855872 52.25130890053697,228.96511565742549 50.41361256549135,228.04300172673538 49.918848167872056,225.00001618842361 55.14921466005035,222.6025020882371 66.38743455521762,224.3545325200539 75.22251308895648,223.06356320006307 75.78795811533928,227.30530961160548 60.37958115199581,226.9364632302313 55.36125654471107,228.50405886070803" stroke="#4dd2ff" stroke-linecap="round" stroke-linejoin="round" stroke-width="0.5"><title>2023-07-26 4.8km</title><desc>1690377436000</desc></polyline><polyline fill="none" points="95.5,223.49708411691245 110.62000000011176,221.24268283619313 113.42799999983981,221.8062838979531 112.8519999999553,226.78473846788984 95.21200000029057,226.97260392288445 88.66000000014901,229.22698509308975 86.78799999970943,227.25440200173762 87.1480000000447,223.5910173318116 93.34000000031665,221.24268283619313 97.73199999984354,222.74561790260486 112.8519999999553,221.90021736058407 112.70800000010058,226.31507459114073 88.15599999995902,228.47552558220923 86.5,226.50294018298155 87.07599999988452,223.7788837206317 92.90800000028685,220.96088211983442 97.15599999995902,220.77301490691025 100.39600000018254,222.74561790260486 106.73199999984354,220.96088211983442 112.99599999981001,221.99415080901235 113.0679999999702,226.87867120222654 86.9320000000298,226.97260392288445 86.9320000000298,223.5910173318116 88.15599999995902,223.02741783601232 103.42000000039116,222.65168456389802 109.03599999984726,220.96088211983442 113.2839999999851,221.99415080901235 112.92399999964982,226.69080572010716 86.9320000000298,227.16046932234894 87.07599999988452,223.49708411691245 90.02799999993294,222.27595107199159 102.84400000050664,222.46381784550613 109.03599999984726,220.77301490691025 113.5,221.99415080901235 112.92399999964982,226.87867120222654 87.3640000000596,227.72406519192737 87.8680000002496,223.21528438961832 100.10800000000745,222.65168456389802 107.52400000020862,220.86694852029905 113.21199999982491,222.08808424370363 113.14000000013039,226.78473846788984 86.9320000000298,226.78473846788984 87.29200000036508,223.21528438961832 96.5800000000745,224.530348726199 108.10000000009313,220.86694852029905 113.35600000014529,221.90021736058407 113.2839999999851,226.87867120222654 88.08399999979883,227.4422673190711" stroke="#4dd2ff" stroke-linecap="round" stroke-linejoin="round" stroke-width="0.5"><title>2023-07-24 4.9km</title><desc>1690201802000</desc></polyline><polyline fill="none" points="140.59070937347133,211.80918372313317 140.5512114901794,211.5 139.42552181414794,212.1441321441962 139.26753028074745,213.0716782946256 139.70200699777342,218.81720258526911 140.74870090687182,219.30672289905488 140.78819879039656,219.71894947676628 136.14719749463256,219.92506240401417 133.63908190082293,219.64165706688073 134.4487885098206,220.54339973890455 134.6462779266294,221.72854023214313 134.88326522696298,232.72935526633228 136.00895490287803,238.5 135.27824406058062,235.69198665853764 136.14719749463256,234.919131097442 135.41648665233515,212.35025393293472 140.43271784007084,212.01530590372568 141.04493503225967,211.88647956910427 141.1436797407223,211.52576533101092 141.36091809917707,211.96377538118395" stroke="#4dd2ff" stroke-linecap="round" stroke-linejoin="round" stroke-width="0.5"><title>2023-07-24 3.0km</title><desc>1690157385000</desc></polyline><polyline fill="none" points="175.18140674883034,229.79373846709495 175.6867541204556,238.5 175.32394062291132,226.86896365902066 175.0518304996658,225.58406809056032 175.29802537307842,224.48513291648123 175.10366099938983,223.94411483879958 174.55944075295702,212.70050969385193 174.88338137581013,211.85508163082704 175.4923897467088,211.58454334440466 174.9481695004506,211.5338173451819 174.5076102532912,212.22707074056234 174.5076102532912,215.8454477910127 175.01295762491645,223.8595805353325 175.12957624916453,222.91279211294022 174.4557797536254,212.59905865287874 174.68901700212155,211.92271610349417 175.29802537307842,211.56763468044664 174.84450850106077,211.5 174.35211875429377,212.37924775850115 174.31324587960262,215.72709145543922 174.8056356263114,224.1300900886199" stroke="#4dd2ff" stroke-linecap="round" stroke-linejoin="round" stroke-width="0.5"><title>2023-07-22 4.9km</title><desc>1690030226000</desc></polyline><polyline fill="none" points="21.78209478687495,252.69520053523593 17.11297741951421,249.89641083835158 19.132055200170726,264.3841881727567 23.044018399901688,267.3475742052542 29.353636464104056,266.03051470941864 32.5084454966709,260.59762800252065 31.372714244760573,246.76834353117738 28.975059380289167,242.65245225431863 24.684519096743315,241.5 18.12251631030813,244.7927175963996 19.384439922403544,263.23175816470757 21.90828714799136,267.0183094756212 25.567865625489503,268.00610337546095 32.88702258048579,262.0793269771384 32.12986841285601,250.0610457189614 27.208366322796792,241.66463610855862 21.65590242575854,242.15854428964667 17.617746864445508,246.10980193840805 18.627285754773766,262.73785922897514 24.305942012928426,267.8414711188525 31.87748368969187,263.72565688437317 31.62509896699339,246.76834353117738 24.053557289764285,242.48781628976576 17.870131587143987,246.93297886964865 18.879670477937907,264.71345367317554 24.053557289764285,268.5 32.63463785732165,262.9024922319222 32.00367605080828,250.22568057558965" stroke="#4dd2ff" stroke-linecap="round" stroke-linejoin="round" stroke-width="0.5"><title>2023-07-18 1.7km</title><desc>1689685608000</desc></polyline></svg>