<?xml version="1.0" encoding="utf-8" ?>
<svg baseProfile="full" height="300mm" version="1.1" viewBox="0,0,200,300" width="200mm" xmlns="http://www.w3.org/2000/svg" xmlns:ev="http://www.w3.org/2001/xml-events" xmlns:xlink="http://www.w3.org/1999/xlink"><defs /><rect fill="#222222" height="300" width="200" x="0" y="0" /><text fill="#FFFFFF" style="font-size:12px; font-family:Arial; font-weight:bold;" x="10" y="20">Over 10km Runs</text><text fill="#FFFFFF" style="font-size:4px; font-family:Arial" x="10" y="280">ATHLETE</text><text fill="#FFFFFF" style="font-size:9px; font-family:Arial" x="10" y="290">Yunlong</text><text fill="#FFFFFF" style="font-size:4px; font-family:Arial" x="120" y="280">STATISTICS</text><text fill="#FFFFFF" style="font-size:3px; font-family:Arial" x="120" y="285">Number: 43</text><text fill="#FFFFFF" style="font-size:3px; font-family:Arial" x="120" y="290">Weekly: 1.9</text><text fill="#FFFFFF" style="font-size:3px; font-family:Arial" x="141" y="285">Total: 206.5 km</text><text fill="#FFFFFF" style="font-size:3px; font-family:Arial" x="141" y="290">Avg: 4.8 km</text><text fill="#FFFFFF" style="font-size:3px; font-family:Arial" x="167" y="285">Min: 1.1 km</text><text fill="#FFFFFF" style="font-size:3px; font-family:Arial" x="167" y="290">Max: 39.1 km</text><polyline fill="none" points="35.35389182518702,55.32044669067545 32.53301727224607,58.5 31.229431304498576,58.165312676428584 26.335641360259615,53.64697626957786 25.822755077970214,52.61499551679299 15.75736178655643,44.554196760786 14.64610817481298,43.18745312401734 17.659315083757974,39.56135106565489 18.856049742549658,39.33820406938321 18.599606601404957,38.86401583456609 21.228148798458278,35.29361946246354 24.71150146611035,31.555789068792365 25.673163245548494,31.72315617716231 30.096807430963963,36.01886164091411 25.37397958082147,41.7928066533932 24.60465015738737,42.43434529780643 23.899431519093923,42.18330869427882 19.98867361608427,38.94769619705039 19.433046810212545,38.02721018822922 21.890626913052984,34.59626861049037 24.56190963392146,31.667367157380795 25.13890670146793,31.5 25.758644292713143,31.918417617751402 29.583921148558147,35.20993749493209 30.032696645706892,36.01886164091411 25.074795916094445,41.960164768926916 24.13450439844746,42.266987598879496 19.64674942777492,38.58508102752967 19.347565763047896,37.94352942144906 22.95914000144694,33.229453535881476 24.967944607371464,31.5 29.840364289819263,35.4051953619346 29.797623766353354,36.54884456380387 25.074795916094445,42.071736764293746 23.920801780885085,42.09962975284725 22.189810577896424,40.732868507970124" stroke="#4dd2ff" stroke-linecap="round" stroke-linejoin="round" stroke-width="0.5"><title>2024-10-05 4.9km</title><desc>1728122302000</desc></polyline><polyline fill="none" points="48.546418835408986,36.350347816129215 51.2767800972797,58.338325308519416 60.70893718395382,52.84137178666424 61.57768849423155,37.80544802627992 57.23393194144592,33.11678496142849 50.90445810742676,33.92517655855045 49.29106281604618,47.829419840243645 51.1526727671735,57.5299514986109 60.21250786352903,52.03299397206865 61.70179582433775,39.74557867087424 58.9714345629327,33.601819990202785 53.13839004887268,32.955106571433134 50.28392145689577,35.05692380503751 49.29106281604618,45.565950249903835 51.400887427385896,57.20660180982668 59.84018587321043,54.134775065700524 61.57768849423155,39.74557867087424 57.358039271552116,32.955106571433134 51.649102088063955,33.601819990202785 49.91159946657717,35.865313988528214 48.91874082572758,47.50606732419692 50.40802878700197,56.2365521780448 53.38660470908508,56.883252026862465 60.460722523741424,52.84137178666424 61.70179582433775,37.48209258879069 56.86160995112732,32.955106571433134 50.28392145689577,34.57188941235654 49.04284815629944,49.122828961815685 51.1526727671735,57.69162630813662 60.58482985384762,53.48807361465879 61.70179582433775,39.422223798930645 60.83304451406002,35.541957985726185 56.98571728169918,32.955106571433134 50.28392145689577,35.05692380503751 49.53927747672424,55.751527043641545 51.400887427385896,57.044926930218935 60.95715184416622,53.00304727931507 61.82590315444395,38.61383620707784 57.73036126233637,32.955106571433134 50.03570679621771,35.05692380503751 49.663384806364775,54.45812564983498 52.02142407791689,57.5299514986109 61.453581164591014,52.84137178666424 61.57768849423155,36.67370358295739 57.23393194144592,33.11678496142849 49.53927747672424,35.865313988528214 48.670526165980846,45.565950249903835 50.656243447214365,55.26650169771165 52.641960728447884,56.398227175464854 61.20536650437862,53.00304727931507 61.70179582433775,37.967125709401444 57.358039271552116,33.11678496142849 50.03570679621771,35.05692380503751 49.41517014661804,52.518020731862634 53.510712038725615,57.69162630813662 61.08125917427242,54.29645036929287 61.57768849423155,38.290481005446054 59.71607854263857,34.086854807450436 56.24107330059633,32.79342815768905 49.41517014661804,35.865313988528214 48.79463349562138,45.88930333114695 51.400887427385896,58.17665059340652 61.08125917427242,54.94315134908538 61.329473834019154,38.290481005446054 57.85446859197691,32.955106571433134 49.663384806364775,34.41021123412065 50.03570679621771,57.20660180982668 60.70893718395382,55.589851951925084 61.82590315444395,50.416236575343646 61.20536650437862,35.865313988528214 56.98571728169918,32.63174972019624 52.517853398341686,32.63174972019624 49.04284815629944,36.51202571147587 50.15981412678957,56.07487715652678 57.73036126233637,57.20660180982668 61.57768849423155,51.062939816503786 60.70893718395382,36.350347816129215 55.620536650530994,32.30839277501218 50.656243447214365,33.27846332779154 47.92588218534365,35.21860188920982 50.03570679621771,55.42817683657631 54.37946334993467,58.01497585559264 59.71607854263857,57.368276666267775 61.82590315444395,51.70964268106036 60.58482985384762,35.865313988528214 58.350897911936045,33.440141670638695 51.77320941770449,33.601819990202785 48.91874082572758,38.12880336889066 50.03570679621771,55.589851951925084 58.72321990225464,57.5299514986109 61.57768849423155,53.48807361465879 60.70893718395382,34.89524569781497 54.8758926698938,32.30839277501218 49.41517014661804,35.865313988528214 50.03570679621771,55.26650169771165 53.01428271830082,57.85330109333154 58.84732723236084,57.5299514986109 61.70179582433775,50.739588242955506 60.70893718395382,33.92517655855045 52.89017538866028,32.955106571433134 49.16695548640564,37.80544802627992 49.663384806364775,54.94315134908538 53.01428271830082,58.5 56.365180630702525,58.338325308519416 61.453581164591014,52.84137178666424 60.58482985384762,33.76349828590173 53.13839004887268,32.63174972019624 49.04284815629944,36.67370358295739 49.04284815629944,53.16472274775151 53.13839004887268,57.368276666267775 57.23393194144592,57.85330109333154 61.82590315444395,52.518020731862634 61.20536650437862,35.21860188920982 55.99285864084959,32.470071259653196 49.29106281604618,36.67370358295739 49.53927747672424,51.386291296221316 52.39374606823549,55.751527043641545 58.350897911936045,56.883252026862465 62.07411781465635,51.062939816503786 61.82590315444395,36.51202571147587 56.613395291380584,31.5 49.41517014661804,35.865313988528214 49.53927747672424,53.48807361465879 54.25535601936281,57.69162630813662 60.95715184416622,54.61980090616271 62.07411781465635,37.32041483500507 57.482146601658314,32.30839277501218 50.15981412678957,33.92517655855045 49.29106281604618,52.67969627096318 56.24107330059633,57.5299514986109 60.70893718395382,55.42817683657631 62.07411781465635,36.83538143092301 56.98571728169918,31.661678602336906 49.53927747672424,35.38027994928416 48.42231150576845,50.739588242955506" stroke="#4dd2ff" stroke-linecap="round" stroke-linejoin="round" stroke-width="0.5"><title>2024-09-08 8.9km</title><desc>1725751236000</desc></polyline><polyline fill="none" points="85.1808413346298,32.112590444041416 87.35093735228293,31.5 86.6999085471034,31.829856537282467 87.38710561930202,44.03431182334316 93.46337446849793,42.24372560062329 94.87393687991425,43.139019951515365 94.36758114257827,45.40080516351736 94.69309554528445,57.604748184094205 80.11728396010585,58.5 75.74092365801334,57.98169661915745 76.17494286154397,48.6992135681794 75.16223138663918,42.29084641765803 75.12606311985292,33.00791285108426 75.99410152668133,32.159712737833615" stroke="#4dd2ff" stroke-linecap="round" stroke-linejoin="round" stroke-width="0.5"><title>2024-08-20 2.0km</title><desc>1724107925000</desc></polyline><polyline fill="none" points="119.2065217391355,32.444747336237924 113.56521739135496,32.103657095940434 113.72826086956775,37.94471668387996 113.51630434783874,38.285793184739305 107.59782608697424,37.092021921955165 107.15760869573569,37.98735129040142 107.2065217391355,43.03946340709808 106.68478260876145,43.06077996300883 102.36413043487119,40.84384136964218 101.51630434783874,41.078326862087124 101.5,56.10592445252405 121.26086956518702,57.896342904059566 121.35869565216126,54.63520704687107 120.7065217391355,47.06823679966328 121.73369565216126,46.87639298551949 125.92391304345801,47.11086872384476 127.17934782605153,46.83376099234738 128.05978260870324,47.13218468129344 127.78260869567748,46.599284806041396 128.5,46.172963495817385 127.21195652172901,39.7140423184901 126.1684782608645,36.77226009356673" stroke="#4dd2ff" stroke-linecap="round" stroke-linejoin="round" stroke-width="0.5"><title>2024-08-18 4.9km</title><desc>1723938111000</desc></polyline><polyline fill="none" points="154.44386111205677,54.871388542087516 152.93284333415795,57.33648849208839 151.58803751179948,58.5 150.43966400052886,57.947826299860026 148.05225591140334,55.58134195210005 147.13053506682627,54.98971437026921 146.58656866679667,54.121989217208466 146.31458546681097,54.200873552952544 139.34879351052223,48.442195652096416 132.36789137648884,41.99297305631626 131.70304355426924,40.13901095344045 131.8692555098678,38.77810763835441 131.6274926653714,38.12723597510194 131.9296962209628,36.450733874356956 132.6852051099413,36.15487839639536 134.21133306558477,34.04442380268301 136.76495311030885,31.5 139.7869886661647,33.68939080875134 140.92025199963246,35.227860357495956 141.88730337744346,35.99708854247001 142.83924457756802,35.89846978985588 144.47114377771504,37.37774349730171 145.19643231114605,38.679490921786055 141.31311662192456,43.353843892837176 141.99307462194702,43.768019244700554 145.7555088889785,39.31063665996771 147.23630631132983,40.13901095344045 150.42455382278422,43.077726284143864 151.27072377840523,43.53134777100058 153.02350440080045,45.42470791822416 153.86967435642146,45.838876903188066 156.3175231567002,48.20553239014407 157.1939134679269,48.678858498256886 158.3725073346286,50.11854852194665 157.7983205791097,51.203236322355224 155.92465853440808,52.997882413779735 155.68289568996988,53.60923990885203 154.74606466770638,54.29947890769108" stroke="#4dd2ff" stroke-linecap="round" stroke-linejoin="round" stroke-width="0.5"><title>2024-08-14 5.1km</title><desc>1723587841000</desc></polyline><polyline fill="none" points="184.74818897573277,55.975944241647085 182.6312900292687,58.46589150284126 182.26540626073256,58.5 180.8802748513408,57.050380065935315 180.08317092701327,56.64107234880794 179.53434527420904,55.890671132809075 178.920183234266,55.65190609599813 178.00547381292563,54.52629290318146 172.11213168414542,49.83612087347137 166.17958772310521,44.34411581286986 165.6830311800586,43.133110913739074 165.77450212225085,42.26322638594138 165.4347529085935,41.12042703592306 165.63076207024278,38.39130860591831 167.32950813841308,36.497945128634456 167.74766101670684,36.46383018911729 167.35564269329188,36.42971523968299 166.80681704054587,35.74741415165772 166.48013510438614,35.90093224492739 165.6568966251798,37.043782801847556 165.87904034176609,38.08427878130897 165.52622385072755,38.25485100602236 165.25181102426723,34.34868442667357 165.35634924389888,31.994686725527572 168.3618230568245,31.5 169.44640708487714,31.7217563781669 171.7723824705463,31.56823277670628 169.42027252999833,34.723955025903706 174.7778562834137,39.329450278113654 176.55500601622043,40.3187551294468 177.35210994054796,41.61507290684676 180.93254396115663,44.66818541123939 177.63959004438948,48.77867418661481 178.24068480695132,48.94923075303086 180.33144919853657,46.35674399560958" stroke="#4dd2ff" stroke-linecap="round" stroke-linejoin="round" stroke-width="0.5"><title>2024-08-10 5.2km</title><desc>1723241479000</desc></polyline><polyline fill="none" points="33.17520891362801,85.4549167984951 31.91169916430954,87.08433109683392 31.279944289650302,88.43888936055009 30.42256267409539,87.83032139827264 29.82089136482682,87.79105885431636 28.647632311971392,85.84754856022482 26.571866295242216,84.74817673064535 26.075487465190236,83.8058508468821 24.466016713064164,82.66719823672611 21.382451253419276,79.6045673834742 19.77298050140962,78.70147057407303 18.0281337047345,76.89525871023943 15.501114206039347,74.73562563557061 15.305571030592546,74.93195735226618 14.688857938628644,74.2055285647366 13.515598885715008,73.49872921065253 13.079387186618987,72.61522477920516 12.282172701903619,72.16365359969495 11.6955431754468,70.78929717469146 11.951253481849562,70.04321207368048 11.5,68.49212713052111 11.981337047298439,66.68577774746518 13.124512534821406,65.78259393072221 13.711142061220016,64.7223269049573 16.49387186631793,61.62001597182825 17.065459609963,61.561110639435356 17.125626740860753,61.875272113029496 17.411420612828806,61.83600196907355 18.735097493045032,62.81775211704371 19.231476323097013,63.583512242446886 20.615320334210992,64.60451894010475 21.081615598814096,64.64378827322798 21.75849582173396,66.13601440966886 23.127298050094396,66.4501651644241 24.601392757613212,66.29308987900731 25.57910863502184,66.90175558492774 25.84986072423635,67.92273701644444 25.624233983224258,68.25651772142737 22.661002785433084,71.3979424721183 21.397493036231026,73.55762929908815 21.8938718662248,73.75396274049126 22.75125348183792,72.9882606936153 24.481058495817706,70.61259318386146 25.57910863502184,69.4738285458734 26.030362116987817,69.37565872776031 31.806406685209367,74.08772893108835 32.93454038997879,75.50131770520238 34.72451253479812,76.83636008766189 35.581894150411244,76.93452444419381 35.79247910861159,77.58240739502071 36.55961002787808,78.03396032789897 36.80027855158551,78.56404226558516 38.5,79.36897749771015 38.24428969359724,80.58618745241256 34.84484679665184,84.1592238292069" stroke="#4dd2ff" stroke-linecap="round" stroke-linejoin="round" stroke-width="0.5"><title>2024-08-09 5.2km</title><desc>1723159591000</desc></polyline><polyline fill="none" points="63.646985721657984,85.36351127257512 63.829507847782224,85.74068780467496 62.84084633161547,86.23697111717775 62.11075782740954,87.16997882806754 62.04991711874027,87.68610799571616 61.15251666563563,88.5 59.58586841705255,86.33622756171098 59.05351221602177,86.27667370368727 58.27779318031389,85.36351127257512 57.137029892532155,84.84737326564209 56.66551440017065,84.4106395716517 56.71114493167261,83.91434957571619 56.37652103387518,84.11286579203443 43.158877072215546,72.77712437052105 42.20063591044163,71.38738858627039 41.86601201270241,70.3351505890314 41.577018646523356,67.77400888623379 41.729120418138336,66.3445134118665 43.1132465407718,65.37165370672301 45.15141028165817,62.6515803460934 46.535536404233426,61.5 47.083102782431524,61.519854916390614 50.76396565785399,64.71645854317467 51.66136611090042,65.07383811577165 51.85909841413377,65.92757439297566 54.642560836451594,67.59532277606195 54.961974557023495,68.27035795661504 59.3881361138192,72.00284476217348 59.50981753115775,72.34035180165665 55.90500554163009,76.56904527434381 55.69206306122942,76.9859515739372 55.935425896022934,77.28374100319343 56.604673691501375,77.04550951207057 58.262583003146574,74.78228947255411 60.30074674409116,72.91609716558014 68.42298135347664,79.96381643947097 67.25179771118565,81.7902078715124 65.44178662786726,83.53716796422668" stroke="#4dd2ff" stroke-linecap="round" stroke-linejoin="round" stroke-width="0.5"><title>2024-08-08 4.9km</title><desc>1723122982000</desc></polyline><polyline fill="none" points="98.4269192913489,73.97718026632356 98.46013779529312,73.95550234961411 98.46345964567445,74.0162004763879 98.5,73.87746171811341 98.45349409450137,73.80375648844347 98.19106791338709,73.9858514285479 97.82898622048378,73.6390029588656 97.74261811023462,73.62599606222466 97.63631889765384,73.72571545709798 97.52337598426675,73.64333858979808 97.44365157482389,73.66935236212157 96.7460629921261,74.50178101246456 95.73289862203819,75.47291820264218 92.30142716536648,79.50886601677121 92.10875984252198,79.61723512291428 87.25553641733131,75.49893036807771 86.2357283464662,74.83994846887617 86.05302657482389,74.5494715286386 85.97662401576235,74.21130075566361 85.07640255906153,73.76473599846577 84.64456200788845,73.87746171811341 84.20275590551319,73.8817973141413 83.32246555118763,73.76473599846577 82.39899114174477,73.75606477149267 74.51624015749258,74.06822734319394 73.99138779527857,74.03787834867035 73.63262795277114,73.83410572287539 73.22071850394423,74.07256291129488 71.6328740157478,74.14193191470804 71.58304625985329,74.1029118702827 71.5,72.27758345286566 71.51660925196484,71.56216276771556 76.67876476379752,71.34102924109357 76.79835137796181,71.3497011752097 77.87463090551319,71.85266900884199 78.36958661417884,72.00876073754262 83.71776574803516,72.03477594566175 84.2459399606305,71.93505085706056 85.45177165354835,71.39306080768802 85.97994586615823,71.40606868504256 86.47157972441346,71.28899758309126 86.48818897639285,71.19360597264313 88.16904527560109,70.46948691017496 88.37500000001455,70.51284783147821 88.73375984253653,70.43913422747755 90.36146653543983,70.38276487708754 90.37807578741922,70.50851174220224 90.45115649607033,70.53452826831563 93.6002706693107,70.43479812741316 93.6600639763783,70.62558592971982 93.68331692914944,71.3497011752097 93.77300688976538,71.6792327897947 93.96567421260988,72.01309660714469 96.74938484252198,74.41073526835862 96.92212106300576,74.28934050751923 97.08821358268324,74.34570242263726 97.66621555118763,73.73872230992856 98.15784940945741,74.10724743330866" stroke="#4dd2ff" stroke-linecap="round" stroke-linejoin="round" stroke-width="0.5"><title>2024-07-21 16.7km</title><desc>1721568012000</desc></polyline><polyline fill="none" points="103.48353388218675,76.67436205971171 102.2865737809334,75.58071554321214 101.92748575046426,74.44242206035415 101.94458518049214,72.36668853271112 101.5,71.3622911945713 101.63679544016486,69.50971874357492 103.00474984169705,68.68386593749165 104.8856871437165,65.849147944391 106.3391386953881,64.66613980516559 106.6298290057457,63.88490298129909 107.31380620639538,63.817939638742246 109.34863837872399,65.20184274150233 109.57093096891185,65.849147944391 113.02501583273988,68.59458428506332 113.21310956293019,69.15259375491587 114.20487650408177,69.44275787194783 116.2055098163546,71.58549117493385 117.00918302719947,71.85333072005596 121.83122229255969,76.31725385579921 125.30240658647381,79.01786388960318 126.12317922734655,80.06684827477147 128.5,81.71842608237057 128.43160227988847,82.23175067496777 126.84135528816842,83.77171408235154 125.47340088663623,86.1820603612432" stroke="#4dd2ff" stroke-linecap="round" stroke-linejoin="round" stroke-width="0.5"><title>2024-07-16 2.5km</title><desc>1721136594000</desc></polyline><polyline fill="none" points="155.09446461926564,72.04863265130552 153.73267822878552,73.59310542929961 152.68606510775862,75.0211206335116 151.6037719939486,75.75839603874192 150.64041218932834,76.79832497290408 149.63542572647566,76.0765854153251 142.9097470905981,70.3023152679707 142.80865377778537,69.85214412885034 142.70161379946512,66.1031566953061 142.6659338067111,63.61144696160409 142.77297378500225,61.99681861638237 143.9623068771325,61.67078192459303 145.44897324225167,61.5 145.65115986790624,66.39035558557953 145.7819865080237,66.96474869849771 146.10310644292622,67.64780267798778 151.25291873174137,72.02534879786981 153.423451624898,74.07428876162885 152.6265984531492,75.09872905365046 151.6156653248472,75.75063529839463 150.61662552747293,76.81384614580384 150.72961217124248,76.93801536554747 150.66419885118376,77.09322648135276 151.46699868835276,77.8227126404272 151.44321202646825,77.93911907781876 150.15278562155436,79.48342029947162 149.7603057011729,80.15855293702771 148.6780125873338,81.44671320591078 147.6373461317562,82.47101108835705 146.8107596327318,82.99867197409912 145.90686648272094,83.22370222562677 144.84241336528794,84.47299074109105 144.84241336528794,84.92303777917186 146.0198531264905,85.95502777613365 146.42422637779964,86.1567678353058 146.98915959653095,86.05589790164595 147.6135594698717,85.35756233049324 147.98225272848504,84.83768432402212 147.9049460774695,84.32556070855571 146.45990637055365,83.16162501023791 145.91875981364865,83.2392215181062 144.84836003073724,84.4807502051226 144.82457336891093,85.1247817635558 144.65212007053196,85.73776839277707 144.12881351003307,86.65335548121948 142.8859604287427,88.27499213251212 142.59457382117398,88.5 139.12172119220486,85.63689766227253 135.2801753047097,81.93558511753872 134.90553538070526,81.45447311272801 135.21476198465098,81.5631116888544 138.1464680567151,77.58213852677727 139.32390781785944,75.23842392365623 139.42500113073038,74.84262083615249 140.19806764059467,74.36920541989821 142.52321383566596,73.58534437203343 143.1773470363114,73.15848447263124 144.41425345212338,71.82355497306344 145.5500665550935,70.20141517257434 147.0961995748512,68.4860841704176 151.2826520590752,72.03311008349556 153.3937182975642,74.00443983915102 154.56521139331744,72.6229644661762 154.91606465546647,72.11072287716524 154.86849133175565,72.00206493418227" stroke="#4dd2ff" stroke-linecap="round" stroke-linejoin="round" stroke-width="0.5"><title>2024-07-06 16.1km</title><desc>1720267100000</desc></polyline><polyline fill="none" points="166.31297889631242,72.66674423438963 168.2292335513048,71.33340739167761 171.2952409996651,87.00001678068656 179.5990111725405,87.50001140637323 183.17601986275986,82.33338969573379 181.0042645870708,64.5000315879006 174.61674906872213,62.333342900150456 168.61248448258266,67.50005527865142 170.0177378966473,84.66670562699437 174.23349813837558,88.33333529520314 179.85451179370284,87.50001140637323 183.30377017334104,81.16672993882094 181.77076644916087,65.166704201838 174.61674906872213,62.16667436843272 170.14548820676282,65.66670840629376 169.12348572397605,69.6667341440916 170.6564894481562,84.83337086765096 176.02200248325244,88.00000581308268 180.36551303509623,86.83335185656324 183.43152048345655,80.00006898795255 182.92051924206316,67.83339075685944 180.36551303509623,63.16668519063387 171.2952409996651,63.50002193625551 168.86798510327935,69.16673169471323 170.27323851687834,85.16670127620455 174.10574782826006,87.833341035177 180.4932633456774,87.33334655570798 183.30377017334104,84.00004441977944 182.79276893194765,68.00005845958367 178.57700869021937,62.16667436843272 175.0,61.5 169.7622372759506,65.33337229397148 169.37898634467274,82.66672083549201 171.03974037896842,86.000026871101 176.40525341406465,88.5 183.30377017334104,84.16670975787565 182.6650186209008,67.50005527865142 176.27750310394913,61.833337233169004 171.93399255210534,63.33335357543547 168.99573541386053,67.33338750316761 170.14548820676282,84.16670975787565 172.9559950348921,87.16668168001343 178.44925838010386,88.16667056630831 183.55927079403773,83.33338282222394 182.15401737997308,65.00003608502448 174.61674906872213,62.000005812966265 168.99573541386053,67.83339075685944 170.27323851687834,84.66670562699437 176.02200248325244,88.16667056630831 181.1320148971863,87.16668168001343 183.68702110368758,79.66673706821166" stroke="#4dd2ff" stroke-linecap="round" stroke-linejoin="round" stroke-width="0.5"><title>2024-02-29 2.9km</title><desc>1709196138000</desc></polyline><polyline fill="none" points="13.055351222399622,91.5 22.892120803240687,97.33338750316761 22.508870040997863,112.83338636858389 27.6188802132383,118.33333529508673 34.26189343677834,116.83335185598116 36.816898522898555,113.16671736212447 35.7948964885436,96.3333803373389 30.55713606160134,91.833337233169 25.319375636056066,92.33334289991762 21.870118769351393,95.66670840617735 23.147621312644333,114.33337507175747 28.896382756065577,118.33333529508673 36.30589750595391,115.16670127632096 35.9226467423141,96.3333803373389 30.55713606160134,92.16667436878197 22.3811197867617,94.83336794318166 22.892120803240687,112.83338636858389 25.574876144062728,117.33334655524231 32.34563962183893,118.5 36.43364775972441,115.00003608386032 36.68914826866239,103.1667451482499 33.36764165665954,93.00001678115223 23.78637258382514,93.50002193602268 21.870118769351393,98.66672902554274 24.29737360123545,116.50002193532418 32.98439089395106,118.5 36.05039699701592,116.00002687051892 36.94464877760038,111.16672993893735 34.772894453722984,94.83336794318166 31.83463860535994,92.50001140648965 24.808374618180096,93.00001678115223 21.997869023587555,98.00005845935084 23.914122838526964,115.66669670608826" stroke="#4dd2ff" stroke-linecap="round" stroke-linejoin="round" stroke-width="0.5"><title>2024-02-26 2.1km</title><desc>1708947688000</desc></polyline><polyline fill="none" points="50.49268657295033,102.26694831845816 46.81065588677302,108.06449348235037 49.349987394642085,115.68407914135605 53.9207841088064,118.5 61.15787890693173,116.84357681323308 62.42754466086626,97.79453605914023 56.07921589072794,91.5 49.476953969337046,94.64727240230422 48.71515451744199,111.54300633713137 52.52415177971125,117.17486164462753 57.22191506950185,117.67178870958742 62.68147781165317,114.52458028239198 62.55451123602688,97.62889082136098 56.71404876746237,91.66564613406081 48.969087668228894,95.80679160903674 48.84212109260261,112.53686519083567 51.254486025776714,117.00921924074646 54.55561698554084,118.00307329848874 62.30057808570564,114.85586579178926 62.42754466086626,97.79453605914023 61.15787890693173,94.4816267042188 55.4443830139935,91.66564613406081 48.84212109260261,97.29760027374141 49.2230208190158,114.19329467555508 54.428650410845876,118.00307329848874 60.01517972862348,116.67793436127249 63.18934411276132,111.70864954008721 62.30057808570564,95.97243711340707 59.507313426584005,92.32823042757809 55.190449862740934,91.5 49.476953969337046,95.3098549512215 48.71515451744199,112.03993587312289 53.53988438239321,118.00307329848874 58.99944712501019,117.50614637858234 62.68147781165317,114.19329467555508 62.93541096244007,98.78840697626583 61.66574520803988,95.1442093505757 56.96798191871494,92.32823042757809 51.50841917656362,93.32210614078213 49.60392054542899,95.97243711340707 48.969087668228894,114.35893749108072 53.41291780676693,118.16871555661783 61.66574520803988,115.35279387363698 62.30057808570564,98.1258264615899 60.01517972862348,93.81904367066454 56.07921589072794,92.32823042757809 48.588187942281365,96.46937347960193 48.84212109260261,113.53072317270562 51.38145260093734,117.8374310163781 60.269112878944725,116.84357681323308 62.55451123602688,113.19943727517966 62.68147781165317,103.4264597252477" stroke="#4dd2ff" stroke-linecap="round" stroke-linejoin="round" stroke-width="0.5"><title>2024-01-18 3.0km</title><desc>1705581243000</desc></polyline><polyline fill="none" points="81.80624317470938,94.83336794329807 78.22923553083092,96.1667123909574 78.10148525843397,114.16670975799207 81.16749180993065,117.50001140625682 86.27750272955745,118.33333529555239 91.38751364918426,115.0000360844424 91.38751364918426,97.00005187850911 89.08800873486325,92.83334834722336 85.12775027239695,91.5 79.76223880704492,93.66669027204625 77.46273389318958,97.33338750293478 77.71823443938047,112.66672083549201 83.59474699618295,118.00000581273343 91.13201310299337,114.66670562652871 91.25976337585598,96.83338402933441 85.89425191050395,91.83333723281976 81.03974153706804,93.00001678126864 77.84598471224308,97.00005187850911 78.35698580369353,113.33338282257318 81.03974153706804,117.50001140625682 84.87224972667173,118.5 91.38751364918426,114.50004036154132 91.77076446823776,97.66672302980442 87.17175464099273,92.00000581296626 81.42299235565588,92.66667988931295 78.48473607655615,95.83337642531842 78.35698580369353,113.33338282257318 84.36124863475561,118.5 91.89851474110037,115.0000360844424 91.00426283013076,96.83338402933441 85.76650163717568,92.66667988931295 78.35698580369353,95.66670840571169 78.48473607655615,114.16670975799207 85.25550054572523,118.5 91.38751364918426,115.33336644410156 91.51526392158121,97.16671970312018 86.66075354861096,92.00000581296626 80.91199126420543,92.83334834722336 77.71823443938047,97.33338750293478 77.97373498557135,112.00005845841952 83.21149617806077,118.00000581273343 91.13201310299337,115.50003158731852 91.51526392158121,96.83338402933441 85.51100109145045,91.5 78.10148525843397,96.33338033745531 78.35698580369353,112.50005527795292 80.40099017182365,116.16669191711117 84.74449945334345,117.66667623317335 89.98226064629853,117.0000167802209 92.53726610634476,113.16671736259013 90.87651255680248,95.33337229420431 87.04400436766446,92.00000581296626 81.67849290184677,92.16667436843272 78.35698580369353,95.33337229420431 78.10148525843397,109.16673900594469" stroke="#4dd2ff" stroke-linecap="round" stroke-linejoin="round" stroke-width="0.5"><title>2024-01-17 3.3km</title><desc>1705483266000</desc></polyline><polyline fill="none" points="108.6221255492419,106.95290702185594 105.6284293779172,109.50006975582801 110.70469679823145,116.12266671471298 116.82224984373897,117.99057184869889 122.93980288784951,115.78304727654904 123.85092781018466,99.48119743622374 120.33658882649615,93.02831864915788 115.00000000046566,91.83962653996423 109.92373258015141,95.06607371894643 109.53325047064573,111.87741659942549 114.34919648524374,117.31133396551013 123.5906064035371,115.27361793338787 123.3302849973552,98.46232422208413 118.51433898322284,91.66981328232214 109.01260765828192,96.76420021243393 109.14276836114004,109.83969103102572 112.91742875101045,117.82076241495088 122.54932077927515,116.63209568534512 123.85092781018466,99.14157313096803 120.59691023314372,92.5188793229172 113.43807156337425,92.68869245657697 109.01260765828192,96.93401272536721 109.53325047064573,113.40570842847228 115.65080351568758,118.5 123.20012429496273,116.46228605299257 123.72076710686088,97.4434501142241 119.0349817960523,91.5 113.04758945386857,92.34906616492663 110.31421468919143,95.74532461480703 109.66341117350385,113.40570842847228 111.09517890727147,116.46228605299257 117.34289265563712,118.5 124.37157062254846,113.7453285624506" stroke="#4dd2ff" stroke-linecap="round" stroke-linejoin="round" stroke-width="0.5"><title>2024-01-13 2.0km</title><desc>1705132259000</desc></polyline><polyline fill="none" points="137.0451420461759,99.26256470545195 138.46796216722578,113.94379430869594 140.79621327668428,117.31876321486197 145.71141006145626,118.5 152.82551067043096,113.10005053936038 152.30812153499573,96.39379687560722 145.8407573448494,91.83750389900524 139.1146985865198,95.7187916438561 139.1146985865198,113.60629687458277 144.547284506727,117.82500769919716 152.9548579538241,113.77504560397938 152.69616338657215,96.39379687560722 148.4277030210942,92.17500769952312 143.64185352018103,92.006255811546 138.33861488383263,97.74380615423433 138.7266567349434,112.42505507986061 141.96033883048221,117.99375581101049 144.80597907397896,118.5 151.1439959811978,116.30627357913181 152.82551067043096,112.76255285891239 152.17877425206825,95.88754298910499 145.71141006145626,91.83750389900524 142.2190333986655,92.006255811546 138.7266567349434,96.22504560498055 138.98535130312666,113.94379430869594 145.452715493273,118.5 152.69616338657215,113.26879934268072 151.79073240002617,95.38128887990024 145.5820627771318,91.5 138.7266567349434,96.05629430920817 139.76143500534818,112.5938039815519 145.452715493273,117.48751140071545" stroke="#4dd2ff" stroke-linecap="round" stroke-linejoin="round" stroke-width="0.5"><title>2024-01-11 2.0km</title><desc>1704963338000</desc></polyline><polyline fill="none" points="172.08281276514754,98.10645157343242 170.21140963351354,101.26604313729331 170.43157470738515,114.04792344977614 174.94495873106644,118.35638494248269 179.67850782861933,117.78192450263305 182.10032364632934,114.47877044946654 181.32974588591605,98.82454145798692 178.13735230918974,95.5213236414711 171.31223500473425,95.95217876986135 167.45934620453045,92.79257010918809 168.56017157575116,91.5 168.34000650187954,95.37770522356732 171.97273022774607,95.95217876986135 170.10132709611207,98.96815937163774 170.54165724478662,112.61176541814348 172.74330798815936,117.3510789515567 177.80710469698533,118.5 181.54991096025333,116.3457719310536 182.32048872020096,101.12242555926787 177.47685708617792,95.5213236414711 173.6239682850428,96.09579710348044 170.32149217044935,99.82986641401658 170.65173978172243,114.04792344977614 175.05504126800224,118.21276986418525 179.01801260607317,118.06915476452559 181.99024110892788,114.47877044946654 181.43982842331752,98.68092352291569 175.4953714166768,95.09046832495369 170.87190485652536,99.5426308172755 171.20215246779844,114.90961726062233 175.71553649147972,118.06915476452559 180.22892051469535,117.06384847918525 182.5406537950039,113.61707626050338 181.7700760345906,98.53730556712253 178.79784753127024,95.09046832495369 175.93570156535134,94.80323134205537 170.87190485652536,98.82454145798692 170.9819873929955,113.47346048912732 175.4953714166768,117.63830933981808 179.67850782861933,117.2074637261685 182.32048872020096,113.7606920110411 181.99024110892788,98.96815937163774 180.55916812596843,95.80856041470543 177.25669201090932,94.65961281914497 170.65173978172243,98.39368759014178 170.54165724478662,113.18622888275422 173.2937206737697,116.63300261320546" stroke="#4dd2ff" stroke-linecap="round" stroke-linejoin="round" stroke-width="0.5"><title>2024-01-09 2.6km</title><desc>1704792913000</desc></polyline><polyline fill="none" points="14.58673413656652,131.06969162542373 19.69512871094048,127.48106644977815 20.743004521820694,145.2531975560123 25.19647671468556,148.1582317459397 30.04290233645588,147.98734758188948 34.23440557718277,144.74054371356033 34.889327958691865,140.29753432807047 34.49637452978641,127.31017926183995 30.828809194266796,122.18355200090446 24.541554333176464,121.84177605004515 20.743004521820694,124.9177560058888 20.743004521820694,143.03169594914652 26.37533700093627,148.5 33.841452148742974,146.79115773225203 34.758343481924385,128.33550201519392 30.828809194266796,122.18355200090446 24.541554333176464,122.18355200090446 21.13595794979483,125.77219344524201 21.13595794979483,142.17727112979628 24.934507762547582,147.47469493933022 31.74570052837953,147.6455791783519 34.758343481924385,145.2531975560123 34.758343481924385,127.82284075079951 31.74570052837953,122.69621573900804 26.506321476772428,121.5 23.62466299906373,121.84177605004515 20.873988997656852,125.94308085832745 21.00497347395867,144.05700490798336 27.292228335049003,147.98734758188948 35.15129691082984,144.9114283528179 34.889327958691865,128.67727606592234 30.43585576536134,121.84177605004515 24.803523285780102,121.67088803753722 20.481035568751395,126.96840481087565 21.266942426096648,144.9114283528179 27.947150716092438,148.3291158854263 35.15129691082984,144.22788964677602 34.23440557718277,125.25953105615918 29.911917860154063,121.84177605004515 24.803523285780102,122.0126640376402 20.743004521820694,125.4304185443325 20.743004521820694,142.6899260963546 25.851399095728993,147.81646339292638 34.889327958691865,144.74054371356033 35.41326586343348,129.18993695557583 31.74570052837953,122.0126640376402 23.62466299906373,122.52532785164658 20.743004521820694,129.18993695557583 21.921864807605743,146.27850456547458 31.221762623172253,147.47469493933022" stroke="#4dd2ff" stroke-linecap="round" stroke-linejoin="round" stroke-width="0.5"><title>2024-01-08 3.0km</title><desc>1704701613000</desc></polyline><polyline fill="none" points="47.618149291258305,126.48730782361235 48.40906186727807,144.8885709445458 55.39545628754422,147.9840822427068 61.45911937020719,143.168838925194 60.80002555716783,126.14335623942316 56.05455010058358,122.01592937600799 48.54088062932715,124.93952490098309 47.881786816287786,142.4809454131173 52.89089979743585,148.15605485334527 58.295469066593796,147.8121096061077 61.72275689523667,143.85673203435726 60.93184431921691,127.17521069175564 55.92273133806884,121.84395294240676 50.91361835738644,122.53185852686875 48.013605578802526,125.62742867390625 47.749968053773046,143.68475879484322 53.681812373455614,148.32802743907087 57.768194016069174,148.15605485334527 61.98639442073181,144.20067843887955 61.59093813225627,127.69113757787272 55.39545628754422,121.5 50.51816206937656,122.53185852686875 47.618149291258305,126.31533204414882 47.749968053773046,142.9968655849807 52.49544350942597,148.15605485334527 58.163650304079056,147.9840822427068 61.59093813225627,144.8885709445458 61.98639442073181,129.5828675593948 56.84546267706901,121.67197648389265 50.51816206937656,122.70383485953789 47.881786816287786,125.4554527682485 48.80451815482229,146.43632761226036 57.50455649057403,148.15605485334527 62.513669471256435,142.65291882900055 60.272750506177545,124.59557286347263 52.231805983930826,121.67197648389265 47.354511765763164,126.83125930826645 48.145424341317266,145.06054400838912 54.99999999953434,148.5 62.11821318324655,143.51278553029988 60.272750506177545,124.76754889450967 52.89089979743585,121.67197648389265 47.486330528277904,129.06694150273688 47.881786816287786,144.02870524919126 51.30907464539632,148.15605485334527 56.05455010058358,148.5 59.74547545565292,147.46816425863653 62.645488234236836,141.7930514990585" stroke="#4dd2ff" stroke-linecap="round" stroke-linejoin="round" stroke-width="0.5"><title>2023-12-29 2.9km</title><desc>1703839119000</desc></polyline><polyline fill="none" points="79.72849306697026,124.38682242622599 77.7760830912739,128.80194872617722 79.5983324018307,145.95285700750537 87.40797230228782,147.65095295628998 91.44295291788876,142.21703717962373 90.7921495931223,125.0660737195285 88.18893629265949,122.17925298109185 82.85234902659431,121.5 78.16656508669257,126.42457511241082 79.33801107201725,146.29247639642563 87.79845429770648,147.65095295628998 91.70327424770221,143.2358983248705 90.66198892751709,124.55663528700825 82.85234902659431,121.5 78.29672575136647,126.25476252532098 78.42688641650602,144.08494859619532 84.54443767247722,148.5 92.09375624312088,143.7453285616357 90.66198892751709,124.72644812276121 82.20154570182785,121.5 78.16656508669257,128.63213648681995 78.29672575136647,143.7453285616357 79.98881439678371,146.8019052920863 85.45556232752278,148.16038125671912 91.96359557844698,143.91513859131373 91.57311358302832,125.74532461480703 83.63331301696599,122.0094397731591 77.7760830912739,128.4623242225498 78.6872077472508,144.93399824667722 86.36668698256835,148.5 91.57311358302832,143.2358983248705 91.70327424770221,126.42457511241082 88.18893629265949,122.68869245704263 83.37299168715253,122.51887932315003 77.90624375687912,128.4623242225498 78.81736841145903,145.61323752021417 87.53813296789303,148.16038125671912 92.35407757339999,141.87741659930907 91.57311358302832,125.40569921641145 87.79845429770648,122.34906616492663 82.59202769678086,122.0094397731591 77.64592242660001,129.31138529616874 78.94752907659858,145.7830472763162 87.27781163807958,148.3301906407578 92.22391690779477,142.55665766075253" stroke="#4dd2ff" stroke-linecap="round" stroke-linejoin="round" stroke-width="0.5"><title>2023-12-28 2.9km</title><desc>1703769423000</desc></polyline><polyline fill="none" points="110.27323782583699,127.83339075697586 106.82397894188762,126.33338033687323 108.74023387720808,143.0000518776942 113.33924572262913,147.50001140648965 120.1100131617859,145.83336180110928 122.92052040016279,142.16672408941668 122.79277007095516,129.83340157847852 118.577009213157,122.50001140707172 113.21149539388716,122.16667436878197 108.61248354800045,125.00003608490806 108.61248354800045,143.16671736212447 112.82824440672994,147.33334655570798 117.42725625168532,147.83334103564266 122.53726941300556,143.16671736212447 121.8985177683644,127.33338750293478 117.42725625168532,122.33334289991762 110.40098815411329,122.50001140707172 108.10148223256692,125.00003608490806 108.35698289005086,141.5000614199089 112.06174243241549,147.50001140648965 118.06600789632648,147.66667623328976 121.13201579404995,145.00003608432598 121.77076743869111,128.16672613762785 118.3215085552074,122.16667436878197 109.76223650947213,123.00001678115223 107.46273058699444,127.83339075697586 110.01773716742173,146.00002687145025 116.91625493578613,148.0000058131991 122.66501974267885,141.5000614199089 120.74876480689272,124.166695134365 116.02200263226405,121.5 110.01773716742173,122.83334834722336 107.7182312454097,128.83339660661295 110.40098815411329,146.33335693844128 115.63875164510682,148.5 119.21576085779816,147.50001140648965 122.4095190842636,143.16671736212447 123.17602105857804,135.66674642788712" stroke="#4dd2ff" stroke-linecap="round" stroke-linejoin="round" stroke-width="0.5"><title>2023-11-08 2.1km</title><desc>1699431646000</desc></polyline><polyline fill="none" points="139.79475135030225,123.79093438549899 137.16077010519803,129.6818869812414 138.16419153194875,144.5727677618852 145.31356919649988,148.00909672433045 151.33409775514156,145.5545771131292 152.5883745388128,142.93641692830715 151.33409775514156,125.26367544219829 147.94755044113845,121.99091490660794 142.93044330831617,121.66363832645584 138.03876385372132,126.90005211986136 138.2896192097105,143.75459264428355 145.4389968747273,148.00909672433045 152.21209150366485,143.2636872860603 151.83580846851692,126.24550173606258 148.9509718674235,122.31819139060099 144.31014776974916,121.5 138.16419153194875,128.04551437112968 138.2896192097105,143.918227715767 144.9372861608863,148.17273117334116 152.08666382497177,143.42732242960483 151.83580846851692,126.73641456000041 148.70011651096866,122.48182959691621 145.1881415178068,121.99091490660794 141.299883489497,122.80910593783483 137.9133361754939,127.71823956188746 138.4150468884036,143.1000521191163 141.04902813304216,147.19092411885504 146.44241830101237,147.84546225098893 150.45610400754958,146.3727509152377 152.83922989526764,141.3000637012301 151.83580846851692,125.91822640039027 144.43557544751093,121.5 141.299883489497,122.80910593783483 138.03876385372132,129.02733822411392 138.6659022453241,143.2636872860603 141.04902813304216,147.19092411885504 146.19156294455752,148.5 152.4629468601197,142.7727817130508 151.83580846851692,126.73641456000041 146.06613526586443,121.99091490660794 138.54047456663102,126.57277697592508 138.54047456663102,144.7364027139265 144.81185848312452,148.5 152.08666382497177,144.24549778655637 152.08666382497177,127.06368965632282 149.5781102590263,122.80910593783483 144.31014776974916,121.5 138.4150468884036,126.57277697592508 138.79132992355153,143.1000521191163" stroke="#4dd2ff" stroke-linecap="round" stroke-linejoin="round" stroke-width="0.5"><title>2023-10-27 2.9km</title><desc>1698413800000</desc></polyline><polyline fill="none" points="171.48686697892845,123.00001678103581 167.39885764522478,126.83338402980007 169.44286231184378,145.66669670597184 178.00213185418397,147.50001140672248 182.2178914793767,141.16672993870452 181.3236394370906,125.00003608467523 177.2356301038526,121.5 171.99786814535037,121.5 168.80411085346714,123.6666902723955 167.78210852015764,129.50006668525748 169.31511201988906,145.50003158731852 177.61888097925112,148.16667056665756 180.68488797917962,146.833351856214 182.60114235430956,141.33339569158852 180.81263827066869,125.00003608467523 172.76436989568174,122.5000114068389 167.9098588116467,127.66672302992083 168.9318611449562,145.00003608420957 176.4691283539869,148.5 182.2178914793767,143.16671736247372 180.94038856215775,125.33337229420431 173.65862193750218,122.00000581296626 167.9098588116467,126.83338402980007 169.05961143691093,145.16670127643738 173.65862193750218,148.33333529543597 178.12988214567304,147.83334103494417 182.2178914793767,142.5000552778365 181.45138972904533,126.16671239130665 177.4911306872964,122.16667436831631 170.7203652281314,122.83334834768903 167.52660793671384,128.3333937911084 170.20936406217515,146.833351856214 176.21362777007744,148.16667056665756 181.1958891460672,145.16670127643738 182.2178914793767,132.66674423450604 181.9623908950016,127.33338750316761 178.38538272865117,122.33334289945196 173.01987047865987,122.16667436831631 168.29310968704522,125.33337229420431 168.1653593950905,142.83338636881672 170.7203652281314,147.33334655535873 177.8743815626949,148.16667056665756 181.3236394370906,145.00003608420957 181.8346406039782,127.8333907565102 177.4911306872964,122.33334289945196 169.31511201988906,123.83335858397186 168.03760910360143,141.66672712389845 171.48686697892845,147.66667623294052" stroke="#4dd2ff" stroke-linecap="round" stroke-linejoin="round" stroke-width="0.5"><title>2023-10-21 2.9km</title><desc>1697891041000</desc></polyline><polyline fill="none" points="17.817435071337968,151.5 18.30438862601295,172.30594168405514 22.321755450218916,178.18235684302635 31.208657819312066,175.9588521438418 31.208657819312066,157.0588784016436 28.773890046868473,153.8823799417587 24.269569668453187,152.92942859232426 18.30438862601295,157.21770308096893 19.15655734576285,175.64120824378915 23.904354501981288,178.34117843292188 28.89562843600288,177.38824854406994 31.33039620751515,174.21180954331066 31.695611373521388,159.44124614959583 26.582599051762372,153.08825387549587 18.66960379201919,156.26475465786643 18.182650237344205,172.1471192111494 20.495679621119052,177.0706050619483 26.460860663093626,178.5 30.356489099096507,176.59413966536522 31.817349762655795,160.71184014517348 31.208657819312066,156.58240422513336 27.678244549781084,153.56472958507948 19.521772511769086,155.78828013280872 18.426127014681697,174.68827598600183 23.29566255863756,178.5 31.208657819312066,175.80003020563163 31.695611373521388,157.69417697924655 29.13910521287471,154.3588553033769 24.634784833993763,153.56472958507948 18.791342180222273,157.3765277370112 18.54786540288478,173.10005369863939 22.20001706155017,178.18235684302635 27.921721326652914,178.02353522996418 31.93908815085888,174.21180954331066 32.18256492866203,160.87066428991966 31.08691943064332,156.58240422513336 27.19129099464044,153.72355477511883 22.8087090048939,153.8823799417587 18.182650237344205,157.69417697924655 18.91308056889102,174.37063171423506 22.686970615759492,178.18235684302635 27.79998293798417,177.86471359303687 31.817349762655795,173.89416513266042 31.573872984852642,157.8530015652068 26.582599051762372,153.40590437164064 19.521772511769086,155.62945524486713 17.939173459541053,161.98243265401106 20.00872606644407,176.911783286836 23.539139336906374,178.5 29.99127393309027,176.911783286836 31.695611373521388,163.57067119912244" stroke="#4dd2ff" stroke-linecap="round" stroke-linejoin="round" stroke-width="0.5"><title>2023-10-16 3.1km</title><desc>1697460359000</desc></polyline><polyline fill="none" points="46.81066067703068,155.30985495168716 48.84212469542399,173.6963660841575 54.80955024808645,178.5 63.06237282138318,173.36508023599163 62.046640812885016,155.80679160915315 57.22191376937553,151.5 51.000555214006454,152.49387644033413 48.461225191596895,155.14420935045928 48.84212469542399,173.36508023599163 55.06348325079307,178.33435779006686 59.5073107900098,177.34050402313005 62.93540632072836,171.87429271859583 61.91967431129888,155.6411460810341 55.06348325079307,151.6656461340608 48.84212469542399,155.30985495168716 48.96909119607881,173.53072317223996 53.03201923239976,178.00307329790667 58.11067927768454,177.83743101579603 63.18933932296932,173.19943727517966 62.681473318021744,158.1258264617063 56.71404776489362,151.6656461340608 50.7466222117655,153.15646024933085 48.71515819430351,156.13808259309735 48.96909119607881,173.53072317223996 51.38145471783355,177.17486164346337 56.33314826199785,178.5 62.808439819607884,173.53072317223996 61.15787530411035,153.98468946525827" stroke="#4dd2ff" stroke-linecap="round" stroke-linejoin="round" stroke-width="0.5"><title>2023-10-12 1.8km</title><desc>1697101056000</desc></polyline><polyline fill="none" points="77.20642480161041,160.38614482281264 79.30217611603439,176.10762012621854 87.94715028489009,177.64557917881757 92.53160628443584,171.83550102752633 90.69782388489693,154.9177560057724 81.92186525836587,152.01266403798945 77.73036263044924,157.13929204898886 78.90922274440527,175.4240821202984 87.03025908581913,178.15823174640536 92.13865291280672,173.54435054119676 91.48373062768951,157.3101792621892 86.24435234302655,152.35443993890658 82.05284971510991,152.35443993890658 78.25430045835674,155.94308085832745 77.99233154440299,172.34815614379477 81.52891188673675,177.98734758235514 90.43585497047752,176.79115773318335 92.79357519838959,171.83550102752633 91.74569954164326,156.45574294694234 87.94715028489009,152.52532785153016 82.05284971510991,152.1835520005552 77.99233154440299,156.62663025967777 78.3852849160321,173.88612014369573 81.39792742952704,177.64557917881757 85.85139897139743,178.15823174640536 91.87668399885297,174.5696590502048 92.40062182722613,171.4937308243243 90.95979279885069,154.74686844309326 84.01761657185853,151.84177605051082 77.86134708765894,156.79751754796598 78.51626937324181,174.5696590502048 84.54155440023169,178.5 90.56683942722157,176.62027336878236 92.26963737048209,173.37346570240334 91.48373062768951,156.9684048112249 84.41056994348764,151.5 77.73036263044924,157.13929204898886 79.43316057277843,175.93673566239886 87.16124354302883,177.81646339269355 91.35274617001414,175.25319755647797 92.40062182722613,170.81019011954777 91.09077725606039,155.25953105674125 86.63730571419,151.67088803788647 80.61202068673447,152.52532785153016 77.73036263044924,157.99372786399908 79.17119165882468,175.5949666594388 83.62466320069507,178.5 88.60207257093862,178.15823174640536 92.40062182722613,168.75956560508348" stroke="#4dd2ff" stroke-linecap="round" stroke-linejoin="round" stroke-width="0.5"><title>2023-10-10 2.9km</title><desc>1696942258000</desc></polyline><polyline fill="none" points="114.0428181993775,175.55262200058496 115.93912176659796,174.44439391013293 120.07486954657361,174.96313992375508 120.72503076959401,175.69409737778187 119.80396903690416,176.99094920723292 120.36383009015117,178.5 123.88553671492264,177.32105527706153 124.82465848163702,176.07136444227945 125.83602038410027,173.05320316445432 126.0166207238799,165.60187515296275 124.06613705470227,162.1826376451063 124.51763790403493,160.9328292532009 126.43200150527991,159.2821240483463 126.75708211679012,158.31527456500044 126.55842174310237,157.13618196752213 125.40257956879213,155.60334867464553 125.2219792290125,154.1648303034017 119.13574777997565,151.5 110.7378319822019,152.51405567086476 105.89774287724867,151.73582747044566 103.24291788320988,152.46689043255174" stroke="#4dd2ff" stroke-linecap="round" stroke-linejoin="round" stroke-width="0.5"><title>2023-10-07 3.0km</title><desc>1696669067000</desc></polyline><polyline fill="none" points="139.92252212995663,152.84162991598714 137.3516472587362,156.86651024583261 138.12290972005576,171.12118113820907 143.26465946203098,178.16460017219651 148.2778654601425,177.49380022333935 152.6483527412638,173.63669290184043 152.13417776674032,156.86651024583261 145.57844684645534,151.83540762588382 141.07941582193598,152.84162991598714 137.73727848939598,157.36961929430254 138.76562843751162,174.3074951072922 143.39320320589468,178.5 147.63514674268663,178.16460017219651 152.3912652535364,173.63669290184043 151.87709027901292,157.36961929430254 146.73534053843468,152.33851888112258 138.76562843751162,154.51866510347463 138.3799972073175,173.63669290184043 143.7788344360888,178.5 148.1493217172101,178.16460017219651 152.13417776674032,173.80439348972868 151.4914590488188,156.1956978389062 145.83553433278576,151.66770382528193 137.60873474599794,155.86029148800299 138.89417218137532,174.13979459297843 145.44990310212597,177.82920024706982 152.26272151013836,173.63669290184043 151.62000279221684,156.02799467591103 144.8071843846701,151.5 137.73727848939598,155.5248850391945 138.25145346391946,173.46899228950497 143.0075719752349,177.82920024706982 149.69184663938358,176.82299988158047 152.00563402287662,173.13359099067748 151.87709027901292,157.0342132867081 146.73534053843468,151.83540762588382 138.12290972005576,155.3571817780612 138.63708469411358,174.3074951072922 144.55009689740837,178.5 150.72019658749923,176.31989936868194 152.26272151013836,173.30129165260587 151.62000279221684,156.1956978389062 145.70699058938771,151.66770382528193 141.33650330919772,152.17081515409518 137.86582223325968,156.1956978389062 138.3799972073175,173.63669290184043 142.36485325777903,177.99690022179857" stroke="#4dd2ff" stroke-linecap="round" stroke-linejoin="round" stroke-width="0.5"><title>2023-10-06 2.9km</title><desc>1696597953000</desc></polyline><polyline fill="none" points="168.6861901197626,153.3565927369982 168.59524700598558,153.2005930129444 168.24157934131654,152.8292632095836 168.1068488023884,152.0118658612846 168.069797904187,151.94374740801595 168.10348053891357,151.8844181809227 168.23989520958276,151.8646417198197 168.64577095807908,151.8668391056699 168.6255613772446,151.72840316921884 168.30220808383456,151.7701538240899 166.89932634730212,151.77235122376533 164.96089071856113,151.85365478573658 164.7385853293381,151.8844181809227 164.39333832334523,152.00527376640093 163.15550149699993,152.59855072100527 162.65363023951795,152.79410724964964 162.41279940120148,152.97428067472538 162.60815868263307,154.12558178961808 162.73615269460424,156.4345095700337 162.78162425148912,159.20651180519508 162.75299401197844,159.5161887092445 162.77320359281293,161.1698871662784 162.68899700598558,161.35435221161788 162.77320359281293,161.58712630102855 162.79172904191364,163.73462669727087 162.76141467065463,164.65457649763994 162.46669161676255,164.76654745309406 162.313435628741,164.94438196318515 161.5185254491007,164.9312091086158 161.5,164.95755480621847 161.58589071856113,164.97072763771484 161.57747005987767,165.02122338489698 161.51684131736693,165.03659162213808 161.53031437125173,165.05854621951676 161.95808383233816,165.04537346493726 162.3016467065827,165.0717189625684 162.48690119759704,165.28906755732078 162.72267964071216,165.34614848572983 162.78162425148912,165.3900567447954 162.79341317364742,166.8367621983134 162.6755239520935,167.03652394637083 162.60815868263307,167.35921039777713 162.61657934130926,167.47116122293664 162.77825598802156,167.47774653965553 162.8068862275395,167.64018343945736 162.79509730538848,169.67049673251404 162.69741766467632,169.86363659167364 162.69236526946042,170.02824246953332 162.63847305389208,170.0984737627523 162.53574101795675,170.15553644714146 162.67383982035244,170.08311069536558 162.76646706586325,170.2213777371844 162.7698353293381,170.3311125804421 162.8506736526906,170.48912934897453 162.92645958084177,171.05973164424358 163.06455838323018,172.76263140735955 163.0308757485036,173.21465749060553 162.94161676646036,173.40116915152248 162.69741766467632,173.71055398709086 162.71425898203597,173.92777783805377 162.96182634730212,174.06600956576585 163.10834580838127,174.21521064113495 163.20939371257555,174.43023311921024 163.3255988023957,174.8953732785576 163.51085329341004,175.31223196525298 163.8948353293381,175.88703922397326 164.81605538921576,177.16601633567097 165.1511976047841,177.50603485284864 165.09056886227336,177.4577746275927 165.0501497005971,177.4687428741845 165.67159431137407,177.78901215234418 165.96631736526615,177.8723687925949 166.28293413173378,177.90746618728735 167.84749251497124,177.9250148539668 168.4554640718561,177.89649826023742 168.59019461077696,177.99082217188243 168.7552395209641,178.25404856796376 168.90175898203597,178.27159683078207 168.9960703592733,178.0544356391838 169.15269461077696,177.81533535174367 169.52151946107915,177.51480942263697 172.5815868263453,176.40697955944597 172.68600299401442,176.3762662833151 172.70958083832375,176.43111137531923 172.6624251497051,176.36090962175786 172.60853293412947,176.46182453958045 172.64053143712226,176.43549897404228 172.65905688622297,176.4552431525144 172.67421407184884,176.37187866732802 172.73147455089202,176.4552431525144 172.70958083832375,176.37846009082932 172.76684131736693,176.34335913222367 173.36639221556834,176.16785311180683 174.08046407184884,176.13494550522955 175.96500748503604,176.16127159624102 178.3867889221583,176.13275166223593 178.5198353293381,176.16127159624102 179.4056886227554,176.13494550522955 180.27133233533095,176.16565927360534 181.53779940120148,176.12836397528554 181.96388473053958,175.9879573177859 182.62743263472657,175.86948818209112 184.2391467065827,175.73566081498575 185.53592814371223,175.7575998091461 185.84749251497124,175.73566081498575 186.18431886227336,175.63693494567542 186.54640718563314,175.45045098182345 186.89165419161873,175.16304176148424 186.84449850298552,175.18278760863177 186.77544910179859,175.13671392500328 186.70134730538848,175.2091153645424 186.782185628741,175.13232594777946 186.8815494011942,175.17401167975459 186.94386227545328,175.1411019009438 187.16616766466177,175.12793796927144 187.40868263473385,174.85368677506995 187.43057634730212,174.58820686037507 187.85160928143887,174.17352225423474 188.12107035928784,173.85975858544407 188.22043413174106,173.64472795885195 188.27432634730212,173.40775187380405 188.36021706586325,166.10793860192916 188.39389970060438,165.89499251196867 188.39221556886332,165.3768842805348 188.47642215569067,165.15295062310724 188.5,164.8807130592295 188.4949476047841,164.54480024189888 188.42252994012233,164.33402758483226 188.4258982035899,163.80049609502657 188.35853293412947,162.36008610570025 188.39221556886332,159.95323958443896" stroke="#ff0000" stroke-linecap="round" stroke-linejoin="round" stroke-width="0.5"><title>2023-09-14 39.1km</title><desc>1694696482000</desc></polyline><polyline fill="none" points="24.695653672795743,181.5 17.63481887197122,188.3294751845533 18.486988589633256,201.82947419618722 21.40871333470568,206.91178328637034 27.495639886241406,207.38824854465201 32.36518112802878,203.10005369817372 31.513011410366744,186.42357945349067 27.252162824384868,181.97647640679497 22.139144520740956,182.770603285986 18.243511527776718,187.05887840176 18.852204182650894,204.68827598600183 25.06086926534772,208.5 32.24344259686768,203.4176983416546 31.513011410366744,187.535352369654 28.347809603903443,183.40590437175706 23.11305276909843,182.770603285986 17.63481887197122,188.3294751845533 18.730465651489794,202.62358655931894 24.573915141634643,207.8647135932697 29.443456382956356,206.7529614875093 31.756488473154604,203.89416513219476 31.269534348510206,186.42357945349067 27.617378417868167,182.6117779565975 22.017405989579856,182.9294285926735 18.365250058472157,186.26475465798285 18.608727120794356,204.05298734956887 22.382621583063155,207.38824854465201 26.88694723136723,207.8647135932697 31.878227003850043,202.1471192111494 31.878227003850043,185.3118053986691" stroke="#4dd2ff" stroke-linecap="round" stroke-linejoin="round" stroke-width="0.5"><title>2023-09-11 1.8km</title><desc>1694438011000</desc></polyline><polyline fill="none" points="55.24657534249127,196.72912134061335 59.623287671245635,193.27094943705015 66.28082191757858,195.68362980266102 65.41780821909197,199.5438963713823 49.45205479464494,200.50895877956646 47.35616438370198,199.22220852551982 44.520547945285216,200.26769333635457 43.226027397438884,199.14178653480485 43.0410958903376,196.16616460564546 52.657534246798605,197.1312329415232 59.99315068498254,194.47729094314855 66.15753424656577,195.20109457644867 65.97260273969732,199.70474022370763 49.14383561629802,199.86558402900118 45.81506849313155,197.69418868847424 44.767123288009316,199.14178653480485 42.79452054784633,198.57883226958802 42.732876712456346,196.08574216801208 51.85616438346915,196.64869898522738 61.47260273969732,194.31644556182437 66.65068493131548,195.4423622424947 65.23287671222351,199.70474022370763 52.2876712330617,199.46347442740807 45.75342465774156,200.58938057057094 42.42465753434226,198.57883226958802 42.547945205587894,196.2465870315791 56.84931506845169,195.92489725718042 63.38356164377183,194.39686825824901 66.58904109569266,195.52278477448272 65.47945205471478,199.62431830348214 49.267123287776485,199.86558402900118 45.32191780838184,200.83064587268746 43.226027397438884,199.78516213217517 41.5,196.88996601616964 41.99315068521537,196.08574216801208 46.986301369965076,196.4074318485218 53.45890410942957,195.12067199742887 58.57534246565774,196.0053197183879 65.91095890384167,195.12067199742887 65.91095890384167,188.847674608347 68.5,189.0085215891013 65.5410958903376,188.52598050562665 65.10958904097788,199.5438963713823 52.164383561583236,199.30263050476788 44.4589041096624,201.47401949443156 42.36301369895227,197.4529220102704 42.732876712456346,196.4878542391234 53.21232876717113,195.20109457644867 58.76027397252619,196.08574216801208 62.64383561629802,195.28151714347769 66.21917808195576,196.16616460564546 65.72602739697322,200.02642778703012 49.14383561629802,199.70474022370763 48.34246575366706,200.83064587268746 44.335616438416764,201.47401949443156 43.16438356181607,200.42853697692044 42.732876712456346,196.16616460564546 51.42465753434226,193.91433190292446 54.93835616461001,195.12067199742887 58.57534246565774,194.87940419034567" stroke="#4dd2ff" stroke-linecap="round" stroke-linejoin="round" stroke-width="0.5"><title>2023-08-30 4.9km</title><desc>1693396264000</desc></polyline><polyline fill="none" points="75.23067120462656,183.51244428521022 78.5728100030683,187.03421328705736 80.75805460149422,203.97209405410103 85.25708759948611,207.99690022249706 94.12660979526117,202.96589030476753 94.25515359593555,184.51866510382388 86.15689419955015,181.66770382528193 79.47261660220101,185.3571817779448 80.88659840123728,204.64289606327657 84.87145619979128,208.5 90.27029579784721,208.16460017266218 94.64078499563038,205.14599731226917 94.64078499563038,187.20191630290356 92.06990899704397,182.84162991598714 86.92815699893981,181.66770382528193 79.85824800189584,187.36961929430254 81.14368600212038,205.31369767943397 84.61436859983951,208.3323000984965 94.51224119542167,203.80439349031076 94.38369739567861,186.86651024629828 91.94136519683525,183.00933354522567 86.79961319919676,181.83540762588382 81.9149488019757,183.34474073001184 79.72970420215279,186.86651024629828 80.50096700200811,204.13979459286202 87.05670079914853,208.16460017266218 94.51224119542167,204.81059650389943 94.12660979526117,186.86651024629828 92.19845279678702,183.51244428521022 85.51417519990355,181.83540762588382 79.72970420215279,185.69258827588055 80.50096700200811,203.13359099067748 86.79961319919676,208.3323000984965 91.94136519683525,207.32610017526895 94.64078499563038,203.6366929024225 93.74097839556634,185.5248850393109 88.85631399834529,181.5 80.62951080175117,185.0217751818709 80.62951080175117,203.6366929024225 83.58601820049807,207.6615002474282 90.3988395971246,207.99690022249706 94.51224119542167,203.46899228950497 94.38369739567861,188.87894511432387 90.1417519976385,182.170815154328 80.88659840123728,184.6863684875425 80.37242320226505,202.2950873146765 84.3572810003534,207.49380022357218 90.7844709972851,207.99690022249706 94.12660979526117,205.31369767943397 94.76932879537344,191.89759079378564" stroke="#4dd2ff" stroke-linecap="round" stroke-linejoin="round" stroke-width="0.5"><title>2023-08-25 3.1km</title><desc>1692968645000</desc></polyline><polyline fill="none" points="119.35483870934695,190.31280009931652 118.91935483831912,194.1951437544776 128.1370967742987,194.57390774285886 128.5,199.68719990062527 101.5,199.59250967216212 101.93548387056217,195.04736241674982 117.90322580607608,195.04736241674982 125.8870967742987,193.43761511310004 128.06451612897217,194.38452577602584 128.2096774186939,199.21374861942604 119.06451612897217,199.30843890324468" stroke="#4dd2ff" stroke-linecap="round" stroke-linejoin="round" stroke-width="0.5"><title>2023-08-24 1.1km</title><desc>1692883156000</desc></polyline><polyline fill="none" points="145.3379449674394,208.5 145.41746143030468,208.11098019758356 145.6162525875261,208.26658822098398 145.03975823160727,192.00481134827714 144.56265945418272,189.0220269482379 145.3379449674394,188.4514016063913 144.58253856992815,187.7510861771152 144.84096707426943,184.94979680079268 144.3837474125903,181.5" stroke="#4dd2ff" stroke-linecap="round" stroke-linejoin="round" stroke-width="0.5"><title>2023-08-21 1.2km</title><desc>1692620048000</desc></polyline><polyline fill="none" points="175.56658891425468,199.02468051756296 175.20603233244037,199.79751953664527 175.4635727480054,208.5 175.32192551944172,197.69740137329063 175.0,195.54684058270504 175.09013914543903,193.09380802355008 174.5106732104323,182.23935023228114 174.832598729874,181.65123111658613 175.37343360256637,181.5 174.7424595844932,181.56721385417768 174.43341108574532,182.12172665009712 174.45916512730764,185.81841020203137 175.01287702081027,192.64015927595756 174.84547575068427,195.00919409366907 175.1931553116301,197.12616259037895 175.52795785182388,208.4832004797354 175.24466339475475,200.80556261688616" stroke="#4dd2ff" stroke-linecap="round" stroke-linejoin="round" stroke-width="0.5"><title>2023-08-10 4.8km</title><desc>1691669615000</desc></polyline><polyline fill="none" points="26.804812834132463,224.0110793687054 29.187165775336325,221.27972575224703 37.20053475908935,221.27972575224703 37.99465240677819,226.64823738660198 12.294117646757513,227.8726285097655 11.5,223.8227105255355 20.5962566845119,220.62043176451698 26.443850267212838,222.31575779797276 37.34491978632286,221.93901906500105 38.5,225.89476476906566 23.628342246171087,227.6842607963481 12.871657753828913,227.2133412710973 11.572192512918264,226.83660540293204 11.5,225.14129127009073 13.160427807364613,222.4099424466258 21.390374331269413,223.1634191412013 31.569518716540188,221.27972575224703 37.850267379544675,221.84483434748836 37.41711229970679,226.55405335745309 18.863636363763362,227.9668123460142 11.933155079837888,227.11915732483612 11.933155079837888,223.54015715781134 13.954545454587787,222.59831170312827 28.320855615194887,223.35178817703854 30.5588235296309,222.12738845899003 38.06684491969645,222.22157313558273 38.06684491969645,226.64823738660198 22.256684491876513,227.02497336477973 17.058823529165238,229.19120096275583 12.51069518737495,227.4958930273424 11.644385026302189,224.67036988545442 12.582887700293213,223.7285260835779 22.040106951724738,223.25760366610484 23.339572192635387,222.03320376906777 28.39304812811315,223.7285260835779 38.283422459848225,222.59831170312827 38.06684491969645,226.74242140172282 17.491978609468788,227.7784446599544 12.0775401070714,226.45986931480002 12.005347593221813,223.54015715781134 13.593582887668163,222.4099424466258 28.97058823565021,223.54015715781134 38.5,222.69249631051207 37.9224598929286,226.9307893908117 21.1737967915833,227.4958930273424 18.647058823611587,229.00283363478957 13.088235293980688,227.8726285097655 12.221925133373588,225.51802812964888 13.232620320748538,223.25760366610484 28.68181818164885,223.91689495416358 38.2112299464643,222.5041270814836 38.427807486616075,227.02497336477973 24.4224598929286,226.9307893908117 20.8850267380476,227.4958930273424 19.4411764703691,229.3795682354248" stroke="#4dd2ff" stroke-linecap="round" stroke-linejoin="round" stroke-width="0.5"><title>2023-08-08 4.7km</title><desc>1691498421000</desc></polyline><polyline fill="none" points="56.924436492379755,211.5 57.12414216611069,220.33470591754303 58.195290779694915,220.68997891817708 58.14082559593953,221.21104457628098 51.8047092204215,221.0215663490817 52.53091167018283,222.60843965646927 52.821392650250345,233.33719011524227 53.311579303932376,237.0080122128129 53.838076080195606,238.5" stroke="#4dd2ff" stroke-linecap="round" stroke-linejoin="round" stroke-width="0.5"><title>2023-08-04 1.6km</title><desc>1691107871000</desc></polyline><polyline fill="none" points="84.43455497385003,223.06356320006307 92.06806282722391,221.3115291815484 97.51047120429575,222.2336529561435 98.14659685874358,227.3975211729994 87.47382198972628,226.75203995860647 71.85340314148925,228.13521318056155 71.92408376955427,225.00001618842361 73.97382198972628,222.69471433776198 79.41623036656529,221.95701596525032 84.71727748727426,222.8791387960664 92.28010471211746,220.48161663144128 98.00523560238071,222.51028982555727 98.35863874363713,227.30530961160548 71.85340314148925,228.04300172673538 71.92408376955427,224.72338041168405 74.11518324632198,222.69471433776198 80.75916230352595,221.49595404439606 84.01047120429575,222.6025020882371 97.43979057623073,222.6025020882371 98.5,227.3975211729994 72.70157068083063,228.50405886070803 71.5,226.56761663331417 72.77225130912848,224.26232051325496 80.40575916250236,222.04922830912983 97.36910994793288,222.51028982555727 97.93455497385003,227.21309803659096 72.8429319371935,228.50405886070803 72.20680628274567,224.53895649279002 77.57853403151967,222.97135100484593 88.95811518328264,223.89347235218156 98.14659685874358,222.8791387960664 98.21727748727426,226.9364632302313 73.97382198972628,228.41184746084036 71.6413612565957,227.02867484587478 72.41884816787206,224.6311684589018 78.78010471211746,222.69471433776198 98.07591623067856,223.34019970556255 98.14659685874358,226.8442516013165 82.52617801073939,227.58194425608963 78.07329842960462,229.51838336855872 74.75130890053697,228.96511565742549 72.91361256549135,228.04300172673538 72.41884816787206,225.00001618842361 77.64921466005035,222.6025020882371 88.88743455521762,224.3545325200539 97.72251308895648,223.06356320006307 98.28795811533928,227.30530961160548 82.87958115199581,226.9364632302313 77.86125654471107,228.50405886070803" stroke="#4dd2ff" stroke-linecap="round" stroke-linejoin="round" stroke-width="0.5"><title>2023-07-26 4.8km</title><desc>1690377436000</desc></polyline><polyline fill="none" points="110.5,223.49708411691245 125.62000000011176,221.24268283619313 128.4279999998398,221.8062838979531 127.8519999999553,226.78473846788984 110.21200000029057,226.97260392288445 103.66000000014901,229.22698509308975 101.78799999970943,227.25440200173762 102.1480000000447,223.5910173318116 108.34000000031665,221.24268283619313 112.73199999984354,222.74561790260486 127.8519999999553,221.90021736058407 127.70800000010058,226.31507459114073 103.15599999995902,228.47552558220923 101.5,226.50294018298155 102.07599999988452,223.7788837206317 107.90800000028685,220.96088211983442 112.15599999995902,220.77301490691025 115.39600000018254,222.74561790260486 121.73199999984354,220.96088211983442 127.99599999981001,221.99415080901235 128.0679999999702,226.87867120222654 101.9320000000298,226.97260392288445 101.9320000000298,223.5910173318116 103.15599999995902,223.02741783601232 118.42000000039116,222.65168456389802 124.03599999984726,220.96088211983442 128.2839999999851,221.99415080901235 127.92399999964982,226.69080572010716 101.9320000000298,227.16046932234894 102.07599999988452,223.49708411691245 105.02799999993294,222.27595107199159 117.84400000050664,222.46381784550613 124.03599999984726,220.77301490691025 128.5,221.99415080901235 127.92399999964982,226.87867120222654 102.3640000000596,227.72406519192737 102.8680000002496,223.21528438961832 115.10800000000745,222.65168456389802 122.52400000020862,220.86694852029905 128.2119999998249,222.08808424370363 128.14000000013039,226.78473846788984 101.9320000000298,226.78473846788984 102.29200000036508,223.21528438961832 111.5800000000745,224.530348726199 123.10000000009313,220.86694852029905 128.3560000001453,221.90021736058407 128.2839999999851,226.87867120222654 103.08399999979883,227.4422673190711" stroke="#4dd2ff" stroke-linecap="round" stroke-linejoin="round" stroke-width="0.5"><title>2023-07-24 4.9km</title><desc>1690201802000</desc></polyline><polyline fill="none" points="148.09070937347133,211.80918372313317 148.0512114901794,211.5 146.92552181414794,212.1441321441962 146.76753028074745,213.0716782946256 147.20200699777342,218.81720258526911 148.24870090687182,219.30672289905488 148.28819879039656,219.71894947676628 143.64719749463256,219.92506240401417 141.13908190082293,219.64165706688073 141.9487885098206,220.54339973890455 142.1462779266294,221.72854023214313 142.38326522696298,232.72935526633228 143.50895490287803,238.5 142.77824406058062,235.69198665853764 143.64719749463256,234.919131097442 142.91648665233515,212.35025393293472 147.93271784007084,212.01530590372568 148.54493503225967,211.88647956910427 148.6436797407223,211.52576533101092 148.86091809917707,211.96377538118395" stroke="#4dd2ff" stroke-linecap="round" stroke-linejoin="round" stroke-width="0.5"><title>2023-07-24 3.0km</title><desc>1690157385000</desc></polyline><polyline fill="none" points="175.18140674883034,229.79373846709495 175.6867541204556,238.5 175.32394062291132,226.86896365902066 175.0518304996658,225.58406809056032 175.29802537307842,224.48513291648123 175.10366099938983,223.94411483879958 174.55944075295702,212.70050969385193 174.88338137581013,211.85508163082704 175.4923897467088,211.58454334440466 174.9481695004506,211.5338173451819 174.5076102532912,212.22707074056234 174.5076102532912,215.8454477910127 175.01295762491645,223.8595805353325 175.12957624916453,222.91279211294022 174.4557797536254,212.59905865287874 174.68901700212155,211.92271610349417 175.29802537307842,211.56763468044664 174.84450850106077,211.5 174.35211875429377,212.37924775850115 174.31324587960262,215.72709145543922 174.8056356263114,224.1300900886199" stroke="#4dd2ff" stroke-linecap="round" stroke-linejoin="round" stroke-width="0.5"><title>2023-07-22 4.9km</title><desc>1690030226000</desc></polyline><polyline fill="none" points="21.78209478687495,252.69520053523593 17.11297741951421,249.89641083835158 19.132055200170726,264.3841881727567 23.044018399901688,267.3475742052542 29.353636464104056,266.03051470941864 32.5084454966709,260.59762800252065 31.372714244760573,246.76834353117738 28.975059380289167,242.65245225431863 24.684519096743315,241.5 18.12251631030813,244.7927175963996 19.384439922403544,263.23175816470757 21.90828714799136,267.0183094756212 25.567865625489503,268.00610337546095 32.88702258048579,262.0793269771384 32.12986841285601,250.0610457189614 27.208366322796792,241.66463610855862 21.65590242575854,242.15854428964667 17.617746864445508,246.10980193840805 18.627285754773766,262.73785922897514 24.305942012928426,267.8414711188525 31.87748368969187,263.72565688437317 31.62509896699339,246.76834353117738 24.053557289764285,242.48781628976576 17.870131587143987,246.93297886964865 18.879670477937907,264.71345367317554 24.053557289764285,268.5 32.63463785732165,262.9024922319222 32.00367605080828,250.22568057558965" stroke="#4dd2ff" stroke-linecap="round" stroke-linejoin="round" stroke-width="0.5"><title>2023-07-18 1.7km</title><desc>1689685608000</desc></polyline></svg>