<?xml version="1.0" encoding="utf-8" ?>
<svg baseProfile="full" height="300mm" version="1.1" viewBox="0,0,200,300" width="200mm" xmlns="http://www.w3.org/2000/svg" xmlns:ev="http://www.w3.org/2001/xml-events" xmlns:xlink="http://www.w3.org/1999/xlink"><defs /><rect fill="#222222" height="300" width="200" x="0" y="0" /><text fill="#FFFFFF" style="font-size:12px; font-family:Arial; font-weight:bold;" x="10" y="20">Over 10km Runs</text><text fill="#FFFFFF" style="font-size:4px; font-family:Arial" x="10" y="280">ATHLETE</text><text fill="#FFFFFF" style="font-size:9px; font-family:Arial" x="10" y="290">Yunlong</text><text fill="#FFFFFF" style="font-size:4px; font-family:Arial" x="120" y="280">STATISTICS</text><text fill="#FFFFFF" style="font-size:3px; font-family:Arial" x="120" y="285">Number: 53</text><text fill="#FFFFFF" style="font-size:3px; font-family:Arial" x="120" y="290">Weekly: 1.8</text><text fill="#FFFFFF" style="font-size:3px; font-family:Arial" x="141" y="285">Total: 273.7 km</text><text fill="#FFFFFF" style="font-size:3px; font-family:Arial" x="141" y="290">Avg: 5.2 km</text><text fill="#FFFFFF" style="font-size:3px; font-family:Arial" x="167" y="285">Min: 1.1 km</text><text fill="#FFFFFF" style="font-size:3px; font-family:Arial" x="167" y="290">Max: 39.1 km</text><polyline fill="none" points="34.61943900841288,36.8307002777583 35.33333333331393,49.83596638889867 18.143509458517656,48.25186377437785 12.488714937935583,47.809783266122395 11.33333333331393,47.87118347657815 12.206914546550252,48.202743833404384 24.15525114152115,49.19741700995655 24.15525114152115,40.19580746005522 24.549771689460613,40.023870962890214 27.13294194388436,41.2642620466213 27.311415525036864,38.709773190217675" stroke="#4dd2ff" stroke-linecap="round" stroke-linejoin="round" stroke-width="0.5"><title>2025-01-29 5.9km</title><desc>1738137793000</desc></polyline><polyline fill="none" points="55.315896471001906,54.64754165488921 55.12834341076086,54.63965894136345 54.61408501979895,54.93131857664412 54.49913314418518,55.238741894743725 53.93647396346205,55.293920254014665 53.74892090325011,55.04955852119747 53.60976863277028,53.98538971275411 52.992658563598525,45.502821385623974 53.022909057181096,36.64831231826611 52.85955639183521,34.25900216214359 52.889806885417784,33.10767968967775 52.82930589825264,32.23234276774747 52.7264542200719,32.350632369474624 52.70225382517674,32.027306844749546 52.78695520720794,31.33333333333212 52.82325579953613,32.508351435699296 52.6841035290272,33.3757980726441 52.84140609568567,33.588714664532745 52.85955639183521,34.069745357996 52.980558366165496,41.14276798822175 52.86560649055173,43.13755576710537 52.94425777386641,44.69075852201058 52.79300530595356,45.75511027728862 53.13181083407835,47.73396043872708 53.18021162383957,50.34340908851664 53.54321754685952,54.44259072967907 53.773121298116166,55.33333333333212" stroke="#4dd2ff" stroke-linecap="round" stroke-linejoin="round" stroke-width="0.5"><title>2024-12-08 7.1km</title><desc>1733648293000</desc></polyline><polyline fill="none" points="72.66666666667152,44.2186389037015 77.72227839566767,43.786533470396535 78.34108527129865,43.67587149207975 78.68891135825834,43.718028476145264 79.53016514996125,43.5441306000248 80.88102460396476,43.50724306419943 81.48365352206747,43.380771227079094 84.43208628242428,43.07512912726088 85.3097404785949,43.090938264755096 85.84765756655543,42.98027415701654 86.26423997302481,43.00662278482923 88.4239973036747,42.82745173701187 88.58577687900106,42.885418937898066 89.39063026626536,42.79583322461258 89.50387596897781,42.85907022174797 91.46545331984817,42.643010024839896 95.202561509941,42.52180495871653 95.5058982136834,42.458567371577374 96.66666666667152,42.46910697711792 95.74452308729815,42.50599557230453 95.5301651499758,42.448027762966376 94.72531176272605,42.542884129841696 91.63936636333528,42.62720069142597 88.58173238960444,42.86960971050212 87.87799123693549,42.83799123498102 83.882035726303,43.090938264755096 83.28345129759691,43.23322019118132 79.38456353217771,43.60209665167349 79.39265251094184,43.54940024492316 78.39366363329464,43.696949990269786 76.58173238960444,43.79180307997012 76.24603977080551,43.876116728537454 74.07414897200943,44.07636085576087" stroke="#4dd2ff" stroke-linecap="round" stroke-linejoin="round" stroke-width="0.5"><title>2024-11-23 9.9km</title><desc>1732350310000</desc></polyline><polyline fill="none" points="106.56844223570079,41.80613156873733 110.0297368094325,39.47885256778682 112.93275806494057,55.042427696927916 117.95721792895347,50.678832982317545 121.41851250361651,51.260646713140886 123.31664178520441,48.93338975543156 122.87002313090488,37.1515681403107 120.97189384838566,33.36971937358612 116.17074331082404,31.33333333331393 112.82110340101644,32.49698300776072 109.58311815513298,39.91521779366303 112.70944873755798,54.16971028014086 122.7583684665151,48.06066699733492 122.87002313090488,37.29702357581118 118.40383658418432,31.624245878774673 113.26772205578163,32.06061453890288 109.47146349120885,35.55155694944551 111.70455676456913,53.87880430498626 112.93275806494057,50.969739890191704 122.08844048483297,48.3515746681951 121.19520317576826,33.51517536013853 117.73390860203654,31.33333333331393 113.71434071054682,32.20607071655104 110.0297368094325,35.55155694944551 109.69477281859145,40.35158282879274 111.70455676456913,53.58789824490668 115.38916066568345,49.3697508481564 121.41851250361651,48.49702847196022 122.98167779389769,36.569746186141856 120.413620530162,33.36971937358612 115.61246999260038,32.35152687272057 110.58801012765616,34.96973406209145 109.80642748204991,42.38795047119493 111.48124743672088,53.73335128527833 118.51549124810845,48.49702847196022 121.86513115745038,49.80611175019294 123.65160577651113,47.47885140153812 121.30685783969238,33.80608727037907 113.71434071054682,32.64243912190432 109.80642748204991,38.75157676736126 111.59290210017934,53.87880430498626 119.29707389324903,47.62430533213774 121.53016716660932,50.24247246183222 123.7632604399696,47.62430533213774 123.20498712174594,36.424290644179564 121.30685783969238,33.36971937358612 114.16095936484635,31.915158340299968 110.36470080027357,35.11518981563859 109.80642748204991,38.31521103240084 112.0395207554102,54.02425730309915 119.96700187539682,48.93338975543156 122.7583684665151,49.3697508481564 123.09333245782182,37.58793438388966 120.97189384838566,32.35152687272057 116.17074331082404,31.915158340299968 110.92297411942855,34.533366673858836 109.80642748204991,45.29703989601694 111.92786609195173,54.31516323587857 119.63203788455576,49.951565342082176 122.7583684665151,51.260646713140886 124.09822443081066,48.06066699733492 122.87002313090488,36.13337949727429 119.29707389324903,31.33333333331393 113.26772205578163,32.06061453890288 110.2530461368151,36.13337949727429 111.36959277326241,52.42427315743407 112.37448474625126,53.87880430498626 122.87002313090488,50.678832982317545 123.42829644912854,40.06067282642471 118.73880057502538,32.06061453890288 110.47635546373203,34.24245497590164 109.02484483644366,42.67885979521088 110.92297411942855,55.33333333331393 123.09333245782182,51.551553451339714 122.08844048483297,35.9879238922731 118.40383658418432,31.33333333331393 110.47635546373203,34.82427828741493 108.68988084606826,47.62430533213774 109.24815416382626,55.042427696927916 121.75347649399191,53.44244518328924 122.2000951487571,37.44247899047332" stroke="#4dd2ff" stroke-linecap="round" stroke-linejoin="round" stroke-width="0.5"><title>2024-11-17 5.0km</title><desc>1731835115000</desc></polyline><polyline fill="none" points="139.39656205568463,37.83941478718771 140.8393300101161,52.44179782678839 147.72022333042696,53.164682493312284 151.937545042485,49.405676475784276 152.4924557940103,36.10446390416473 148.1641519316472,31.91165341215674 143.1699551665224,32.48997315426823 140.8393300101161,35.81530512869358 140.50638355873525,51.429758408805355 144.50174097064883,55.18875675788149 151.937545042485,52.15264381264569 152.4924557940103,36.82736047421349 150.7167413891293,33.21287235751515 147.165312578436,31.622493414732162 140.61736570950598,35.52614626887953 140.72834785981104,50.99602691328619 144.50174097064883,54.75502690614667 151.71558074234053,51.86348971427651 152.60343794478104,37.11651895433897 150.6057592383586,32.923712739604525 147.38727687951177,31.91165341215674 140.95031216042116,34.94782829703763 140.3954014084302,50.27314066683175 142.72602656530216,55.33333333331393 152.04852719279006,51.28518126462586 152.60343794478104,36.97193972481182 147.9421876310371,32.05623337946599 141.06129431072623,34.6586691843695 140.95031216042116,51.429758408805355 144.05781236942858,55.33333333331393 152.15950934356079,51.71891263325233 152.60343794478104,37.11651895433897 147.83120548073202,31.767073424183764 143.61388376774266,32.200813325238414 140.61736570950598,35.67072570952587 140.3954014084302,50.85144970641704 143.058973016683,55.33333333331393 151.6045985915698,52.58637480204925 151.937545042485,37.55025651695905 148.941026983317,32.34539325005608 143.28093731682748,32.48997315426823 140.95031216042116,34.803248751035426 140.50638355873525,50.56229522865033 142.72602656530216,54.89960354421055 151.71558074234053,52.008066773822065 152.27049149386585,36.10446390416473 147.60924117965624,31.767073424183764 140.8393300101161,34.6586691843695 140.50638355873525,50.85144970641704 143.83584806881845,55.18875675788149 151.6045985915698,53.74298984755296 152.3814736441709,37.11651895433897 148.8300448334776,32.05623337946599 143.1699551665224,32.05623337946599 140.72834785981104,34.51408959639957 140.61736570950598,50.70687247783644 142.72602656530216,54.610450246487744 152.27049149386585,51.71891263325233 151.937545042485,35.95988452702295 147.2762947292067,31.33333333331393 143.94683021958917,31.91165341215674 140.17343710782006,35.95988452702295 140.17343710782006,51.57433553156443 144.05781236942858,54.32129686453845 149.82888418622315,53.59841304033762 152.27049149386585,50.70687247783644 152.4924557940103,36.68278120207833 148.38611623225734,31.622493414732162 142.39308011438698,32.634553036885336 140.50638355873525,34.803248751035426 139.84049065690488,48.53821152599994 142.6150444149971,54.4658735661651 152.4924557940103,51.429758408805355 152.3814736441709,41.88762171543203" stroke="#4dd2ff" stroke-linecap="round" stroke-linejoin="round" stroke-width="0.5"><title>2024-11-16 4.9km</title><desc>1731760965000</desc></polyline><polyline fill="none" points="186.7533217794262,44.58213065247401 188.66666666674428,43.8763808515796 188.08434430975467,41.270523797837086 188.66666666674428,42.356299795472296 187.8347775854636,44.1478232415684 178.30964760272764,54.29962596442783 164.66666666674428,42.953475239133695 166.49682264612056,41.59625693093403 173.31831311411224,32.80136191038764 174.44136337400414,32.36704070225824 173.2767186597921,32.47562105196994 171.52975158882327,34.701511214720085 174.1086077413056,32.529911214864114 177.60254188347608,32.47562105196994 186.54534950922243,39.533275589259574 188.54188330448233,42.356299795472296 182.55228191800416,50.0109303733916 177.10340843442827,53.48532048944617 171.11380704818293,47.350828439957695 169.3252455231268,47.29654044678318 164.70826112106442,42.84489795722766 166.28885037568398,41.813412194052944 170.11554015032016,36.49307164107449 172.9855574814137,34.267192232218804 173.31831311411224,32.80136191038764 176.35470826132223,32.58420136992936" stroke="#4dd2ff" stroke-linecap="round" stroke-linejoin="round" stroke-width="0.5"><title>2024-11-14 2.7km</title><desc>1731589127000</desc></polyline><polyline fill="none" points="23.269978972210083,82.0 22.284466688288376,80.8974971974967 21.256718163669575,80.41974297582055 20.06002467602957,78.76596432106453 16.65296792302979,76.41388603641099 16.413629225513432,76.21175225220213 16.667046669928823,75.91773889413162 16.484022960125003,76.10149732365244 16.11797554034274,75.82585957850824 19.750292243959848,71.50745587624988 19.144906126661226,70.73564041525242 16.59665293537546,68.54880416762171 15.934951830480713,68.40178859917796 12.499737583624665,72.51815942194662 14.414447163871955,74.64979839824082 15.681534386065323,75.56859713693848 16.554416694678366,75.20107844854647 19.679898509348277,71.30531419045292 16.807834139093757,68.69581956377078 16.132054287241772,68.42016555467853 14.949439546559006,69.54115475004801 12.541973824379966,72.59166481693683 15.456274435389787,75.36646199148527 15.808243108273018,75.62372484734806 16.272841756406706,75.47671756568889 19.693977256305516,71.47070286668168 19.42648106487468,70.93778301855491 17.45545649708947,69.15524156700121 16.3995504786144,68.36503468016599 15.991266818135045,68.43854250743607 12.541973824379966,72.57328847220924 12.837627509608865,73.05107256000338 16.005345565092284,75.66047664087819 17.525850231642835,74.17202039613767 21.101851947663818,69.78005279254285 22.15775796608068,69.00822670887283 23.044719021592755,68.67744264870271 27.029004398093093,68.5304272309586 31.97064456460066,67.66670817399427 31.703148373169824,65.79223360265314 30.999211027577985,63.568555894249585 33.87127539789071,62.31886848407885 34.166929083061405,61.96968889521668 32.70273940404877,59.764321678063425 30.914738546067383,58.312433771192445 28.591745305398945,58.0 23.73457762034377,63.34802372606646" stroke="#4dd2ff" stroke-linecap="round" stroke-linejoin="round" stroke-width="0.5"><title>2024-11-11 6.9km</title><desc>1731328526000</desc></polyline><polyline fill="none" points="54.077134986175224,80.72945254827209 53.65840220381506,80.87327097781235 50.41873278224375,78.85980338523223 42.0,71.40979389222048 43.696969697019085,67.32511280961626 46.49586776853539,65.68546341967885 49.16253443527967,62.089693166170036 51.91735537187196,59.21302958040906 52.53443526173942,59.12672902218765 56.986225895234384,63.03898290653888 57.449035812634975,63.959501910809195 52.42424242431298,69.82770918225287 51.38842975196894,70.28795332080335 46.429752066149376,65.62793161364971 50.154269972466864,60.76643314799003 51.123966942192055,60.392466744975536 51.96143250691239,59.27056326488673 52.53443526173942,59.241796424787026 57.404958677710965,63.70060637676215 54.31955922872294,67.72783161931147 51.608815426938236,70.40301418711897 46.539944903575815,65.8868246080965 46.84848484839313,64.99508063554822 50.39669421489816,60.593833358128904 51.0137741046492,60.536300061125075 52.09366391180083,59.21302958040906 52.64462809916586,59.27056326488673 57.38292011024896,63.67184018531407 53.988980716327205,68.04425296206318 51.65289256197866,70.37424897684832 46.60606060596183,66.00188805168727 46.62809917354025,65.48410202491505 49.03030303027481,62.1472260083101 52.35812672181055,59.241796424787026 57.449035812634975,63.729372564092046 52.7768595040543,69.5688213804533 51.69696969690267,70.31671854369051 46.429752066149376,65.85805873670324 49.316804407630116,61.8883280861628 51.58677685947623,59.67329858463199 52.62258953170385,59.18426273186924 57.31680440774653,63.47047672679764 57.16253443516325,64.18963098798122 54.473829201073386,67.49770668623387 52.35812672181055,69.94277031792444 51.41046831943095,70.37424897684832 46.584022038499825,66.03065390208212 46.80440771346912,65.11014460139268 49.955922864959575,61.197931959235575 52.55647382920142,59.18426273186924 57.38292011024896,63.47047672679764 53.988980716327205,67.98672184678435 51.608815426938236,70.28795332080335 46.51790633611381,66.00188805168727 46.584022038499825,65.28274042376142 47.707988980808295,64.41975979568087 48.920110192731954,62.26229164197866 52.33608815423213,59.155495879094815 57.42699724517297,63.47047672679764 51.58677685947623,70.54684017501131 52.73278236913029,70.97831750739715 58.44077134982217,64.41975979568087 62.47382920095697,67.98672184678435 63.7961432505399,68.67709411897522 66.0,70.97831750739715" stroke="#4dd2ff" stroke-linecap="round" stroke-linejoin="round" stroke-width="0.5"><title>2024-10-22 9.9km</title><desc>1729553484000</desc></polyline><polyline fill="none" points="73.44887681775435,71.26863031234461 72.85407118203875,71.29516974162107 72.66666666667152,71.19431980749505 72.77666496916208,70.86522860600599 72.97221750694735,70.70068188999721 73.21665817915346,70.64229416687158 73.21665817915346,70.40874233817158 73.37554461607942,70.37158622731658 73.77479771402432,70.39281829530955 79.48248741017596,69.86732097398271 79.94692468737776,69.89916951237683 80.62728455838806,69.76646708534099 81.7028235161124,69.67092103840696 81.96356023314002,69.70807786421938 82.22837096136936,69.61253166410097 85.1616590279009,69.30465886932507 87.23940474170377,69.16133788724619 87.54088157077786,69.20380342222415 87.87495048946585,69.10825589888191 90.66564816387836,68.964934143758 90.71046228712657,69.12948870351465 91.34193402367237,69.11887230274442 91.5293385390396,68.94900946947746 92.29525264530093,68.86938599359928 96.66666666667152,68.70483025837893 93.0163526283286,68.800378840333 91.54970859504829,68.93308478822291 91.25230577720504,68.83753655449618 90.64120409665338,68.88531070271347 90.567871894993,68.83753655449618 90.47824364851112,68.97555058940998 90.29491314436018,69.01270812481744 86.06201550390688,69.22503617114853 78.34991229561274,70.00002303348083 77.79177276072733,69.98940688651783 74.98477904147876,70.32381402908504" stroke="#4dd2ff" stroke-linecap="round" stroke-linejoin="round" stroke-width="0.5"><title>2024-10-19 10.0km</title><desc>1729295146000</desc></polyline><polyline fill="none" points="121.41643091326114,82.0 120.03148750634864,80.85986002665595 119.03006688889582,79.1913501709787 107.73745141644031,69.76399417353969 109.6550653645536,67.92852532058896 114.38517977006268,61.47643345416873 117.62381666025613,58.0 118.4334758828627,58.305928697183845 122.92921525018755,62.338579104689416 121.09682858851738,64.78593898589315 118.0499530932866,68.31786868044583 117.15506658400409,68.76283154317935 112.33972489193548,64.3687775991275 115.77012317697518,59.72431894612964 117.83688487671316,58.0 122.90790842857677,62.394201270348276 120.09540797129739,65.9817965507682 117.26160069229081,68.76283154317935 112.38233853527345,64.53564226374147 112.46756582183298,63.812560991587816 117.32552115712315,58.13905855976918 118.0499530932866,58.05562343621568 122.41785153071396,61.69892302893277 122.84398796362802,62.17171250995307 122.69484021211974,62.86698902089847 117.90080534166191,68.48472987617424 117.11245294078253,68.67940108584298 112.33972489193548,64.42439917023876 112.4462590002222,63.756939241240616 116.66500968614127,58.91778461333888" stroke="#4dd2ff" stroke-linecap="round" stroke-linejoin="round" stroke-width="0.5"><title>2024-10-10 5.0km</title><desc>1728516073000</desc></polyline><polyline fill="none" points="155.20345940021798,79.17373039170343 152.69601535308175,82.0 151.53727227065247,81.70250015682541 147.18723676470108,77.68620112851204 146.7313378470717,76.76888490380952 137.78432158811484,69.6037304540223 136.79654059978202,68.3888472213439 139.47494674113113,65.1656453916803 140.53871088230517,64.96729250611679 140.31076142354868,64.54579185294278 142.64724337635562,61.37210618885001 145.7435568588553,58.04959028336452 146.59836732933763,58.19836104636488 150.53049549425486,62.01676590302668 146.33242629410233,67.14916146967153 145.64857791771647,67.7194180424849 145.0217169058742,67.49627439489996 141.54548765870277,64.62017439736519 141.05159716471098,63.80196461176092 143.23611281171907,60.75223876486416 145.61058634123765,58.14877080655424 146.12347262352705,58.0 146.67435048241168,58.371926771331346 150.07459657650907,61.29772221771418 150.47350812947843,62.01676590302668 146.06648525886703,67.29792423904291 145.23067057644948,67.5706556434452 141.24155504698865,64.29784980224213 140.97561401163694,63.72758170794987 144.18590222357307,59.53729203189141 145.9715063177282,58.0 150.30254603538197,61.47128476615762 150.26455445901956,62.48786183448101 146.06648525886703,67.39709934602433 145.0407126940554,67.421893113642 143.50205384707078,66.20699422930193" stroke="#4dd2ff" stroke-linecap="round" stroke-linejoin="round" stroke-width="0.5"><title>2024-10-05 4.9km</title><desc>1728122302000</desc></polyline><polyline fill="none" points="170.93015007581562,62.311420281010214 173.35713786352426,81.85628916317364 181.74127749633044,76.97010825487087 182.51350088324398,63.60484268999426 178.6523839472793,59.43714218796231 173.02618498401716,60.155712496547494 171.5920558362268,72.51503985805903 173.2468202370219,81.13773466547718 181.30000698938966,76.2515501974267 182.623818510212,65.32940326305106 180.1968307220377,59.868284435768146 175.01190226478502,59.29342806356726 172.47459685010836,61.1617100489093 171.5920558362268,70.50306688883575 173.46745549095795,80.85031271987827 180.96905410895124,78.11980005842634 182.51350088324398,65.32940326305106 178.76270157424733,59.29342806356726 173.68809074442834,59.868284435768146 172.14364396966994,61.8802791009075 171.26110295578837,72.22761539934436 172.58491447707638,79.9880463804584 175.23253751872107,80.56289069063496 181.52064224286005,76.97010825487087 182.623818510212,63.31741563451942 178.32143106730655,59.29342806356726 172.47459685010836,60.73056836659089 171.3714205827564,73.66473685501842 173.2468202370219,81.28144560719375 181.6309598693624,77.54495432419935 182.623818510212,65.04197671019938 181.85159512329847,61.59285154286772 178.43174869427457,59.29342806356726 172.47459685010836,61.1617100489093 171.81269108969718,79.55691292777192 173.46745549095795,80.70660171582131 181.96191274980083,77.11381980392616 182.73413613671437,64.32340996188577 179.09365445468575,59.29342806356726 172.2539615961723,61.1617100489093 171.9230087166652,78.40722279984038 174.0190436244011,81.13773466547718 182.40318325720727,76.97010825487087 182.51350088324398,62.598847629269585 178.6523839472793,59.43714218796231 171.81269108969718,61.8802791009075 171.04046770278364,70.50306688883575 172.8055497300811,79.12577928690007 174.5706317583099,80.13175748934736 182.18254800327122,77.11381980392616 182.623818510212,63.74855618615402 178.76270157424733,59.43714218796231 172.2539615961723,61.1617100489093 171.70237346319482,76.68268509500194 175.34285514522344,81.28144560719375 182.07223037676886,78.26351143943612 182.51350088324398,64.03598311595852 180.85873648198321,60.29942649556324 177.76984293339774,59.14971391798463 171.70237346319482,61.8802791009075 171.15078532882035,70.79049184994074 173.46745549095795,81.71257830527611 182.07223037676886,78.83835675474256 182.2928656297736,64.03598311595852 179.2039720811881,59.29342806356726 171.9230087166652,60.586854430323 172.2539615961723,80.85031271987827 181.74127749633044,79.41320173512213 182.73413613671437,74.81443251145538 182.18254800327122,61.8802791009075 178.43174869427457,59.00599975133082 174.46031413134187,59.00599975133082 171.3714205827564,62.4551339657628 172.36427922314033,79.84433525032364 179.09365445468575,80.85031271987827 182.51350088324398,75.3892798369634 181.74127749633044,62.311420281010214 177.2182547999546,58.71857135556638 172.8055497300811,59.580856291460805 170.37856194237247,61.30542390153278 172.2539615961723,79.26949052140117 176.1150785330683,81.56886742723873 180.85873648198321,80.99402370338794 182.73413613671437,75.96412682766095 181.6309598693624,61.8802791009075 179.64524258766323,59.724570373946335 173.7984083709307,59.868284435768146 171.26110295578837,63.892269661300816 172.2539615961723,79.41320173512213 179.97619546810165,81.13773466547718 182.51350088324398,77.54495432419935 181.74127749633044,61.017996175796725 176.55634903907776,58.71857135556638 171.70237346319482,61.8802791009075 172.2539615961723,79.12577928690007 174.901584637817,81.42515652748989 180.08651309506968,81.13773466547718 182.623818510212,75.10185621597338 181.74127749633044,60.155712496547494 174.7912670117803,59.29342806356726 171.48173820972443,63.60484268999426 171.9230087166652,78.83835675474256 174.901584637817,82.0 177.88016056036577,81.85628916317364 182.40318325720727,76.97010825487087 181.6309598693624,60.01199847640237 175.01190226478502,59.00599975133082 171.3714205827564,62.598847629269585 171.3714205827564,77.25753133132821 175.01190226478502,80.99402370338794 178.6523839472793,81.42515652748989 182.73413613671437,76.68268509500194 182.18254800327122,61.30542390153278 177.54920767992735,58.862285564187914 171.5920558362268,62.598847629269585 171.81269108969718,75.67670337448362 174.34999650437385,79.55691292777192 179.64524258766323,80.56289069063496 182.95477139065042,75.3892798369634 182.73413613671437,62.4551339657628 178.10079581383616,58.0 171.70237346319482,61.8802791009075 171.81269108969718,77.54495432419935 176.0047609056346,81.28144560719375 181.96191274980083,78.55093413888244 182.95477139065042,63.1737020756118 178.87301920121536,58.71857135556638 172.36427922314033,60.155712496547494 171.5920558362268,76.82639668538468 177.76984293339774,81.13773466547718 181.74127749633044,79.26949052140117 182.95477139065042,62.74256127199624 178.43174869427457,58.1437143132207 171.81269108969718,61.449137732735835 170.8198324488476,75.10185621597338" stroke="#4dd2ff" stroke-linecap="round" stroke-linejoin="round" stroke-width="0.5"><title>2024-09-08 8.9km</title><desc>1725751236000</desc></polyline><polyline fill="none" points="23.49408118647989,85.21119150580489 25.42305542435497,84.66666666665697 24.84436315309722,84.95987247757148 25.45520499511622,95.80827717628563 30.85633286111988,94.21664497829624 32.1101661156863,95.0124621790892 31.660072126891464,97.02293792311684 31.949418262578547,107.87088727473747 18.993141298065893,108.66666666665697 15.103043251670897,108.20595255034277 15.48883809929248,99.95485650500632 14.588650121586397,94.25853014900349 14.55650055105798,86.00703364537912 15.328090246068314,85.2530779891531" stroke="#4dd2ff" stroke-linecap="round" stroke-linejoin="round" stroke-width="0.5"><title>2024-08-20 2.0km</title><desc>1724107925000</desc></polyline><polyline fill="none" points="57.73913043481298,85.50644207665755 52.72463768121088,85.20325075194705 52.86956521740649,90.39530371899309 52.681159420346376,90.69848283087777 47.420289855101146,89.63735281951085 47.02898550732061,90.4332011470251 47.07246376812691,94.92396747297607 46.60869565221947,94.94291552266805 42.76811594213359,92.9723034396884 42.014492753660306,93.18073498852027 42.0,106.53859951334016 59.565217391296756,108.13008258138143 59.65217391302576,105.23129515277105 59.07246376812691,98.50509937747847 59.9855072463979,98.33457154268399 63.71014492755057,98.54299442119373 64.82608695648378,98.29667643764697 65.60869565216126,98.56194193891133 65.36231884057634,98.08825316092407 66.0,97.70930088516616 64.85507246374618,91.96803761643241 63.92753623187309,89.35312008316396" stroke="#4dd2ff" stroke-linecap="round" stroke-linejoin="round" stroke-width="0.5"><title>2024-08-18 4.9km</title><desc>1723938111000</desc></polyline><polyline fill="none" points="93.06120987737086,105.4412342596188 91.71808296372183,107.63243421517836 90.52270001044963,108.66666666666424 89.50192355603212,108.17584559987154 87.37978303234559,106.07230395741499 86.56047561496962,105.54641277355404 86.07694992609322,104.77510152639297 85.83518708159681,104.84522093593841 79.6433720093919,99.7263961351855 73.43812566797715,93.99375382783182 72.84714982600417,92.34578751415393 72.99489378649741,91.13609567852836 72.77999348030426,90.55754308896576 73.0486188630457,89.06731899941951 73.72018231992843,88.80433635233203 75.07674050278729,86.92837671349116 77.34662498690886,84.66666666666424 80.03287881438155,86.61279182999715 81.04022399970563,87.98032031776529 81.89982522442006,88.6640787044089 82.74599518004106,88.57641759097896 84.19657224684488,89.89132755313767 84.84127316548256,91.04843637490558 81.38943699724041,95.20341679362173 81.99384410842322,95.57157266194554 85.33823012356879,91.60945480884402 86.65449449897278,92.34578751415393 89.48849228693871,94.95797891922848 90.24064335861476,95.36119801865425 91.79867057845695,97.04418481619359 92.55082165019121,97.41233502503746 94.72668725036783,99.51602879122947 95.50570086034713,99.9367631095447 96.55333985300967,101.2164875750459 96.04295162583003,102.18065450875292 94.37747425277485,103.77589547890966 94.1625739466399,104.31932436341594 93.32983526017051,104.93287014015368" stroke="#4dd2ff" stroke-linecap="round" stroke-linejoin="round" stroke-width="0.5"><title>2024-08-14 5.1km</title><desc>1723587841000</desc></polyline><polyline fill="none" points="123.99839020066429,106.42306154813559 122.11670224822592,108.63634800253203 121.79147223179461,108.66666666666424 120.56024431227706,107.37811561416311 119.85170749068493,107.01428653227777 119.36386246600887,106.34726322916686 118.81794065266149,106.13502764089208 118.00486561149592,105.13448258060816 112.7663392748218,100.96544077641738 107.49296686495654,96.08365850033442 107.05158327118261,95.00720970110706 107.13289077533409,94.23397900972486 106.83089147432474,93.21815736526332 107.00512184022227,90.79227431637992 108.515118345269,89.10928455879184 108.88680979266064,89.07896016810992 108.53834906069096,89.04863576860953 108.0505040360149,88.44214591258788 107.76012009277474,88.57860643993627 107.02835255570244,89.59447360164631 107.22581363713834,90.51935891671747 106.91219897841802,90.67097867202392 106.66827646602178,87.19883060149004 106.76119932788424,85.10638820047461 109.43273160606623,84.66666666666424 110.39680629770737,84.86378344726108 112.46433997387066,84.72731802373892 110.3735755822272,87.53240446747805 115.13587225193623,91.62617802499153 116.71556090330705,92.50556011506706 117.42409772495739,93.65784258386702 120.6067057432374,96.37172036554693 117.6796355950064,100.02548816588387 118.2139420506428,100.17709400269814 120.072399287601,97.87266132943478" stroke="#4dd2ff" stroke-linecap="round" stroke-linejoin="round" stroke-width="0.5"><title>2024-08-10 5.2km</title><desc>1723241479000</desc></polyline><polyline fill="none" points="153.26685236766934,105.9599260431205 152.14373259048443,107.40829430829763 151.58217270189198,108.61234609827079 150.82005571032641,108.07139679847023 150.28523676871555,108.0364967593996 149.24233983288286,106.30893205354369 147.39721448463388,105.33171264947305 146.95598885795334,104.49408964168106 145.5253481893451,103.48195398820826 142.78440111415694,100.75961545198516 141.3537604456651,99.9568627325134 139.80278551531956,98.35134107577323 137.55654596094973,96.43166723161994 137.38272980495822,96.60618431313924 136.83454038988566,95.96046983533597 135.79164345399477,95.33220374280063 135.40389972139383,94.54686647040944 134.69526462390786,94.1454698663947 134.1738161559333,92.92381971084978 134.40111420606263,92.26063295438507 134.0,90.8818907827008 134.42785515316064,89.27624688664946 135.44401114201173,88.47341682731349 135.96545960998628,87.53095724885497 138.43899721448543,84.77334753052128 138.94707520882366,84.72098723506497 139.00055710296147,85.00024187825329 139.254596100247,84.96533508362336 140.4311977715697,85.83800188182795 140.87242339830846,86.51867754884734 142.10250696376897,87.42623905788787 142.5169916434097,87.46114513176872 143.11866295262007,88.78756836415414 144.3353760445607,89.0668134794978 145.6456824511988,88.92719100357499 146.5147632311564,89.4682271866186 146.75543175486382,90.37576623685163 146.5548746517743,90.6724601968308 143.92089136480354,93.46483775301022 142.79777158773504,95.38455937698018 143.23899721441558,95.55907799155102 144.00111420603935,94.87845394988835 145.5387186629232,92.76674949677545 146.5147632311564,91.75451426301152 146.91587743733544,91.66725220246008 152.05013927572872,95.85575904986763 153.05292479111813,97.11228240463242 154.64401114202337,98.298986744594 155.40612813370535,98.38624395040097 155.59331476321677,98.9621399066964 156.27520891366294,99.36352029146656 156.48913649027236,99.83470423608378 158.0,100.55020222019812 157.77270194987068,101.6321666243748 154.75097493029898,104.80819895930472" stroke="#4dd2ff" stroke-linecap="round" stroke-linejoin="round" stroke-width="0.5"><title>2024-08-09 5.2km</title><desc>1723159591000</desc></polyline><polyline fill="none" points="184.35287619702285,105.87867668673425 184.5151180869434,106.21394471526582 183.63630785036366,106.65508543748729 182.9873402910889,107.48442562494893 182.9332596611348,107.94320710730244 182.13557036948623,108.66666666666424 180.74299414851703,106.74331338818592 180.26978863647673,106.6903766254909 179.5802606047364,105.87867668673425 178.56624879338779,105.4198873472269 178.1471239113016,105.03167961924191 178.1876843837672,104.59053295618651 177.89024091901956,104.76699181513686 166.14122406422393,94.69077721823851 165.28945414262125,93.45545652112196 164.99201067799004,92.5201338569168 164.7351276858244,90.24356345443084 164.87032926059328,88.97290081054234 166.10066359181656,88.10813662818691 167.91236469481373,85.69029364096787 169.1426990259788,84.66666666666424 169.62942469550762,84.68431548123772 172.90130280697485,87.52574092726718 173.6989920985652,87.84341165846126 173.87475414591609,88.60228834931331 176.34894296573475,90.08473135649547 176.63286627293564,90.68476262810145 180.56723210122436,94.0025286774835 180.67539336107438,94.30253493480268 177.4711160369916,98.06137357719126 177.2818338322104,98.431956954606 177.49815635208506,98.69665866949799 178.0930432813475,98.4848973440603 179.56674044724787,96.47314619782264 181.37844155036146,94.81430859162356 188.59820564754773,101.07894794619642 187.55715352110565,102.7024069968902 185.9482547803782,104.25526041263947" stroke="#4dd2ff" stroke-linecap="round" stroke-linejoin="round" stroke-width="0.5"><title>2024-08-08 4.9km</title><desc>1723122982000</desc></polyline><polyline fill="none" points="35.26837270341639,122.42416023673104 35.297900262477924,122.40489097743193 35.300853018372436,122.45884486789873 35.33333333332848,122.33552152721131 35.291994750659796,122.27000576750288 35.05872703412024,122.4318679364842 34.73687664042518,122.1235581856563 34.66010498687683,122.11199649975242 34.5656167979032,122.20063596186264 34.46522309711145,122.1274120798189 34.39435695538123,122.15053543299473 33.774278215219965,122.8904720110786 32.87368766403233,123.75370506901345 29.823490813651006,127.34121423712713 29.65223097112903,127.43754233147774 25.33825459316722,123.77682699384422 24.431758530190564,123.19106530566751 24.269356955381227,122.93286358101068 24.20144356956007,122.63226733836564 23.40124671916419,122.2353208875229 23.017388451451552,122.33552152721131 22.62467191601172,122.33937539034741 21.842191601055674,122.2353208875229 21.0213254593109,122.22761313021329 14.014435695542488,122.50509097172653 13.547900262463372,122.47811408770576 13.229002624677378,122.29698286477651 12.862860892390017,122.50894481003706 11.451443569545518,122.57060614640613 11.407152230967768,122.53592166247108 11.333333333328483,120.91340751365715 11.348097112844698,120.27747801574696 15.936679790029302,120.08091488097125 16.042979002624634,120.08862326685085 16.99967191599717,120.53570578563631 17.439632545923814,120.67445398892414 22.193569553797715,120.69757861836479 22.663057742785895,120.60893409516393 23.734908136480954,120.12716516238834 24.20439632545458,120.13872772003742 24.641404199472163,120.03466451830172 24.65616797900293,119.94987197568116 26.150262467199354,119.30621058682118 26.333333333328483,119.34475362798003 26.65223097114358,119.27923042442308 28.099081364824087,119.2291243351865 28.113845144354855,119.34089932640018 28.178805774266948,119.36402512739005 30.97801837271254,119.27537611325533 31.03116797900293,119.44496527086085 31.051837270351825,120.08862326685085 31.131561679780134,120.38154025759286 31.302821522316663,120.6783080952373 33.77723097112903,122.8095424607618 33.93077427822573,122.70163600668275 34.078412073489744,122.75173548678686 34.59219160104112,122.21219760882377 35.029199475073256,122.53977549627234" stroke="#4dd2ff" stroke-linecap="round" stroke-linejoin="round" stroke-width="0.5"><title>2024-07-21 16.7km</title><desc>1721568012000</desc></polyline><polyline fill="none" points="43.76314122858457,124.82165516419627 42.699176694091875,123.849524927311 42.3799873337266,122.8377084981039 42.395186827052385,120.99261202907655 42.0,120.09981439517287 42.121595946722664,118.45308332762215 43.33755541476421,117.71899194444995 45.00949968327768,115.19924261723645 46.30145661806455,114.14767982682679 46.55984800506849,113.45324709449778 47.167827738972846,113.39372412333614 48.976567447709385,114.62386021467682 49.17416086123558,115.19924261723645 52.2444585179328,117.63963047561992 52.41165294480743,118.13563889326178 53.29322355915792,118.39356255285384 55.071564281126484,120.29821437773353 55.78594046860235,120.53629397338955 60.072197593341116,124.504225649609 63.15769474348053,126.90476790188404 63.88727042428218,127.83719846647 66.0,129.30526762877707 65.93920202652225,129.76155615552852 64.52564914501272,131.1304125176539 63.309689676971175,133.27294254333538" stroke="#4dd2ff" stroke-linecap="round" stroke-linejoin="round" stroke-width="0.5"><title>2024-07-16 2.5km</title><desc>1721136594000</desc></polyline><polyline fill="none" points="93.6395241060236,120.70989569004814 92.42904731447925,122.08276038159966 91.49872454022989,123.35210722979173 90.53668621683028,124.00746314554999 89.68036639053025,124.93184442036 88.78704509022646,124.29029814695969 82.80866408054135,119.15761357152951 82.71880335803144,118.75746144786899 82.6236567106389,115.42502817360582 82.59194116151775,113.21017507698343 82.68708780891029,111.77494988122999 83.74427277967334,111.48513948852633 85.0657539931126,111.33333333333212 85.24547543816152,115.6803160760719 85.36176578490995,116.19088773199837 85.64720572705846,116.79804682487884 90.22481665044324,120.68919893143902 92.1541792221251,122.51047889922847 91.44586529169464,123.42109249213536 90.54725806653732,124.00056470968411 89.65922269108705,124.94564101849392 89.75965526333312,125.05601365826442 89.70151008994435,125.19397909453619 90.41510994519922,125.84241123593529 90.39396624575602,125.9458836247286 89.24692055251217,127.31859582175457 88.89804951215046,127.91871372180321 87.93601118875085,129.0637450719223 87.01097433932591,129.9742320785408 86.27623078465695,130.44326397698023 85.47277020686306,130.643290867225 84.52658965805313,131.7537695476385 84.52658965805313,132.1538113592651 85.57320277910912,133.0711358010085 85.93264566914877,133.25046029805162 86.43480853026267,133.1607981347952 86.98983063991182,132.54005540488288 87.31755798085942,132.07794162135542 87.2488409577345,131.6227206298281 85.96436121826991,130.58811112021067 85.48334205659921,130.657085793875 84.53187558287755,131.76066684899706 84.51073188349255,132.3331393453809 84.35744006271125,132.87801634913558 83.89227867557202,133.69187153886378 82.78752038112725,135.133326340012 82.52851006327546,135.33333333333212 79.44152994864271,132.78835347757558 76.02682249309146,129.49829788225907 75.69380922729033,129.07064276687015 75.96867731970269,129.16721039009644 78.57463827263564,125.62856757935879 79.62125139366253,123.54526570991948 79.71111211620155,123.19344074324908 80.3982823472179,122.77262703991073 82.46507896503317,122.07586166403053 83.04653069894994,121.69643064233969 84.14600306854118,120.5098266427267 85.1556147156225,119.06792459784629 86.52995517765521,117.54318592926211 90.25124627473997,120.69609785199646 92.12774959785747,122.44839096813666 93.16907679405995,121.22041285882733 93.48094636041787,120.7650870019279 93.43865896156058,120.6685021637204" stroke="#4dd2ff" stroke-linecap="round" stroke-linejoin="round" stroke-width="0.5"><title>2024-07-06 16.1km</title><desc>1720267100000</desc></polyline><polyline fill="none" points="107.6115367966704,121.25932820839807 109.31487426813692,120.07413990376517 112.04021422192454,134.00001491617877 119.42134326510131,134.4444545834558 122.60090654529631,129.85190195182804 120.67045741109177,114.00002807821147 114.99266583938152,112.07408257806674 109.65554176270962,116.66671580332331 110.90465590823442,131.92596055741888 114.65199834527448,135.18518692918587 119.64845492783934,134.4444545834558 122.71446237666532,128.81487105682027 121.35179239977151,114.5926259572152 114.99266583938152,111.92593277199194 111.01821173960343,115.03707413899247 110.10976508818567,118.59265257255174 111.47243506507948,132.07410743797664 116.24177998537198,134.88889405620284 120.10267825378105,133.85186831699684 122.82801820756868,127.777839100454 122.37379488209262,116.96301400614902 120.10267825378105,112.81483128061518 112.04021422192454,113.11113061010838 109.88265342544764,118.14820595097262 111.13176757097244,132.37040113448165 114.53844251390547,134.740747586824 120.21623408515006,134.29630804958288 122.71446237666532,131.3333728176076 122.26023905072361,117.11116307531483 118.51289661368355,111.92593277199194 115.33333333348855,111.33333333337214 110.67754424596205,114.74077537248377 110.3368767509237,130.1481962982798 111.81310255965218,133.1111349965213 116.58244747947901,135.33333333337214 122.71446237666532,131.48151978489477 122.14668321888894,116.66671580332331 116.46889164811,111.62963309616316 112.60799338016659,112.96298095607199 109.99620925728232,116.518566669547 111.01821173960343,131.48151978489477 113.51644003111869,134.14816149347462 118.39934078231454,135.03704050334636 122.94157403940335,130.74078473087866 121.69245989341289,114.44447652017698 114.99266583938152,111.77778294484597 109.99620925728232,116.96301400614902 111.13176757097244,131.92596055741888 116.24177998537198,135.03704050334636 120.78401324246079,134.14816149347462 123.0551298703067,127.481544060749" stroke="#4dd2ff" stroke-linecap="round" stroke-linejoin="round" stroke-width="0.5"><title>2024-02-29 2.9km</title><desc>1709196138000</desc></polyline><polyline fill="none" points="135.38253442011774,111.33333333337214 144.12632960360497,116.518566669547 143.7856622589752,130.29634343879297 148.3278935230337,135.18518692895304 154.2327941665426,133.85186831641477 156.50390979880467,130.59263765520882 155.59546354599297,115.62967141100671 150.93967649992555,111.62963309616316 146.2838894543238,112.07408257771749 143.21788335079327,115.03707413887605 144.35344116715714,131.62966673041228 149.46345133939758,135.18518692895304 156.049686672166,132.37040113448165 155.70901932707056,115.62967141100671 150.93967649992555,111.92593277222477 143.67210647743195,114.29632706055418 144.12632960360497,130.29634343879297 146.5110010174103,134.29630804911721 152.52945744199678,135.33333333337214 156.16324245370924,132.22225429676473 156.39035401726142,121.70377346512396 153.43790369527414,112.6666815832723 144.92122007487342,113.11113060975913 143.21788335079327,117.70375913381577 145.3754432015121,133.55557505367324 153.09723635064438,135.33333333337214 155.82257510907948,133.11113499605563 156.61746558034793,128.81487105682027 154.6870172927156,114.29632706055418 152.07523431628942,112.22223236132413 145.82966632768512,112.6666815832723 143.3314391328022,117.11116307496559 145.03477585688233,132.81484151654877" stroke="#4dd2ff" stroke-linecap="round" stroke-linejoin="round" stroke-width="0.5"><title>2024-02-26 2.1km</title><desc>1708947688000</desc></polyline><polyline fill="none" points="172.66016584308818,120.90395406086463 169.38724967744201,126.05732753989287 171.64443323994055,132.83029257005546 175.70736365253106,135.33333333331393 182.14033680642024,133.86095716734417 183.26892858743668,116.92847649700707 177.6259696809575,111.33333333331393 171.75729241780937,114.13090880203526 171.0801373491995,129.14933896629373 174.46591269318014,134.15543257299578 178.64170228410512,134.5971455196268 183.49464694410563,131.7996269177529 183.38178776577115,116.7812362856348 178.19026557123289,111.48057434143266 171.3058557054028,115.16159254137892 171.19299652706832,130.03276905854 173.33732091169804,134.00819488067646 176.2716595432721,134.89162070979364 183.15606940956786,132.09410292602843 183.26892858743668,116.92847649700707 182.14033680642024,113.98366818152135 177.06167379021645,111.48057434143266 171.19299652706832,116.48675579886185 171.53157406160608,131.50515082274796 176.1588003654033,134.89162070979364 181.1246042032726,133.71371943224221 183.94608365604654,129.29657736897934 183.15606940956786,115.30883298965637 180.67316749040037,112.06953815789893 176.83595543401316,111.33333333331393 171.75729241780937,114.71987106773304 171.0801373491995,129.59105410944903 175.3687861179933,134.89162070979364 180.2217307779938,134.4499078920344 183.49464694410563,131.50515082274796 183.7203653003089,117.81191731221043 182.5917735188268,114.57263053383213 178.4159839283675,112.06953815789893 173.563039268367,112.95298323623138 171.87015159614384,115.30883298965637 171.3058557054028,131.65238888101885 175.25592693965882,135.0388582725427 182.5917735188268,132.53581677662442 183.15606940956786,117.22295685479185 181.1246042032726,113.39470548508689 177.6259696809575,112.06953815789893 170.9672781713307,115.75055420410354 171.19299652706832,130.91619837575126 173.45018009003252,134.74438312568236 181.3503225594759,133.86095716734417 183.38178776577115,130.62172202236252 183.49464694410563,121.93463086686097" stroke="#4dd2ff" stroke-linecap="round" stroke-linejoin="round" stroke-width="0.5"><title>2024-01-18 3.0km</title><desc>1705581243000</desc></polyline><polyline fill="none" points="20.49443837767467,140.96299372753128 17.314876027870923,142.14818879205268 17.201320229563862,158.14818645152263 19.926659386605024,161.11112125008367 24.468891315162182,161.85185359616298 29.01112324371934,158.88892096397467 29.01112324371934,142.88893500319682 26.96711887558922,139.18519853102043 23.446889131329954,138.0 18.677545606624335,139.9259469085373 16.633541238494217,143.18523333594203 16.86065283510834,156.81486296490766 22.084219552576542,161.55556072248146 28.784011647105217,158.59262722358108 28.897567445412278,142.74078580387868 24.12822392070666,138.2962997625582 19.813103588763624,139.33334825013299 16.97420863294974,142.88893500319682 17.428431825712323,157.40745139797218 19.813103588763624,161.11112125008367 23.219777535181493,162.0 29.01112324371934,158.44448032137007 29.351790638640523,143.48153158219066 25.26378190331161,138.44444961159024 20.153770982753485,139.03704879048746 17.541987624019384,141.85189015592914 17.428431825712323,157.40745139797218 22.76555434241891,162.0 29.465346436481923,158.88892096397467 28.670455849263817,142.74078580387868 24.014668121933937,139.03704879048746 17.428431825712323,141.70374080515467 17.541987624019384,158.14818645152263 23.560444929637015,162.0 29.01112324371934,159.18521461705677 29.12467904156074,143.03708418062888 24.809558710083365,138.44444961159024 19.699547790456563,139.18519853102043 16.86065283510834,143.18523333594203 17.087764431722462,156.22227418527473 21.74355215812102,161.55556072248146 28.784011647105217,159.33336141100153 29.12467904156074,142.74078580387868 23.787556525785476,138.0 17.201320229563862,142.2963380778674 17.428431825712323,156.66671580262482 19.24532459722832,159.92594837083016 23.10622173640877,161.25926776288543 27.76200946373865,160.6666815824574 30.03312542801723,157.25930432230234 28.556900050491095,141.40744203934446 25.150226104538888,138.44444961159024 20.380882579367608,138.59259943873622 17.428431825712323,141.40744203934446 17.201320229563862,153.70376800536178" stroke="#4dd2ff" stroke-linecap="round" stroke-linejoin="round" stroke-width="0.5"><title>2024-01-17 3.3km</title><desc>1705483266000</desc></polyline><polyline fill="none" points="48.33077826583758,151.73591735283844 45.66971500264481,154.00006200524513 50.18195270933211,159.88681485748384 55.61977763893083,161.54717497667298 61.05760256713256,159.5849309124751 61.86749138683081,145.09439772111364 58.743634512182325,139.3585054660216 54.00000000046566,138.3018902578624 49.4877622933127,141.16984330583364 49.14066708507016,156.11325919954106 53.4215079867281,160.94340796931647 61.63609458087012,159.13210482965223 61.4046977753751,144.18873264198191 57.12385687418282,138.15094513993245 48.677873474080116,142.67928907775786 48.79357187682763,154.3019475832116 52.14882555650547,161.39623325772118 60.71050735935569,160.33964060922153 61.86749138683081,144.7925094497623 58.97503131860867,138.9056705093244 52.61161916749552,139.05661551700905 48.677873474080116,142.8302335337503 49.14066708507016,157.47174082533456 54.57849201373756,162.0 61.28899937309325,160.1886987137841 61.751792983617634,143.2830667681992 57.58665048517287,138.0 52.26452395925298,138.75472547998652 49.834857501555234,141.77362187986728 49.256365487817675,157.47174082533456 50.529047917574644,160.1886987137841 56.08257124945521,162.0 62.330284997820854,157.7736253888579" stroke="#4dd2ff" stroke-linecap="round" stroke-linejoin="round" stroke-width="0.5"><title>2024-01-13 2.0km</title><desc>1705132259000</desc></polyline><polyline fill="none" points="77.5956818186678,144.90005751594435 78.8604108155705,157.9500393854687 80.9299673573114,160.95001174649224 85.29903116589412,162.0 91.62267615180463,157.20004492392763 91.16277469787747,142.3500416672323 85.41400652891025,138.3000034657307 79.43528763251379,141.7500370168127 79.43528763251379,157.65004166623112 84.26425289502367,161.4000068437308 91.7376515143551,157.80004053679295 91.50770078785717,142.3500416672323 87.7135137966834,138.6000068440335 83.45942535158247,138.45000516576692 78.74543545208871,143.55004991486203 79.09036154253408,156.6000489599537 81.96474562725052,161.5500051653944 84.49420362152159,162.0 90.12799642747268,160.05002095911186 91.62267615180463,156.90004698571283 91.04779933486134,141.90003821253777 85.29903116589412,138.3000034657307 82.1946963542141,138.45000516576692 79.09036154253408,142.20004053774755 79.32031226949766,157.9500393854687 85.06908043893054,162.0 91.50770078785717,157.3500438601477 90.70287324441597,141.4500345599372 85.18405580194667,138.0 79.09036154253408,142.05003938591108 80.01016444945708,156.7500479836017 85.06908043893054,161.10001013393048" stroke="#4dd2ff" stroke-linecap="round" stroke-linejoin="round" stroke-width="0.5"><title>2024-01-11 2.0km</title><desc>1704963338000</desc></polyline><polyline fill="none" points="112.74027801351622,143.8724013985484 111.07680856343359,146.6809272331302 111.27251085126773,158.04259862197796 115.28440776094794,161.87234217108926 119.49200695892796,161.36171066894894 121.64473213022575,158.42557373282034 120.95977412117645,144.51070351823 118.12209094176069,141.57450990349753 112.05532000446692,141.95749223983148 108.6305299596861,139.14895120816072 109.6090414011851,138.0 109.4133391128853,141.44684908760246 112.64242686936632,141.95749223983148 110.97895741881803,144.63836388586788 111.37036199541762,156.76601370499702 113.32738487888128,160.97873684577644 117.82853750884533,162.0 121.15547640947625,160.08513060532277 121.84043441852555,146.5532671637484 117.53498407686129,141.57450990349753 114.11019403161481,142.0851529808715 111.17465970758349,145.40432570129633 111.46821313956752,158.04259862197796 115.38225890509784,161.74468432366848 118.90490009449422,161.6170264573302 121.54688098607585,158.42557373282034 121.05762526532635,144.3830431314418 115.7736634821631,141.19152739993297 111.66391542833298,145.14900517085334 111.95746886031702,158.80854867608286 115.9693657704629,161.6170264573302 119.98126268014312,160.72342087037396 122.03613670682535,157.6596233426826 121.35117869777605,144.2553827263182 118.70919780572876,141.19152739993297 116.16506805829704,140.9362056373502 111.66391542833298,144.51070351823 111.76176657201722,157.53196487919195 115.7736634821631,161.2340527464985 119.49200695892796,160.85107886767946 121.84043441852555,157.78728178754682 121.54688098607585,144.63836388586788 120.27481611259282,141.82983147969935 117.33928178809583,140.80854472809006 111.46821313956752,144.12772230233531 111.37036199541762,157.2766478957492 113.81664059916511,160.3404467672808" stroke="#4dd2ff" stroke-linecap="round" stroke-linejoin="round" stroke-width="0.5"><title>2024-01-09 2.6km</title><desc>1704792913000</desc></polyline><polyline fill="none" points="136.74376367684454,146.5063925558934 141.2845588545315,143.31650351092685 142.21600401913747,159.1139533831738 146.17464596871287,161.6962059964426 150.48257985478267,161.54430896171834 154.2083605127409,158.6582610787591 154.79051374085248,154.70891940279398 154.44122180435807,143.16460378828924 151.18116372823715,138.60760177869815 145.5924927406013,138.30380093341228 142.21600401913747,141.0380053386325 142.21600401913747,157.13928528816905 147.22252177866176,162.0 153.85906857671216,160.481029095361 154.6740830950439,144.0760017912835 151.18116372823715,138.60760177869815 145.5924927406013,138.60760177869815 142.56529595563188,141.79750528465956 142.56529595563188,156.37979655980598 145.94178467802703,161.08861772390082 151.9961782475002,161.24051482521463 154.6740830950439,159.1139533831738 154.6740830950439,143.6203028896125 151.9961782475002,139.06330287910532 147.33895242400467,138.0 144.7774782218039,138.30380093341228 142.33243466494605,141.94940520753153 142.44886531028897,158.05067102937028 148.03753629792482,161.54430896171834 155.02337503200397,158.81015853595454 154.79051374085248,144.37980094749946 150.83187179174274,138.30380093341228 145.8253540317528,138.1519004778238 141.98314272798598,142.86080427630804 142.6817266009748,158.81015853595454 148.61968952557072,161.84810300928075 155.02337503200397,158.20256857492495 154.2083605127409,141.3418053833302 150.3661492089741,138.30380093341228 145.8253540317528,138.45570136688184 142.21600401913747,141.49370537279174 142.21600401913747,156.8354898634134 146.75679919635877,161.3924119048752 154.79051374085248,158.6582610787591 155.25623632315546,144.8354995161062 151.9961782475002,138.45570136688184 144.7774782218039,138.9114025348099 142.21600401913747,144.8354995161062 143.26387982908636,160.02533739164937 151.53045566519722,161.08861772390082" stroke="#4dd2ff" stroke-linecap="round" stroke-linejoin="round" stroke-width="0.5"><title>2024-01-08 3.0km</title><desc>1704701613000</desc></polyline><polyline fill="none" points="170.1050215922296,142.43316250981297 170.8080549929291,158.7898408395704 177.0181833668612,161.54140643787105 182.4081061067991,157.26119015563745 181.82224493985996,142.12742776831146 177.604044534266,138.4586038897978 170.92522722575814,141.0573554674629 170.339366058819,156.64972925605252 174.79191093100235,161.69427098077722 179.59597250353545,161.38854187203106 182.6424505733885,157.87265069724526 181.939417172689,143.04463172599208 177.48687230050564,138.3057359488448 173.03432742878795,138.91720757936127 170.4565382921137,141.66882548783906 170.2221938255243,157.71978559542913 175.4949443321675,161.84713550133165 179.127283569891,161.69427098077722 182.8767950409092,158.1783808345208 182.52527833962813,143.5032334025018 177.0181833668612,138.0 172.6828107284382,138.91720757936127 170.1050215922296,142.2802951503545 170.2221938255243,157.10832496441435 174.4403942306526,161.69427098077722 179.47880027024075,161.54140643787105 182.52527833962813,158.7898408395704 182.8767950409092,145.18477116385475 178.3070779349655,138.15286798565648 172.6828107284382,139.07007543067448 170.339366058819,141.51595801615622 171.15957169327885,160.1656245442573 178.89293910283595,161.69427098077722 183.34548397455364,156.80259451456368 181.3535560052842,140.75162032304797 174.20604976359755,138.15286798565648 169.87067712517455,142.73889716283884 170.5737105254084,158.94270578527357 176.66666666651145,162.0 182.9939672742039,157.56692047137767 181.3535560052842,140.9044879062567 174.79191093100235,138.15286798565648 169.98784935846925,144.72617022471968 170.339366058819,158.02551577694248 173.3858441291377,161.69427098077722 177.604044534266,162.0 180.88486707163975,161.0828126743436 183.462656208314,156.03826799918897" stroke="#4dd2ff" stroke-linecap="round" stroke-linejoin="round" stroke-width="0.5"><title>2023-12-29 2.9km</title><desc>1703839119000</desc></polyline><polyline fill="none" points="18.647549392655492,167.23273104557302 16.912073859013617,171.15728775656316 18.531851023435593,186.40253956220113 25.47375315753743,187.91195818327833 29.060402593575418,183.08181082631927 28.481910749338567,167.83650997281075 26.16794337099418,165.27044709422626 21.42431024555117,164.66666666662786 17.259168965741992,169.0440667665098 18.300454285927117,186.7044234634377 25.820848264265805,187.91195818327833 29.291799331083894,183.98746517766267 28.366212379653007,167.38367581064813 21.42431024555117,164.66666666662786 17.37486733449623,168.8931222447427 17.490565703250468,184.7421765299514 22.92838904215023,188.66666666662786 29.63889443827793,184.44029205478728 28.366212379653007,167.5346205534879 20.845818401314318,164.66666666662786 17.259168965741992,171.00634354376234 17.37486733449623,184.44029205478728 18.878946130163968,187.15724914846942 23.738277624361217,188.36478333931882 29.523196069523692,184.59123430331238 29.176100962795317,168.44028854637872 22.11850045947358,165.11950202053413 16.912073859013617,170.8553993088426 17.721962441690266,185.49688733031508 24.548166206572205,188.66666666662786 29.176100962795317,183.98746517766267 29.291799331083894,169.0440667665098 26.16794337099418,165.72328218398616 21.887103721965104,165.5723371760687 17.027772228233516,170.8553993088426 17.837660809978843,186.10065557342023 25.58945152675733,188.36478333931882 29.870291176252067,182.7799258659361 29.176100962795317,168.1383993034251 25.820848264265805,165.42139214649796 21.192913508042693,165.11950202053413 16.79637549025938,171.6101202632999 17.953359179198742,186.25159757887013 25.358054789248854,188.5157250140328 29.754592807032168,183.38369569834322" stroke="#4dd2ff" stroke-linecap="round" stroke-linejoin="round" stroke-width="0.5"><title>2023-12-28 2.9km</title><desc>1703769423000</desc></polyline><polyline fill="none" points="49.79843362281099,170.29634733963758 46.732425726018846,168.9630047439132 48.435763446148485,183.77782389137428 52.52377397567034,187.77778791694436 58.542233921121806,186.2963216009084 61.040462577715516,183.03708807949442 60.9269067295827,172.07413473643828 57.17956374492496,165.55556569516193 52.41021812753752,165.2592661055969 48.322207598015666,167.77780985319987 48.322207598015666,183.92597098858096 52.06955058360472,187.6296413828386 56.15756111219525,188.0740809206618 60.69979503378272,183.92597098858096 60.13201579358429,169.8519000026863 56.15756111219525,165.40741591108963 49.911989470012486,165.55556569516193 47.86798420641571,167.77780985319987 48.09509590221569,182.44449903990608 51.38821549527347,187.77778791694436 56.72534035239369,187.9259344296297 59.450680705253035,185.55558763060253 60.01845994545147,170.59264545573387 56.952452049124986,165.2592661055969 49.344210230279714,166.00001491652802 47.30020496575162,170.29634733963758 49.57132192654535,186.44446833024267 55.70333772012964,188.22222738945857 60.81335088191554,182.44449903990608 59.11001316132024,167.03706234169658 54.90844678413123,164.66666666662786 49.57132192654535,165.85186519753188 47.527316662017256,171.18524142820388 49.911989470012486,186.74076172313653 54.56777923973277,188.66666666662786 57.747342984657735,187.77778791694436 60.5862391856499,183.92597098858096 61.267574273981154,177.25933015812188" stroke="#4dd2ff" stroke-linecap="round" stroke-linejoin="round" stroke-width="0.5"><title>2023-11-08 2.1km</title><desc>1699431646000</desc></polyline><polyline fill="none" points="80.03977897809818,166.703052787052 77.69846231583506,171.9394550944562 78.59039247268811,185.17579356615897 84.94539484148845,188.23030819935957 90.29697578214109,186.0485129894805 91.41188847878948,183.72125949180918 90.29697578214109,168.01215594867244 87.28671150328591,165.10303547256626 82.827060718555,164.81212295684963 78.4789012032561,169.46671299549052 78.70188374212012,184.44852679490577 85.05688611092046,188.23030819935957 91.07741467002779,184.01216647651745 90.7429408612661,168.8848904320621 88.1786416596733,165.39394790277584 84.05346468416974,164.66666666668607 78.59039247268811,170.48490166320698 78.70188374212012,184.59398019179935 84.61092103179544,188.37576104298932 90.96592340013012,184.15761993738124 90.7429408612661,169.32125738664763 87.95565912080929,165.53940408618655 84.83390357112512,165.10303547256626 81.37767421267927,165.83031638915418 78.36740993382409,170.19399072165834 78.81337501201779,183.8667129947571 81.15469167381525,187.50304366118507 85.94881626730785,188.08485533419298 89.51653689565137,186.7757785913418 91.6348710176535,182.26672328996938 90.7429408612661,168.59397902252385 84.16495595360175,164.66666666668607 81.37767421267927,165.83031638915418 78.4789012032561,171.3576339770225 79.03635755134746,184.01216647651745 81.15469167381525,187.50304366118507 85.72583372844383,188.66666666668607 91.30039720889181,183.575805967208 90.7429408612661,169.32125738664763 85.61434245854616,165.10303547256626 78.9248662814498,169.17580175644252 78.9248662814498,185.32124685682356 84.4994297628291,188.66666666668607 90.96592340013012,184.88488692144165 90.96592340013012,169.61216858337866 88.73609800823033,165.83031638915418 84.05346468416974,164.66666666668607 78.81337501201779,169.17580175644252 79.14784882077947,183.8667129947571" stroke="#4dd2ff" stroke-linecap="round" stroke-linejoin="round" stroke-width="0.5"><title>2023-10-27 2.9km</title><desc>1698413800000</desc></polyline><polyline fill="none" points="112.21054842602462,166.0000149164116 108.5767623516731,169.4074524709722 110.39365538908169,186.1481748498045 118.001894982066,187.77778791706078 121.74923687102273,182.14820438995957 120.95434616692364,167.77780985296704 117.32056009303778,164.66666666662786 112.66477168537676,164.66666666662786 109.82587631465867,166.592613575398 108.91742979642004,171.7778370535234 110.28009957401082,186.0000280776294 117.66122753778473,188.37037383706775 120.38656709296629,187.18520165001974 122.08990431530401,182.29635172581766 120.5001229075715,167.77780985296704 113.34610657440498,165.55556569504552 109.03098561102524,170.14819824881852 109.93943212926388,185.5555876303697 116.63922520400956,188.66666666662786 121.74923687102273,183.9259709888138 120.6136787221767,168.07410870597232 114.14099727803841,165.1111162782181 109.03098561102524,169.4074524709722 110.05298794433475,185.7037344679702 114.14099727803841,188.518520262558 118.11545079667121,188.0740809199633 121.74923687102273,183.33338246925268 121.06790198199451,168.81485545891337 117.54767172271386,165.25926610524766 111.52921353653073,165.85186519788112 108.6903181662783,170.7407944810111 111.07499027810991,187.18520165001974 116.41211357386783,188.37037383706775 120.8407903527841,185.7037344679702 121.74923687102273,174.5926615417702 121.522125240881,169.85190000280272 118.34256242588162,165.40741591062397 113.5732182036154,165.25926610524766 109.37165305530652,168.07410870597232 109.25809724070132,183.62967677228153 111.52921353653073,187.62964138260577 117.88833916699514,188.37037383706775 120.95434616692364,185.5555876303697 121.40856942627579,170.29634733917192 117.54767172271386,165.40741591062397 110.28009957401082,166.74076318577863 109.14454142609611,182.59264633234125 112.21054842602462,187.92593442928046" stroke="#4dd2ff" stroke-linecap="round" stroke-linejoin="round" stroke-width="0.5"><title>2023-10-21 2.9km</title><desc>1697891041000</desc></polyline><polyline fill="none" points="139.61549784103408,164.66666666668607 140.04834544518963,183.1608370525646 143.6193381776102,188.3843171938206 151.51880695018917,186.40786857239436 151.51880695018917,169.6078919125721 149.3545689303428,166.7843377260724 145.35072859423235,165.93726985988906 140.04834544518963,169.7490694053704 140.8058287515305,186.12551843898837 145.02609289065003,188.52549194043968 149.46278083184734,187.6784431503038 151.62701885122806,184.85494181630202 151.9516545543447,171.72555213305168 147.40675471257418,166.0784478894202 140.37298114830628,168.902004140371 139.94013354415074,183.01966152107343 141.99615966295823,187.3960933884955 147.2985428115353,188.66666666668607 150.76132364338264,186.97256859153276 152.0598664553836,172.85496901796432 151.51880695018917,169.1843593112426 148.38066182192415,166.50198185344925 141.13046445464715,168.4784712292021 140.1565573462285,185.27846754319035 144.4850333854556,188.66666666668607 151.51880695018917,186.26669351611054 151.9516545543447,170.17260175931733 149.67920463345945,167.20787138078595 145.67536429688334,166.50198185344925 140.48119304934517,169.89024687738856 140.26476924680173,183.8667143988423 143.51112627703696,188.3843171938206 148.59708562353626,188.24314242665423 152.16807835642248,184.85494181630202 152.38450215850025,172.99614603549708 151.41059504961595,169.1843593112426 147.94781421730295,166.6431598001509 144.0521857822314,166.7843377260724 139.94013354415074,170.17260175931733 140.5894049499184,184.99611707933946 143.94397388072684,188.3843171938206 148.48887372249737,188.10196763835847 152.0598664553836,184.5725912291091 151.84344265284017,170.3137791690533 147.40675471257418,166.36080388590926 141.13046445464715,168.3372935510124 139.7237097416073,173.98438458138844 141.56331205926836,187.25491847720696 144.70145718799904,188.66666666668607 150.43668794026598,187.25491847720696 151.9516545543447,175.39615217701066" stroke="#4dd2ff" stroke-linecap="round" stroke-linejoin="round" stroke-width="0.5"><title>2023-10-16 3.1km</title><desc>1697460359000</desc></polyline><polyline fill="none" points="169.38725393498316,168.05320440145442 171.19299972895533,184.3967698525521 176.4973779981956,188.66666666668607 183.8332202853635,184.10229354311014 182.93034738861024,168.49492587486748 178.64170112786815,164.66666666668607 173.11160463420674,165.5501123914146 170.8544223923236,167.90596386708785 171.19299972895533,184.10229354311014 176.72309622261673,188.51942914671963 180.67316514626145,187.63600357616087 183.72036117361858,182.77714908326743 182.81748827639967,168.34768540534424 176.72309622261673,164.8139076748048 171.19299972895533,168.05320440145442 171.30585884070024,184.24953170865774 174.91735042864457,188.2249540425837 179.43171491334215,188.07771645847242 183.94607939803973,183.95505535573466 183.49464294919744,170.5562901882222 178.19026467949152,164.8139076748048 172.88588641025126,166.13907577720238 171.08014061674476,168.78940674941987 171.30585884070024,184.24953170865774 173.45018197130412,187.48876590532018 177.85168734379113,188.66666666668607 183.607502061408,184.24953170865774 182.1403336036019,166.87527952471282" stroke="#4dd2ff" stroke-linecap="round" stroke-linejoin="round" stroke-width="0.5"><title>2023-10-12 1.8km</title><desc>1697101056000</desc></polyline><polyline fill="none" points="16.40571093512699,199.23212873155717 18.26860099239275,213.20677344559226 25.953022475820035,214.57384815905243 30.02809447515756,209.4093342468841 28.39806567551568,194.37133867188822 20.597213563509285,191.7890347004868 16.87143344990909,196.34603737702128 17.919309106189758,212.5991841070354 25.138008076697588,215.02953933016397 29.67880258942023,210.9283115923172 29.09664944699034,196.49793712212704 24.43942430522293,192.09283550130203 20.713644191622734,192.09283550130203 17.337155963294208,195.28273854090367 17.10429470660165,209.86502768355422 20.247921677306294,214.87764229555614 28.16520441835746,213.81436242966447 30.260955731850117,209.4093342468841 29.3295107036829,195.73843817529269 25.953022475820035,192.24473586818203 20.713644191622734,191.94093511172105 17.10429470660165,195.89033800875768 17.45358659233898,211.23210679448675 20.131491048727185,214.57384815905243 24.0901324194856,215.02953933016397 29.44594133272767,211.83969693363179 29.91166384704411,209.10553851071745 28.6309269326739,194.21943861618638 22.46010361984372,191.63713426725008 16.98786407802254,196.04223782056943 17.57001722138375,211.83969693363179 22.92582613416016,215.33333333337214 28.28163504693657,213.66246521682478 29.795233218465,210.7764139578212 29.09664944699034,196.19413761014584 22.80939550558105,191.33333333337214 16.87143344990909,196.34603737702128 18.385031620506197,213.05487614450976 25.254438705276698,214.7257452381309 28.98021881841123,212.4472867170116 29.91166384704411,208.49794677307364 28.74735756125301,194.67513871728443 24.78871619096026,191.48523381154519 19.432907277718186,192.24473586818203 16.87143344990909,197.10553587926552 18.15217036381364,212.75108147517312 22.11081173410639,215.33333333337214 26.535175618715584,215.02953933016397 29.91166384704411,206.67516942694783" stroke="#4dd2ff" stroke-linecap="round" stroke-linejoin="round" stroke-width="0.5"><title>2023-10-10 2.9km</title><desc>1696942258000</desc></polyline><polyline fill="none" points="53.14917173277354,212.71344177830906 54.83477490366204,211.72835014233715 58.5109951524646,212.1894577100029 59.08891623967793,212.8391976691346 58.2701946994639,213.99195485087694 58.76784896902973,215.33333333332848 61.898254857747816,214.28538246850076 62.73302976146806,213.17454617092153 63.63201811921317,210.49173614618485 63.792551754566375,203.86833346930507 62.05878849304281,200.82901124010095 62.46012258139672,199.71807044728484 64.16177911584964,198.25077693186176 64.45073965936899,197.39135516890383 64.27415266056778,196.343272860031 63.2467373944819,194.98075437746593 63.08620375912869,193.70207138081605 57.67622024886077,191.33333333332848 50.21140620642109,192.23471615188464 45.90910477982834,191.5429577515024 43.54926034063101,192.19279149560316" stroke="#4dd2ff" stroke-linecap="round" stroke-linejoin="round" stroke-width="0.5"><title>2023-10-07 3.0km</title><desc>1696669067000</desc></polyline><polyline fill="none" points="80.15335300425068,192.52589325862937 77.86813089670613,196.10356466297526 78.55369752878323,208.77438323397655 83.12414174387231,215.03520015301183 87.58032485330477,214.43893353187013 91.46520243631676,211.0103936905507 91.00815801508725,196.10356466297526 85.18084164103493,191.63147344521713 81.18170295236632,192.52589325862937 78.21091421274468,196.5507727060467 79.12500305566937,211.6066623175284 83.23840284952894,215.33333333337214 87.00901932641864,215.03520015301183 91.23668022546917,211.0103936905507 90.77963580330834,196.5507727060467 86.20919158961624,192.07868344988674 79.12500305566937,194.01659120304976 78.78221973963082,211.0103936905507 83.58118616510183,215.33333333337214 87.46606374857947,215.03520015301183 91.00815801508725,211.1594608798623 90.43685248773545,195.5072869679425 85.40936385141686,191.48240340023767 78.09665310755372,195.20914798940066 79.23926416132599,211.4575951937586 85.0665805353783,214.73706688627135 91.12241912027821,211.0103936905507 90.55111359292641,195.35821748967282 84.49527500849217,191.33333333337214 78.21091421274468,194.91100892378017 78.66795863443986,210.86132647958584 82.89561953349039,214.73706688627135 88.83719701273367,213.84266656136606 90.89389690896496,210.56319199164864 90.77963580330834,196.25263403262943 86.20919158961624,191.63147344521713 78.55369752878323,194.76193935819902 79.0107419504784,211.6066623175284 84.26675279764459,215.33333333337214 89.75128585565835,213.3954661055468 91.12241912027821,210.7122592467349 90.55111359292641,195.5072869679425 85.2951027462259,191.48240340023767 81.41022516367957,191.9296134703327 78.3251753184013,195.5072869679425 78.78221973963082,211.0103936905507 82.32431400660425,214.88613353052642" stroke="#4dd2ff" stroke-linecap="round" stroke-linejoin="round" stroke-width="0.5"><title>2023-10-06 2.9km</title><desc>1696597953000</desc></polyline><polyline fill="none" points="109.72105788423505,192.98363798844366 109.64021956088254,192.8449715670622 109.32584830339329,192.51490063074107 109.2060878243501,191.78832521003096 109.17315369260905,191.72777547379246 109.20309381237166,191.6750383830422 109.3243512974077,191.657459306507 109.68512974051555,191.65941253837354 109.66716566865944,191.53635837263846 109.37974051896163,191.5734700658577 108.13273453094007,191.57542331001332 106.40968063872424,191.64769314287696 106.21207584829972,191.6750383830422 105.90518962076021,191.78246557013426 104.80489021955873,192.3098228631152 104.35878243512707,192.48365088857736 104.14471057884657,192.64380504420023 104.31836327345081,193.66718381299324 104.4321357285371,195.71956406225218 104.47255489021336,198.1835660490624 104.44710578842205,198.45883440821672 104.46506986028544,199.92878859224766 104.39021956087527,200.09275752143822 104.46506986028544,200.2996678231366 104.48153692614869,202.20855706424118 104.45459081836452,203.0262902201248 104.19261477045802,203.12581995830624 104.05638722555159,203.2838950783862 103.34980039919901,203.27218587432526 103.33333333333576,203.2956042721944 103.40968063872424,203.30731345574713 103.40219560878904,203.35219856435288 103.34830339321343,203.365859219678 103.36027944111993,203.38537441734843 103.74051896208402,203.37366530216696 104.04590818363795,203.39708352228263 104.21057884231413,203.59028227317413 104.42015968063788,203.64102087620358 104.47255489021336,203.68005043981793 104.48303393213428,204.96601084294525 104.37824351297604,205.14357684121842 104.31836327345081,205.43040924246907 104.32584830339329,205.5299210870553 104.46956087824219,205.53577470191613 104.49500998004078,205.68016305729543 104.48453093811986,207.48488598445692 104.39770459082501,207.65656585926536 104.39321357285371,207.80288219514114 104.34530938124226,207.86531001133608 104.25399201596883,207.91603239745928 104.37674650698318,207.85165395143576 104.45908183632855,207.97455798860847 104.462075848307,208.07210007150388 104.53393213573145,208.2125594213112 104.60129740519187,208.71976146154975 104.72405189620622,210.23345013987546 104.69411177645088,210.63525110275987 104.61477045908396,210.80103924579726 104.39770459082501,211.0760479885248 104.41267465070268,211.2691358560478 104.63273453094007,211.39200850290308 104.76297405189689,211.52463168100894 104.85279441117746,211.71576277263102 104.95608782435738,212.1292206920507 105.12075848303357,212.49976174689164 105.462075848307,213.01070153242017 106.280938123753,214.14757007615208 106.57884231536445,214.44980875808778 106.52495009980339,214.4069107800824 106.48902195609116,214.41666033260844 107.04141716567392,214.70134413541655 107.30339321357314,214.77543892675112 107.58483033932134,214.8066366109215 108.97554890219908,214.82223542574866 109.51596806387533,214.79688734243337 109.63572854291851,214.88073081945095 109.78243512974586,215.11470983819072 109.91267465070268,215.1303082940285 109.99650698602636,214.93727612371913 110.13572854291851,214.72474253488326 110.46357285429258,214.4576083756774 113.18363273452997,213.47287071950814 113.27644710579625,213.445570029613 113.29740518962353,213.4943212225062 113.2554890219617,213.43191966378436 113.20758483034297,213.5216218129599 113.23602794411272,213.4982213102603 113.25249500997597,213.51577169112443 113.26596806386806,213.4416699265139 113.31686626746523,213.51577169112443 113.29740518962353,213.44752008073647 113.34830339321343,213.41631922864326 113.88123752495449,213.26031387716193 114.51596806386806,213.23106267131516 116.19111776447244,213.25446364110303 118.34381237525668,213.22911258865406 118.462075848307,213.25446364110303 119.2495009980048,213.23106267131516 120.01896207585378,213.2583637987609 121.14471057884657,213.22521242247603 121.52345309381053,213.1004065046991 122.1132734530911,212.99510060630382 123.54590818363067,212.876142946654 124.69860279441491,212.89564427479672 124.97554890219908,212.876142946654 125.27495009980339,212.78838661837835 125.59680638723512,212.62262309495418 125.90369261477463,212.36714823242983 125.86177644710551,212.38470009656157 125.80039920160198,212.34374571111402 125.73453093811986,212.40810254625922 125.80638722555159,212.33984528691508 125.8947105788393,212.37689927089377 125.95009980040777,212.34764613417246 126.14770459081774,212.33594486157472 126.36327345309837,212.0921660222839 126.38273453094007,211.85618387588875 126.75698602794728,211.48757533709795 126.99650698603364,211.2086742981719 127.08483033932862,211.01753596342405 127.13273453094007,210.80689055449238 127.20908183632855,204.31816764615996 127.23902195609116,204.12888223286154 127.23752495010558,203.6683415826974 127.3123752495012,203.4692894427617 127.33333333333576,203.22730049709298 127.32884231536445,202.92871132613254 127.26447105788975,202.74135785318413 127.26746506986092,202.26710764002382 127.20758483034297,200.9867432050669 127.23752495010558,198.84732407505726" stroke="#ff0000" stroke-linecap="round" stroke-linejoin="round" stroke-width="0.5"><title>2023-09-14 39.1km</title><desc>1694696482000</desc></polyline><polyline fill="none" points="145.72946993121877,191.33333333331393 139.45317233074456,197.40397794172168 140.2106565241702,209.40397706319345 142.807745186612,213.92158514336916 148.21834656549618,214.3451098173391 152.54682766925544,210.5333810650045 151.7893434758298,195.70984840299934 148.00192251056433,191.75686791707994 143.45701735187322,192.46275847632205 139.99423246923834,196.27455857931636 140.5352926068008,211.9451342097018 146.05410601384938,215.33333333331393 152.43861564202234,210.81573185918387 151.7893434758298,196.69809099519625 148.97583075938746,193.02747055265354 144.32271357253194,192.46275847632205 139.45317233074456,197.40397794172168 140.4270805795677,210.10985471931053 145.62125790352002,214.76863430504454 149.94973900727928,213.78041021106765 152.00576753169298,211.2392578952131 151.57291942089796,195.70984840299934 148.3265585936606,192.3215804058127 143.34880532417446,192.60393652674975 140.10244449647143,195.56867080699885 140.31886855186895,211.38043319957796 143.67344140727073,214.3451098173391 147.67728642793372,214.76863430504454 152.11397955892608,209.68632818758488 152.11397955892608,194.72160479874583" stroke="#4dd2ff" stroke-linecap="round" stroke-linejoin="round" stroke-width="0.5"><title>2023-09-11 1.8km</title><desc>1694438011000</desc></polyline><polyline fill="none" points="176.88584474893287,204.8703300805355 180.77625570772216,201.79639949960983 186.69406392681412,203.94100426902878 185.92694063927047,207.37235233010142 171.73515981738456,208.23018558183685 169.87214611889794,207.08640757823014 167.35159817361273,208.01572741006385 166.20091324229725,207.01492136425804 166.03652968024835,204.36992409385857 174.58447488606907,205.22776261469699 181.10502283112146,202.86870306055062 186.58447488583624,203.51208406797377 186.420091324253,207.5153246432892 171.4611872145906,207.6582969146839 168.50228310516104,205.72816772310762 167.57077625603415,207.01492136425804 165.8173515982926,206.51451757297036 165.76255707768723,204.2984374826774 173.8721461186651,204.79884354243404 182.420091324253,202.72572938830126 187.02283105021343,203.72654421551852 185.7625570774544,207.5153246432892 174.25570776266977,207.3008661576896 168.44748858455569,208.30167161824647 165.48858447512612,206.51451757297036 165.598173516104,204.441410694737 178.31050228327513,204.15546422862099 184.1187214613892,202.79721622957732 186.96803652960807,203.79803091066424 185.98173515987583,207.44383849197766 171.57077625580132,207.6582969146839 168.06392694078386,208.51612966458197 166.20091324229725,207.58681078412337 164.66666666674428,205.01330312545178 165.1050228313543,204.2984374826774 169.54337899549864,204.58438386535272 175.29680365300737,203.44059733106405 179.84474885836244,204.22695086078602 186.36529680341482,203.44059733106405 186.36529680341482,197.86459965186077 188.66666666674428,198.00757474586135 186.03652968024835,197.5786493383057 185.65296803647652,207.37235233010142 174.14611872145906,207.1578937819868 167.2968036532402,209.08801732838037 165.43378995452076,205.51370845356723 165.76255707768723,204.6558704347699 175.07762557081878,203.51208406797377 180.0091324201785,204.2984374826774 183.4611872145906,203.5835707942024 186.63926940620877,204.36992409385857 186.20091324183159,207.80126914402354 171.4611872145906,207.5153246432892 170.7488584476523,208.51612966458197 167.1872146120295,209.08801732838037 166.1461187216919,208.15869953503716 165.76255707768723,204.36992409385857 173.48858447512612,202.3682950248185 176.61187214637175,203.44059733106405 179.84474885836244,203.2261370580527" stroke="#4dd2ff" stroke-linecap="round" stroke-linejoin="round" stroke-width="0.5"><title>2023-08-30 4.9km</title><desc>1693396264000</desc></polyline><polyline fill="none" points="14.64948551543057,219.78883936454076 17.620275558438152,222.91930069949012 19.56271520163864,237.9751947146142 23.561855643987656,241.55280019761994 31.44587537366897,237.08079138188623 31.56013652961701,220.68325787002686 24.361683732829988,218.14907006686553 18.420103646349162,221.42860602471046 19.67697635665536,238.57146316720173 23.21907217754051,242.0 28.01804070919752,241.70186681998894 31.902919996064156,239.01866427750792 31.902919996064156,223.06837004690897 29.617696885950863,219.1925599251408 25.047250665724277,218.14907006686553 18.762887112796307,223.21743937255815 19.905498668551445,239.1677312705433 22.990549866575748,241.8509334208211 31.788658840116113,237.82612754683942 31.674397685099393,222.77023132995237 29.503435730468482,219.34162981784903 24.932989510707557,218.298140111845 20.591065601445735,219.6397695376072 18.648625957779586,222.77023132995237 19.334192890673876,238.12426186027005 25.16151182120666,241.70186681998894 31.788658840116113,238.72053022566251 31.44587537366897,222.77023132995237 29.731958041433245,219.78883936454076 23.79037795541808,218.298140111845 18.648625957779586,221.7267451341031 19.334192890673876,237.2298586582765 24.932989510707557,241.8509334208211 29.503435730468482,240.95653348905034 31.902919996064156,237.67706035764422 31.103091907221824,221.57767559040803 26.761167998891324,218.0 19.448454046156257,221.13046682823915 19.448454046156257,237.67706035764422 22.076460622716695,241.25466688652523 28.13230186421424,241.55280019761994 31.788658840116113,237.5279931460973 31.674397685099393,224.55906232376583 27.90377955324948,218.5962801371934 19.67697635665536,220.83232754433993 19.219931735191494,236.48452205734793 22.762027555610985,241.1056001986144 28.475085331127048,241.55280019761994 31.44587537366897,239.1677312705433 32.01718115154654,227.24230292765424" stroke="#4dd2ff" stroke-linecap="round" stroke-linejoin="round" stroke-width="0.5"><title>2023-08-25 3.1km</title><desc>1692968645000</desc></polyline><polyline fill="none" points="57.870967741822824,225.8336000883137 57.483870967524126,229.2845722262282 65.6774193549063,229.62125132704386 66.0,234.1663999116863 42.0,234.08223081973847 42.38709677406587,230.04209992603865 56.580645161215216,230.04209992603865 63.677419355139136,228.6112134339055 65.6129032257013,229.45291180099593 65.74193548364565,233.74555432843044 57.6129032257013,233.82972346962197" stroke="#4dd2ff" stroke-linecap="round" stroke-linejoin="round" stroke-width="0.5"><title>2023-08-24 1.1km</title><desc>1692883156000</desc></polyline><polyline fill="none" points="84.96706219320185,242.0 85.03774349350715,241.65420462006296 85.21444674441591,241.79252286307747 84.70200731686782,227.3376100873429 84.27791951474501,224.68624617620662 84.96706219320185,224.17902365011105 84.29558983980678,223.55652104631008 84.52530406590085,221.06648604513612 84.11888658895623,218.0" stroke="#4dd2ff" stroke-linecap="round" stroke-linejoin="round" stroke-width="0.5"><title>2023-08-21 1.2km</title><desc>1692620048000</desc></polyline><polyline fill="none" points="115.83696792379487,233.5774937933893 115.51647318439791,234.26446181035863 115.74539799819468,242.0 115.6194893506472,232.39769010959571 115.33333333337214,230.48608051796327 115.41345701814862,228.30560713204613 114.89837618707679,218.65720020647132 115.18453220435185,218.13442765919172 115.6652743134182,218.0 115.10440851951716,218.0597456481628 114.8296987428912,218.55264591120067 114.8525912243058,221.8385868462501 115.34477957402123,227.90236380085116 115.19597844505915,230.0081725277123 115.50502694369061,231.88992230256554 115.80262920167297,241.9850670930973 115.5508119064616,235.1605001038988" stroke="#4dd2ff" stroke-linecap="round" stroke-linejoin="round" stroke-width="0.5"><title>2023-08-10 4.8km</title><desc>1691669615000</desc></polyline><polyline fill="none" points="147.60427807481028,229.12095943884924 149.72192513383925,226.69308955752058 156.84491978609003,226.69308955752058 157.55080213933252,231.46509989915648 134.70588235277683,232.55344756424893 134.0,228.9535204671556 142.08556149736978,226.10705045738723 147.28342246008106,227.61400693154428 156.97326203226112,227.27912805776577 158.0,230.7953464613529 144.78074866347015,232.38600959675387 135.2192513369955,231.96741446317174 134.0641711228527,231.6325381359784 134.0,230.12559224007418 135.47593582887203,227.69772661919706 142.79144385037944,228.36748368106782 151.8395721926354,226.69308955752058 157.4224598929286,227.19540830887854 157.03743315534666,231.38138076214818 140.54545454564504,232.63716652977746 134.38502673781477,231.88369539985433 134.38502673781477,228.70236191805452 136.1818181821145,227.86516595835565 148.95187165797688,228.5349228240666 150.94117647083476,227.44656751910225 157.61497326218523,227.5302872316097 157.61497326218523,231.46509989915648 143.56149732600898,231.7999763242551 138.94117647060193,233.72551196691347 134.89839572203346,232.2185715798405 134.12834224570543,229.70699545374373 134.96256684488617,228.869800963148 143.36898395745084,228.45120325876633 144.52406417112797,227.36284779472044 149.01604278059676,228.869800963148 157.80748663120903,227.86516595835565 157.61497326218523,231.54881902376655 139.32620320864953,232.4697285866132 134.51336898398586,231.2976616131491 134.4491978609003,228.70236191805452 135.86096256691962,227.69772661919706 149.52941176504828,228.70236191805452 158.0,227.9488856093376 157.48663101601414,231.71625723631587 142.59893048158847,232.2185715798405 140.35294117662124,233.5580743420287 135.4117647060193,232.55344756424893 134.6417112299241,230.46046944858972 135.54010695172474,228.45120325876633 149.2727272727061,229.03723995923065 157.74331550835632,227.78144629462622 157.9358288771473,231.7999763242551 145.48663101624697,231.71625723631587 142.34224598947912,232.2185715798405 141.05882352939807,233.89294954261277" stroke="#4dd2ff" stroke-linecap="round" stroke-linejoin="round" stroke-width="0.5"><title>2023-08-08 4.7km</title><desc>1691498421000</desc></polyline><polyline fill="none" points="178.3772768820054,218.0 178.55479303648463,225.85307192670007 179.50692513748072,226.16887014948588 179.4585116407834,226.6320396233641 173.82640819589142,226.4636145325203 174.47192148462636,227.87416858352663 174.7301268001902,237.41083565799636 175.16584827011684,240.67378863361955 175.63384540460538,242.0" stroke="#4dd2ff" stroke-linecap="round" stroke-linejoin="round" stroke-width="0.5"><title>2023-08-04 1.6km</title><desc>1691107871000</desc></polyline><polyline fill="none" points="22.830715532181785,254.9453895111801 29.616055846447125,253.38802593911532 34.453752181492746,254.2076915165526 35.01919720764272,258.79779659822816 25.532286213012412,258.2240355187678 11.647469459101558,259.4535228271852 11.710296683944762,256.66668105637655 13.532286213012412,254.61752385576256 18.369982548058033,253.96179196913727 23.082024432951584,254.7814567076275 29.80453752167523,252.6503258945886 34.89354275749065,254.4535909560509 35.207678883103654,258.7158307658974 11.647469459101558,259.37155709043145 11.710296683944762,256.42078258818947 13.657940663397312,254.61752385576256 19.563699825434014,253.5519591505872 22.453752181492746,254.5355574117857 34.39092495664954,254.5355574117857 35.33333333325572,258.79779659822816 12.401396160712466,259.7813856539433 11.333333333255723,258.06010367407 12.4642233857885,256.0109515673248 19.24956369982101,254.04375849699136 34.32809773134068,254.4535909560509 34.830715532181785,258.63386492140125 12.527050610864535,259.7813856539433 11.961605584481731,256.2568502158392 16.736474694451317,254.8634231153992 26.851657940540463,255.6830865352531 35.01919720764272,254.7814567076275 35.082024432951584,258.3879673157935 13.532286213012412,259.69941996515263 11.458987783640623,258.4699331963202 12.150087260175496,256.3388164078933 17.80453752167523,254.61752385576256 34.956369982566684,255.19128862716025 35.01919720764272,258.30600142339244 21.134380453964695,258.9617282276158 17.176265270682052,260.6830074387253 14.223385689314455,260.1912139176857 12.58987783594057,259.37155709043145 12.150087260175496,256.66668105637655 16.799301919760182,254.5355574117857 26.788830715464428,256.09291779558407 34.64223385695368,254.9453895111801 35.14485165802762,258.7158307658974 21.4485165795777,258.3879673157935 16.987783595221117,259.7813856539433" stroke="#4dd2ff" stroke-linecap="round" stroke-linejoin="round" stroke-width="0.5"><title>2023-07-26 4.8km</title><desc>1690377436000</desc></polyline><polyline fill="none" points="50.0,255.33074143726844 63.43999999994412,253.32682918774663 65.93600000021979,253.8278079093434 65.42400000034831,258.25310086039826 49.74400000018068,258.420092375949 43.920000000158325,260.4239867494325 42.256000000052154,258.67057955713244 42.57600000011735,255.41423762828344 48.08000000030734,253.32682918774663 51.98400000017136,254.6627714690403 65.42400000034831,253.91130432055797 65.2960000000894,257.83562185883056 43.472000000067055,259.756022739748 42.0,258.00261349603534 42.51199999987148,255.58122997393366 47.696000000229105,253.07633966213325 51.472000000299886,252.90934658393962 54.35200000018813,254.6627714690403 59.98400000017136,253.07633966213325 65.55200000014156,253.9948007191415 65.6160000001546,258.33659662422724 42.38400000007823,258.420092375949 42.38400000007823,255.41423762828344 43.472000000067055,254.9132602987229 57.04000000027008,254.57927516795462 62.031999999890104,253.07633966213325 65.80800000019372,253.9948007191415 65.48799999989569,258.1696050845785 42.38400000007823,258.5870838421397 42.51199999987148,255.33074143726844 45.136000000173226,254.24528984178323 56.528000000398606,254.41228252940346 62.031999999890104,252.90934658393962 66.0,253.9948007191415 65.48799999989569,258.33659662422724 42.76800000015646,259.088057948451 43.21600000024773,255.08025279082358 54.09600000013597,254.57927516795462 60.68800000031479,252.99284312920645 65.74400000018068,254.0782971055596 65.68000000016764,258.25310086039826 42.38400000007823,258.25310086039826 42.704000000143424,255.08025279082358 50.96000000019558,256.2491988677648 61.200000000186265,252.99284312920645 65.87200000020675,253.91130432055797 65.80800000019372,258.33659662422724 43.407999999821186,258.8375709503307" stroke="#4dd2ff" stroke-linecap="round" stroke-linejoin="round" stroke-width="0.5"><title>2023-07-24 4.9km</title><desc>1690201802000</desc></polyline><polyline fill="none" points="87.41396388754947,244.94149664278666 87.37885465793079,244.66666666667152 86.37824161257595,245.2392285726237 86.2378046939848,246.0637140396575 86.62400622019777,251.17084674246144 87.55440080614062,251.60597591027908 87.58951003587572,251.97239953490498 83.46417555073276,252.15561102578067 81.23473946738522,251.90369517056388 81.95447867538314,252.7052442123677 82.13002482370939,253.7587024285749 82.34068020171253,263.53720468118263 83.34129324695095,268.6666666666715 82.69177249824861,266.170654807589 83.46417555073276,265.4836720866151 82.81465480203042,245.42244794039289 87.27352696890011,245.1247163588705 87.81772002862999,245.01020406142925 87.90549310279312,244.68956918311596 88.0985938659287,245.07891144993482" stroke="#4dd2ff" stroke-linecap="round" stroke-linejoin="round" stroke-width="0.5"><title>2023-07-24 3.0km</title><desc>1690157385000</desc></polyline><polyline fill="none" points="115.49458377674455,260.92776752630016 115.9437814403791,268.66666666666424 115.62128055369249,258.3279676969105 115.37940488854656,257.1858383027211 115.59824477607617,256.2090070368722 115.4254764438374,255.72810207893053 114.94172511372017,245.73378639453585 115.22967233404052,244.98229478295252 115.77101310819853,244.74181630613748 115.28726177813951,244.69672652905138 114.89565355848754,245.31295176938875 114.89565355848754,248.52928692534624 115.34485122212209,255.65296047585434 115.44851222145371,254.81137076705636 114.8495820031967,245.64360769144696 115.05690400185995,245.04241431421542 115.59824477607617,244.72678638262005 115.19511866761604,244.66666666666424 114.75743889273144,245.44822022978042 114.72288522630697,248.42408129372052 115.16056500119157,255.8934134121082" stroke="#4dd2ff" stroke-linecap="round" stroke-linejoin="round" stroke-width="0.5"><title>2023-07-22 4.9km</title><desc>1690030226000</desc></polyline><polyline fill="none" points="143.139639810659,254.6179560312885 138.98931326158345,252.1301429673913 140.78404906671494,265.0081672645756 144.26134968874976,267.64228818245465 149.8698990792036,266.4715686305426 152.67417377466336,261.64233600214357 151.6646348843351,249.34963869431522 149.53338611591607,245.69106867047958 145.71957253012806,244.66666666668607 139.88668116461486,247.59352675225819 141.00839104223996,263.9837850352633 143.2518107984215,267.34960842272267 146.5047694449313,268.2276474448154 153.0106867379509,262.95940175745636 152.33766081137583,252.2764850835083 147.96299228677526,244.81300987419672 143.02746882289648,245.2520393684972 139.43799721309915,248.76426838967018 140.33536511519924,263.5447637590114 145.38305956684053,268.08130766113754 152.11331883538514,264.4228061194299 151.88897685939446,249.34963869431522 145.15871759084985,245.54472559079295 139.66233918862417,249.4959812174202 140.55970709165558,265.30084770941176 145.15871759084985,268.66666666668607 152.7863447619602,263.69110420608195 152.22548982314765,252.4228271782631" stroke="#4dd2ff" stroke-linecap="round" stroke-linejoin="round" stroke-width="0.5"><title>2023-07-18 1.7km</title><desc>1689685608000</desc></polyline></svg>