<?xml version="1.0" encoding="utf-8" ?>
<svg baseProfile="full" height="300mm" version="1.1" viewBox="0,0,200,300" width="200mm" xmlns="http://www.w3.org/2000/svg" xmlns:ev="http://www.w3.org/2001/xml-events" xmlns:xlink="http://www.w3.org/1999/xlink"><defs /><rect fill="#222222" height="300" width="200" x="0" y="0" /><text fill="#FFFFFF" style="font-size:12px; font-family:Arial; font-weight:bold;" x="10" y="20">Over 10km Runs</text><text fill="#FFFFFF" style="font-size:4px; font-family:Arial" x="10" y="280">ATHLETE</text><text fill="#FFFFFF" style="font-size:9px; font-family:Arial" x="10" y="290">Yunlong</text><text fill="#FFFFFF" style="font-size:4px; font-family:Arial" x="120" y="280">STATISTICS</text><text fill="#FFFFFF" style="font-size:3px; font-family:Arial" x="120" y="285">Number: 39</text><text fill="#FFFFFF" style="font-size:3px; font-family:Arial" x="120" y="290">Weekly: 1.9</text><text fill="#FFFFFF" style="font-size:3px; font-family:Arial" x="141" y="285">Total: 185.8 km</text><text fill="#FFFFFF" style="font-size:3px; font-family:Arial" x="141" y="290">Avg: 4.8 km</text><text fill="#FFFFFF" style="font-size:3px; font-family:Arial" x="167" y="285">Min: 1.1 km</text><text fill="#FFFFFF" style="font-size:3px; font-family:Arial" x="167" y="290">Max: 39.1 km</text><polyline fill="none" points="34.443861112056766,54.871388542087516 32.93284333415795,57.33648849208839 31.588037511799484,58.5 30.439664000528865,57.947826299860026 28.052255911403336,55.58134195210005 27.13053506682627,54.98971437026921 26.586568666796666,54.121989217208466 26.314585466810968,54.200873552952544 19.348793510522228,48.442195652096416 12.367891376488842,41.99297305631626 11.703043554269243,40.13901095344045 11.869255509867799,38.77810763835441 11.627492665371392,38.12723597510194 11.929696220962796,36.450733874356956 12.685205109941307,36.15487839639536 14.211333065584768,34.04442380268301 16.764953110308852,31.5 19.78698866616469,33.68939080875134 20.920251999632455,35.227860357495956 21.88730337744346,35.99708854247001 22.839244577568024,35.89846978985588 24.471143777715042,37.37774349730171 25.196432311146054,38.679490921786055 21.313116621924564,43.353843892837176 21.993074621947017,43.768019244700554 25.75550888897851,39.31063665996771 27.236306311329827,40.13901095344045 30.42455382278422,43.077726284143864 31.270723778405227,43.53134777100058 33.02350440080045,45.42470791822416 33.869674356421456,45.838876903188066 36.31752315670019,48.20553239014407 37.193913467926905,48.678858498256886 38.37250733462861,50.11854852194665 37.79832057910971,51.203236322355224 35.92465853440808,52.997882413779735 35.68289568996988,53.60923990885203 34.74606466770638,54.29947890769108" stroke="#4dd2ff" stroke-linecap="round" stroke-linejoin="round" stroke-width="0.5"><title>2024-08-14 5.1km</title><desc>1723587841000</desc></polyline><polyline fill="none" points="72.24818897573277,55.975944241647085 70.13129002926871,58.46589150284126 69.76540626073256,58.5 68.3802748513408,57.050380065935315 67.58317092701327,56.64107234880794 67.03434527420904,55.890671132809075 66.420183234266,55.65190609599813 65.50547381292563,54.52629290318146 59.612131684145425,49.83612087347137 53.679587723105215,44.34411581286986 53.183031180058606,43.133110913739074 53.27450212225085,42.26322638594138 52.93475290859351,41.12042703592306 53.13076207024278,38.39130860591831 54.829508138413075,36.497945128634456 55.24766101670684,36.46383018911729 54.855642693291884,36.42971523968299 54.306817040545866,35.74741415165772 53.980135104386136,35.90093224492739 53.1568966251798,37.043782801847556 53.379040341766085,38.08427878130897 53.02622385072755,38.25485100602236 52.75181102426723,34.34868442667357 52.856349243898876,31.994686725527572 55.861823056824505,31.5 56.94640708487714,31.7217563781669 59.27238247054629,31.56823277670628 56.92027252999833,34.723955025903706 62.27785628341371,39.329450278113654 64.05500601622043,40.3187551294468 64.85210994054796,41.61507290684676 68.43254396115663,44.66818541123939 65.13959004438948,48.77867418661481 65.74068480695132,48.94923075303086 67.83144919853657,46.35674399560958" stroke="#4dd2ff" stroke-linecap="round" stroke-linejoin="round" stroke-width="0.5"><title>2024-08-10 5.2km</title><desc>1723241479000</desc></polyline><polyline fill="none" points="108.17520891362801,55.454916798495105 106.91169916430954,57.08433109683392 106.2799442896503,58.43888936055009 105.42256267409539,57.830321398272645 104.82089136482682,57.79105885431636 103.64763231197139,55.84754856022482 101.57186629524222,54.748176730645355 101.07548746519024,53.805850846882095 99.46601671306416,52.66719823672611 96.38245125341928,49.604567383474205 94.77298050140962,48.70147057407303 93.0281337047345,46.89525871023943 90.50111420603935,44.735625635570614 90.30557103059255,44.93195735226618 89.68885793862864,44.205528564736596 88.51559888571501,43.49872921065253 88.07938718661899,42.615224779205164 87.28217270190362,42.16365359969495 86.6955431754468,40.789297174691455 86.95125348184956,40.04321207368048 86.5,38.49212713052111 86.98133704729844,36.68577774746518 88.1245125348214,35.782593930722214 88.71114206122002,34.7223269049573 91.49387186631793,31.620015971828252 92.065459609963,31.561110639435356 92.12562674086075,31.875272113029496 92.4114206128288,31.83600196907355 93.73509749304503,32.81775211704371 94.23147632309701,33.583512242446886 95.61532033421099,34.604518940104754 96.0816155988141,34.64378827322798 96.75849582173396,36.13601440966886 98.1272980500944,36.45016516442411 99.60139275761321,36.29308987900731 100.57910863502184,36.90175558492774 100.84986072423635,37.922737016444444 100.62423398322426,38.25651772142737 97.66100278543308,41.3979424721183 96.39749303623103,43.55762929908815 96.8938718662248,43.75396274049126 97.75125348183792,42.9882606936153 99.4810584958177,40.61259318386146 100.57910863502184,39.4738285458734 101.03036211698782,39.37565872776031 106.80640668520937,44.08772893108835 107.93454038997879,45.50131770520238 109.72451253479812,46.83636008766189 110.58189415041124,46.93452444419381 110.79247910861159,47.58240739502071 111.55961002787808,48.03396032789897 111.8002785515855,48.56404226558516 113.5,49.36897749771015 113.24428969359724,50.58618745241256 109.84484679665184,54.159223829206894" stroke="#4dd2ff" stroke-linecap="round" stroke-linejoin="round" stroke-width="0.5"><title>2024-08-09 5.2km</title><desc>1723159591000</desc></polyline><polyline fill="none" points="146.14698572165798,55.363511272575124 146.32950784778222,55.74068780467496 145.34084633161547,56.236971117177745 144.61075782740954,57.16997882806754 144.54991711874027,57.686107995716156 143.65251666563563,58.5 142.08586841705255,56.336227561710984 141.55351221602177,56.276673703687266 140.7777931803139,55.363511272575124 139.63702989253215,54.84737326564209 139.16551440017065,54.4106395716517 139.2111449316726,53.91434957571619 138.87652103387518,54.11286579203443 125.65887707221555,42.77712437052105 124.70063591044163,41.38738858627039 124.36601201270241,40.3351505890314 124.07701864652336,37.77400888623379 124.22912041813834,36.3445134118665 125.6132465407718,35.37165370672301 127.65141028165817,32.6515803460934 129.03553640423343,31.5 129.58310278243152,31.519854916390614 133.263965657854,34.71645854317467 134.16136611090042,35.07383811577165 134.35909841413377,35.92757439297566 137.1425608364516,37.59532277606195 137.4619745570235,38.270357956615044 141.8881361138192,42.00284476217348 142.00981753115775,42.34035180165665 138.4050055416301,46.56904527434381 138.19206306122942,46.9859515739372 138.43542589602293,47.28374100319343 139.10467369150138,47.045509512070566 140.76258300314657,44.78228947255411 142.80074674409116,42.91609716558014 150.92298135347664,49.963816439470975 149.75179771118565,51.79020787151239 147.94178662786726,53.53716796422668" stroke="#4dd2ff" stroke-linecap="round" stroke-linejoin="round" stroke-width="0.5"><title>2024-08-08 4.9km</title><desc>1723122982000</desc></polyline><polyline fill="none" points="188.4269192913489,43.97718026632356 188.46013779529312,43.95550234961411 188.46345964567445,44.016200476387894 188.5,43.87746171811341 188.45349409450137,43.80375648844347 188.1910679133871,43.9858514285479 187.82898622048378,43.6390029588656 187.74261811023462,43.62599606222466 187.63631889765384,43.72571545709798 187.52337598426675,43.64333858979808 187.4436515748239,43.66935236212157 186.7460629921261,44.50178101246456 185.7328986220382,45.47291820264218 182.30142716536648,49.50886601677121 182.10875984252198,49.61723512291428 177.2555364173313,45.49893036807771 176.2357283464662,44.83994846887617 176.0530265748239,44.549471528638605 175.97662401576235,44.211300755663615 175.07640255906153,43.76473599846577 174.64456200788845,43.87746171811341 174.2027559055132,43.881797314141295 173.32246555118763,43.76473599846577 172.39899114174477,43.756064771492674 164.51624015749258,44.06822734319394 163.99138779527857,44.03787834867035 163.63262795277114,43.83410572287539 163.22071850394423,44.07256291129488 161.6328740157478,44.14193191470804 161.5830462598533,44.102911870282696 161.5,42.277583452865656 161.51660925196484,41.56216276771556 166.67876476379752,41.341029241093565 166.7983513779618,41.3497011752097 167.8746309055132,41.852669008841985 168.36958661417884,42.008760737542616 173.71776574803516,42.03477594566175 174.2459399606305,41.93505085706056 175.45177165354835,41.393060807688016 175.97994586615823,41.406068685042555 176.47157972441346,41.28899758309126 176.48818897639285,41.19360597264313 178.1690452756011,40.469486910174965 178.37500000001455,40.51284783147821 178.73375984253653,40.43913422747755 180.36146653543983,40.38276487708754 180.37807578741922,40.508511742202245 180.45115649607033,40.534528268315626 183.6002706693107,40.43479812741316 183.6600639763783,40.62558592971982 183.68331692914944,41.3497011752097 183.77300688976538,41.679232789794696 183.96567421260988,42.01309660714469 186.74938484252198,44.41073526835862 186.92212106300576,44.28934050751923 187.08821358268324,44.34570242263726 187.66621555118763,43.73872230992856 188.1578494094574,44.10724743330866" stroke="#4dd2ff" stroke-linecap="round" stroke-linejoin="round" stroke-width="0.5"><title>2024-07-21 16.7km</title><desc>1721568012000</desc></polyline><polyline fill="none" points="13.483533882186748,76.67436205971171 12.286573780933395,75.58071554321214 11.927485750464257,74.44242206035415 11.94458518049214,72.36668853271112 11.5,71.3622911945713 11.63679544016486,69.50971874357492 13.004749841697048,68.68386593749165 14.885687143716495,65.849147944391 16.3391386953881,64.66613980516559 16.629829005745705,63.88490298129909 17.313806206395384,63.817939638742246 19.34863837872399,65.20184274150233 19.570930968911853,65.849147944391 23.025015832739882,68.59458428506332 23.213109562930185,69.15259375491587 24.204876504081767,69.44275787194783 26.205509816354606,71.58549117493385 27.00918302719947,71.85333072005596 31.831222292559687,76.31725385579921 35.30240658647381,79.01786388960318 36.123179227346554,80.06684827477147 38.5,81.71842608237057 38.431602279888466,82.23175067496777 36.841355288168415,83.77171408235154 35.47340088663623,86.1820603612432" stroke="#4dd2ff" stroke-linecap="round" stroke-linejoin="round" stroke-width="0.5"><title>2024-07-16 2.5km</title><desc>1721136594000</desc></polyline><polyline fill="none" points="72.59446461926564,72.04863265130552 71.23267822878552,73.59310542929961 70.18606510775862,75.0211206335116 69.10377199394861,75.75839603874192 68.14041218932834,76.79832497290408 67.13542572647566,76.0765854153251 60.4097470905981,70.3023152679707 60.308653777785366,69.85214412885034 60.20161379946512,66.1031566953061 60.16593380671111,63.61144696160409 60.27297378500225,61.99681861638237 61.462306877132505,61.67078192459303 62.94897324225167,61.5 63.151159867906244,66.39035558557953 63.28198650802369,66.96474869849771 63.60310644292622,67.64780267798778 68.75291873174137,72.02534879786981 70.92345162489801,74.07428876162885 70.1265984531492,75.09872905365046 69.11566532484721,75.75063529839463 68.11662552747293,76.81384614580384 68.22961217124248,76.93801536554747 68.16419885118376,77.09322648135276 68.96699868835276,77.8227126404272 68.94321202646825,77.93911907781876 67.65278562155436,79.48342029947162 67.26030570117291,80.15855293702771 66.1780125873338,81.44671320591078 65.1373461317562,82.47101108835705 64.31075963273179,82.99867197409912 63.40686648272094,83.22370222562677 62.34241336528794,84.47299074109105 62.34241336528794,84.92303777917186 63.51985312649049,85.95502777613365 63.92422637779964,86.1567678353058 64.48915959653095,86.05589790164595 65.11355946987169,85.35756233049324 65.48225272848504,84.83768432402212 65.4049460774695,84.32556070855571 63.959906370553654,83.16162501023791 63.41875981364865,83.2392215181062 62.34836003073724,84.4807502051226 62.32457336891093,85.1247817635558 62.152120070531964,85.73776839277707 61.62881351003307,86.65335548121948 60.38596042874269,88.27499213251212 60.09457382117398,88.5 56.62172119220486,85.63689766227253 52.7801753047097,81.93558511753872 52.40553538070526,81.45447311272801 52.71476198465098,81.5631116888544 55.646468056715094,77.58213852677727 56.823907817859435,75.23842392365623 56.92500113073038,74.84262083615249 57.69806764059467,74.36920541989821 60.023213835665956,73.58534437203343 60.6773470363114,73.15848447263124 61.914253452123376,71.82355497306344 63.05006655509351,70.20141517257434 64.5961995748512,68.4860841704176 68.78265205907519,72.03311008349556 70.89371829756419,74.00443983915102 72.06521139331744,72.6229644661762 72.41606465546647,72.11072287716524 72.36849133175565,72.00206493418227" stroke="#4dd2ff" stroke-linecap="round" stroke-linejoin="round" stroke-width="0.5"><title>2024-07-06 16.1km</title><desc>1720267100000</desc></polyline><polyline fill="none" points="91.31297889631242,72.66674423438963 93.22923355130479,71.33340739167761 96.29524099966511,87.00001678068656 104.59901117254049,87.50001140637323 108.17601986275986,82.33338969573379 106.0042645870708,64.5000315879006 99.61674906872213,62.333342900150456 93.61248448258266,67.50005527865142 95.0177378966473,84.66670562699437 99.23349813837558,88.33333529520314 104.85451179370284,87.50001140637323 108.30377017334104,81.16672993882094 106.77076644916087,65.166704201838 99.61674906872213,62.16667436843272 95.14548820676282,65.66670840629376 94.12348572397605,69.6667341440916 95.65648944815621,84.83337086765096 101.02200248325244,88.00000581308268 105.36551303509623,86.83335185656324 108.43152048345655,80.00006898795255 107.92051924206316,67.83339075685944 105.36551303509623,63.16668519063387 96.29524099966511,63.50002193625551 93.86798510327935,69.16673169471323 95.27323851687834,85.16670127620455 99.10574782826006,87.833341035177 105.4932633456774,87.33334655570798 108.30377017334104,84.00004441977944 107.79276893194765,68.00005845958367 103.57700869021937,62.16667436843272 100.0,61.5 94.76223727595061,65.33337229397148 94.37898634467274,82.66672083549201 96.03974037896842,86.000026871101 101.40525341406465,88.5 108.30377017334104,84.16670975787565 107.66501862090081,67.50005527865142 101.27750310394913,61.833337233169004 96.93399255210534,63.33335357543547 93.99573541386053,67.33338750316761 95.14548820676282,84.16670975787565 97.95599503489211,87.16668168001343 103.44925838010386,88.16667056630831 108.55927079403773,83.33338282222394 107.15401737997308,65.00003608502448 99.61674906872213,62.000005812966265 93.99573541386053,67.83339075685944 95.27323851687834,84.66670562699437 101.02200248325244,88.16667056630831 106.13201489718631,87.16668168001343 108.68702110368758,79.66673706821166" stroke="#4dd2ff" stroke-linecap="round" stroke-linejoin="round" stroke-width="0.5"><title>2024-02-29 2.9km</title><desc>1709196138000</desc></polyline><polyline fill="none" points="125.55535122239962,61.5 135.3921208032407,67.33338750316761 135.00887004099786,82.83338636858389 140.1188802132383,88.33333529508673 146.76189343677834,86.83335185598116 149.31689852289855,83.16671736212447 148.2948964885436,66.3333803373389 143.05713606160134,61.833337233169004 137.81937563605607,62.333342899917625 134.3701187693514,65.66670840617735 135.64762131264433,84.33337507175747 141.39638275606558,88.33333529508673 148.8058975059539,85.16670127632096 148.4226467423141,66.3333803373389 143.05713606160134,62.16667436878197 134.8811197867617,64.83336794318166 135.3921208032407,82.83338636858389 138.07487614406273,87.33334655524231 144.84563962183893,88.5 148.9336477597244,85.00003608386032 149.1891482686624,73.1667451482499 145.86764165665954,63.000016781152226 136.28637258382514,63.50002193602268 134.3701187693514,68.66672902554274 136.79737360123545,86.50002193532418 145.48439089395106,88.5 148.55039699701592,86.00002687051892 149.44464877760038,81.16672993893735 147.27289445372298,64.83336794318166 144.33463860535994,62.50001140648965 137.3083746181801,63.000016781152226 134.49786902358755,68.00005845935084 136.41412283852696,85.66669670608826" stroke="#4dd2ff" stroke-linecap="round" stroke-linejoin="round" stroke-width="0.5"><title>2024-02-26 2.1km</title><desc>1708947688000</desc></polyline><polyline fill="none" points="170.49268657295033,72.26694831845816 166.81065588677302,78.06449348235037 169.34998739464208,85.68407914135605 173.9207841088064,88.5 181.15787890693173,86.84357681323308 182.42754466086626,67.79453605914023 176.07921589072794,61.5 169.47695396933705,64.64727240230422 168.715154517442,81.54300633713137 172.52415177971125,87.17486164462753 177.22191506950185,87.67178870958742 182.68147781165317,84.52458028239198 182.55451123602688,67.62889082136098 176.71404876746237,61.66564613406081 168.9690876682289,65.80679160903674 168.8421210926026,82.53686519083567 171.2544860257767,87.00921924074646 174.55561698554084,88.00307329848874 182.30057808570564,84.85586579178926 182.42754466086626,67.79453605914023 181.15787890693173,64.4816267042188 175.4443830139935,61.66564613406081 168.8421210926026,67.29760027374141 169.2230208190158,84.19329467555508 174.42865041084588,88.00307329848874 180.01517972862348,86.67793436127249 183.18934411276132,81.70864954008721 182.30057808570564,65.97243711340707 179.507313426584,62.32823042757809 175.19044986274093,61.5 169.47695396933705,65.3098549512215 168.715154517442,82.03993587312289 173.5398843823932,88.00307329848874 178.9994471250102,87.50614637858234 182.68147781165317,84.19329467555508 182.93541096244007,68.78840697626583 181.66574520803988,65.1442093505757 176.96798191871494,62.32823042757809 171.50841917656362,63.322106140782125 169.603920545429,65.97243711340707 168.9690876682289,84.35893749108072 173.41291780676693,88.16871555661783 181.66574520803988,85.35279387363698 182.30057808570564,68.1258264615899 180.01517972862348,63.81904367066454 176.07921589072794,62.32823042757809 168.58818794228137,66.46937347960193 168.8421210926026,83.53072317270562 171.38145260093734,87.8374310163781 180.26911287894472,86.84357681323308 182.55451123602688,83.19943727517966 182.68147781165317,73.4264597252477" stroke="#4dd2ff" stroke-linecap="round" stroke-linejoin="round" stroke-width="0.5"><title>2024-01-18 3.0km</title><desc>1705581243000</desc></polyline><polyline fill="none" points="21.80624317470938,94.83336794329807 18.22923553083092,96.1667123909574 18.101485258433968,114.16670975799207 21.167491809930652,117.50001140625682 26.277502729557455,118.33333529555239 31.387513649184257,115.0000360844424 31.387513649184257,97.00005187850911 29.08800873486325,92.83334834722336 25.127750272396952,91.5 19.762238807044923,93.66669027204625 17.46273389318958,97.33338750293478 17.718234439380467,112.66672083549201 23.59474699618295,118.00000581273343 31.13201310299337,114.66670562652871 31.259763375855982,96.83338402933441 25.894251910503954,91.83333723281976 21.03974153706804,93.00001678126864 17.84598471224308,97.00005187850911 18.356985803693533,113.33338282257318 21.03974153706804,117.50001140625682 24.872249726671726,118.5 31.387513649184257,114.50004036154132 31.770764468237758,97.66672302980442 27.17175464099273,92.00000581296626 21.42299235565588,92.66667988931295 18.484736076556146,95.83337642531842 18.356985803693533,113.33338282257318 24.36124863475561,118.5 31.89851474110037,115.0000360844424 31.004262830130756,96.83338402933441 25.76650163717568,92.66667988931295 18.356985803693533,95.66670840571169 18.484736076556146,114.16670975799207 25.255500545725226,118.5 31.387513649184257,115.33336644410156 31.51526392158121,97.16671970312018 26.660753548610955,92.00000581296626 20.911991264205426,92.83334834722336 17.718234439380467,97.33338750293478 17.973734985571355,112.00005845841952 23.21149617806077,118.00000581273343 31.13201310299337,115.50003158731852 31.51526392158121,96.83338402933441 25.511001091450453,91.5 18.101485258433968,96.33338033745531 18.356985803693533,112.50005527795292 20.40099017182365,116.16669191711117 24.74449945334345,117.66667623317335 29.982260646298528,117.0000167802209 32.53726610634476,113.16671736259013 30.87651255680248,95.33337229420431 27.044004367664456,92.00000581296626 21.678492901846766,92.16667436843272 18.356985803693533,95.33337229420431 18.101485258433968,109.16673900594469" stroke="#4dd2ff" stroke-linecap="round" stroke-linejoin="round" stroke-width="0.5"><title>2024-01-17 3.3km</title><desc>1705483266000</desc></polyline><polyline fill="none" points="56.1221255492419,106.95290702185594 53.1284293779172,109.50006975582801 58.20469679823145,116.12266671471298 64.32224984373897,117.99057184869889 70.43980288784951,115.78304727654904 71.35092781018466,99.48119743622374 67.83658882649615,93.02831864915788 62.50000000046566,91.83962653996423 57.42373258015141,95.06607371894643 57.033250470645726,111.87741659942549 61.84919648524374,117.31133396551013 71.0906064035371,115.27361793338787 70.8302849973552,98.46232422208413 66.01433898322284,91.66981328232214 56.51260765828192,96.76420021243393 56.64276836114004,109.83969103102572 60.41742875101045,117.82076241495088 70.04932077927515,116.63209568534512 71.35092781018466,99.14157313096803 68.09691023314372,92.5188793229172 60.93807156337425,92.68869245657697 56.51260765828192,96.93401272536721 57.033250470645726,113.40570842847228 63.150803515687585,118.5 70.70012429496273,116.46228605299257 71.22076710686088,97.4434501142241 66.5349817960523,91.5 60.54758945386857,92.34906616492663 57.81421468919143,95.74532461480703 57.163411173503846,113.40570842847228 58.595178907271475,116.46228605299257 64.84289265563712,118.5 71.87157062254846,113.7453285624506" stroke="#4dd2ff" stroke-linecap="round" stroke-linejoin="round" stroke-width="0.5"><title>2024-01-13 2.0km</title><desc>1705132259000</desc></polyline><polyline fill="none" points="92.0451420461759,99.26256470545195 93.46796216722578,113.94379430869594 95.79621327668428,117.31876321486197 100.71141006145626,118.5 107.82551067043096,113.10005053936038 107.30812153499573,96.39379687560722 100.84075734484941,91.83750389900524 94.11469858651981,95.7187916438561 94.11469858651981,113.60629687458277 99.54728450672701,117.82500769919716 107.9548579538241,113.77504560397938 107.69616338657215,96.39379687560722 103.4277030210942,92.17500769952312 98.64185352018103,92.006255811546 93.33861488383263,97.74380615423433 93.72665673494339,112.42505507986061 96.96033883048221,117.99375581101049 99.80597907397896,118.5 106.1439959811978,116.30627357913181 107.82551067043096,112.76255285891239 107.17877425206825,95.88754298910499 100.71141006145626,91.83750389900524 97.21903339866549,92.006255811546 93.72665673494339,96.22504560498055 93.98535130312666,113.94379430869594 100.45271549327299,118.5 107.69616338657215,113.26879934268072 106.79073240002617,95.38128887990024 100.5820627771318,91.5 93.72665673494339,96.05629430920817 94.76143500534818,112.5938039815519 100.45271549327299,117.48751140071545" stroke="#4dd2ff" stroke-linecap="round" stroke-linejoin="round" stroke-width="0.5"><title>2024-01-11 2.0km</title><desc>1704963338000</desc></polyline><polyline fill="none" points="134.58281276514754,98.10645157343242 132.71140963351354,101.26604313729331 132.93157470738515,114.04792344977614 137.44495873106644,118.35638494248269 142.17850782861933,117.78192450263305 144.60032364632934,114.47877044946654 143.82974588591605,98.82454145798692 140.63735230918974,95.5213236414711 133.81223500473425,95.95217876986135 129.95934620453045,92.79257010918809 131.06017157575116,91.5 130.84000650187954,95.37770522356732 134.47273022774607,95.95217876986135 132.60132709611207,98.96815937163774 133.04165724478662,112.61176541814348 135.24330798815936,117.3510789515567 140.30710469698533,118.5 144.04991096025333,116.3457719310536 144.82048872020096,101.12242555926787 139.97685708617792,95.5213236414711 136.1239682850428,96.09579710348044 132.82149217044935,99.82986641401658 133.15173978172243,114.04792344977614 137.55504126800224,118.21276986418525 141.51801260607317,118.06915476452559 144.49024110892788,114.47877044946654 143.93982842331752,98.68092352291569 137.9953714166768,95.09046832495369 133.37190485652536,99.5426308172755 133.70215246779844,114.90961726062233 138.21553649147972,118.06915476452559 142.72892051469535,117.06384847918525 145.0406537950039,113.61707626050338 144.2700760345906,98.53730556712253 141.29784753127024,95.09046832495369 138.43570156535134,94.80323134205537 133.37190485652536,98.82454145798692 133.4819873929955,113.47346048912732 137.9953714166768,117.63830933981808 142.17850782861933,117.2074637261685 144.82048872020096,113.7606920110411 144.49024110892788,98.96815937163774 143.05916812596843,95.80856041470543 139.75669201090932,94.65961281914497 133.15173978172243,98.39368759014178 133.04165724478662,113.18622888275422 135.7937206737697,116.63300261320546" stroke="#4dd2ff" stroke-linecap="round" stroke-linejoin="round" stroke-width="0.5"><title>2024-01-09 2.6km</title><desc>1704792913000</desc></polyline><polyline fill="none" points="164.58673413656652,101.06969162542373 169.69512871094048,97.48106644977815 170.7430045218207,115.25319755601231 175.19647671468556,118.1582317459397 180.04290233645588,117.98734758188948 184.23440557718277,114.74054371356033 184.88932795869187,110.29753432807047 184.4963745297864,97.31017926183995 180.8288091942668,92.18355200090446 174.54155433317646,91.84177605004515 170.7430045218207,94.9177560058888 170.7430045218207,113.03169594914652 176.37533700093627,118.5 183.84145214874297,116.79115773225203 184.75834348192438,98.33550201519392 180.8288091942668,92.18355200090446 174.54155433317646,92.18355200090446 171.13595794979483,95.77219344524201 171.13595794979483,112.17727112979628 174.93450776254758,117.47469493933022 181.74570052837953,117.64557917835191 184.75834348192438,115.25319755601231 184.75834348192438,97.82284075079951 181.74570052837953,92.69621573900804 176.50632147677243,91.5 173.62466299906373,91.84177605004515 170.87398899765685,95.94308085832745 171.00497347395867,114.05700490798336 177.292228335049,117.98734758188948 185.15129691082984,114.9114283528179 184.88932795869187,98.67727606592234 180.43585576536134,91.84177605004515 174.8035232857801,91.67088803753722 170.4810355687514,96.96840481087565 171.26694242609665,114.9114283528179 177.94715071609244,118.32911588542629 185.15129691082984,114.22788964677602 184.23440557718277,95.25953105615918 179.91191786015406,91.84177605004515 174.8035232857801,92.0126640376402 170.7430045218207,95.4304185443325 170.7430045218207,112.68992609635461 175.851399095729,117.81646339292638 184.88932795869187,114.74054371356033 185.41326586343348,99.18993695557583 181.74570052837953,92.0126640376402 173.62466299906373,92.52532785164658 170.7430045218207,99.18993695557583 171.92186480760574,116.27850456547458 181.22176262317225,117.47469493933022" stroke="#4dd2ff" stroke-linecap="round" stroke-linejoin="round" stroke-width="0.5"><title>2024-01-08 3.0km</title><desc>1704701613000</desc></polyline><polyline fill="none" points="17.618149291258305,126.48730782361235 18.40906186727807,144.8885709445458 25.39545628754422,147.9840822427068 31.45911937020719,143.168838925194 30.800025557167828,126.14335623942316 26.054550100583583,122.01592937600799 18.540880629327148,124.93952490098309 17.881786816287786,142.4809454131173 22.89089979743585,148.15605485334527 28.295469066593796,147.8121096061077 31.72275689523667,143.85673203435726 30.931844319216907,127.17521069175564 25.922731338068843,121.84395294240676 20.91361835738644,122.53185852686875 18.013605578802526,125.62742867390625 17.749968053773046,143.68475879484322 23.681812373455614,148.32802743907087 27.768194016069174,148.15605485334527 31.986394420731813,144.20067843887955 31.59093813225627,127.69113757787272 25.39545628754422,121.5 20.518162069376558,122.53185852686875 17.618149291258305,126.31533204414882 17.749968053773046,142.9968655849807 22.495443509425968,148.15605485334527 28.163650304079056,147.9840822427068 31.59093813225627,144.8885709445458 31.986394420731813,129.5828675593948 26.84546267706901,121.67197648389265 20.518162069376558,122.70383485953789 17.881786816287786,125.4554527682485 18.80451815482229,146.43632761226036 27.504556490574032,148.15605485334527 32.513669471256435,142.65291882900055 30.272750506177545,124.59557286347263 22.231805983930826,121.67197648389265 17.354511765763164,126.83125930826645 18.145424341317266,145.06054400838912 24.99999999953434,148.5 32.11821318324655,143.51278553029988 30.272750506177545,124.76754889450967 22.89089979743585,121.67197648389265 17.486330528277904,129.06694150273688 17.881786816287786,144.02870524919126 21.309074645396322,148.15605485334527 26.054550100583583,148.5 29.745475455652922,147.46816425863653 32.645488234236836,141.7930514990585" stroke="#4dd2ff" stroke-linecap="round" stroke-linejoin="round" stroke-width="0.5"><title>2023-12-29 2.9km</title><desc>1703839119000</desc></polyline><polyline fill="none" points="57.22849306697026,124.38682242622599 55.276083091273904,128.80194872617722 57.0983324018307,145.95285700750537 64.90797230228782,147.65095295628998 68.94295291788876,142.21703717962373 68.2921495931223,125.0660737195285 65.68893629265949,122.17925298109185 60.35234902659431,121.5 55.66656508669257,126.42457511241082 56.83801107201725,146.29247639642563 65.29845429770648,147.65095295628998 69.20327424770221,143.2358983248705 68.16198892751709,124.55663528700825 60.35234902659431,121.5 55.796725751366466,126.25476252532098 55.92688641650602,144.08494859619532 62.044437672477216,148.5 69.59375624312088,143.7453285616357 68.16198892751709,124.72644812276121 59.701545701827854,121.5 55.66656508669257,128.63213648681995 55.796725751366466,143.7453285616357 57.48881439678371,146.8019052920863 62.955562327522784,148.16038125671912 69.46359557844698,143.91513859131373 69.07311358302832,125.74532461480703 61.133313016965985,122.0094397731591 55.276083091273904,128.4623242225498 56.187207747250795,144.93399824667722 63.86668698256835,148.5 69.07311358302832,143.2358983248705 69.20327424770221,126.42457511241082 65.68893629265949,122.68869245704263 60.872991687152535,122.51887932315003 55.40624375687912,128.4623242225498 56.31736841145903,145.61323752021417 65.03813296789303,148.16038125671912 69.85407757339999,141.87741659930907 69.07311358302832,125.40569921641145 65.29845429770648,122.34906616492663 60.09202769678086,122.0094397731591 55.14592242660001,129.31138529616874 56.447529076598585,145.7830472763162 64.77781163807958,148.3301906407578 69.72391690779477,142.55665766075253" stroke="#4dd2ff" stroke-linecap="round" stroke-linejoin="round" stroke-width="0.5"><title>2023-12-28 2.9km</title><desc>1703769423000</desc></polyline><polyline fill="none" points="95.27323782583699,127.83339075697586 91.82397894188762,126.33338033687323 93.74023387720808,143.0000518776942 98.33924572262913,147.50001140648965 105.1100131617859,145.83336180110928 107.92052040016279,142.16672408941668 107.79277007095516,129.83340157847852 103.577009213157,122.50001140707172 98.21149539388716,122.16667436878197 93.61248354800045,125.00003608490806 93.61248354800045,143.16671736212447 97.82824440672994,147.33334655570798 102.42725625168532,147.83334103564266 107.53726941300556,143.16671736212447 106.8985177683644,127.33338750293478 102.42725625168532,122.33334289991762 95.40098815411329,122.50001140707172 93.10148223256692,125.00003608490806 93.35698289005086,141.5000614199089 97.06174243241549,147.50001140648965 103.06600789632648,147.66667623328976 106.13201579404995,145.00003608432598 106.77076743869111,128.16672613762785 103.3215085552074,122.16667436878197 94.76223650947213,123.00001678115223 92.46273058699444,127.83339075697586 95.01773716742173,146.00002687145025 101.91625493578613,148.0000058131991 107.66501974267885,141.5000614199089 105.74876480689272,124.166695134365 101.02200263226405,121.5 95.01773716742173,122.83334834722336 92.7182312454097,128.83339660661295 95.40098815411329,146.33335693844128 100.63875164510682,148.5 104.21576085779816,147.50001140648965 107.4095190842636,143.16671736212447 108.17602105857804,135.66674642788712" stroke="#4dd2ff" stroke-linecap="round" stroke-linejoin="round" stroke-width="0.5"><title>2023-11-08 2.1km</title><desc>1699431646000</desc></polyline><polyline fill="none" points="132.29475135030225,123.79093438549899 129.66077010519803,129.6818869812414 130.66419153194875,144.5727677618852 137.81356919649988,148.00909672433045 143.83409775514156,145.5545771131292 145.0883745388128,142.93641692830715 143.83409775514156,125.26367544219829 140.44755044113845,121.99091490660794 135.43044330831617,121.66363832645584 130.53876385372132,126.90005211986136 130.7896192097105,143.75459264428355 137.9389968747273,148.00909672433045 144.71209150366485,143.2636872860603 144.33580846851692,126.24550173606258 141.4509718674235,122.31819139060099 136.81014776974916,121.5 130.66419153194875,128.04551437112968 130.7896192097105,143.918227715767 137.4372861608863,148.17273117334116 144.58666382497177,143.42732242960483 144.33580846851692,126.73641456000041 141.20011651096866,122.48182959691621 137.6881415178068,121.99091490660794 133.799883489497,122.80910593783483 130.4133361754939,127.71823956188746 130.9150468884036,143.1000521191163 133.54902813304216,147.19092411885504 138.94241830101237,147.84546225098893 142.95610400754958,146.3727509152377 145.33922989526764,141.3000637012301 144.33580846851692,125.91822640039027 136.93557544751093,121.5 133.799883489497,122.80910593783483 130.53876385372132,129.02733822411392 131.1659022453241,143.2636872860603 133.54902813304216,147.19092411885504 138.69156294455752,148.5 144.9629468601197,142.7727817130508 144.33580846851692,126.73641456000041 138.56613526586443,121.99091490660794 131.04047456663102,126.57277697592508 131.04047456663102,144.7364027139265 137.31185848312452,148.5 144.58666382497177,144.24549778655637 144.58666382497177,127.06368965632282 142.0781102590263,122.80910593783483 136.81014776974916,121.5 130.9150468884036,126.57277697592508 131.29132992355153,143.1000521191163" stroke="#4dd2ff" stroke-linecap="round" stroke-linejoin="round" stroke-width="0.5"><title>2023-10-27 2.9km</title><desc>1698413800000</desc></polyline><polyline fill="none" points="171.48686697892845,123.00001678103581 167.39885764522478,126.83338402980007 169.44286231184378,145.66669670597184 178.00213185418397,147.50001140672248 182.2178914793767,141.16672993870452 181.3236394370906,125.00003608467523 177.2356301038526,121.5 171.99786814535037,121.5 168.80411085346714,123.6666902723955 167.78210852015764,129.50006668525748 169.31511201988906,145.50003158731852 177.61888097925112,148.16667056665756 180.68488797917962,146.833351856214 182.60114235430956,141.33339569158852 180.81263827066869,125.00003608467523 172.76436989568174,122.5000114068389 167.9098588116467,127.66672302992083 168.9318611449562,145.00003608420957 176.4691283539869,148.5 182.2178914793767,143.16671736247372 180.94038856215775,125.33337229420431 173.65862193750218,122.00000581296626 167.9098588116467,126.83338402980007 169.05961143691093,145.16670127643738 173.65862193750218,148.33333529543597 178.12988214567304,147.83334103494417 182.2178914793767,142.5000552778365 181.45138972904533,126.16671239130665 177.4911306872964,122.16667436831631 170.7203652281314,122.83334834768903 167.52660793671384,128.3333937911084 170.20936406217515,146.833351856214 176.21362777007744,148.16667056665756 181.1958891460672,145.16670127643738 182.2178914793767,132.66674423450604 181.9623908950016,127.33338750316761 178.38538272865117,122.33334289945196 173.01987047865987,122.16667436831631 168.29310968704522,125.33337229420431 168.1653593950905,142.83338636881672 170.7203652281314,147.33334655535873 177.8743815626949,148.16667056665756 181.3236394370906,145.00003608420957 181.8346406039782,127.8333907565102 177.4911306872964,122.33334289945196 169.31511201988906,123.83335858397186 168.03760910360143,141.66672712389845 171.48686697892845,147.66667623294052" stroke="#4dd2ff" stroke-linecap="round" stroke-linejoin="round" stroke-width="0.5"><title>2023-10-21 2.9km</title><desc>1697891041000</desc></polyline><polyline fill="none" points="17.817435071337968,151.5 18.30438862601295,172.30594168405514 22.321755450218916,178.18235684302635 31.208657819312066,175.9588521438418 31.208657819312066,157.0588784016436 28.773890046868473,153.8823799417587 24.269569668453187,152.92942859232426 18.30438862601295,157.21770308096893 19.15655734576285,175.64120824378915 23.904354501981288,178.34117843292188 28.89562843600288,177.38824854406994 31.33039620751515,174.21180954331066 31.695611373521388,159.44124614959583 26.582599051762372,153.08825387549587 18.66960379201919,156.26475465786643 18.182650237344205,172.1471192111494 20.495679621119052,177.0706050619483 26.460860663093626,178.5 30.356489099096507,176.59413966536522 31.817349762655795,160.71184014517348 31.208657819312066,156.58240422513336 27.678244549781084,153.56472958507948 19.521772511769086,155.78828013280872 18.426127014681697,174.68827598600183 23.29566255863756,178.5 31.208657819312066,175.80003020563163 31.695611373521388,157.69417697924655 29.13910521287471,154.3588553033769 24.634784833993763,153.56472958507948 18.791342180222273,157.3765277370112 18.54786540288478,173.10005369863939 22.20001706155017,178.18235684302635 27.921721326652914,178.02353522996418 31.93908815085888,174.21180954331066 32.18256492866203,160.87066428991966 31.08691943064332,156.58240422513336 27.19129099464044,153.72355477511883 22.8087090048939,153.8823799417587 18.182650237344205,157.69417697924655 18.91308056889102,174.37063171423506 22.686970615759492,178.18235684302635 27.79998293798417,177.86471359303687 31.817349762655795,173.89416513266042 31.573872984852642,157.8530015652068 26.582599051762372,153.40590437164064 19.521772511769086,155.62945524486713 17.939173459541053,161.98243265401106 20.00872606644407,176.911783286836 23.539139336906374,178.5 29.99127393309027,176.911783286836 31.695611373521388,163.57067119912244" stroke="#4dd2ff" stroke-linecap="round" stroke-linejoin="round" stroke-width="0.5"><title>2023-10-16 3.1km</title><desc>1697460359000</desc></polyline><polyline fill="none" points="54.31066067703068,155.30985495168716 56.34212469542399,173.6963660841575 62.30955024808645,178.5 70.56237282138318,173.36508023599163 69.54664081288502,155.80679160915315 64.72191376937553,151.5 58.500555214006454,152.49387644033413 55.961225191596895,155.14420935045928 56.34212469542399,173.36508023599163 62.56348325079307,178.33435779006686 67.0073107900098,177.34050402313005 70.43540632072836,171.87429271859583 69.41967431129888,155.6411460810341 62.56348325079307,151.6656461340608 56.34212469542399,155.30985495168716 56.46909119607881,173.53072317223996 60.53201923239976,178.00307329790667 65.61067927768454,177.83743101579603 70.68933932296932,173.19943727517966 70.18147331802174,158.1258264617063 64.21404776489362,151.6656461340608 58.2466222117655,153.15646024933085 56.21515819430351,156.13808259309735 56.46909119607881,173.53072317223996 58.88145471783355,177.17486164346337 63.83314826199785,178.5 70.30843981960788,173.53072317223996 68.65787530411035,153.98468946525827" stroke="#4dd2ff" stroke-linecap="round" stroke-linejoin="round" stroke-width="0.5"><title>2023-10-12 1.8km</title><desc>1697101056000</desc></polyline><polyline fill="none" points="92.20642480161041,160.38614482281264 94.30217611603439,176.10762012621854 102.94715028489009,177.64557917881757 107.53160628443584,171.83550102752633 105.69782388489693,154.9177560057724 96.92186525836587,152.01266403798945 92.73036263044924,157.13929204898886 93.90922274440527,175.4240821202984 102.03025908581913,178.15823174640536 107.13865291280672,173.54435054119676 106.48373062768951,157.3101792621892 101.24435234302655,152.35443993890658 97.05284971510991,152.35443993890658 93.25430045835674,155.94308085832745 92.99233154440299,172.34815614379477 96.52891188673675,177.98734758235514 105.43585497047752,176.79115773318335 107.79357519838959,171.83550102752633 106.74569954164326,156.45574294694234 102.94715028489009,152.52532785153016 97.05284971510991,152.1835520005552 92.99233154440299,156.62663025967777 93.3852849160321,173.88612014369573 96.39792742952704,177.64557917881757 100.85139897139743,178.15823174640536 106.87668399885297,174.5696590502048 107.40062182722613,171.4937308243243 105.95979279885069,154.74686844309326 99.01761657185853,151.84177605051082 92.86134708765894,156.79751754796598 93.51626937324181,174.5696590502048 99.54155440023169,178.5 105.56683942722157,176.62027336878236 107.26963737048209,173.37346570240334 106.48373062768951,156.9684048112249 99.41056994348764,151.5 92.73036263044924,157.13929204898886 94.43316057277843,175.93673566239886 102.16124354302883,177.81646339269355 106.35274617001414,175.25319755647797 107.40062182722613,170.81019011954777 106.09077725606039,155.25953105674125 101.63730571419,151.67088803788647 95.61202068673447,152.52532785153016 92.73036263044924,157.99372786399908 94.17119165882468,175.5949666594388 98.62466320069507,178.5 103.60207257093862,178.15823174640536 107.40062182722613,168.75956560508348" stroke="#4dd2ff" stroke-linecap="round" stroke-linejoin="round" stroke-width="0.5"><title>2023-10-10 2.9km</title><desc>1696942258000</desc></polyline><polyline fill="none" points="136.5428181993775,175.55262200058496 138.43912176659796,174.44439391013293 142.5748695465736,174.96313992375508 143.225030769594,175.69409737778187 142.30396903690416,176.99094920723292 142.86383009015117,178.5 146.38553671492264,177.32105527706153 147.32465848163702,176.07136444227945 148.33602038410027,173.05320316445432 148.5166207238799,165.60187515296275 146.56613705470227,162.1826376451063 147.01763790403493,160.9328292532009 148.9320015052799,159.2821240483463 149.25708211679012,158.31527456500044 149.05842174310237,157.13618196752213 147.90257956879213,155.60334867464553 147.7219792290125,154.1648303034017 141.63574777997565,151.5 133.2378319822019,152.51405567086476 128.39774287724867,151.73582747044566 125.74291788320988,152.46689043255174" stroke="#4dd2ff" stroke-linecap="round" stroke-linejoin="round" stroke-width="0.5"><title>2023-10-07 3.0km</title><desc>1696669067000</desc></polyline><polyline fill="none" points="169.92252212995663,152.84162991598714 167.3516472587362,156.86651024583261 168.12290972005576,171.12118113820907 173.26465946203098,178.16460017219651 178.2778654601425,177.49380022333935 182.6483527412638,173.63669290184043 182.13417776674032,156.86651024583261 175.57844684645534,151.83540762588382 171.07941582193598,152.84162991598714 167.73727848939598,157.36961929430254 168.76562843751162,174.3074951072922 173.39320320589468,178.5 177.63514674268663,178.16460017219651 182.3912652535364,173.63669290184043 181.87709027901292,157.36961929430254 176.73534053843468,152.33851888112258 168.76562843751162,154.51866510347463 168.3799972073175,173.63669290184043 173.7788344360888,178.5 178.1493217172101,178.16460017219651 182.13417776674032,173.80439348972868 181.4914590488188,156.1956978389062 175.83553433278576,151.66770382528193 167.60873474599794,155.86029148800299 168.89417218137532,174.13979459297843 175.44990310212597,177.82920024706982 182.26272151013836,173.63669290184043 181.62000279221684,156.02799467591103 174.8071843846701,151.5 167.73727848939598,155.5248850391945 168.25145346391946,173.46899228950497 173.0075719752349,177.82920024706982 179.69184663938358,176.82299988158047 182.00563402287662,173.13359099067748 181.87709027901292,157.0342132867081 176.73534053843468,151.83540762588382 168.12290972005576,155.3571817780612 168.63708469411358,174.3074951072922 174.55009689740837,178.5 180.72019658749923,176.31989936868194 182.26272151013836,173.30129165260587 181.62000279221684,156.1956978389062 175.70699058938771,151.66770382528193 171.33650330919772,152.17081515409518 167.86582223325968,156.1956978389062 168.3799972073175,173.63669290184043 172.36485325777903,177.99690022179857" stroke="#4dd2ff" stroke-linecap="round" stroke-linejoin="round" stroke-width="0.5"><title>2023-10-06 2.9km</title><desc>1696597953000</desc></polyline><polyline fill="none" points="18.686190119762614,183.3565927369982 18.595247005985584,183.2005930129444 18.241579341316537,182.8292632095836 18.106848802388413,182.0118658612846 18.069797904187,181.94374740801595 18.103480538913573,181.8844181809227 18.239895209582755,181.8646417198197 18.645770958079083,181.8668391056699 18.625561377244594,181.72840316921884 18.302208083834557,181.7701538240899 16.89932634730212,181.77235122376533 14.960890718561132,181.85365478573658 14.738585329338093,181.8844181809227 14.393338323345233,182.00527376640093 13.155501496999932,182.59855072100527 12.653630239517952,182.79410724964964 12.412799401201482,182.97428067472538 12.608158682633075,184.12558178961808 12.736152694604243,186.4345095700337 12.78162425148912,189.20651180519508 12.752994011978444,189.5161887092445 12.773203592812933,191.1698871662784 12.688997005985584,191.35435221161788 12.773203592812933,191.58712630102855 12.79172904191364,193.73462669727087 12.76141467065463,194.65457649763994 12.466691616762546,194.76654745309406 12.31343562874099,194.94438196318515 11.518525449100707,194.9312091086158 11.5,194.95755480621847 11.585890718561132,194.97072763771484 11.577470059877669,195.02122338489698 11.516841317366925,195.03659162213808 11.530314371251734,195.05854621951676 11.958083832338161,195.04537346493726 12.301646706582687,195.0717189625684 12.486901197597035,195.28906755732078 12.722679640712158,195.34614848572983 12.78162425148912,195.3900567447954 12.793413173647423,196.8367621983134 12.6755239520935,197.03652394637083 12.608158682633075,197.35921039777713 12.616579341309262,197.47116122293664 12.778255988021556,197.47774653965553 12.806886227539508,197.64018343945736 12.795097305388481,199.67049673251404 12.697417664676323,199.86363659167364 12.692365269460424,200.02824246953332 12.638473053892085,200.0984737627523 12.535741017956752,200.15553644714146 12.673839820352441,200.08311069536558 12.766467065863253,200.2213777371844 12.769835329338093,200.3311125804421 12.850673652690602,200.48912934897453 12.926459580841765,201.05973164424358 13.064558383230178,202.76263140735955 13.030875748503604,203.21465749060553 12.941616766460356,203.40116915152248 12.697417664676323,203.71055398709086 12.714258982035972,203.92777783805377 12.961826347302122,204.06600956576585 13.108345808381273,204.21521064113495 13.209393712575547,204.43023311921024 13.325598802395689,204.8953732785576 13.510853293410037,205.31223196525298 13.894835329338093,205.88703922397326 14.816055389215762,207.16601633567097 15.151197604784102,207.50603485284864 15.090568862273358,207.4577746275927 15.050149700597103,207.4687428741845 15.671594311374065,207.78901215234418 15.96631736526615,207.8723687925949 16.282934131733782,207.90746618728735 17.847492514971236,207.9250148539668 18.455464071856113,207.89649826023742 18.590194610776962,207.99082217188243 18.755239520964096,208.25404856796376 18.90175898203597,208.27159683078207 18.99607035927329,208.0544356391838 19.152694610776962,207.81533535174367 19.52151946107915,207.51480942263697 22.5815868263453,206.40697955944597 22.686002994014416,206.3762662833151 22.709580838323745,206.43111137531923 22.662425149705086,206.36090962175786 22.60853293412947,206.46182453958045 22.640531437122263,206.43549897404228 22.65905688622297,206.4552431525144 22.674214071848837,206.37187866732802 22.731474550892017,206.4552431525144 22.709580838323745,206.37846009082932 22.766841317366925,206.34335913222367 23.36639221556834,206.16785311180683 24.080464071848837,206.13494550522955 25.96500748503604,206.16127159624102 28.386788922158303,206.13275166223593 28.519835329338093,206.16127159624102 29.405688622755406,206.13494550522955 30.271332335330953,206.16565927360534 31.537799401201482,206.12836397528554 31.963884730539576,205.9879573177859 32.627432634726574,205.86948818209112 34.23914670658269,205.73566081498575 35.535928143712226,205.7575998091461 35.847492514971236,205.73566081498575 36.18431886227336,205.63693494567542 36.54640718563314,205.45045098182345 36.89165419161873,205.16304176148424 36.844498502985516,205.18278760863177 36.775449101798586,205.13671392500328 36.70134730538848,205.2091153645424 36.78218562874099,205.13232594777946 36.881549401194206,205.17401167975459 36.943862275453284,205.1411019009438 37.16616766466177,205.12793796927144 37.40868263473385,204.85368677506995 37.43057634730212,204.58820686037507 37.85160928143887,204.17352225423474 38.12107035928784,203.85975858544407 38.22043413174106,203.64472795885195 38.27432634730212,203.40775187380405 38.36021706586325,196.10793860192916 38.39389970060438,195.89499251196867 38.39221556886332,195.3768842805348 38.47642215569067,195.15295062310724 38.5,194.8807130592295 38.4949476047841,194.54480024189888 38.42252994012233,194.33402758483226 38.425898203589895,193.80049609502657 38.35853293412947,192.36008610570025 38.39221556886332,189.95323958443896" stroke="#ff0000" stroke-linecap="round" stroke-linejoin="round" stroke-width="0.5"><title>2023-09-14 39.1km</title><desc>1694696482000</desc></polyline><polyline fill="none" points="62.19565367279574,181.5 55.13481887197122,188.3294751845533 55.986988589633256,201.82947419618722 58.90871333470568,206.91178328637034 64.9956398862414,207.38824854465201 69.86518112802878,203.10005369817372 69.01301141036674,186.42357945349067 64.75216282438487,181.97647640679497 59.639144520740956,182.770603285986 55.74351152777672,187.05887840176 56.352204182650894,204.68827598600183 62.56086926534772,208.5 69.74344259686768,203.4176983416546 69.01301141036674,187.535352369654 65.84780960390344,183.40590437175706 60.61305276909843,182.770603285986 55.13481887197122,188.3294751845533 56.230465651489794,202.62358655931894 62.07391514163464,207.8647135932697 66.94345638295636,206.7529614875093 69.2564884731546,203.89416513219476 68.7695343485102,186.42357945349067 65.11737841786817,182.6117779565975 59.517405989579856,182.9294285926735 55.86525005847216,186.26475465798285 56.108727120794356,204.05298734956887 59.882621583063155,207.38824854465201 64.38694723136723,207.8647135932697 69.37822700385004,202.1471192111494 69.37822700385004,185.3118053986691" stroke="#4dd2ff" stroke-linecap="round" stroke-linejoin="round" stroke-width="0.5"><title>2023-09-11 1.8km</title><desc>1694438011000</desc></polyline><polyline fill="none" points="100.24657534249127,196.72912134061335 104.62328767124563,193.27094943705015 111.28082191757858,195.68362980266102 110.41780821909197,199.5438963713823 94.45205479464494,200.50895877956646 92.35616438370198,199.22220852551982 89.52054794528522,200.26769333635457 88.22602739743888,199.14178653480485 88.0410958903376,196.16616460564546 97.6575342467986,197.1312329415232 104.99315068498254,194.47729094314855 111.15753424656577,195.20109457644867 110.97260273969732,199.70474022370763 94.14383561629802,199.86558402900118 90.81506849313155,197.69418868847424 89.76712328800932,199.14178653480485 87.79452054784633,198.57883226958802 87.73287671245635,196.08574216801208 96.85616438346915,196.64869898522738 106.47260273969732,194.31644556182437 111.65068493131548,195.4423622424947 110.23287671222351,199.70474022370763 97.2876712330617,199.46347442740807 90.75342465774156,200.58938057057094 87.42465753434226,198.57883226958802 87.5479452055879,196.2465870315791 101.84931506845169,195.92489725718042 108.38356164377183,194.39686825824901 111.58904109569266,195.52278477448272 110.47945205471478,199.62431830348214 94.26712328777649,199.86558402900118 90.32191780838184,200.83064587268746 88.22602739743888,199.78516213217517 86.5,196.88996601616964 86.99315068521537,196.08574216801208 91.98630136996508,196.4074318485218 98.45890410942957,195.12067199742887 103.57534246565774,196.0053197183879 110.91095890384167,195.12067199742887 110.91095890384167,188.847674608347 113.5,189.0085215891013 110.5410958903376,188.52598050562665 110.10958904097788,199.5438963713823 97.16438356158324,199.30263050476788 89.4589041096624,201.47401949443156 87.36301369895227,197.4529220102704 87.73287671245635,196.4878542391234 98.21232876717113,195.20109457644867 103.76027397252619,196.08574216801208 107.64383561629802,195.28151714347769 111.21917808195576,196.16616460564546 110.72602739697322,200.02642778703012 94.14383561629802,199.70474022370763 93.34246575366706,200.83064587268746 89.33561643841676,201.47401949443156 88.16438356181607,200.42853697692044 87.73287671245635,196.16616460564546 96.42465753434226,193.91433190292446 99.93835616461001,195.12067199742887 103.57534246565774,194.87940419034567" stroke="#4dd2ff" stroke-linecap="round" stroke-linejoin="round" stroke-width="0.5"><title>2023-08-30 4.9km</title><desc>1693396264000</desc></polyline><polyline fill="none" points="127.73067120462656,183.51244428521022 131.0728100030683,187.03421328705736 133.25805460149422,203.97209405410103 137.7570875994861,207.99690022249706 146.62660979526117,202.96589030476753 146.75515359593555,184.51866510382388 138.65689419955015,181.66770382528193 131.97261660220101,185.3571817779448 133.38659840123728,204.64289606327657 137.37145619979128,208.5 142.7702957978472,208.16460017266218 147.14078499563038,205.14599731226917 147.14078499563038,187.20191630290356 144.56990899704397,182.84162991598714 139.4281569989398,181.66770382528193 132.35824800189584,187.36961929430254 133.64368600212038,205.31369767943397 137.1143685998395,208.3323000984965 147.01224119542167,203.80439349031076 146.8836973956786,186.86651024629828 144.44136519683525,183.00933354522567 139.29961319919676,181.83540762588382 134.4149488019757,183.34474073001184 132.2297042021528,186.86651024629828 133.0009670020081,204.13979459286202 139.55670079914853,208.16460017266218 147.01224119542167,204.81059650389943 146.62660979526117,186.86651024629828 144.69845279678702,183.51244428521022 138.01417519990355,181.83540762588382 132.2297042021528,185.69258827588055 133.0009670020081,203.13359099067748 139.29961319919676,208.3323000984965 144.44136519683525,207.32610017526895 147.14078499563038,203.6366929024225 146.24097839556634,185.5248850393109 141.35631399834529,181.5 133.12951080175117,185.0217751818709 133.12951080175117,203.6366929024225 136.08601820049807,207.6615002474282 142.8988395971246,207.99690022249706 147.01224119542167,203.46899228950497 146.8836973956786,188.87894511432387 142.6417519976385,182.170815154328 133.38659840123728,184.6863684875425 132.87242320226505,202.2950873146765 136.8572810003534,207.49380022357218 143.2844709972851,207.99690022249706 146.62660979526117,205.31369767943397 147.26932879537344,191.89759079378564" stroke="#4dd2ff" stroke-linecap="round" stroke-linejoin="round" stroke-width="0.5"><title>2023-08-25 3.1km</title><desc>1692968645000</desc></polyline><polyline fill="none" points="179.35483870934695,190.31280009931652 178.91935483831912,194.1951437544776 188.1370967742987,194.57390774285886 188.5,199.68719990062527 161.5,199.59250967216212 161.93548387056217,195.04736241674982 177.90322580607608,195.04736241674982 185.8870967742987,193.43761511310004 188.06451612897217,194.38452577602584 188.2096774186939,199.21374861942604 179.06451612897217,199.30843890324468" stroke="#4dd2ff" stroke-linecap="round" stroke-linejoin="round" stroke-width="0.5"><title>2023-08-24 1.1km</title><desc>1692883156000</desc></polyline><polyline fill="none" points="25.337944967439398,238.5 25.417461430304684,238.11098019758356 25.616252587526105,238.26658822098398 25.039758231607266,222.00481134827714 24.56265945418272,219.0220269482379 25.337944967439398,218.4514016063913 24.582538569928147,217.7510861771152 24.84096707426943,214.94979680079268 24.38374741259031,211.5" stroke="#4dd2ff" stroke-linecap="round" stroke-linejoin="round" stroke-width="0.5"><title>2023-08-21 1.2km</title><desc>1692620048000</desc></polyline><polyline fill="none" points="63.06658891425468,229.02468051756296 62.70603233244037,229.79751953664527 62.96357274800539,238.5 62.82192551944172,227.69740137329063 62.5,225.54684058270504 62.590139145439025,223.09380802355008 62.01067321043229,212.23935023228114 62.33259872987401,211.65123111658613 62.873433602566365,211.5 62.24245958449319,211.56721385417768 61.93341108574532,212.12172665009712 61.95916512730764,215.81841020203137 62.512877020810265,222.64015927595756 62.34547575068427,225.00919409366907 62.69315531163011,227.12616259037895 63.027957851823885,238.4832004797354 62.74466339475475,230.80556261688616" stroke="#4dd2ff" stroke-linecap="round" stroke-linejoin="round" stroke-width="0.5"><title>2023-08-10 4.8km</title><desc>1691669615000</desc></polyline><polyline fill="none" points="101.80481283413246,224.0110793687054 104.18716577533633,221.27972575224703 112.20053475908935,221.27972575224703 112.99465240677819,226.64823738660198 87.29411764675751,227.8726285097655 86.5,223.8227105255355 95.5962566845119,220.62043176451698 101.44385026721284,222.31575779797276 112.34491978632286,221.93901906500105 113.5,225.89476476906566 98.62834224617109,227.6842607963481 87.87165775382891,227.2133412710973 86.57219251291826,226.83660540293204 86.5,225.14129127009073 88.16042780736461,222.4099424466258 96.39037433126941,223.1634191412013 106.56951871654019,221.27972575224703 112.85026737954468,221.84483434748836 112.41711229970679,226.55405335745309 93.86363636376336,227.9668123460142 86.93315507983789,227.11915732483612 86.93315507983789,223.54015715781134 88.95454545458779,222.59831170312827 103.32085561519489,223.35178817703854 105.5588235296309,222.12738845899003 113.06684491969645,222.22157313558273 113.06684491969645,226.64823738660198 97.25668449187651,227.02497336477973 92.05882352916524,229.19120096275583 87.51069518737495,227.4958930273424 86.64438502630219,224.67036988545442 87.58288770029321,223.7285260835779 97.04010695172474,223.25760366610484 98.33957219263539,222.03320376906777 103.39304812811315,223.7285260835779 113.28342245984823,222.59831170312827 113.06684491969645,226.74242140172282 92.49197860946879,227.7784446599544 87.0775401070714,226.45986931480002 87.00534759322181,223.54015715781134 88.59358288766816,222.4099424466258 103.97058823565021,223.54015715781134 113.5,222.69249631051207 112.9224598929286,226.9307893908117 96.1737967915833,227.4958930273424 93.64705882361159,229.00283363478957 88.08823529398069,227.8726285097655 87.22192513337359,225.51802812964888 88.23262032074854,223.25760366610484 103.68181818164885,223.91689495416358 113.2112299464643,222.5041270814836 113.42780748661608,227.02497336477973 99.4224598929286,226.9307893908117 95.8850267380476,227.4958930273424 94.4411764703691,229.3795682354248" stroke="#4dd2ff" stroke-linecap="round" stroke-linejoin="round" stroke-width="0.5"><title>2023-08-08 4.7km</title><desc>1691498421000</desc></polyline><polyline fill="none" points="139.42443649237975,211.5 139.6241421661107,220.33470591754303 140.69529077969491,220.68997891817708 140.64082559593953,221.21104457628098 134.3047092204215,221.0215663490817 135.03091167018283,222.60843965646927 135.32139265025035,233.33719011524227 135.81157930393238,237.0080122128129 136.3380760801956,238.5" stroke="#4dd2ff" stroke-linecap="round" stroke-linejoin="round" stroke-width="0.5"><title>2023-08-04 1.6km</title><desc>1691107871000</desc></polyline><polyline fill="none" points="174.43455497385003,223.06356320006307 182.0680628272239,221.3115291815484 187.51047120429575,222.2336529561435 188.14659685874358,227.3975211729994 177.47382198972628,226.75203995860647 161.85340314148925,228.13521318056155 161.92408376955427,225.00001618842361 163.97382198972628,222.69471433776198 169.4162303665653,221.95701596525032 174.71727748727426,222.8791387960664 182.28010471211746,220.48161663144128 188.0052356023807,222.51028982555727 188.35863874363713,227.30530961160548 161.85340314148925,228.04300172673538 161.92408376955427,224.72338041168405 164.11518324632198,222.69471433776198 170.75916230352595,221.49595404439606 174.01047120429575,222.6025020882371 187.43979057623073,222.6025020882371 188.5,227.3975211729994 162.70157068083063,228.50405886070803 161.5,226.56761663331417 162.77225130912848,224.26232051325496 170.40575916250236,222.04922830912983 187.36910994793288,222.51028982555727 187.93455497385003,227.21309803659096 162.8429319371935,228.50405886070803 162.20680628274567,224.53895649279002 167.57853403151967,222.97135100484593 178.95811518328264,223.89347235218156 188.14659685874358,222.8791387960664 188.21727748727426,226.9364632302313 163.97382198972628,228.41184746084036 161.6413612565957,227.02867484587478 162.41884816787206,224.6311684589018 168.78010471211746,222.69471433776198 188.07591623067856,223.34019970556255 188.14659685874358,226.8442516013165 172.5261780107394,227.58194425608963 168.07329842960462,229.51838336855872 164.75130890053697,228.96511565742549 162.91361256549135,228.04300172673538 162.41884816787206,225.00001618842361 167.64921466005035,222.6025020882371 178.88743455521762,224.3545325200539 187.72251308895648,223.06356320006307 188.28795811533928,227.30530961160548 172.8795811519958,226.9364632302313 167.86125654471107,228.50405886070803" stroke="#4dd2ff" stroke-linecap="round" stroke-linejoin="round" stroke-width="0.5"><title>2023-07-26 4.8km</title><desc>1690377436000</desc></polyline><polyline fill="none" points="20.5,253.49708411691245 35.62000000011176,251.24268283619313 38.42799999983981,251.8062838979531 37.8519999999553,256.78473846788984 20.212000000290573,256.97260392288445 13.660000000149012,259.22698509308975 11.787999999709427,257.2544020017376 12.148000000044703,253.5910173318116 18.34000000031665,251.24268283619313 22.731999999843538,252.74561790260486 37.8519999999553,251.90021736058407 37.70800000010058,256.31507459114073 13.155999999959022,258.47552558220923 11.5,256.50294018298155 12.075999999884516,253.7788837206317 17.908000000286847,250.96088211983442 22.155999999959022,250.77301490691025 25.39600000018254,252.74561790260486 31.731999999843538,250.96088211983442 37.99599999981001,251.99415080901235 38.0679999999702,256.87867120222654 11.932000000029802,256.97260392288445 11.932000000029802,253.5910173318116 13.155999999959022,253.02741783601232 28.420000000391155,252.65168456389802 34.03599999984726,250.96088211983442 38.2839999999851,251.99415080901235 37.92399999964982,256.69080572010716 11.932000000029802,257.16046932234894 12.075999999884516,253.49708411691245 15.027999999932945,252.27595107199159 27.84400000050664,252.46381784550613 34.03599999984726,250.77301490691025 38.5,251.99415080901235 37.92399999964982,256.87867120222654 12.364000000059605,257.72406519192737 12.868000000249594,253.21528438961832 25.10800000000745,252.65168456389802 32.524000000208616,250.86694852029905 38.21199999982491,252.08808424370363 38.140000000130385,256.78473846788984 11.932000000029802,256.78473846788984 12.292000000365078,253.21528438961832 21.580000000074506,254.530348726199 33.10000000009313,250.86694852029905 38.356000000145286,251.90021736058407 38.2839999999851,256.87867120222654 13.083999999798834,257.4422673190711" stroke="#4dd2ff" stroke-linecap="round" stroke-linejoin="round" stroke-width="0.5"><title>2023-07-24 4.9km</title><desc>1690201802000</desc></polyline><polyline fill="none" points="65.59070937347133,241.80918372313317 65.55121149017941,241.5 64.42552181414794,242.1441321441962 64.26753028074745,243.0716782946256 64.70200699777342,248.81720258526911 65.74870090687182,249.30672289905488 65.78819879039656,249.71894947676628 61.147197494632564,249.92506240401417 58.63908190082293,249.64165706688073 59.44878850982059,250.54339973890455 59.64627792662941,251.72854023214313 59.883265226962976,262.7293552663323 61.00895490287803,268.5 60.27824406058062,265.69198665853764 61.147197494632564,264.919131097442 60.41648665233515,242.35025393293472 65.43271784007084,242.01530590372568 66.04493503225967,241.88647956910427 66.14367974072229,241.52576533101092 66.36091809917707,241.96377538118395" stroke="#4dd2ff" stroke-linecap="round" stroke-linejoin="round" stroke-width="0.5"><title>2023-07-24 3.0km</title><desc>1690157385000</desc></polyline><polyline fill="none" points="100.18140674883034,259.79373846709495 100.68675412045559,268.5 100.32394062291132,256.86896365902066 100.05183049966581,255.58406809056032 100.29802537307842,254.48513291648123 100.10366099938983,253.94411483879958 99.55944075295702,242.70050969385193 99.88338137581013,241.85508163082704 100.4923897467088,241.58454334440466 99.9481695004506,241.5338173451819 99.5076102532912,242.22707074056234 99.5076102532912,245.8454477910127 100.01295762491645,253.8595805353325 100.12957624916453,252.91279211294022 99.4557797536254,242.59905865287874 99.68901700212155,241.92271610349417 100.29802537307842,241.56763468044664 99.84450850106077,241.5 99.35211875429377,242.37924775850115 99.31324587960262,245.72709145543922 99.80563562631141,254.1300900886199" stroke="#4dd2ff" stroke-linecap="round" stroke-linejoin="round" stroke-width="0.5"><title>2023-07-22 4.9km</title><desc>1690030226000</desc></polyline><polyline fill="none" points="134.28209478687495,252.69520053523593 129.6129774195142,249.89641083835158 131.63205520017073,264.3841881727567 135.5440183999017,267.3475742052542 141.85363646410406,266.03051470941864 145.0084454966709,260.59762800252065 143.87271424476057,246.76834353117738 141.47505938028917,242.65245225431863 137.18451909674332,241.5 130.62251631030813,244.7927175963996 131.88443992240354,263.23175816470757 134.40828714799136,267.0183094756212 138.0678656254895,268.00610337546095 145.3870225804858,262.0793269771384 144.629868412856,250.0610457189614 139.7083663227968,241.66463610855862 134.15590242575854,242.15854428964667 130.1177468644455,246.10980193840805 131.12728575477377,262.73785922897514 136.80594201292843,267.8414711188525 144.37748368969187,263.72565688437317 144.1250989669934,246.76834353117738 136.55355728976429,242.48781628976576 130.370131587144,246.93297886964865 131.3796704779379,264.71345367317554 136.55355728976429,268.5 145.13463785732165,262.9024922319222 144.50367605080828,250.22568057558965" stroke="#4dd2ff" stroke-linecap="round" stroke-linejoin="round" stroke-width="0.5"><title>2023-07-18 1.7km</title><desc>1689685608000</desc></polyline></svg>