<?xml version="1.0" encoding="utf-8" ?>
<svg baseProfile="full" height="300mm" version="1.1" viewBox="0,0,200,300" width="200mm" xmlns="http://www.w3.org/2000/svg" xmlns:ev="http://www.w3.org/2001/xml-events" xmlns:xlink="http://www.w3.org/1999/xlink"><defs /><rect fill="#222222" height="300" width="200" x="0" y="0" /><text fill="#FFFFFF" style="font-size:12px; font-family:Arial; font-weight:bold;" x="10" y="20">Over 10km Runs</text><text fill="#FFFFFF" style="font-size:4px; font-family:Arial" x="10" y="280">ATHLETE</text><text fill="#FFFFFF" style="font-size:9px; font-family:Arial" x="10" y="290">Yunlong</text><text fill="#FFFFFF" style="font-size:4px; font-family:Arial" x="120" y="280">STATISTICS</text><text fill="#FFFFFF" style="font-size:3px; font-family:Arial" x="120" y="285">Number: 40</text><text fill="#FFFFFF" style="font-size:3px; font-family:Arial" x="120" y="290">Weekly: 2.0</text><text fill="#FFFFFF" style="font-size:3px; font-family:Arial" x="141" y="285">Total: 190.7 km</text><text fill="#FFFFFF" style="font-size:3px; font-family:Arial" x="141" y="290">Avg: 4.8 km</text><text fill="#FFFFFF" style="font-size:3px; font-family:Arial" x="167" y="285">Min: 1.1 km</text><text fill="#FFFFFF" style="font-size:3px; font-family:Arial" x="167" y="290">Max: 39.1 km</text><polyline fill="none" points="29.206521739135496,32.444747336237924 23.565217391354963,32.103657095940434 23.728260869567748,37.94471668387996 23.51630434783874,38.285793184739305 17.597826086974237,37.092021921955165 17.15760869573569,37.98735129040142 17.206521739135496,43.03946340709808 16.684782608761452,43.06077996300883 12.364130434871186,40.84384136964218 11.51630434783874,41.078326862087124 11.5,56.10592445252405 31.260869565187022,57.896342904059566 31.35869565216126,54.63520704687107 30.706521739135496,47.06823679966328 31.73369565216126,46.87639298551949 35.923913043458015,47.11086872384476 37.179347826051526,46.83376099234738 38.059782608703244,47.13218468129344 37.78260869567748,46.599284806041396 38.5,46.172963495817385 37.21195652172901,39.7140423184901 36.168478260864504,36.77226009356673" stroke="#4dd2ff" stroke-linecap="round" stroke-linejoin="round" stroke-width="0.5"><title>2024-08-18 4.9km</title><desc>1723938111000</desc></polyline><polyline fill="none" points="71.94386111205677,54.871388542087516 70.43284333415795,57.33648849208839 69.08803751179948,58.5 67.93966400052886,57.947826299860026 65.55225591140334,55.58134195210005 64.63053506682627,54.98971437026921 64.08656866679667,54.121989217208466 63.81458546681097,54.200873552952544 56.84879351052223,48.442195652096416 49.86789137648884,41.99297305631626 49.20304355426924,40.13901095344045 49.3692555098678,38.77810763835441 49.12749266537139,38.12723597510194 49.429696220962796,36.450733874356956 50.18520510994131,36.15487839639536 51.71133306558477,34.04442380268301 54.26495311030885,31.5 57.28698866616469,33.68939080875134 58.420251999632455,35.227860357495956 59.38730337744346,35.99708854247001 60.339244577568024,35.89846978985588 61.97114377771504,37.37774349730171 62.696432311146054,38.679490921786055 58.813116621924564,43.353843892837176 59.49307462194702,43.768019244700554 63.25550888897851,39.31063665996771 64.73630631132983,40.13901095344045 67.92455382278422,43.077726284143864 68.77072377840523,43.53134777100058 70.52350440080045,45.42470791822416 71.36967435642146,45.838876903188066 73.81752315670019,48.20553239014407 74.6939134679269,48.678858498256886 75.87250733462861,50.11854852194665 75.29832057910971,51.203236322355224 73.42465853440808,52.997882413779735 73.18289568996988,53.60923990885203 72.24606466770638,54.29947890769108" stroke="#4dd2ff" stroke-linecap="round" stroke-linejoin="round" stroke-width="0.5"><title>2024-08-14 5.1km</title><desc>1723587841000</desc></polyline><polyline fill="none" points="109.74818897573277,55.975944241647085 107.63129002926871,58.46589150284126 107.26540626073256,58.5 105.8802748513408,57.050380065935315 105.08317092701327,56.64107234880794 104.53434527420904,55.890671132809075 103.920183234266,55.65190609599813 103.00547381292563,54.52629290318146 97.11213168414542,49.83612087347137 91.17958772310521,44.34411581286986 90.6830311800586,43.133110913739074 90.77450212225085,42.26322638594138 90.43475290859351,41.12042703592306 90.63076207024278,38.39130860591831 92.32950813841308,36.497945128634456 92.74766101670684,36.46383018911729 92.35564269329188,36.42971523968299 91.80681704054587,35.74741415165772 91.48013510438614,35.90093224492739 90.6568966251798,37.043782801847556 90.87904034176609,38.08427878130897 90.52622385072755,38.25485100602236 90.25181102426723,34.34868442667357 90.35634924389888,31.994686725527572 93.3618230568245,31.5 94.44640708487714,31.7217563781669 96.77238247054629,31.56823277670628 94.42027252999833,34.723955025903706 99.77785628341371,39.329450278113654 101.55500601622043,40.3187551294468 102.35210994054796,41.61507290684676 105.93254396115663,44.66818541123939 102.63959004438948,48.77867418661481 103.24068480695132,48.94923075303086 105.33144919853657,46.35674399560958" stroke="#4dd2ff" stroke-linecap="round" stroke-linejoin="round" stroke-width="0.5"><title>2024-08-10 5.2km</title><desc>1723241479000</desc></polyline><polyline fill="none" points="145.675208913628,55.454916798495105 144.41169916430954,57.08433109683392 143.7799442896503,58.43888936055009 142.9225626740954,57.830321398272645 142.32089136482682,57.79105885431636 141.1476323119714,55.84754856022482 139.07186629524222,54.748176730645355 138.57548746519024,53.805850846882095 136.96601671306416,52.66719823672611 133.88245125341928,49.604567383474205 132.27298050140962,48.70147057407303 130.5281337047345,46.89525871023943 128.00111420603935,44.735625635570614 127.80557103059255,44.93195735226618 127.18885793862864,44.205528564736596 126.01559888571501,43.49872921065253 125.57938718661899,42.615224779205164 124.78217270190362,42.16365359969495 124.1955431754468,40.789297174691455 124.45125348184956,40.04321207368048 124.0,38.49212713052111 124.48133704729844,36.68577774746518 125.6245125348214,35.782593930722214 126.21114206122002,34.7223269049573 128.99387186631793,31.620015971828252 129.565459609963,31.561110639435356 129.62562674086075,31.875272113029496 129.9114206128288,31.83600196907355 131.23509749304503,32.81775211704371 131.731476323097,33.583512242446886 133.115320334211,34.604518940104754 133.5816155988141,34.64378827322798 134.25849582173396,36.13601440966886 135.6272980500944,36.45016516442411 137.1013927576132,36.29308987900731 138.07910863502184,36.90175558492774 138.34986072423635,37.922737016444444 138.12423398322426,38.25651772142737 135.16100278543308,41.3979424721183 133.89749303623103,43.55762929908815 134.3938718662248,43.75396274049126 135.25125348183792,42.9882606936153 136.9810584958177,40.61259318386146 138.07910863502184,39.4738285458734 138.53036211698782,39.37565872776031 144.30640668520937,44.08772893108835 145.4345403899788,45.50131770520238 147.22451253479812,46.83636008766189 148.08189415041124,46.93452444419381 148.2924791086116,47.58240739502071 149.05961002787808,48.03396032789897 149.3002785515855,48.56404226558516 151.0,49.36897749771015 150.74428969359724,50.58618745241256 147.34484679665184,54.159223829206894" stroke="#4dd2ff" stroke-linecap="round" stroke-linejoin="round" stroke-width="0.5"><title>2024-08-09 5.2km</title><desc>1723159591000</desc></polyline><polyline fill="none" points="183.64698572165798,55.363511272575124 183.82950784778222,55.74068780467496 182.84084633161547,56.236971117177745 182.11075782740954,57.16997882806754 182.04991711874027,57.686107995716156 181.15251666563563,58.5 179.58586841705255,56.336227561710984 179.05351221602177,56.276673703687266 178.2777931803139,55.363511272575124 177.13702989253215,54.84737326564209 176.66551440017065,54.4106395716517 176.7111449316726,53.91434957571619 176.37652103387518,54.11286579203443 163.15887707221555,42.77712437052105 162.20063591044163,41.38738858627039 161.8660120127024,40.3351505890314 161.57701864652336,37.77400888623379 161.72912041813834,36.3445134118665 163.1132465407718,35.37165370672301 165.15141028165817,32.6515803460934 166.53553640423343,31.5 167.08310278243152,31.519854916390614 170.763965657854,34.71645854317467 171.66136611090042,35.07383811577165 171.85909841413377,35.92757439297566 174.6425608364516,37.59532277606195 174.9619745570235,38.270357956615044 179.3881361138192,42.00284476217348 179.50981753115775,42.34035180165665 175.9050055416301,46.56904527434381 175.69206306122942,46.9859515739372 175.93542589602293,47.28374100319343 176.60467369150138,47.045509512070566 178.26258300314657,44.78228947255411 180.30074674409116,42.91609716558014 188.42298135347664,49.963816439470975 187.25179771118565,51.79020787151239 185.44178662786726,53.53716796422668" stroke="#4dd2ff" stroke-linecap="round" stroke-linejoin="round" stroke-width="0.5"><title>2024-08-08 4.9km</title><desc>1723122982000</desc></polyline><polyline fill="none" points="38.426919291348895,73.97718026632356 38.46013779529312,73.95550234961411 38.46345964567445,74.0162004763879 38.5,73.87746171811341 38.453494094501366,73.80375648844347 38.19106791338709,73.9858514285479 37.828986220483785,73.6390029588656 37.742618110234616,73.62599606222466 37.63631889765384,73.72571545709798 37.52337598426675,73.64333858979808 37.44365157482389,73.66935236212157 36.7460629921261,74.50178101246456 35.73289862203819,75.47291820264218 32.301427165366476,79.50886601677121 32.10875984252198,79.61723512291428 27.255536417331314,75.49893036807771 26.235728346466203,74.83994846887617 26.05302657482389,74.5494715286386 25.976624015762354,74.21130075566361 25.076402559061535,73.76473599846577 24.644562007888453,73.87746171811341 24.202755905513186,73.8817973141413 23.322465551187634,73.76473599846577 22.398991141744773,73.75606477149267 14.516240157492575,74.06822734319394 13.99138779527857,74.03787834867035 13.632627952771145,73.83410572287539 13.220718503944227,74.07256291129488 11.632874015747802,74.14193191470804 11.58304625985329,74.1029118702827 11.5,72.27758345286566 11.516609251964837,71.56216276771556 16.678764763797517,71.34102924109357 16.798351377961808,71.3497011752097 17.874630905513186,71.85266900884199 18.369586614178843,72.00876073754262 23.717765748035163,72.03477594566175 24.245939960630494,71.93505085706056 25.45177165354835,71.39306080768802 25.979945866158232,71.40606868504256 26.47157972441346,71.28899758309126 26.48818897639285,71.19360597264313 28.169045275601093,70.46948691017496 28.375000000014552,70.51284783147821 28.73375984253653,70.43913422747755 30.36146653543983,70.38276487708754 30.37807578741922,70.50851174220224 30.451156496070325,70.53452826831563 33.6002706693107,70.43479812741316 33.6600639763783,70.62558592971982 33.68331692914944,71.3497011752097 33.773006889765384,71.6792327897947 33.96567421260988,72.01309660714469 36.74938484252198,74.41073526835862 36.92212106300576,74.28934050751923 37.08821358268324,74.34570242263726 37.66621555118763,73.73872230992856 38.15784940945741,74.10724743330866" stroke="#4dd2ff" stroke-linecap="round" stroke-linejoin="round" stroke-width="0.5"><title>2024-07-21 16.7km</title><desc>1721568012000</desc></polyline><polyline fill="none" points="50.98353388218675,76.67436205971171 49.786573780933395,75.58071554321214 49.42748575046426,74.44242206035415 49.44458518049214,72.36668853271112 49.0,71.3622911945713 49.13679544016486,69.50971874357492 50.50474984169705,68.68386593749165 52.385687143716495,65.849147944391 53.8391386953881,64.66613980516559 54.129829005745705,63.88490298129909 54.813806206395384,63.817939638742246 56.84863837872399,65.20184274150233 57.07093096891185,65.849147944391 60.52501583273988,68.59458428506332 60.713109562930185,69.15259375491587 61.70487650408177,69.44275787194783 63.705509816354606,71.58549117493385 64.50918302719947,71.85333072005596 69.33122229255969,76.31725385579921 72.80240658647381,79.01786388960318 73.62317922734655,80.06684827477147 76.0,81.71842608237057 75.93160227988847,82.23175067496777 74.34135528816842,83.77171408235154 72.97340088663623,86.1820603612432" stroke="#4dd2ff" stroke-linecap="round" stroke-linejoin="round" stroke-width="0.5"><title>2024-07-16 2.5km</title><desc>1721136594000</desc></polyline><polyline fill="none" points="110.09446461926564,72.04863265130552 108.73267822878552,73.59310542929961 107.68606510775862,75.0211206335116 106.60377199394861,75.75839603874192 105.64041218932834,76.79832497290408 104.63542572647566,76.0765854153251 97.9097470905981,70.3023152679707 97.80865377778537,69.85214412885034 97.70161379946512,66.1031566953061 97.66593380671111,63.61144696160409 97.77297378500225,61.99681861638237 98.9623068771325,61.67078192459303 100.44897324225167,61.5 100.65115986790624,66.39035558557953 100.78198650802369,66.96474869849771 101.10310644292622,67.64780267798778 106.25291873174137,72.02534879786981 108.42345162489801,74.07428876162885 107.6265984531492,75.09872905365046 106.61566532484721,75.75063529839463 105.61662552747293,76.81384614580384 105.72961217124248,76.93801536554747 105.66419885118376,77.09322648135276 106.46699868835276,77.8227126404272 106.44321202646825,77.93911907781876 105.15278562155436,79.48342029947162 104.76030570117291,80.15855293702771 103.6780125873338,81.44671320591078 102.6373461317562,82.47101108835705 101.81075963273179,82.99867197409912 100.90686648272094,83.22370222562677 99.84241336528794,84.47299074109105 99.84241336528794,84.92303777917186 101.01985312649049,85.95502777613365 101.42422637779964,86.1567678353058 101.98915959653095,86.05589790164595 102.61355946987169,85.35756233049324 102.98225272848504,84.83768432402212 102.9049460774695,84.32556070855571 101.45990637055365,83.16162501023791 100.91875981364865,83.2392215181062 99.84836003073724,84.4807502051226 99.82457336891093,85.1247817635558 99.65212007053196,85.73776839277707 99.12881351003307,86.65335548121948 97.88596042874269,88.27499213251212 97.59457382117398,88.5 94.12172119220486,85.63689766227253 90.2801753047097,81.93558511753872 89.90553538070526,81.45447311272801 90.21476198465098,81.5631116888544 93.1464680567151,77.58213852677727 94.32390781785944,75.23842392365623 94.42500113073038,74.84262083615249 95.19806764059467,74.36920541989821 97.52321383566596,73.58534437203343 98.1773470363114,73.15848447263124 99.41425345212338,71.82355497306344 100.55006655509351,70.20141517257434 102.0961995748512,68.4860841704176 106.28265205907519,72.03311008349556 108.39371829756419,74.00443983915102 109.56521139331744,72.6229644661762 109.91606465546647,72.11072287716524 109.86849133175565,72.00206493418227" stroke="#4dd2ff" stroke-linecap="round" stroke-linejoin="round" stroke-width="0.5"><title>2024-07-06 16.1km</title><desc>1720267100000</desc></polyline><polyline fill="none" points="128.81297889631242,72.66674423438963 130.7292335513048,71.33340739167761 133.7952409996651,87.00001678068656 142.0990111725405,87.50001140637323 145.67601986275986,82.33338969573379 143.5042645870708,64.5000315879006 137.11674906872213,62.333342900150456 131.11248448258266,67.50005527865142 132.5177378966473,84.66670562699437 136.73349813837558,88.33333529520314 142.35451179370284,87.50001140637323 145.80377017334104,81.16672993882094 144.27076644916087,65.166704201838 137.11674906872213,62.16667436843272 132.64548820676282,65.66670840629376 131.62348572397605,69.6667341440916 133.1564894481562,84.83337086765096 138.52200248325244,88.00000581308268 142.86551303509623,86.83335185656324 145.93152048345655,80.00006898795255 145.42051924206316,67.83339075685944 142.86551303509623,63.16668519063387 133.7952409996651,63.50002193625551 131.36798510327935,69.16673169471323 132.77323851687834,85.16670127620455 136.60574782826006,87.833341035177 142.9932633456774,87.33334655570798 145.80377017334104,84.00004441977944 145.29276893194765,68.00005845958367 141.07700869021937,62.16667436843272 137.5,61.5 132.2622372759506,65.33337229397148 131.87898634467274,82.66672083549201 133.53974037896842,86.000026871101 138.90525341406465,88.5 145.80377017334104,84.16670975787565 145.1650186209008,67.50005527865142 138.77750310394913,61.833337233169004 134.43399255210534,63.33335357543547 131.49573541386053,67.33338750316761 132.64548820676282,84.16670975787565 135.4559950348921,87.16668168001343 140.94925838010386,88.16667056630831 146.05927079403773,83.33338282222394 144.65401737997308,65.00003608502448 137.11674906872213,62.000005812966265 131.49573541386053,67.83339075685944 132.77323851687834,84.66670562699437 138.52200248325244,88.16667056630831 143.6320148971863,87.16668168001343 146.18702110368758,79.66673706821166" stroke="#4dd2ff" stroke-linecap="round" stroke-linejoin="round" stroke-width="0.5"><title>2024-02-29 2.9km</title><desc>1709196138000</desc></polyline><polyline fill="none" points="163.05535122239962,61.5 172.8921208032407,67.33338750316761 172.50887004099786,82.83338636858389 177.6188802132383,88.33333529508673 184.26189343677834,86.83335185598116 186.81689852289855,83.16671736212447 185.7948964885436,66.3333803373389 180.55713606160134,61.833337233169004 175.31937563605607,62.333342899917625 171.8701187693514,65.66670840617735 173.14762131264433,84.33337507175747 178.89638275606558,88.33333529508673 186.3058975059539,85.16670127632096 185.9226467423141,66.3333803373389 180.55713606160134,62.16667436878197 172.3811197867617,64.83336794318166 172.8921208032407,82.83338636858389 175.57487614406273,87.33334655524231 182.34563962183893,88.5 186.4336477597244,85.00003608386032 186.6891482686624,73.1667451482499 183.36764165665954,63.000016781152226 173.78637258382514,63.50002193602268 171.8701187693514,68.66672902554274 174.29737360123545,86.50002193532418 182.98439089395106,88.5 186.05039699701592,86.00002687051892 186.94464877760038,81.16672993893735 184.77289445372298,64.83336794318166 181.83463860535994,62.50001140648965 174.8083746181801,63.000016781152226 171.99786902358755,68.00005845935084 173.91412283852696,85.66669670608826" stroke="#4dd2ff" stroke-linecap="round" stroke-linejoin="round" stroke-width="0.5"><title>2024-02-26 2.1km</title><desc>1708947688000</desc></polyline><polyline fill="none" points="20.492686572950333,102.26694831845816 16.81065588677302,108.06449348235037 19.349987394642085,115.68407914135605 23.9207841088064,118.5 31.157878906931728,116.84357681323308 32.42754466086626,97.79453605914023 26.079215890727937,91.5 19.476953969337046,94.64727240230422 18.715154517441988,111.54300633713137 22.524151779711246,117.17486164462753 27.221915069501847,117.67178870958742 32.68147781165317,114.52458028239198 32.55451123602688,97.62889082136098 26.714048767462373,91.66564613406081 18.969087668228894,95.80679160903674 18.84212109260261,112.53686519083567 21.254486025776714,117.00921924074646 24.555616985540837,118.00307329848874 32.30057808570564,114.85586579178926 32.42754466086626,97.79453605914023 31.157878906931728,94.4816267042188 25.4443830139935,91.66564613406081 18.84212109260261,97.29760027374141 19.2230208190158,114.19329467555508 24.428650410845876,118.00307329848874 30.01517972862348,116.67793436127249 33.18934411276132,111.70864954008721 32.30057808570564,95.97243711340707 29.507313426584005,92.32823042757809 25.190449862740934,91.5 19.476953969337046,95.3098549512215 18.715154517441988,112.03993587312289 23.53988438239321,118.00307329848874 28.999447125010192,117.50614637858234 32.68147781165317,114.19329467555508 32.93541096244007,98.78840697626583 31.66574520803988,95.1442093505757 26.96798191871494,92.32823042757809 21.50841917656362,93.32210614078213 19.60392054542899,95.97243711340707 18.969087668228894,114.35893749108072 23.412917806766927,118.16871555661783 31.66574520803988,115.35279387363698 32.30057808570564,98.1258264615899 30.01517972862348,93.81904367066454 26.079215890727937,92.32823042757809 18.588187942281365,96.46937347960193 18.84212109260261,113.53072317270562 21.381452600937337,117.8374310163781 30.269112878944725,116.84357681323308 32.55451123602688,113.19943727517966 32.68147781165317,103.4264597252477" stroke="#4dd2ff" stroke-linecap="round" stroke-linejoin="round" stroke-width="0.5"><title>2024-01-18 3.0km</title><desc>1705581243000</desc></polyline><polyline fill="none" points="59.30624317470938,94.83336794329807 55.72923553083092,96.1667123909574 55.60148525843397,114.16670975799207 58.66749180993065,117.50001140625682 63.777502729557455,118.33333529555239 68.88751364918426,115.0000360844424 68.88751364918426,97.00005187850911 66.58800873486325,92.83334834722336 62.62775027239695,91.5 57.26223880704492,93.66669027204625 54.96273389318958,97.33338750293478 55.21823443938047,112.66672083549201 61.09474699618295,118.00000581273343 68.63201310299337,114.66670562652871 68.75976337585598,96.83338402933441 63.394251910503954,91.83333723281976 58.53974153706804,93.00001678126864 55.34598471224308,97.00005187850911 55.85698580369353,113.33338282257318 58.53974153706804,117.50001140625682 62.372249726671726,118.5 68.88751364918426,114.50004036154132 69.27076446823776,97.66672302980442 64.67175464099273,92.00000581296626 58.92299235565588,92.66667988931295 55.984736076556146,95.83337642531842 55.85698580369353,113.33338282257318 61.86124863475561,118.5 69.39851474110037,115.0000360844424 68.50426283013076,96.83338402933441 63.26650163717568,92.66667988931295 55.85698580369353,95.66670840571169 55.984736076556146,114.16670975799207 62.755500545725226,118.5 68.88751364918426,115.33336644410156 69.01526392158121,97.16671970312018 64.16075354861096,92.00000581296626 58.411991264205426,92.83334834722336 55.21823443938047,97.33338750293478 55.473734985571355,112.00005845841952 60.71149617806077,118.00000581273343 68.63201310299337,115.50003158731852 69.01526392158121,96.83338402933441 63.01100109145045,91.5 55.60148525843397,96.33338033745531 55.85698580369353,112.50005527795292 57.90099017182365,116.16669191711117 62.24449945334345,117.66667623317335 67.48226064629853,117.0000167802209 70.03726610634476,113.16671736259013 68.37651255680248,95.33337229420431 64.54400436766446,92.00000581296626 59.17849290184677,92.16667436843272 55.85698580369353,95.33337229420431 55.60148525843397,109.16673900594469" stroke="#4dd2ff" stroke-linecap="round" stroke-linejoin="round" stroke-width="0.5"><title>2024-01-17 3.3km</title><desc>1705483266000</desc></polyline><polyline fill="none" points="93.6221255492419,106.95290702185594 90.6284293779172,109.50006975582801 95.70469679823145,116.12266671471298 101.82224984373897,117.99057184869889 107.93980288784951,115.78304727654904 108.85092781018466,99.48119743622374 105.33658882649615,93.02831864915788 100.00000000046566,91.83962653996423 94.92373258015141,95.06607371894643 94.53325047064573,111.87741659942549 99.34919648524374,117.31133396551013 108.5906064035371,115.27361793338787 108.3302849973552,98.46232422208413 103.51433898322284,91.66981328232214 94.01260765828192,96.76420021243393 94.14276836114004,109.83969103102572 97.91742875101045,117.82076241495088 107.54932077927515,116.63209568534512 108.85092781018466,99.14157313096803 105.59691023314372,92.5188793229172 98.43807156337425,92.68869245657697 94.01260765828192,96.93401272536721 94.53325047064573,113.40570842847228 100.65080351568758,118.5 108.20012429496273,116.46228605299257 108.72076710686088,97.4434501142241 104.0349817960523,91.5 98.04758945386857,92.34906616492663 95.31421468919143,95.74532461480703 94.66341117350385,113.40570842847228 96.09517890727147,116.46228605299257 102.34289265563712,118.5 109.37157062254846,113.7453285624506" stroke="#4dd2ff" stroke-linecap="round" stroke-linejoin="round" stroke-width="0.5"><title>2024-01-13 2.0km</title><desc>1705132259000</desc></polyline><polyline fill="none" points="129.5451420461759,99.26256470545195 130.96796216722578,113.94379430869594 133.29621327668428,117.31876321486197 138.21141006145626,118.5 145.32551067043096,113.10005053936038 144.80812153499573,96.39379687560722 138.3407573448494,91.83750389900524 131.6146985865198,95.7187916438561 131.6146985865198,113.60629687458277 137.047284506727,117.82500769919716 145.4548579538241,113.77504560397938 145.19616338657215,96.39379687560722 140.9277030210942,92.17500769952312 136.14185352018103,92.006255811546 130.83861488383263,97.74380615423433 131.2266567349434,112.42505507986061 134.46033883048221,117.99375581101049 137.30597907397896,118.5 143.6439959811978,116.30627357913181 145.32551067043096,112.76255285891239 144.67877425206825,95.88754298910499 138.21141006145626,91.83750389900524 134.7190333986655,92.006255811546 131.2266567349434,96.22504560498055 131.48535130312666,113.94379430869594 137.952715493273,118.5 145.19616338657215,113.26879934268072 144.29073240002617,95.38128887990024 138.0820627771318,91.5 131.2266567349434,96.05629430920817 132.26143500534818,112.5938039815519 137.952715493273,117.48751140071545" stroke="#4dd2ff" stroke-linecap="round" stroke-linejoin="round" stroke-width="0.5"><title>2024-01-11 2.0km</title><desc>1704963338000</desc></polyline><polyline fill="none" points="172.08281276514754,98.10645157343242 170.21140963351354,101.26604313729331 170.43157470738515,114.04792344977614 174.94495873106644,118.35638494248269 179.67850782861933,117.78192450263305 182.10032364632934,114.47877044946654 181.32974588591605,98.82454145798692 178.13735230918974,95.5213236414711 171.31223500473425,95.95217876986135 167.45934620453045,92.79257010918809 168.56017157575116,91.5 168.34000650187954,95.37770522356732 171.97273022774607,95.95217876986135 170.10132709611207,98.96815937163774 170.54165724478662,112.61176541814348 172.74330798815936,117.3510789515567 177.80710469698533,118.5 181.54991096025333,116.3457719310536 182.32048872020096,101.12242555926787 177.47685708617792,95.5213236414711 173.6239682850428,96.09579710348044 170.32149217044935,99.82986641401658 170.65173978172243,114.04792344977614 175.05504126800224,118.21276986418525 179.01801260607317,118.06915476452559 181.99024110892788,114.47877044946654 181.43982842331752,98.68092352291569 175.4953714166768,95.09046832495369 170.87190485652536,99.5426308172755 171.20215246779844,114.90961726062233 175.71553649147972,118.06915476452559 180.22892051469535,117.06384847918525 182.5406537950039,113.61707626050338 181.7700760345906,98.53730556712253 178.79784753127024,95.09046832495369 175.93570156535134,94.80323134205537 170.87190485652536,98.82454145798692 170.9819873929955,113.47346048912732 175.4953714166768,117.63830933981808 179.67850782861933,117.2074637261685 182.32048872020096,113.7606920110411 181.99024110892788,98.96815937163774 180.55916812596843,95.80856041470543 177.25669201090932,94.65961281914497 170.65173978172243,98.39368759014178 170.54165724478662,113.18622888275422 173.2937206737697,116.63300261320546" stroke="#4dd2ff" stroke-linecap="round" stroke-linejoin="round" stroke-width="0.5"><title>2024-01-09 2.6km</title><desc>1704792913000</desc></polyline><polyline fill="none" points="14.58673413656652,131.06969162542373 19.69512871094048,127.48106644977815 20.743004521820694,145.2531975560123 25.19647671468556,148.1582317459397 30.04290233645588,147.98734758188948 34.23440557718277,144.74054371356033 34.889327958691865,140.29753432807047 34.49637452978641,127.31017926183995 30.828809194266796,122.18355200090446 24.541554333176464,121.84177605004515 20.743004521820694,124.9177560058888 20.743004521820694,143.03169594914652 26.37533700093627,148.5 33.841452148742974,146.79115773225203 34.758343481924385,128.33550201519392 30.828809194266796,122.18355200090446 24.541554333176464,122.18355200090446 21.13595794979483,125.77219344524201 21.13595794979483,142.17727112979628 24.934507762547582,147.47469493933022 31.74570052837953,147.6455791783519 34.758343481924385,145.2531975560123 34.758343481924385,127.82284075079951 31.74570052837953,122.69621573900804 26.506321476772428,121.5 23.62466299906373,121.84177605004515 20.873988997656852,125.94308085832745 21.00497347395867,144.05700490798336 27.292228335049003,147.98734758188948 35.15129691082984,144.9114283528179 34.889327958691865,128.67727606592234 30.43585576536134,121.84177605004515 24.803523285780102,121.67088803753722 20.481035568751395,126.96840481087565 21.266942426096648,144.9114283528179 27.947150716092438,148.3291158854263 35.15129691082984,144.22788964677602 34.23440557718277,125.25953105615918 29.911917860154063,121.84177605004515 24.803523285780102,122.0126640376402 20.743004521820694,125.4304185443325 20.743004521820694,142.6899260963546 25.851399095728993,147.81646339292638 34.889327958691865,144.74054371356033 35.41326586343348,129.18993695557583 31.74570052837953,122.0126640376402 23.62466299906373,122.52532785164658 20.743004521820694,129.18993695557583 21.921864807605743,146.27850456547458 31.221762623172253,147.47469493933022" stroke="#4dd2ff" stroke-linecap="round" stroke-linejoin="round" stroke-width="0.5"><title>2024-01-08 3.0km</title><desc>1704701613000</desc></polyline><polyline fill="none" points="55.118149291258305,126.48730782361235 55.90906186727807,144.8885709445458 62.89545628754422,147.9840822427068 68.95911937020719,143.168838925194 68.30002555716783,126.14335623942316 63.55455010058358,122.01592937600799 56.04088062932715,124.93952490098309 55.381786816287786,142.4809454131173 60.39089979743585,148.15605485334527 65.7954690665938,147.8121096061077 69.22275689523667,143.85673203435726 68.4318443192169,127.17521069175564 63.42273133806884,121.84395294240676 58.41361835738644,122.53185852686875 55.513605578802526,125.62742867390625 55.249968053773046,143.68475879484322 61.181812373455614,148.32802743907087 65.26819401606917,148.15605485334527 69.48639442073181,144.20067843887955 69.09093813225627,127.69113757787272 62.89545628754422,121.5 58.01816206937656,122.53185852686875 55.118149291258305,126.31533204414882 55.249968053773046,142.9968655849807 59.99544350942597,148.15605485334527 65.66365030407906,147.9840822427068 69.09093813225627,144.8885709445458 69.48639442073181,129.5828675593948 64.34546267706901,121.67197648389265 58.01816206937656,122.70383485953789 55.381786816287786,125.4554527682485 56.30451815482229,146.43632761226036 65.00455649057403,148.15605485334527 70.01366947125643,142.65291882900055 67.77275050617754,124.59557286347263 59.731805983930826,121.67197648389265 54.854511765763164,126.83125930826645 55.645424341317266,145.06054400838912 62.49999999953434,148.5 69.61821318324655,143.51278553029988 67.77275050617754,124.76754889450967 60.39089979743585,121.67197648389265 54.986330528277904,129.06694150273688 55.381786816287786,144.02870524919126 58.80907464539632,148.15605485334527 63.55455010058358,148.5 67.24547545565292,147.46816425863653 70.14548823423684,141.7930514990585" stroke="#4dd2ff" stroke-linecap="round" stroke-linejoin="round" stroke-width="0.5"><title>2023-12-29 2.9km</title><desc>1703839119000</desc></polyline><polyline fill="none" points="94.72849306697026,124.38682242622599 92.7760830912739,128.80194872617722 94.5983324018307,145.95285700750537 102.40797230228782,147.65095295628998 106.44295291788876,142.21703717962373 105.7921495931223,125.0660737195285 103.18893629265949,122.17925298109185 97.85234902659431,121.5 93.16656508669257,126.42457511241082 94.33801107201725,146.29247639642563 102.79845429770648,147.65095295628998 106.70327424770221,143.2358983248705 105.66198892751709,124.55663528700825 97.85234902659431,121.5 93.29672575136647,126.25476252532098 93.42688641650602,144.08494859619532 99.54443767247722,148.5 107.09375624312088,143.7453285616357 105.66198892751709,124.72644812276121 97.20154570182785,121.5 93.16656508669257,128.63213648681995 93.29672575136647,143.7453285616357 94.98881439678371,146.8019052920863 100.45556232752278,148.16038125671912 106.96359557844698,143.91513859131373 106.57311358302832,125.74532461480703 98.63331301696599,122.0094397731591 92.7760830912739,128.4623242225498 93.6872077472508,144.93399824667722 101.36668698256835,148.5 106.57311358302832,143.2358983248705 106.70327424770221,126.42457511241082 103.18893629265949,122.68869245704263 98.37299168715253,122.51887932315003 92.90624375687912,128.4623242225498 93.81736841145903,145.61323752021417 102.53813296789303,148.16038125671912 107.35407757339999,141.87741659930907 106.57311358302832,125.40569921641145 102.79845429770648,122.34906616492663 97.59202769678086,122.0094397731591 92.64592242660001,129.31138529616874 93.94752907659858,145.7830472763162 102.27781163807958,148.3301906407578 107.22391690779477,142.55665766075253" stroke="#4dd2ff" stroke-linecap="round" stroke-linejoin="round" stroke-width="0.5"><title>2023-12-28 2.9km</title><desc>1703769423000</desc></polyline><polyline fill="none" points="132.773237825837,127.83339075697586 129.32397894188762,126.33338033687323 131.24023387720808,143.0000518776942 135.83924572262913,147.50001140648965 142.6100131617859,145.83336180110928 145.4205204001628,142.16672408941668 145.29277007095516,129.83340157847852 141.077009213157,122.50001140707172 135.71149539388716,122.16667436878197 131.11248354800045,125.00003608490806 131.11248354800045,143.16671736212447 135.32824440672994,147.33334655570798 139.92725625168532,147.83334103564266 145.03726941300556,143.16671736212447 144.3985177683644,127.33338750293478 139.92725625168532,122.33334289991762 132.9009881541133,122.50001140707172 130.60148223256692,125.00003608490806 130.85698289005086,141.5000614199089 134.56174243241549,147.50001140648965 140.56600789632648,147.66667623328976 143.63201579404995,145.00003608432598 144.2707674386911,128.16672613762785 140.8215085552074,122.16667436878197 132.26223650947213,123.00001678115223 129.96273058699444,127.83339075697586 132.51773716742173,146.00002687145025 139.41625493578613,148.0000058131991 145.16501974267885,141.5000614199089 143.24876480689272,124.166695134365 138.52200263226405,121.5 132.51773716742173,122.83334834722336 130.2182312454097,128.83339660661295 132.9009881541133,146.33335693844128 138.13875164510682,148.5 141.71576085779816,147.50001140648965 144.9095190842636,143.16671736212447 145.67602105857804,135.66674642788712" stroke="#4dd2ff" stroke-linecap="round" stroke-linejoin="round" stroke-width="0.5"><title>2023-11-08 2.1km</title><desc>1699431646000</desc></polyline><polyline fill="none" points="169.79475135030225,123.79093438549899 167.16077010519803,129.6818869812414 168.16419153194875,144.5727677618852 175.31356919649988,148.00909672433045 181.33409775514156,145.5545771131292 182.5883745388128,142.93641692830715 181.33409775514156,125.26367544219829 177.94755044113845,121.99091490660794 172.93044330831617,121.66363832645584 168.03876385372132,126.90005211986136 168.2896192097105,143.75459264428355 175.4389968747273,148.00909672433045 182.21209150366485,143.2636872860603 181.83580846851692,126.24550173606258 178.9509718674235,122.31819139060099 174.31014776974916,121.5 168.16419153194875,128.04551437112968 168.2896192097105,143.918227715767 174.9372861608863,148.17273117334116 182.08666382497177,143.42732242960483 181.83580846851692,126.73641456000041 178.70011651096866,122.48182959691621 175.1881415178068,121.99091490660794 171.299883489497,122.80910593783483 167.9133361754939,127.71823956188746 168.4150468884036,143.1000521191163 171.04902813304216,147.19092411885504 176.44241830101237,147.84546225098893 180.45610400754958,146.3727509152377 182.83922989526764,141.3000637012301 181.83580846851692,125.91822640039027 174.43557544751093,121.5 171.299883489497,122.80910593783483 168.03876385372132,129.02733822411392 168.6659022453241,143.2636872860603 171.04902813304216,147.19092411885504 176.19156294455752,148.5 182.4629468601197,142.7727817130508 181.83580846851692,126.73641456000041 176.06613526586443,121.99091490660794 168.54047456663102,126.57277697592508 168.54047456663102,144.7364027139265 174.81185848312452,148.5 182.08666382497177,144.24549778655637 182.08666382497177,127.06368965632282 179.5781102590263,122.80910593783483 174.31014776974916,121.5 168.4150468884036,126.57277697592508 168.79132992355153,143.1000521191163" stroke="#4dd2ff" stroke-linecap="round" stroke-linejoin="round" stroke-width="0.5"><title>2023-10-27 2.9km</title><desc>1698413800000</desc></polyline><polyline fill="none" points="21.486866978928447,153.0000167810358 17.39885764522478,156.83338402980007 19.442862311843783,175.66669670597184 28.002131854183972,177.50001140672248 32.2178914793767,171.16672993870452 31.323639437090605,155.00003608467523 27.2356301038526,151.5 21.997868145350367,151.5 18.804110853467137,153.6666902723955 17.782108520157635,159.50006668525748 19.315112019889057,175.50003158731852 27.618880979251117,178.16667056665756 30.68488797917962,176.833351856214 32.60114235430956,171.33339569158852 30.812638270668685,155.00003608467523 22.76436989568174,152.5000114068389 17.9098588116467,157.66672302992083 18.9318611449562,175.00003608420957 26.46912835398689,178.5 32.2178914793767,173.16671736247372 30.94038856215775,155.3333722942043 23.658621937502176,152.00000581296626 17.9098588116467,156.83338402980007 19.059611436910927,175.16670127643738 23.658621937502176,178.33333529543597 28.129882145673037,177.83334103494417 32.2178914793767,172.5000552778365 31.45138972904533,156.16671239130665 27.49113068729639,152.1666743683163 20.720365228131413,152.83334834768903 17.526607936713845,158.3333937911084 20.209364062175155,176.833351856214 26.213627770077437,178.16667056665756 31.195889146067202,175.16670127643738 32.2178914793767,162.66674423450604 31.96239089500159,157.33338750316761 28.385382728651166,152.33334289945196 23.01987047865987,152.1666743683163 18.293109687045217,155.3333722942043 18.16535939509049,172.83338636881672 20.720365228131413,177.33334655535873 27.874381562694907,178.16667056665756 31.323639437090605,175.00003608420957 31.834640603978187,157.8333907565102 27.49113068729639,152.33334289945196 19.315112019889057,153.83335858397186 18.037609103601426,171.66672712389845 21.486866978928447,177.66667623294052" stroke="#4dd2ff" stroke-linecap="round" stroke-linejoin="round" stroke-width="0.5"><title>2023-10-21 2.9km</title><desc>1697891041000</desc></polyline><polyline fill="none" points="55.31743507133797,151.5 55.80438862601295,172.30594168405514 59.821755450218916,178.18235684302635 68.70865781931207,175.9588521438418 68.70865781931207,157.0588784016436 66.27389004686847,153.8823799417587 61.76956966845319,152.92942859232426 55.80438862601295,157.21770308096893 56.65655734576285,175.64120824378915 61.40435450198129,178.34117843292188 66.39562843600288,177.38824854406994 68.83039620751515,174.21180954331066 69.19561137352139,159.44124614959583 64.08259905176237,153.08825387549587 56.16960379201919,156.26475465786643 55.682650237344205,172.1471192111494 57.99567962111905,177.0706050619483 63.96086066309363,178.5 67.8564890990965,176.59413966536522 69.3173497626558,160.71184014517348 68.70865781931207,156.58240422513336 65.17824454978108,153.56472958507948 57.021772511769086,155.78828013280872 55.9261270146817,174.68827598600183 60.79566255863756,178.5 68.70865781931207,175.80003020563163 69.19561137352139,157.69417697924655 66.63910521287471,154.3588553033769 62.13478483399376,153.56472958507948 56.29134218022227,157.3765277370112 56.04786540288478,173.10005369863939 59.70001706155017,178.18235684302635 65.42172132665291,178.02353522996418 69.43908815085888,174.21180954331066 69.68256492866203,160.87066428991966 68.58691943064332,156.58240422513336 64.69129099464044,153.72355477511883 60.3087090048939,153.8823799417587 55.682650237344205,157.69417697924655 56.41308056889102,174.37063171423506 60.18697061575949,178.18235684302635 65.29998293798417,177.86471359303687 69.3173497626558,173.89416513266042 69.07387298485264,157.8530015652068 64.08259905176237,153.40590437164064 57.021772511769086,155.62945524486713 55.43917345954105,161.98243265401106 57.50872606644407,176.911783286836 61.03913933690637,178.5 67.49127393309027,176.911783286836 69.19561137352139,163.57067119912244" stroke="#4dd2ff" stroke-linecap="round" stroke-linejoin="round" stroke-width="0.5"><title>2023-10-16 3.1km</title><desc>1697460359000</desc></polyline><polyline fill="none" points="91.81066067703068,155.30985495168716 93.84212469542399,173.6963660841575 99.80955024808645,178.5 108.06237282138318,173.36508023599163 107.04664081288502,155.80679160915315 102.22191376937553,151.5 96.00055521400645,152.49387644033413 93.4612251915969,155.14420935045928 93.84212469542399,173.36508023599163 100.06348325079307,178.33435779006686 104.5073107900098,177.34050402313005 107.93540632072836,171.87429271859583 106.91967431129888,155.6411460810341 100.06348325079307,151.6656461340608 93.84212469542399,155.30985495168716 93.96909119607881,173.53072317223996 98.03201923239976,178.00307329790667 103.11067927768454,177.83743101579603 108.18933932296932,173.19943727517966 107.68147331802174,158.1258264617063 101.71404776489362,151.6656461340608 95.7466222117655,153.15646024933085 93.71515819430351,156.13808259309735 93.96909119607881,173.53072317223996 96.38145471783355,177.17486164346337 101.33314826199785,178.5 107.80843981960788,173.53072317223996 106.15787530411035,153.98468946525827" stroke="#4dd2ff" stroke-linecap="round" stroke-linejoin="round" stroke-width="0.5"><title>2023-10-12 1.8km</title><desc>1697101056000</desc></polyline><polyline fill="none" points="129.7064248016104,160.38614482281264 131.8021761160344,176.10762012621854 140.44715028489009,177.64557917881757 145.03160628443584,171.83550102752633 143.19782388489693,154.9177560057724 134.42186525836587,152.01266403798945 130.23036263044924,157.13929204898886 131.40922274440527,175.4240821202984 139.53025908581913,178.15823174640536 144.63865291280672,173.54435054119676 143.9837306276895,157.3101792621892 138.74435234302655,152.35443993890658 134.55284971510991,152.35443993890658 130.75430045835674,155.94308085832745 130.492331544403,172.34815614379477 134.02891188673675,177.98734758235514 142.93585497047752,176.79115773318335 145.2935751983896,171.83550102752633 144.24569954164326,156.45574294694234 140.44715028489009,152.52532785153016 134.55284971510991,152.1835520005552 130.492331544403,156.62663025967777 130.8852849160321,173.88612014369573 133.89792742952704,177.64557917881757 138.35139897139743,178.15823174640536 144.37668399885297,174.5696590502048 144.90062182722613,171.4937308243243 143.45979279885069,154.74686844309326 136.51761657185853,151.84177605051082 130.36134708765894,156.79751754796598 131.0162693732418,174.5696590502048 137.0415544002317,178.5 143.06683942722157,176.62027336878236 144.7696373704821,173.37346570240334 143.9837306276895,156.9684048112249 136.91056994348764,151.5 130.23036263044924,157.13929204898886 131.93316057277843,175.93673566239886 139.66124354302883,177.81646339269355 143.85274617001414,175.25319755647797 144.90062182722613,170.81019011954777 143.5907772560604,155.25953105674125 139.13730571419,151.67088803788647 133.11202068673447,152.52532785153016 130.23036263044924,157.99372786399908 131.67119165882468,175.5949666594388 136.12466320069507,178.5 141.10207257093862,178.15823174640536 144.90062182722613,168.75956560508348" stroke="#4dd2ff" stroke-linecap="round" stroke-linejoin="round" stroke-width="0.5"><title>2023-10-10 2.9km</title><desc>1696942258000</desc></polyline><polyline fill="none" points="174.0428181993775,175.55262200058496 175.93912176659796,174.44439391013293 180.0748695465736,174.96313992375508 180.725030769594,175.69409737778187 179.80396903690416,176.99094920723292 180.36383009015117,178.5 183.88553671492264,177.32105527706153 184.82465848163702,176.07136444227945 185.83602038410027,173.05320316445432 186.0166207238799,165.60187515296275 184.06613705470227,162.1826376451063 184.51763790403493,160.9328292532009 186.4320015052799,159.2821240483463 186.75708211679012,158.31527456500044 186.55842174310237,157.13618196752213 185.40257956879213,155.60334867464553 185.2219792290125,154.1648303034017 179.13574777997565,151.5 170.7378319822019,152.51405567086476 165.89774287724867,151.73582747044566 163.24291788320988,152.46689043255174" stroke="#4dd2ff" stroke-linecap="round" stroke-linejoin="round" stroke-width="0.5"><title>2023-10-07 3.0km</title><desc>1696669067000</desc></polyline><polyline fill="none" points="19.922522129956633,182.84162991598714 17.351647258736193,186.86651024583261 18.12290972005576,201.12118113820907 23.264659462030977,208.16460017219651 28.277865460142493,207.49380022333935 32.64835274126381,203.63669290184043 32.13417776674032,186.86651024583261 25.578446846455336,181.83540762588382 21.07941582193598,182.84162991598714 17.737278489395976,187.36961929430254 18.765628437511623,204.3074951072922 23.39320320589468,208.5 27.63514674268663,208.16460017219651 32.3912652535364,203.63669290184043 31.87709027901292,187.36961929430254 26.735340538434684,182.33851888112258 18.765628437511623,184.51866510347463 18.3799972073175,203.63669290184043 23.7788344360888,208.5 28.149321717210114,208.16460017219651 32.13417776674032,203.80439348972868 31.491459048818797,186.1956978389062 25.835534332785755,181.66770382528193 17.608734745997936,185.86029148800299 18.894172181375325,204.13979459297843 25.449903102125973,207.82920024706982 32.26272151013836,203.63669290184043 31.620002792216837,186.02799467591103 24.80718438467011,181.5 17.737278489395976,185.5248850391945 18.25145346391946,203.46899228950497 23.007571975234896,207.82920024706982 29.691846639383584,206.82299988158047 32.00563402287662,203.13359099067748 31.87709027901292,187.0342132867081 26.735340538434684,181.83540762588382 18.12290972005576,185.3571817780612 18.637084694113582,204.3074951072922 24.550096897408366,208.5 30.72019658749923,206.31989936868194 32.26272151013836,203.30129165260587 31.620002792216837,186.1956978389062 25.706990589387715,181.66770382528193 21.336503309197724,182.17081515409518 17.865822233259678,186.1956978389062 18.3799972073175,203.63669290184043 22.364853257779032,207.99690022179857" stroke="#4dd2ff" stroke-linecap="round" stroke-linejoin="round" stroke-width="0.5"><title>2023-10-06 2.9km</title><desc>1696597953000</desc></polyline><polyline fill="none" points="56.186190119762614,183.3565927369982 56.095247005985584,183.2005930129444 55.74157934131654,182.8292632095836 55.60684880238841,182.0118658612846 55.569797904187,181.94374740801595 55.60348053891357,181.8844181809227 55.739895209582755,181.8646417198197 56.14577095807908,181.8668391056699 56.125561377244594,181.72840316921884 55.80220808383456,181.7701538240899 54.39932634730212,181.77235122376533 52.46089071856113,181.85365478573658 52.23858532933809,181.8844181809227 51.89333832334523,182.00527376640093 50.65550149699993,182.59855072100527 50.15363023951795,182.79410724964964 49.91279940120148,182.97428067472538 50.108158682633075,184.12558178961808 50.23615269460424,186.4345095700337 50.28162425148912,189.20651180519508 50.252994011978444,189.5161887092445 50.27320359281293,191.1698871662784 50.188997005985584,191.35435221161788 50.27320359281293,191.58712630102855 50.29172904191364,193.73462669727087 50.26141467065463,194.65457649763994 49.966691616762546,194.76654745309406 49.81343562874099,194.94438196318515 49.01852544910071,194.9312091086158 49.0,194.95755480621847 49.08589071856113,194.97072763771484 49.07747005987767,195.02122338489698 49.016841317366925,195.03659162213808 49.030314371251734,195.05854621951676 49.45808383233816,195.04537346493726 49.80164670658269,195.0717189625684 49.986901197597035,195.28906755732078 50.22267964071216,195.34614848572983 50.28162425148912,195.3900567447954 50.29341317364742,196.8367621983134 50.1755239520935,197.03652394637083 50.108158682633075,197.35921039777713 50.11657934130926,197.47116122293664 50.278255988021556,197.47774653965553 50.30688622753951,197.64018343945736 50.29509730538848,199.67049673251404 50.19741766467632,199.86363659167364 50.192365269460424,200.02824246953332 50.138473053892085,200.0984737627523 50.03574101795675,200.15553644714146 50.17383982035244,200.08311069536558 50.26646706586325,200.2213777371844 50.26983532933809,200.3311125804421 50.3506736526906,200.48912934897453 50.426459580841765,201.05973164424358 50.56455838323018,202.76263140735955 50.530875748503604,203.21465749060553 50.441616766460356,203.40116915152248 50.19741766467632,203.71055398709086 50.21425898203597,203.92777783805377 50.46182634730212,204.06600956576585 50.60834580838127,204.21521064113495 50.70939371257555,204.43023311921024 50.82559880239569,204.8953732785576 51.01085329341004,205.31223196525298 51.39483532933809,205.88703922397326 52.31605538921576,207.16601633567097 52.6511976047841,207.50603485284864 52.59056886227336,207.4577746275927 52.5501497005971,207.4687428741845 53.171594311374065,207.78901215234418 53.46631736526615,207.8723687925949 53.78293413173378,207.90746618728735 55.347492514971236,207.9250148539668 55.95546407185611,207.89649826023742 56.09019461077696,207.99082217188243 56.255239520964096,208.25404856796376 56.40175898203597,208.27159683078207 56.49607035927329,208.0544356391838 56.65269461077696,207.81533535174367 57.02151946107915,207.51480942263697 60.0815868263453,206.40697955944597 60.186002994014416,206.3762662833151 60.209580838323745,206.43111137531923 60.162425149705086,206.36090962175786 60.10853293412947,206.46182453958045 60.14053143712226,206.43549897404228 60.15905688622297,206.4552431525144 60.17421407184884,206.37187866732802 60.23147455089202,206.4552431525144 60.209580838323745,206.37846009082932 60.266841317366925,206.34335913222367 60.86639221556834,206.16785311180683 61.58046407184884,206.13494550522955 63.46500748503604,206.16127159624102 65.8867889221583,206.13275166223593 66.0198353293381,206.16127159624102 66.9056886227554,206.13494550522955 67.77133233533095,206.16565927360534 69.03779940120148,206.12836397528554 69.46388473053958,205.9879573177859 70.12743263472657,205.86948818209112 71.73914670658269,205.73566081498575 73.03592814371223,205.7575998091461 73.34749251497124,205.73566081498575 73.68431886227336,205.63693494567542 74.04640718563314,205.45045098182345 74.39165419161873,205.16304176148424 74.34449850298552,205.18278760863177 74.27544910179859,205.13671392500328 74.20134730538848,205.2091153645424 74.28218562874099,205.13232594777946 74.3815494011942,205.17401167975459 74.44386227545328,205.1411019009438 74.66616766466177,205.12793796927144 74.90868263473385,204.85368677506995 74.93057634730212,204.58820686037507 75.35160928143887,204.17352225423474 75.62107035928784,203.85975858544407 75.72043413174106,203.64472795885195 75.77432634730212,203.40775187380405 75.86021706586325,196.10793860192916 75.89389970060438,195.89499251196867 75.89221556886332,195.3768842805348 75.97642215569067,195.15295062310724 76.0,194.8807130592295 75.9949476047841,194.54480024189888 75.92252994012233,194.33402758483226 75.9258982035899,193.80049609502657 75.85853293412947,192.36008610570025 75.89221556886332,189.95323958443896" stroke="#ff0000" stroke-linecap="round" stroke-linejoin="round" stroke-width="0.5"><title>2023-09-14 39.1km</title><desc>1694696482000</desc></polyline><polyline fill="none" points="99.69565367279574,181.5 92.63481887197122,188.3294751845533 93.48698858963326,201.82947419618722 96.40871333470568,206.91178328637034 102.4956398862414,207.38824854465201 107.36518112802878,203.10005369817372 106.51301141036674,186.42357945349067 102.25216282438487,181.97647640679497 97.13914452074096,182.770603285986 93.24351152777672,187.05887840176 93.8522041826509,204.68827598600183 100.06086926534772,208.5 107.24344259686768,203.4176983416546 106.51301141036674,187.535352369654 103.34780960390344,183.40590437175706 98.11305276909843,182.770603285986 92.63481887197122,188.3294751845533 93.7304656514898,202.62358655931894 99.57391514163464,207.8647135932697 104.44345638295636,206.7529614875093 106.7564884731546,203.89416513219476 106.2695343485102,186.42357945349067 102.61737841786817,182.6117779565975 97.01740598957986,182.9294285926735 93.36525005847216,186.26475465798285 93.60872712079436,204.05298734956887 97.38262158306316,207.38824854465201 101.88694723136723,207.8647135932697 106.87822700385004,202.1471192111494 106.87822700385004,185.3118053986691" stroke="#4dd2ff" stroke-linecap="round" stroke-linejoin="round" stroke-width="0.5"><title>2023-09-11 1.8km</title><desc>1694438011000</desc></polyline><polyline fill="none" points="137.74657534249127,196.72912134061335 142.12328767124563,193.27094943705015 148.78082191757858,195.68362980266102 147.91780821909197,199.5438963713823 131.95205479464494,200.50895877956646 129.85616438370198,199.22220852551982 127.02054794528522,200.26769333635457 125.72602739743888,199.14178653480485 125.5410958903376,196.16616460564546 135.1575342467986,197.1312329415232 142.49315068498254,194.47729094314855 148.65753424656577,195.20109457644867 148.47260273969732,199.70474022370763 131.64383561629802,199.86558402900118 128.31506849313155,197.69418868847424 127.26712328800932,199.14178653480485 125.29452054784633,198.57883226958802 125.23287671245635,196.08574216801208 134.35616438346915,196.64869898522738 143.97260273969732,194.31644556182437 149.15068493131548,195.4423622424947 147.73287671222351,199.70474022370763 134.7876712330617,199.46347442740807 128.25342465774156,200.58938057057094 124.92465753434226,198.57883226958802 125.0479452055879,196.2465870315791 139.3493150684517,195.92489725718042 145.88356164377183,194.39686825824901 149.08904109569266,195.52278477448272 147.97945205471478,199.62431830348214 131.76712328777649,199.86558402900118 127.82191780838184,200.83064587268746 125.72602739743888,199.78516213217517 124.0,196.88996601616964 124.49315068521537,196.08574216801208 129.48630136996508,196.4074318485218 135.95890410942957,195.12067199742887 141.07534246565774,196.0053197183879 148.41095890384167,195.12067199742887 148.41095890384167,188.847674608347 151.0,189.0085215891013 148.0410958903376,188.52598050562665 147.60958904097788,199.5438963713823 134.66438356158324,199.30263050476788 126.9589041096624,201.47401949443156 124.86301369895227,197.4529220102704 125.23287671245635,196.4878542391234 135.71232876717113,195.20109457644867 141.2602739725262,196.08574216801208 145.14383561629802,195.28151714347769 148.71917808195576,196.16616460564546 148.22602739697322,200.02642778703012 131.64383561629802,199.70474022370763 130.84246575366706,200.83064587268746 126.83561643841676,201.47401949443156 125.66438356181607,200.42853697692044 125.23287671245635,196.16616460564546 133.92465753434226,193.91433190292446 137.43835616461,195.12067199742887 141.07534246565774,194.87940419034567" stroke="#4dd2ff" stroke-linecap="round" stroke-linejoin="round" stroke-width="0.5"><title>2023-08-30 4.9km</title><desc>1693396264000</desc></polyline><polyline fill="none" points="165.23067120462656,183.51244428521022 168.5728100030683,187.03421328705736 170.75805460149422,203.97209405410103 175.2570875994861,207.99690022249706 184.12660979526117,202.96589030476753 184.25515359593555,184.51866510382388 176.15689419955015,181.66770382528193 169.47261660220101,185.3571817779448 170.88659840123728,204.64289606327657 174.87145619979128,208.5 180.2702957978472,208.16460017266218 184.64078499563038,205.14599731226917 184.64078499563038,187.20191630290356 182.06990899704397,182.84162991598714 176.9281569989398,181.66770382528193 169.85824800189584,187.36961929430254 171.14368600212038,205.31369767943397 174.6143685998395,208.3323000984965 184.51224119542167,203.80439349031076 184.3836973956786,186.86651024629828 181.94136519683525,183.00933354522567 176.79961319919676,181.83540762588382 171.9149488019757,183.34474073001184 169.7297042021528,186.86651024629828 170.5009670020081,204.13979459286202 177.05670079914853,208.16460017266218 184.51224119542167,204.81059650389943 184.12660979526117,186.86651024629828 182.19845279678702,183.51244428521022 175.51417519990355,181.83540762588382 169.7297042021528,185.69258827588055 170.5009670020081,203.13359099067748 176.79961319919676,208.3323000984965 181.94136519683525,207.32610017526895 184.64078499563038,203.6366929024225 183.74097839556634,185.5248850393109 178.85631399834529,181.5 170.62951080175117,185.0217751818709 170.62951080175117,203.6366929024225 173.58601820049807,207.6615002474282 180.3988395971246,207.99690022249706 184.51224119542167,203.46899228950497 184.3836973956786,188.87894511432387 180.1417519976385,182.170815154328 170.88659840123728,184.6863684875425 170.37242320226505,202.2950873146765 174.3572810003534,207.49380022357218 180.7844709972851,207.99690022249706 184.12660979526117,205.31369767943397 184.76932879537344,191.89759079378564" stroke="#4dd2ff" stroke-linecap="round" stroke-linejoin="round" stroke-width="0.5"><title>2023-08-25 3.1km</title><desc>1692968645000</desc></polyline><polyline fill="none" points="29.35483870934695,220.31280009931652 28.919354838319123,224.1951437544776 38.1370967742987,224.57390774285886 38.5,229.68719990062527 11.5,229.59250967216212 11.935483870562166,225.04736241674982 27.90322580607608,225.04736241674982 35.8870967742987,223.43761511310004 38.06451612897217,224.38452577602584 38.2096774186939,229.21374861942604 29.064516128972173,229.30843890324468" stroke="#4dd2ff" stroke-linecap="round" stroke-linejoin="round" stroke-width="0.5"><title>2023-08-24 1.1km</title><desc>1692883156000</desc></polyline><polyline fill="none" points="62.8379449674394,238.5 62.917461430304684,238.11098019758356 63.116252587526105,238.26658822098398 62.539758231607266,222.00481134827714 62.06265945418272,219.0220269482379 62.8379449674394,218.4514016063913 62.08253856992815,217.7510861771152 62.34096707426943,214.94979680079268 61.88374741259031,211.5" stroke="#4dd2ff" stroke-linecap="round" stroke-linejoin="round" stroke-width="0.5"><title>2023-08-21 1.2km</title><desc>1692620048000</desc></polyline><polyline fill="none" points="100.56658891425468,229.02468051756296 100.20603233244037,229.79751953664527 100.46357274800539,238.5 100.32192551944172,227.69740137329063 100.0,225.54684058270504 100.09013914543903,223.09380802355008 99.51067321043229,212.23935023228114 99.83259872987401,211.65123111658613 100.37343360256637,211.5 99.74245958449319,211.56721385417768 99.43341108574532,212.12172665009712 99.45916512730764,215.81841020203137 100.01287702081027,222.64015927595756 99.84547575068427,225.00919409366907 100.19315531163011,227.12616259037895 100.52795785182388,238.4832004797354 100.24466339475475,230.80556261688616" stroke="#4dd2ff" stroke-linecap="round" stroke-linejoin="round" stroke-width="0.5"><title>2023-08-10 4.8km</title><desc>1691669615000</desc></polyline><polyline fill="none" points="139.30481283413246,224.0110793687054 141.68716577533633,221.27972575224703 149.70053475908935,221.27972575224703 150.4946524067782,226.64823738660198 124.79411764675751,227.8726285097655 124.0,223.8227105255355 133.0962566845119,220.62043176451698 138.94385026721284,222.31575779797276 149.84491978632286,221.93901906500105 151.0,225.89476476906566 136.1283422461711,227.6842607963481 125.37165775382891,227.2133412710973 124.07219251291826,226.83660540293204 124.0,225.14129127009073 125.66042780736461,222.4099424466258 133.8903743312694,223.1634191412013 144.0695187165402,221.27972575224703 150.35026737954468,221.84483434748836 149.9171122997068,226.55405335745309 131.36363636376336,227.9668123460142 124.43315507983789,227.11915732483612 124.43315507983789,223.54015715781134 126.45454545458779,222.59831170312827 140.8208556151949,223.35178817703854 143.0588235296309,222.12738845899003 150.56684491969645,222.22157313558273 150.56684491969645,226.64823738660198 134.7566844918765,227.02497336477973 129.55882352916524,229.19120096275583 125.01069518737495,227.4958930273424 124.14438502630219,224.67036988545442 125.08288770029321,223.7285260835779 134.54010695172474,223.25760366610484 135.8395721926354,222.03320376906777 140.89304812811315,223.7285260835779 150.78342245984823,222.59831170312827 150.56684491969645,226.74242140172282 129.9919786094688,227.7784446599544 124.5775401070714,226.45986931480002 124.50534759322181,223.54015715781134 126.09358288766816,222.4099424466258 141.4705882356502,223.54015715781134 151.0,222.69249631051207 150.4224598929286,226.9307893908117 133.6737967915833,227.4958930273424 131.1470588236116,229.00283363478957 125.58823529398069,227.8726285097655 124.72192513337359,225.51802812964888 125.73262032074854,223.25760366610484 141.18181818164885,223.91689495416358 150.7112299464643,222.5041270814836 150.92780748661608,227.02497336477973 136.9224598929286,226.9307893908117 133.3850267380476,227.4958930273424 131.9411764703691,229.3795682354248" stroke="#4dd2ff" stroke-linecap="round" stroke-linejoin="round" stroke-width="0.5"><title>2023-08-08 4.7km</title><desc>1691498421000</desc></polyline><polyline fill="none" points="176.92443649237975,211.5 177.1241421661107,220.33470591754303 178.19529077969491,220.68997891817708 178.14082559593953,221.21104457628098 171.8047092204215,221.0215663490817 172.53091167018283,222.60843965646927 172.82139265025035,233.33719011524227 173.31157930393238,237.0080122128129 173.8380760801956,238.5" stroke="#4dd2ff" stroke-linecap="round" stroke-linejoin="round" stroke-width="0.5"><title>2023-08-04 1.6km</title><desc>1691107871000</desc></polyline><polyline fill="none" points="24.434554973850027,253.06356320006307 32.06806282722391,251.3115291815484 37.510471204295754,252.2336529561435 38.14659685874358,257.3975211729994 27.473821989726275,256.7520399586065 11.853403141489252,258.13521318056155 11.924083769554272,255.00001618842361 13.973821989726275,252.69471433776198 19.416230366565287,251.95701596525032 24.71727748727426,252.8791387960664 32.28010471211746,250.48161663144128 38.00523560238071,252.51028982555727 38.35863874363713,257.3053096116055 11.853403141489252,258.0430017267354 11.924083769554272,254.72338041168405 14.115183246321976,252.69471433776198 20.759162303525954,251.49595404439606 24.010471204295754,252.6025020882371 37.439790576230735,252.6025020882371 38.5,257.3975211729994 12.701570680830628,258.504058860708 11.5,256.5676166333142 12.772251309128478,254.26232051325496 20.405759162502363,252.04922830912983 37.369109947932884,252.51028982555727 37.93455497385003,257.21309803659096 12.842931937193498,258.504058860708 12.206806282745674,254.53895649279002 17.578534031519666,252.97135100484593 28.958115183282644,253.89347235218156 38.14659685874358,252.8791387960664 38.21727748727426,256.9364632302313 13.973821989726275,258.41184746084036 11.641361256595701,257.0286748458748 12.418848167872056,254.6311684589018 18.780104712117463,252.69471433776198 38.07591623067856,253.34019970556255 38.14659685874358,256.8442516013165 22.526178010739386,257.5819442560896 18.07329842960462,259.5183833685587 14.75130890053697,258.9651156574255 12.913612565491349,258.0430017267354 12.418848167872056,255.00001618842361 17.649214660050347,252.6025020882371 28.887434555217624,254.3545325200539 37.722513088956475,253.06356320006307 38.28795811533928,257.3053096116055 22.879581151995808,256.9364632302313 17.86125654471107,258.504058860708" stroke="#4dd2ff" stroke-linecap="round" stroke-linejoin="round" stroke-width="0.5"><title>2023-07-26 4.8km</title><desc>1690377436000</desc></polyline><polyline fill="none" points="58.0,253.49708411691245 73.12000000011176,251.24268283619313 75.92799999983981,251.8062838979531 75.3519999999553,256.78473846788984 57.71200000029057,256.97260392288445 51.16000000014901,259.22698509308975 49.28799999970943,257.2544020017376 49.6480000000447,253.5910173318116 55.84000000031665,251.24268283619313 60.23199999984354,252.74561790260486 75.3519999999553,251.90021736058407 75.20800000010058,256.31507459114073 50.65599999995902,258.47552558220923 49.0,256.50294018298155 49.575999999884516,253.7788837206317 55.40800000028685,250.96088211983442 59.65599999995902,250.77301490691025 62.89600000018254,252.74561790260486 69.23199999984354,250.96088211983442 75.49599999981001,251.99415080901235 75.5679999999702,256.87867120222654 49.4320000000298,256.97260392288445 49.4320000000298,253.5910173318116 50.65599999995902,253.02741783601232 65.92000000039116,252.65168456389802 71.53599999984726,250.96088211983442 75.7839999999851,251.99415080901235 75.42399999964982,256.69080572010716 49.4320000000298,257.16046932234894 49.575999999884516,253.49708411691245 52.527999999932945,252.27595107199159 65.34400000050664,252.46381784550613 71.53599999984726,250.77301490691025 76.0,251.99415080901235 75.42399999964982,256.87867120222654 49.864000000059605,257.72406519192737 50.368000000249594,253.21528438961832 62.60800000000745,252.65168456389802 70.02400000020862,250.86694852029905 75.71199999982491,252.08808424370363 75.64000000013039,256.78473846788984 49.4320000000298,256.78473846788984 49.79200000036508,253.21528438961832 59.080000000074506,254.530348726199 70.60000000009313,250.86694852029905 75.85600000014529,251.90021736058407 75.7839999999851,256.87867120222654 50.583999999798834,257.4422673190711" stroke="#4dd2ff" stroke-linecap="round" stroke-linejoin="round" stroke-width="0.5"><title>2023-07-24 4.9km</title><desc>1690201802000</desc></polyline><polyline fill="none" points="103.09070937347133,241.80918372313317 103.05121149017941,241.5 101.92552181414794,242.1441321441962 101.76753028074745,243.0716782946256 102.20200699777342,248.81720258526911 103.24870090687182,249.30672289905488 103.28819879039656,249.71894947676628 98.64719749463256,249.92506240401417 96.13908190082293,249.64165706688073 96.94878850982059,250.54339973890455 97.14627792662941,251.72854023214313 97.38326522696298,262.7293552663323 98.50895490287803,268.5 97.77824406058062,265.69198665853764 98.64719749463256,264.919131097442 97.91648665233515,242.35025393293472 102.93271784007084,242.01530590372568 103.54493503225967,241.88647956910427 103.64367974072229,241.52576533101092 103.86091809917707,241.96377538118395" stroke="#4dd2ff" stroke-linecap="round" stroke-linejoin="round" stroke-width="0.5"><title>2023-07-24 3.0km</title><desc>1690157385000</desc></polyline><polyline fill="none" points="137.68140674883034,259.79373846709495 138.1867541204556,268.5 137.82394062291132,256.86896365902066 137.5518304996658,255.58406809056032 137.79802537307842,254.48513291648123 137.60366099938983,253.94411483879958 137.05944075295702,242.70050969385193 137.38338137581013,241.85508163082704 137.9923897467088,241.58454334440466 137.4481695004506,241.5338173451819 137.0076102532912,242.22707074056234 137.0076102532912,245.8454477910127 137.51295762491645,253.8595805353325 137.62957624916453,252.91279211294022 136.9557797536254,242.59905865287874 137.18901700212155,241.92271610349417 137.79802537307842,241.56763468044664 137.34450850106077,241.5 136.85211875429377,242.37924775850115 136.81324587960262,245.72709145543922 137.3056356263114,254.1300900886199" stroke="#4dd2ff" stroke-linecap="round" stroke-linejoin="round" stroke-width="0.5"><title>2023-07-22 4.9km</title><desc>1690030226000</desc></polyline><polyline fill="none" points="171.78209478687495,252.69520053523593 167.1129774195142,249.89641083835158 169.13205520017073,264.3841881727567 173.0440183999017,267.3475742052542 179.35363646410406,266.03051470941864 182.5084454966709,260.59762800252065 181.37271424476057,246.76834353117738 178.97505938028917,242.65245225431863 174.68451909674332,241.5 168.12251631030813,244.7927175963996 169.38443992240354,263.23175816470757 171.90828714799136,267.0183094756212 175.5678656254895,268.00610337546095 182.8870225804858,262.0793269771384 182.129868412856,250.0610457189614 177.2083663227968,241.66463610855862 171.65590242575854,242.15854428964667 167.6177468644455,246.10980193840805 168.62728575477377,262.73785922897514 174.30594201292843,267.8414711188525 181.87748368969187,263.72565688437317 181.6250989669934,246.76834353117738 174.05355728976429,242.48781628976576 167.870131587144,246.93297886964865 168.8796704779379,264.71345367317554 174.05355728976429,268.5 182.63463785732165,262.9024922319222 182.00367605080828,250.22568057558965" stroke="#4dd2ff" stroke-linecap="round" stroke-linejoin="round" stroke-width="0.5"><title>2023-07-18 1.7km</title><desc>1689685608000</desc></polyline></svg>