<?xml version="1.0" encoding="utf-8" ?>
<svg baseProfile="full" height="300mm" version="1.1" viewBox="0,0,200,300" width="200mm" xmlns="http://www.w3.org/2000/svg" xmlns:ev="http://www.w3.org/2001/xml-events" xmlns:xlink="http://www.w3.org/1999/xlink"><defs /><rect fill="#222222" height="300" width="200" x="0" y="0" /><text fill="#FFFFFF" style="font-size:12px; font-family:Arial; font-weight:bold;" x="10" y="20">Over 10km Runs</text><text fill="#FFFFFF" style="font-size:4px; font-family:Arial" x="10" y="280">ATHLETE</text><text fill="#FFFFFF" style="font-size:9px; font-family:Arial" x="10" y="290">Yunlong</text><text fill="#FFFFFF" style="font-size:4px; font-family:Arial" x="120" y="280">STATISTICS</text><text fill="#FFFFFF" style="font-size:3px; font-family:Arial" x="120" y="285">Number: 35</text><text fill="#FFFFFF" style="font-size:3px; font-family:Arial" x="120" y="290">Weekly: 1.9</text><text fill="#FFFFFF" style="font-size:3px; font-family:Arial" x="141" y="285">Total: 165.4 km</text><text fill="#FFFFFF" style="font-size:3px; font-family:Arial" x="141" y="290">Avg: 4.7 km</text><text fill="#FFFFFF" style="font-size:3px; font-family:Arial" x="167" y="285">Min: 1.1 km</text><text fill="#FFFFFF" style="font-size:3px; font-family:Arial" x="167" y="290">Max: 39.1 km</text><polyline fill="none" points="42.48790776153328,45.97392030437186 42.52587176603265,45.94914554241768 42.52966816649132,46.01851483015707 42.57142857143481,45.859956249274546 42.518278965129866,45.77572170108033 42.218363329579006,45.983830204055266 41.80455568054458,45.5874319529903 41.70584926883748,45.57256692825831 41.58436445445113,45.686531950970675 41.455286839162,45.59238695977183 41.364173228357686,45.622116985283355 40.56692913385632,46.57346401424729 39.40902699662547,47.683335088735475 35.487345331843244,52.29584687630995 35.267154105735244,52.419697283330606 29.72061304836825,47.713063277802576 28.55511811024917,46.959941107288614 28.34631608550262,46.62796746130334 28.258998875156976,46.24148657790283 27.23017435321526,45.73112685538945 26.736642294723424,45.859956249274546 26.231721034870134,45.864911216162 25.225674915636773,45.73112685538945 24.17027559055714,45.721216881705914 15.1614173228445,46.07797410650892 14.561586051742779,46.04328954133962 14.15157480315247,45.81040654042954 13.680821147368988,46.082929041480384 11.86614173228736,46.16220790252555 11.809195725538302,46.117613566038926 11.714285714289872,44.03152394613426 11.733267716525006,43.21390030596376 17.632874015762354,42.96117627553758 17.769544431954273,42.971087057383556 18.999578177725198,43.545907438678114 19.565241844771663,43.72429798576195 25.67744656917057,43.754029652187455 26.28107424073096,43.640058122357004 27.659167604055256,43.0206409230741 28.262795275601093,43.03550706862006 28.82466254218889,42.90171152353287 28.843644544453127,42.792692540162534 30.764623172115535,41.965127897343336 31.0,42.0146832359751 31.410011248619412,41.93043911712084 33.27024746907409,41.8660170023868 33.28922947132378,42.00972770537555 33.372750281210756,42.03946087807344 36.971737907777424,41.92548357418855 37.04007311585883,42.14352677682473 37.066647919025854,42.971087057383556 37.169150731147965,43.3476946169103 37.389341957255965,43.729253265308216 40.57072553431499,46.469411735266476 40.76813835771463,46.33067486573782 40.95795838019694,46.39508848301557 41.61853205849184,45.70139692563316 42.180399325094186,46.12256849521145" stroke="#4dd2ff" stroke-linecap="round" stroke-linejoin="round" stroke-width="0.5"><title>2024-07-21 16.7km</title><desc>1721568012000</desc></polyline><polyline fill="none" points="50.409753008163534,49.056413782556774 49.04179860674776,47.80653204940609 48.63141228619497,46.50562521185202 48.650954491924495,44.133358323117136 48.14285714284051,42.985475650959415 48.2991947887931,40.86824999266537 49.86257124762051,39.92441821430111 52.0122138785664,36.68474050788791 53.67330136615783,35.33273120592639 54.005518863676116,34.43988912150962 54.787207092973404,34.363359587150626 57.11272957571782,35.94496313316631 57.366778250201605,36.68474050788791 61.31430380884558,39.822382040088996 61.529268071986735,40.46010714849399 62.662716004648246,40.79172328225104 64.9491540758172,43.24056134279817 65.86763774533756,43.54666368008475 71.37853976292536,48.64829012093833 75.34560752741527,51.73470158815326 76.28363340266515,52.933540885467664 79.0,54.821058379879105 78.9218311769655,55.40771505712473 77.10440604365431,57.16767323699605 75.54102958471049,59.922354698574054" stroke="#4dd2ff" stroke-linecap="round" stroke-linejoin="round" stroke-width="0.5"><title>2024-07-16 2.5km</title><desc>1721136594000</desc></polyline><polyline fill="none" points="111.53653099347139,43.769865887206834 109.98020369006554,45.53497763348787 108.78407440887531,47.16699500973118 107.54716799309244,48.00959547284947 106.44618535926566,49.19808568332155 105.29762940172805,48.373240474658814 97.61113953214954,41.77407459196547 97.49560431748978,41.259593290116754 97.37327291371184,36.97503622320801 97.3324957791192,34.12736795612 97.45482718289713,32.28207841872427 98.81406500245794,31.90946505667671 100.51311227687984,31.714285714286234 100.74418270619935,37.30326352637712 100.89369886633358,37.95971279828518 101.26069307763828,38.740345917700324 107.14619283631328,43.74325576899355 109.6268018570263,46.08490144186362 108.71611251789727,47.255690347032214 107.56076037127059,48.000726055310224 106.41900060285116,49.215824166632956 106.54812819571816,49.357731846343086 106.47337011565105,49.53511597868783 107.39085564384004,50.36881444620303 107.36367088742554,50.50185037465417 105.88889785323408,52.26676605653847 105.4403493728023,53.03834621374699 104.20344295699033,54.51052937818531 103.01410986486007,55.68115552954987 102.06943958028569,56.28419654183017 101.03641883740784,56.541373972147994 99.81990098892129,57.96913227553523 99.81990098892129,58.48347174762603 101.16554643027484,59.66288888701092 101.62768728891388,59.89344895463364 102.2733252531907,59.778169030450954 102.98692510847468,58.98007123485149 103.40828883255017,58.385924941740086 103.31993837427581,57.800640809779 101.66846442350652,56.47042858312852 101.05001121561509,56.55911030640709 99.82669717801036,57.97800023442687 99.79951242162497,58.71403630120403 99.60242293777992,59.41459244888756 99.00435829718481,60.46097769282642 97.58395477573504,62.314276722871 97.25094150993391,62.57142857142753 93.28196707685129,59.29931161402419 88.89162891969318,55.069240134333086 88.46346900652861,54.519397843119805 88.81687083962606,54.643556215836725 92.16739206481725,50.09387260203221 93.5130375061708,47.41534162703829 93.62857272085967,46.96299524131973 94.51207730357419,46.42194905131328 97.16938724077772,45.52610785375509 97.91696804153617,45.0382679687209 99.33057537386776,43.5126342549338 100.6286474915396,41.65876019723146 102.39565665696864,39.6983819090492 107.18017378181685,43.75212580970765 109.59282091152272,46.00507410188948 110.9316701637872,44.42624510420501 111.33264532053727,43.84082614533327 111.27827580773737,43.71664563906961" stroke="#4dd2ff" stroke-linecap="round" stroke-linejoin="round" stroke-width="0.5"><title>2024-07-06 16.1km</title><desc>1720267100000</desc></polyline><polyline fill="none" points="126.50054731033742,44.47627912508324 128.69055263046175,42.952465590438806 132.1945611424744,60.85716203507036 141.68458419758826,61.428584464476444 145.7725941296667,55.52387393801473 143.29058809950948,35.142893243348226 135.99057036451995,32.66667760023847 129.1285536950454,38.571491747163236 130.7345575960353,58.19052071671467 135.55256930086762,62.38095462322235 141.97658490762115,61.428584464476444 145.91859448328614,54.19054850155953 144.16659022774547,35.904804802150466 135.99057036451995,32.47619927825872 130.88055795058608,36.47623817867134 129.71255511324853,41.04769616469275 131.46455936972052,58.38099527731538 137.59657426644117,62.000006643589586 142.56058632582426,60.66668783617206 146.06459483783692,52.85722170048393 145.4805934196338,38.952446579234675 142.56058632582426,33.61906878929585 132.1945611424744,34.000025070039555 129.42055440414697,40.476264794007875 131.02655830513686,58.761944315745495 135.40656894631684,61.80953261163086 142.70658668130636,61.238110349397175 145.91859448328614,57.42862219410017 145.33459306508303,39.142923953942955 140.5165813602507,32.47619927825872 136.4285714291036,31.714285714318976 130.44255688693374,36.095282621798106 130.00455582235008,55.90482381207403 131.90256043337286,59.7143164240988 138.03457533102483,62.571428571478464 145.91859448328614,57.619096866226755 145.18859270960093,38.571491747163236 137.88857497647405,32.09524255222641 132.92456291709095,33.80954694340471 129.56655475869775,38.381014289334416 130.88055795058608,57.619096866226755 134.0925657544285,61.04763620579615 140.37058100569993,62.19048064714298 146.21059519331902,56.66672322538216 144.6045912913978,35.71432695444673 135.99057036451995,32.28572092903778 129.56655475869775,38.952446579234675 131.02655830513686,58.19052071671467 137.59657426644117,62.19048064714298 143.43658845406026,61.04763620579615 146.35659554693848,52.47627093514893" stroke="#4dd2ff" stroke-linecap="round" stroke-linejoin="round" stroke-width="0.5"><title>2024-02-29 2.9km</title><desc>1709196138000</desc></polyline><polyline fill="none" points="159.20611568260938,31.714285714318976 170.44813806097955,38.38101428945083 170.01013718917966,56.09529870701954 175.85014881473035,62.38095462298952 183.44216392748058,60.66668783547357 186.36216974072158,56.47624841390643 185.19416741561145,37.23814895702526 179.20815549883991,32.09524255222641 173.22214358393103,32.666677599889226 169.2801357358694,36.47623817855492 170.74013864342123,57.80957151053008 177.31015172135085,62.38095462298952 185.77816857770085,58.761944315745495 185.34016770496964,37.23814895702526 179.20815549883991,32.476199278607965 169.86413689889014,35.523849077988416 170.44813806097955,56.09529870701954 173.51414416451007,61.238110348931514 181.25215956754982,62.571428571478464 185.92416886799037,58.57146981020924 186.21616944950074,45.047708740923554 182.42016189359128,33.4285906071309 171.47014009580016,34.000025069806725 169.2801357358694,39.90483317209873 172.05414125788957,60.28573935467284 181.98216102086008,62.571428571478464 185.4861679961905,59.71431642351672 186.5081700310111,54.19054850167595 184.0261650905013,35.523849077988416 180.66815840639174,32.85715589323081 172.6381424209103,33.4285906071309 169.42613602709025,39.14292395347729 171.616140387021,59.33336766413413" stroke="#4dd2ff" stroke-linecap="round" stroke-linejoin="round" stroke-width="0.5"><title>2024-02-26 2.1km</title><desc>1708947688000</desc></polyline><polyline fill="none" points="21.99164179712534,78.30508379265666 17.78360672760755,84.93084969418123 20.685699879191816,93.63894759013783 25.909467552788556,96.85714285715949 34.18043303582817,94.96408778661862 35.63147961162031,73.19375549617689 28.376246731728315,66.0 20.830804536119103,69.59688274550717 19.960176590830088,88.90629295667168 24.31331631913781,95.34269902249798 29.68218865059316,95.91061566816643 35.92168892733753,92.31380603718571 35.77658426947892,73.00444665295072 29.10177001915872,66.18930986756459 20.250385905615985,70.92204755323473 20.105281248688698,90.04213164676912 22.862269743345678,95.15339341806248 26.63499084021896,96.28922662686091 35.48637495469302,92.69241804780904 35.63147961162031,73.19375549617689 34.18043303582817,69.40757337631658 27.65072344429791,66.18930986756459 20.105281248688698,72.62582888430916 20.540595221333206,91.9351939150365 26.489886183291674,96.28922662686091 32.87449111789465,94.77478212723508 36.50210755690932,89.09559947438538 35.48637495469302,71.1113567011198 32.29407248739153,66.9465490601724 27.36051412858069,66.0 20.830804536119103,70.35411994426977 19.960176590830088,89.47421242645942 25.474153580144048,96.28922662686091 31.713653856888413,95.72131014696788 35.92168892733753,91.9351939150365 36.211898242123425,74.32960797287524 34.76085166633129,70.16481068637222 29.391979335807264,66.9465490601724 23.152479058131576,68.08240701805335 20.975909193977714,71.1113567011198 20.250385905615985,92.12449998990633 25.329048921354115,96.47853206470609 34.76085166633129,93.26033585565165 35.48637495469302,73.57237309904303 32.87449111789465,68.6503356237663 28.376246731728315,66.9465490601724 19.8150719339028,71.6792839767877 20.105281248688698,91.177969340235 23.007374400272965,96.09992116165813 33.16470043268055,94.96408778661862 35.77658426947892,90.79935688595288 35.92168892733753,79.63023968599737" stroke="#4dd2ff" stroke-linecap="round" stroke-linejoin="round" stroke-width="0.5"><title>2024-01-18 3.0km</title><desc>1705581243000</desc></polyline><polyline fill="none" points="59.92142077162862,69.80956336390227 55.833412036299706,71.33338558976538 55.687411724589765,91.9048111520242 59.19141921214759,95.71429875004105 65.03143169172108,96.66666890925262 70.87144417129457,92.85718409647234 70.87144417129457,72.28577357542235 68.2434385549277,67.52382668259088 63.71742888353765,66.0 57.58541578054428,68.47621745383367 54.95741016417742,72.66672857478261 55.24941078852862,90.19053809775505 61.965425139293075,96.28572092880495 70.57944354694337,92.47623500181362 70.7254438586533,72.09529603354167 64.59343075565994,66.38095683755819 59.04541890043765,67.71430489292834 55.39541110023856,72.28577357542235 55.979412348009646,90.95243751164526 59.04541890043765,95.71429875004105 63.42542826011777,96.85714285715949 70.87144417129457,92.28576041315682 71.30944510735571,73.0476834627334 66.05343387648463,66.57143521483522 59.483419835567474,67.33334844489582 56.125412659719586,70.9524302004138 55.979412348009646,90.95243751164526 62.841427012346685,96.85714285715949 71.45544541906565,92.85718409647234 70.43344323523343,72.09529603354167 64.44743044301867,67.33334844489582 55.979412348009646,70.76195246365387 56.125412659719586,91.9048111520242 63.86342919617891,96.85714285715949 70.87144417129457,93.2381330790231 71.01744448207319,72.47625108924694 65.46943262778223,66.57143521483522 58.89941858872771,67.52382668259088 55.24941078852862,72.66672857478261 55.541411412879825,89.428638238227 61.52742420416325,96.28572092880495 70.57944354694337,93.42860752844717 71.01744448207319,72.09529603354167 64.1554298195988,66.0 55.687411724589765,71.52386324293911 55.979412348009646,90.00006317475345 58.315417340025306,94.19050504814368 63.279427947476506,95.90477283787914 69.26544073969126,95.14287632028572 72.185446979478,90.76196270016953 70.28744292259216,70.38099690771196 65.90743356384337,66.57143521483522 59.77542045991868,66.76191356405616 55.979412348009646,70.38099690771196 55.687411724589765,86.19055886403657" stroke="#4dd2ff" stroke-linecap="round" stroke-linejoin="round" stroke-width="0.5"><title>2024-01-17 3.3km</title><desc>1705483266000</desc></polyline><polyline fill="none" points="92.71100062783808,83.66046516795177 89.28963357489556,86.57150829245802 95.09108205512166,94.14019053115044 102.08257125038654,96.2749392556725 109.07406044378877,93.75205403042492 110.11534606851637,75.12136849865783 106.0989586589858,67.74664988485165 100.00000000093132,66.38814461720176 94.1985515197739,70.0755128217861 93.75228625256568,89.28847611369565 99.25622455496341,95.49866738915443 109.81783588975668,93.16984906676225 109.52032571099699,73.95694196817931 104.01638740953058,66.19407232268713 93.15726589597762,72.0162288142601 93.30602098442614,86.95964689261746 97.61991857271641,96.08087133138906 108.62779517658055,94.72239506908227 110.11534606851637,74.73322643549182 106.39646883774549,67.16443351202179 98.21493892930448,67.35850566462614 93.15726589597762,72.21030025766231 93.75228625256568,91.03509534685872 100.74377544689924,96.85714285715949 109.37157062254846,94.52832691767253 109.96659097913653,72.79251441627275 104.61140776704997,66.0 97.76867366209626,66.97036133136135 94.64481678791344,70.85179955989588 93.9010413410142,91.03509534685872 95.5373473232612,94.52832691767253 102.6775916069746,96.85714285715949 110.71036642603576,91.42323264281731" stroke="#4dd2ff" stroke-linecap="round" stroke-linejoin="round" stroke-width="0.5"><title>2024-01-13 2.0km</title><desc>1705132259000</desc></polyline><polyline fill="none" points="127.3373051956296,74.87150252051651 128.9633853342384,91.65005063847639 131.62424374558032,95.50715795985889 137.24161149933934,96.85714285715949 145.37201219517738,90.68577204504982 144.78071032557636,71.59291071502957 137.38943696580827,66.38571874168701 129.70251267030835,70.82147616450675 129.70251267030835,91.26433928520419 135.9111822936684,96.08572308474686 145.5198376616463,91.45719497592654 145.22418672777712,71.59291071502957 140.34594631008804,66.77143737091683 134.87640402372926,66.57857807027176 128.81555986776948,73.13577846204862 129.25903626903892,89.91434866283089 132.95467294938862,96.27857806975953 136.20683322753757,96.85714285715949 143.45028112176806,94.35002694756258 145.37201219517738,90.30006041028537 144.63288485910743,71.01433484465815 137.24161149933934,66.38571874168701 133.25032388418913,66.57857807027176 129.25903626903892,71.40005211997777 129.55468720383942,91.65005063847639 136.94596056453884,96.85714285715949 145.22418672777712,90.8786278202897 144.18940845690668,70.43575871991925 137.09378603100777,66.0 129.25903626903892,71.20719349617139 130.4416400063783,90.10720455041155 136.94596056453884,95.70001302938908" stroke="#4dd2ff" stroke-linecap="round" stroke-linejoin="round" stroke-width="0.5"><title>2024-01-11 2.0km</title><desc>1704963338000</desc></polyline><polyline fill="none" points="169.5232145888731,73.55023036967032 167.38446815265343,77.16119215695653 167.6360853803344,91.76905537117273 172.79423854965717,96.69301136292052 178.20400894712657,96.03648514591623 180.97179845301434,92.2614519422641 180.0911381551996,74.37090452353004 176.4426883533597,70.59579844737891 168.64255429105833,71.08820430841297 164.23925280524418,67.47722298197914 165.49733894411474,66.00000000011642 165.24572171643376,70.43166311271489 169.39740597456694,71.08820430841297 167.25865953834727,74.53503928193823 167.76189399370924,90.12773190648295 170.2780662723817,95.54409023036715 176.0652625109069,96.85714285715949 180.34275538334623,94.39516792120412 181.22341568069533,76.99705778202042 175.6878366698511,70.59579844737891 171.28453518310562,71.25233954691794 167.51027676649392,75.51984733028803 167.88770260754973,91.76905537117273 172.92004716349766,96.5288798448164 177.44915726408362,96.36474830238149 180.8459898387082,92.2614519422641 180.21694676950574,74.20676974055823 173.42328161932528,70.10339237144217 168.13931983616203,75.19157807691954 168.51674567721784,92.75384829787072 173.67489884747192,96.36474830238149 178.83305201679468,95.21582683338784 181.4750329083763,91.27665858354885 180.5943726110272,74.0426349339541 177.19754003547132,70.10339237144217 173.92651607468724,69.77512153377756 168.13931983616203,74.37090452353004 168.26512844953686,91.11252627335489 173.42328161932528,95.87235353130382 178.20400894712657,95.37995854427572 181.22341568069533,91.44079086976126 180.8459898387082,74.53503928193823 179.21047785878181,70.92406904546078 175.4362194412388,69.61098607908934 167.88770260754973,73.87850010301918 167.76189399370924,90.7842615803238 170.90710934158415,94.72343155799899" stroke="#4dd2ff" stroke-linecap="round" stroke-linejoin="round" stroke-width="0.5"><title>2024-01-09 2.6km</title><desc>1704792913000</desc></polyline><polyline fill="none" points="15.241981870494783,111.22250471473671 21.080147098749876,107.12121879972983 22.27771945297718,127.43222577823326 27.367401959374547,130.75226485251915 32.906174099072814,130.5569686649833 37.696463516913354,126.84633567254059 38.44494623783976,121.76861066056881 37.99585660547018,106.92591915640514 33.80435336474329,101.06691657251213 26.61891923751682,100.67631548573263 22.27771945297718,104.19172114948742 22.27771945297718,124.89336679899134 28.714670858345926,131.1428571428405 37.247373883612454,129.18989455106203 38.29524969402701,108.0977165887598 33.80435336474329,101.06691657251213 26.61891923751682,101.06691657251213 22.72680908534676,105.16822108021006 22.72680908534676,123.91688129107933 27.068008871749043,129.9710799306631 34.852229175157845,130.16637620376423 38.29524969402701,127.43222577823326 38.29524969402701,107.51181800093036 34.852229175157845,101.65281798737124 28.864367402158678,100.28571428568102 25.57104342803359,100.67631548573263 22.427415997721255,105.36352098092902 22.577112541534007,126.06514846626669 29.76254666876048,130.5569686649833 38.744339326396585,127.04163240327034 38.44494623783976,108.48831550392788 33.355263732373714,100.67631548573263 26.91831232700497,100.48101490002591 21.978326364420354,106.53531978372484 22.876505630090833,127.04163240327034 30.511029389686882,130.9475610118825 38.744339326396585,126.2604453106178 37.696463516913354,104.58232120703906 32.75647755432874,100.67631548573263 26.91831232700497,100.87161604303401 22.27771945297718,104.77762119355612 22.27771945297718,124.5027726815315 28.115884681232274,130.3616724490421 38.44494623783976,126.84633567254059 39.04373241495341,109.07421366358176 34.852229175157845,100.87161604303401 25.57104342803359,101.45751754462253 22.27771945297718,109.07421366358176 23.62498835194856,128.6040052176686 34.25344299804419,129.9710799306631" stroke="#4dd2ff" stroke-linecap="round" stroke-linejoin="round" stroke-width="0.5"><title>2024-01-08 3.0km</title><desc>1704701613000</desc></polyline><polyline fill="none" points="55.13502776157111,105.98549465555698 56.03892784845084,127.01550965080969 64.02337861433625,130.55323684867471 70.95327928010374,125.05010162864346 70.20002920832485,105.59240713063627 64.77662868704647,100.87534785829484 56.18957786168903,104.21659988677129 55.43632778991014,124.26393761497457 61.16102834045887,130.74977697525173 67.33767893351614,130.35669669264462 71.2545793093741,125.83626518212259 70.35067922249436,106.77166936197318 64.62597867287695,100.67880336276721 58.901278123259544,101.46498117339797 55.58697780407965,105.00277562718838 55.28567777574062,125.63972433691379 62.0649284273386,130.94631707319058 66.73507887590677,130.74977697525173 71.55587933864444,126.22934678720776 71.10392929427326,107.36130008893088 64.02337861433625,100.28571428568102 58.44932807981968,101.46498117339797 55.13502776157111,105.78895090753213 55.28567777574062,124.85356066853274 60.709078297019005,130.74977697525173 67.18702891934663,130.55323684867471 71.10392929427326,127.01550965080969 71.55587933864444,109.52327721065376 65.6805287739262,100.48225883860141 58.44932807981968,101.66152555367444 55.43632778991014,104.80623173504137 56.49087789095938,128.78437441401184 66.43377884663641,130.74977697525173 72.15847939625382,124.46047866158187 69.59742914978415,103.82351184391882 60.407778267748654,100.48225883860141 54.83372773230076,106.37858206650708 55.737627818249166,127.21205029531848 63.57142857089639,131.1428571428405 71.70652935281396,125.44318346318323 69.59742914978415,104.0200558793731 61.16102834045887,100.48225883860141 54.98437774647027,108.93364743166603 55.43632778991014,126.03280599892605 59.35322816669941,130.74977697525173 64.77662868704647,131.1428571428405 68.99482909217477,129.96361629560124 72.30912941042334,123.47777314169798" stroke="#4dd2ff" stroke-linecap="round" stroke-linejoin="round" stroke-width="0.5"><title>2023-12-29 2.9km</title><desc>1703839119000</desc></polyline><polyline fill="none" points="93.97542064730078,103.58493991568685 91.74409496132284,108.63079854415264 93.8266656016931,128.23183657997288 102.75196834560484,130.1725176642649 107.3633747631684,123.96232820523437 106.61959953419864,104.36122710793279 103.64449862018228,101.06200340692885 97.54554174467921,100.28571428568102 92.19036009907722,105.91380012850277 93.52915551047772,128.6199730244698 103.1982334824279,130.1725176642649 107.66088485438377,125.12674094270915 106.47084448859096,103.77901175653096 97.54554174467921,100.28571428568102 92.33911514468491,105.71972860035021 92.4878701902926,126.09708410990424 99.47935733944178,131.1428571428405 108.10714999213815,125.70894692756701 106.47084448859096,103.97308356885333 96.80176651664078,100.28571428568102 92.19036009907722,108.43672741344199 92.33911514468491,125.70894692756701 94.27293073851615,129.20217747660354 100.5206426596269,130.7547214361839 107.95839494653046,125.90301553288009 107.51212980877608,105.13751384546049 98.43807201925665,100.8679311692249 91.74409496132284,108.242656254326 92.78538028243929,127.06742656754795 101.56192797981203,131.1428571428405 107.51212980877608,125.12674094270915 107.66088485438377,105.91380012850277 103.64449862018228,101.64421995088924 98.14056192804128,101.45014779793564 91.89285000786185,108.242656254326 92.93413532711565,127.84370002301876 102.90072339121252,130.7547214361839 108.40466008335352,123.57419039914384 107.51212980877608,104.74937053292524 103.1982334824279,101.25607561704237 97.24803165346384,100.8679311692249 91.59533991571516,109.21301176713314 93.08289037365466,128.0377683157567 102.60321330092847,130.94878930377308 108.25590503774583,124.35046589793637" stroke="#4dd2ff" stroke-linecap="round" stroke-linejoin="round" stroke-width="0.5"><title>2023-12-28 2.9km</title><desc>1703769423000</desc></polyline><polyline fill="none" points="131.02655751537532,107.52387515082955 127.08454736229032,105.80957752780523 129.27455300278962,124.8572021459695 134.53056654054672,130.0000130359549 142.2685864707455,128.0952706297394 145.48059474304318,123.90482753072865 145.334594367072,109.80960180389229 140.5165819581598,101.42858446505852 134.38456616457552,101.04762784997001 129.1285526258871,104.28575552545954 129.1285526258871,125.04767698526848 133.94656503666192,129.80953892075922 139.2025785734877,130.38096118357498 145.0425936151296,125.04767698526848 144.3125917352736,106.95244286046363 139.2025785734877,101.23810617125127 131.1725578904152,101.42858446505852 128.54455112293363,104.28575552545954 128.83655187487602,123.1429273369722 133.0705627799034,130.0000130359549 139.9325804533437,130.19048712367658 143.4365894785151,127.14289838203695 144.16659135837108,107.90482987149153 140.2245812062174,101.04762784997001 130.4425560105592,102.00001917837653 127.81454924214631,107.52387515082955 130.73455676343292,128.2857449959265 138.6185770696029,130.57143521495163 145.1885939911008,123.1429273369722 142.9985883506015,103.33336586784571 137.5965744368732,100.28571428568102 130.73455676343292,101.80954096815549 128.1065499940887,108.66673897893634 131.1725578904152,128.66669364389963 137.1585733089596,131.1428571428405 141.2465838380158,130.0000130359549 144.8965932391584,125.04767698526848 145.7725954959169,116.47628163173795" stroke="#4dd2ff" stroke-linecap="round" stroke-linejoin="round" stroke-width="0.5"><title>2023-11-08 2.1km</title><desc>1699431646000</desc></polyline><polyline fill="none" points="166.90828725788742,102.9039250118658 163.89802297763526,109.63644226419274 165.04479032196105,126.65459172788542 173.21550765354186,130.58182482770644 180.09611172042787,127.77665955782868 181.52957090176642,124.78447648941074 180.09611172042787,104.58705764822662 176.2257719328627,100.84675989323296 170.49193520937115,100.47272951598279 164.90144440438598,106.45720242266543 165.18813624046743,125.71953445055988 173.35885357111692,130.58182482770644 181.0995331471786,125.15849975543097 180.66949539352208,105.70914484118111 177.37253927718848,101.22079016058706 172.06874030828476,100.28571428568102 165.04479032196105,107.76630213833414 165.18813624046743,125.90654596081004 172.7854698980227,130.76883562665898 180.9561872286722,125.34551134798676 180.66949539352208,106.27018806850538 177.08584744110703,101.40780525363516 173.07216173503548,100.84675989323296 168.6284382743761,101.78183535742573 164.75809848681092,107.39227378496435 165.3314821589738,124.97148813609965 168.34174643829465,129.64677042141557 174.5056209154427,130.39481400104705 179.09269029460847,128.71171533176675 181.81626273784786,122.91435851564165 180.66949539352208,105.33511588606052 172.21208622585982,100.28571428568102 168.6284382743761,101.78183535742573 164.90144440438598,108.88838654186111 165.61817399505526,125.15849975543097 168.34174643829465,129.64677042141557 174.21892908029258,131.1428571428405 181.38622498326004,124.59746481489856 180.66949539352208,106.27018806850538 174.0755831617862,100.84675989323296 165.47482807654887,106.08317368675489 165.47482807654887,126.8416031015804 172.64212398137897,131.1428571428405 180.9561872286722,126.2805688988883 180.9561872286722,106.64421674993355 178.08926886785775,101.78183535742573 172.06874030828476,100.28571428568102 165.3314821589738,106.08317368675489 165.76151991263032,124.97148813609965" stroke="#4dd2ff" stroke-linecap="round" stroke-linejoin="round" stroke-width="0.5"><title>2023-10-27 2.9km</title><desc>1698413800000</desc></polyline><polyline fill="none" points="23.12784797605127,136.28573346394114 18.455837309360504,140.66672460536938 20.79184264317155,162.1905105210608 30.573864976875484,164.28572732186876 35.39187597669661,157.04769135836978 34.36987364292145,138.57146981090773 29.69786297623068,134.57142857136205 23.711849309504032,134.57142857136205 20.061840975657105,137.04764602554496 18.893838309682906,143.71436192584224 20.645842309109867,162.0000360996928 30.135863977484405,165.0476235046517 33.63987197633833,163.52383069274947 35.82987697701901,157.23816650453955 33.78587230946869,138.57146981090773 24.587851310148835,135.71429875062313 19.039838642813265,141.61911203397904 20.207841308787465,161.42861266760156 28.8218609765172,165.42857142852154 35.39187597669661,159.33339127129875 33.931872642599046,138.952425479074 25.609853642992675,135.14286378619727 19.039838642813265,140.66672460536938 20.353841642849147,161.6190871730214 25.609853642992675,165.23809748038184 30.719865310005844,164.6666754684411 35.39187597669661,158.57149174599908 34.51587397698313,139.90481416136026 29.989863643422723,135.33334213518538 22.251845975406468,136.09525525430217 18.601837642490864,142.3810214754194 21.66784464288503,163.52383069274947 28.52986030932516,165.0476235046517 34.22387331072241,161.6190871730214 35.39187597669661,147.33342198224273 35.09987530950457,141.2381571463775 31.011865976266563,135.52382045646664 24.879851976409554,135.33334213518538 19.477839643135667,138.952425479074 19.331839309073985,158.95244156429544 22.251845975406468,164.095253206091 30.427864643745124,165.0476235046517 34.36987364292145,161.42861266760156 34.95387497637421,141.8095894359285 29.989863643422723,135.52382045646664 20.645842309109867,137.2381240958348 19.185838975943625,157.61911671294365 23.12784797605127,164.47620140900835" stroke="#4dd2ff" stroke-linecap="round" stroke-linejoin="round" stroke-width="0.5"><title>2023-10-21 2.9km</title><desc>1697891041000</desc></polyline><polyline fill="none" points="55.36278293887153,134.57142857136205 55.91930128727108,158.34964763897005 60.51057765772566,165.06555067771114 70.66703750798479,162.52440245007165 70.66703750798479,140.9244324589381 67.88444576831535,137.29414850485045 62.73665104992688,136.2050612482708 55.91930128727108,141.10594637820031 56.893208395689726,162.16138085001148 62.3192622885108,165.24706106621306 68.02357535576448,164.1579983360134 70.80616709496826,160.52778233517893 71.22355585591868,143.64713845669758 65.38011320261285,136.38657585764304 56.3366900482215,140.01686246611644 55.78017169982195,158.1681362412637 58.42363385297358,163.79497721372172 65.24098361516371,165.42857142852154 69.69313039910048,163.25044533179607 71.36268544336781,145.09924588014837 70.66703750798479,140.37989054294303 66.6322794854641,136.93111952580512 57.31059715664014,139.47232015174814 56.058430874254555,161.07231541257352 61.62361435312778,165.42857142852154 70.66703750798479,162.34289166342933 71.22355585591868,141.65048797614872 68.30183452926576,137.83869177522138 63.15403981041163,136.93111952580512 56.47581963520497,141.28746027080342 56.197560460772365,159.25720422691666 60.37144807074219,165.06555067771114 66.91053865943104,164.88404026278295 71.50181502988562,160.52778233517893 71.78007420431823,145.28075918846298 70.52790792100132,140.37989054294303 66.07576113706455,137.11263402865734 61.06709600612521,137.29414850485045 55.78017169982195,141.65048797614872 56.61494922218844,160.70929338759743 60.92796641867608,165.06555067771114 66.77140907244757,164.70252982061356 71.36268544336781,160.16476015164517 71.08442626846954,141.8320017886581 65.38011320261285,136.74960499606095 57.31059715664014,139.29080599406734 55.501912525855005,146.55135160451755 57.86711550503969,163.61346661346033 61.901873528026044,165.42857142852154 69.27574163815007,163.61346661346033 71.22355585591868,148.36648137040902" stroke="#4dd2ff" stroke-linecap="round" stroke-linejoin="round" stroke-width="0.5"><title>2023-10-16 3.1km</title><desc>1697460359000</desc></polyline><polyline fill="none" points="90.64075505919755,138.92554851609748 92.9624282233417,159.9387040961301 99.78234314080328,165.42857142852154 109.2141403676942,159.5600916983094 108.05330378562212,139.4934761248296 102.53933002240956,134.57142857136205 95.42920595873147,135.70728736033197 92.52711450494826,138.73623925761785 92.9624282233417,159.5600916983094 100.07255228701979,165.2392660457408 105.1512123318389,164.10343316930812 109.06903579458594,157.85633453563787 107.90819921251386,139.30416694970336 100.07255228701979,134.76073843892664 92.9624282233417,138.92554851609748 93.10753279551864,159.74939791113138 97.75087912287563,164.86065519752447 103.5550620323047,164.6713497323217 109.35924494080245,159.37078545731492 108.77882664930075,142.1438016705215 101.95891173183918,134.76073843892664 95.13899681344628,136.46452599926852 92.81732365116477,139.872094392078 93.10753279551864,159.74939791113138 95.86451967805624,163.91412759257946 101.52359801437706,165.42857142852154 108.92393122240901,159.74939791113138 107.0375717766583,137.41107367456425" stroke="#4dd2ff" stroke-linecap="round" stroke-linejoin="round" stroke-width="0.5"><title>2023-10-12 1.8km</title><desc>1697101056000</desc></polyline><polyline fill="none" points="127.52162834536284,144.72702265472617 129.9167727055028,162.69442300137598 139.79674318339676,164.45209049014375 145.03612146899104,157.81200117443223 142.94037015456706,138.47743543516845 132.91070315334946,135.1573303291807 128.1204144358635,141.01633377035614 129.4676831373945,161.91323670896236 138.74886752758175,165.03797913878225 144.58703190088272,159.7649720471818 143.83854928985238,141.21163344255183 137.85068839229643,135.54793135880027 133.06039967481047,135.54793135880027 128.7192005245015,139.64923526672646 128.41980748064816,158.3978927358985 132.46161358524114,164.8426829513628 142.6409771097824,163.47560883802362 145.33551451284438,157.81200117443223 144.13794233370572,140.23513479658868 139.79674318339676,135.74323183030356 133.06039967481047,135.3526308578439 128.41980748064816,140.43043458252214 128.86889704782516,160.1555658786092 132.31191706378013,164.45209049014375 137.40159882511944,165.03797913878225 144.28763885702938,160.93675320025068 144.8864249465987,157.42140665638726 143.23976319935173,138.2821353635518 135.30584751162678,134.96202977199573 128.27011095825583,140.62573434063233 129.0185935702175,160.93675320025068 135.9046336011961,165.42857142852154 142.79067363217473,163.28031242161524 144.73672842420638,159.56967508862726 143.83854928985238,140.82103406998795 135.75493707880378,134.57142857147846 128.1204144358635,141.01633377035614 130.06646922696382,162.49912647134624 138.89856404997408,164.6473867346067 143.68885276652873,161.71794006461278 144.8864249465987,156.6402172795497 143.38945972174406,138.86803549341857 138.29977796040475,134.7667291861726 131.4137379284948,135.74323183030356 128.1204144358635,141.99283184472006 129.76707618217915,162.10853332513943 134.85675794444978,165.42857142852154 140.54522579628974,165.03797913878225 144.8864249465987,154.29664640594274" stroke="#4dd2ff" stroke-linecap="round" stroke-linejoin="round" stroke-width="0.5"><title>2023-10-10 2.9km</title><desc>1696942258000</desc></polyline><polyline fill="none" points="171.76322079915553,162.0601394292462 173.93042487604544,160.79359304015816 178.65699376736302,161.3864456271549 179.4000351651339,162.221825574612 178.34739318490028,163.7039419511275 178.98723438859452,165.4285714285652 183.01204195991158,164.08120603093994 184.08532397891395,162.65298793405236 185.24116615322419,159.2036607593909 185.44756654149387,150.68785731768003 183.21844234818127,146.78015730870538 183.7344433189137,145.35180486080935 185.92228743457235,143.46528462668357 186.2938081334578,142.3603137885948 186.06676770630293,141.01277939147258 184.74580522137694,139.26096991388476 184.53940483310726,137.61694891819207 177.58371174847707,134.5714285714348 167.9860936938785,135.7303493381478 162.45456328825094,134.84094568052387 159.42047758074477,135.67644620862848" stroke="#4dd2ff" stroke-linecap="round" stroke-linejoin="round" stroke-width="0.5"><title>2023-10-07 3.0km</title><desc>1696669067000</desc></polyline><polyline fill="none" points="21.340025290846825,170.3904341896996 18.401882581412792,174.99029742379207 19.28332539461553,191.28134987223893 25.159610813483596,199.3309716252843 30.888989097438753,198.56434311240446 35.8838317040354,194.15622045926284 35.296203162521124,174.99029742379207 27.803939253091812,169.2404658581363 22.662189510650933,170.3904341896996 18.84260398801416,175.56527919345535 20.017861071042717,194.9228515510913 25.306517949327826,199.71428571431898 30.154453420080245,199.3309716252843 35.59001743234694,194.15622045926284 35.00238888990134,175.56527919345535 29.126103471964598,169.81545014982112 20.017861071042717,172.30704583250917 19.57713966537267,194.15622045926284 25.747239354997873,199.71428571431898 30.742081962525845,199.3309716252843 35.296203162521124,194.34787827404216 34.56166748423129,174.22365467296913 28.09775352291763,169.04880437173415 18.69569685216993,173.8403331291629 20.16476820781827,194.73119382048026 27.65703211631626,198.9476574251894 35.44311029743403,194.15622045926284 34.708574620075524,174.03199391521048 26.922496439889073,168.8571428571595 18.84260398801416,173.45701147336513 19.43023253045976,193.96456261666026 24.865796542726457,198.9476574251894 32.504967588,197.7977141502779 35.14929602574557,193.5812468464719 35.00238888990134,175.18195804196876 29.126103471964598,169.2404658581363 19.28332539461553,173.26535060349852 19.87095393612981,194.9228515510913 26.628682168200612,199.71428571431898 33.680224671028554,197.2227421356365 35.44311029743403,193.77290474576876 34.708574620075524,174.22365467296913 27.95084638800472,169.04880437173415 22.95600378140807,169.62378874747083 18.989511123858392,174.22365467296913 19.57713966537267,194.15622045926284 24.13126086629927,199.1393145392649" stroke="#4dd2ff" stroke-linecap="round" stroke-linejoin="round" stroke-width="0.5"><title>2023-10-06 2.9km</title><desc>1696597953000</desc></polyline><polyline fill="none" points="56.355645851152076,170.9789631279982 56.25171086398768,170.80067772907933 55.84751924721786,170.37630081095267 55.69354148845014,169.44213241289617 55.6511976047841,169.36428275201797 55.68969204447785,169.29647792105425 55.845594525235356,169.27387625122174 56.309452523513755,169.2763875493365 56.28635585970187,169.11817505053477 55.91680923866079,169.16589008467236 54.31351582548814,169.16840139858868 52.0981608212096,169.26131975512726 51.844097519242496,169.29647792105425 51.44952951239975,169.43459859017275 50.03485885371629,170.11262939543303 49.46129170230415,170.33612257102686 49.18605645851494,170.54203505682744 49.40932420871832,171.857807759563 49.555603079548746,174.49658236575306 49.607570573127305,177.6645849202232 49.5748502994029,178.01850138199188 49.59794696321478,179.9084424757457 49.501710863980406,180.11925967041861 49.59794696321478,180.38528720117574 49.61911890504416,182.83957336830827 49.58447390931542,183.89094456873136 49.2476475620133,184.01891137496386 49.072497861416196,184.22215081506874 48.164029084684444,184.20709612413157 48.142857142855064,184.23720549282007 48.24101796406467,184.25226015738735 48.231394354152144,184.30996958273863 48.16210436270194,184.32753328244326 48.17750213857653,184.35262425087603 48.666381522671145,184.33756967421323 49.05902480752411,184.36767881436208 49.27074422582518,184.61607720836582 49.540205303674156,184.68131255511798 49.607570573127305,184.73149342262332 49.621043627026665,186.3848710837865 49.48631308810582,186.6131702244238 49.40932420871832,186.98195474031672 49.41894781863812,187.10989854049876 49.603721129162295,187.1174246167484 49.636441402901255,187.30306678795023 49.62296834900917,189.62342483715838 49.51133447391476,189.84415610476935 49.50556030795269,190.0322771080373 49.44396920444706,190.11254144314626 49.3265611633833,190.1777559395905 49.484388366116036,190.09498365184663 49.59024807527021,190.25300312820946 49.594097519242496,190.37841437764837 49.686484174504585,190.55900497025686 49.773096663811884,191.21112187913423 49.93092386655189,193.15729303698208 49.89242942685814,193.6738942749762 49.79041916166898,193.88705045888128 49.51133447391476,194.24063312810358 49.53058169375436,194.488888957776 49.81351582548814,194.64686807516046 49.98096663814795,194.81738358986695 50.0964499572292,195.06312356481067 50.22925577416754,195.5947123183505 50.44097519246861,196.07112224600314 50.8798118049599,196.72804482739775 51.9326347305323,198.18973295505202 52.315654405465466,198.57832554611196 52.24636441402981,198.52317100296204 52.20017108639877,198.5357061419254 52.91039349871426,198.90172817410712 53.24721984601638,198.99699290582248 53.609067579120165,199.0371042140414 55.39713430282427,199.05715983310438 56.09195893925789,199.02456944027108 56.24593669803289,199.1323681964368 56.434559452529356,199.43319836338742 56.60201026518189,199.45325352089276 56.70979469631129,199.2050693019246 56.888793840887956,198.93181183056367 57.31030795551487,198.5883536258698 60.80752780153853,197.32226235365306 60.926860564584786,197.28716146664556 60.953806672368955,197.34984157179315 60.899914456800616,197.26961099629443 60.83832335329498,197.38494233094752 60.874893070991675,197.35485597033403 60.896065012821055,197.37742074572998 60.913387510685425,197.2821470483741 60.978828058163344,197.37742074572998 60.953806672368955,197.28966867523195 61.019247219846875,197.24955329397017 61.7044482463607,197.0489749849221 62.52053036783036,197.01136629169014 64.67429426861054,197.04145325284662 67.44204448246455,197.00885904255483 67.5940975192425,197.04145325284662 68.60650128314592,197.01136629169014 69.59580838323745,197.04646774126377 71.0431993156526,197.0038445431819 71.53015397775744,196.84337979175507 72.28849443968647,196.70798649381868 74.13045337895164,196.5550409314128 75.61248930709553,196.58011406759397 75.9685628742518,196.5550409314128 76.35350727117475,196.44221136648594 76.76732249786437,196.22908683636888 77.16189050469984,195.90061915598199 77.1079982891315,195.92318583843553 77.02908468776877,195.8705302000035 76.9443969204367,195.95327470233315 77.03678357570607,195.86551536889056 77.15034217279026,195.91315620543355 77.22155688623025,195.8755450296485 77.47562018819008,195.8605005363097 77.75278015397635,195.54707060007968 77.77780153977073,195.24366498328527 78.25898203592806,194.76973971912412 78.56693755347078,194.41115266907764 78.68049615055497,194.16540338154482 78.7420872540606,193.89457357006177 78.84024807527749,185.5519298307754 78.87874251497124,185.30856287082133 78.87681779298146,184.71643917775327 78.97305389221583,184.46051499783607 79.0,184.14938635340513 78.99422583403793,183.76548599074158 78.9114627887102,183.524602954094 78.9153122326752,182.9148526800309 78.83832335329498,181.26866983508626 78.87681779298146,178.51798809650245" stroke="#ff0000" stroke-linecap="round" stroke-linejoin="round" stroke-width="0.5"><title>2023-09-14 39.1km</title><desc>1694696482000</desc></polyline><polyline fill="none" points="99.65217562578619,168.8571428571595 91.5826501394622,176.6622573537752 92.55655838781968,192.0908276528353 95.89567238232121,197.8991808986757 102.85215986985713,198.44371262239292 108.41734986007214,193.54291851224843 107.443441611249,174.48409080388956 102.57390037085861,169.40168732206803 96.73045088071376,170.3092608982697 92.2782988883555,175.21014674496837 92.97394763724878,195.35802969825454 100.06956487474963,199.71428571431898 108.27822011057287,193.90594096190762 107.443441611249,175.75468842254486 103.82606811868027,171.03531928209122 97.84348887903616,170.3092608982697 91.5826501394622,176.6622573537752 92.83481788728386,192.99838463915512 99.51304587582126,198.98824410652742 105.07823586603627,197.71767027140595 107.7217011116445,194.45047443686053 107.16518211225048,174.48409080388956 102.99128961982206,170.12774623616133 96.59132113074884,170.4907755345339 92.41742863832042,174.30257675191388 92.6956881377846,194.63198554248083 97.00871038017794,198.44371262239292 102.1565111214295,198.98824410652742 107.86083086114377,192.45385052706115 107.86083086114377,173.21349188417662" stroke="#4dd2ff" stroke-linecap="round" stroke-linejoin="round" stroke-width="0.5"><title>2023-09-11 1.8km</title><desc>1694438011000</desc></polyline><polyline fill="none" points="136.71037182002328,186.26185296068434 141.71232876717113,182.30965649947757 149.32093933434226,185.0670054887305 148.33463796461,189.47873871016782 130.08806262235157,190.58166717662243 127.69275929569267,189.11109545774525 124.45205479464494,190.30593524151482 122.97260273993015,189.01918461121386 122.76125244610012,185.61847383499844 133.75146771059372,186.72140907600988 142.1350293541327,183.68833250639727 149.18003913899884,184.5155366588151 148.96868884540163,189.66256025567418 129.73581213317811,189.84638174745487 125.93150684935972,187.36478707258357 124.7338551862631,189.01918461121386 122.47945205471478,188.37580830813386 122.40900195715949,185.52656247769482 132.83561643818393,186.1699416973861 143.8258317024447,183.50450921355514 149.74363992153667,184.79127113422146 148.1232876710128,189.66256025567418 133.3287671233993,189.38682791701285 125.8610567515716,190.67357779492158 122.05675146798603,188.37580830813386 122.19765166356228,185.7103851789143 138.54207436414436,185.34273972251685 146.00978473597206,183.59642086661188 149.67318982374854,184.88318259944208 148.40508806263097,189.5706494897022 129.8767123289872,189.84638174745487 125.36790606682189,190.94930956873577 122.97260273993015,189.754471008142 121.0,186.44567544700112 121.5636007830035,185.52656247769482 127.27005870849825,185.89420782687375 134.667318982305,184.42362513992703 140.51467710360885,185.4346511067124 148.89823874738067,184.42362513992703 148.89823874738067,177.2544852666906 151.8571428572759,177.43831038754433 148.4755381604191,176.8868348635151 147.98238747543655,189.47873871016782 133.18786692759022,189.2030062911217 124.38160469685681,191.68459370790515 121.9863013701979,187.0890537260566 122.40900195715949,185.9861191304517 134.38551859091967,184.5155366588151 140.72602739720605,185.52656247769482 145.16438356158324,184.60744816396618 149.25048923655413,185.61847383499844 148.68688845378347,190.03020318516064 129.73581213317811,189.66256025567418 128.819960861234,190.94930956873577 124.24070450104773,191.68459370790515 122.90215264214203,190.48975654505193 122.40900195715949,185.61847383499844 132.34246575366706,183.04495074623264 136.35812133084983,184.42362513992703 140.51467710360885,184.14789050322725" stroke="#4dd2ff" stroke-linecap="round" stroke-linejoin="round" stroke-width="0.5"><title>2023-08-30 4.9km</title><desc>1693396264000</desc></polyline><polyline fill="none" points="161.6921956622973,171.15707918303087 165.5117828603834,175.181958042318 168.0092052584514,194.5395360616967 173.15095725655556,199.13931453984696 183.28755405172706,193.38958891958464 183.43446125183254,172.30704583297484 174.17930765636265,169.04880437173415 166.54013325925916,173.2653506032657 168.1561124585569,195.30616692930926 172.71023565717041,199.71428571431898 178.88033805415034,199.33097162574995 183.875182852149,195.8811397854006 183.875182852149,175.3736186317401 180.9370388528332,170.39043418958317 175.06075085606426,169.04880437173415 166.98085485957563,175.56527919333894 168.4499268596992,196.0727973479079 172.41642125695944,199.5226286839461 183.72827565204352,194.34787827462424 183.58136845193803,174.99029742425773 180.79013165365905,170.58209548017476 174.91384365595877,169.2404658581363 169.3313700594008,170.96541797707323 166.83394765947014,174.99029742425773 167.71539085917175,194.73119382036384 175.20765805616975,199.33097162574995 183.72827565204352,195.49782457586844 183.28755405172706,174.99029742425773 181.0839460529387,171.15707918303087 173.44477165676653,169.2404658581363 166.83394765947014,173.64867231529206 167.71539085917175,193.5812468463555 174.91384365595877,199.5226286839461 180.79013165365905,198.37268591450993 183.875182852149,194.15622045984492 182.8468324523419,173.45701147348154 177.26435885485262,168.8571428571595 167.86229805927724,172.88202877924778 167.86229805927724,194.15622045984492 171.24116365797818,198.75600028270856 179.0272452533245,199.13931453984696 183.72827565204352,193.96456261642743 183.58136845193803,177.29022298776545 178.73343085404485,169.62378874782007 168.1561124585569,172.49870684288908 167.56848365999758,192.62295693100896 172.12260685767978,198.56434311252087 179.46796685364097,199.13931453984696 183.28755405172706,196.0727973479079 184.02209005132318,180.74010376422666" stroke="#4dd2ff" stroke-linecap="round" stroke-linejoin="round" stroke-width="0.5"><title>2023-08-25 3.1km</title><desc>1692968645000</desc></polyline><polyline fill="none" points="32.11981566762552,213.21462868491653 31.62211981508881,217.65159286226844 42.15668202750385,218.08446599188028 42.57142857089639,223.92822845786577 11.714285714086145,223.82001105393283 12.211981566157192,218.6255570477224 30.460829492658377,218.6255570477224 39.5852534561418,216.78584584355121 42.07373271835968,217.86802945833188 42.239631335716695,223.38714127935236 31.788018432911485,223.49535874661524" stroke="#4dd2ff" stroke-linecap="round" stroke-linejoin="round" stroke-width="0.5"><title>2023-08-24 1.1km</title><desc>1692883156000</desc></polyline><polyline fill="none" points="63.95765139115974,234.0 64.04852734878659,233.5554059401038 64.2757172427373,233.73324368111207 63.61686655029189,215.14835582660453 63.07161080464721,211.7394593694189 63.95765139115974,211.0873161215859 63.09432979405392,210.2869556309888 63.38967665610835,207.0854820580571 62.86713990010321,203.14285714285506" stroke="#4dd2ff" stroke-linecap="round" stroke-linejoin="round" stroke-width="0.5"><title>2023-08-21 1.2km</title><desc>1692620048000</desc></polyline><polyline fill="none" points="100.64753018773627,223.1710634486517 100.23546552279731,224.05430804188654 100.5297974263085,234.0 100.36791487940354,221.65417299805267 100.00000000005821,219.19638923738967 100.10301616624929,216.39292345548165 99.44076938339276,203.98782883689273 99.8086842627381,203.3156927046657 100.42678126017563,203.14285714285506 99.70566809654702,203.21967297620722 99.35246981232194,203.8534018858336 99.38190300273709,208.07818308802962 100.01471659523668,215.87446774395357 99.82340085797478,218.58193610706076 100.22074892761884,221.00132867472712 100.60338040214265,233.98080054827733 100.27961530833272,225.2063572764455" stroke="#4dd2ff" stroke-linecap="round" stroke-linejoin="round" stroke-width="0.5"><title>2023-08-10 4.8km</title><desc>1691669615000</desc></polyline><polyline fill="none" points="138.49121466791257,217.44123356422642 141.21390374330804,214.31968657393008 150.37203972507268,214.31968657393008 151.27960275067016,220.45512844179757 121.90756302513182,221.8544325825642 121.0,217.22595488629304 131.39572192542255,213.5662077308516 138.07868602033705,215.50372319767484 150.53705118456855,215.07316464569885 151.8571428572759,219.59401687886566 134.8609625673853,221.63915519579314 122.56760886218399,221.10096145264106 121.0825057295151,220.6704061747878 121.0,218.73290430865018 122.89763178024441,215.61136279610218 132.30328495055437,216.47247901849914 143.93659281916916,214.31968657393008 151.1145912911743,214.96552496851655 150.61955691408366,220.34748955135 129.4155844161287,221.96207125257934 121.49503437709063,220.99332265689736 121.49503437709063,216.90303675172618 123.8051948058419,215.82664194639074 140.22383498912677,216.6877579165739 142.78151260549203,215.2884439531481 151.36210848018527,215.39608358347323 151.36210848018527,220.45512844179757 133.2933537052013,220.8856838454376 127.35294117685407,223.36137252888875 122.1550802141428,221.42387774551753 121.16501145903021,218.19470844051102 122.2375859436579,217.1183155240724 133.04583651665598,216.58011847554008 134.5309396488592,215.18080430745613 140.30634071817622,217.1183155240724 151.6096256687306,215.82664194639074 151.36210848018527,220.56276731623802 127.8479755539447,221.7467938970658 121.66004583705217,220.23985064547742 121.5775401070714,216.90303675172618 123.3926661578007,215.61136279610218 140.96638655522838,216.90303675172618 151.8571428572759,215.93428149766987 151.1970970206894,220.77804501808714 132.05576776200905,221.42387774551753 129.16806722711772,223.14609558257507 122.8151260507293,221.8544325825642 121.82505729561672,219.16346071957378 122.98013750975952,216.58011847554008 140.6363636367023,217.3335942333215 151.52711993921548,215.71900237881346 151.7746371277608,220.8856838454376 135.7685255925171,220.77804501808714 131.72574484348297,221.42387774551753 130.07563025224954,223.5766494119307" stroke="#4dd2ff" stroke-linecap="round" stroke-linejoin="round" stroke-width="0.5"><title>2023-08-08 4.7km</title><desc>1691498421000</desc></polyline><polyline fill="none" points="175.05649884825107,203.14285714285506 175.28473390405998,213.23966390575515 176.50890374812298,213.64569019219198 176.44665782386437,214.24119380145567 169.20538196607959,214.02464725608297 170.0353276230162,215.83821675024228 170.36730588588398,228.09964584598492 170.92751920432784,232.29487110035552 171.5292298058048,234.0" stroke="#4dd2ff" stroke-linecap="round" stroke-linejoin="round" stroke-width="0.5"><title>2023-08-04 1.6km</title><desc>1691107871000</desc></polyline><polyline fill="none" points="26.496634255629033,250.6440722286934 35.220643230713904,248.64174763602205 41.4405385190621,249.69560337846633 42.167539266869426,255.59716705488972 29.970082273706794,254.85947423841571 12.118175018578768,256.4402436349774 12.198952879291028,252.85716135817347 14.541510845068842,250.2225306717446 20.76140613295138,249.37944681744557 26.819745699409395,250.4333014812437 35.46297681378201,247.6932761502103 42.005983545444906,250.01175980066182 42.40987284947187,255.49178241327172 12.118175018578768,256.33485911629396 12.198952879291028,252.54100618482335 14.703066566959023,250.2225306717446 22.296185489743948,248.85251890786458 26.01196709042415,250.1171452437411 41.35976065834984,250.1171452437411 42.57142857136205,255.59716705488972 13.087509349454194,256.8617815551115 11.714285714086145,254.64870472380426 13.168287210166454,252.01408058661036 21.892296185251325,249.48483235330787 41.27898279717192,250.01175980066182 41.925205684266984,255.38639775611227 13.249065070878714,256.8617815551115 12.52206432307139,252.3302359918016 18.661181750241667,250.53868686268106 31.666417351923883,251.59253983106464 42.167539266869426,250.4333014812437 42.24831712804735,255.0702436917345 14.541510845068842,256.7563970981282 11.875841435976326,255.17562839528546 12.764397905673832,252.43562109587947 20.034405385144055,250.2225306717446 42.086761406157166,250.96022823493695 42.167539266869426,254.96485897293314 24.31563201220706,255.80793629266554 19.22662677662447,258.0210095641087 15.430067314766347,257.38870360847795 13.329842931590974,256.33485911629396 12.764397905673832,252.85716135817347 18.741959610953927,250.1171452437411 31.585639491211623,252.11946573719615 41.68287210166454,250.6440722286934 42.32909498875961,255.49178241327172 24.719521316234022,255.0702436917345 18.98429319402203,256.8617815551115" stroke="#4dd2ff" stroke-linecap="round" stroke-linejoin="round" stroke-width="0.5"><title>2023-07-26 4.8km</title><desc>1690377436000</desc></polyline><polyline fill="none" points="58.42857142817229,251.13952470506774 75.70857142843306,248.563066098548 78.91771428566426,249.20718159765238 78.259428571444,254.89684396336088 58.09942857129499,255.1115473404643 50.6114285713993,257.6879829635145 48.471999999601394,255.43360228772508 48.88342857128009,251.24687695066677 55.95999999996275,248.563066098548 60.979428571183234,250.28070617449703 78.259428571444,249.31453412643168 78.09485714277253,254.3600852470263 50.035428571049124,256.8291720939451 48.1428571427241,254.57478878059192 48.80114285694435,251.46158139506588 55.46628571441397,248.24100813700352 60.32114285696298,248.02630275080446 64.02399999974295,250.28070617449703 71.26514285709709,248.24100813700352 78.42399999964982,249.42188663891284 78.50628571445122,255.00419565971242 48.63657142827287,255.1115473404643 48.63657142827287,251.24687695066677 50.035428571049124,250.60276324121514 67.47999999998137,250.17335378739517 73.89828571397811,248.24100813700352 78.75314285699278,249.42188663891284 78.34171428531408,254.7894922516425 48.63657142827287,255.3262506541796 48.80114285694435,251.13952470506774 52.17485714284703,249.74394408229273 66.82171428576112,249.9586489663343 73.89828571397811,248.02630275080446 78.99999999953434,249.42188663891284 78.34171428531408,255.00419565971242 49.13028571428731,255.9703602194204 49.70628571417183,250.81746787391603 63.69485714286566,250.17335378739517 72.17028571432456,248.13365545182023 78.67085714265704,249.52923913567793 78.5885714283213,254.89684396336088 48.63657142827287,254.89684396336088 49.04799999995157,250.81746787391603 59.66285714274272,252.32039854425238 72.82857142854482,248.13365545182023 78.83542857132852,249.31453412643168 78.75314285699278,255.00419565971242 49.953142856713384,255.6483055075514" stroke="#4dd2ff" stroke-linecap="round" stroke-linejoin="round" stroke-width="0.5"><title>2023-07-24 4.9km</title><desc>1690201802000</desc></polyline><polyline fill="none" points="103.53223928390071,237.7819242550031 103.48709884588607,237.4285714285652 102.20059635897633,238.1647224505141 102.02003460656852,239.22477519385575 102.51657942589372,245.7910886688769 103.71280103642493,246.35054045607103 103.7579414746724,246.821656544882 98.45393999374937,247.0572141760058 95.58752217236906,246.73332236215356 96.51290115411393,247.76388541588676 96.73860334476922,249.1183316938841 97.00944597355556,261.690691732947 98.29594846034888,268.2857142857101 97.46085035486612,265.0765561811859 98.45393999374937,264.19329268280126 97.61884188826662,238.4002902090724 103.35167753137648,238.01749246141117 104.05135432246607,237.87026236469683 104.16420541785192,237.45801752114494 104.41247782763094,237.9586004356388" stroke="#4dd2ff" stroke-linecap="round" stroke-linejoin="round" stroke-width="0.5"><title>2023-07-24 3.0km</title><desc>1690157385000</desc></polyline><polyline fill="none" points="136.635893427243,258.33570110524306 137.213433280529,268.2857142857101 136.7987892833189,254.99310132459505 136.48780628532404,253.52464924634842 136.76917185494676,252.26872333310894 136.54704114212655,251.650416958626 135.925075146195,238.80058250724687 136.29529300093418,237.83437900664285 136.99130256765056,237.52519239360117 136.36933657189365,237.46721982305462 135.86584028950892,238.25950941778137 135.86584028950892,242.394797475441 136.44338014273671,251.55380632609013 136.5766585704405,250.47176241477428 135.80660543270642,238.6846384604287 136.07316228811396,237.91167554684216 136.76917185494676,237.50586820622266 136.25086685834685,237.4285714285652 135.68813571921783,238.43342600970936 135.6437095766887,242.25953309192846 136.20644071581773,251.8629601012799" stroke="#4dd2ff" stroke-linecap="round" stroke-linejoin="round" stroke-width="0.5"><title>2023-07-22 4.9km</title><desc>1690030226000</desc></polyline><polyline fill="none" points="169.17953689955175,250.2230863260338 163.84340276475996,247.0244695295114 166.15092022903264,263.5819293401437 170.62173531390727,266.9686562345596 177.8327273875475,265.46344538219273 181.4382234243676,259.25443200278096 180.14024485088885,243.44953546416946 177.40006786305457,238.7456597192213 172.49659325368702,237.42857142863795 164.99716149736196,241.19167725287843 166.43935991171747,262.26486647396814 169.3237567404285,266.5923536864575 173.50613214354962,267.72126100049354 181.87088294886053,260.94780225958675 181.0055638998747,247.21262367884628 175.38099008332938,237.6167269811267 169.03531705774367,238.18119347386528 164.42028213106096,242.69691650103778 165.57404086273164,261.700410547317 172.0639337291941,267.53310985013377 180.71712421718985,262.82932215358596 180.4286845335737,243.44953546416946 171.77549404557794,238.55750433111098 164.7087218137458,243.6376901366748 165.8624805463478,263.95823276927695 171.77549404557794,268.285714285681 181.58244326524436,261.88856255076826 180.8613440580666,247.40077780070715" stroke="#4dd2ff" stroke-linecap="round" stroke-linejoin="round" stroke-width="0.5"><title>2023-07-18 1.7km</title><desc>1689685608000</desc></polyline></svg>