<?xml version="1.0" encoding="utf-8" ?>
<svg baseProfile="full" height="300mm" version="1.1" viewBox="0,0,200,300" width="200mm" xmlns="http://www.w3.org/2000/svg" xmlns:ev="http://www.w3.org/2001/xml-events" xmlns:xlink="http://www.w3.org/1999/xlink"><defs /><rect fill="#222222" height="300" width="200" x="0" y="0" /><text fill="#FFFFFF" style="font-size:12px; font-family:Arial; font-weight:bold;" x="10" y="20">Over 10km Runs</text><text fill="#FFFFFF" style="font-size:4px; font-family:Arial" x="10" y="280">ATHLETE</text><text fill="#FFFFFF" style="font-size:9px; font-family:Arial" x="10" y="290">Yunlong</text><text fill="#FFFFFF" style="font-size:4px; font-family:Arial" x="120" y="280">STATISTICS</text><text fill="#FFFFFF" style="font-size:3px; font-family:Arial" x="120" y="285">Number: 48</text><text fill="#FFFFFF" style="font-size:3px; font-family:Arial" x="120" y="290">Weekly: 1.8</text><text fill="#FFFFFF" style="font-size:3px; font-family:Arial" x="141" y="285">Total: 240.9 km</text><text fill="#FFFFFF" style="font-size:3px; font-family:Arial" x="141" y="290">Avg: 5.0 km</text><text fill="#FFFFFF" style="font-size:3px; font-family:Arial" x="167" y="285">Min: 1.1 km</text><text fill="#FFFFFF" style="font-size:3px; font-family:Arial" x="167" y="290">Max: 39.1 km</text><polyline fill="none" points="36.34748700167984,46.40489698402234 38.5,45.61092845798703 37.84488734835759,42.679339272523066 38.5,43.90083726987359 37.56412478350103,45.91630114673171 26.848353552864864,57.337079209974036 11.5,44.57265964400722 13.55892547685653,43.04578904728987 21.233102253172547,33.15153214917518 22.496533795725554,32.662920790025964 21.1863084922079,32.78507368345163 19.220970537280664,35.289200116560096 22.1221837089397,32.84615011670394 26.052859618794173,32.78507368345163 36.113518197555095,40.72493503789883 38.35961871757172,43.90083726987359 31.621317157521844,52.51229667005828 25.491334488615394,56.42098555061966 18.75303292903118,49.51968199494877 16.740901213372126,49.458608002605615 11.546793760964647,44.45051020185929 13.324956672498956,43.29008871829137 17.62998266890645,37.304705596208805 20.858752166386694,34.80059126121341 21.233102253172547,33.15153214917518 24.649046793812886,32.90722654113779" stroke="#4dd2ff" stroke-linecap="round" stroke-linejoin="round" stroke-width="0.5"><title>2024-11-14 2.7km</title><desc>1731589127000</desc></polyline><polyline fill="none" points="54.92872634372907,58.5 53.82002502429532,57.25968434718379 52.66380793409189,56.72221084780176 51.31752776046051,54.861709861201234 47.48458891338669,52.21562179096509 47.215332878695335,51.98822128372558 47.50042750366265,51.6574562559108 47.294525830075145,51.8641844891099 46.88272248284193,51.554092025835416 50.96907877444755,46.69588786078384 50.288019392464776,45.827595467155334 47.42123455228284,43.367404688571696 46.67682080925442,43.202012174078845 42.81220478157047,47.832929349693586 44.96625305933412,50.23102319802274 46.39172618428711,51.264671779063065 47.373718781454954,50.851213254616596 50.889885823009536,46.46847846425953 47.65881340642227,43.53279700924759 46.89856107311789,43.222686249020626 45.568119489820674,44.483799093810376 42.85972055239836,47.91562291905575 46.1383087397553,51.03726974042365 46.53427349671256,51.326690453264746 47.05694697587751,51.16130726141273 50.905724413343705,46.65454072502325 50.604791197984014,46.05500589587609 48.387388559174724,44.04964676288364 47.19949428841937,43.16066401518765 46.74017517035827,43.24336032086285 42.85972055239836,47.894949531240854 43.192330948251765,48.43245663000562 46.75601376069244,51.368036220999784 48.46658151055453,49.693522945657605 52.48958344105631,44.752559391607065 53.677477711753454,43.88425504748011 54.67530889925547,43.512122979795095 59.15762994776014,43.346730634832056 64.71697513514664,42.37504669574264 64.41604191978695,40.26626280297933 63.62411240598885,37.76462538103806 66.85518482257612,36.35872704460053 67.18779521837132,35.965900007111486 65.54058182955487,33.484861887816805 63.52908086433308,31.85148799259332 60.91571346856654,31.5 55.45139982289402,37.51652669181931" stroke="#4dd2ff" stroke-linecap="round" stroke-linejoin="round" stroke-width="0.5"><title>2024-11-11 6.9km</title><desc>1731328526000</desc></polyline><polyline fill="none" points="85.08677685935982,57.07063411679701 84.61570247926284,57.23242985003162 80.97107437998056,54.967278808384435 71.5,46.58601812874258 73.40909090905916,41.990751910809195 76.55785123957321,40.14614634712052 79.55785123957321,36.10090481193038 82.65702479332685,32.864658277947456 83.35123966936953,32.767570149953826 88.35950413218234,37.16885576983623 88.88016528927255,38.20443964964943 83.2272727272939,44.80617283002357 82.06198347103782,45.323947485900135 76.48347107437439,40.08142306533409 80.67355371895246,34.61223729146877 81.7644628098933,34.191525088084745 82.70661157020368,32.92938367299212 83.35123966936953,32.89702097787813 88.83057851227932,37.9131821738556 85.35950413229875,42.44381057172723 82.30991735530552,45.45339096049429 76.60743801656645,40.372677684092196 76.95454545447137,39.36946571497538 80.94628099165857,34.418062527882284 81.64049586770125,34.353337568754796 82.85537190071773,32.864658277947456 83.47520661156159,32.92938367299212 88.80578512395732,37.880820208461955 84.98760330572259,42.799784582311986 82.35950413218234,45.42103009893617 76.68181818176527,40.50212405814091 76.70661157020368,39.919614778016694 79.40909090894274,36.16562925933977 83.15289256197866,32.89702097787813 88.88016528927255,37.945544134578086 83.62396694207564,44.51492405300087 82.40909090894274,45.35630836164637 76.48347107437439,40.34031607878569 79.73140495864209,35.874369096927694 82.2851239668671,33.38246090769826 83.45041322312318,32.83229557334562 88.73140495864209,37.65428631764371 88.55785123957321,38.46333486147341 85.5330578511348,42.18492002200219 83.15289256197866,44.93561660764681 82.08677685935982,45.42103009893617 76.65702479332685,40.534485639829654 76.90495867759455,39.498912676557666 80.45041322312318,35.097673454132746 83.37603305780794,32.83229557334562 88.80578512395732,37.65428631764371 84.98760330572259,42.735062077626935 82.30991735530552,45.323947485900135 76.58264462812804,40.50212405814091 76.65702479332685,39.69308297672251 77.92148760333657,38.722229770122794 79.28512396675069,36.2950780972169 83.12809917342383,32.79993286397075 88.85537190071773,37.65428631764371 82.2851239668671,45.61519519687863 83.57438016519882,46.10060719581088 89.99586776853539,38.722229770122794 94.5330578511348,42.735062077626935 96.02066115685739,43.51173088383803 98.5,46.10060719581088" stroke="#4dd2ff" stroke-linecap="round" stroke-linejoin="round" stroke-width="0.5"><title>2024-10-22 9.9km</title><desc>1729553484000</desc></polyline><polyline fill="none" points="102.37998641995364,46.42720910139178 101.71083007976995,46.45706595932279 101.5,46.34360978343102 101.62374809029279,45.97338218175719 101.84374469530303,45.788267126245046 102.11874045155128,45.72258093773053 102.11874045155128,45.459835130441206 102.29748769308208,45.41803450573207 102.74664742825553,45.44192058222325 109.16779833644978,44.85073609573374 109.69029027328361,44.88656570142484 110.45569512818474,44.737275471008616 111.66567645562463,44.62978616821056 111.95900526226615,44.67158759724407 112.25691733154235,44.564098122114956 115.55686640637578,44.21774122799252 117.8943303344131,44.05650512315333 118.23349176711054,44.10427885000172 118.60931930062361,43.99678788624442 121.7488541843486,43.83555091172457 121.79927007301012,44.02067479145262 122.50967577661504,44.00873134058929 122.72050585641409,43.81763565316214 123.58215922594536,43.728059242799645 128.5,43.54293404067721 124.39339670684421,43.650426195374166 122.74342216941295,43.7997203867526 122.40884399935021,43.69222862380775 121.72135460871505,43.745974540554016 121.63885588184348,43.69222862380775 121.53802410454955,43.84749441308668 121.3317772873852,43.88929664042007 116.5697674418625,44.128165692545736 107.8936513325607,45.00002591266821 107.26574435579823,44.988082747331646 104.10787642165087,45.36429078271976" stroke="#4dd2ff" stroke-linecap="round" stroke-linejoin="round" stroke-width="0.5"><title>2024-10-19 10.0km</title><desc>1729295146000</desc></polyline><polyline fill="none" points="151.84348477749154,58.5 150.285423444584,57.21734252999886 149.15882524999324,55.3402689423674 136.45463284349535,44.73449344524124 138.61194853519555,42.66959098567895 143.93332724133506,35.41098763594346 147.5767937428318,31.5 148.4876603683224,31.844169784351834 153.54536715650465,36.38090149278287 151.48393216216937,39.13418135914253 148.05619723000564,43.107602265517926 147.0494499070337,43.60818548608222 141.63219050352927,38.66487479902571 145.4913885742426,33.4398588144104 147.8164954863023,31.5 153.52139698213432,36.44347642916546 150.357333967695,40.47952111961786 147.16930077888537,43.60818548608222 141.68013085226994,38.85259754672006 141.77601154963486,38.03913111555448 147.24121130176354,31.6564408797567 148.05619723000564,31.562576365759014 152.9700829720823,35.66128840755846 153.44948645902332,36.193176573709934 153.28169523866381,36.97536264851806 147.8884060094133,43.2953211106942 147.00150955840945,43.51432622158609 141.63219050352927,38.727449066529516 141.75204137526453,37.97655664640479 146.4981358969817,32.532507690018974" stroke="#4dd2ff" stroke-linecap="round" stroke-linejoin="round" stroke-width="0.5"><title>2024-10-10 5.0km</title><desc>1728516073000</desc></polyline><polyline fill="none" points="185.35389182518702,55.32044669067545 182.53301727224607,58.5 181.22943130449858,58.165312676428584 176.33564136025961,53.64697626957786 175.8227550779702,52.61499551679299 165.75736178655643,44.554196760786 164.64610817481298,43.18745312401734 167.65931508375797,39.56135106565489 168.85604974254966,39.33820406938321 168.59960660140496,38.86401583456609 171.22814879845828,35.29361946246354 174.71150146611035,31.555789068792365 175.6731632455485,31.72315617716231 180.09680743096396,36.01886164091411 175.37397958082147,41.7928066533932 174.60465015738737,42.43434529780643 173.89943151909392,42.18330869427882 169.98867361608427,38.94769619705039 169.43304681021255,38.02721018822922 171.89062691305298,34.59626861049037 174.56190963392146,31.667367157380795 175.13890670146793,31.5 175.75864429271314,31.918417617751402 179.58392114855815,35.20993749493209 180.0326966457069,36.01886164091411 175.07479591609444,41.960164768926916 174.13450439844746,42.266987598879496 169.64674942777492,38.58508102752967 169.3475657630479,37.94352942144906 172.95914000144694,33.229453535881476 174.96794460737146,31.5 179.84036428981926,35.4051953619346 179.79762376635335,36.54884456380387 175.07479591609444,42.071736764293746 173.92080178088509,42.09962975284725 172.18981057789642,40.732868507970124" stroke="#4dd2ff" stroke-linecap="round" stroke-linejoin="round" stroke-width="0.5"><title>2024-10-05 4.9km</title><desc>1728122302000</desc></polyline><polyline fill="none" points="18.546418835408986,66.35034781612922 21.276780097279698,88.33832530851942 30.70893718395382,82.84137178666424 31.577688494231552,67.80544802627992 27.233931941445917,63.11678496142849 20.904458107426763,63.92517655855045 19.29106281604618,77.82941984024365 21.1526727671735,87.5299514986109 30.212507863529027,82.03299397206865 31.70179582433775,69.74557867087424 28.9714345629327,63.601819990202785 23.13839004887268,62.955106571433134 20.28392145689577,65.05692380503751 19.29106281604618,75.56595024990384 21.400887427385896,87.20660180982668 29.84018587321043,84.13477506570052 31.577688494231552,69.74557867087424 27.358039271552116,62.955106571433134 21.649102088063955,63.601819990202785 19.911599466577172,65.86531398852821 18.918740825727582,77.50606732419692 20.408028787001967,86.2365521780448 23.386604709085077,86.88325202686246 30.460722523741424,82.84137178666424 31.70179582433775,67.48209258879069 26.86160995112732,62.955106571433134 20.28392145689577,64.57188941235654 19.042848156299442,79.12282896181569 21.1526727671735,87.69162630813662 30.584829853847623,83.48807361465879 31.70179582433775,69.42222379893064 30.83304451406002,65.54195798572619 26.98571728169918,62.955106571433134 20.28392145689577,65.05692380503751 19.539277476724237,85.75152704364154 21.400887427385896,87.04492693021894 30.95715184416622,83.00304727931507 31.82590315444395,68.61383620707784 27.730361262336373,62.955106571433134 20.03570679621771,65.05692380503751 19.663384806364775,84.45812564983498 22.02142407791689,87.5299514986109 31.453581164591014,82.84137178666424 31.577688494231552,66.67370358295739 27.233931941445917,63.11678496142849 19.539277476724237,65.86531398852821 18.670526165980846,75.56595024990384 20.656243447214365,85.26650169771165 22.641960728447884,86.39822717546485 31.205366504378617,83.00304727931507 31.70179582433775,67.96712570940144 27.358039271552116,63.11678496142849 20.03570679621771,65.05692380503751 19.41517014661804,82.51802073186263 23.510712038725615,87.69162630813662 31.081259174272418,84.29645036929287 31.577688494231552,68.29048100544605 29.71607854263857,64.08685480745044 26.241073300596327,62.79342815768905 19.41517014661804,65.86531398852821 18.794633495621383,75.88930333114695 21.400887427385896,88.17665059340652 31.081259174272418,84.94315134908538 31.329473834019154,68.29048100544605 27.85446859197691,62.955106571433134 19.663384806364775,64.41021123412065 20.03570679621771,87.20660180982668 30.70893718395382,85.58985195192508 31.82590315444395,80.41623657534365 31.205366504378617,65.86531398852821 26.98571728169918,62.63174972019624 22.517853398341686,62.63174972019624 19.042848156299442,66.51202571147587 20.15981412678957,86.07487715652678 27.730361262336373,87.20660180982668 31.577688494231552,81.06293981650379 30.70893718395382,66.35034781612922 25.620536650530994,62.30839277501218 20.656243447214365,63.27846332779154 17.925882185343653,65.21860188920982 20.03570679621771,85.42817683657631 24.379463349934667,88.01497585559264 29.71607854263857,87.36827666626777 31.82590315444395,81.70964268106036 30.584829853847623,65.86531398852821 28.350897911936045,63.440141670638695 21.773209417704493,63.601819990202785 18.918740825727582,68.12880336889066 20.03570679621771,85.58985195192508 28.72321990225464,87.5299514986109 31.577688494231552,83.48807361465879 30.70893718395382,64.89524569781497 24.8758926698938,62.30839277501218 19.41517014661804,65.86531398852821 20.03570679621771,85.26650169771165 23.01428271830082,87.85330109333154 28.84732723236084,87.5299514986109 31.70179582433775,80.7395882429555 30.70893718395382,63.92517655855045 22.890175388660282,62.955106571433134 19.16695548640564,67.80544802627992 19.663384806364775,84.94315134908538 23.01428271830082,88.5 26.365180630702525,88.33832530851942 31.453581164591014,82.84137178666424 30.584829853847623,63.76349828590173 23.13839004887268,62.63174972019624 19.042848156299442,66.67370358295739 19.042848156299442,83.16472274775151 23.13839004887268,87.36827666626777 27.233931941445917,87.85330109333154 31.82590315444395,82.51802073186263 31.205366504378617,65.21860188920982 25.99285864084959,62.470071259653196 19.29106281604618,66.67370358295739 19.539277476724237,81.38629129622132 22.393746068235487,85.75152704364154 28.350897911936045,86.88325202686246 32.07411781465635,81.06293981650379 31.82590315444395,66.51202571147587 26.613395291380584,61.5 19.41517014661804,65.86531398852821 19.539277476724237,83.48807361465879 24.255356019362807,87.69162630813662 30.95715184416622,84.61980090616271 32.07411781465635,67.32041483500507 27.482146601658314,62.30839277501218 20.15981412678957,63.92517655855045 19.29106281604618,82.67969627096318 26.241073300596327,87.5299514986109 30.70893718395382,85.42817683657631 32.07411781465635,66.83538143092301 26.98571728169918,61.661678602336906 19.539277476724237,65.38027994928416 18.422311505768448,80.7395882429555" stroke="#4dd2ff" stroke-linecap="round" stroke-linejoin="round" stroke-width="0.5"><title>2024-09-08 8.9km</title><desc>1725751236000</desc></polyline><polyline fill="none" points="55.180841334629804,62.112590444041416 57.350937352282926,61.5 56.699908547103405,61.82985653728247 57.38710561930202,74.03431182334316 63.46337446849793,72.24372560062329 64.87393687991425,73.13901995151537 64.36758114257827,75.40080516351736 64.69309554528445,87.6047481840942 50.11728396010585,88.5 45.740923658013344,87.98169661915745 46.17494286154397,78.6992135681794 45.16223138663918,72.29084641765803 45.126063119852915,63.00791285108426 45.994101526681334,62.159712737833615" stroke="#4dd2ff" stroke-linecap="round" stroke-linejoin="round" stroke-width="0.5"><title>2024-08-20 2.0km</title><desc>1724107925000</desc></polyline><polyline fill="none" points="89.2065217391355,62.444747336237924 83.56521739135496,62.103657095940434 83.72826086956775,67.94471668387996 83.51630434783874,68.2857931847393 77.59782608697424,67.09202192195517 77.15760869573569,67.98735129040142 77.2065217391355,73.03946340709808 76.68478260876145,73.06077996300883 72.36413043487119,70.84384136964218 71.51630434783874,71.07832686208712 71.5,86.10592445252405 91.26086956518702,87.89634290405957 91.35869565216126,84.63520704687107 90.7065217391355,77.06823679966328 91.73369565216126,76.87639298551949 95.92391304345801,77.11086872384476 97.17934782605153,76.83376099234738 98.05978260870324,77.13218468129344 97.78260869567748,76.5992848060414 98.5,76.17296349581738 97.21195652172901,69.7140423184901 96.1684782608645,66.77226009356673" stroke="#4dd2ff" stroke-linecap="round" stroke-linejoin="round" stroke-width="0.5"><title>2024-08-18 4.9km</title><desc>1723938111000</desc></polyline><polyline fill="none" points="124.44386111205677,84.87138854208752 122.93284333415795,87.33648849208839 121.58803751179948,88.5 120.43966400052886,87.94782629986003 118.05225591140334,85.58134195210005 117.13053506682627,84.98971437026921 116.58656866679667,84.12198921720847 116.31458546681097,84.20087355295254 109.34879351052223,78.44219565209642 102.36789137648884,71.99297305631626 101.70304355426924,70.13901095344045 101.8692555098678,68.77810763835441 101.62749266537139,68.12723597510194 101.9296962209628,66.45073387435696 102.68520510994131,66.15487839639536 104.21133306558477,64.04442380268301 106.76495311030885,61.5 109.78698866616469,63.68939080875134 110.92025199963246,65.22786035749596 111.88730337744346,65.99708854247001 112.83924457756802,65.89846978985588 114.47114377771504,67.37774349730171 115.19643231114605,68.67949092178605 111.31311662192456,73.35384389283718 111.99307462194702,73.76801924470055 115.75550888897851,69.31063665996771 117.23630631132983,70.13901095344045 120.42455382278422,73.07772628414386 121.27072377840523,73.53134777100058 123.02350440080045,75.42470791822416 123.86967435642146,75.83887690318807 126.31752315670019,78.20553239014407 127.1939134679269,78.67885849825689 128.3725073346286,80.11854852194665 127.79832057910971,81.20323632235522 125.92465853440808,82.99788241377973 125.68289568996988,83.60923990885203 124.74606466770638,84.29947890769108" stroke="#4dd2ff" stroke-linecap="round" stroke-linejoin="round" stroke-width="0.5"><title>2024-08-14 5.1km</title><desc>1723587841000</desc></polyline><polyline fill="none" points="154.74818897573277,85.97594424164708 152.6312900292687,88.46589150284126 152.26540626073256,88.5 150.8802748513408,87.05038006593531 150.08317092701327,86.64107234880794 149.53434527420904,85.89067113280908 148.920183234266,85.65190609599813 148.00547381292563,84.52629290318146 142.11213168414542,79.83612087347137 136.17958772310521,74.34411581286986 135.6830311800586,73.13311091373907 135.77450212225085,72.26322638594138 135.4347529085935,71.12042703592306 135.63076207024278,68.39130860591831 137.32950813841308,66.49794512863446 137.74766101670684,66.46383018911729 137.35564269329188,66.42971523968299 136.80681704054587,65.74741415165772 136.48013510438614,65.90093224492739 135.6568966251798,67.04378280184756 135.87904034176609,68.08427878130897 135.52622385072755,68.25485100602236 135.25181102426723,64.34868442667357 135.35634924389888,61.99468672552757 138.3618230568245,61.5 139.44640708487714,61.7217563781669 141.7723824705463,61.56823277670628 139.42027252999833,64.7239550259037 144.7778562834137,69.32945027811365 146.55500601622043,70.3187551294468 147.35210994054796,71.61507290684676 150.93254396115663,74.66818541123939 147.63959004438948,78.77867418661481 148.24068480695132,78.94923075303086 150.33144919853657,76.35674399560958" stroke="#4dd2ff" stroke-linecap="round" stroke-linejoin="round" stroke-width="0.5"><title>2024-08-10 5.2km</title><desc>1723241479000</desc></polyline><polyline fill="none" points="183.175208913628,85.4549167984951 181.91169916430954,87.08433109683392 181.2799442896503,88.43888936055009 180.4225626740954,87.83032139827264 179.82089136482682,87.79105885431636 178.6476323119714,85.84754856022482 176.57186629524222,84.74817673064535 176.07548746519024,83.8058508468821 174.46601671306416,82.66719823672611 171.38245125341928,79.6045673834742 169.77298050140962,78.70147057407303 168.0281337047345,76.89525871023943 165.50111420603935,74.73562563557061 165.30557103059255,74.93195735226618 164.68885793862864,74.2055285647366 163.515598885715,73.49872921065253 163.079387186619,72.61522477920516 162.28217270190362,72.16365359969495 161.6955431754468,70.78929717469146 161.95125348184956,70.04321207368048 161.5,68.49212713052111 161.98133704729844,66.68577774746518 163.1245125348214,65.78259393072221 163.71114206122002,64.7223269049573 166.49387186631793,61.62001597182825 167.065459609963,61.561110639435356 167.12562674086075,61.875272113029496 167.4114206128288,61.83600196907355 168.73509749304503,62.81775211704371 169.231476323097,63.583512242446886 170.615320334211,64.60451894010475 171.0816155988141,64.64378827322798 171.75849582173396,66.13601440966886 173.1272980500944,66.4501651644241 174.6013927576132,66.29308987900731 175.57910863502184,66.90175558492774 175.84986072423635,67.92273701644444 175.62423398322426,68.25651772142737 172.66100278543308,71.3979424721183 171.39749303623103,73.55762929908815 171.8938718662248,73.75396274049126 172.75125348183792,72.9882606936153 174.4810584958177,70.61259318386146 175.57910863502184,69.4738285458734 176.03036211698782,69.37565872776031 181.80640668520937,74.08772893108835 182.9345403899788,75.50131770520238 184.72451253479812,76.83636008766189 185.58189415041124,76.93452444419381 185.7924791086116,77.58240739502071 186.55961002787808,78.03396032789897 186.8002785515855,78.56404226558516 188.5,79.36897749771015 188.24428969359724,80.58618745241256 184.84484679665184,84.1592238292069" stroke="#4dd2ff" stroke-linecap="round" stroke-linejoin="round" stroke-width="0.5"><title>2024-08-09 5.2km</title><desc>1723159591000</desc></polyline><polyline fill="none" points="33.646985721657984,115.36351127257512 33.829507847782224,115.74068780467496 32.84084633161547,116.23697111717775 32.11075782740954,117.16997882806754 32.04991711874027,117.68610799571616 31.15251666563563,118.5 29.585868417052552,116.33622756171098 29.053512216021772,116.27667370368727 28.277793180313893,115.36351127257512 27.137029892532155,114.84737326564209 26.66551440017065,114.4106395716517 26.711144931672607,113.91434957571619 26.37652103387518,114.11286579203443 13.158877072215546,102.77712437052105 12.200635910441633,101.38738858627039 11.866012012702413,100.3351505890314 11.577018646523356,97.77400888623379 11.729120418138336,96.3445134118665 13.113246540771797,95.37165370672301 15.151410281658173,92.6515803460934 16.535536404233426,91.5 17.083102782431524,91.51985491639061 20.763965657853987,94.71645854317467 21.661366110900417,95.07383811577165 21.85909841413377,95.92757439297566 24.642560836451594,97.59532277606195 24.961974557023495,98.27035795661504 29.3881361138192,102.00284476217348 29.50981753115775,102.34035180165665 25.90500554163009,106.56904527434381 25.69206306122942,106.9859515739372 25.935425896022934,107.28374100319343 26.604673691501375,107.04550951207057 28.262583003146574,104.78228947255411 30.300746744091157,102.91609716558014 38.422981353476644,109.96381643947097 37.251797711185645,111.7902078715124 35.44178662786726,113.53716796422668" stroke="#4dd2ff" stroke-linecap="round" stroke-linejoin="round" stroke-width="0.5"><title>2024-08-08 4.9km</title><desc>1723122982000</desc></polyline><polyline fill="none" points="68.4269192913489,103.97718026632356 68.46013779529312,103.95550234961411 68.46345964567445,104.0162004763879 68.5,103.87746171811341 68.45349409450137,103.80375648844347 68.19106791338709,103.9858514285479 67.82898622048378,103.6390029588656 67.74261811023462,103.62599606222466 67.63631889765384,103.72571545709798 67.52337598426675,103.64333858979808 67.44365157482389,103.66935236212157 66.7460629921261,104.50178101246456 65.73289862203819,105.47291820264218 62.301427165366476,109.50886601677121 62.10875984252198,109.61723512291428 57.255536417331314,105.49893036807771 56.2357283464662,104.83994846887617 56.05302657482389,104.5494715286386 55.976624015762354,104.21130075566361 55.076402559061535,103.76473599846577 54.64456200788845,103.87746171811341 54.202755905513186,103.8817973141413 53.32246555118763,103.76473599846577 52.39899114174477,103.75606477149267 44.516240157492575,104.06822734319394 43.99138779527857,104.03787834867035 43.632627952771145,103.83410572287539 43.22071850394423,104.07256291129488 41.6328740157478,104.14193191470804 41.58304625985329,104.1029118702827 41.5,102.27758345286566 41.51660925196484,101.56216276771556 46.67876476379752,101.34102924109357 46.79835137796181,101.3497011752097 47.874630905513186,101.85266900884199 48.36958661417884,102.00876073754262 53.71776574803516,102.03477594566175 54.245939960630494,101.93505085706056 55.45177165354835,101.39306080768802 55.97994586615823,101.40606868504256 56.47157972441346,101.28899758309126 56.48818897639285,101.19360597264313 58.16904527560109,100.46948691017496 58.37500000001455,100.51284783147821 58.73375984253653,100.43913422747755 60.36146653543983,100.38276487708754 60.37807578741922,100.50851174220224 60.451156496070325,100.53452826831563 63.6002706693107,100.43479812741316 63.6600639763783,100.62558592971982 63.68331692914944,101.3497011752097 63.773006889765384,101.6792327897947 63.96567421260988,102.01309660714469 66.74938484252198,104.41073526835862 66.92212106300576,104.28934050751923 67.08821358268324,104.34570242263726 67.66621555118763,103.73872230992856 68.15784940945741,104.10724743330866" stroke="#4dd2ff" stroke-linecap="round" stroke-linejoin="round" stroke-width="0.5"><title>2024-07-21 16.7km</title><desc>1721568012000</desc></polyline><polyline fill="none" points="73.48353388218675,106.67436205971171 72.2865737809334,105.58071554321214 71.92748575046426,104.44242206035415 71.94458518049214,102.36668853271112 71.5,101.3622911945713 71.63679544016486,99.50971874357492 73.00474984169705,98.68386593749165 74.8856871437165,95.849147944391 76.3391386953881,94.66613980516559 76.6298290057457,93.88490298129909 77.31380620639538,93.81793963874225 79.34863837872399,95.20184274150233 79.57093096891185,95.849147944391 83.02501583273988,98.59458428506332 83.21310956293019,99.15259375491587 84.20487650408177,99.44275787194783 86.2055098163546,101.58549117493385 87.00918302719947,101.85333072005596 91.83122229255969,106.31725385579921 95.30240658647381,109.01786388960318 96.12317922734655,110.06684827477147 98.5,111.71842608237057 98.43160227988847,112.23175067496777 96.84135528816842,113.77171408235154 95.47340088663623,116.1820603612432" stroke="#4dd2ff" stroke-linecap="round" stroke-linejoin="round" stroke-width="0.5"><title>2024-07-16 2.5km</title><desc>1721136594000</desc></polyline><polyline fill="none" points="125.09446461926564,102.04863265130552 123.73267822878552,103.59310542929961 122.68606510775862,105.0211206335116 121.60377199394861,105.75839603874192 120.64041218932834,106.79832497290408 119.63542572647566,106.0765854153251 112.9097470905981,100.3023152679707 112.80865377778537,99.85214412885034 112.70161379946512,96.1031566953061 112.66593380671111,93.61144696160409 112.77297378500225,91.99681861638237 113.9623068771325,91.67078192459303 115.44897324225167,91.5 115.65115986790624,96.39035558557953 115.78198650802369,96.96474869849771 116.10310644292622,97.64780267798778 121.25291873174137,102.02534879786981 123.42345162489801,104.07428876162885 122.6265984531492,105.09872905365046 121.61566532484721,105.75063529839463 120.61662552747293,106.81384614580384 120.72961217124248,106.93801536554747 120.66419885118376,107.09322648135276 121.46699868835276,107.8227126404272 121.44321202646825,107.93911907781876 120.15278562155436,109.48342029947162 119.76030570117291,110.15855293702771 118.6780125873338,111.44671320591078 117.6373461317562,112.47101108835705 116.81075963273179,112.99867197409912 115.90686648272094,113.22370222562677 114.84241336528794,114.47299074109105 114.84241336528794,114.92303777917186 116.01985312649049,115.95502777613365 116.42422637779964,116.1567678353058 116.98915959653095,116.05589790164595 117.61355946987169,115.35756233049324 117.98225272848504,114.83768432402212 117.9049460774695,114.32556070855571 116.45990637055365,113.16162501023791 115.91875981364865,113.2392215181062 114.84836003073724,114.4807502051226 114.82457336891093,115.1247817635558 114.65212007053196,115.73776839277707 114.12881351003307,116.65335548121948 112.88596042874269,118.27499213251212 112.59457382117398,118.5 109.12172119220486,115.63689766227253 105.2801753047097,111.93558511753872 104.90553538070526,111.45447311272801 105.21476198465098,111.5631116888544 108.1464680567151,107.58213852677727 109.32390781785944,105.23842392365623 109.42500113073038,104.84262083615249 110.19806764059467,104.36920541989821 112.52321383566596,103.58534437203343 113.1773470363114,103.15848447263124 114.41425345212338,101.82355497306344 115.55006655509351,100.20141517257434 117.0961995748512,98.4860841704176 121.28265205907519,102.03311008349556 123.39371829756419,104.00443983915102 124.56521139331744,102.6229644661762 124.91606465546647,102.11072287716524 124.86849133175565,102.00206493418227" stroke="#4dd2ff" stroke-linecap="round" stroke-linejoin="round" stroke-width="0.5"><title>2024-07-06 16.1km</title><desc>1720267100000</desc></polyline><polyline fill="none" points="136.31297889631242,102.66674423438963 138.2292335513048,101.33340739167761 141.2952409996651,117.00001678068656 149.5990111725405,117.50001140637323 153.17601986275986,112.33338969573379 151.0042645870708,94.5000315879006 144.61674906872213,92.33334290015046 138.61248448258266,97.50005527865142 140.0177378966473,114.66670562699437 144.23349813837558,118.33333529520314 149.85451179370284,117.50001140637323 153.30377017334104,111.16672993882094 151.77076644916087,95.166704201838 144.61674906872213,92.16667436843272 140.14548820676282,95.66670840629376 139.12348572397605,99.6667341440916 140.6564894481562,114.83337086765096 146.02200248325244,118.00000581308268 150.36551303509623,116.83335185656324 153.43152048345655,110.00006898795255 152.92051924206316,97.83339075685944 150.36551303509623,93.16668519063387 141.2952409996651,93.50002193625551 138.86798510327935,99.16673169471323 140.27323851687834,115.16670127620455 144.10574782826006,117.833341035177 150.4932633456774,117.33334655570798 153.30377017334104,114.00004441977944 152.79276893194765,98.00005845958367 148.57700869021937,92.16667436843272 145.0,91.5 139.7622372759506,95.33337229397148 139.37898634467274,112.66672083549201 141.03974037896842,116.000026871101 146.40525341406465,118.5 153.30377017334104,114.16670975787565 152.6650186209008,97.50005527865142 146.27750310394913,91.833337233169 141.93399255210534,93.33335357543547 138.99573541386053,97.33338750316761 140.14548820676282,114.16670975787565 142.9559950348921,117.16668168001343 148.44925838010386,118.16667056630831 153.55927079403773,113.33338282222394 152.15401737997308,95.00003608502448 144.61674906872213,92.00000581296626 138.99573541386053,97.83339075685944 140.27323851687834,114.66670562699437 146.02200248325244,118.16667056630831 151.1320148971863,117.16668168001343 153.68702110368758,109.66673706821166" stroke="#4dd2ff" stroke-linecap="round" stroke-linejoin="round" stroke-width="0.5"><title>2024-02-29 2.9km</title><desc>1709196138000</desc></polyline><polyline fill="none" points="163.05535122239962,91.5 172.8921208032407,97.33338750316761 172.50887004099786,112.83338636858389 177.6188802132383,118.33333529508673 184.26189343677834,116.83335185598116 186.81689852289855,113.16671736212447 185.7948964885436,96.3333803373389 180.55713606160134,91.833337233169 175.31937563605607,92.33334289991762 171.8701187693514,95.66670840617735 173.14762131264433,114.33337507175747 178.89638275606558,118.33333529508673 186.3058975059539,115.16670127632096 185.9226467423141,96.3333803373389 180.55713606160134,92.16667436878197 172.3811197867617,94.83336794318166 172.8921208032407,112.83338636858389 175.57487614406273,117.33334655524231 182.34563962183893,118.5 186.4336477597244,115.00003608386032 186.6891482686624,103.1667451482499 183.36764165665954,93.00001678115223 173.78637258382514,93.50002193602268 171.8701187693514,98.66672902554274 174.29737360123545,116.50002193532418 182.98439089395106,118.5 186.05039699701592,116.00002687051892 186.94464877760038,111.16672993893735 184.77289445372298,94.83336794318166 181.83463860535994,92.50001140648965 174.8083746181801,93.00001678115223 171.99786902358755,98.00005845935084 173.91412283852696,115.66669670608826" stroke="#4dd2ff" stroke-linecap="round" stroke-linejoin="round" stroke-width="0.5"><title>2024-02-26 2.1km</title><desc>1708947688000</desc></polyline><polyline fill="none" points="20.492686572950333,132.26694831845816 16.81065588677302,138.06449348235037 19.349987394642085,145.68407914135605 23.9207841088064,148.5 31.157878906931728,146.84357681323308 32.42754466086626,127.79453605914023 26.079215890727937,121.5 19.476953969337046,124.64727240230422 18.715154517441988,141.54300633713137 22.524151779711246,147.17486164462753 27.221915069501847,147.67178870958742 32.68147781165317,144.52458028239198 32.55451123602688,127.62889082136098 26.714048767462373,121.66564613406081 18.969087668228894,125.80679160903674 18.84212109260261,142.53686519083567 21.254486025776714,147.00921924074646 24.555616985540837,148.00307329848874 32.30057808570564,144.85586579178926 32.42754466086626,127.79453605914023 31.157878906931728,124.4816267042188 25.4443830139935,121.66564613406081 18.84212109260261,127.29760027374141 19.2230208190158,144.19329467555508 24.428650410845876,148.00307329848874 30.01517972862348,146.6779343612725 33.18934411276132,141.7086495400872 32.30057808570564,125.97243711340707 29.507313426584005,122.32823042757809 25.190449862740934,121.5 19.476953969337046,125.3098549512215 18.715154517441988,142.0399358731229 23.53988438239321,148.00307329848874 28.999447125010192,147.50614637858234 32.68147781165317,144.19329467555508 32.93541096244007,128.78840697626583 31.66574520803988,125.1442093505757 26.96798191871494,122.32823042757809 21.50841917656362,123.32210614078213 19.60392054542899,125.97243711340707 18.969087668228894,144.35893749108072 23.412917806766927,148.16871555661783 31.66574520803988,145.35279387363698 32.30057808570564,128.1258264615899 30.01517972862348,123.81904367066454 26.079215890727937,122.32823042757809 18.588187942281365,126.46937347960193 18.84212109260261,143.53072317270562 21.381452600937337,147.8374310163781 30.269112878944725,146.84357681323308 32.55451123602688,143.19943727517966 32.68147781165317,133.4264597252477" stroke="#4dd2ff" stroke-linecap="round" stroke-linejoin="round" stroke-width="0.5"><title>2024-01-18 3.0km</title><desc>1705581243000</desc></polyline><polyline fill="none" points="51.80624317470938,124.83336794329807 48.22923553083092,126.1667123909574 48.10148525843397,144.16670975799207 51.16749180993065,147.50001140625682 56.277502729557455,148.3333352955524 61.38751364918426,145.0000360844424 61.38751364918426,127.00005187850911 59.08800873486325,122.83334834722336 55.12775027239695,121.5 49.76223880704492,123.66669027204625 47.46273389318958,127.33338750293478 47.71823443938047,142.66672083549201 53.59474699618295,148.00000581273343 61.13201310299337,144.6667056265287 61.25976337585598,126.83338402933441 55.894251910503954,121.83333723281976 51.03974153706804,123.00001678126864 47.84598471224308,127.00005187850911 48.35698580369353,143.33338282257318 51.03974153706804,147.50001140625682 54.872249726671726,148.5 61.38751364918426,144.50004036154132 61.77076446823776,127.66672302980442 57.17175464099273,122.00000581296626 51.42299235565588,122.66667988931295 48.484736076556146,125.83337642531842 48.35698580369353,143.33338282257318 54.36124863475561,148.5 61.89851474110037,145.0000360844424 61.004262830130756,126.83338402933441 55.76650163717568,122.66667988931295 48.35698580369353,125.66670840571169 48.484736076556146,144.16670975799207 55.255500545725226,148.5 61.38751364918426,145.33336644410156 61.51526392158121,127.16671970312018 56.660753548610955,122.00000581296626 50.911991264205426,122.83334834722336 47.71823443938047,127.33338750293478 47.973734985571355,142.00005845841952 53.21149617806077,148.00000581273343 61.13201310299337,145.50003158731852 61.51526392158121,126.83338402933441 55.51100109145045,121.5 48.10148525843397,126.33338033745531 48.35698580369353,142.50005527795292 50.40099017182365,146.16669191711117 54.74449945334345,147.66667623317335 59.98226064629853,147.0000167802209 62.53726610634476,143.16671736259013 60.87651255680248,125.33337229420431 57.044004367664456,122.00000581296626 51.67849290184677,122.16667436843272 48.35698580369353,125.33337229420431 48.10148525843397,139.1667390059447" stroke="#4dd2ff" stroke-linecap="round" stroke-linejoin="round" stroke-width="0.5"><title>2024-01-17 3.3km</title><desc>1705483266000</desc></polyline><polyline fill="none" points="78.6221255492419,136.95290702185594 75.6284293779172,139.500069755828 80.70469679823145,146.12266671471298 86.82224984373897,147.9905718486989 92.93980288784951,145.78304727654904 93.85092781018466,129.48119743622374 90.33658882649615,123.02831864915788 85.00000000046566,121.83962653996423 79.92373258015141,125.06607371894643 79.53325047064573,141.8774165994255 84.34919648524374,147.31133396551013 93.5906064035371,145.27361793338787 93.3302849973552,128.46232422208413 88.51433898322284,121.66981328232214 79.01260765828192,126.76420021243393 79.14276836114004,139.83969103102572 82.91742875101045,147.82076241495088 92.54932077927515,146.63209568534512 93.85092781018466,129.14157313096803 90.59691023314372,122.5188793229172 83.43807156337425,122.68869245657697 79.01260765828192,126.93401272536721 79.53325047064573,143.40570842847228 85.65080351568758,148.5 93.20012429496273,146.46228605299257 93.72076710686088,127.4434501142241 89.0349817960523,121.5 83.04758945386857,122.34906616492663 80.31421468919143,125.74532461480703 79.66341117350385,143.40570842847228 81.09517890727147,146.46228605299257 87.34289265563712,148.5 94.37157062254846,143.7453285624506" stroke="#4dd2ff" stroke-linecap="round" stroke-linejoin="round" stroke-width="0.5"><title>2024-01-13 2.0km</title><desc>1705132259000</desc></polyline><polyline fill="none" points="107.0451420461759,129.26256470545195 108.46796216722578,143.94379430869594 110.79621327668428,147.31876321486197 115.71141006145626,148.5 122.82551067043096,143.10005053936038 122.30812153499573,126.39379687560722 115.84075734484941,121.83750389900524 109.11469858651981,125.7187916438561 109.11469858651981,143.60629687458277 114.54728450672701,147.82500769919716 122.9548579538241,143.77504560397938 122.69616338657215,126.39379687560722 118.4277030210942,122.17500769952312 113.64185352018103,122.006255811546 108.33861488383263,127.74380615423433 108.72665673494339,142.4250550798606 111.96033883048221,147.9937558110105 114.80597907397896,148.5 121.1439959811978,146.3062735791318 122.82551067043096,142.7625528589124 122.17877425206825,125.88754298910499 115.71141006145626,121.83750389900524 112.21903339866549,122.006255811546 108.72665673494339,126.22504560498055 108.98535130312666,143.94379430869594 115.45271549327299,148.5 122.69616338657215,143.26879934268072 121.79073240002617,125.38128887990024 115.5820627771318,121.5 108.72665673494339,126.05629430920817 109.76143500534818,142.5938039815519 115.45271549327299,147.48751140071545" stroke="#4dd2ff" stroke-linecap="round" stroke-linejoin="round" stroke-width="0.5"><title>2024-01-11 2.0km</title><desc>1704963338000</desc></polyline><polyline fill="none" points="142.08281276514754,128.10645157343242 140.21140963351354,131.2660431372933 140.43157470738515,144.04792344977614 144.94495873106644,148.3563849424827 149.67850782861933,147.78192450263305 152.10032364632934,144.47877044946654 151.32974588591605,128.82454145798692 148.13735230918974,125.5213236414711 141.31223500473425,125.95217876986135 137.45934620453045,122.79257010918809 138.56017157575116,121.5 138.34000650187954,125.37770522356732 141.97273022774607,125.95217876986135 140.10132709611207,128.96815937163774 140.54165724478662,142.61176541814348 142.74330798815936,147.3510789515567 147.80710469698533,148.5 151.54991096025333,146.3457719310536 152.32048872020096,131.12242555926787 147.47685708617792,125.5213236414711 143.6239682850428,126.09579710348044 140.32149217044935,129.82986641401658 140.65173978172243,144.04792344977614 145.05504126800224,148.21276986418525 149.01801260607317,148.0691547645256 151.99024110892788,144.47877044946654 151.43982842331752,128.6809235229157 145.4953714166768,125.09046832495369 140.87190485652536,129.5426308172755 141.20215246779844,144.90961726062233 145.71553649147972,148.0691547645256 150.22892051469535,147.06384847918525 152.5406537950039,143.61707626050338 151.7700760345906,128.53730556712253 148.79784753127024,125.09046832495369 145.93570156535134,124.80323134205537 140.87190485652536,128.82454145798692 140.9819873929955,143.47346048912732 145.4953714166768,147.63830933981808 149.67850782861933,147.2074637261685 152.32048872020096,143.7606920110411 151.99024110892788,128.96815937163774 150.55916812596843,125.80856041470543 147.25669201090932,124.65961281914497 140.65173978172243,128.39368759014178 140.54165724478662,143.18622888275422 143.2937206737697,146.63300261320546" stroke="#4dd2ff" stroke-linecap="round" stroke-linejoin="round" stroke-width="0.5"><title>2024-01-09 2.6km</title><desc>1704792913000</desc></polyline><polyline fill="none" points="164.58673413656652,131.06969162542373 169.69512871094048,127.48106644977815 170.7430045218207,145.2531975560123 175.19647671468556,148.1582317459397 180.04290233645588,147.98734758188948 184.23440557718277,144.74054371356033 184.88932795869187,140.29753432807047 184.4963745297864,127.31017926183995 180.8288091942668,122.18355200090446 174.54155433317646,121.84177605004515 170.7430045218207,124.9177560058888 170.7430045218207,143.03169594914652 176.37533700093627,148.5 183.84145214874297,146.79115773225203 184.75834348192438,128.33550201519392 180.8288091942668,122.18355200090446 174.54155433317646,122.18355200090446 171.13595794979483,125.77219344524201 171.13595794979483,142.17727112979628 174.93450776254758,147.47469493933022 181.74570052837953,147.6455791783519 184.75834348192438,145.2531975560123 184.75834348192438,127.82284075079951 181.74570052837953,122.69621573900804 176.50632147677243,121.5 173.62466299906373,121.84177605004515 170.87398899765685,125.94308085832745 171.00497347395867,144.05700490798336 177.292228335049,147.98734758188948 185.15129691082984,144.9114283528179 184.88932795869187,128.67727606592234 180.43585576536134,121.84177605004515 174.8035232857801,121.67088803753722 170.4810355687514,126.96840481087565 171.26694242609665,144.9114283528179 177.94715071609244,148.3291158854263 185.15129691082984,144.22788964677602 184.23440557718277,125.25953105615918 179.91191786015406,121.84177605004515 174.8035232857801,122.0126640376402 170.7430045218207,125.4304185443325 170.7430045218207,142.6899260963546 175.851399095729,147.81646339292638 184.88932795869187,144.74054371356033 185.41326586343348,129.18993695557583 181.74570052837953,122.0126640376402 173.62466299906373,122.52532785164658 170.7430045218207,129.18993695557583 171.92186480760574,146.27850456547458 181.22176262317225,147.47469493933022" stroke="#4dd2ff" stroke-linecap="round" stroke-linejoin="round" stroke-width="0.5"><title>2024-01-08 3.0km</title><desc>1704701613000</desc></polyline><polyline fill="none" points="17.618149291258305,156.48730782361235 18.40906186727807,174.8885709445458 25.39545628754422,177.9840822427068 31.45911937020719,173.168838925194 30.800025557167828,156.14335623942316 26.054550100583583,152.015929376008 18.540880629327148,154.9395249009831 17.881786816287786,172.4809454131173 22.89089979743585,178.15605485334527 28.295469066593796,177.8121096061077 31.72275689523667,173.85673203435726 30.931844319216907,157.17521069175564 25.922731338068843,151.84395294240676 20.91361835738644,152.53185852686875 18.013605578802526,155.62742867390625 17.749968053773046,173.68475879484322 23.681812373455614,178.32802743907087 27.768194016069174,178.15605485334527 31.986394420731813,174.20067843887955 31.59093813225627,157.69113757787272 25.39545628754422,151.5 20.518162069376558,152.53185852686875 17.618149291258305,156.31533204414882 17.749968053773046,172.9968655849807 22.495443509425968,178.15605485334527 28.163650304079056,177.9840822427068 31.59093813225627,174.8885709445458 31.986394420731813,159.5828675593948 26.84546267706901,151.67197648389265 20.518162069376558,152.7038348595379 17.881786816287786,155.4554527682485 18.80451815482229,176.43632761226036 27.504556490574032,178.15605485334527 32.513669471256435,172.65291882900055 30.272750506177545,154.59557286347263 22.231805983930826,151.67197648389265 17.354511765763164,156.83125930826645 18.145424341317266,175.06054400838912 24.99999999953434,178.5 32.11821318324655,173.51278553029988 30.272750506177545,154.76754889450967 22.89089979743585,151.67197648389265 17.486330528277904,159.06694150273688 17.881786816287786,174.02870524919126 21.309074645396322,178.15605485334527 26.054550100583583,178.5 29.745475455652922,177.46816425863653 32.645488234236836,171.7930514990585" stroke="#4dd2ff" stroke-linecap="round" stroke-linejoin="round" stroke-width="0.5"><title>2023-12-29 2.9km</title><desc>1703839119000</desc></polyline><polyline fill="none" points="49.72849306697026,154.386822426226 47.776083091273904,158.80194872617722 49.5983324018307,175.95285700750537 57.40797230228782,177.65095295628998 61.44295291788876,172.21703717962373 60.7921495931223,155.0660737195285 58.18893629265949,152.17925298109185 52.85234902659431,151.5 48.16656508669257,156.42457511241082 49.33801107201725,176.29247639642563 57.798454297706485,177.65095295628998 61.70327424770221,173.2358983248705 60.661988927517086,154.55663528700825 52.85234902659431,151.5 48.296725751366466,156.25476252532098 48.42688641650602,174.08494859619532 54.544437672477216,178.5 62.09375624312088,173.7453285616357 60.661988927517086,154.7264481227612 52.201545701827854,151.5 48.16656508669257,158.63213648681995 48.296725751366466,173.7453285616357 49.98881439678371,176.8019052920863 55.455562327522784,178.16038125671912 61.963595578446984,173.91513859131373 61.57311358302832,155.74532461480703 53.633313016965985,152.0094397731591 47.776083091273904,158.4623242225498 48.687207747250795,174.93399824667722 56.36668698256835,178.5 61.57311358302832,173.2358983248705 61.70327424770221,156.42457511241082 58.18893629265949,152.68869245704263 53.372991687152535,152.51887932315003 47.90624375687912,158.4623242225498 48.81736841145903,175.61323752021417 57.538132967893034,178.16038125671912 62.35407757339999,171.87741659930907 61.57311358302832,155.40569921641145 57.798454297706485,152.34906616492663 52.59202769678086,152.0094397731591 47.64592242660001,159.31138529616874 48.947529076598585,175.7830472763162 57.277811638079584,178.3301906407578 62.223916907794774,172.55665766075253" stroke="#4dd2ff" stroke-linecap="round" stroke-linejoin="round" stroke-width="0.5"><title>2023-12-28 2.9km</title><desc>1703769423000</desc></polyline><polyline fill="none" points="80.27323782583699,157.83339075697586 76.82397894188762,156.33338033687323 78.74023387720808,173.0000518776942 83.33924572262913,177.50001140648965 90.1100131617859,175.83336180110928 92.92052040016279,172.16672408941668 92.79277007095516,159.83340157847852 88.577009213157,152.50001140707172 83.21149539388716,152.16667436878197 78.61248354800045,155.00003608490806 78.61248354800045,173.16671736212447 82.82824440672994,177.33334655570798 87.42725625168532,177.83334103564266 92.53726941300556,173.16671736212447 91.8985177683644,157.33338750293478 87.42725625168532,152.33334289991762 80.40098815411329,152.50001140707172 78.10148223256692,155.00003608490806 78.35698289005086,171.5000614199089 82.06174243241549,177.50001140648965 88.06600789632648,177.66667623328976 91.13201579404995,175.00003608432598 91.77076743869111,158.16672613762785 88.3215085552074,152.16667436878197 79.76223650947213,153.00001678115223 77.46273058699444,157.83339075697586 80.01773716742173,176.00002687145025 86.91625493578613,178.0000058131991 92.66501974267885,171.5000614199089 90.74876480689272,154.166695134365 86.02200263226405,151.5 80.01773716742173,152.83334834722336 77.7182312454097,158.83339660661295 80.40098815411329,176.33335693844128 85.63875164510682,178.5 89.21576085779816,177.50001140648965 92.4095190842636,173.16671736212447 93.17602105857804,165.66674642788712" stroke="#4dd2ff" stroke-linecap="round" stroke-linejoin="round" stroke-width="0.5"><title>2023-11-08 2.1km</title><desc>1699431646000</desc></polyline><polyline fill="none" points="109.79475135030225,153.79093438549899 107.16077010519803,159.6818869812414 108.16419153194875,174.5727677618852 115.31356919649988,178.00909672433045 121.33409775514156,175.5545771131292 122.58837453881279,172.93641692830715 121.33409775514156,155.2636754421983 117.94755044113845,151.99091490660794 112.93044330831617,151.66363832645584 108.03876385372132,156.90005211986136 108.28961920971051,173.75459264428355 115.43899687472731,178.00909672433045 122.21209150366485,173.2636872860603 121.83580846851692,156.24550173606258 118.9509718674235,152.318191390601 114.31014776974916,151.5 108.16419153194875,158.04551437112968 108.28961920971051,173.918227715767 114.93728616088629,178.17273117334116 122.08666382497177,173.42732242960483 121.83580846851692,156.7364145600004 118.70011651096866,152.4818295969162 115.1881415178068,151.99091490660794 111.299883489497,152.80910593783483 107.9133361754939,157.71823956188746 108.4150468884036,173.1000521191163 111.04902813304216,177.19092411885504 116.44241830101237,177.84546225098893 120.45610400754958,176.3727509152377 122.83922989526764,171.3000637012301 121.83580846851692,155.91822640039027 114.43557544751093,151.5 111.299883489497,152.80910593783483 108.03876385372132,159.02733822411392 108.6659022453241,173.2636872860603 111.04902813304216,177.19092411885504 116.19156294455752,178.5 122.4629468601197,172.7727817130508 121.83580846851692,156.7364145600004 116.06613526586443,151.99091490660794 108.54047456663102,156.57277697592508 108.54047456663102,174.7364027139265 114.81185848312452,178.5 122.08666382497177,174.24549778655637 122.08666382497177,157.06368965632282 119.57811025902629,152.80910593783483 114.31014776974916,151.5 108.4150468884036,156.57277697592508 108.79132992355153,173.1000521191163" stroke="#4dd2ff" stroke-linecap="round" stroke-linejoin="round" stroke-width="0.5"><title>2023-10-27 2.9km</title><desc>1698413800000</desc></polyline><polyline fill="none" points="141.48686697892845,153.0000167810358 137.39885764522478,156.83338402980007 139.44286231184378,175.66669670597184 148.00213185418397,177.50001140672248 152.2178914793767,171.16672993870452 151.3236394370906,155.00003608467523 147.2356301038526,151.5 141.99786814535037,151.5 138.80411085346714,153.6666902723955 137.78210852015764,159.50006668525748 139.31511201988906,175.50003158731852 147.61888097925112,178.16667056665756 150.68488797917962,176.833351856214 152.60114235430956,171.33339569158852 150.81263827066869,155.00003608467523 142.76436989568174,152.5000114068389 137.9098588116467,157.66672302992083 138.9318611449562,175.00003608420957 146.4691283539869,178.5 152.2178914793767,173.16671736247372 150.94038856215775,155.3333722942043 143.65862193750218,152.00000581296626 137.9098588116467,156.83338402980007 139.05961143691093,175.16670127643738 143.65862193750218,178.33333529543597 148.12988214567304,177.83334103494417 152.2178914793767,172.5000552778365 151.45138972904533,156.16671239130665 147.4911306872964,152.1666743683163 140.7203652281314,152.83334834768903 137.52660793671384,158.3333937911084 140.20936406217515,176.833351856214 146.21362777007744,178.16667056665756 151.1958891460672,175.16670127643738 152.2178914793767,162.66674423450604 151.9623908950016,157.33338750316761 148.38538272865117,152.33334289945196 143.01987047865987,152.1666743683163 138.29310968704522,155.3333722942043 138.1653593950905,172.83338636881672 140.7203652281314,177.33334655535873 147.8743815626949,178.16667056665756 151.3236394370906,175.00003608420957 151.8346406039782,157.8333907565102 147.4911306872964,152.33334289945196 139.31511201988906,153.83335858397186 138.03760910360143,171.66672712389845 141.48686697892845,177.66667623294052" stroke="#4dd2ff" stroke-linecap="round" stroke-linejoin="round" stroke-width="0.5"><title>2023-10-21 2.9km</title><desc>1697891041000</desc></polyline><polyline fill="none" points="167.81743507133797,151.5 168.30438862601295,172.30594168405514 172.32175545021892,178.18235684302635 181.20865781931207,175.9588521438418 181.20865781931207,157.0588784016436 178.77389004686847,153.8823799417587 174.2695696684532,152.92942859232426 168.30438862601295,157.21770308096893 169.15655734576285,175.64120824378915 173.9043545019813,178.34117843292188 178.89562843600288,177.38824854406994 181.33039620751515,174.21180954331066 181.6956113735214,159.44124614959583 176.58259905176237,153.08825387549587 168.6696037920192,156.26475465786643 168.1826502373442,172.1471192111494 170.49567962111905,177.0706050619483 176.46086066309363,178.5 180.3564890990965,176.59413966536522 181.8173497626558,160.71184014517348 181.20865781931207,156.58240422513336 177.67824454978108,153.56472958507948 169.5217725117691,155.78828013280872 168.4261270146817,174.68827598600183 173.29566255863756,178.5 181.20865781931207,175.80003020563163 181.6956113735214,157.69417697924655 179.1391052128747,154.3588553033769 174.63478483399376,153.56472958507948 168.79134218022227,157.3765277370112 168.54786540288478,173.10005369863939 172.20001706155017,178.18235684302635 177.92172132665291,178.02353522996418 181.93908815085888,174.21180954331066 182.18256492866203,160.87066428991966 181.08691943064332,156.58240422513336 177.19129099464044,153.72355477511883 172.8087090048939,153.8823799417587 168.1826502373442,157.69417697924655 168.91308056889102,174.37063171423506 172.6869706157595,178.18235684302635 177.79998293798417,177.86471359303687 181.8173497626558,173.89416513266042 181.57387298485264,157.8530015652068 176.58259905176237,153.40590437164064 169.5217725117691,155.62945524486713 167.93917345954105,161.98243265401106 170.00872606644407,176.911783286836 173.53913933690637,178.5 179.99127393309027,176.911783286836 181.6956113735214,163.57067119912244" stroke="#4dd2ff" stroke-linecap="round" stroke-linejoin="round" stroke-width="0.5"><title>2023-10-16 3.1km</title><desc>1697460359000</desc></polyline><polyline fill="none" points="16.810660677030683,185.30985495168716 18.84212469542399,203.6963660841575 24.809550248086452,208.5 33.06237282138318,203.36508023599163 32.046640812885016,185.80679160915315 27.221913769375533,181.5 21.000555214006454,182.49387644033413 18.461225191596895,185.14420935045928 18.84212469542399,203.36508023599163 25.06348325079307,208.33435779006686 29.507310790009797,207.34050402313005 32.93540632072836,201.87429271859583 31.919674311298877,185.6411460810341 25.06348325079307,181.6656461340608 18.84212469542399,185.30985495168716 18.969091196078807,203.53072317223996 23.03201923239976,208.00307329790667 28.11067927768454,207.83743101579603 33.18933932296932,203.19943727517966 32.681473318021744,188.1258264617063 26.71404776489362,181.6656461340608 20.746622211765498,183.15646024933085 18.715158194303513,186.13808259309735 18.969091196078807,203.53072317223996 21.38145471783355,207.17486164346337 26.33314826199785,208.5 32.808439819607884,203.53072317223996 31.15787530411035,183.98468946525827" stroke="#4dd2ff" stroke-linecap="round" stroke-linejoin="round" stroke-width="0.5"><title>2023-10-12 1.8km</title><desc>1697101056000</desc></polyline><polyline fill="none" points="47.20642480161041,190.38614482281264 49.30217611603439,206.10762012621854 57.947150284890085,207.64557917881757 62.53160628443584,201.83550102752633 60.697823884896934,184.9177560057724 51.92186525836587,182.01266403798945 47.730362630449235,187.13929204898886 48.90922274440527,205.4240821202984 57.030259085819125,208.15823174640536 62.13865291280672,203.54435054119676 61.48373062768951,187.3101792621892 56.24435234302655,182.35443993890658 52.052849715109915,182.35443993890658 48.25430045835674,185.94308085832745 47.99233154440299,202.34815614379477 51.52891188673675,207.98734758235514 60.43585497047752,206.79115773318335 62.79357519838959,201.83550102752633 61.74569954164326,186.45574294694234 57.947150284890085,182.52532785153016 52.052849715109915,182.1835520005552 47.99233154440299,186.62663025967777 48.385284916032106,203.88612014369573 51.397927429527044,207.64557917881757 55.85139897139743,208.15823174640536 61.87668399885297,204.5696590502048 62.40062182722613,201.4937308243243 60.959792798850685,184.74686844309326 54.017616571858525,181.84177605051082 47.86134708765894,186.79751754796598 48.51626937324181,204.5696590502048 54.54155440023169,208.5 60.566839427221566,206.62027336878236 62.26963737048209,203.37346570240334 61.48373062768951,186.9684048112249 54.410569943487644,181.5 47.730362630449235,187.13929204898886 49.433160572778434,205.93673566239886 57.16124354302883,207.81646339269355 61.35274617001414,205.25319755647797 62.40062182722613,200.81019011954777 61.09077725606039,185.25953105674125 56.637305714190006,181.67088803788647 50.61202068673447,182.52532785153016 47.730362630449235,187.99372786399908 49.17119165882468,205.5949666594388 53.62466320069507,208.5 58.60207257093862,208.15823174640536 62.40062182722613,198.75956560508348" stroke="#4dd2ff" stroke-linecap="round" stroke-linejoin="round" stroke-width="0.5"><title>2023-10-10 2.9km</title><desc>1696942258000</desc></polyline><polyline fill="none" points="84.0428181993775,205.55262200058496 85.93912176659796,204.44439391013293 90.07486954657361,204.96313992375508 90.72503076959401,205.69409737778187 89.80396903690416,206.99094920723292 90.36383009015117,208.5 93.88553671492264,207.32105527706153 94.82465848163702,206.07136444227945 95.83602038410027,203.05320316445432 96.0166207238799,195.60187515296275 94.06613705470227,192.1826376451063 94.51763790403493,190.9328292532009 96.43200150527991,189.2821240483463 96.75708211679012,188.31527456500044 96.55842174310237,187.13618196752213 95.40257956879213,185.60334867464553 95.2219792290125,184.1648303034017 89.13574777997565,181.5 80.7378319822019,182.51405567086476 75.89774287724867,181.73582747044566 73.24291788320988,182.46689043255174" stroke="#4dd2ff" stroke-linecap="round" stroke-linejoin="round" stroke-width="0.5"><title>2023-10-07 3.0km</title><desc>1696669067000</desc></polyline><polyline fill="none" points="109.92252212995663,182.84162991598714 107.3516472587362,186.86651024583261 108.12290972005576,201.12118113820907 113.26465946203098,208.16460017219651 118.2778654601425,207.49380022333935 122.6483527412638,203.63669290184043 122.13417776674032,186.86651024583261 115.57844684645534,181.83540762588382 111.07941582193598,182.84162991598714 107.73727848939598,187.36961929430254 108.76562843751162,204.3074951072922 113.39320320589468,208.5 117.63514674268663,208.16460017219651 122.3912652535364,203.63669290184043 121.87709027901292,187.36961929430254 116.73534053843468,182.33851888112258 108.76562843751162,184.51866510347463 108.3799972073175,203.63669290184043 113.7788344360888,208.5 118.14932171721011,208.16460017219651 122.13417776674032,203.80439348972868 121.4914590488188,186.1956978389062 115.83553433278576,181.66770382528193 107.60873474599794,185.86029148800299 108.89417218137532,204.13979459297843 115.44990310212597,207.82920024706982 122.26272151013836,203.63669290184043 121.62000279221684,186.02799467591103 114.80718438467011,181.5 107.73727848939598,185.5248850391945 108.25145346391946,203.46899228950497 113.0075719752349,207.82920024706982 119.69184663938358,206.82299988158047 122.00563402287662,203.13359099067748 121.87709027901292,187.0342132867081 116.73534053843468,181.83540762588382 108.12290972005576,185.3571817780612 108.63708469411358,204.3074951072922 114.55009689740837,208.5 120.72019658749923,206.31989936868194 122.26272151013836,203.30129165260587 121.62000279221684,186.1956978389062 115.70699058938771,181.66770382528193 111.33650330919772,182.17081515409518 107.86582223325968,186.1956978389062 108.3799972073175,203.63669290184043 112.36485325777903,207.99690022179857" stroke="#4dd2ff" stroke-linecap="round" stroke-linejoin="round" stroke-width="0.5"><title>2023-10-06 2.9km</title><desc>1696597953000</desc></polyline><polyline fill="none" points="138.6861901197626,183.3565927369982 138.59524700598558,183.2005930129444 138.24157934131654,182.8292632095836 138.1068488023884,182.0118658612846 138.069797904187,181.94374740801595 138.10348053891357,181.8844181809227 138.23989520958276,181.8646417198197 138.64577095807908,181.8668391056699 138.6255613772446,181.72840316921884 138.30220808383456,181.7701538240899 136.89932634730212,181.77235122376533 134.96089071856113,181.85365478573658 134.7385853293381,181.8844181809227 134.39333832334523,182.00527376640093 133.15550149699993,182.59855072100527 132.65363023951795,182.79410724964964 132.41279940120148,182.97428067472538 132.60815868263307,184.12558178961808 132.73615269460424,186.4345095700337 132.78162425148912,189.20651180519508 132.75299401197844,189.5161887092445 132.77320359281293,191.1698871662784 132.68899700598558,191.35435221161788 132.77320359281293,191.58712630102855 132.79172904191364,193.73462669727087 132.76141467065463,194.65457649763994 132.46669161676255,194.76654745309406 132.313435628741,194.94438196318515 131.5185254491007,194.9312091086158 131.5,194.95755480621847 131.58589071856113,194.97072763771484 131.57747005987767,195.02122338489698 131.51684131736693,195.03659162213808 131.53031437125173,195.05854621951676 131.95808383233816,195.04537346493726 132.3016467065827,195.0717189625684 132.48690119759704,195.28906755732078 132.72267964071216,195.34614848572983 132.78162425148912,195.3900567447954 132.79341317364742,196.8367621983134 132.6755239520935,197.03652394637083 132.60815868263307,197.35921039777713 132.61657934130926,197.47116122293664 132.77825598802156,197.47774653965553 132.8068862275395,197.64018343945736 132.79509730538848,199.67049673251404 132.69741766467632,199.86363659167364 132.69236526946042,200.02824246953332 132.63847305389208,200.0984737627523 132.53574101795675,200.15553644714146 132.67383982035244,200.08311069536558 132.76646706586325,200.2213777371844 132.7698353293381,200.3311125804421 132.8506736526906,200.48912934897453 132.92645958084177,201.05973164424358 133.06455838323018,202.76263140735955 133.0308757485036,203.21465749060553 132.94161676646036,203.40116915152248 132.69741766467632,203.71055398709086 132.71425898203597,203.92777783805377 132.96182634730212,204.06600956576585 133.10834580838127,204.21521064113495 133.20939371257555,204.43023311921024 133.3255988023957,204.8953732785576 133.51085329341004,205.31223196525298 133.8948353293381,205.88703922397326 134.81605538921576,207.16601633567097 135.1511976047841,207.50603485284864 135.09056886227336,207.4577746275927 135.0501497005971,207.4687428741845 135.67159431137407,207.78901215234418 135.96631736526615,207.8723687925949 136.28293413173378,207.90746618728735 137.84749251497124,207.9250148539668 138.4554640718561,207.89649826023742 138.59019461077696,207.99082217188243 138.7552395209641,208.25404856796376 138.90175898203597,208.27159683078207 138.9960703592733,208.0544356391838 139.15269461077696,207.81533535174367 139.52151946107915,207.51480942263697 142.5815868263453,206.40697955944597 142.68600299401442,206.3762662833151 142.70958083832375,206.43111137531923 142.6624251497051,206.36090962175786 142.60853293412947,206.46182453958045 142.64053143712226,206.43549897404228 142.65905688622297,206.4552431525144 142.67421407184884,206.37187866732802 142.73147455089202,206.4552431525144 142.70958083832375,206.37846009082932 142.76684131736693,206.34335913222367 143.36639221556834,206.16785311180683 144.08046407184884,206.13494550522955 145.96500748503604,206.16127159624102 148.3867889221583,206.13275166223593 148.5198353293381,206.16127159624102 149.4056886227554,206.13494550522955 150.27133233533095,206.16565927360534 151.53779940120148,206.12836397528554 151.96388473053958,205.9879573177859 152.62743263472657,205.86948818209112 154.2391467065827,205.73566081498575 155.53592814371223,205.7575998091461 155.84749251497124,205.73566081498575 156.18431886227336,205.63693494567542 156.54640718563314,205.45045098182345 156.89165419161873,205.16304176148424 156.84449850298552,205.18278760863177 156.77544910179859,205.13671392500328 156.70134730538848,205.2091153645424 156.782185628741,205.13232594777946 156.8815494011942,205.17401167975459 156.94386227545328,205.1411019009438 157.16616766466177,205.12793796927144 157.40868263473385,204.85368677506995 157.43057634730212,204.58820686037507 157.85160928143887,204.17352225423474 158.12107035928784,203.85975858544407 158.22043413174106,203.64472795885195 158.27432634730212,203.40775187380405 158.36021706586325,196.10793860192916 158.39389970060438,195.89499251196867 158.39221556886332,195.3768842805348 158.47642215569067,195.15295062310724 158.5,194.8807130592295 158.4949476047841,194.54480024189888 158.42252994012233,194.33402758483226 158.4258982035899,193.80049609502657 158.35853293412947,192.36008610570025 158.39221556886332,189.95323958443896" stroke="#ff0000" stroke-linecap="round" stroke-linejoin="round" stroke-width="0.5"><title>2023-09-14 39.1km</title><desc>1694696482000</desc></polyline><polyline fill="none" points="174.69565367279574,181.5 167.63481887197122,188.3294751845533 168.48698858963326,201.82947419618722 171.40871333470568,206.91178328637034 177.4956398862414,207.38824854465201 182.36518112802878,203.10005369817372 181.51301141036674,186.42357945349067 177.25216282438487,181.97647640679497 172.13914452074096,182.770603285986 168.24351152777672,187.05887840176 168.8522041826509,204.68827598600183 175.06086926534772,208.5 182.24344259686768,203.4176983416546 181.51301141036674,187.535352369654 178.34780960390344,183.40590437175706 173.11305276909843,182.770603285986 167.63481887197122,188.3294751845533 168.7304656514898,202.62358655931894 174.57391514163464,207.8647135932697 179.44345638295636,206.7529614875093 181.7564884731546,203.89416513219476 181.2695343485102,186.42357945349067 177.61737841786817,182.6117779565975 172.01740598957986,182.9294285926735 168.36525005847216,186.26475465798285 168.60872712079436,204.05298734956887 172.38262158306316,207.38824854465201 176.88694723136723,207.8647135932697 181.87822700385004,202.1471192111494 181.87822700385004,185.3118053986691" stroke="#4dd2ff" stroke-linecap="round" stroke-linejoin="round" stroke-width="0.5"><title>2023-09-11 1.8km</title><desc>1694438011000</desc></polyline><polyline fill="none" points="25.24657534249127,226.72912134061335 29.623287671245635,223.27094943705015 36.28082191757858,225.68362980266102 35.41780821909197,229.5438963713823 19.452054794644937,230.50895877956646 17.35616438370198,229.22220852551982 14.520547945285216,230.26769333635457 13.226027397438884,229.14178653480485 13.041095890337601,226.16616460564546 22.657534246798605,227.1312329415232 29.993150684982538,224.47729094314855 36.157534246565774,225.20109457644867 35.97260273969732,229.70474022370763 19.14383561629802,229.86558402900118 15.815068493131548,227.69418868847424 14.767123288009316,229.14178653480485 12.794520547846332,228.57883226958802 12.732876712456346,226.08574216801208 21.85616438346915,226.64869898522738 31.472602739697322,224.31644556182437 36.65068493131548,225.4423622424947 35.232876712223515,229.70474022370763 22.2876712330617,229.46347442740807 15.753424657741562,230.58938057057094 12.42465753434226,228.57883226958802 12.547945205587894,226.2465870315791 26.849315068451688,225.92489725718042 33.38356164377183,224.39686825824901 36.589041095692664,225.52278477448272 35.479452054714784,229.62431830348214 19.267123287776485,229.86558402900118 15.32191780838184,230.83064587268746 13.226027397438884,229.78516213217517 11.5,226.88996601616964 11.993150685215369,226.08574216801208 16.986301369965076,226.4074318485218 23.458904109429568,225.12067199742887 28.57534246565774,226.0053197183879 35.910958903841674,225.12067199742887 35.910958903841674,218.847674608347 38.5,219.0085215891013 35.5410958903376,218.52598050562665 35.10958904097788,229.5438963713823 22.164383561583236,229.30263050476788 14.458904109662399,231.47401949443156 12.363013698952273,227.4529220102704 12.732876712456346,226.4878542391234 23.21232876717113,225.20109457644867 28.760273972526193,226.08574216801208 32.64383561629802,225.28151714347769 36.21917808195576,226.16616460564546 35.72602739697322,230.02642778703012 19.14383561629802,229.70474022370763 18.342465753667057,230.83064587268746 14.335616438416764,231.47401949443156 13.164383561816067,230.42853697692044 12.732876712456346,226.16616460564546 21.42465753434226,223.91433190292446 24.938356164610013,225.12067199742887 28.57534246565774,224.87940419034567" stroke="#4dd2ff" stroke-linecap="round" stroke-linejoin="round" stroke-width="0.5"><title>2023-08-30 4.9km</title><desc>1693396264000</desc></polyline><polyline fill="none" points="45.23067120462656,213.51244428521022 48.5728100030683,217.03421328705736 50.75805460149422,233.97209405410103 55.25708759948611,237.99690022249706 64.12660979526117,232.96589030476753 64.25515359593555,214.51866510382388 56.15689419955015,211.66770382528193 49.472616602201015,215.3571817779448 50.88659840123728,234.64289606327657 54.87145619979128,238.5 60.27029579784721,238.16460017266218 64.64078499563038,235.14599731226917 64.64078499563038,217.20191630290356 62.06990899704397,212.84162991598714 56.92815699893981,211.66770382528193 49.858248001895845,217.36961929430254 51.143686002120376,235.31369767943397 54.61436859983951,238.3323000984965 64.51224119542167,233.80439349031076 64.38369739567861,216.86651024629828 61.94136519683525,213.00933354522567 56.799613199196756,211.83540762588382 51.9149488019757,213.34474073001184 49.72970420215279,216.86651024629828 50.50096700200811,234.13979459286202 57.05670079914853,238.16460017266218 64.51224119542167,234.81059650389943 64.12660979526117,216.86651024629828 62.19845279678702,213.51244428521022 55.51417519990355,211.83540762588382 49.72970420215279,215.69258827588055 50.50096700200811,233.13359099067748 56.799613199196756,238.3323000984965 61.94136519683525,237.32610017526895 64.64078499563038,233.6366929024225 63.740978395566344,215.5248850393109 58.856313998345286,211.5 50.62951080175117,215.0217751818709 50.62951080175117,233.6366929024225 53.586018200498074,237.6615002474282 60.398839597124606,237.99690022249706 64.51224119542167,233.46899228950497 64.38369739567861,218.87894511432387 60.141751997638494,212.170815154328 50.88659840123728,214.6863684875425 50.372423202265054,232.2950873146765 54.357281000353396,237.49380022357218 60.7844709972851,237.99690022249706 64.12660979526117,235.31369767943397 64.76932879537344,221.89759079378564" stroke="#4dd2ff" stroke-linecap="round" stroke-linejoin="round" stroke-width="0.5"><title>2023-08-25 3.1km</title><desc>1692968645000</desc></polyline><polyline fill="none" points="89.35483870934695,220.31280009931652 88.91935483831912,224.1951437544776 98.1370967742987,224.57390774285886 98.5,229.68719990062527 71.5,229.59250967216212 71.93548387056217,225.04736241674982 87.90322580607608,225.04736241674982 95.8870967742987,223.43761511310004 98.06451612897217,224.38452577602584 98.2096774186939,229.21374861942604 89.06451612897217,229.30843890324468" stroke="#4dd2ff" stroke-linecap="round" stroke-linejoin="round" stroke-width="0.5"><title>2023-08-24 1.1km</title><desc>1692883156000</desc></polyline><polyline fill="none" points="115.3379449674394,238.5 115.41746143030468,238.11098019758356 115.6162525875261,238.26658822098398 115.03975823160727,222.00481134827714 114.56265945418272,219.0220269482379 115.3379449674394,218.4514016063913 114.58253856992815,217.7510861771152 114.84096707426943,214.94979680079268 114.38374741259031,211.5" stroke="#4dd2ff" stroke-linecap="round" stroke-linejoin="round" stroke-width="0.5"><title>2023-08-21 1.2km</title><desc>1692620048000</desc></polyline><polyline fill="none" points="145.56658891425468,229.02468051756296 145.20603233244037,229.79751953664527 145.4635727480054,238.5 145.32192551944172,227.69740137329063 145.0,225.54684058270504 145.09013914543903,223.09380802355008 144.5106732104323,212.23935023228114 144.832598729874,211.65123111658613 145.37343360256637,211.5 144.7424595844932,211.56721385417768 144.43341108574532,212.12172665009712 144.45916512730764,215.81841020203137 145.01287702081027,222.64015927595756 144.84547575068427,225.00919409366907 145.1931553116301,227.12616259037895 145.52795785182388,238.4832004797354 145.24466339475475,230.80556261688616" stroke="#4dd2ff" stroke-linecap="round" stroke-linejoin="round" stroke-width="0.5"><title>2023-08-10 4.8km</title><desc>1691669615000</desc></polyline><polyline fill="none" points="176.80481283413246,224.0110793687054 179.18716577533633,221.27972575224703 187.20053475908935,221.27972575224703 187.9946524067782,226.64823738660198 162.2941176467575,227.8726285097655 161.5,223.8227105255355 170.5962566845119,220.62043176451698 176.44385026721284,222.31575779797276 187.34491978632286,221.93901906500105 188.5,225.89476476906566 173.6283422461711,227.6842607963481 162.8716577538289,227.2133412710973 161.57219251291826,226.83660540293204 161.5,225.14129127009073 163.1604278073646,222.4099424466258 171.3903743312694,223.1634191412013 181.5695187165402,221.27972575224703 187.85026737954468,221.84483434748836 187.4171122997068,226.55405335745309 168.86363636376336,227.9668123460142 161.9331550798379,227.11915732483612 161.9331550798379,223.54015715781134 163.9545454545878,222.59831170312827 178.3208556151949,223.35178817703854 180.5588235296309,222.12738845899003 188.06684491969645,222.22157313558273 188.06684491969645,226.64823738660198 172.2566844918765,227.02497336477973 167.05882352916524,229.19120096275583 162.51069518737495,227.4958930273424 161.6443850263022,224.67036988545442 162.5828877002932,223.7285260835779 172.04010695172474,223.25760366610484 173.3395721926354,222.03320376906777 178.39304812811315,223.7285260835779 188.28342245984823,222.59831170312827 188.06684491969645,226.74242140172282 167.4919786094688,227.7784446599544 162.0775401070714,226.45986931480002 162.0053475932218,223.54015715781134 163.59358288766816,222.4099424466258 178.9705882356502,223.54015715781134 188.5,222.69249631051207 187.9224598929286,226.9307893908117 171.1737967915833,227.4958930273424 168.6470588236116,229.00283363478957 163.0882352939807,227.8726285097655 162.2219251333736,225.51802812964888 163.23262032074854,223.25760366610484 178.68181818164885,223.91689495416358 188.2112299464643,222.5041270814836 188.42780748661608,227.02497336477973 174.4224598929286,226.9307893908117 170.8850267380476,227.4958930273424 169.4411764703691,229.3795682354248" stroke="#4dd2ff" stroke-linecap="round" stroke-linejoin="round" stroke-width="0.5"><title>2023-08-08 4.7km</title><desc>1691498421000</desc></polyline><polyline fill="none" points="26.924436492379755,241.5 27.124142166110687,250.33470591754303 28.195290779694915,250.68997891817708 28.140825595939532,251.21104457628098 21.8047092204215,251.0215663490817 22.53091167018283,252.60843965646927 22.821392650250345,263.33719011524227 23.311579303932376,267.0080122128129 23.838076080195606,268.5" stroke="#4dd2ff" stroke-linecap="round" stroke-linejoin="round" stroke-width="0.5"><title>2023-08-04 1.6km</title><desc>1691107871000</desc></polyline><polyline fill="none" points="54.43455497385003,253.06356320006307 62.06806282722391,251.3115291815484 67.51047120429575,252.2336529561435 68.14659685874358,257.3975211729994 57.473821989726275,256.7520399586065 41.85340314148925,258.13521318056155 41.92408376955427,255.00001618842361 43.973821989726275,252.69471433776198 49.41623036656529,251.95701596525032 54.71727748727426,252.8791387960664 62.28010471211746,250.48161663144128 68.00523560238071,252.51028982555727 68.35863874363713,257.3053096116055 41.85340314148925,258.0430017267354 41.92408376955427,254.72338041168405 44.115183246321976,252.69471433776198 50.759162303525954,251.49595404439606 54.010471204295754,252.6025020882371 67.43979057623073,252.6025020882371 68.5,257.3975211729994 42.70157068083063,258.504058860708 41.5,256.5676166333142 42.77225130912848,254.26232051325496 50.40575916250236,252.04922830912983 67.36910994793288,252.51028982555727 67.93455497385003,257.21309803659096 42.8429319371935,258.504058860708 42.206806282745674,254.53895649279002 47.578534031519666,252.97135100484593 58.958115183282644,253.89347235218156 68.14659685874358,252.8791387960664 68.21727748727426,256.9364632302313 43.973821989726275,258.41184746084036 41.6413612565957,257.0286748458748 42.418848167872056,254.6311684589018 48.78010471211746,252.69471433776198 68.07591623067856,253.34019970556255 68.14659685874358,256.8442516013165 52.526178010739386,257.5819442560896 48.07329842960462,259.5183833685587 44.75130890053697,258.9651156574255 42.91361256549135,258.0430017267354 42.418848167872056,255.00001618842361 47.64921466005035,252.6025020882371 58.887434555217624,254.3545325200539 67.72251308895648,253.06356320006307 68.28795811533928,257.3053096116055 52.87958115199581,256.9364632302313 47.86125654471107,258.504058860708" stroke="#4dd2ff" stroke-linecap="round" stroke-linejoin="round" stroke-width="0.5"><title>2023-07-26 4.8km</title><desc>1690377436000</desc></polyline><polyline fill="none" points="80.5,253.49708411691245 95.62000000011176,251.24268283619313 98.42799999983981,251.8062838979531 97.8519999999553,256.78473846788984 80.21200000029057,256.97260392288445 73.66000000014901,259.22698509308975 71.78799999970943,257.2544020017376 72.1480000000447,253.5910173318116 78.34000000031665,251.24268283619313 82.73199999984354,252.74561790260486 97.8519999999553,251.90021736058407 97.70800000010058,256.31507459114073 73.15599999995902,258.47552558220923 71.5,256.50294018298155 72.07599999988452,253.7788837206317 77.90800000028685,250.96088211983442 82.15599999995902,250.77301490691025 85.39600000018254,252.74561790260486 91.73199999984354,250.96088211983442 97.99599999981001,251.99415080901235 98.0679999999702,256.87867120222654 71.9320000000298,256.97260392288445 71.9320000000298,253.5910173318116 73.15599999995902,253.02741783601232 88.42000000039116,252.65168456389802 94.03599999984726,250.96088211983442 98.2839999999851,251.99415080901235 97.92399999964982,256.69080572010716 71.9320000000298,257.16046932234894 72.07599999988452,253.49708411691245 75.02799999993294,252.27595107199159 87.84400000050664,252.46381784550613 94.03599999984726,250.77301490691025 98.5,251.99415080901235 97.92399999964982,256.87867120222654 72.3640000000596,257.72406519192737 72.8680000002496,253.21528438961832 85.10800000000745,252.65168456389802 92.52400000020862,250.86694852029905 98.21199999982491,252.08808424370363 98.14000000013039,256.78473846788984 71.9320000000298,256.78473846788984 72.29200000036508,253.21528438961832 81.5800000000745,254.530348726199 93.10000000009313,250.86694852029905 98.35600000014529,251.90021736058407 98.2839999999851,256.87867120222654 73.08399999979883,257.4422673190711" stroke="#4dd2ff" stroke-linecap="round" stroke-linejoin="round" stroke-width="0.5"><title>2023-07-24 4.9km</title><desc>1690201802000</desc></polyline><polyline fill="none" points="118.09070937347133,241.80918372313317 118.05121149017941,241.5 116.92552181414794,242.1441321441962 116.76753028074745,243.0716782946256 117.20200699777342,248.81720258526911 118.24870090687182,249.30672289905488 118.28819879039656,249.71894947676628 113.64719749463256,249.92506240401417 111.13908190082293,249.64165706688073 111.94878850982059,250.54339973890455 112.14627792662941,251.72854023214313 112.38326522696298,262.7293552663323 113.50895490287803,268.5 112.77824406058062,265.69198665853764 113.64719749463256,264.919131097442 112.91648665233515,242.35025393293472 117.93271784007084,242.01530590372568 118.54493503225967,241.88647956910427 118.64367974072229,241.52576533101092 118.86091809917707,241.96377538118395" stroke="#4dd2ff" stroke-linecap="round" stroke-linejoin="round" stroke-width="0.5"><title>2023-07-24 3.0km</title><desc>1690157385000</desc></polyline><polyline fill="none" points="145.18140674883034,259.79373846709495 145.6867541204556,268.5 145.32394062291132,256.86896365902066 145.0518304996658,255.58406809056032 145.29802537307842,254.48513291648123 145.10366099938983,253.94411483879958 144.55944075295702,242.70050969385193 144.88338137581013,241.85508163082704 145.4923897467088,241.58454334440466 144.9481695004506,241.5338173451819 144.5076102532912,242.22707074056234 144.5076102532912,245.8454477910127 145.01295762491645,253.8595805353325 145.12957624916453,252.91279211294022 144.4557797536254,242.59905865287874 144.68901700212155,241.92271610349417 145.29802537307842,241.56763468044664 144.84450850106077,241.5 144.35211875429377,242.37924775850115 144.31324587960262,245.72709145543922 144.8056356263114,254.1300900886199" stroke="#4dd2ff" stroke-linecap="round" stroke-linejoin="round" stroke-width="0.5"><title>2023-07-22 4.9km</title><desc>1690030226000</desc></polyline><polyline fill="none" points="171.78209478687495,252.69520053523593 167.1129774195142,249.89641083835158 169.13205520017073,264.3841881727567 173.0440183999017,267.3475742052542 179.35363646410406,266.03051470941864 182.5084454966709,260.59762800252065 181.37271424476057,246.76834353117738 178.97505938028917,242.65245225431863 174.68451909674332,241.5 168.12251631030813,244.7927175963996 169.38443992240354,263.23175816470757 171.90828714799136,267.0183094756212 175.5678656254895,268.00610337546095 182.8870225804858,262.0793269771384 182.129868412856,250.0610457189614 177.2083663227968,241.66463610855862 171.65590242575854,242.15854428964667 167.6177468644455,246.10980193840805 168.62728575477377,262.73785922897514 174.30594201292843,267.8414711188525 181.87748368969187,263.72565688437317 181.6250989669934,246.76834353117738 174.05355728976429,242.48781628976576 167.870131587144,246.93297886964865 168.8796704779379,264.71345367317554 174.05355728976429,268.5 182.63463785732165,262.9024922319222 182.00367605080828,250.22568057558965" stroke="#4dd2ff" stroke-linecap="round" stroke-linejoin="round" stroke-width="0.5"><title>2023-07-18 1.7km</title><desc>1689685608000</desc></polyline></svg>