<?xml version="1.0" encoding="utf-8" ?>
<svg baseProfile="full" height="300mm" version="1.1" viewBox="0,0,200,300" width="200mm" xmlns="http://www.w3.org/2000/svg" xmlns:ev="http://www.w3.org/2001/xml-events" xmlns:xlink="http://www.w3.org/1999/xlink"><defs /><rect fill="#222222" height="300" width="200" x="0" y="0" /><text fill="#FFFFFF" style="font-size:12px; font-family:Arial; font-weight:bold;" x="10" y="20">Over 10km Runs</text><text fill="#FFFFFF" style="font-size:4px; font-family:Arial" x="10" y="280">ATHLETE</text><text fill="#FFFFFF" style="font-size:9px; font-family:Arial" x="10" y="290">Yunlong</text><text fill="#FFFFFF" style="font-size:4px; font-family:Arial" x="120" y="280">STATISTICS</text><text fill="#FFFFFF" style="font-size:3px; font-family:Arial" x="120" y="285">Number: 50</text><text fill="#FFFFFF" style="font-size:3px; font-family:Arial" x="120" y="290">Weekly: 1.9</text><text fill="#FFFFFF" style="font-size:3px; font-family:Arial" x="141" y="285">Total: 250.9 km</text><text fill="#FFFFFF" style="font-size:3px; font-family:Arial" x="141" y="290">Avg: 5.0 km</text><text fill="#FFFFFF" style="font-size:3px; font-family:Arial" x="167" y="285">Min: 1.1 km</text><text fill="#FFFFFF" style="font-size:3px; font-family:Arial" x="167" y="290">Max: 39.1 km</text><polyline fill="none" points="14.568442235700786,41.80613156873733 18.029736809432507,39.47885256778682 20.932758064940572,55.042427696927916 25.95721792895347,50.678832982317545 29.418512503616512,51.260646713140886 31.31664178520441,48.93338975543156 30.870023130904883,37.1515681403107 28.971893848385662,33.36971937358612 24.170743310824037,31.33333333331393 20.821103401016444,32.49698300776072 17.58311815513298,39.91521779366303 20.709448737557977,54.16971028014086 30.758368466515094,48.06066699733492 30.870023130904883,37.29702357581118 26.40383658418432,31.624245878774673 21.267722055781633,32.06061453890288 17.47146349120885,35.55155694944551 19.704556764569134,53.87880430498626 20.932758064940572,50.969739890191704 30.088440484832972,48.3515746681951 29.195203175768256,33.51517536013853 25.733908602036536,31.33333333331393 21.71434071054682,32.20607071655104 18.029736809432507,35.55155694944551 17.694772818591446,40.35158282879274 19.704556764569134,53.58789824490668 23.38916066568345,49.3697508481564 29.418512503616512,48.49702847196022 30.98167779389769,36.569746186141856 28.413620530162007,33.36971937358612 23.61246999260038,32.35152687272057 18.588010127656162,34.96973406209145 17.806427482049912,42.38795047119493 19.481247436720878,53.73335128527833 26.515491248108447,48.49702847196022 29.865131157450378,49.80611175019294 31.651605776511133,47.47885140153812 29.306857839692384,33.80608727037907 21.71434071054682,32.64243912190432 17.806427482049912,38.75157676736126 19.592902100179344,53.87880430498626 27.297073893249035,47.62430533213774 29.530167166609317,50.24247246183222 31.7632604399696,47.62430533213774 31.204987121745944,36.424290644179564 29.306857839692384,33.36971937358612 22.16095936484635,31.915158340299968 18.364700800273567,35.11518981563859 17.806427482049912,38.31521103240084 20.039520755410194,54.02425730309915 27.967001875396818,48.93338975543156 30.758368466515094,49.3697508481564 31.093332457821816,37.58793438388966 28.971893848385662,32.35152687272057 24.170743310824037,31.915158340299968 18.922974119428545,34.533366673858836 17.806427482049912,45.29703989601694 19.927866091951728,54.31516323587857 27.632037884555757,49.951565342082176 30.758368466515094,51.260646713140886 32.09822443081066,48.06066699733492 30.870023130904883,36.13337949727429 27.297073893249035,31.33333333331393 21.267722055781633,32.06061453890288 18.2530461368151,36.13337949727429 19.36959277326241,52.42427315743407 20.374484746251255,53.87880430498626 30.870023130904883,50.678832982317545 31.42829644912854,40.06067282642471 26.73880057502538,32.06061453890288 18.476355463732034,34.24245497590164 17.024844836443663,42.67885979521088 18.922974119428545,55.33333333331393 31.093332457821816,51.551553451339714 30.088440484832972,35.9879238922731 26.40383658418432,31.33333333331393 18.476355463732034,34.82427828741493 16.689880846068263,47.62430533213774 17.248154163826257,55.042427696927916 29.75347649399191,53.44244518328924 30.2000951487571,37.44247899047332" stroke="#4dd2ff" stroke-linecap="round" stroke-linejoin="round" stroke-width="0.5"><title>2024-11-17 5.0km</title><desc>1731835115000</desc></polyline><polyline fill="none" points="47.396562055684626,37.83941478718771 48.8393300101161,52.44179782678839 55.72022333042696,53.164682493312284 59.937545042485,49.405676475784276 60.49245579401031,36.10446390416473 56.16415193164721,31.91165341215674 51.16995516652241,32.48997315426823 48.8393300101161,35.81530512869358 48.50638355873525,51.429758408805355 52.501740970648825,55.18875675788149 59.937545042485,52.15264381264569 60.49245579401031,36.82736047421349 58.71674138912931,33.21287235751515 55.16531257843599,31.622493414732162 48.617365709505975,35.52614626887953 48.72834785981104,50.99602691328619 52.501740970648825,54.75502690614667 59.715580742340535,51.86348971427651 60.603437944781035,37.11651895433897 58.60575923835859,32.923712739604525 55.387276879511774,31.91165341215674 48.95031216042116,34.94782829703763 48.39540140843019,50.27314066683175 50.72602656530216,55.33333333331393 60.04852719279006,51.28518126462586 60.603437944781035,36.97193972481182 55.942187631037086,32.05623337946599 49.061294310726225,34.6586691843695 48.95031216042116,51.429758408805355 52.057812369428575,55.33333333331393 60.159509343560785,51.71891263325233 60.603437944781035,37.11651895433897 55.831205480732024,31.767073424183764 51.613883767742664,32.200813325238414 48.617365709505975,35.67072570952587 48.39540140843019,50.85144970641704 51.05897301668301,55.33333333331393 59.60459859156981,52.58637480204925 59.937545042485,37.55025651695905 56.94102698331699,32.34539325005608 51.280937316827476,32.48997315426823 48.95031216042116,34.803248751035426 48.50638355873525,50.56229522865033 50.72602656530216,54.89960354421055 59.715580742340535,52.008066773822065 60.27049149386585,36.10446390416473 55.60924117965624,31.767073424183764 48.8393300101161,34.6586691843695 48.50638355873525,50.85144970641704 51.83584806881845,55.18875675788149 59.60459859156981,53.74298984755296 60.38147364417091,37.11651895433897 56.83004483347759,32.05623337946599 51.16995516652241,32.05623337946599 48.72834785981104,34.51408959639957 48.617365709505975,50.70687247783644 50.72602656530216,54.610450246487744 60.27049149386585,51.71891263325233 59.937545042485,35.95988452702295 55.27629472920671,31.33333333331393 51.946830219589174,31.91165341215674 48.173437107820064,35.95988452702295 48.173437107820064,51.57433553156443 52.057812369428575,54.32129686453845 57.82888418622315,53.59841304033762 60.27049149386585,50.70687247783644 60.49245579401031,36.68278120207833 56.386116232257336,31.622493414732162 50.393080114386976,32.634553036885336 48.50638355873525,34.803248751035426 47.840490656904876,48.53821152599994 50.6150444149971,54.4658735661651 60.49245579401031,51.429758408805355 60.38147364417091,41.88762171543203" stroke="#4dd2ff" stroke-linecap="round" stroke-linejoin="round" stroke-width="0.5"><title>2024-11-16 4.9km</title><desc>1731760965000</desc></polyline><polyline fill="none" points="94.75332177942619,44.58213065247401 96.66666666674428,43.8763808515796 96.08434430975467,41.270523797837086 96.66666666674428,42.356299795472296 95.8347775854636,44.1478232415684 86.30964760272764,54.29962596442783 72.66666666674428,42.953475239133695 74.49682264612056,41.59625693093403 81.31831311411224,32.80136191038764 82.44136337400414,32.36704070225824 81.2767186597921,32.47562105196994 79.52975158882327,34.701511214720085 82.1086077413056,32.529911214864114 85.60254188347608,32.47562105196994 94.54534950922243,39.533275589259574 96.54188330448233,42.356299795472296 90.55228191800416,50.0109303733916 85.10340843442827,53.48532048944617 79.11380704818293,47.350828439957695 77.3252455231268,47.29654044678318 72.70826112106442,42.84489795722766 74.28885037568398,41.813412194052944 78.11554015032016,36.49307164107449 80.98555748141371,34.267192232218804 81.31831311411224,32.80136191038764 84.35470826132223,32.58420136992936" stroke="#4dd2ff" stroke-linecap="round" stroke-linejoin="round" stroke-width="0.5"><title>2024-11-14 2.7km</title><desc>1731589127000</desc></polyline><polyline fill="none" points="115.26997897221008,55.33333333333576 114.28446668828838,54.23083053083246 113.25671816366958,53.75307630915631 112.06002467602957,52.09929765440029 108.65296792302979,49.747219369746745 108.41362922551343,49.54508558553789 108.66704666992882,49.251072227467375 108.484022960125,49.4348306569882 108.11797554034274,49.159192911844 111.75029224395985,44.84078920958564 111.14490612666123,44.06897374858818 108.59665293537546,41.88213750095747 107.93495183048071,41.73512193251372 104.49973758362466,45.85149275528238 106.41444716387196,47.98313173157658 107.68153438606532,48.90193047027424 108.55441669467837,48.53441178188223 111.67989850934828,44.63864752378868 108.80783413909376,42.02915289710654 108.13205428724177,41.75349888801429 106.949439546559,42.87448808338377 104.54197382437997,45.924998150272586 107.45627443538979,48.699795324821025 107.80824310827302,48.957058180683816 108.2728417564067,48.810050899024645 111.69397725630552,44.804036200017435 111.42648106487468,44.27111635189067 109.45545649708947,42.48857490033697 108.3995504786144,41.69836801350175 107.99126681813505,41.77187584077183 104.54197382437997,45.906621805545 104.83762750960886,46.384405893339135 108.00534556509228,48.993809974213946 109.52585023164283,47.50535372947343 113.10185194766382,43.113386125878606 114.15775796608068,42.341560042208584 115.04471902159275,42.01077598203847 119.0290043980931,41.86376056429435 123.97064456460066,41.000041507330025 123.70314837316982,39.1255669359889 122.99921102757799,36.90188922758534 125.87127539789071,35.65220181741461 126.1669290830614,35.303022228552436 124.70273940404877,33.09765501139918 122.91473854606738,31.645767104528204 120.59174530539894,31.33333333333576 115.73457762034377,36.68135705940222" stroke="#4dd2ff" stroke-linecap="round" stroke-linejoin="round" stroke-width="0.5"><title>2024-11-11 6.9km</title><desc>1731328526000</desc></polyline><polyline fill="none" points="146.07713498617522,54.062785881600576 145.65840220381506,54.206604311140836 142.41873278224375,52.19313671856071 134.0,44.74312722554896 135.69696969701909,40.65844614294474 138.4958677685354,39.01879675300734 141.16253443527967,35.42302649949852 143.91735537187196,32.54636291373754 144.53443526173942,32.46006235551613 148.98622589523438,36.37231623986736 149.44903581263497,37.29283524413768 144.42424242431298,43.16104251558136 143.38842975196894,43.621286654131836 138.42975206614938,38.96126494697819 142.15426997246686,34.09976648131851 143.12396694219206,33.72580007830402 143.9614325069124,32.603896598215215 144.53443526173942,32.57512975811551 149.40495867771097,37.033939710090635 146.31955922872294,41.061164952639956 143.60881542693824,43.73634752044745 138.53994490357582,39.220157941424986 138.84848484839313,38.3284139688767 142.39669421489816,33.92716669145739 143.0137741046492,33.86963339445356 144.09366391180083,32.54636291373754 144.64462809916586,32.603896598215215 149.38292011024896,37.00517351864255 145.9889807163272,41.377586295391666 143.65289256197866,43.707582310176804 138.60606060596183,39.33522138501576 138.62809917354025,38.81743535824353 141.0303030302748,35.48055934163858 144.35812672181055,32.57512975811551 149.44903581263497,37.06270589742053 144.7768595040543,42.90215471378178 143.69696969690267,43.650051877018996 138.42975206614938,39.191392070031725 141.31680440763012,35.221661419491284 143.58677685947623,33.006631917960476 144.62258953170385,32.51759606519772 149.31680440774653,36.803810060126125 149.16253443516325,37.5229643213097 146.47382920107339,40.83104001956235 144.35812672181055,43.276103651252924 143.41046831943095,43.707582310176804 138.58402203849982,39.363987235410605 138.80440771346912,38.44347793472116 141.95592286495958,34.53126529256406 144.55647382920142,32.51759606519772 149.38292011024896,36.803810060126125 145.9889807163272,41.32005518011283 143.60881542693824,43.621286654131836 138.5179063361138,39.33522138501576 138.58402203849982,38.61607375708991 139.7079889808083,37.75309312900936 140.92011019273195,35.595624975307146 144.33608815423213,32.4888292124233 149.42699724517297,36.803810060126125 143.58677685947623,43.880173508339794 144.7327823691303,44.31165084072563 150.44077134982217,37.75309312900936 154.47382920095697,41.32005518011283 155.7961432505399,42.0104274523037 158.0,44.31165084072563" stroke="#4dd2ff" stroke-linecap="round" stroke-linejoin="round" stroke-width="0.5"><title>2024-10-22 9.9km</title><desc>1729553484000</desc></polyline><polyline fill="none" points="165.44887681775435,44.60196364567673 164.85407118203875,44.62850307495319 164.66666666667152,44.52765314082717 164.77666496916208,44.198561939338106 164.97221750694735,44.034015223329334 165.21665817915346,43.9756275002037 165.21665817915346,43.7420756715037 165.37554461607942,43.704919560648705 165.77479771402432,43.726151628641674 171.48248741017596,43.200654307314835 171.94692468737776,43.23250284570895 172.62728455838806,43.09980041867311 173.7028235161124,43.00425437173908 173.96356023314002,43.0414111975515 174.22837096136936,42.94586499743309 177.1616590279009,42.63799220265719 179.23940474170377,42.49467122057831 179.54088157077786,42.537136755556276 179.87495048946585,42.44158923221403 182.66564816387836,42.29826747709012 182.71046228712657,42.462822036846774 183.34193402367237,42.45220563607654 183.5293385390396,42.28234280280958 184.29525264530093,42.2027193269314 188.66666666667152,42.038163591711054 185.0163526283286,42.13371217366512 183.5497085950483,42.266418121555034 183.25230577720504,42.1708698878283 182.64120409665338,42.21864403604559 182.567871894993,42.1708698878283 182.47824364851112,42.3088839227421 182.29491314436018,42.34604145814956 178.06201550390688,42.55836950448065 170.34991229561274,43.33335636681295 169.79177276072733,43.32274021984995 166.98477904147876,43.65714736241716" stroke="#4dd2ff" stroke-linecap="round" stroke-linejoin="round" stroke-width="0.5"><title>2024-10-19 10.0km</title><desc>1729295146000</desc></polyline><polyline fill="none" points="29.416430913261138,82.0 28.03148750634864,80.85986002665595 27.030066888895817,79.1913501709787 15.737451416440308,69.76399417353969 17.655065364553593,67.92852532058896 22.385179770062678,61.47643345416873 25.623816660256125,58.0 26.433475882862695,58.305928697183845 30.929215250187553,62.338579104689416 29.096828588517383,64.78593898589315 26.049953093286604,68.31786868044583 25.15506658400409,68.76283154317935 20.339724891935475,64.3687775991275 23.770123176975176,59.72431894612964 25.836884876713157,58.0 30.907908428576775,62.394201270348276 28.09540797129739,65.9817965507682 25.261600692290813,68.76283154317935 20.382338535273448,64.53564226374147 20.467565821832977,63.812560991587816 25.32552115712315,58.13905855976918 26.049953093286604,58.05562343621568 30.41785153071396,61.69892302893277 30.843987963628024,62.17171250995307 30.694840212119743,62.86698902089847 25.900805341661908,68.48472987617424 25.112452940782532,68.67940108584298 20.339724891935475,64.42439917023876 20.4462590002222,63.756939241240616 24.665009686141275,58.91778461333888" stroke="#4dd2ff" stroke-linecap="round" stroke-linejoin="round" stroke-width="0.5"><title>2024-10-10 5.0km</title><desc>1728516073000</desc></polyline><polyline fill="none" points="63.20345940021798,79.17373039170343 60.69601535308175,82.0 59.537272270652466,81.70250015682541 55.18723676470108,77.68620112851204 54.7313378470717,76.76888490380952 45.784321588114835,69.6037304540223 44.79654059978202,68.3888472213439 47.474946741131134,65.1656453916803 48.53871088230517,64.96729250611679 48.31076142354868,64.54579185294278 50.64724337635562,61.37210618885001 53.7435568588553,58.04959028336452 54.598367329337634,58.19836104636488 58.530495494254865,62.01676590302668 54.33242629410233,67.14916146967153 53.648577917716466,67.7194180424849 53.0217169058742,67.49627439489996 49.54548765870277,64.62017439736519 49.051597164710984,63.80196461176092 51.23611281171907,60.75223876486416 53.61058634123765,58.14877080655424 54.12347262352705,58.0 54.67435048241168,58.371926771331346 58.074596576509066,61.29772221771418 58.47350812947843,62.01676590302668 54.06648525886703,67.29792423904291 53.230670576449484,67.5706556434452 49.24155504698865,64.29784980224213 48.975614011636935,63.72758170794987 52.185902223573066,59.53729203189141 53.9715063177282,58.0 58.302546035381965,61.47128476615762 58.264554459019564,62.48786183448101 54.06648525886703,67.39709934602433 53.0407126940554,67.421893113642 51.50205384707078,66.20699422930193" stroke="#4dd2ff" stroke-linecap="round" stroke-linejoin="round" stroke-width="0.5"><title>2024-10-05 4.9km</title><desc>1728122302000</desc></polyline><polyline fill="none" points="78.93015007581562,62.311420281010214 81.35713786352426,81.85628916317364 89.74127749633044,76.97010825487087 90.51350088324398,63.60484268999426 86.6523839472793,59.43714218796231 81.02618498401716,60.155712496547494 79.59205583622679,72.51503985805903 81.2468202370219,81.13773466547718 89.30000698938966,76.2515501974267 90.623818510212,65.32940326305106 88.1968307220377,59.868284435768146 83.01190226478502,59.29342806356726 80.47459685010836,61.1617100489093 79.59205583622679,70.50306688883575 81.46745549095795,80.85031271987827 88.96905410895124,78.11980005842634 90.51350088324398,65.32940326305106 86.76270157424733,59.29342806356726 81.68809074442834,59.868284435768146 80.14364396966994,61.8802791009075 79.26110295578837,72.22761539934436 80.58491447707638,79.9880463804584 83.23253751872107,80.56289069063496 89.52064224286005,76.97010825487087 90.623818510212,63.31741563451942 86.32143106730655,59.29342806356726 80.47459685010836,60.73056836659089 79.3714205827564,73.66473685501842 81.2468202370219,81.28144560719375 89.63095986936241,77.54495432419935 90.623818510212,65.04197671019938 89.85159512329847,61.59285154286772 86.43174869427457,59.29342806356726 80.47459685010836,61.1617100489093 79.81269108969718,79.55691292777192 81.46745549095795,80.70660171582131 89.96191274980083,77.11381980392616 90.73413613671437,64.32340996188577 87.09365445468575,59.29342806356726 80.2539615961723,61.1617100489093 79.92300871666521,78.40722279984038 82.01904362440109,81.13773466547718 90.40318325720727,76.97010825487087 90.51350088324398,62.598847629269585 86.6523839472793,59.43714218796231 79.81269108969718,61.8802791009075 79.04046770278364,70.50306688883575 80.80554973008111,79.12577928690007 82.5706317583099,80.13175748934736 90.18254800327122,77.11381980392616 90.623818510212,63.74855618615402 86.76270157424733,59.43714218796231 80.2539615961723,61.1617100489093 79.70237346319482,76.68268509500194 83.34285514522344,81.28144560719375 90.07223037676886,78.26351143943612 90.51350088324398,64.03598311595852 88.85873648198321,60.29942649556324 85.76984293339774,59.14971391798463 79.70237346319482,61.8802791009075 79.15078532882035,70.79049184994074 81.46745549095795,81.71257830527611 90.07223037676886,78.83835675474256 90.29286562977359,64.03598311595852 87.20397208118811,59.29342806356726 79.92300871666521,60.586854430323 80.2539615961723,80.85031271987827 89.74127749633044,79.41320173512213 90.73413613671437,74.81443251145538 90.18254800327122,61.8802791009075 86.43174869427457,59.00599975133082 82.46031413134187,59.00599975133082 79.3714205827564,62.4551339657628 80.36427922314033,79.84433525032364 87.09365445468575,80.85031271987827 90.51350088324398,75.3892798369634 89.74127749633044,62.311420281010214 85.2182547999546,58.71857135556638 80.80554973008111,59.580856291460805 78.37856194237247,61.30542390153278 80.2539615961723,79.26949052140117 84.1150785330683,81.56886742723873 88.85873648198321,80.99402370338794 90.73413613671437,75.96412682766095 89.63095986936241,61.8802791009075 87.64524258766323,59.724570373946335 81.7984083709307,59.868284435768146 79.26110295578837,63.892269661300816 80.2539615961723,79.41320173512213 87.97619546810165,81.13773466547718 90.51350088324398,77.54495432419935 89.74127749633044,61.017996175796725 84.55634903907776,58.71857135556638 79.70237346319482,61.8802791009075 80.2539615961723,79.12577928690007 82.901584637817,81.42515652748989 88.08651309506968,81.13773466547718 90.623818510212,75.10185621597338 89.74127749633044,60.155712496547494 82.79126701178029,59.29342806356726 79.48173820972443,63.60484268999426 79.92300871666521,78.83835675474256 82.901584637817,82.0 85.88016056036577,81.85628916317364 90.40318325720727,76.97010825487087 89.63095986936241,60.01199847640237 83.01190226478502,59.00599975133082 79.3714205827564,62.598847629269585 79.3714205827564,77.25753133132821 83.01190226478502,80.99402370338794 86.6523839472793,81.42515652748989 90.73413613671437,76.68268509500194 90.18254800327122,61.30542390153278 85.54920767992735,58.862285564187914 79.59205583622679,62.598847629269585 79.81269108969718,75.67670337448362 82.34999650437385,79.55691292777192 87.64524258766323,80.56289069063496 90.95477139065042,75.3892798369634 90.73413613671437,62.4551339657628 86.10079581383616,58.0 79.70237346319482,61.8802791009075 79.81269108969718,77.54495432419935 84.00476090563461,81.28144560719375 89.96191274980083,78.55093413888244 90.95477139065042,63.1737020756118 86.87301920121536,58.71857135556638 80.36427922314033,60.155712496547494 79.59205583622679,76.82639668538468 85.76984293339774,81.13773466547718 89.74127749633044,79.26949052140117 90.95477139065042,62.74256127199624 86.43174869427457,58.1437143132207 79.81269108969718,61.449137732735835 78.81983244884759,75.10185621597338" stroke="#4dd2ff" stroke-linecap="round" stroke-linejoin="round" stroke-width="0.5"><title>2024-09-08 8.9km</title><desc>1725751236000</desc></polyline><polyline fill="none" points="115.49408118647989,58.544524839147925 117.42305542435497,58.0 116.84436315309722,58.293205810914515 117.45520499511622,69.14161050962866 122.85633286111988,67.54997831163928 124.1101661156863,68.34579551243223 123.66007212689146,70.35627125645988 123.94941826257855,81.2042206080805 110.9931412980659,82.0 107.1030432516709,81.5392858836858 107.48883809929248,73.28818983834935 106.5886501215864,67.59186348234653 106.55650055105798,59.34036697872216 107.32809024606831,58.58641132249613" stroke="#4dd2ff" stroke-linecap="round" stroke-linejoin="round" stroke-width="0.5"><title>2024-08-20 2.0km</title><desc>1724107925000</desc></polyline><polyline fill="none" points="149.73913043481298,58.839775410000584 144.72463768121088,58.53658408529009 144.8695652174065,63.728637052336126 144.68115942034638,64.0318161642208 139.42028985510115,62.97068615285389 139.0289855073206,63.766534480368136 139.0724637681269,68.25730080631911 138.60869565221947,68.27624885601108 134.7681159421336,66.30563677303144 134.0144927536603,66.5140683218633 134.0,79.8719328466832 151.56521739129676,81.46341591472446 151.65217391302576,78.56462848611409 151.0724637681269,71.83843271082151 151.9855072463979,71.66790487602702 155.71014492755057,71.87632775453676 156.82608695648378,71.63000977099 157.60869565216126,71.89527527225437 157.36231884057634,71.4215864942671 158.0,71.04263421850919 156.85507246374618,65.30137094977545 155.9275362318731,62.68645341650699" stroke="#4dd2ff" stroke-linecap="round" stroke-linejoin="round" stroke-width="0.5"><title>2024-08-18 4.9km</title><desc>1723938111000</desc></polyline><polyline fill="none" points="185.06120987737086,78.77456759295455 183.71808296372183,80.96576754851412 182.52270001044963,82.0 181.50192355603212,81.5091789332073 179.37978303234559,79.40563729075075 178.56047561496962,78.8797461068898 178.07694992609322,78.10843485972873 177.8351870815968,78.17855426927417 171.6433720093919,73.05972946852125 165.43812566797715,67.32708716116758 164.84714982600417,65.67912084748968 164.9948937864974,64.46942901186412 164.77999348030426,63.89087642230152 165.0486188630457,62.40065233275527 165.72018231992843,62.13766968566779 167.0767405027873,60.26171004682692 169.34662498690886,58.0 172.03287881438155,59.94612516333291 173.04022399970563,61.31365365110105 173.89982522442006,61.99741203774465 174.74599518004106,61.90975092431472 176.19657224684488,63.22466088647343 176.84127316548256,64.38176970824134 173.3894369972404,68.53675012695749 173.99384410842322,68.9049059952813 177.3382301235688,64.94278814217978 178.65449449897278,65.67912084748968 181.4884922869387,68.29131225256424 182.24064335861476,68.69453135199001 183.79867057845695,70.37751814952935 184.5508216501912,70.74566835837322 186.72668725036783,72.84936212456523 187.50570086034713,73.27009644288046 188.55333985300967,74.54982090838166 188.04295162583003,75.51398784208868 186.37747425277485,77.10922881224542 186.1625739466399,77.6526576967517 185.3298352601705,78.26620347348944" stroke="#4dd2ff" stroke-linecap="round" stroke-linejoin="round" stroke-width="0.5"><title>2024-08-14 5.1km</title><desc>1723587841000</desc></polyline><polyline fill="none" points="31.99839020066429,106.42306154813559 30.11670224822592,108.63634800253203 29.791472231794614,108.66666666666424 28.560244312277064,107.37811561416311 27.85170749068493,107.01428653227777 27.363862466008868,106.34726322916686 26.81794065266149,106.13502764089208 26.004865611495916,105.13448258060816 20.766339274821803,100.96544077641738 15.492966864956543,96.08365850033442 15.051583271182608,95.00720970110706 15.13289077533409,94.23397900972486 14.830891474324744,93.21815736526332 15.005121840222273,90.79227431637992 16.515118345269002,89.10928455879184 16.886809792660642,89.07896016810992 16.538349060690962,89.04863576860953 16.0505040360149,88.44214591258788 15.760120092774741,88.57860643993627 15.02835255570244,89.59447360164631 15.225813637138344,90.51935891671747 14.912198978418019,90.67097867202392 14.66827646602178,87.19883060149004 14.761199327884242,85.10638820047461 17.432731606066227,84.66666666666424 18.39680629770737,84.86378344726108 20.464339973870665,84.72731802373892 18.373575582227204,87.53240446747805 23.135872251936235,91.62617802499153 24.71556090330705,92.50556011506706 25.42409772495739,93.65784258386702 28.6067057432374,96.37172036554693 25.679635595006403,100.02548816588387 26.2139420506428,100.17709400269814 28.072399287601,97.87266132943478" stroke="#4dd2ff" stroke-linecap="round" stroke-linejoin="round" stroke-width="0.5"><title>2024-08-10 5.2km</title><desc>1723241479000</desc></polyline><polyline fill="none" points="61.266852367669344,105.9599260431205 60.14373259048443,107.40829430829763 59.58217270189198,108.61234609827079 58.820055710326415,108.07139679847023 58.28523676871555,108.0364967593996 57.24233983288286,106.30893205354369 55.39721448463388,105.33171264947305 54.95598885795334,104.49408964168106 53.525348189345095,103.48195398820826 50.784401114156935,100.75961545198516 49.3537604456651,99.9568627325134 47.802785515319556,98.35134107577323 45.556545960949734,96.43166723161994 45.38272980495822,96.60618431313924 44.83454038988566,95.96046983533597 43.791643453994766,95.33220374280063 43.40389972139383,94.54686647040944 42.69526462390786,94.1454698663947 42.17381615593331,92.92381971084978 42.40111420606263,92.26063295438507 42.0,90.8818907827008 42.427855153160635,89.27624688664946 43.44401114201173,88.47341682731349 43.96545960998628,87.53095724885497 46.438997214485426,84.77334753052128 46.94707520882366,84.72098723506497 47.000557102961466,85.00024187825329 47.254596100247,84.96533508362336 48.431197771569714,85.83800188182795 48.872423398308456,86.51867754884734 50.102506963768974,87.42623905788787 50.51699164340971,87.46114513176872 51.11866295262007,88.78756836415414 52.33537604456069,89.0668134794978 53.64568245119881,88.92719100357499 54.514763231156394,89.4682271866186 54.75543175486382,90.37576623685163 54.5548746517743,90.6724601968308 51.92089136480354,93.46483775301022 50.79777158773504,95.38455937698018 51.238997214415576,95.55907799155102 52.00111420603935,94.87845394988835 53.5387186629232,92.76674949677545 54.514763231156394,91.75451426301152 54.91587743733544,91.66725220246008 60.050139275728725,95.85575904986763 61.05292479111813,97.11228240463242 62.64401114202337,98.298986744594 63.40612813370535,98.38624395040097 63.59331476321677,98.9621399066964 64.27520891366294,99.36352029146656 64.48913649027236,99.83470423608378 66.0,100.55020222019812 65.77270194987068,101.6321666243748 62.75097493029898,104.80819895930472" stroke="#4dd2ff" stroke-linecap="round" stroke-linejoin="round" stroke-width="0.5"><title>2024-08-09 5.2km</title><desc>1723159591000</desc></polyline><polyline fill="none" points="92.35287619702285,105.87867668673425 92.5151180869434,106.21394471526582 91.63630785036366,106.65508543748729 90.98734029108891,107.48442562494893 90.9332596611348,107.94320710730244 90.13557036948623,108.66666666666424 88.74299414851703,106.74331338818592 88.26978863647673,106.6903766254909 87.5802606047364,105.87867668673425 86.56624879338779,105.4198873472269 86.1471239113016,105.03167961924191 86.18768438376719,104.59053295618651 85.89024091901956,104.76699181513686 74.14122406422393,94.69077721823851 73.28945414262125,93.45545652112196 72.99201067799004,92.5201338569168 72.73512768582441,90.24356345443084 72.87032926059328,88.97290081054234 74.10066359181656,88.10813662818691 75.91236469481373,85.69029364096787 77.1426990259788,84.66666666666424 77.62942469550762,84.68431548123772 80.90130280697485,87.52574092726718 81.69899209856521,87.84341165846126 81.87475414591609,88.60228834931331 84.34894296573475,90.08473135649547 84.63286627293564,90.68476262810145 88.56723210122436,94.0025286774835 88.67539336107438,94.30253493480268 85.47111603699159,98.06137357719126 85.2818338322104,98.431956954606 85.49815635208506,98.69665866949799 86.09304328134749,98.4848973440603 87.56674044724787,96.47314619782264 89.37844155036146,94.81430859162356 96.59820564754773,101.07894794619642 95.55715352110565,102.7024069968902 93.94825478037819,104.25526041263947" stroke="#4dd2ff" stroke-linecap="round" stroke-linejoin="round" stroke-width="0.5"><title>2024-08-08 4.9km</title><desc>1723122982000</desc></polyline><polyline fill="none" points="127.26837270341639,95.75749357006498 127.29790026247792,95.73822431076587 127.30085301837244,95.79217820123267 127.33333333332848,95.66885486054525 127.2919947506598,95.60333910083682 127.05872703412024,95.76520126981814 126.73687664042518,95.45689151899023 126.66010498687683,95.44532983308636 126.5656167979032,95.53396929519658 126.46522309711145,95.46074541315284 126.39435695538123,95.48386876632867 125.77427821521997,96.22380534441254 124.87368766403233,97.08703840234739 121.823490813651,100.67454757046107 121.65223097112903,100.77087566481168 117.33825459316722,97.11016032717816 116.43175853019056,96.52439863900145 116.26935695538123,96.26619691434462 116.20144356956007,95.96560067169958 115.40124671916419,95.56865422085684 115.01738845145155,95.66885486054525 114.62467191601172,95.67270872368135 113.84219160105567,95.56865422085684 113.0213254593109,95.56094646354722 106.01443569554249,95.83842430506047 105.54790026246337,95.8114474210397 105.22900262467738,95.63031619811045 104.86286089239002,95.842278143371 103.45144356954552,95.90393947974007 103.40715223096777,95.86925499580502 103.33333333332848,94.24674084699109 103.3480971128447,93.6108113490809 107.9366797900293,93.41424821430519 108.04297900262463,93.42195660018479 108.99967191599717,93.86903911897025 109.43963254592381,94.00778732225808 114.19356955379772,94.03091195169873 114.6630577427859,93.94226742849787 115.73490813648095,93.46049849572228 116.20439632545458,93.47206105337136 116.64140419947216,93.36799785163566 116.65616797900293,93.2832053090151 118.15026246719935,92.63954392015512 118.33333333332848,92.67808696131397 118.65223097114358,92.61256375775702 120.09908136482409,92.56245766852044 120.11384514435485,92.67423265973412 120.17880577426695,92.69735846072399 122.97801837271254,92.60870944658927 123.03116797900293,92.77829860419479 123.05183727035183,93.42195660018479 123.13156167978013,93.7148735909268 123.30282152231666,94.01164142857124 125.77723097112903,96.14287579409574 125.93077427822573,96.03496934001669 126.07841207348974,96.0850688201208 126.59219160104112,95.54553094215771 127.02919947507326,95.87310882960628" stroke="#4dd2ff" stroke-linecap="round" stroke-linejoin="round" stroke-width="0.5"><title>2024-07-21 16.7km</title><desc>1721568012000</desc></polyline><polyline fill="none" points="135.76314122858457,98.15498849752476 134.69917669409188,97.18285826063948 134.3799873337266,96.17104183143238 134.39518682705238,94.32594536240504 134.0,93.43314772850135 134.12159594672266,91.78641666095064 135.3375554147642,91.05232527777844 137.00949968327768,88.53257595056493 138.30145661806455,87.48101316015527 138.5598480050685,86.78658042782627 139.16782773897285,86.72705745666462 140.97656744770939,87.9571935480053 141.17416086123558,88.53257595056493 144.2444585179328,90.9729638089484 144.41165294480743,91.46897222659027 145.29322355915792,91.72689588618232 147.07156428112648,93.63154771106201 147.78594046860235,93.86962730671803 152.07219759334112,97.83755898293748 155.15769474348053,100.23810123521253 155.88727042428218,101.17053179979848 158.0,102.63860096210556 157.93920202652225,103.094889488857 156.52564914501272,104.46374585098238 155.30968967697117,106.60627587666386" stroke="#4dd2ff" stroke-linecap="round" stroke-linejoin="round" stroke-width="0.5"><title>2024-07-16 2.5km</title><desc>1721136594000</desc></polyline><polyline fill="none" points="185.6395241060236,94.0432290233839 184.42904731447925,95.41609371493541 183.4987245402299,96.68544056312749 182.53668621683028,97.34079647888575 181.68036639053025,98.26517775369575 180.78704509022646,97.62363148029544 174.80866408054135,92.49094690486527 174.71880335803144,92.09079478120475 174.6236567106389,88.75836150694158 174.59194116151775,86.54350841031919 174.6870878089103,85.10828321456574 175.74427277967334,84.81847282186209 177.0657539931126,84.66666666666788 177.24547543816152,89.01364940940766 177.36176578490995,89.52422106533413 177.64720572705846,90.1313801582146 182.22481665044324,94.02253226477478 184.1541792221251,95.84381223256423 183.44586529169464,96.75442582547112 182.54725806653732,97.33389804301987 181.65922269108705,98.27897435182967 181.75965526333312,98.38934699160018 181.70151008994435,98.52731242787195 182.41510994519922,99.17574456927105 182.39396624575602,99.27921695806435 181.24692055251217,100.65192915509033 180.89804951215046,101.25204705513897 179.93601118875085,102.39707840525807 179.0109743393259,103.30756541187657 178.27623078465695,103.77659731031599 177.47277020686306,103.97662420056076 176.52658965805313,105.08710288097427 176.52658965805313,105.48714469260085 177.57320277910912,106.40446913434425 177.93264566914877,106.58379363138738 178.43480853026267,106.49413146813094 178.98983063991182,105.87338873821864 179.31755798085942,105.41127495469118 179.2488409577345,104.95605396316387 177.96436121826991,103.92144445354643 177.4833420565992,103.99041912721077 176.53187558287755,105.09400018233282 176.51073188349255,105.66647267871667 176.35744006271125,106.21134968247134 175.89227867557202,107.02520487219954 174.78752038112725,108.46665967334775 174.52851006327546,108.66666666666788 171.4415299486427,106.12168681091134 168.02682249309146,102.83163121559483 167.69380922729033,102.40397610020591 167.9686773197027,102.5005437234322 170.57463827263564,98.96190091269455 171.62125139366253,96.87859904325524 171.71111211620155,96.52677407658484 172.3982823472179,96.10596037324649 174.46507896503317,95.40919499736628 175.04653069894994,95.02976397567545 176.14600306854118,93.84315997606245 177.1556147156225,92.40125793118204 178.5299551776552,90.87651926259787 182.25124627473997,94.02943118533221 184.12774959785747,95.78172430147242 185.16907679405995,94.55374619216309 185.48094636041787,94.09842033526365 185.43865896156058,94.00183549705616" stroke="#4dd2ff" stroke-linecap="round" stroke-linejoin="round" stroke-width="0.5"><title>2024-07-06 16.1km</title><desc>1720267100000</desc></polyline><polyline fill="none" points="15.611536796670407,121.25932820839807 17.31487426813692,120.07413990376517 20.040214221924543,134.00001491617877 27.421343265101314,134.4444545834558 30.60090654529631,129.85190195182804 28.670457411091775,114.00002807821147 22.992665839381516,112.07408257806674 17.655541762709618,116.66671580332331 18.904655908234417,131.92596055741888 22.651998345274478,135.18518692918587 27.64845492783934,134.4444545834558 30.714462376665324,128.81487105682027 29.35179239977151,114.5926259572152 22.992665839381516,111.92593277199194 19.01821173960343,115.03707413899247 18.109765088185668,118.59265257255174 19.47243506507948,132.07410743797664 24.241779985371977,134.88889405620284 28.10267825378105,133.85186831699684 30.828018207568675,127.777839100454 30.373794882092625,116.96301400614902 28.10267825378105,112.81483128061518 20.040214221924543,113.11113061010838 17.882653425447643,118.14820595097262 19.131767570972443,132.37040113448165 22.538442513905466,134.740747586824 28.216234085150063,134.29630804958288 30.714462376665324,131.3333728176076 30.260239050723612,117.11116307531483 26.51289661368355,111.92593277199194 23.333333333488554,111.33333333337214 18.677544245962054,114.74077537248377 18.336876750923693,130.1481962982798 19.81310255965218,133.1111349965213 24.582447479479015,135.33333333337214 30.714462376665324,131.48151978489477 30.14668321888894,116.66671580332331 24.468891648110002,111.62963309616316 20.60799338016659,112.96298095607199 17.996209257282317,116.518566669547 19.01821173960343,131.48151978489477 21.51644003111869,134.14816149347462 26.39934078231454,135.03704050334636 30.94157403940335,130.74078473087866 29.692459893412888,114.44447652017698 22.992665839381516,111.77778294484597 17.996209257282317,116.96301400614902 19.131767570972443,131.92596055741888 24.241779985371977,135.03704050334636 28.784013242460787,134.14816149347462 31.0551298703067,127.481544060749" stroke="#4dd2ff" stroke-linecap="round" stroke-linejoin="round" stroke-width="0.5"><title>2024-02-29 2.9km</title><desc>1709196138000</desc></polyline><polyline fill="none" points="43.382534420117736,111.33333333337214 52.12632960360497,116.518566669547 51.78566225897521,130.29634343879297 56.32789352303371,135.18518692895304 62.23279416654259,133.85186831641477 64.50390979880467,130.59263765520882 63.59546354599297,115.62967141100671 58.939676499925554,111.62963309616316 54.2838894543238,112.07408257771749 51.21788335079327,115.03707413887605 52.35344116715714,131.62966673041228 57.46345133939758,135.18518692895304 64.04968667216599,132.37040113448165 63.709019327070564,115.62967141100671 58.939676499925554,111.92593277222477 51.67210647743195,114.29632706055418 52.12632960360497,130.29634343879297 54.51100101741031,134.29630804911721 60.52945744199678,135.33333333337214 64.16324245370924,132.22225429676473 64.39035401726142,121.70377346512396 61.437903695274144,112.6666815832723 52.92122007487342,113.11113060975913 51.21788335079327,117.70375913381577 53.3754432015121,133.55557505367324 61.09723635064438,135.33333333337214 63.82257510907948,133.11113499605563 64.61746558034793,128.81487105682027 62.68701729271561,114.29632706055418 60.075234316289425,112.22223236132413 53.82966632768512,112.6666815832723 51.33143913280219,117.11116307496559 53.034775856882334,132.81484151654877" stroke="#4dd2ff" stroke-linecap="round" stroke-linejoin="round" stroke-width="0.5"><title>2024-02-26 2.1km</title><desc>1708947688000</desc></polyline><polyline fill="none" points="80.66016584308818,120.90395406086463 77.38724967744201,126.05732753989287 79.64443323994055,132.83029257005546 83.70736365253106,135.33333333331393 90.14033680642024,133.86095716734417 91.26892858743668,116.92847649700707 85.6259696809575,111.33333333331393 79.75729241780937,114.13090880203526 79.0801373491995,129.14933896629373 82.46591269318014,134.15543257299578 86.64170228410512,134.5971455196268 91.49464694410563,131.7996269177529 91.38178776577115,116.7812362856348 86.19026557123289,111.48057434143266 79.30585570540279,115.16159254137892 79.19299652706832,130.03276905854 81.33732091169804,134.00819488067646 84.27165954327211,134.89162070979364 91.15606940956786,132.09410292602843 91.26892858743668,116.92847649700707 90.14033680642024,113.98366818152135 85.06167379021645,111.48057434143266 79.19299652706832,116.48675579886185 79.53157406160608,131.50515082274796 84.1588003654033,134.89162070979364 89.12460420327261,133.71371943224221 91.94608365604654,129.29657736897934 91.15606940956786,115.30883298965637 88.67316749040037,112.06953815789893 84.83595543401316,111.33333333331393 79.75729241780937,114.71987106773304 79.0801373491995,129.59105410944903 83.3687861179933,134.89162070979364 88.2217307779938,134.4499078920344 91.49464694410563,131.50515082274796 91.72036530030891,117.81191731221043 90.59177351882681,114.57263053383213 86.4159839283675,112.06953815789893 81.56303926836699,112.95298323623138 79.87015159614384,115.30883298965637 79.30585570540279,131.65238888101885 83.25592693965882,135.0388582725427 90.59177351882681,132.53581677662442 91.15606940956786,117.22295685479185 89.12460420327261,113.39470548508689 85.6259696809575,112.06953815789893 78.96727817133069,115.75055420410354 79.19299652706832,130.91619837575126 81.45018009003252,134.74438312568236 89.3503225594759,133.86095716734417 91.38178776577115,130.62172202236252 91.49464694410563,121.93463086686097" stroke="#4dd2ff" stroke-linecap="round" stroke-linejoin="round" stroke-width="0.5"><title>2024-01-18 3.0km</title><desc>1705581243000</desc></polyline><polyline fill="none" points="112.49443837767467,114.29632706090342 109.31487602787092,115.48152212542482 109.20132022956386,131.48151978489477 111.92665938660502,134.4444545834558 116.46889131516218,135.18518692953512 121.01112324371934,132.2222542973468 121.01112324371934,116.22226833656896 118.96711887558922,112.51853186439257 115.44688913132995,111.33333333337214 110.67754560662434,113.25928024190944 108.63354123849422,116.51856666931417 108.86065283510834,130.1481962982798 114.08421955257654,134.8888940558536 120.78401164710522,131.9259605569532 120.89756744541228,116.07411913725082 116.12822392070666,111.62963309593033 111.81310358876362,112.66668158350512 108.97420863294974,116.22226833656896 109.42843182571232,130.74078473134432 111.81310358876362,134.4444545834558 115.21977753518149,135.33333333337214 121.01112324371934,131.7778136547422 121.35179063864052,116.8148649155628 117.26378190331161,111.77778294496238 112.15377098275349,112.3703821238596 109.54198762401938,115.18522348930128 109.42843182571232,130.74078473134432 114.76555434241891,135.33333333337214 121.46534643648192,132.2222542973468 120.67045584926382,116.07411913725082 116.01466812193394,112.3703821238596 109.42843182571232,115.0370741385268 109.54198762401938,131.48151978489477 115.56044492963701,135.33333333337214 121.01112324371934,132.5185479504289 121.12467904156074,116.37041751400102 116.80955871008337,111.77778294496238 111.69954779045656,112.51853186439257 108.86065283510834,116.51856666931417 109.08776443172246,129.55560751864687 113.74355215812102,134.8888940558536 120.78401164710522,132.66669474437367 121.12467904156074,116.07411913725082 115.78755652578548,111.33333333337214 109.20132022956386,115.62967141123954 109.42843182571232,130.00004913599696 111.24532459722832,133.2592817042023 115.10622173640877,134.59260109625757 119.76200946373865,134.00001491582952 122.03312542801723,130.59263765567448 120.5569000504911,114.7407753727166 117.15022610453889,111.77778294496238 112.38088257936761,111.92593277210835 109.42843182571232,114.7407753727166 109.20132022956386,127.03710133873392" stroke="#4dd2ff" stroke-linecap="round" stroke-linejoin="round" stroke-width="0.5"><title>2024-01-17 3.3km</title><desc>1705483266000</desc></polyline><polyline fill="none" points="140.33077826583758,125.06925068621058 137.6697150026448,127.33339533861727 142.1819527093321,133.22014819085598 147.61977763893083,134.88050831004512 153.05760256713256,132.91826424584724 153.8674913868308,118.42773105448578 150.74363451218233,112.69183879939374 146.00000000046566,111.63522359123453 141.4877622933127,114.50317663920578 141.14066708507016,129.4465925329132 145.4215079867281,134.2767413026886 153.63609458087012,132.46543816302437 153.4046977753751,117.52206597535405 149.12385687418282,111.48427847330458 140.67787347408012,116.01262241113 140.79357187682763,127.63528091658372 144.14882555650547,134.72956659109332 152.7105073593557,133.67297394259367 153.8674913868308,118.12584278313443 150.97503131860867,112.23900384269655 144.61161916749552,112.38994885038119 140.67787347408012,116.16356686712243 141.14066708507016,130.8050741587067 146.57849201373756,135.33333333337214 153.28899937309325,133.52203204715624 153.75179298361763,116.61640010157134 149.58665048517287,111.33333333337214 144.26452395925298,112.08805881335866 141.83485750155523,115.10695521323942 141.25636548781767,130.8050741587067 142.52904791757464,133.52203204715624 148.0825712494552,135.33333333337214 154.33028499782085,131.10695872223005" stroke="#4dd2ff" stroke-linecap="round" stroke-linejoin="round" stroke-width="0.5"><title>2024-01-13 2.0km</title><desc>1705132259000</desc></polyline><polyline fill="none" points="169.5956818186678,118.23339084931649 170.8604108155705,131.28337271884084 172.9299673573114,134.28334507986438 177.29903116589412,135.33333333337214 183.62267615180463,130.53337825729977 183.16277469787747,115.68337500060443 177.41400652891025,111.63333679910284 171.4352876325138,115.08337035018485 171.4352876325138,130.98337499960326 176.26425289502367,134.73334017710295 183.7376515143551,131.1333738701651 183.50770078785717,115.68337500060443 179.7135137966834,111.93334017740563 175.45942535158247,111.78333849913906 170.7454354520887,116.88338324823417 171.09036154253408,129.93338229332585 173.96474562725052,134.88333849876653 176.4942036215216,135.33333333337214 182.12799642747268,133.383354292484 183.62267615180463,130.23338031908497 183.04779933486134,115.2333715459099 177.29903116589412,111.63333679910284 174.1946963542141,111.78333849913906 171.09036154253408,115.5333738711197 171.32031226949766,131.28337271884084 177.06908043893054,135.33333333337214 183.50770078785717,130.68337719351985 182.70287324441597,114.78336789330933 177.18405580194667,111.33333333337214 171.09036154253408,115.38337271928322 172.01016444945708,130.08338131697383 177.06908043893054,134.43334346730262" stroke="#4dd2ff" stroke-linecap="round" stroke-linejoin="round" stroke-width="0.5"><title>2024-01-11 2.0km</title><desc>1704963338000</desc></polyline><polyline fill="none" points="20.740278013516217,143.8724013985484 19.076808563433588,146.6809272331302 19.272510851267725,158.04259862197796 23.284407760947943,161.87234217108926 27.49200695892796,161.36171066894894 29.644732130225748,158.42557373282034 28.95977412117645,144.51070351823 26.12209094176069,141.57450990349753 20.05532000446692,141.95749223983148 16.6305299596861,139.14895120816072 17.609041401185095,138.0 17.413339112885296,141.44684908760246 20.642426869366318,141.95749223983148 18.978957418818027,144.63836388586788 19.370361995417625,156.76601370499702 21.327384878881276,160.97873684577644 25.82853750884533,162.0 29.15547640947625,160.08513060532277 29.840434418525547,146.5532671637484 25.534984076861292,141.57450990349753 22.11019403161481,142.0851529808715 19.174659707583487,145.40432570129633 19.468213139567524,158.04259862197796 23.382258905097842,161.74468432366848 26.904900094494224,161.6170264573302 29.54688098607585,158.42557373282034 29.05762526532635,144.3830431314418 23.7736634821631,141.19152739993297 19.663915428332984,145.14900517085334 19.95746886031702,158.80854867608286 23.9693657704629,161.6170264573302 27.981262680143118,160.72342087037396 30.036136706825346,157.6596233426826 29.35117869777605,144.2553827263182 26.709197805728763,141.19152739993297 24.165068058297038,140.9362056373502 19.663915428332984,144.51070351823 19.761766572017223,157.53196487919195 23.7736634821631,161.2340527464985 27.49200695892796,160.85107886767946 29.840434418525547,157.78728178754682 29.54688098607585,144.63836388586788 28.274816112592816,141.82983147969935 25.339281788095832,140.80854472809006 19.468213139567524,144.12772230233531 19.370361995417625,157.2766478957492 21.816640599165112,160.3404467672808" stroke="#4dd2ff" stroke-linecap="round" stroke-linejoin="round" stroke-width="0.5"><title>2024-01-09 2.6km</title><desc>1704792913000</desc></polyline><polyline fill="none" points="44.74376367684454,146.5063925558934 49.2845588545315,143.31650351092685 50.21600401913747,159.1139533831738 54.174645968712866,161.6962059964426 58.48257985478267,161.54430896171834 62.20836051274091,158.6582610787591 62.790513740852475,154.70891940279398 62.441221804358065,143.16460378828924 59.18116372823715,138.60760177869815 53.5924927406013,138.30380093341228 50.21600401913747,141.0380053386325 50.21600401913747,157.13928528816905 55.22252177866176,162.0 61.85906857671216,160.481029095361 62.6740830950439,144.0760017912835 59.18116372823715,138.60760177869815 53.5924927406013,138.60760177869815 50.56529595563188,141.79750528465956 50.56529595563188,156.37979655980598 53.941784678027034,161.08861772390082 59.99617824750021,161.24051482521463 62.6740830950439,159.1139533831738 62.6740830950439,143.6203028896125 59.99617824750021,139.06330287910532 55.338952424004674,138.0 52.777478221803904,138.30380093341228 50.33243466494605,141.94940520753153 50.448865310288966,158.05067102937028 56.03753629792482,161.54430896171834 63.02337503200397,158.81015853595454 62.790513740852475,144.37980094749946 58.83187179174274,138.30380093341228 53.825354031752795,138.1519004778238 49.98314272798598,142.86080427630804 50.6817266009748,158.81015853595454 56.61968952557072,161.84810300928075 63.02337503200397,158.20256857492495 62.20836051274091,141.3418053833302 58.36614920897409,138.30380093341228 53.825354031752795,138.45570136688184 50.21600401913747,141.49370537279174 50.21600401913747,156.8354898634134 54.75679919635877,161.3924119048752 62.790513740852475,158.6582610787591 63.25623632315546,144.8354995161062 59.99617824750021,138.45570136688184 52.777478221803904,138.9114025348099 50.21600401913747,144.8354995161062 51.26387982908636,160.02533739164937 59.53045566519722,161.08861772390082" stroke="#4dd2ff" stroke-linecap="round" stroke-linejoin="round" stroke-width="0.5"><title>2024-01-08 3.0km</title><desc>1704701613000</desc></polyline><polyline fill="none" points="78.1050215922296,142.43316250981297 78.8080549929291,158.7898408395704 85.0181833668612,161.54140643787105 90.4081061067991,157.26119015563745 89.82224493985996,142.12742776831146 85.604044534266,138.4586038897978 78.92522722575814,141.0573554674629 78.339366058819,156.64972925605252 82.79191093100235,161.69427098077722 87.59597250353545,161.38854187203106 90.64245057338849,157.87265069724526 89.93941717268899,143.04463172599208 85.48687230050564,138.3057359488448 81.03432742878795,138.91720757936127 78.45653829211369,141.66882548783906 78.2221938255243,157.71978559542913 83.4949443321675,161.84713550133165 87.127283569891,161.69427098077722 90.8767950409092,158.1783808345208 90.52527833962813,143.5032334025018 85.0181833668612,138.0 80.6828107284382,138.91720757936127 78.1050215922296,142.2802951503545 78.2221938255243,157.10832496441435 82.4403942306526,161.69427098077722 87.47880027024075,161.54140643787105 90.52527833962813,158.7898408395704 90.8767950409092,145.18477116385475 86.30707793496549,138.15286798565648 80.6828107284382,139.07007543067448 78.339366058819,141.51595801615622 79.15957169327885,160.1656245442573 86.89293910283595,161.69427098077722 91.34548397455364,156.80259451456368 89.35355600528419,140.75162032304797 82.20604976359755,138.15286798565648 77.87067712517455,142.73889716283884 78.57371052540839,158.94270578527357 84.66666666651145,162.0 90.9939672742039,157.56692047137767 89.35355600528419,140.9044879062567 82.79191093100235,138.15286798565648 77.98784935846925,144.72617022471968 78.339366058819,158.02551577694248 81.3858441291377,161.69427098077722 85.604044534266,162.0 88.88486707163975,161.0828126743436 91.462656208314,156.03826799918897" stroke="#4dd2ff" stroke-linecap="round" stroke-linejoin="round" stroke-width="0.5"><title>2023-12-29 2.9km</title><desc>1703839119000</desc></polyline><polyline fill="none" points="110.64754939265549,140.56606437894516 108.91207385901362,144.4906210899353 110.53185102343559,159.73587289557327 117.47375315753743,161.24529151665047 121.06040259357542,156.4151441596914 120.48191074933857,141.16984330618288 118.16794337099418,138.6037804275984 113.42431024555117,138.0 109.25916896574199,142.37740009988192 110.30045428592712,160.03775679680984 117.8208482642658,161.24529151665047 121.2917993310839,157.3207985110348 120.366212379653,140.71700914402027 113.42431024555117,138.0 109.37486733449623,142.22645557811484 109.49056570325047,158.07550986332353 114.92838904215023,162.0 121.63889443827793,157.77362538815942 120.366212379653,140.86795388686005 112.84581840131432,138.0 109.25916896574199,144.33967687713448 109.37486733449623,157.77362538815942 110.87894613016397,160.49058248184156 115.73827762436122,161.69811667269096 121.52319606952369,157.92456763668451 121.17610096279532,141.77362187975086 114.11850045947358,138.45283535390627 108.91207385901362,144.18873264221475 109.72196244169027,158.83022066368721 116.5481662065722,162.0 121.17610096279532,157.3207985110348 121.2917993310839,142.37740009988192 118.16794337099418,139.0566155173583 113.8871037219651,138.90567050944082 109.02777222823352,144.18873264221475 109.83766080997884,159.43398890679237 117.58945152675733,161.69811667269096 121.87029117625207,156.11325919930823 121.17610096279532,141.47173263679724 117.8208482642658,138.7547254798701 113.1929135080427,138.45283535390627 108.79637549025938,144.94345359667204 109.95335917919874,159.58493091224227 117.35805478924885,161.84905834740493 121.75459280703217,156.71702903171536" stroke="#4dd2ff" stroke-linecap="round" stroke-linejoin="round" stroke-width="0.5"><title>2023-12-28 2.9km</title><desc>1703769423000</desc></polyline><polyline fill="none" points="141.798433622811,143.62968067300972 138.73242572601885,142.29633807728533 140.43576344614848,157.11115722474642 144.52377397567034,161.1111212503165 150.5422339211218,159.62965493428055 153.04046257771552,156.37042141286656 152.9269067295827,145.40746806981042 149.17956374492496,138.88889902853407 144.41021812753752,138.59259943896905 140.32220759801567,141.111143186572 140.32220759801567,157.2593043219531 144.06955058360472,160.96297471621074 148.15756111219525,161.40741425403394 152.69979503378272,157.2593043219531 152.1320157935843,143.18523333605845 148.15756111219525,138.74074924446177 141.9119894700125,138.88889902853407 139.8679842064157,141.111143186572 140.0950959022157,155.77783237327822 143.38821549527347,161.1111212503165 148.7253403523937,161.25926776300184 151.45068070525303,158.88892096397467 152.01845994545147,143.925978789106 148.952452049125,138.59259943896905 141.3442102302797,139.33334824990015 139.30020496575162,143.62968067300972 141.57132192654535,159.7778016636148 147.70333772012964,161.5555607228307 152.81335088191554,155.77783237327822 151.11001316132024,140.37039567506872 146.90844678413123,138.0 141.57132192654535,139.18519853090402 139.52731666201726,144.51857476157602 141.9119894700125,160.07409505650867 146.56777923973277,162.0 149.74734298465773,161.1111212503165 152.5862391856499,157.2593043219531 153.26757427398115,150.59266349149402" stroke="#4dd2ff" stroke-linecap="round" stroke-linejoin="round" stroke-width="0.5"><title>2023-11-08 2.1km</title><desc>1699431646000</desc></polyline><polyline fill="none" points="172.03977897809818,140.03638612036593 169.69846231583506,145.27278842777014 170.5903924726881,158.5091268994729 176.94539484148845,161.5636415326735 182.2969757821411,159.38184632279444 183.41188847878948,157.0545928251231 182.2969757821411,141.34548928198637 179.28671150328591,138.4363688058802 174.827060718555,138.14545629016357 170.4789012032561,142.80004632880446 170.70188374212012,157.7818601282197 177.05688611092046,161.5636415326735 183.0774146700278,157.34549980983138 182.7429408612661,142.21822376537602 180.1786416596733,138.72728123608977 176.05346468416974,138.0 170.5903924726881,143.8182349965209 170.70188374212012,157.92731352511328 176.61092103179544,161.70909437630326 182.96592340013012,157.49095327069517 182.7429408612661,142.65459071996156 179.9556591208093,138.87273741950048 176.83390357112512,138.4363688058802 173.37767421267927,139.1636497224681 170.3674099338241,143.52732405497227 170.8133750120178,157.20004632807104 173.15469167381525,160.836376994499 177.94881626730785,161.4181886675069 181.51653689565137,160.10911192465574 183.6348710176535,155.6000566232833 182.7429408612661,141.92731235583778 176.16495595360175,138.0 173.37767421267927,139.1636497224681 170.4789012032561,144.69096731033642 171.03635755134746,157.34549980983138 173.15469167381525,160.836376994499 177.72583372844383,162.0 183.3003972088918,156.90913930052193 182.7429408612661,142.65459071996156 177.61434245854616,138.4363688058802 170.9248662814498,142.50913508975646 170.9248662814498,158.6545801901375 176.4994297628291,162.0 182.96592340013012,158.21822025475558 182.96592340013012,142.9455019166926 180.73609800823033,139.1636497224681 176.05346468416974,138.0 170.8133750120178,142.50913508975646 171.14784882077947,157.20004632807104" stroke="#4dd2ff" stroke-linecap="round" stroke-linejoin="round" stroke-width="0.5"><title>2023-10-27 2.9km</title><desc>1698413800000</desc></polyline><polyline fill="none" points="20.210548426024616,166.0000149164116 16.576762351673096,169.4074524709722 18.393655389081687,186.1481748498045 26.001894982066005,187.77778791706078 29.74923687102273,182.14820438995957 28.954346166923642,167.77780985296704 25.320560093037784,164.66666666662786 20.664771685376763,164.66666666662786 17.82587631465867,166.592613575398 16.917429796420038,171.7778370535234 18.28009957401082,186.0000280776294 25.661227537784725,188.37037383706775 28.38656709296629,187.18520165001974 30.08990431530401,182.29635172581766 28.500122907571495,167.77780985296704 21.346106574404985,165.55556569504552 17.030985611025244,170.14819824881852 17.939432129263878,185.5555876303697 24.639225204009563,188.66666666662786 29.74923687102273,183.9259709888138 28.6136787221767,168.07410870597232 22.140997278038412,165.1111162782181 17.030985611025244,169.4074524709722 18.052987944334745,185.7037344679702 22.140997278038412,188.518520262558 26.11545079667121,188.0740809199633 29.74923687102273,183.33338246925268 29.06790198199451,168.81485545891337 25.547671722713858,165.25926610524766 19.529213536530733,165.85186519788112 16.690318166278303,170.7407944810111 19.074990278109908,187.18520165001974 24.412113573867828,188.37037383706775 28.840790352784097,185.7037344679702 29.74923687102273,174.5926615417702 29.522125240880996,169.85190000280272 26.342562425881624,165.40741591062397 21.573218203615397,165.25926610524766 17.371653055306524,168.07410870597232 17.258097240701318,183.62967677228153 19.529213536530733,187.62964138260577 25.888339166995138,188.37037383706775 28.954346166923642,185.5555876303697 29.40856942627579,170.29634733917192 25.547671722713858,165.40741591062397 18.28009957401082,166.74076318577863 17.14454142609611,182.59264633234125 20.210548426024616,187.92593442928046" stroke="#4dd2ff" stroke-linecap="round" stroke-linejoin="round" stroke-width="0.5"><title>2023-10-21 2.9km</title><desc>1697891041000</desc></polyline><polyline fill="none" points="47.615497841034085,164.66666666668607 48.048345445189625,183.1608370525646 51.61933817761019,188.3843171938206 59.51880695018917,186.40786857239436 59.51880695018917,169.6078919125721 57.35456893034279,166.7843377260724 53.35072859423235,165.93726985988906 48.048345445189625,169.7490694053704 48.8058287515305,186.12551843898837 53.026092890650034,188.52549194043968 57.46278083184734,187.6784431503038 59.62701885122806,184.85494181630202 59.951654554344714,171.72555213305168 55.406754712574184,166.0784478894202 48.37298114830628,168.902004140371 47.94013354415074,183.01966152107343 49.996159662958235,187.3960933884955 55.2985428115353,188.66666666668607 58.76132364338264,186.97256859153276 60.0598664553836,172.85496901796432 59.51880695018917,169.1843593112426 56.38066182192415,166.50198185344925 49.130464454647154,168.4784712292021 48.15655734622851,185.27846754319035 52.48503338545561,188.66666666668607 59.51880695018917,186.26669351611054 59.951654554344714,170.17260175931733 57.67920463345945,167.20787138078595 53.675364296883345,166.50198185344925 48.481193049345165,169.89024687738856 48.264769246801734,183.8667143988423 51.511126277036965,188.3843171938206 56.59708562353626,188.24314242665423 60.168078356422484,184.85494181630202 60.384502158500254,172.99614603549708 59.41059504961595,169.1843593112426 55.94781421730295,166.6431598001509 52.05218578223139,166.7843377260724 47.94013354415074,170.17260175931733 48.58940494991839,184.99611707933946 51.943973880726844,188.3843171938206 56.488873722497374,188.10196763835847 60.0598664553836,184.5725912291091 59.84344265284017,170.3137791690533 55.406754712574184,166.36080388590926 49.130464454647154,168.3372935510124 47.72370974160731,173.98438458138844 49.563312059268355,187.25491847720696 52.70145718799904,188.66666666668607 58.43668794026598,187.25491847720696 59.951654554344714,175.39615217701066" stroke="#4dd2ff" stroke-linecap="round" stroke-linejoin="round" stroke-width="0.5"><title>2023-10-16 3.1km</title><desc>1697460359000</desc></polyline><polyline fill="none" points="77.38725393498316,168.05320440145442 79.19299972895533,184.3967698525521 84.49737799819559,188.66666666668607 91.8332202853635,184.10229354311014 90.93034738861024,168.49492587486748 86.64170112786815,164.66666666668607 81.11160463420674,165.5501123914146 78.85442239232361,167.90596386708785 79.19299972895533,184.10229354311014 84.72309622261673,188.51942914671963 88.67316514626145,187.63600357616087 91.72036117361858,182.77714908326743 90.81748827639967,168.34768540534424 84.72309622261673,164.8139076748048 79.19299972895533,168.05320440145442 79.30585884070024,184.24953170865774 82.91735042864457,188.2249540425837 87.43171491334215,188.07771645847242 91.94607939803973,183.95505535573466 91.49464294919744,170.5562901882222 86.19026467949152,164.8139076748048 80.88588641025126,166.13907577720238 79.08014061674476,168.78940674941987 79.30585884070024,184.24953170865774 81.45018197130412,187.48876590532018 85.85168734379113,188.66666666668607 91.60750206140801,184.24953170865774 90.1403336036019,166.87527952471282" stroke="#4dd2ff" stroke-linecap="round" stroke-linejoin="round" stroke-width="0.5"><title>2023-10-12 1.8km</title><desc>1697101056000</desc></polyline><polyline fill="none" points="108.40571093512699,172.5654620648129 110.26860099239275,186.54010677884798 117.95302247582003,187.90718149230815 122.02809447515756,182.74266758013982 120.39806567551568,167.70467200514395 112.59721356350929,165.12236803374253 108.87143344990909,169.679370710277 109.91930910618976,185.93251744029112 117.13800807669759,188.3628726634197 121.67880258942023,184.2616449255729 121.09664944699034,169.83127045538276 116.43942430522293,165.42616883455776 112.71364419162273,165.42616883455776 109.33715596329421,168.6160718741594 109.10429470660165,183.19836101680994 112.2479216773063,188.21097562881187 120.16520441835746,187.1476957629202 122.26095573185012,182.74266758013982 121.3295107036829,169.0717715085484 117.95302247582003,165.57806920143776 112.71364419162273,165.27426844497677 109.10429470660165,169.2236713420134 109.45358659233898,184.56544012774248 112.13149104872718,187.90718149230815 116.0901324194856,188.3628726634197 121.44594133272767,185.1730302668875 121.91166384704411,182.43887184397317 120.6309269326739,167.5527719494421 114.46010361984372,164.9704676005058 108.98786407802254,169.37557115382515 109.57001722138375,185.1730302668875 114.92582613416016,188.66666666662786 120.28163504693657,186.9957985500805 121.795233218465,184.10974729107693 121.09664944699034,169.52747094340157 114.80939550558105,164.66666666662786 108.87143344990909,169.679370710277 110.3850316205062,186.38820947776549 117.2544387052767,188.05907857138664 120.98021881841123,185.78062005026732 121.91166384704411,181.83128010632936 120.74735756125301,168.00847205054015 116.78871619096026,164.8185671448009 111.43290727771819,165.57806920143776 108.87143344990909,170.43886921252124 110.15217036381364,186.08441480842885 114.11081173410639,188.66666666662786 118.53517561871558,188.3628726634197 121.91166384704411,180.00850276020356" stroke="#4dd2ff" stroke-linecap="round" stroke-linejoin="round" stroke-width="0.5"><title>2023-10-10 2.9km</title><desc>1696942258000</desc></polyline><polyline fill="none" points="145.14917173277354,186.0467751116521 146.83477490366204,185.06168347568018 150.5109951524646,185.52279104334593 151.08891623967793,186.17253100247763 150.2701946994639,187.32528818421997 150.76784896902973,188.66666666667152 153.89825485774782,187.6187158018438 154.73302976146806,186.50787950426457 155.63201811921317,183.82506947952788 155.79255175456638,177.2016668026481 154.0587884930428,174.162344573444 154.46012258139672,173.05140378062788 156.16177911584964,171.5841102652048 156.450739659369,170.72468850224686 156.27415266056778,169.67660619337403 155.2467373944819,168.31408771080896 155.0862037591287,167.03540471415909 149.67622024886077,164.66666666667152 142.2114062064211,165.56804948522768 137.90910477982834,164.87629108484543 135.549260340631,165.5261248289462" stroke="#4dd2ff" stroke-linecap="round" stroke-linejoin="round" stroke-width="0.5"><title>2023-10-07 3.0km</title><desc>1696669067000</desc></polyline><polyline fill="none" points="172.15335300425068,165.8592265918851 169.86813089670613,169.43689799623098 170.55369752878323,182.10771656723227 175.12414174387231,188.36853348626755 179.58032485330477,187.77226686512586 183.46520243631676,184.34372702380642 183.00815801508725,169.43689799623098 177.18084164103493,164.96480677847285 173.18170295236632,165.8592265918851 170.21091421274468,169.88410603930242 171.12500305566937,184.9399956507841 175.23840284952894,188.66666666662786 179.00901932641864,188.36853348626755 183.23668022546917,184.34372702380642 182.77963580330834,169.88410603930242 178.20919158961624,165.41201678314246 171.12500305566937,167.34992453630548 170.78221973963082,184.34372702380642 175.58118616510183,188.66666666662786 179.46606374857947,188.36853348626755 183.00815801508725,184.49279421311803 182.43685248773545,168.84062030119821 177.40936385141686,164.8157367334934 170.09665310755372,168.54248132265639 171.239264161326,184.79092852701433 177.0665805353783,188.07040021952707 183.1224191202782,184.34372702380642 182.5511135929264,168.69155082292855 176.49527500849217,164.66666666662786 170.21091421274468,168.2443422570359 170.66795863443986,184.19465981284156 174.8956195334904,188.07040021952707 180.83719701273367,187.17599989462178 182.89389690896496,183.89652532490436 182.77963580330834,169.58596736588515 178.20919158961624,164.96480677847285 170.55369752878323,168.09527269145474 171.0107419504784,184.9399956507841 176.26675279764459,188.66666666662786 181.75128585565835,186.72879943880253 183.1224191202782,184.04559257999063 182.5511135929264,168.84062030119821 177.2951027462259,164.8157367334934 173.41022516367957,165.26294680358842 170.3251753184013,168.84062030119821 170.78221973963082,184.34372702380642 174.32431400660425,188.21946686378215" stroke="#4dd2ff" stroke-linecap="round" stroke-linejoin="round" stroke-width="0.5"><title>2023-10-06 2.9km</title><desc>1696597953000</desc></polyline><polyline fill="none" points="17.72105788423505,192.98363798844366 17.640219560882542,192.8449715670622 17.325848303393286,192.51490063074107 17.206087824350107,191.78832521003096 17.17315369260905,191.72777547379246 17.203093812371662,191.6750383830422 17.324351297407702,191.657459306507 17.68512974051555,191.65941253837354 17.667165668659436,191.53635837263846 17.379740518961626,191.5734700658577 16.13273453094007,191.57542331001332 14.40968063872424,191.64769314287696 14.212075848299719,191.6750383830422 13.905189620760211,191.78246557013426 12.804890219558729,192.3098228631152 12.358782435127068,192.48365088857736 12.14471057884657,192.64380504420023 12.318363273450814,193.66718381299324 12.432135728537105,195.71956406225218 12.47255489021336,198.1835660490624 12.44710578842205,198.45883440821672 12.465069860285439,199.92878859224766 12.390219560875266,200.09275752143822 12.465069860285439,200.2996678231366 12.481536926148692,202.20855706424118 12.454590818364522,203.0262902201248 12.192614770458022,203.12581995830624 12.056387225551589,203.2838950783862 11.349800399199012,203.27218587432526 11.333333333335759,203.2956042721944 11.40968063872424,203.30731345574713 11.402195608789043,203.35219856435288 11.348303393213428,203.365859219678 11.360279441119928,203.38537441734843 11.740518962084025,203.37366530216696 12.045908183637948,203.39708352228263 12.210578842314135,203.59028227317413 12.42015968063788,203.64102087620358 12.47255489021336,203.68005043981793 12.483033932134276,204.96601084294525 12.378243512976042,205.14357684121842 12.318363273450814,205.43040924246907 12.325848303393286,205.5299210870553 12.469560878242191,205.53577470191613 12.495009980040777,205.68016305729543 12.48453093811986,207.48488598445692 12.397704590825015,207.65656585926536 12.39321357285371,207.80288219514114 12.34530938124226,207.86531001133608 12.253992015968834,207.91603239745928 12.376746506983181,207.85165395143576 12.45908183632855,207.97455798860847 12.462075848306995,208.07210007150388 12.533932135731447,208.2125594213112 12.601297405191872,208.71976146154975 12.72405189620622,210.23345013987546 12.694111776450882,210.63525110275987 12.614770459083957,210.80103924579726 12.397704590825015,211.0760479885248 12.412674650702684,211.2691358560478 12.63273453094007,211.39200850290308 12.76297405189689,211.52463168100894 12.852794411177456,211.71576277263102 12.956087824357382,212.1292206920507 13.120758483033569,212.49976174689164 13.462075848306995,213.01070153242017 14.280938123753003,214.14757007615208 14.578842315364454,214.44980875808778 14.524950099803391,214.4069107800824 14.489021956091165,214.41666033260844 15.04141716567392,214.70134413541655 15.303393213573145,214.77543892675112 15.584830339321343,214.8066366109215 16.97554890219908,214.82223542574866 17.515968063875334,214.79688734243337 17.635728542918514,214.88073081945095 17.782435129745863,215.11470983819072 17.912674650702684,215.1303082940285 17.99650698602636,214.93727612371913 18.135728542918514,214.72474253488326 18.46357285429258,214.4576083756774 21.183632734529965,213.47287071950814 21.27644710579625,213.445570029613 21.297405189623532,213.4943212225062 21.255489021961694,213.43191966378436 21.207584830342967,213.5216218129599 21.23602794411272,213.4982213102603 21.252495009975974,213.51577169112443 21.26596806386806,213.4416699265139 21.31686626746523,213.51577169112443 21.297405189623532,213.44752008073647 21.348303393213428,213.41631922864326 21.881237524954486,213.26031387716193 22.51596806386806,213.23106267131516 24.191117764472438,213.25446364110303 26.343812375256675,213.22911258865406 26.462075848306995,213.25446364110303 27.249500998004805,213.23106267131516 28.01896207585378,213.2583637987609 29.14471057884657,213.22521242247603 29.52345309381053,213.1004065046991 30.113273453091097,212.99510060630382 31.545908183630672,212.876142946654 32.69860279441491,212.89564427479672 32.97554890219908,212.876142946654 33.27495009980339,212.78838661837835 33.59680638723512,212.62262309495418 33.90369261477463,212.36714823242983 33.86177644710551,212.38470009656157 33.80039920160198,212.34374571111402 33.73453093811986,212.40810254625922 33.80638722555159,212.33984528691508 33.894710578839295,212.37689927089377 33.95009980040777,212.34764613417246 34.14770459081774,212.33594486157472 34.36327345309837,212.0921660222839 34.38273453094007,211.85618387588875 34.75698602794728,211.48757533709795 34.99650698603364,211.2086742981719 35.08483033932862,211.01753596342405 35.13273453094007,210.80689055449238 35.20908183632855,204.31816764615996 35.239021956091165,204.12888223286154 35.23752495010558,203.6683415826974 35.3123752495012,203.4692894427617 35.33333333333576,203.22730049709298 35.328842315364454,202.92871132613254 35.26447105788975,202.74135785318413 35.26746506986092,202.26710764002382 35.20758483034297,200.9867432050669 35.23752495010558,198.84732407505726" stroke="#ff0000" stroke-linecap="round" stroke-linejoin="round" stroke-width="0.5"><title>2023-09-14 39.1km</title><desc>1694696482000</desc></polyline><polyline fill="none" points="53.72946993121877,191.33333333331393 47.453172330744565,197.40397794172168 48.21065652417019,209.40397706319345 50.80774518661201,213.92158514336916 56.21834656549618,214.3451098173391 60.546827669255435,210.5333810650045 59.78934347582981,195.70984840299934 56.00192251056433,191.75686791707994 51.45701735187322,192.46275847632205 47.99423246923834,196.27455857931636 48.535292606800795,211.9451342097018 54.05410601384938,215.33333333331393 60.43861564202234,210.81573185918387 59.78934347582981,196.69809099519625 56.97583075938746,193.02747055265354 52.32271357253194,192.46275847632205 47.453172330744565,197.40397794172168 48.4270805795677,210.10985471931053 53.62125790352002,214.76863430504454 57.94973900727928,213.78041021106765 60.00576753169298,211.2392578952131 59.57291942089796,195.70984840299934 56.32655859366059,192.3215804058127 51.348805324174464,192.60393652674975 48.102444496471435,195.56867080699885 48.318868551868945,211.38043319957796 51.67344140727073,214.3451098173391 55.67728642793372,214.76863430504454 60.113979558926076,209.68632818758488 60.113979558926076,194.72160479874583" stroke="#4dd2ff" stroke-linecap="round" stroke-linejoin="round" stroke-width="0.5"><title>2023-09-11 1.8km</title><desc>1694438011000</desc></polyline><polyline fill="none" points="84.88584474893287,204.8703300805355 88.77625570772216,201.79639949960983 94.69406392681412,203.94100426902878 93.92694063927047,207.37235233010142 79.73515981738456,208.23018558183685 77.87214611889794,207.08640757823014 75.35159817361273,208.01572741006385 74.20091324229725,207.01492136425804 74.03652968024835,204.36992409385857 82.58447488606907,205.22776261469699 89.10502283112146,202.86870306055062 94.58447488583624,203.51208406797377 94.42009132425301,207.5153246432892 79.46118721459061,207.6582969146839 76.50228310516104,205.72816772310762 75.57077625603415,207.01492136425804 73.81735159829259,206.51451757297036 73.76255707768723,204.2984374826774 81.87214611866511,204.79884354243404 90.42009132425301,202.72572938830126 95.02283105021343,203.72654421551852 93.7625570774544,207.5153246432892 82.25570776266977,207.3008661576896 76.44748858455569,208.30167161824647 73.48858447512612,206.51451757297036 73.598173516104,204.441410694737 86.31050228327513,204.15546422862099 92.11872146138921,202.79721622957732 94.96803652960807,203.79803091066424 93.98173515987583,207.44383849197766 79.57077625580132,207.6582969146839 76.06392694078386,208.51612966458197 74.20091324229725,207.58681078412337 72.66666666674428,205.01330312545178 73.10502283135429,204.2984374826774 77.54337899549864,204.58438386535272 83.29680365300737,203.44059733106405 87.84474885836244,204.22695086078602 94.36529680341482,203.44059733106405 94.36529680341482,197.86459965186077 96.66666666674428,198.00757474586135 94.03652968024835,197.5786493383057 93.65296803647652,207.37235233010142 82.14611872145906,207.1578937819868 75.2968036532402,209.08801732838037 73.43378995452076,205.51370845356723 73.76255707768723,204.6558704347699 83.07762557081878,203.51208406797377 88.0091324201785,204.2984374826774 91.46118721459061,203.5835707942024 94.63926940620877,204.36992409385857 94.20091324183159,207.80126914402354 79.46118721459061,207.5153246432892 78.74885844765231,208.51612966458197 75.18721461202949,209.08801732838037 74.14611872169189,208.15869953503716 73.76255707768723,204.36992409385857 81.48858447512612,202.3682950248185 84.61187214637175,203.44059733106405 87.84474885836244,203.2261370580527" stroke="#4dd2ff" stroke-linecap="round" stroke-linejoin="round" stroke-width="0.5"><title>2023-08-30 4.9km</title><desc>1693396264000</desc></polyline><polyline fill="none" points="106.64948551543057,193.1221726979129 109.62027555843815,196.25263403286226 111.56271520163864,211.30852804798633 115.56185564398766,214.88613353099208 123.44587537366897,210.41412471525837 123.56013652961701,194.016591203399 116.36168373282999,191.48240340023767 110.42010364634916,194.7619393580826 111.67697635665536,211.90479650057387 115.21907217754051,215.33333333337214 120.01804070919752,215.03520015336107 123.90291999606416,212.35199761088006 123.90291999606416,196.4017033802811 121.61769688595086,192.52589325851295 117.04725066572428,191.48240340023767 110.7628871127963,196.55077270593029 111.90549866855145,212.50106460391544 114.99054986657575,215.18426675419323 123.78865884011611,211.15946088021155 123.6743976850994,196.1035646633245 121.50343573046848,192.67496315122116 116.93298951070756,191.63147344521713 112.59106560144573,192.97310287097935 110.64862595777959,196.1035646633245 111.33419289067388,211.4575951936422 117.16151182120666,215.03520015336107 123.78865884011611,212.05386355903465 123.44587537366897,196.1035646633245 121.73195804143324,193.1221726979129 115.79037795541808,191.63147344521713 110.64862595777959,195.06007846747525 111.33419289067388,210.56319199164864 116.93298951070756,215.18426675419323 121.50343573046848,214.28986682242248 123.90291999606416,211.01039369101636 123.10309190722182,194.91100892378017 118.76116799889132,191.33333333337214 111.44845404615626,194.4638001616113 111.44845404615626,211.01039369101636 114.0764606227167,214.58800021989737 120.13230186421424,214.88613353099208 123.78865884011611,210.86132647946943 123.6743976850994,197.89239565713797 119.90377955324948,191.92961347056553 111.67697635665536,194.16566087771207 111.2199317351915,209.81785539072007 114.76202755561098,214.43893353198655 120.47508533112705,214.88613353099208 123.44587537366897,212.50106460391544 124.01718115154654,200.57563626102637" stroke="#4dd2ff" stroke-linecap="round" stroke-linejoin="round" stroke-width="0.5"><title>2023-08-25 3.1km</title><desc>1692968645000</desc></polyline><polyline fill="none" points="149.87096774182282,199.16693342162762 149.48387096752413,202.61790555954212 157.6774193549063,202.9545846603578 158.0,207.49973324500024 134.0,207.4155641530524 134.38709677406587,203.37543325935258 148.58064516121522,203.37543325935258 155.67741935513914,201.94454676721944 157.6129032257013,202.78624513430987 157.74193548364565,207.07888766174437 149.6129032257013,207.1630568029359" stroke="#4dd2ff" stroke-linecap="round" stroke-linejoin="round" stroke-width="0.5"><title>2023-08-24 1.1km</title><desc>1692883156000</desc></polyline><polyline fill="none" points="176.96706219320185,215.33333333332848 177.03774349350715,214.98753795339144 177.2144467444159,215.12585619640595 176.70200731686782,200.6709434206714 176.277919514745,198.0195795095351 176.96706219320185,197.51235698343953 176.29558983980678,196.88985437963856 176.52530406590085,194.3998193784646 176.11888658895623,191.33333333332848" stroke="#4dd2ff" stroke-linecap="round" stroke-linejoin="round" stroke-width="0.5"><title>2023-08-21 1.2km</title><desc>1692620048000</desc></polyline><polyline fill="none" points="23.836967923794873,233.5774937933893 23.51647318439791,234.26446181035863 23.745397998194676,242.0 23.6194893506472,232.39769010959571 23.33333333337214,230.48608051796327 23.41345701814862,228.30560713204613 22.898376187076792,218.65720020647132 23.184532204351854,218.13442765919172 23.665274313418195,218.0 23.104408519517165,218.0597456481628 22.829698742891196,218.55264591120067 22.852591224305797,221.8385868462501 23.34477957402123,227.90236380085116 23.195978445059154,230.0081725277123 23.50502694369061,231.88992230256554 23.80262920167297,241.9850670930973 23.550811906461604,235.1605001038988" stroke="#4dd2ff" stroke-linecap="round" stroke-linejoin="round" stroke-width="0.5"><title>2023-08-10 4.8km</title><desc>1691669615000</desc></polyline><polyline fill="none" points="55.60427807481028,229.12095943884924 57.72192513383925,226.69308955752058 64.84491978609003,226.69308955752058 65.55080213933252,231.46509989915648 42.705882352776825,232.55344756424893 42.0,228.9535204671556 50.08556149736978,226.10705045738723 55.283422460081056,227.61400693154428 64.97326203226112,227.27912805776577 66.0,230.7953464613529 52.78074866347015,232.38600959675387 43.21925133699551,231.96741446317174 42.06417112285271,231.6325381359784 42.0,230.12559224007418 43.475935828872025,227.69772661919706 50.79144385037944,228.36748368106782 59.83957219263539,226.69308955752058 65.4224598929286,227.19540830887854 65.03743315534666,231.38138076214818 48.54545454564504,232.63716652977746 42.38502673781477,231.88369539985433 42.38502673781477,228.70236191805452 44.18181818211451,227.86516595835565 56.95187165797688,228.5349228240666 58.94117647083476,227.44656751910225 65.61497326218523,227.5302872316097 65.61497326218523,231.46509989915648 51.561497326008976,231.7999763242551 46.94117647060193,233.72551196691347 42.898395722033456,232.2185715798405 42.128342245705426,229.70699545374373 42.96256684488617,228.869800963148 51.36898395745084,228.45120325876633 52.524064171127975,227.36284779472044 57.01604278059676,228.869800963148 65.80748663120903,227.86516595835565 65.61497326218523,231.54881902376655 47.32620320864953,232.4697285866132 42.513368983985856,231.2976616131491 42.44919786090031,228.70236191805452 43.860962566919625,227.69772661919706 57.52941176504828,228.70236191805452 66.0,227.9488856093376 65.48663101601414,231.71625723631587 50.59893048158847,232.2185715798405 48.35294117662124,233.5580743420287 43.41176470601931,232.55344756424893 42.64171122992411,230.46046944858972 43.54010695172474,228.45120325876633 57.272727272706106,229.03723995923065 65.74331550835632,227.78144629462622 65.93582887714729,231.7999763242551 53.486631016246974,231.71625723631587 50.342245989479125,232.2185715798405 49.05882352939807,233.89294954261277" stroke="#4dd2ff" stroke-linecap="round" stroke-linejoin="round" stroke-width="0.5"><title>2023-08-08 4.7km</title><desc>1691498421000</desc></polyline><polyline fill="none" points="86.37727688200539,218.0 86.55479303648463,225.85307192670007 87.50692513748072,226.16887014948588 87.4585116407834,226.6320396233641 81.82640819589142,226.4636145325203 82.47192148462636,227.87416858352663 82.73012680019019,237.41083565799636 83.16584827011684,240.67378863361955 83.63384540460538,242.0" stroke="#4dd2ff" stroke-linecap="round" stroke-linejoin="round" stroke-width="0.5"><title>2023-08-04 1.6km</title><desc>1691107871000</desc></polyline><polyline fill="none" points="114.83071553218178,228.27872284449404 121.61605584644713,226.72135927242925 126.45375218149275,227.54102484986652 127.01919720764272,232.1311299315421 117.53228621301241,231.5573688520817 103.64746945910156,232.78685616049916 103.71029668394476,230.00001438969048 105.53228621301241,227.9508571890765 110.36998254805803,227.2951253024512 115.08202443295158,228.11479004094144 121.80453752167523,225.98365922790254 126.89354275749065,227.78692428936483 127.20767888310365,232.04916409921134 103.64746945910156,232.70489042374538 103.71029668394476,229.7541159215034 105.65794066339731,227.9508571890765 111.56369982543401,226.88529248390114 114.45375218149275,227.86889074509963 126.39092495664954,227.86889074509963 127.33333333325572,232.1311299315421 104.40139616071247,233.11471898725722 103.33333333325572,231.3934370073839 104.4642233857885,229.34428490063874 111.24956369982101,227.3770918303053 126.32809773134068,227.78692428936483 126.83071553218178,231.96719825471519 104.52705061086453,233.11471898725722 103.96160558448173,229.59018354915315 108.73647469445132,228.19675644871313 118.85165794054046,229.01641986856703 127.01919720764272,228.11479004094144 127.08202443295158,231.72130064910743 105.53228621301241,233.03275329846656 103.45898778364062,231.80326652963413 104.1500872601755,229.67214974120725 109.80453752167523,227.9508571890765 126.95636998256668,228.52462196047418 127.01919720764272,231.63933475670638 113.1343804539647,232.29506156092975 109.17626527068205,234.01634077203926 106.22338568931445,233.5245472509996 104.58987783594057,232.70489042374538 104.1500872601755,230.00001438969048 108.79930191976018,227.86889074509963 118.78883071546443,229.426251128898 126.64223385695368,228.27872284449404 127.14485165802762,232.04916409921134 113.4485165795777,231.72130064910743 108.98778359522112,233.11471898725722" stroke="#4dd2ff" stroke-linecap="round" stroke-linejoin="round" stroke-width="0.5"><title>2023-07-26 4.8km</title><desc>1690377436000</desc></polyline><polyline fill="none" points="142.0,228.66407477058237 155.43999999994412,226.66016252106056 157.9360000002198,227.16114124265732 157.42400000034831,231.5864341937122 141.74400000018068,231.75342570926296 135.92000000015832,233.75732008274645 134.25600000005215,232.00391289044637 134.57600000011735,228.74757096159738 140.08000000030734,226.66016252106056 143.98400000017136,227.99610480235424 157.42400000034831,227.2446376538719 157.2960000000894,231.1689551921445 135.47200000006706,233.08935607306194 134.0,231.33594682934927 134.51199999987148,228.9145633072476 139.6960000002291,226.40967299544718 143.4720000002999,226.24267991725355 146.35200000018813,227.99610480235424 151.98400000017136,226.40967299544718 157.55200000014156,227.32813405245543 157.6160000001546,231.66992995754117 134.38400000007823,231.75342570926296 134.38400000007823,228.74757096159738 135.47200000006706,228.24659363203682 149.04000000027008,227.91260850126855 154.0319999998901,226.40967299544718 157.80800000019372,227.32813405245543 157.4879999998957,231.50293841789244 134.38400000007823,231.92041717545362 134.51199999987148,228.66407477058237 137.13600000017323,227.57862317509716 148.5280000003986,227.7456158627174 154.0319999998901,226.24267991725355 158.0,227.32813405245543 157.4879999998957,231.66992995754117 134.76800000015646,232.42139128176495 135.21600000024773,228.4135861241375 146.09600000013597,227.91260850126855 152.6880000003148,226.32617646252038 157.74400000018068,227.41163043887354 157.68000000016764,231.5864341937122 134.38400000007823,231.5864341937122 134.70400000014342,228.4135861241375 142.96000000019558,229.58253220107872 153.20000000018626,226.32617646252038 157.87200000020675,227.2446376538719 157.80800000019372,231.66992995754117 135.4079999998212,232.17090428364463" stroke="#4dd2ff" stroke-linecap="round" stroke-linejoin="round" stroke-width="0.5"><title>2023-07-24 4.9km</title><desc>1690201802000</desc></polyline><polyline fill="none" points="179.41396388754947,218.27482997611514 179.3788546579308,218.0 178.37824161257595,218.57256190595217 178.2378046939848,219.39704737298598 178.62400622019777,224.50418007578992 179.55440080614062,224.93930924360757 179.58951003587572,225.30573286823346 175.46417555073276,225.48894435910915 173.23473946738522,225.23702850389236 173.95447867538314,226.03857754569617 174.1300248237094,227.0920357619034 174.34068020171253,236.8705380145111 175.34129324695095,242.0 174.6917724982486,239.5039881409175 175.46417555073276,238.8170054199436 174.81465480203042,218.75578127372137 179.27352696890011,218.45804969219898 179.81772002863,218.34353739475773 179.90549310279312,218.02290251644445 180.0985938659287,218.4122447832633" stroke="#4dd2ff" stroke-linecap="round" stroke-linejoin="round" stroke-width="0.5"><title>2023-07-24 3.0km</title><desc>1690157385000</desc></polyline><polyline fill="none" points="23.49458377674455,260.92776752630016 23.943781440379098,268.66666666666424 23.621280553692486,258.3279676969105 23.37940488854656,257.1858383027211 23.59824477607617,256.2090070368722 23.425476443837397,255.72810207893053 22.941725113720167,245.73378639453585 23.229672334040515,244.98229478295252 23.77101310819853,244.74181630613748 23.28726177813951,244.69672652905138 22.89565355848754,245.31295176938875 22.89565355848754,248.52928692534624 23.344851222122088,255.65296047585434 23.44851222145371,254.81137076705636 22.8495820031967,245.64360769144696 23.056904001859948,245.04241431421542 23.59824477607617,244.72678638262005 23.195118667616043,244.66666666666424 22.757438892731443,245.44822022978042 22.72288522630697,248.42408129372052 23.16056500119157,255.8934134121082" stroke="#4dd2ff" stroke-linecap="round" stroke-linejoin="round" stroke-width="0.5"><title>2023-07-22 4.9km</title><desc>1690030226000</desc></polyline><polyline fill="none" points="51.13963981065899,254.6179560312885 46.98931326158345,252.1301429673913 48.78404906671494,265.0081672645756 52.26134968874976,267.64228818245465 57.869899079203606,266.4715686305426 60.67417377466336,261.64233600214357 59.6646348843351,249.34963869431522 57.53338611591607,245.69106867047958 53.71957253012806,244.66666666668607 47.886681164614856,247.59352675225819 49.008391042239964,263.9837850352633 51.2518107984215,267.34960842272267 54.5047694449313,268.2276474448154 61.01068673795089,262.95940175745636 60.33766081137583,252.2764850835083 55.96299228677526,244.81300987419672 51.02746882289648,245.2520393684972 47.43799721309915,248.76426838967018 48.33536511519924,263.5447637590114 53.38305956684053,268.08130766113754 60.113318835385144,264.4228061194299 59.88897685939446,249.34963869431522 53.15871759084985,245.54472559079295 47.66233918862417,249.4959812174202 48.55970709165558,265.30084770941176 53.15871759084985,268.66666666668607 60.78634476196021,263.69110420608195 60.225489823147655,252.4228271782631" stroke="#4dd2ff" stroke-linecap="round" stroke-linejoin="round" stroke-width="0.5"><title>2023-07-18 1.7km</title><desc>1689685608000</desc></polyline></svg>