<?xml version="1.0" encoding="utf-8" ?>
<svg baseProfile="full" height="300mm" version="1.1" viewBox="0,0,200,300" width="200mm" xmlns="http://www.w3.org/2000/svg" xmlns:ev="http://www.w3.org/2001/xml-events" xmlns:xlink="http://www.w3.org/1999/xlink"><defs /><rect fill="#222222" height="300" width="200" x="0" y="0" /><text fill="#FFFFFF" style="font-size:12px; font-family:Arial; font-weight:bold;" x="10" y="20">Yunlong's running log</text><text fill="#FFFFFF" style="font-size:4px; font-family:Arial" x="10" y="280">ATHLETE</text><text fill="#FFFFFF" style="font-size:9px; font-family:Arial" x="10" y="290">Yunlong</text><text fill="#FFFFFF" style="font-size:4px; font-family:Arial" x="120" y="280">STATISTICS</text><text fill="#FFFFFF" style="font-size:3px; font-family:Arial" x="120" y="285">Number: 30</text><text fill="#FFFFFF" style="font-size:3px; font-family:Arial" x="120" y="290">Weekly: 1.9</text><text fill="#FFFFFF" style="font-size:3px; font-family:Arial" x="141" y="285">Total: 88.9 km</text><text fill="#FFFFFF" style="font-size:3px; font-family:Arial" x="141" y="290">Avg: 3.0 km</text><text fill="#FFFFFF" style="font-size:3px; font-family:Arial" x="167" y="285">Min: 1.1 km</text><text fill="#FFFFFF" style="font-size:3px; font-family:Arial" x="167" y="290">Max: 4.9 km</text><polyline fill="none" points="14.180240658577532,50.00923447168316 12.743888537050225,48.696858651863295 12.312982900533825,47.33090647244535 12.333502216497436,44.8400262392679 11.800000000046566,43.63474943350593 11.9641545281047,41.41166249230446 13.605699809966609,40.42063912501908 15.862824572483078,37.01897753328376 17.606966434395872,35.599367766219075 17.955794806824997,34.66188357757346 18.77656744758133,34.58152756650816 21.218366054468788,36.24221128982026 21.485117162694223,37.01897753328376 25.630018999334425,40.313501142081805 25.855731475516222,40.983112505913596 27.04585180489812,41.331309446366504 29.446611779509112,43.90258940994681 30.411019632592797,44.22399686409335 36.19746675109491,49.580704626991064 40.36288790369872,52.821436667552916 41.347815072746016,54.0802179297898 44.199999999953434,56.062111298859236 44.11792273586616,56.67810080997879 42.209626345778815,58.52605689884513 40.56808106391691,61.418472433506395" stroke="#4dd2ff" stroke-linecap="round" stroke-linejoin="round" stroke-width="0.5"><title>2024-07-16 2.5km</title><desc>1721136594000</desc></polyline><polyline fill="none" points="53.5755746755749,45.200093081220984 55.87508026137948,43.60008886992 59.55428919941187,62.400020136730745 69.5188134079799,63.00001368764788 73.81122383568436,56.800067634903826 71.20511750504375,35.40003790555056 63.54009888321161,32.8000114801107 56.33498138003051,39.00006633414887 58.02128547616303,59.60004675248638 63.080197766423225,64.00000235426705 69.82541415281594,63.00001368764788 73.96452420763671,55.40007592656184 72.12491973955184,36.20004504197277 63.54009888321161,32.60000924183987 58.174585848115385,36.80005008773878 56.94818286970258,41.600080972653814 58.78778733778745,59.800045041250996 65.22640298027545,63.6000069755828 70.438615642488,62.20002222771291 74.11782458052039,54.00008278549649 73.50462309084833,39.4000689079985 70.438615642488,33.80002222873736 59.55428919941187,34.200026323553175 56.64158212393522,41.00007803353947 58.32788622099906,60.20004153146874 62.92689739353955,63.40000924200285 70.59191601537168,62.800015866872855 73.96452420763671,58.80005330371205 73.35132271889597,39.60007015161682 68.29241042863578,32.60000924183987 64.0,31.800000000046566 57.714684731327,36.400046752765775 57.25478361360729,57.20006500254385 59.24768845550716,61.200032245134935 65.68630409706384,64.19999999995343 73.96452420763671,59.000051709474064 73.1980223460123,39.00006633414887 65.53300372511148,32.20000467961654 60.320791062898934,34.00002429052256 56.7948824968189,38.80006500368472 58.174585848115385,59.000051709474064 61.54719404224306,62.60001801629551 68.13911005668342,63.80000467936043 74.27112495340407,58.00005938659888 72.58482085634023,36.00004330207594 63.54009888321161,32.40000697551295 56.7948824968189,39.4000689079985 58.32788622099906,59.60004675248638 65.22640298027545,63.80000467936043 71.3584178769961,62.60001801629551 74.4244253244251,53.600084481877275" stroke="#4dd2ff" stroke-linecap="round" stroke-linejoin="round" stroke-width="0.5"><title>2024-02-29 2.9km</title><desc>1709196138000</desc></polyline><polyline fill="none" points="85.66642146650702,31.79999999993015 97.47054496314377,38.80006500380114 97.01064404845238,57.40006364241708 103.14265625551343,64.00000235403422 111.11427212320268,62.200022227247246 114.18027822673321,57.80006083461922 112.95387578569353,37.60005640482996 106.66856327373534,32.200004679732956 100.38325076270849,32.800011479645036 96.24414252210408,36.80005008704029 97.77714557480067,59.200050086015835 104.67565930727869,64.00000235403422 113.56707700621337,60.20004153158516 113.10717609059066,37.60005640482996 106.66856327373534,32.60000924242195 96.85734374355525,35.800041531794704 97.47054496314377,57.40006364241708 100.68985137250274,62.80001586629078 108.81476754602045,64.19999999995343 113.7203773111105,60.00004330079537 114.02697792183608,45.80009417794645 110.04116998706013,33.60002013738267 98.54364710021764,34.20002632320393 96.24414252210408,40.400074830628 99.15684832073748,61.80002632224932 109.58126907143742,64.19999999995343 113.26047639548779,61.20003224478569 114.33357853256166,55.40007592679467 111.72747334372252,35.800041531794704 108.20156632550061,33.000013687764294 99.77004954125732,33.60002013738267 96.39744282793254,39.60007015080191 98.69694740604609,60.80003604735248" stroke="#4dd2ff" stroke-linecap="round" stroke-linejoin="round" stroke-width="0.5"><title>2024-02-26 2.1km</title><desc>1708947688000</desc></polyline><polyline fill="none" points="130.59122388903052,44.72033798205666 126.17278706468642,51.67739217868075 129.21998487506062,60.820894969278015 134.70494093187153,64.19999999995343 143.38945468887687,62.21229217562359 144.9130535935983,39.35344327066559 137.2950590699911,31.79999999993015 129.37234476488084,35.5767268827185 128.45818542223424,55.851607604301535 133.02898213639855,62.60983397322707 138.666298083961,63.20614645106252 145.2177733751014,59.429496338707395 145.06541348434985,39.15466898540035 138.05685852188617,31.99877536087297 128.762905202806,36.9681499308208 128.61054531205446,57.04423822881654 131.50538323167711,62.411063088919036 135.4667403837666,63.603687957744114 144.7606937037781,59.827038949821144 144.9130535935983,39.35344327066559 143.38945468887687,35.37795204506256 136.53325961716473,31.99877536087297 128.61054531205446,38.757120328373276 129.06762498337775,59.031953610363416 135.31438049394637,63.603687957744114 142.01821567490697,62.013521233107895 145.8272129362449,56.05037944787182 144.7606937037781,37.16692453599535 141.40877611283213,32.79387651302386 136.22853983659297,31.79999999993015 129.37234476488084,36.37182594137266 128.45818542223424,56.44792304758448 134.24786126054823,63.603687957744114 140.7993365507573,63.007375653716736 145.2177733751014,59.031953610363416 145.52249315567315,40.54608837142587 143.9988942509517,36.17305122036487 138.36157830338925,32.79387651302386 131.8101030131802,33.986527368891984 129.52470465563238,37.16692453599535 128.762905202806,59.23072498908732 134.09550136886537,63.802458667661995 143.9988942509517,60.42335264815483 144.7606937037781,39.75099175388459 142.01821567490697,34.58285240479745 137.2950590699911,32.79387651302386 128.3058255314827,37.76324817549903 128.61054531205446,58.23686780699063 131.65774312242866,63.404917219188064 142.32293545547873,62.21229217562359 145.06541348434985,57.83932472998276 145.2177733751014,46.111751670134254" stroke="#4dd2ff" stroke-linecap="round" stroke-linejoin="round" stroke-width="0.5"><title>2024-01-18 3.0km</title><desc>1705581243000</desc></polyline><polyline fill="none" points="168.167491809465,35.80004153191112 163.87508263718337,37.4000548691256 163.7217823099345,59.000051709474064 167.4009901722893,63.00001368788071 173.533003276214,64.0000023546163 179.66501637920737,60.000043301377445 179.66501637920737,38.40006225416437 176.90561048220843,33.40001801669132 172.15330032724887,31.79999999993015 165.71468656882644,34.40002832643222 162.9552806718275,38.80006500345189 163.26188132725656,57.20006500266027 170.3136963956058,63.60000697511714 179.3584157237783,59.6000467519043 179.51171605102718,38.200060835224576 173.07310229260474,32.200004679267295 167.24768984504044,33.60002013749909 163.41518165450543,38.40006225416437 164.02838296536356,58.000059387180954 167.24768984504044,63.00001368788071 171.84669967275113,64.19999999995343 179.66501637920737,59.40004843380302 180.1249173618853,39.200067635742016 174.60610556975007,32.40000697551295 167.70759082678705,33.20001586689614 164.18168329261243,37.00005171040539 164.02838296536356,58.000059387180954 171.233498361893,64.19999999995343 180.2782176900655,60.000043301377445 179.20511539652944,38.200060835224576 172.91980196535587,33.20001586689614 164.02838296536356,36.80005008680746 164.18168329261243,59.000051709474064 172.30660065542907,64.19999999995343 179.66501637920737,60.400039733038284 179.81831670645624,38.60006364365108 173.99290425889194,32.40000697551295 167.09438951779157,33.40001801669132 163.26188132725656,38.80006500345189 163.56848198268563,56.400070150149986 169.8537954138592,63.60000697511714 179.3584157237783,60.60003790492192 179.81831670645624,38.200060835224576 172.6132013099268,31.79999999993015 163.7217823099345,37.60005640494637 164.02838296536356,57.00006633356679 166.48118820693344,61.40003030060325 171.69339934457093,63.20001147990115 177.9787127757445,62.400020136265084 181.0447193281725,57.80006083508488 179.05181506834924,36.400046752998605 174.45280524156988,32.40000697551295 168.01419148221612,32.600009241956286 164.02838296536356,36.400046752998605 163.7217823099345,53.000086807180196" stroke="#4dd2ff" stroke-linecap="round" stroke-linejoin="round" stroke-width="0.5"><title>2024-01-17 3.3km</title><desc>1705483266000</desc></polyline><polyline fill="none" points="20.346550659276545,91.14348842645995 16.754115253686905,94.20008370711002 22.84563615731895,102.14720005751587 30.186699812300503,104.38868621829897 37.52776346541941,101.73965673195198 38.621113372035325,82.17743692349177 34.40390659123659,74.43398237915244 28.000000000931323,73.00755184784066 21.908479096367955,76.87928846292198 21.439900564961135,97.05289991933387 27.219035781919956,103.57360075891484 38.30872768443078,101.12834152008872 37.99634199682623,80.95478906668723 32.21720677986741,72.80377593904268 20.815129189752042,78.91704025515355 20.971322033554316,94.60762923758011 25.500914501026273,104.18491489777807 37.059184934943914,102.75851482257713 38.621113372035325,81.76988775702193 34.71629227977246,73.82265518780332 26.125685876235366,74.02643094805535 20.815129189752042,79.12081527069677 21.439900564961135,98.8868501142133 28.780964219011366,105.0 37.84014915395528,102.55474326352123 38.46492052823305,79.73214013699908 32.841978155076504,72.59999999997672 25.657107344828546,73.61887939809822 22.377057626843452,77.69438953802455 21.596093407832086,98.8868501142133 23.31421468872577,102.55474326352123 30.811471186578274,105.0 39.245884746313095,99.29439427494071" stroke="#4dd2ff" stroke-linecap="round" stroke-linejoin="round" stroke-width="0.5"><title>2024-01-13 2.0km</title><desc>1705132259000</desc></polyline><polyline fill="none" points="54.45417045522481,81.91507764661219 56.16155460104346,99.532553170342 58.95545593183488,103.5825158576481 64.85369207337499,105.0 73.39061280433089,98.52006064716261 72.76974584162235,78.47255625086837 65.00890881381929,73.00500467873644 56.9376383041963,77.6625499726506 56.9376383041963,99.12755624949932 63.45674140844494,104.1900092390133 73.54582954477519,99.3300547247054 73.23539606388658,78.47255625086837 68.11324362549931,73.41000923945103 62.3702242244035,73.20750697387848 56.00633786059916,80.09256738517433 56.47198808193207,97.71006609592587 60.35240659676492,104.39250697358511 63.767174888402224,105.0 71.3727951766923,102.36752829491161 73.39061280433089,98.11506343074143 72.61452910210937,77.86505158687942 64.85369207337499,73.00500467873644 60.66284007765353,73.20750697387848 56.47198808193207,78.2700547259301 56.782421563751996,99.532553170342 64.54325859155506,105.0 73.23539606388658,98.72255921131 72.14887887984514,77.25754665595014 64.69847533199936,72.59999999997672 56.47198808193207,78.06755317095667 57.71372200641781,97.91256477788556 64.54325859155506,103.78501368081197" stroke="#4dd2ff" stroke-linecap="round" stroke-linejoin="round" stroke-width="0.5"><title>2024-01-11 2.0km</title><desc>1704963338000</desc></polyline><polyline fill="none" points="96.49937531817704,80.52774188783951 94.25369156058878,84.31925176468212 94.51788964914158,99.65750813961495 99.93395047727972,104.8276619311655 105.61420939443633,104.13830940297339 108.52038837596774,100.17452453926671 107.59569506300613,81.38944974960759 103.76482277084142,77.42558836948592 95.5746820056811,77.94261452381033 90.95121544552967,74.15108413097914 92.27220589108765,72.59999999997672 92.00800780253485,77.2532462682575 96.36727627320215,77.94261452381033 94.12159251561388,81.561791245942 94.64998869365081,97.9341185017256 97.29196958616376,103.62129474175163 103.36852563684806,105.0 107.85989315249026,102.4149263171712 108.78458646452054,84.14691067102831 102.97222850332037,77.42558836948592 98.34876194270328,78.11495652410667 94.38579060463235,82.59583969670348 94.78208773816004,99.65750813961495 100.06604952178895,104.65532383695245 104.82161512738094,104.48298571736086 108.38828933099285,100.17452453926671 107.72779410798103,81.21710822742898 100.59444570029154,76.90856198989786 95.04628582810983,82.25115698063746 95.44258296117187,100.69154071272351 100.85864378977567,104.48298571736086 106.27470461791381,103.27661817532498 109.04878455400467,99.14049151260406 108.12409124197438,81.04476668068673 104.55741703743115,76.90856198989786 101.12284187879413,76.56387761037331 95.04628582810983,81.38944974960759 95.1783848721534,98.96815258695278 100.59444570029154,103.96597120759543 105.61420939443633,103.44895647128578 108.78458646452054,99.31283041322604 108.38828933099285,81.561791245942 106.67100175144151,77.77027249755338 102.70803041337058,76.39153538295068 94.78208773816004,80.87242510810029 94.64998869365081,98.62347465928178 97.95246480870992,102.75960313586984" stroke="#4dd2ff" stroke-linecap="round" stroke-linejoin="round" stroke-width="0.5"><title>2024-01-09 2.6km</title><desc>1704792913000</desc></polyline><polyline fill="none" points="123.50408096332103,84.08362995053176 129.6341544529423,79.77727973950095 130.89160542562604,101.10383706737775 136.2357720574364,104.58987809519749 142.05148280318826,104.3848170985002 147.08128669206053,100.48865245643537 147.86719354987144,95.15704119380098 147.39564943499863,79.5722151142545 142.9945710329339,73.42026240099221 135.4498651996255,73.01013126014732 130.89160542562604,76.70130720711313 130.89160542562604,98.43803513911553 137.6504044001922,105.0 146.60974257811904,102.9493892788887 147.71001217793673,80.80260241823271 142.9945710329339,73.42026240099221 135.4498651996255,73.42026240099221 131.36314953956753,77.72663213429041 131.36314953956753,97.41272535582539 135.9214093144983,103.76963392738253 144.0948406336829,103.9746950144181 147.71001217793673,101.10383706737775 147.71001217793673,80.18740890081972 144.0948406336829,74.03545888676308 137.8075857721269,72.59999999997672 134.34959559887648,73.01013126014732 131.04878679662943,77.93169703008607 131.20596816856414,99.66840588976629 138.75067400187254,104.3848170985002 148.18155629280955,100.69371402356774 147.86719354987144,81.21273127919994 142.52302691806108,73.01013126014732 135.7642279425636,72.80506564502139 130.57724268175662,79.16208577307407 131.52033091057092,100.69371402356774 139.53658085875213,104.79493906255811 148.18155629280955,99.87346757610794 147.08128669206053,77.11143726750743 141.89430143125355,73.01013126014732 135.7642279425636,73.21519684488885 130.89160542562604,77.31650225329213 130.89160542562604,98.02791131578851 137.021678914316,104.17975607165135 147.86719354987144,100.48865245643537 148.49591903574765,81.82792434666771 144.0948406336829,73.21519684488885 134.34959559887648,73.83039342192933 130.89160542562604,81.82792434666771 132.30623776838183,102.33420547877904 143.4661151478067,103.76963392738253" stroke="#4dd2ff" stroke-linecap="round" stroke-linejoin="round" stroke-width="0.5"><title>2024-01-08 3.0km</title><desc>1704701613000</desc></polyline><polyline fill="none" points="163.14177914895117,78.58476938842796 164.09087423980236,100.66628513357136 172.47454754449427,104.38089869136456 179.75094324350357,98.60260671027936 178.96003066841513,78.17202748730779 173.26546012051404,73.21911525097676 164.24905675463378,76.72742988122627 163.45814417861402,97.77713449590374 169.46907975617796,104.58726582420059 175.9545628791675,104.17453152791131 180.06730827409774,99.42807844141498 179.11821318231523,79.41025283024646 173.1072776056826,73.01274353102781 167.09634202811867,73.8382302322425 163.61632669344544,77.55291440885048 163.2999616637826,99.22171055397484 170.41817484796047,104.79363292688504 175.32183281891048,104.58726582420059 180.3836733046919,99.84081412677187 179.909125758335,80.02936509333085 172.47454754449427,72.59999999997672 166.62179448269308,73.8382302322425 163.14177914895117,78.37839845300186 163.2999616637826,98.39623870211653 168.99453221075237,104.58726582420059 175.79638036433607,104.38089869136456 179.909125758335,100.66628513357136 180.3836733046919,82.29944107122719 174.21455521136522,72.80637178046163 166.62179448269308,74.04460183146875 163.45814417861402,77.34654332196806 164.56542178522795,102.52359313494526 175.0054677883163,104.58726582420059 181.01640336494893,97.98350259487052 178.3273006072268,76.31468743621372 168.6781671801582,72.80637178046163 162.825414118357,78.9975111699896 163.7745092092082,100.87265281029977 171.99999999906868,105.0 180.54185581952333,99.01534263661597 178.3273006072268,76.52105867350474 169.46907975617796,72.80637178046163 162.98359663318843,81.68032980337739 163.45814417861402,99.63444629916921 167.57088957354426,104.58726582420059 173.26546012051404,105.0 177.69457054603845,103.76179711043369 181.17458588071167,96.9516617989866" stroke="#4dd2ff" stroke-linecap="round" stroke-linejoin="round" stroke-width="0.5"><title>2023-12-29 2.9km</title><desc>1703839119000</desc></polyline><polyline fill="none" points="21.67419168073684,116.86418691161089 19.331299710087478,122.16233847138938 21.51799888163805,142.74342840909958 30.889566763304174,144.78114354796708 35.73154350183904,138.26044461561833 34.95057951193303,117.6792884634342 31.826723551377654,114.21510357700754 25.422818832099438,113.40000000002328 19.799878103658557,119.30949013493955 21.20561328623444,143.15097167575732 31.358145156875253,144.78114354796708 36.04392909724265,139.4830779900076 34.79438671283424,117.06796234438661 25.422818832099438,113.40000000002328 19.956070901826024,119.10571503045503 20.11226369999349,140.50193831557408 27.453325207345188,145.80000000004657 36.512507491745055,140.09439427405596 34.79438671283424,117.27173774736002 24.641854842193425,113.40000000002328 19.799878103658557,121.95856378425378 19.956070901826024,140.09439427405596 21.98657727614045,143.7622863505967 28.546674792654812,145.39245750801638 36.35631469357759,140.29816630971618 35.88773630000651,118.49438953783829 26.359975620172918,114.01132772769779 19.331299710087478,121.75478906708304 20.424649296328425,141.5207978960825 29.64002437889576,145.80000000004657 35.88773630000651,139.4830779900076 36.04392909724265,119.30949013493955 31.826723551377654,114.82643094845116 26.047590024769306,114.62265518784989 19.487492508254945,121.75478906708304 20.58084209356457,142.3358850243967 31.04575956147164,145.39245750801638 36.82489308807999,137.85289991926402 35.88773630000651,118.0868390596006 31.358145156875253,114.41887939767912 25.110433236695826,114.01132772769779 19.17510691192001,122.7736623553792 20.73703489266336,142.5396567315329 30.73337396606803,145.59622876893263 36.66870028991252,138.66798919299617" stroke="#4dd2ff" stroke-linecap="round" stroke-linejoin="round" stroke-width="0.5"><title>2023-12-28 2.9km</title><desc>1703769423000</desc></polyline><polyline fill="none" points="58.32788539119065,121.00006890844088 54.188774730078876,119.20005640434101 56.48828065302223,139.2000622531632 62.007094867527485,144.60001368739177 70.13201579358429,142.60003416088875 73.50462448038161,138.20006890723016 73.35132408514619,123.40008189412765 68.29241105541587,114.60001368855592 61.853794472292066,114.20000924251508 56.33498025778681,117.600043301587 56.33498025778681,139.40006083447952 61.39389328751713,144.40001586673316 66.91270750202239,145.00000924244523 73.04472329560667,139.40006083447952 72.27822132129222,120.40006500331219 66.91270750202239,114.400011479971 58.481185785494745,114.60001368855592 55.72177867870778,117.600043301587 56.028379468247294,137.40007370372768 60.47409091889858,144.60001368739177 67.67920947540551,144.80001147952862 71.35841895267367,141.60004330112133 72.1249209260568,121.4000713651767 67.98581026587635,114.20000924251508 57.714683811180294,115.20002013735939 54.95527670439333,121.00006890844088 58.02128460071981,142.8000322455773 66.29950592294335,145.2000069754431 73.19802369084209,137.40007370372768 70.89851776789874,116.60003416135442 65.22640315908939,113.4000000001397 58.02128460071981,115.00001801678445 55.26187749393284,122.20007592800539 58.481185785494745,143.20002832601313 64.76650197431445,145.80000000004657 69.05891302973032,144.60001368739177 72.89142290130258,139.40006083447952 73.81122526992112,130.40009571344126" stroke="#4dd2ff" stroke-linecap="round" stroke-linejoin="round" stroke-width="0.5"><title>2023-11-08 2.1km</title><desc>1699431646000</desc></polyline><polyline fill="none" points="93.75370162073523,116.1491212627152 90.5929241264239,123.21826437767595 91.79702983796597,141.08732131426223 100.3762830356136,145.2109160691034 107.60091730579734,142.26549253577832 109.10604944638908,139.12370031396858 107.60091730579734,117.91641053091735 103.5370605289936,113.98909788823221 97.51653196942061,113.59636599186342 91.64651662390679,119.88006254390348 91.94754305202514,140.10551117314026 100.52679624967277,145.2109160691034 108.65450980421156,139.5164247433422 108.20297016203403,119.09460208343808 104.74116624053568,114.38182966900058 99.1721773231402,113.40000000002328 91.79702983796597,121.2546172455186 91.94754305202514,140.30187325901352 99.92474339250475,145.40727740793955 108.50399659015238,139.71278691547923 108.20297016203403,119.6836974718608 104.44013981334865,114.57819551660214 100.2257698206231,113.98909788823221 95.55986018758267,114.9709271255415 91.49600341077894,120.86188747442793 92.09805626608431,139.32006254291628 95.25883375946432,144.2291089425562 101.73090196121484,145.0145547008142 106.54732480831444,143.24730109830853 109.4070758735761,137.16007644147612 108.20297016203403,118.70187168067787 99.32269053719938,113.40000000002328 95.55986018758267,114.9709271255415 91.64651662390679,122.432805868797 92.39908269420266,139.5164247433422 95.25883375946432,144.2291089425562 101.42987553309649,145.80000000004657 108.95553623139858,138.92733805556782 108.20297016203403,119.6836974718608 101.27936231903732,113.98909788823221 92.24856948014349,119.48733237141278 92.24856948014349,141.2836832567118 99.7742301793769,145.80000000004657 108.50399659015238,140.6945973437978 108.50399659015238,120.07642758754082 105.49373231083155,114.9709271255415 99.1721773231402,113.40000000002328 92.09805626608431,119.48733237141278 92.54959590826184,139.32006254291628" stroke="#4dd2ff" stroke-linecap="round" stroke-linejoin="round" stroke-width="0.5"><title>2023-10-27 2.9km</title><desc>1698413800000</desc></polyline><polyline fill="none" points="131.7842403743416,115.20002013712656 126.87862917408347,119.80006083566695 129.33143477421254,142.40003604721278 139.60255822446197,144.60001368797384 144.66146977432072,137.00007592642214 143.58836732432246,117.600043301587 138.68275612406433,113.40000000002328 132.3974417746067,113.40000000002328 128.5649330234155,116.0000283268746 127.33853022381663,123.00008002191316 129.1781344236806,142.2000379045494 139.1426571747288,145.4000046798028 142.82186557445675,143.8000222274568 145.1213708249852,137.20007482985966 142.97516592405736,117.600043301587 133.31724387407303,114.60001368809026 127.49183057341725,120.8000676354859 128.71823337394744,141.60004330100492 137.762954024598,145.80000000004657 144.66146977432072,139.40006083494518 143.12846627365798,118.00004675274249 134.3903463240713,114.00000697537325 127.49183057341725,119.80006083566695 128.87153372447938,141.8000415316783 134.3903463240713,145.60000235424377 139.7558585740626,145.00000924174674 144.66146977432072,138.6000663334271 143.7416676748544,119.00005486956798 138.98935682419688,114.20000924204942 130.86443827394396,115.0000180171337 127.03192952368408,121.60007254930679 130.25123687461019,143.8000222274568 137.45635332353413,145.4000046798028 143.43506697472185,141.8000415316783 144.66146977432072,126.8000930811977 144.35486907418817,120.40006500377785 140.06245927419513,114.40001147903968 133.62384457420558,114.20000924204942 127.95173162408173,118.00004675274249 127.79843127448112,139.00006364262663 130.86443827394396,144.40001586673316 139.44925787486136,145.4000046798028 143.58836732432246,141.60004330100492 144.20156872458756,121.00006890774239 138.98935682419688,114.40001147903968 129.1781344236806,116.20003030076623 127.64513092394918,137.6000725487247 131.7842403743416,144.80001147952862" stroke="#4dd2ff" stroke-linecap="round" stroke-linejoin="round" stroke-width="0.5"><title>2023-10-21 2.9km</title><desc>1697891041000</desc></polyline><polyline fill="none" points="163.38092208560556,113.40000000002328 163.96526635158807,138.367130021099 168.78610653989017,145.41882821184117 179.45038938336074,142.75062257284299 179.45038938336074,120.0706540819956 176.52866805624217,116.25885593018029 171.12348360195756,115.11531431088224 163.96526635158807,120.26124369725585 164.98786881472915,142.3694498927798 170.68522540200502,145.60941411962267 176.67475412320346,144.46589825302362 179.5964754493907,140.65417145215906 180.03473364841193,122.92949537944514 173.89911886211485,115.30590465071145 164.4035245506093,119.11770558950957 163.81918028462678,138.17654305358883 166.59481554478407,144.08472607459407 173.75303279515356,145.80000000004657 178.42778691835701,143.51296759862453 180.18081971537322,124.45420817413833 179.45038938336074,119.4988850702066 175.2138934591785,115.87767550221179 165.42612701375037,118.54593615944032 164.11135241761804,141.2259311833186 169.95479507092386,145.80000000004657 179.45038938336074,142.56003624689765 180.03473364841193,120.83301237516571 176.9669262552634,116.83062636409886 171.56174180097878,115.87767550221179 164.54961061663926,120.45183328469284 164.257438483648,139.32006443850696 168.6400204738602,145.41882821184117 175.50606559216976,145.22824227612 180.32690578140318,140.65417145215906 180.61907791439444,124.64479714771733 179.30430331733078,119.4988850702066 174.62954919412732,116.06826573004946 169.37045080587268,116.25885593018029 163.81918028462678,120.83301237516571 164.69569668266922,140.84475805726834 169.2243647389114,145.41882821184117 175.35997952520847,145.03765631222632 180.18081971537322,140.27299815940205 179.88864758145064,121.023601878318 173.89911886211485,115.68708524596877 165.42612701375037,118.35534629388712 163.52700815163553,125.97891918488313 166.01047127973288,143.8941399443429 170.24696720391512,145.80000000004657 177.9895287193358,143.8941399443429 180.03473364841193,127.88480543904006" stroke="#4dd2ff" stroke-linecap="round" stroke-linejoin="round" stroke-width="0.5"><title>2023-10-16 3.1km</title><desc>1697460359000</desc></polyline><polyline fill="none" points="18.172792812809348,158.7718259418616 20.610549634322524,180.835639300989 27.7714602984488,186.59999999997672 37.67484738584608,180.43809628323652 36.45596897508949,159.36814993072767 30.666296523995697,154.19999999995343 23.200666257180274,155.39265172823798 20.153470230288804,158.57305122050457 20.610549634322524,180.43809628323652 28.076179901137948,186.40122934803367 33.40877294819802,185.20860482775606 37.52248758543283,178.64915126247797 36.30360917374492,159.16937529714778 28.076179901137948,154.39877536089625 20.610549634322524,158.7718259418616 20.762909435667098,180.63686780678108 25.638423079624772,186.00368795753457 31.732815133407712,185.80491721897852 37.827207188121974,180.23932473023888 37.21776798181236,162.15099175379146 30.056857318617404,154.39877536089625 22.895946654491127,156.18775229912717 20.45818983297795,159.7656991116237 20.762909435667098,180.63686780678108 23.657745662145317,185.00983397231903 29.599777914583683,186.59999999997672 37.370127784088254,180.63686780678108 35.389450365677476,157.18162735830992" stroke="#4dd2ff" stroke-linecap="round" stroke-linejoin="round" stroke-width="0.5"><title>2023-10-12 1.8km</title><desc>1697101056000</desc></polyline><polyline fill="none" points="54.64770976174623,164.86337378749158 57.162611339241266,183.7291441516718 67.53658034093678,185.57469501474407 73.03792754001915,178.60260123328771 70.83738866075873,158.30130720697343 60.30623830948025,154.81519684556406 55.27643515635282,160.96715045894962 56.691067292355,182.9088985444978 66.43631090223789,186.1898780958727 72.56638349499553,180.65322064969223 71.78047675266862,161.1722151148133 65.49322281125933,155.22532792657148 60.463419657200575,155.22532792657148 55.90516054909676,159.5316970300628 55.59079785272479,179.21778737276327 59.83469426352531,185.984817099059 70.52302596345544,184.54938928002957 73.35229023732245,178.60260123328771 72.09483944904059,160.14689153654035 67.53658034093678,155.43039342190605 60.463419657200575,155.02026240050327 55.59079785272479,160.35195631172974 56.06234189867973,181.0633441726677 59.67751291487366,185.57469501474407 65.02167876530439,186.1898780958727 72.25202079769224,181.88359086040873 72.88074619229883,178.19247698935214 71.15175135806203,158.09624213178176 62.821139886043966,154.61013126047328 55.43361650407314,160.55702105769888 56.21952324733138,181.88359086040873 63.44986527971923,186.59999999997672 70.68020731210709,184.34432804270182 72.72356484364718,180.44815884309355 71.78047675266862,160.76208577351645 63.292683931067586,154.20000000006985 55.27643515635282,160.96715045894962 57.31979268696159,183.52408279490191 66.59349225088954,185.7797560718609 71.62329540308565,182.70383706793655 72.88074619229883,177.3722281436203 71.30893270671368,158.7114372678334 65.96476685628295,154.40506564546376 58.7344248238951,155.43039342190605 55.27643515635282,161.99247343675233 57.005429989658296,183.11395999160595 62.34959584008902,186.59999999997672 68.32248708419502,186.1898780958727 72.88074619229883,174.91147872630972" stroke="#4dd2ff" stroke-linecap="round" stroke-linejoin="round" stroke-width="0.5"><title>2023-10-10 2.9km</title><desc>1696942258000</desc></polyline><polyline fill="none" points="98.85138183936942,183.0631464007165 101.12694612005726,181.73327269215952 106.0898434559349,182.35576790852065 106.8700369236758,183.23291685334698 105.7647628444247,184.78913904869114 106.43659610825125,186.60000000000582 110.6626440580003,185.18526633248257 111.78959017805755,183.6856373307528 113.00322446099017,180.06384379736846 113.21994486881886,171.12225018357276 110.87936446571257,167.01916517410427 111.42116548493505,165.51939510385273 113.71840180642903,163.53854885800683 114.10849854024127,162.37832947801508 113.87010609183926,160.96341836104693 112.48309548269026,159.12401840958046 112.26637507486157,157.39779636410822 104.96289733599406,154.1999999999971 94.88539837882854,155.41686680505518 89.07729145290796,154.48299296454934 85.89150145987514,155.36026851907081" stroke="#4dd2ff" stroke-linecap="round" stroke-linejoin="round" stroke-width="0.5"><title>2023-10-07 3.0km</title><desc>1696669067000</desc></polyline><polyline fill="none" points="129.90702655538917,155.809955899138 126.82197671104223,160.63981229497585 127.74749166425318,177.74541736592073 133.9175913548097,186.19752020656597 139.93343855254352,185.3925602681702 145.1780232898891,180.76403148239478 144.56101332046092,160.63981229497585 136.69413621537387,154.60248915106058 131.2952989861369,155.809955899138 127.2847341876477,161.24354315316305 128.51875412557274,181.56899412861094 134.0718438476324,186.59999999997672 139.16217609122396,186.19752020656597 144.86951830424368,180.76403148239478 144.2525083348155,161.24354315316305 138.08240864612162,155.20622265723068 128.51875412557274,157.82239812414628 128.05599664896727,180.76403148239478 134.53460132330656,186.59999999997672 139.77918606065214,186.19752020656597 144.56101332046092,180.9652721878374 143.78975085914135,159.83483740664087 137.00264120008796,154.40124459040817 127.13048169575632,159.43234978569672 128.67300661839545,181.36775351164397 136.53988372255117,185.79504029662348 144.7152658123523,180.76403148239478 143.94400335103273,159.63359361118637 135.76862126216292,154.20000000006985 127.2847341876477,159.02986204670742 127.90174415707588,180.5627907476155 133.6090863700956,185.79504029662348 141.63021596707404,184.58759985794313 144.4067608276382,180.16030918888282 144.2525083348155,160.8410559440963 138.08240864612162,154.60248915106058 127.74749166425318,158.82861813367344 128.36450163368136,181.56899412861094 135.46011627744883,186.59999999997672 142.86423590499908,183.98387924255803 144.7152658123523,180.36154998315033 143.94400335103273,159.83483740664087 136.84838870726526,154.40124459040817 131.603803970851,155.00497818470467 127.4389866804704,159.83483740664087 128.05599664896727,180.76403148239478 132.83782390970737,185.99628026632126" stroke="#4dd2ff" stroke-linecap="round" stroke-linejoin="round" stroke-width="0.5"><title>2023-10-06 2.9km</title><desc>1696597953000</desc></polyline><polyline fill="none" points="171.63478440791368,154.20000000006985 163.16178264655173,162.39537022146396 164.18438630737364,178.5953690353781 167.69045600201935,184.69413994357456 174.99476786423475,185.26589825341944 180.83821735344827,180.12006443785504 179.81561369262636,160.10829534416553 174.7025953894481,154.77177168813068 168.56697342544794,155.72472394281067 163.89221383351833,160.87065408215858 164.6226450195536,182.02593118313234 172.07304311916232,186.59999999997672 180.69213111698627,180.501238009776 179.81561369262636,161.44242284353822 176.01737152505666,156.48708524613176 169.73566332366318,155.72472394281067 163.16178264655173,162.39537022146396 164.47655878216028,179.54830387118272 171.48869816958904,185.83765631192364 177.3321476597339,184.50355378503446 180.107786167413,181.0729981586337 179.52344121877104,160.10829534416553 175.14085410162807,155.534133547917 168.42088718805462,155.91531431104522 164.03830007091165,159.91770558955614 164.33047254569829,181.26358481950592 168.85914590023458,185.26589825341944 174.26433667819947,185.83765631192364 180.25387240480632,178.97654305340257 180.25387240480632,158.77416647830978" stroke="#4dd2ff" stroke-linecap="round" stroke-linejoin="round" stroke-width="0.5"><title>2023-09-11 1.8km</title><desc>1694438011000</desc></polyline><polyline fill="none" points="28.29589041089639,213.27494560874766 33.54794520512223,209.12513932446018 41.536986300721765,212.02035576314665 40.50136986281723,216.65267564565875 21.342465753201395,217.81075053545646 18.827397260349244,216.26665023062378 15.42465753434226,217.52123200357892 13.871232876554132,216.17014384176582 13.649315068032593,212.5993975267047 25.189041095785797,213.75747952976963 33.99178082169965,210.5727491316502 41.3890410955064,211.44131349172676 41.16712328745052,216.84568826842587 20.97260273946449,217.03870083478978 16.978082191664726,214.43302642618073 15.72054794523865,216.17014384176582 13.353424657136202,215.49459872354055 13.27945205476135,212.50289060157957 24.22739725979045,213.1784387822845 35.767123287543654,210.3797346741194 41.98082191729918,211.73083469097037 40.27945205429569,216.84568826842587 24.74520547920838,216.5561693130294 16.904109588824213,217.90725668467348 12.909589041024446,215.49459872354055 13.057534246239811,212.69590443786 30.21917808195576,212.30987670854665 38.06027397233993,210.4762419097824 41.90684931492433,211.82734172936762 40.57534246565774,216.74918196420185 21.120547945145518,217.03870083478978 16.386301369871944,218.19677504722495 13.871232876554132,216.94219455856364 11.799999999813735,213.467959219357 12.391780822072178,212.50289060157957 18.383561643771827,212.8889182182029 26.15068493131548,211.3448063969263 32.29041095869616,212.40638366207713 41.09315068461001,211.3448063969263 41.09315068461001,203.8172095300397 44.1999999997206,204.0102259068517 40.64931506803259,203.43117660662392 40.131506849080324,216.65267564565875 24.597260273993015,216.36315660568653 15.350684931501746,218.96882339334115 12.835616438649595,214.14350641233614 13.27945205476135,212.9854250869248 25.85479452041909,211.44131349172676 32.512328766752034,212.50289060157957 37.172602739650756,211.53782057214994 41.46301369834691,212.5993975267047 40.87123287608847,217.23171334440121 20.97260273946449,216.84568826842587 20.010958903934807,218.19677504722495 15.20273972582072,218.96882339334115 13.79726027417928,217.7142443723278 13.27945205476135,212.5993975267047 23.709589041303843,209.897198283521 27.926027397159487,211.3448063969263 32.29041095869616,211.0552850283566" stroke="#4dd2ff" stroke-linecap="round" stroke-linejoin="round" stroke-width="0.5"><title>2023-08-30 4.9km</title><desc>1693396264000</desc></polyline><polyline fill="none" points="52.27680544555187,197.41493314225227 56.28737200424075,201.6410559443757 58.9096655221656,221.96651286480483 64.30850511882454,226.79628026671708 74.95193175412714,220.75906836567447 75.1061843149364,198.6223981245421 65.38827303890139,195.2012445901055 57.36713992245495,199.62861813348718 59.06391808204353,222.77147527586203 63.84574744012207,227.40000000002328 70.32435495685786,226.99752020696178 75.5689419945702,223.3751967746066 75.5689419945702,201.84229956334457 72.48389079608023,196.60995589906815 66.3137883991003,195.2012445901055 57.82989760302007,202.04354315274395 59.372423202730715,223.57643721520435 63.537242320366204,227.19876011821907 75.41468943469226,221.7652721881168 75.26043687481433,201.43981229548808 72.3296382362023,196.8112002541311 66.15953583922237,195.40248915099073 60.29793856199831,197.2136888758978 57.67564504314214,201.43981229548808 58.60116040240973,222.1677535114577 66.46804095897824,226.99752020696178 75.41468943469226,222.9727158047026 74.95193175412714,201.43981229548808 72.63814335595816,197.41493314225227 64.61701023951173,195.40248915099073 57.67564504314214,200.03110593103338 58.60116040240973,220.96030918869656 66.15953583922237,227.19876011821907 72.3296382362023,225.99132021015976 75.5689419945702,221.564031482907 74.48917407449335,199.82986204733606 68.62757679820061,195.0 58.755412962287664,199.22613021801226 58.755412962287664,221.564031482907 62.303221840411425,226.39380029670428 70.47860751673579,226.79628026671708 75.41468943469226,221.36279074731283 75.26043687481433,203.85473413718864 70.17010239697993,195.80497818510048 59.06391808204353,198.82364218495786 58.4469078425318,219.95410477754194 63.22873720061034,226.19256026821677 70.94136519730091,226.79628026671708 74.95193175412714,223.57643721520435 75.72319455444813,207.47710895247292" stroke="#4dd2ff" stroke-linecap="round" stroke-linejoin="round" stroke-width="0.5"><title>2023-08-25 3.1km</title><desc>1692968645000</desc></polyline><polyline fill="none" points="105.2258064514026,205.5753601192846 104.70322580588982,210.23417250544298 115.76451612915844,210.688689291419 116.1999999997206,216.8246398807969 83.79999999981374,216.71101160667604 84.32258064486086,211.25683490018127 103.4838709672913,211.25683490018127 113.06451612897217,209.32513813581318 115.67741935467348,210.46143093134742 115.85161290271208,216.25649834336946 104.87741935439408,216.37012668384705" stroke="#4dd2ff" stroke-linecap="round" stroke-linejoin="round" stroke-width="0.5"><title>2023-08-24 1.1km</title><desc>1692883156000</desc></polyline><polyline fill="none" points="136.40553396078758,227.39999999999418 136.50095371622592,226.93317623708572 136.7395031049382,227.11990586515458 136.04770987771917,207.60577361792093 135.47519134485628,204.02643233786512 136.40553396078758,203.34168192768993 135.49904628365766,202.50130341252952 135.80916048889048,199.13975616093376 135.2604968950618,194.99999999998545" stroke="#4dd2ff" stroke-linecap="round" stroke-linejoin="round" stroke-width="0.5"><title>2023-08-21 1.2km</title><desc>1692620048000</desc></polyline><polyline fill="none" points="172.6799066970707,216.0296166210901 172.24723879888188,216.95702344398887 172.55628729757154,227.39999999999418 172.38631062331842,214.43688164796913 172.0,211.85620869924605 172.10816697450355,208.91256962827174 171.41280785249546,195.88722027873155 171.79911847581388,195.18147733989463 172.4481203231262,195.0 171.69095150136854,195.08065662499575 171.3200933029293,195.74607198011654 171.3509981528041,200.18209224243765 172.0154524249374,208.3681911311578 171.81457090080949,211.2110329124116 172.2317863739445,213.7513951084693 172.6335494222003,227.37984057571157 172.29359607369406,218.16667514028086" stroke="#4dd2ff" stroke-linecap="round" stroke-linejoin="round" stroke-width="0.5"><title>2023-08-10 4.8km</title><desc>1691669615000</desc></polyline><polyline fill="none" points="30.165775401052088,250.81329524249304 33.02459893049672,247.53567090269644 42.64064171118662,247.53567090269644 43.59358288766816,253.97788486391073 12.75294117629528,255.4471542117535 11.799999999813735,250.58725263067754 22.71550802141428,246.7445181174553 29.732620320748538,248.77890935761388 42.81390374340117,248.32682287803618 44.1999999997206,253.07371772290207 26.354010695125908,255.22111295565264 13.445989304687828,254.65600952529348 11.886631015688181,254.20392648375127 11.799999999813735,252.1695495241438 13.79251336865127,248.8919309359626 23.668449197895825,249.79610296944156 35.88342245994136,247.53567090269644 43.42032085545361,248.2138012170326 42.90053475974128,253.86486402893206 20.636363636236638,255.56017481524032 12.31978609552607,254.5429887897917 12.31978609552607,250.24818858935032 14.745454545598477,249.11797404376557 31.985026738140732,250.0221458124579 34.670588235370815,248.55286615085788 43.68021390400827,248.665887762676 43.68021390400827,253.97788486391073 24.708021390251815,254.42996803775895 18.47058823518455,257.02944115537684 13.01283422484994,254.99507163278759 11.973262031562626,251.6044438626268 13.099465240258723,250.47423130029347 24.448128342162818,249.90912439936073 26.007486630696803,248.43984452285804 32.071657753549516,250.47423130029347 43.94010695209727,249.11797404376557 43.68021390400827,254.0909056820674 18.990374331362545,255.33413359196857 12.493048128206283,253.75184317777166 12.406417111866176,250.24818858935032 14.312299465294927,248.8919309359626 32.764705882407725,250.24818858935032 44.1999999997206,249.23099557252135 43.506951871328056,254.3169472690206 23.408556149806827,254.99507163278759 20.37647058814764,256.80340036179405 13.705882352776825,255.4471542117535 12.666310160420835,252.62163375562523 13.879144384525716,249.90912439936073 32.41818181797862,250.7002739449963 43.85347593622282,249.00495249778032 44.11336898384616,254.42996803775895 27.306951871607453,254.3169472690206 23.062032085377723,254.99507163278759 21.329411764629185,257.2554818825447" stroke="#4dd2ff" stroke-linecap="round" stroke-linejoin="round" stroke-width="0.5"><title>2023-08-08 4.7km</title><desc>1691498421000</desc></polyline><polyline fill="none" points="63.32146596815437,249.67627584002912 72.48167539248243,247.57383501779987 79.01256544468924,248.68038354732562 79.77591623039916,254.87702540773898 66.96858638711274,254.1024479502812 48.22408376960084,255.76225581666222 48.30890052346513,252.00001942605013 50.76858638739213,249.23365720524453 57.29947643959895,248.34841915825382 63.66073298454285,249.4549665552331 72.7361256540753,246.57793995767133 79.60628272267058,249.01234779064544 80.03036649199203,254.76637153385673 48.22408376960084,255.65160207200097 48.30890052346513,251.66805649391608 50.93821989512071,249.23365720524453 58.91099476395175,247.79514485312393 62.81256544450298,249.12300250586122 78.92774869129062,249.12300250586122 80.1999999997206,254.87702540773898 49.24188481690362,256.2048706327914 47.799999999813735,253.88113995996537 49.32670157076791,251.11478461587103 58.48691099463031,248.45907397090923 78.84293193696067,249.01234779064544 79.52146596834064,254.65571764385095 49.411518324166536,256.2048706327914 48.64816753892228,251.4467477913131 55.094240837264806,249.56562120572198 68.74973821965978,250.67216682253638 79.77591623039916,249.4549665552331 79.86073298426345,254.32375587621937 50.76858638739213,256.0942169529153 47.96963350754231,254.43440981500316 48.902617800980806,251.55740215064725 56.53612565435469,249.23365720524453 79.69109947653487,250.00823964655865 79.77591623039916,254.21310192154488 61.03141361288726,255.09833310724935 55.68795811524615,257.42206004227046 51.701570680364966,256.758138788864 49.496335078030825,255.65160207200097 48.902617800980806,252.00001942605013 55.179057591594756,249.12300250586122 68.66492146579549,251.2254390239832 79.26701570674777,249.67627584002912 79.94554973812774,254.76637153385673 61.455497382208705,254.32375587621937 55.43350785365328,256.2048706327914" stroke="#4dd2ff" stroke-linecap="round" stroke-linejoin="round" stroke-width="0.5"><title>2023-07-26 4.8km</title><desc>1690377436000</desc></polyline><polyline fill="none" points="94.59999999962747,250.19650094036479 112.74399999948218,247.49121940351324 116.11359999980778,248.1675406775903 115.42240000003949,254.14168616157258 94.25439999997616,254.36712470755447 86.39199999952689,257.0723821116844 84.14559999946505,254.70528240216663 84.57759999949485,250.3092207982554 92.00799999991432,247.49121940351324 97.27839999971911,249.2947414832306 115.42240000003949,248.28026083280565 115.24959999974817,253.57808950945036 85.78719999967143,256.17063069873257 83.79999999981374,253.80352821969427 84.49119999958202,250.53466046485119 91.48959999950603,247.15305854391772 96.58719999995083,246.9276178883738 100.47519999975339,249.2947414832306 108.07839999953285,247.15305854391772 115.59519999939948,248.39298097084975 115.68159999977797,254.2544054427417 84.31839999975637,254.36712470755447 84.31839999975637,250.3092207982554 85.78719999967143,249.63290140329627 104.10399999981746,249.18202147679403 110.84319999953732,247.15305854391772 115.94079999998212,248.39298097084975 115.50879999948665,254.0289668641053 84.31839999975637,254.5925631869468 84.49119999958202,250.19650094036479 88.03359999973327,248.73114128649468 103.41280000004917,248.9565814146772 110.84319999953732,246.9276178883738 116.1999999997206,248.39298097084975 115.50879999948665,254.2544054427417 84.836799999699,255.2688782304176 85.44159999955446,249.85834126762347 100.12959999963641,249.18202147679403 109.02879999997094,247.04033822444035 115.85439999960363,248.5057010925375 115.7679999996908,254.14168616157258 84.31839999975637,254.14168616157258 84.75039999978617,249.85834126762347 95.89599999971688,251.43641847162507 109.71999999973923,247.04033822444035 116.02719999989495,248.28026083280565 115.94079999998212,254.2544054427417 85.70079999929294,254.93072078295518" stroke="#4dd2ff" stroke-linecap="round" stroke-linejoin="round" stroke-width="0.5"><title>2023-07-24 4.9km</title><desc>1690201802000</desc></polyline><polyline fill="none" points="136.21768809860805,257.7524861605052 136.82410494453507,268.1999999999971 136.38872874743538,254.24275639081316 136.06219659961062,252.70088170866075 136.35763044771738,251.38215949977166 136.12439319922123,250.73293780654785 135.4713289035135,237.2406116326165 135.86005765100708,236.22609795698372 136.5908676960389,235.90145201327687 135.9378034005058,235.84058081421244 135.4091323039611,236.67248488866608 135.4091323039611,241.01453734918323 136.0155491498881,250.6314966423961 136.15549149899743,249.4953505355079 135.34693570429226,237.11887038341956 135.62682040251093,236.30725932418136 136.35763044771738,235.8811616164894 135.81341020128457,235.79999999998836 135.22254250518745,236.85509731019556 135.17589505552314,240.87250974652125 135.76676275156206,250.95610810632934" stroke="#4dd2ff" stroke-linecap="round" stroke-linejoin="round" stroke-width="0.5"><title>2023-07-22 4.9km</title><desc>1690030226000</desc></polyline><polyline fill="none" points="168.13851374480873,249.23424064205028 162.5355729032308,245.8756930057425 164.95846624020487,263.26102580712177 169.6528220800683,266.8170890462352 177.2243637572974,265.23661765106954 181.0101345963776,258.7171536028618 179.64725709427148,242.12201223731972 176.77007125597447,237.1829427049961 171.62142291571945,235.79999999993015 163.7470195721835,239.75126111553982 165.26132790744305,261.8781097976025 168.28994457796216,266.4219713706989 172.6814387505874,267.60732405039016 181.4644270967692,260.49519237247296 180.5558420950547,246.07325486233458 174.65003958716989,235.99756333010737 167.98708291072398,236.5902531472966 163.14129623770714,241.33176232606638 164.35274290572852,261.2854310745606 171.16713041532785,267.4097653423669 180.2529804278165,262.47078826115467 179.95011876057833,242.12201223731972 170.86426874808967,236.98537954722997 163.4441579049453,242.31957464350853 164.65560457389802,263.6561444076942 170.86426874808967,268.19999999995343 181.16156542859972,261.48299067816697 180.40441126096994,246.27081669063773" stroke="#4dd2ff" stroke-linecap="round" stroke-linejoin="round" stroke-width="0.5"><title>2023-07-18 1.7km</title><desc>1689685608000</desc></polyline></svg>