<?xml version="1.0" encoding="utf-8" ?>
<svg baseProfile="full" height="300mm" version="1.1" viewBox="0,0,200,300" width="200mm" xmlns="http://www.w3.org/2000/svg" xmlns:ev="http://www.w3.org/2001/xml-events" xmlns:xlink="http://www.w3.org/1999/xlink"><defs /><rect fill="#222222" height="300" width="200" x="0" y="0" /><text fill="#FFFFFF" style="font-size:12px; font-family:Arial; font-weight:bold;" x="10" y="20">Over 10km Runs</text><text fill="#FFFFFF" style="font-size:4px; font-family:Arial" x="10" y="280">ATHLETE</text><text fill="#FFFFFF" style="font-size:9px; font-family:Arial" x="10" y="290">Yunlong</text><text fill="#FFFFFF" style="font-size:4px; font-family:Arial" x="120" y="280">STATISTICS</text><text fill="#FFFFFF" style="font-size:3px; font-family:Arial" x="120" y="285">Number: 47</text><text fill="#FFFFFF" style="font-size:3px; font-family:Arial" x="120" y="290">Weekly: 1.7</text><text fill="#FFFFFF" style="font-size:3px; font-family:Arial" x="141" y="285">Total: 238.3 km</text><text fill="#FFFFFF" style="font-size:3px; font-family:Arial" x="141" y="290">Avg: 5.1 km</text><text fill="#FFFFFF" style="font-size:3px; font-family:Arial" x="167" y="285">Min: 1.1 km</text><text fill="#FFFFFF" style="font-size:3px; font-family:Arial" x="167" y="290">Max: 39.1 km</text><polyline fill="none" points="24.928726343729068,58.5 23.82002502429532,57.25968434718379 22.663807934091892,56.72221084780176 21.317527760460507,54.861709861201234 17.484588913386688,52.21562179096509 17.215332878695335,51.98822128372558 17.50042750366265,51.6574562559108 17.294525830075145,51.8641844891099 16.882722482841928,51.554092025835416 20.969078774447553,46.69588786078384 20.288019392464776,45.827595467155334 17.42123455228284,43.367404688571696 16.676820809254423,43.202012174078845 12.812204781570472,47.832929349693586 14.966253059334122,50.23102319802274 16.39172618428711,51.264671779063065 17.373718781454954,50.851213254616596 20.889885823009536,46.46847846425953 17.65881340642227,43.53279700924759 16.89856107311789,43.222686249020626 15.568119489820674,44.483799093810376 12.859720552398358,47.91562291905575 16.138308739755303,51.03726974042365 16.534273496712558,51.326690453264746 17.05694697587751,51.16130726141273 20.905724413343705,46.65454072502325 20.604791197984014,46.05500589587609 18.387388559174724,44.04964676288364 17.199494288419373,43.16066401518765 16.74017517035827,43.24336032086285 12.859720552398358,47.894949531240854 13.192330948251765,48.43245663000562 16.75601376069244,51.368036220999784 18.466581510554533,49.693522945657605 22.48958344105631,44.752559391607065 23.677477711753454,43.88425504748011 24.67530889925547,43.512122979795095 29.157629947760142,43.346730634832056 34.71697513514664,42.37504669574264 34.41604191978695,40.26626280297933 33.62411240598885,37.76462538103806 36.85518482257612,36.35872704460053 37.18779521837132,35.965900007111486 35.54058182955487,33.484861887816805 33.52908086433308,31.85148799259332 30.915713468566537,31.5 25.451399822894018,37.51652669181931" stroke="#4dd2ff" stroke-linecap="round" stroke-linejoin="round" stroke-width="0.5"><title>2024-11-11 6.9km</title><desc>1731328526000</desc></polyline><polyline fill="none" points="55.086776859359816,57.07063411679701 54.615702479262836,57.23242985003162 50.971074379980564,54.967278808384435 41.5,46.58601812874258 43.40909090905916,41.990751910809195 46.55785123957321,40.14614634712052 49.55785123957321,36.10090481193038 52.657024793326855,32.864658277947456 53.351239669369534,32.767570149953826 58.35950413218234,37.16885576983623 58.880165289272554,38.20443964964943 53.227272727293894,44.80617283002357 52.06198347103782,45.323947485900135 46.48347107437439,40.08142306533409 50.67355371895246,34.61223729146877 51.7644628098933,34.191525088084745 52.70661157020368,32.92938367299212 53.351239669369534,32.89702097787813 58.83057851227932,37.9131821738556 55.35950413229875,42.44381057172723 52.309917355305515,45.45339096049429 46.60743801656645,40.372677684092196 46.95454545447137,39.36946571497538 50.94628099165857,34.418062527882284 51.64049586770125,34.353337568754796 52.85537190071773,32.864658277947456 53.47520661156159,32.92938367299212 58.80578512395732,37.880820208461955 54.98760330572259,42.799784582311986 52.35950413218234,45.42103009893617 46.681818181765266,40.50212405814091 46.70661157020368,39.919614778016694 49.409090908942744,36.16562925933977 53.15289256197866,32.89702097787813 58.880165289272554,37.945544134578086 53.62396694207564,44.51492405300087 52.409090908942744,45.35630836164637 46.48347107437439,40.34031607878569 49.73140495864209,35.874369096927694 52.285123966867104,33.38246090769826 53.45041322312318,32.83229557334562 58.73140495864209,37.65428631764371 58.55785123957321,38.46333486147341 55.5330578511348,42.18492002200219 53.15289256197866,44.93561660764681 52.086776859359816,45.42103009893617 46.657024793326855,40.534485639829654 46.90495867759455,39.498912676557666 50.45041322312318,35.097673454132746 53.376033057807945,32.83229557334562 58.80578512395732,37.65428631764371 54.98760330572259,42.735062077626935 52.309917355305515,45.323947485900135 46.58264462812804,40.50212405814091 46.657024793326855,39.69308297672251 47.92148760333657,38.722229770122794 49.28512396675069,36.2950780972169 53.128099173423834,32.79993286397075 58.85537190071773,37.65428631764371 52.285123966867104,45.61519519687863 53.57438016519882,46.10060719581088 59.99586776853539,38.722229770122794 64.5330578511348,42.735062077626935 66.02066115685739,43.51173088383803 68.5,46.10060719581088" stroke="#4dd2ff" stroke-linecap="round" stroke-linejoin="round" stroke-width="0.5"><title>2024-10-22 9.9km</title><desc>1729553484000</desc></polyline><polyline fill="none" points="72.37998641995364,46.42720910139178 71.71083007976995,46.45706595932279 71.5,46.34360978343102 71.62374809029279,45.97338218175719 71.84374469530303,45.788267126245046 72.11874045155128,45.72258093773053 72.11874045155128,45.459835130441206 72.29748769308208,45.41803450573207 72.74664742825553,45.44192058222325 79.16779833644978,44.85073609573374 79.69029027328361,44.88656570142484 80.45569512818474,44.737275471008616 81.66567645562463,44.62978616821056 81.95900526226615,44.67158759724407 82.25691733154235,44.564098122114956 85.55686640637578,44.21774122799252 87.8943303344131,44.05650512315333 88.23349176711054,44.10427885000172 88.60931930062361,43.99678788624442 91.7488541843486,43.83555091172457 91.79927007301012,44.02067479145262 92.50967577661504,44.00873134058929 92.72050585641409,43.81763565316214 93.58215922594536,43.728059242799645 98.5,43.54293404067721 94.39339670684421,43.650426195374166 92.74342216941295,43.7997203867526 92.40884399935021,43.69222862380775 91.72135460871505,43.745974540554016 91.63885588184348,43.69222862380775 91.53802410454955,43.84749441308668 91.3317772873852,43.88929664042007 86.5697674418625,44.128165692545736 77.8936513325607,45.00002591266821 77.26574435579823,44.988082747331646 74.10787642165087,45.36429078271976" stroke="#4dd2ff" stroke-linecap="round" stroke-linejoin="round" stroke-width="0.5"><title>2024-10-19 10.0km</title><desc>1729295146000</desc></polyline><polyline fill="none" points="121.84348477749154,58.5 120.28542344458401,57.21734252999886 119.15882524999324,55.3402689423674 106.45463284349535,44.73449344524124 108.61194853519555,42.66959098567895 113.93332724133506,35.41098763594346 117.5767937428318,31.5 118.4876603683224,31.844169784351834 123.54536715650465,36.38090149278287 121.48393216216937,39.13418135914253 118.05619723000564,43.107602265517926 117.0494499070337,43.60818548608222 111.63219050352927,38.66487479902571 115.49138857424259,33.4398588144104 117.8164954863023,31.5 123.52139698213432,36.44347642916546 120.35733396769501,40.47952111961786 117.16930077888537,43.60818548608222 111.68013085226994,38.85259754672006 111.77601154963486,38.03913111555448 117.24121130176354,31.6564408797567 118.05619723000564,31.562576365759014 122.97008297208231,35.66128840755846 123.44948645902332,36.193176573709934 123.28169523866381,36.97536264851806 117.8884060094133,43.2953211106942 117.00150955840945,43.51432622158609 111.63219050352927,38.727449066529516 111.75204137526453,37.97655664640479 116.4981358969817,32.532507690018974" stroke="#4dd2ff" stroke-linecap="round" stroke-linejoin="round" stroke-width="0.5"><title>2024-10-10 5.0km</title><desc>1728516073000</desc></polyline><polyline fill="none" points="155.35389182518702,55.32044669067545 152.53301727224607,58.5 151.22943130449858,58.165312676428584 146.33564136025961,53.64697626957786 145.8227550779702,52.61499551679299 135.75736178655643,44.554196760786 134.64610817481298,43.18745312401734 137.65931508375797,39.56135106565489 138.85604974254966,39.33820406938321 138.59960660140496,38.86401583456609 141.22814879845828,35.29361946246354 144.71150146611035,31.555789068792365 145.6731632455485,31.72315617716231 150.09680743096396,36.01886164091411 145.37397958082147,41.7928066533932 144.60465015738737,42.43434529780643 143.89943151909392,42.18330869427882 139.98867361608427,38.94769619705039 139.43304681021255,38.02721018822922 141.89062691305298,34.59626861049037 144.56190963392146,31.667367157380795 145.13890670146793,31.5 145.75864429271314,31.918417617751402 149.58392114855815,35.20993749493209 150.0326966457069,36.01886164091411 145.07479591609444,41.960164768926916 144.13450439844746,42.266987598879496 139.64674942777492,38.58508102752967 139.3475657630479,37.94352942144906 142.95914000144694,33.229453535881476 144.96794460737146,31.5 149.84036428981926,35.4051953619346 149.79762376635335,36.54884456380387 145.07479591609444,42.071736764293746 143.92080178088509,42.09962975284725 142.18981057789642,40.732868507970124" stroke="#4dd2ff" stroke-linecap="round" stroke-linejoin="round" stroke-width="0.5"><title>2024-10-05 4.9km</title><desc>1728122302000</desc></polyline><polyline fill="none" points="168.54641883540899,36.350347816129215 171.2767800972797,58.338325308519416 180.70893718395382,52.84137178666424 181.57768849423155,37.80544802627992 177.23393194144592,33.11678496142849 170.90445810742676,33.92517655855045 169.29106281604618,47.829419840243645 171.1526727671735,57.5299514986109 180.21250786352903,52.03299397206865 181.70179582433775,39.74557867087424 178.9714345629327,33.601819990202785 173.13839004887268,32.955106571433134 170.28392145689577,35.05692380503751 169.29106281604618,45.565950249903835 171.4008874273859,57.20660180982668 179.84018587321043,54.134775065700524 181.57768849423155,39.74557867087424 177.35803927155212,32.955106571433134 171.64910208806396,33.601819990202785 169.91159946657717,35.865313988528214 168.91874082572758,47.50606732419692 170.40802878700197,56.2365521780448 173.38660470908508,56.883252026862465 180.46072252374142,52.84137178666424 181.70179582433775,37.48209258879069 176.86160995112732,32.955106571433134 170.28392145689577,34.57188941235654 169.04284815629944,49.122828961815685 171.1526727671735,57.69162630813662 180.58482985384762,53.48807361465879 181.70179582433775,39.422223798930645 180.83304451406002,35.541957985726185 176.98571728169918,32.955106571433134 170.28392145689577,35.05692380503751 169.53927747672424,55.751527043641545 171.4008874273859,57.044926930218935 180.95715184416622,53.00304727931507 181.82590315444395,38.61383620707784 177.73036126233637,32.955106571433134 170.0357067962177,35.05692380503751 169.66338480636477,54.45812564983498 172.0214240779169,57.5299514986109 181.45358116459101,52.84137178666424 181.57768849423155,36.67370358295739 177.23393194144592,33.11678496142849 169.53927747672424,35.865313988528214 168.67052616598085,45.565950249903835 170.65624344721437,55.26650169771165 172.64196072844788,56.398227175464854 181.20536650437862,53.00304727931507 181.70179582433775,37.967125709401444 177.35803927155212,33.11678496142849 170.0357067962177,35.05692380503751 169.41517014661804,52.518020731862634 173.51071203872561,57.69162630813662 181.08125917427242,54.29645036929287 181.57768849423155,38.290481005446054 179.71607854263857,34.086854807450436 176.24107330059633,32.79342815768905 169.41517014661804,35.865313988528214 168.79463349562138,45.88930333114695 171.4008874273859,58.17665059340652 181.08125917427242,54.94315134908538 181.32947383401915,38.290481005446054 177.8544685919769,32.955106571433134 169.66338480636477,34.41021123412065 170.0357067962177,57.20660180982668 180.70893718395382,55.589851951925084 181.82590315444395,50.416236575343646 181.20536650437862,35.865313988528214 176.98571728169918,32.63174972019624 172.51785339834169,32.63174972019624 169.04284815629944,36.51202571147587 170.15981412678957,56.07487715652678 177.73036126233637,57.20660180982668 181.57768849423155,51.062939816503786 180.70893718395382,36.350347816129215 175.620536650531,32.30839277501218 170.65624344721437,33.27846332779154 167.92588218534365,35.21860188920982 170.0357067962177,55.42817683657631 174.37946334993467,58.01497585559264 179.71607854263857,57.368276666267775 181.82590315444395,51.70964268106036 180.58482985384762,35.865313988528214 178.35089791193604,33.440141670638695 171.7732094177045,33.601819990202785 168.91874082572758,38.12880336889066 170.0357067962177,55.589851951925084 178.72321990225464,57.5299514986109 181.57768849423155,53.48807361465879 180.70893718395382,34.89524569781497 174.8758926698938,32.30839277501218 169.41517014661804,35.865313988528214 170.0357067962177,55.26650169771165 173.01428271830082,57.85330109333154 178.84732723236084,57.5299514986109 181.70179582433775,50.739588242955506 180.70893718395382,33.92517655855045 172.89017538866028,32.955106571433134 169.16695548640564,37.80544802627992 169.66338480636477,54.94315134908538 173.01428271830082,58.5 176.36518063070253,58.338325308519416 181.45358116459101,52.84137178666424 180.58482985384762,33.76349828590173 173.13839004887268,32.63174972019624 169.04284815629944,36.67370358295739 169.04284815629944,53.16472274775151 173.13839004887268,57.368276666267775 177.23393194144592,57.85330109333154 181.82590315444395,52.518020731862634 181.20536650437862,35.21860188920982 175.9928586408496,32.470071259653196 169.29106281604618,36.67370358295739 169.53927747672424,51.386291296221316 172.3937460682355,55.751527043641545 178.35089791193604,56.883252026862465 182.07411781465635,51.062939816503786 181.82590315444395,36.51202571147587 176.61339529138058,31.5 169.41517014661804,35.865313988528214 169.53927747672424,53.48807361465879 174.2553560193628,57.69162630813662 180.95715184416622,54.61980090616271 182.07411781465635,37.32041483500507 177.48214660165831,32.30839277501218 170.15981412678957,33.92517655855045 169.29106281604618,52.67969627096318 176.24107330059633,57.5299514986109 180.70893718395382,55.42817683657631 182.07411781465635,36.83538143092301 176.98571728169918,31.661678602336906 169.53927747672424,35.38027994928416 168.42231150576845,50.739588242955506" stroke="#4dd2ff" stroke-linecap="round" stroke-linejoin="round" stroke-width="0.5"><title>2024-09-08 8.9km</title><desc>1725751236000</desc></polyline><polyline fill="none" points="25.180841334629804,62.112590444041416 27.350937352282926,61.5 26.699908547103405,61.82985653728247 27.38710561930202,74.03431182334316 33.46337446849793,72.24372560062329 34.873936879914254,73.13901995151537 34.367581142578274,75.40080516351736 34.69309554528445,87.6047481840942 20.11728396010585,88.5 15.740923658013344,87.98169661915745 16.17494286154397,78.6992135681794 15.162231386639178,72.29084641765803 15.126063119852915,63.00791285108426 15.994101526681334,62.159712737833615" stroke="#4dd2ff" stroke-linecap="round" stroke-linejoin="round" stroke-width="0.5"><title>2024-08-20 2.0km</title><desc>1724107925000</desc></polyline><polyline fill="none" points="59.206521739135496,62.444747336237924 53.56521739135496,62.103657095940434 53.72826086956775,67.94471668387996 53.51630434783874,68.2857931847393 47.59782608697424,67.09202192195517 47.15760869573569,67.98735129040142 47.206521739135496,73.03946340709808 46.68478260876145,73.06077996300883 42.364130434871186,70.84384136964218 41.51630434783874,71.07832686208712 41.5,86.10592445252405 61.26086956518702,87.89634290405957 61.35869565216126,84.63520704687107 60.706521739135496,77.06823679966328 61.73369565216126,76.87639298551949 65.92391304345801,77.11086872384476 67.17934782605153,76.83376099234738 68.05978260870324,77.13218468129344 67.78260869567748,76.5992848060414 68.5,76.17296349581738 67.21195652172901,69.7140423184901 66.1684782608645,66.77226009356673" stroke="#4dd2ff" stroke-linecap="round" stroke-linejoin="round" stroke-width="0.5"><title>2024-08-18 4.9km</title><desc>1723938111000</desc></polyline><polyline fill="none" points="94.44386111205677,84.87138854208752 92.93284333415795,87.33648849208839 91.58803751179948,88.5 90.43966400052886,87.94782629986003 88.05225591140334,85.58134195210005 87.13053506682627,84.98971437026921 86.58656866679667,84.12198921720847 86.31458546681097,84.20087355295254 79.34879351052223,78.44219565209642 72.36789137648884,71.99297305631626 71.70304355426924,70.13901095344045 71.8692555098678,68.77810763835441 71.62749266537139,68.12723597510194 71.9296962209628,66.45073387435696 72.68520510994131,66.15487839639536 74.21133306558477,64.04442380268301 76.76495311030885,61.5 79.78698866616469,63.68939080875134 80.92025199963246,65.22786035749596 81.88730337744346,65.99708854247001 82.83924457756802,65.89846978985588 84.47114377771504,67.37774349730171 85.19643231114605,68.67949092178605 81.31311662192456,73.35384389283718 81.99307462194702,73.76801924470055 85.75550888897851,69.31063665996771 87.23630631132983,70.13901095344045 90.42455382278422,73.07772628414386 91.27072377840523,73.53134777100058 93.02350440080045,75.42470791822416 93.86967435642146,75.83887690318807 96.31752315670019,78.20553239014407 97.1939134679269,78.67885849825689 98.37250733462861,80.11854852194665 97.79832057910971,81.20323632235522 95.92465853440808,82.99788241377973 95.68289568996988,83.60923990885203 94.74606466770638,84.29947890769108" stroke="#4dd2ff" stroke-linecap="round" stroke-linejoin="round" stroke-width="0.5"><title>2024-08-14 5.1km</title><desc>1723587841000</desc></polyline><polyline fill="none" points="124.74818897573277,85.97594424164708 122.63129002926871,88.46589150284126 122.26540626073256,88.5 120.8802748513408,87.05038006593531 120.08317092701327,86.64107234880794 119.53434527420904,85.89067113280908 118.920183234266,85.65190609599813 118.00547381292563,84.52629290318146 112.11213168414542,79.83612087347137 106.17958772310521,74.34411581286986 105.6830311800586,73.13311091373907 105.77450212225085,72.26322638594138 105.43475290859351,71.12042703592306 105.63076207024278,68.39130860591831 107.32950813841308,66.49794512863446 107.74766101670684,66.46383018911729 107.35564269329188,66.42971523968299 106.80681704054587,65.74741415165772 106.48013510438614,65.90093224492739 105.6568966251798,67.04378280184756 105.87904034176609,68.08427878130897 105.52622385072755,68.25485100602236 105.25181102426723,64.34868442667357 105.35634924389888,61.99468672552757 108.3618230568245,61.5 109.44640708487714,61.7217563781669 111.77238247054629,61.56823277670628 109.42027252999833,64.7239550259037 114.77785628341371,69.32945027811365 116.55500601622043,70.3187551294468 117.35210994054796,71.61507290684676 120.93254396115663,74.66818541123939 117.63959004438948,78.77867418661481 118.24068480695132,78.94923075303086 120.33144919853657,76.35674399560958" stroke="#4dd2ff" stroke-linecap="round" stroke-linejoin="round" stroke-width="0.5"><title>2024-08-10 5.2km</title><desc>1723241479000</desc></polyline><polyline fill="none" points="153.175208913628,85.4549167984951 151.91169916430954,87.08433109683392 151.2799442896503,88.43888936055009 150.4225626740954,87.83032139827264 149.82089136482682,87.79105885431636 148.6476323119714,85.84754856022482 146.57186629524222,84.74817673064535 146.07548746519024,83.8058508468821 144.46601671306416,82.66719823672611 141.38245125341928,79.6045673834742 139.77298050140962,78.70147057407303 138.0281337047345,76.89525871023943 135.50111420603935,74.73562563557061 135.30557103059255,74.93195735226618 134.68885793862864,74.2055285647366 133.515598885715,73.49872921065253 133.079387186619,72.61522477920516 132.28217270190362,72.16365359969495 131.6955431754468,70.78929717469146 131.95125348184956,70.04321207368048 131.5,68.49212713052111 131.98133704729844,66.68577774746518 133.1245125348214,65.78259393072221 133.71114206122002,64.7223269049573 136.49387186631793,61.62001597182825 137.065459609963,61.561110639435356 137.12562674086075,61.875272113029496 137.4114206128288,61.83600196907355 138.73509749304503,62.81775211704371 139.231476323097,63.583512242446886 140.615320334211,64.60451894010475 141.0816155988141,64.64378827322798 141.75849582173396,66.13601440966886 143.1272980500944,66.4501651644241 144.6013927576132,66.29308987900731 145.57910863502184,66.90175558492774 145.84986072423635,67.92273701644444 145.62423398322426,68.25651772142737 142.66100278543308,71.3979424721183 141.39749303623103,73.55762929908815 141.8938718662248,73.75396274049126 142.75125348183792,72.9882606936153 144.4810584958177,70.61259318386146 145.57910863502184,69.4738285458734 146.03036211698782,69.37565872776031 151.80640668520937,74.08772893108835 152.9345403899788,75.50131770520238 154.72451253479812,76.83636008766189 155.58189415041124,76.93452444419381 155.7924791086116,77.58240739502071 156.55961002787808,78.03396032789897 156.8002785515855,78.56404226558516 158.5,79.36897749771015 158.24428969359724,80.58618745241256 154.84484679665184,84.1592238292069" stroke="#4dd2ff" stroke-linecap="round" stroke-linejoin="round" stroke-width="0.5"><title>2024-08-09 5.2km</title><desc>1723159591000</desc></polyline><polyline fill="none" points="183.64698572165798,85.36351127257512 183.82950784778222,85.74068780467496 182.84084633161547,86.23697111717775 182.11075782740954,87.16997882806754 182.04991711874027,87.68610799571616 181.15251666563563,88.5 179.58586841705255,86.33622756171098 179.05351221602177,86.27667370368727 178.2777931803139,85.36351127257512 177.13702989253215,84.84737326564209 176.66551440017065,84.4106395716517 176.7111449316726,83.91434957571619 176.37652103387518,84.11286579203443 163.15887707221555,72.77712437052105 162.20063591044163,71.38738858627039 161.8660120127024,70.3351505890314 161.57701864652336,67.77400888623379 161.72912041813834,66.3445134118665 163.1132465407718,65.37165370672301 165.15141028165817,62.6515803460934 166.53553640423343,61.5 167.08310278243152,61.519854916390614 170.763965657854,64.71645854317467 171.66136611090042,65.07383811577165 171.85909841413377,65.92757439297566 174.6425608364516,67.59532277606195 174.9619745570235,68.27035795661504 179.3881361138192,72.00284476217348 179.50981753115775,72.34035180165665 175.9050055416301,76.56904527434381 175.69206306122942,76.9859515739372 175.93542589602293,77.28374100319343 176.60467369150138,77.04550951207057 178.26258300314657,74.78228947255411 180.30074674409116,72.91609716558014 188.42298135347664,79.96381643947097 187.25179771118565,81.7902078715124 185.44178662786726,83.53716796422668" stroke="#4dd2ff" stroke-linecap="round" stroke-linejoin="round" stroke-width="0.5"><title>2024-08-08 4.9km</title><desc>1723122982000</desc></polyline><polyline fill="none" points="38.426919291348895,103.97718026632356 38.46013779529312,103.95550234961411 38.46345964567445,104.0162004763879 38.5,103.87746171811341 38.453494094501366,103.80375648844347 38.19106791338709,103.9858514285479 37.828986220483785,103.6390029588656 37.742618110234616,103.62599606222466 37.63631889765384,103.72571545709798 37.52337598426675,103.64333858979808 37.44365157482389,103.66935236212157 36.7460629921261,104.50178101246456 35.73289862203819,105.47291820264218 32.301427165366476,109.50886601677121 32.10875984252198,109.61723512291428 27.255536417331314,105.49893036807771 26.235728346466203,104.83994846887617 26.05302657482389,104.5494715286386 25.976624015762354,104.21130075566361 25.076402559061535,103.76473599846577 24.644562007888453,103.87746171811341 24.202755905513186,103.8817973141413 23.322465551187634,103.76473599846577 22.398991141744773,103.75606477149267 14.516240157492575,104.06822734319394 13.99138779527857,104.03787834867035 13.632627952771145,103.83410572287539 13.220718503944227,104.07256291129488 11.632874015747802,104.14193191470804 11.58304625985329,104.1029118702827 11.5,102.27758345286566 11.516609251964837,101.56216276771556 16.678764763797517,101.34102924109357 16.798351377961808,101.3497011752097 17.874630905513186,101.85266900884199 18.369586614178843,102.00876073754262 23.717765748035163,102.03477594566175 24.245939960630494,101.93505085706056 25.45177165354835,101.39306080768802 25.979945866158232,101.40606868504256 26.47157972441346,101.28899758309126 26.48818897639285,101.19360597264313 28.169045275601093,100.46948691017496 28.375000000014552,100.51284783147821 28.73375984253653,100.43913422747755 30.36146653543983,100.38276487708754 30.37807578741922,100.50851174220224 30.451156496070325,100.53452826831563 33.6002706693107,100.43479812741316 33.6600639763783,100.62558592971982 33.68331692914944,101.3497011752097 33.773006889765384,101.6792327897947 33.96567421260988,102.01309660714469 36.74938484252198,104.41073526835862 36.92212106300576,104.28934050751923 37.08821358268324,104.34570242263726 37.66621555118763,103.73872230992856 38.15784940945741,104.10724743330866" stroke="#4dd2ff" stroke-linecap="round" stroke-linejoin="round" stroke-width="0.5"><title>2024-07-21 16.7km</title><desc>1721568012000</desc></polyline><polyline fill="none" points="43.48353388218675,106.67436205971171 42.286573780933395,105.58071554321214 41.92748575046426,104.44242206035415 41.94458518049214,102.36668853271112 41.5,101.3622911945713 41.63679544016486,99.50971874357492 43.00474984169705,98.68386593749165 44.885687143716495,95.849147944391 46.3391386953881,94.66613980516559 46.629829005745705,93.88490298129909 47.313806206395384,93.81793963874225 49.34863837872399,95.20184274150233 49.57093096891185,95.849147944391 53.02501583273988,98.59458428506332 53.213109562930185,99.15259375491587 54.20487650408177,99.44275787194783 56.205509816354606,101.58549117493385 57.00918302719947,101.85333072005596 61.83122229255969,106.31725385579921 65.30240658647381,109.01786388960318 66.12317922734655,110.06684827477147 68.5,111.71842608237057 68.43160227988847,112.23175067496777 66.84135528816842,113.77171408235154 65.47340088663623,116.1820603612432" stroke="#4dd2ff" stroke-linecap="round" stroke-linejoin="round" stroke-width="0.5"><title>2024-07-16 2.5km</title><desc>1721136594000</desc></polyline><polyline fill="none" points="95.09446461926564,102.04863265130552 93.73267822878552,103.59310542929961 92.68606510775862,105.0211206335116 91.60377199394861,105.75839603874192 90.64041218932834,106.79832497290408 89.63542572647566,106.0765854153251 82.9097470905981,100.3023152679707 82.80865377778537,99.85214412885034 82.70161379946512,96.1031566953061 82.66593380671111,93.61144696160409 82.77297378500225,91.99681861638237 83.9623068771325,91.67078192459303 85.44897324225167,91.5 85.65115986790624,96.39035558557953 85.78198650802369,96.96474869849771 86.10310644292622,97.64780267798778 91.25291873174137,102.02534879786981 93.42345162489801,104.07428876162885 92.6265984531492,105.09872905365046 91.61566532484721,105.75063529839463 90.61662552747293,106.81384614580384 90.72961217124248,106.93801536554747 90.66419885118376,107.09322648135276 91.46699868835276,107.8227126404272 91.44321202646825,107.93911907781876 90.15278562155436,109.48342029947162 89.76030570117291,110.15855293702771 88.6780125873338,111.44671320591078 87.6373461317562,112.47101108835705 86.81075963273179,112.99867197409912 85.90686648272094,113.22370222562677 84.84241336528794,114.47299074109105 84.84241336528794,114.92303777917186 86.01985312649049,115.95502777613365 86.42422637779964,116.1567678353058 86.98915959653095,116.05589790164595 87.61355946987169,115.35756233049324 87.98225272848504,114.83768432402212 87.9049460774695,114.32556070855571 86.45990637055365,113.16162501023791 85.91875981364865,113.2392215181062 84.84836003073724,114.4807502051226 84.82457336891093,115.1247817635558 84.65212007053196,115.73776839277707 84.12881351003307,116.65335548121948 82.88596042874269,118.27499213251212 82.59457382117398,118.5 79.12172119220486,115.63689766227253 75.2801753047097,111.93558511753872 74.90553538070526,111.45447311272801 75.21476198465098,111.5631116888544 78.1464680567151,107.58213852677727 79.32390781785944,105.23842392365623 79.42500113073038,104.84262083615249 80.19806764059467,104.36920541989821 82.52321383566596,103.58534437203343 83.1773470363114,103.15848447263124 84.41425345212338,101.82355497306344 85.55006655509351,100.20141517257434 87.0961995748512,98.4860841704176 91.28265205907519,102.03311008349556 93.39371829756419,104.00443983915102 94.56521139331744,102.6229644661762 94.91606465546647,102.11072287716524 94.86849133175565,102.00206493418227" stroke="#4dd2ff" stroke-linecap="round" stroke-linejoin="round" stroke-width="0.5"><title>2024-07-06 16.1km</title><desc>1720267100000</desc></polyline><polyline fill="none" points="106.31297889631242,102.66674423438963 108.22923355130479,101.33340739167761 111.29524099966511,117.00001678068656 119.59901117254049,117.50001140637323 123.17601986275986,112.33338969573379 121.0042645870708,94.5000315879006 114.61674906872213,92.33334290015046 108.61248448258266,97.50005527865142 110.0177378966473,114.66670562699437 114.23349813837558,118.33333529520314 119.85451179370284,117.50001140637323 123.30377017334104,111.16672993882094 121.77076644916087,95.166704201838 114.61674906872213,92.16667436843272 110.14548820676282,95.66670840629376 109.12348572397605,99.6667341440916 110.65648944815621,114.83337086765096 116.02200248325244,118.00000581308268 120.36551303509623,116.83335185656324 123.43152048345655,110.00006898795255 122.92051924206316,97.83339075685944 120.36551303509623,93.16668519063387 111.29524099966511,93.50002193625551 108.86798510327935,99.16673169471323 110.27323851687834,115.16670127620455 114.10574782826006,117.833341035177 120.4932633456774,117.33334655570798 123.30377017334104,114.00004441977944 122.79276893194765,98.00005845958367 118.57700869021937,92.16667436843272 115.0,91.5 109.76223727595061,95.33337229397148 109.37898634467274,112.66672083549201 111.03974037896842,116.000026871101 116.40525341406465,118.5 123.30377017334104,114.16670975787565 122.66501862090081,97.50005527865142 116.27750310394913,91.833337233169 111.93399255210534,93.33335357543547 108.99573541386053,97.33338750316761 110.14548820676282,114.16670975787565 112.95599503489211,117.16668168001343 118.44925838010386,118.16667056630831 123.55927079403773,113.33338282222394 122.15401737997308,95.00003608502448 114.61674906872213,92.00000581296626 108.99573541386053,97.83339075685944 110.27323851687834,114.66670562699437 116.02200248325244,118.16667056630831 121.13201489718631,117.16668168001343 123.68702110368758,109.66673706821166" stroke="#4dd2ff" stroke-linecap="round" stroke-linejoin="round" stroke-width="0.5"><title>2024-02-29 2.9km</title><desc>1709196138000</desc></polyline><polyline fill="none" points="133.05535122239962,91.5 142.8921208032407,97.33338750316761 142.50887004099786,112.83338636858389 147.6188802132383,118.33333529508673 154.26189343677834,116.83335185598116 156.81689852289855,113.16671736212447 155.7948964885436,96.3333803373389 150.55713606160134,91.833337233169 145.31937563605607,92.33334289991762 141.8701187693514,95.66670840617735 143.14762131264433,114.33337507175747 148.89638275606558,118.33333529508673 156.3058975059539,115.16670127632096 155.9226467423141,96.3333803373389 150.55713606160134,92.16667436878197 142.3811197867617,94.83336794318166 142.8921208032407,112.83338636858389 145.57487614406273,117.33334655524231 152.34563962183893,118.5 156.4336477597244,115.00003608386032 156.6891482686624,103.1667451482499 153.36764165665954,93.00001678115223 143.78637258382514,93.50002193602268 141.8701187693514,98.66672902554274 144.29737360123545,116.50002193532418 152.98439089395106,118.5 156.05039699701592,116.00002687051892 156.94464877760038,111.16672993893735 154.77289445372298,94.83336794318166 151.83463860535994,92.50001140648965 144.8083746181801,93.00001678115223 141.99786902358755,98.00005845935084 143.91412283852696,115.66669670608826" stroke="#4dd2ff" stroke-linecap="round" stroke-linejoin="round" stroke-width="0.5"><title>2024-02-26 2.1km</title><desc>1708947688000</desc></polyline><polyline fill="none" points="170.49268657295033,102.26694831845816 166.81065588677302,108.06449348235037 169.34998739464208,115.68407914135605 173.9207841088064,118.5 181.15787890693173,116.84357681323308 182.42754466086626,97.79453605914023 176.07921589072794,91.5 169.47695396933705,94.64727240230422 168.715154517442,111.54300633713137 172.52415177971125,117.17486164462753 177.22191506950185,117.67178870958742 182.68147781165317,114.52458028239198 182.55451123602688,97.62889082136098 176.71404876746237,91.66564613406081 168.9690876682289,95.80679160903674 168.8421210926026,112.53686519083567 171.2544860257767,117.00921924074646 174.55561698554084,118.00307329848874 182.30057808570564,114.85586579178926 182.42754466086626,97.79453605914023 181.15787890693173,94.4816267042188 175.4443830139935,91.66564613406081 168.8421210926026,97.29760027374141 169.2230208190158,114.19329467555508 174.42865041084588,118.00307329848874 180.01517972862348,116.67793436127249 183.18934411276132,111.70864954008721 182.30057808570564,95.97243711340707 179.507313426584,92.32823042757809 175.19044986274093,91.5 169.47695396933705,95.3098549512215 168.715154517442,112.03993587312289 173.5398843823932,118.00307329848874 178.9994471250102,117.50614637858234 182.68147781165317,114.19329467555508 182.93541096244007,98.78840697626583 181.66574520803988,95.1442093505757 176.96798191871494,92.32823042757809 171.50841917656362,93.32210614078213 169.603920545429,95.97243711340707 168.9690876682289,114.35893749108072 173.41291780676693,118.16871555661783 181.66574520803988,115.35279387363698 182.30057808570564,98.1258264615899 180.01517972862348,93.81904367066454 176.07921589072794,92.32823042757809 168.58818794228137,96.46937347960193 168.8421210926026,113.53072317270562 171.38145260093734,117.8374310163781 180.26911287894472,116.84357681323308 182.55451123602688,113.19943727517966 182.68147781165317,103.4264597252477" stroke="#4dd2ff" stroke-linecap="round" stroke-linejoin="round" stroke-width="0.5"><title>2024-01-18 3.0km</title><desc>1705581243000</desc></polyline><polyline fill="none" points="21.80624317470938,124.83336794329807 18.22923553083092,126.1667123909574 18.101485258433968,144.16670975799207 21.167491809930652,147.50001140625682 26.277502729557455,148.3333352955524 31.387513649184257,145.0000360844424 31.387513649184257,127.00005187850911 29.08800873486325,122.83334834722336 25.127750272396952,121.5 19.762238807044923,123.66669027204625 17.46273389318958,127.33338750293478 17.718234439380467,142.66672083549201 23.59474699618295,148.00000581273343 31.13201310299337,144.6667056265287 31.259763375855982,126.83338402933441 25.894251910503954,121.83333723281976 21.03974153706804,123.00001678126864 17.84598471224308,127.00005187850911 18.356985803693533,143.33338282257318 21.03974153706804,147.50001140625682 24.872249726671726,148.5 31.387513649184257,144.50004036154132 31.770764468237758,127.66672302980442 27.17175464099273,122.00000581296626 21.42299235565588,122.66667988931295 18.484736076556146,125.83337642531842 18.356985803693533,143.33338282257318 24.36124863475561,148.5 31.89851474110037,145.0000360844424 31.004262830130756,126.83338402933441 25.76650163717568,122.66667988931295 18.356985803693533,125.66670840571169 18.484736076556146,144.16670975799207 25.255500545725226,148.5 31.387513649184257,145.33336644410156 31.51526392158121,127.16671970312018 26.660753548610955,122.00000581296626 20.911991264205426,122.83334834722336 17.718234439380467,127.33338750293478 17.973734985571355,142.00005845841952 23.21149617806077,148.00000581273343 31.13201310299337,145.50003158731852 31.51526392158121,126.83338402933441 25.511001091450453,121.5 18.101485258433968,126.33338033745531 18.356985803693533,142.50005527795292 20.40099017182365,146.16669191711117 24.74449945334345,147.66667623317335 29.982260646298528,147.0000167802209 32.53726610634476,143.16671736259013 30.87651255680248,125.33337229420431 27.044004367664456,122.00000581296626 21.678492901846766,122.16667436843272 18.356985803693533,125.33337229420431 18.101485258433968,139.1667390059447" stroke="#4dd2ff" stroke-linecap="round" stroke-linejoin="round" stroke-width="0.5"><title>2024-01-17 3.3km</title><desc>1705483266000</desc></polyline><polyline fill="none" points="48.6221255492419,136.95290702185594 45.6284293779172,139.500069755828 50.70469679823145,146.12266671471298 56.82224984373897,147.9905718486989 62.93980288784951,145.78304727654904 63.85092781018466,129.48119743622374 60.336588826496154,123.02831864915788 55.00000000046566,121.83962653996423 49.92373258015141,125.06607371894643 49.533250470645726,141.8774165994255 54.34919648524374,147.31133396551013 63.590606403537095,145.27361793338787 63.33028499735519,128.46232422208413 58.51433898322284,121.66981328232214 49.01260765828192,126.76420021243393 49.14276836114004,139.83969103102572 52.91742875101045,147.82076241495088 62.54932077927515,146.63209568534512 63.85092781018466,129.14157313096803 60.59691023314372,122.5188793229172 53.43807156337425,122.68869245657697 49.01260765828192,126.93401272536721 49.533250470645726,143.40570842847228 55.650803515687585,148.5 63.200124294962734,146.46228605299257 63.720767106860876,127.4434501142241 59.03498179605231,121.5 53.04758945386857,122.34906616492663 50.31421468919143,125.74532461480703 49.663411173503846,143.40570842847228 51.095178907271475,146.46228605299257 57.342892655637115,148.5 64.37157062254846,143.7453285624506" stroke="#4dd2ff" stroke-linecap="round" stroke-linejoin="round" stroke-width="0.5"><title>2024-01-13 2.0km</title><desc>1705132259000</desc></polyline><polyline fill="none" points="77.0451420461759,129.26256470545195 78.46796216722578,143.94379430869594 80.79621327668428,147.31876321486197 85.71141006145626,148.5 92.82551067043096,143.10005053936038 92.30812153499573,126.39379687560722 85.84075734484941,121.83750389900524 79.11469858651981,125.7187916438561 79.11469858651981,143.60629687458277 84.54728450672701,147.82500769919716 92.9548579538241,143.77504560397938 92.69616338657215,126.39379687560722 88.4277030210942,122.17500769952312 83.64185352018103,122.006255811546 78.33861488383263,127.74380615423433 78.72665673494339,142.4250550798606 81.96033883048221,147.9937558110105 84.80597907397896,148.5 91.1439959811978,146.3062735791318 92.82551067043096,142.7625528589124 92.17877425206825,125.88754298910499 85.71141006145626,121.83750389900524 82.21903339866549,122.006255811546 78.72665673494339,126.22504560498055 78.98535130312666,143.94379430869594 85.45271549327299,148.5 92.69616338657215,143.26879934268072 91.79073240002617,125.38128887990024 85.5820627771318,121.5 78.72665673494339,126.05629430920817 79.76143500534818,142.5938039815519 85.45271549327299,147.48751140071545" stroke="#4dd2ff" stroke-linecap="round" stroke-linejoin="round" stroke-width="0.5"><title>2024-01-11 2.0km</title><desc>1704963338000</desc></polyline><polyline fill="none" points="112.08281276514754,128.10645157343242 110.21140963351354,131.2660431372933 110.43157470738515,144.04792344977614 114.94495873106644,148.3563849424827 119.67850782861933,147.78192450263305 122.10032364632934,144.47877044946654 121.32974588591605,128.82454145798692 118.13735230918974,125.5213236414711 111.31223500473425,125.95217876986135 107.45934620453045,122.79257010918809 108.56017157575116,121.5 108.34000650187954,125.37770522356732 111.97273022774607,125.95217876986135 110.10132709611207,128.96815937163774 110.54165724478662,142.61176541814348 112.74330798815936,147.3510789515567 117.80710469698533,148.5 121.54991096025333,146.3457719310536 122.32048872020096,131.12242555926787 117.47685708617792,125.5213236414711 113.62396828504279,126.09579710348044 110.32149217044935,129.82986641401658 110.65173978172243,144.04792344977614 115.05504126800224,148.21276986418525 119.01801260607317,148.0691547645256 121.99024110892788,144.47877044946654 121.43982842331752,128.6809235229157 115.49537141667679,125.09046832495369 110.87190485652536,129.5426308172755 111.20215246779844,144.90961726062233 115.71553649147972,148.0691547645256 120.22892051469535,147.06384847918525 122.54065379500389,143.61707626050338 121.7700760345906,128.53730556712253 118.79784753127024,125.09046832495369 115.93570156535134,124.80323134205537 110.87190485652536,128.82454145798692 110.9819873929955,143.47346048912732 115.49537141667679,147.63830933981808 119.67850782861933,147.2074637261685 122.32048872020096,143.7606920110411 121.99024110892788,128.96815937163774 120.55916812596843,125.80856041470543 117.25669201090932,124.65961281914497 110.65173978172243,128.39368759014178 110.54165724478662,143.18622888275422 113.29372067376971,146.63300261320546" stroke="#4dd2ff" stroke-linecap="round" stroke-linejoin="round" stroke-width="0.5"><title>2024-01-09 2.6km</title><desc>1704792913000</desc></polyline><polyline fill="none" points="134.58673413656652,131.06969162542373 139.69512871094048,127.48106644977815 140.7430045218207,145.2531975560123 145.19647671468556,148.1582317459397 150.04290233645588,147.98734758188948 154.23440557718277,144.74054371356033 154.88932795869187,140.29753432807047 154.4963745297864,127.31017926183995 150.8288091942668,122.18355200090446 144.54155433317646,121.84177605004515 140.7430045218207,124.9177560058888 140.7430045218207,143.03169594914652 146.37533700093627,148.5 153.84145214874297,146.79115773225203 154.75834348192438,128.33550201519392 150.8288091942668,122.18355200090446 144.54155433317646,122.18355200090446 141.13595794979483,125.77219344524201 141.13595794979483,142.17727112979628 144.93450776254758,147.47469493933022 151.74570052837953,147.6455791783519 154.75834348192438,145.2531975560123 154.75834348192438,127.82284075079951 151.74570052837953,122.69621573900804 146.50632147677243,121.5 143.62466299906373,121.84177605004515 140.87398899765685,125.94308085832745 141.00497347395867,144.05700490798336 147.292228335049,147.98734758188948 155.15129691082984,144.9114283528179 154.88932795869187,128.67727606592234 150.43585576536134,121.84177605004515 144.8035232857801,121.67088803753722 140.4810355687514,126.96840481087565 141.26694242609665,144.9114283528179 147.94715071609244,148.3291158854263 155.15129691082984,144.22788964677602 154.23440557718277,125.25953105615918 149.91191786015406,121.84177605004515 144.8035232857801,122.0126640376402 140.7430045218207,125.4304185443325 140.7430045218207,142.6899260963546 145.851399095729,147.81646339292638 154.88932795869187,144.74054371356033 155.41326586343348,129.18993695557583 151.74570052837953,122.0126640376402 143.62466299906373,122.52532785164658 140.7430045218207,129.18993695557583 141.92186480760574,146.27850456547458 151.22176262317225,147.47469493933022" stroke="#4dd2ff" stroke-linecap="round" stroke-linejoin="round" stroke-width="0.5"><title>2024-01-08 3.0km</title><desc>1704701613000</desc></polyline><polyline fill="none" points="167.6181492912583,126.48730782361235 168.40906186727807,144.8885709445458 175.39545628754422,147.9840822427068 181.4591193702072,143.168838925194 180.80002555716783,126.14335623942316 176.05455010058358,122.01592937600799 168.54088062932715,124.93952490098309 167.88178681628779,142.4809454131173 172.89089979743585,148.15605485334527 178.2954690665938,147.8121096061077 181.72275689523667,143.85673203435726 180.9318443192169,127.17521069175564 175.92273133806884,121.84395294240676 170.91361835738644,122.53185852686875 168.01360557880253,125.62742867390625 167.74996805377305,143.68475879484322 173.6818123734556,148.32802743907087 177.76819401606917,148.15605485334527 181.9863944207318,144.20067843887955 181.59093813225627,127.69113757787272 175.39545628754422,121.5 170.51816206937656,122.53185852686875 167.6181492912583,126.31533204414882 167.74996805377305,142.9968655849807 172.49544350942597,148.15605485334527 178.16365030407906,147.9840822427068 181.59093813225627,144.8885709445458 181.9863944207318,129.5828675593948 176.845462677069,121.67197648389265 170.51816206937656,122.70383485953789 167.88178681628779,125.4554527682485 168.8045181548223,146.43632761226036 177.50455649057403,148.15605485334527 182.51366947125643,142.65291882900055 180.27275050617754,124.59557286347263 172.23180598393083,121.67197648389265 167.35451176576316,126.83125930826645 168.14542434131727,145.06054400838912 174.99999999953434,148.5 182.11821318324655,143.51278553029988 180.27275050617754,124.76754889450967 172.89089979743585,121.67197648389265 167.4863305282779,129.06694150273688 167.88178681628779,144.02870524919126 171.30907464539632,148.15605485334527 176.05455010058358,148.5 179.74547545565292,147.46816425863653 182.64548823423684,141.7930514990585" stroke="#4dd2ff" stroke-linecap="round" stroke-linejoin="round" stroke-width="0.5"><title>2023-12-29 2.9km</title><desc>1703839119000</desc></polyline><polyline fill="none" points="19.72849306697026,154.386822426226 17.776083091273904,158.80194872617722 19.598332401830703,175.95285700750537 27.407972302287817,177.65095295628998 31.44295291788876,172.21703717962373 30.792149593122303,155.0660737195285 28.18893629265949,152.17925298109185 22.85234902659431,151.5 18.16656508669257,156.42457511241082 19.338011072017252,176.29247639642563 27.798454297706485,177.65095295628998 31.70327424770221,173.2358983248705 30.661988927517086,154.55663528700825 22.85234902659431,151.5 18.296725751366466,156.25476252532098 18.426886416506022,174.08494859619532 24.544437672477216,178.5 32.09375624312088,173.7453285616357 30.661988927517086,154.7264481227612 22.201545701827854,151.5 18.16656508669257,158.63213648681995 18.296725751366466,173.7453285616357 19.98881439678371,176.8019052920863 25.455562327522784,178.16038125671912 31.963595578446984,173.91513859131373 31.573113583028316,155.74532461480703 23.633313016965985,152.0094397731591 17.776083091273904,158.4623242225498 18.687207747250795,174.93399824667722 26.366686982568353,178.5 31.573113583028316,173.2358983248705 31.70327424770221,156.42457511241082 28.18893629265949,152.68869245704263 23.372991687152535,152.51887932315003 17.90624375687912,158.4623242225498 18.81736841145903,175.61323752021417 27.538132967893034,178.16038125671912 32.35407757339999,171.87741659930907 31.573113583028316,155.40569921641145 27.798454297706485,152.34906616492663 22.59202769678086,152.0094397731591 17.64592242660001,159.31138529616874 18.947529076598585,175.7830472763162 27.277811638079584,178.3301906407578 32.223916907794774,172.55665766075253" stroke="#4dd2ff" stroke-linecap="round" stroke-linejoin="round" stroke-width="0.5"><title>2023-12-28 2.9km</title><desc>1703769423000</desc></polyline><polyline fill="none" points="50.273237825836986,157.83339075697586 46.82397894188762,156.33338033687323 48.740233877208084,173.0000518776942 53.33924572262913,177.50001140648965 60.1100131617859,175.83336180110928 62.920520400162786,172.16672408941668 62.79277007095516,159.83340157847852 58.577009213157,152.50001140707172 53.21149539388716,152.16667436878197 48.612483548000455,155.00003608490806 48.612483548000455,173.16671736212447 52.82824440672994,177.33334655570798 57.42725625168532,177.83334103564266 62.53726941300556,173.16671736212447 61.8985177683644,157.33338750293478 57.42725625168532,152.33334289991762 50.40098815411329,152.50001140707172 48.10148223256692,155.00003608490806 48.35698289005086,171.5000614199089 52.061742432415485,177.50001140648965 58.06600789632648,177.66667623328976 61.13201579404995,175.00003608432598 61.77076743869111,158.16672613762785 58.3215085552074,152.16667436878197 49.76223650947213,153.00001678115223 47.46273058699444,157.83339075697586 50.01773716742173,176.00002687145025 56.91625493578613,178.0000058131991 62.66501974267885,171.5000614199089 60.74876480689272,154.166695134365 56.02200263226405,151.5 50.01773716742173,152.83334834722336 47.7182312454097,158.83339660661295 50.40098815411329,176.33335693844128 55.63875164510682,178.5 59.21576085779816,177.50001140648965 62.40951908426359,173.16671736212447 63.176021058578044,165.66674642788712" stroke="#4dd2ff" stroke-linecap="round" stroke-linejoin="round" stroke-width="0.5"><title>2023-11-08 2.1km</title><desc>1699431646000</desc></polyline><polyline fill="none" points="79.79475135030225,153.79093438549899 77.16077010519803,159.6818869812414 78.16419153194875,174.5727677618852 85.31356919649988,178.00909672433045 91.33409775514156,175.5545771131292 92.58837453881279,172.93641692830715 91.33409775514156,155.2636754421983 87.94755044113845,151.99091490660794 82.93044330831617,151.66363832645584 78.03876385372132,156.90005211986136 78.28961920971051,173.75459264428355 85.43899687472731,178.00909672433045 92.21209150366485,173.2636872860603 91.83580846851692,156.24550173606258 88.9509718674235,152.318191390601 84.31014776974916,151.5 78.16419153194875,158.04551437112968 78.28961920971051,173.918227715767 84.93728616088629,178.17273117334116 92.08666382497177,173.42732242960483 91.83580846851692,156.7364145600004 88.70011651096866,152.4818295969162 85.1881415178068,151.99091490660794 81.299883489497,152.80910593783483 77.9133361754939,157.71823956188746 78.4150468884036,173.1000521191163 81.04902813304216,177.19092411885504 86.44241830101237,177.84546225098893 90.45610400754958,176.3727509152377 92.83922989526764,171.3000637012301 91.83580846851692,155.91822640039027 84.43557544751093,151.5 81.299883489497,152.80910593783483 78.03876385372132,159.02733822411392 78.6659022453241,173.2636872860603 81.04902813304216,177.19092411885504 86.19156294455752,178.5 92.4629468601197,172.7727817130508 91.83580846851692,156.7364145600004 86.06613526586443,151.99091490660794 78.54047456663102,156.57277697592508 78.54047456663102,174.7364027139265 84.81185848312452,178.5 92.08666382497177,174.24549778655637 92.08666382497177,157.06368965632282 89.57811025902629,152.80910593783483 84.31014776974916,151.5 78.4150468884036,156.57277697592508 78.79132992355153,173.1000521191163" stroke="#4dd2ff" stroke-linecap="round" stroke-linejoin="round" stroke-width="0.5"><title>2023-10-27 2.9km</title><desc>1698413800000</desc></polyline><polyline fill="none" points="111.48686697892845,153.0000167810358 107.39885764522478,156.83338402980007 109.44286231184378,175.66669670597184 118.00213185418397,177.50001140672248 122.2178914793767,171.16672993870452 121.3236394370906,155.00003608467523 117.2356301038526,151.5 111.99786814535037,151.5 108.80411085346714,153.6666902723955 107.78210852015764,159.50006668525748 109.31511201988906,175.50003158731852 117.61888097925112,178.16667056665756 120.68488797917962,176.833351856214 122.60114235430956,171.33339569158852 120.81263827066869,155.00003608467523 112.76436989568174,152.5000114068389 107.9098588116467,157.66672302992083 108.9318611449562,175.00003608420957 116.46912835398689,178.5 122.2178914793767,173.16671736247372 120.94038856215775,155.3333722942043 113.65862193750218,152.00000581296626 107.9098588116467,156.83338402980007 109.05961143691093,175.16670127643738 113.65862193750218,178.33333529543597 118.12988214567304,177.83334103494417 122.2178914793767,172.5000552778365 121.45138972904533,156.16671239130665 117.49113068729639,152.1666743683163 110.72036522813141,152.83334834768903 107.52660793671384,158.3333937911084 110.20936406217515,176.833351856214 116.21362777007744,178.16667056665756 121.1958891460672,175.16670127643738 122.2178914793767,162.66674423450604 121.96239089500159,157.33338750316761 118.38538272865117,152.33334289945196 113.01987047865987,152.1666743683163 108.29310968704522,155.3333722942043 108.16535939509049,172.83338636881672 110.72036522813141,177.33334655535873 117.87438156269491,178.16667056665756 121.3236394370906,175.00003608420957 121.83464060397819,157.8333907565102 117.49113068729639,152.33334289945196 109.31511201988906,153.83335858397186 108.03760910360143,171.66672712389845 111.48686697892845,177.66667623294052" stroke="#4dd2ff" stroke-linecap="round" stroke-linejoin="round" stroke-width="0.5"><title>2023-10-21 2.9km</title><desc>1697891041000</desc></polyline><polyline fill="none" points="137.81743507133797,151.5 138.30438862601295,172.30594168405514 142.32175545021892,178.18235684302635 151.20865781931207,175.9588521438418 151.20865781931207,157.0588784016436 148.77389004686847,153.8823799417587 144.2695696684532,152.92942859232426 138.30438862601295,157.21770308096893 139.15655734576285,175.64120824378915 143.9043545019813,178.34117843292188 148.89562843600288,177.38824854406994 151.33039620751515,174.21180954331066 151.6956113735214,159.44124614959583 146.58259905176237,153.08825387549587 138.6696037920192,156.26475465786643 138.1826502373442,172.1471192111494 140.49567962111905,177.0706050619483 146.46086066309363,178.5 150.3564890990965,176.59413966536522 151.8173497626558,160.71184014517348 151.20865781931207,156.58240422513336 147.67824454978108,153.56472958507948 139.5217725117691,155.78828013280872 138.4261270146817,174.68827598600183 143.29566255863756,178.5 151.20865781931207,175.80003020563163 151.6956113735214,157.69417697924655 149.1391052128747,154.3588553033769 144.63478483399376,153.56472958507948 138.79134218022227,157.3765277370112 138.54786540288478,173.10005369863939 142.20001706155017,178.18235684302635 147.92172132665291,178.02353522996418 151.93908815085888,174.21180954331066 152.18256492866203,160.87066428991966 151.08691943064332,156.58240422513336 147.19129099464044,153.72355477511883 142.8087090048939,153.8823799417587 138.1826502373442,157.69417697924655 138.91308056889102,174.37063171423506 142.6869706157595,178.18235684302635 147.79998293798417,177.86471359303687 151.8173497626558,173.89416513266042 151.57387298485264,157.8530015652068 146.58259905176237,153.40590437164064 139.5217725117691,155.62945524486713 137.93917345954105,161.98243265401106 140.00872606644407,176.911783286836 143.53913933690637,178.5 149.99127393309027,176.911783286836 151.6956113735214,163.57067119912244" stroke="#4dd2ff" stroke-linecap="round" stroke-linejoin="round" stroke-width="0.5"><title>2023-10-16 3.1km</title><desc>1697460359000</desc></polyline><polyline fill="none" points="166.81066067703068,155.30985495168716 168.842124695424,173.6963660841575 174.80955024808645,178.5 183.06237282138318,173.36508023599163 182.04664081288502,155.80679160915315 177.22191376937553,151.5 171.00055521400645,152.49387644033413 168.4612251915969,155.14420935045928 168.842124695424,173.36508023599163 175.06348325079307,178.33435779006686 179.5073107900098,177.34050402313005 182.93540632072836,171.87429271859583 181.91967431129888,155.6411460810341 175.06348325079307,151.6656461340608 168.842124695424,155.30985495168716 168.9690911960788,173.53072317223996 173.03201923239976,178.00307329790667 178.11067927768454,177.83743101579603 183.18933932296932,173.19943727517966 182.68147331802174,158.1258264617063 176.71404776489362,151.6656461340608 170.7466222117655,153.15646024933085 168.7151581943035,156.13808259309735 168.9690911960788,173.53072317223996 171.38145471783355,177.17486164346337 176.33314826199785,178.5 182.80843981960788,173.53072317223996 181.15787530411035,153.98468946525827" stroke="#4dd2ff" stroke-linecap="round" stroke-linejoin="round" stroke-width="0.5"><title>2023-10-12 1.8km</title><desc>1697101056000</desc></polyline><polyline fill="none" points="17.20642480161041,190.38614482281264 19.30217611603439,206.10762012621854 27.947150284890085,207.64557917881757 32.53160628443584,201.83550102752633 30.697823884896934,184.9177560057724 21.92186525836587,182.01266403798945 17.730362630449235,187.13929204898886 18.90922274440527,205.4240821202984 27.030259085819125,208.15823174640536 32.13865291280672,203.54435054119676 31.48373062768951,187.3101792621892 26.24435234302655,182.35443993890658 22.052849715109915,182.35443993890658 18.254300458356738,185.94308085832745 17.992331544402987,202.34815614379477 21.52891188673675,207.98734758235514 30.43585497047752,206.79115773318335 32.79357519838959,201.83550102752633 31.745699541643262,186.45574294694234 27.947150284890085,182.52532785153016 22.052849715109915,182.1835520005552 17.992331544402987,186.62663025967777 18.385284916032106,203.88612014369573 21.397927429527044,207.64557917881757 25.85139897139743,208.15823174640536 31.876683998852968,204.5696590502048 32.40062182722613,201.4937308243243 30.959792798850685,184.74686844309326 24.017616571858525,181.84177605051082 17.86134708765894,186.79751754796598 18.516269373241812,204.5696590502048 24.54155440023169,208.5 30.566839427221566,206.62027336878236 32.26963737048209,203.37346570240334 31.48373062768951,186.9684048112249 24.410569943487644,181.5 17.730362630449235,187.13929204898886 19.433160572778434,205.93673566239886 27.16124354302883,207.81646339269355 31.352746170014143,205.25319755647797 32.40062182722613,200.81019011954777 31.09077725606039,185.25953105674125 26.637305714190006,181.67088803788647 20.612020686734468,182.52532785153016 17.730362630449235,187.99372786399908 19.171191658824682,205.5949666594388 23.624663200695068,208.5 28.602072570938617,208.15823174640536 32.40062182722613,198.75956560508348" stroke="#4dd2ff" stroke-linecap="round" stroke-linejoin="round" stroke-width="0.5"><title>2023-10-10 2.9km</title><desc>1696942258000</desc></polyline><polyline fill="none" points="54.04281819937751,205.55262200058496 55.939121766597964,204.44439391013293 60.07486954657361,204.96313992375508 60.725030769594014,205.69409737778187 59.803969036904164,206.99094920723292 60.36383009015117,208.5 63.88553671492264,207.32105527706153 64.82465848163702,206.07136444227945 65.83602038410027,203.05320316445432 66.0166207238799,195.60187515296275 64.06613705470227,192.1826376451063 64.51763790403493,190.9328292532009 66.43200150527991,189.2821240483463 66.75708211679012,188.31527456500044 66.55842174310237,187.13618196752213 65.40257956879213,185.60334867464553 65.2219792290125,184.1648303034017 59.135747779975645,181.5 50.7378319822019,182.51405567086476 45.897742877248675,181.73582747044566 43.242917883209884,182.46689043255174" stroke="#4dd2ff" stroke-linecap="round" stroke-linejoin="round" stroke-width="0.5"><title>2023-10-07 3.0km</title><desc>1696669067000</desc></polyline><polyline fill="none" points="79.92252212995663,182.84162991598714 77.3516472587362,186.86651024583261 78.12290972005576,201.12118113820907 83.26465946203098,208.16460017219651 88.2778654601425,207.49380022333935 92.6483527412638,203.63669290184043 92.13417776674032,186.86651024583261 85.57844684645534,181.83540762588382 81.07941582193598,182.84162991598714 77.73727848939598,187.36961929430254 78.76562843751162,204.3074951072922 83.39320320589468,208.5 87.63514674268663,208.16460017219651 92.3912652535364,203.63669290184043 91.87709027901292,187.36961929430254 86.73534053843468,182.33851888112258 78.76562843751162,184.51866510347463 78.3799972073175,203.63669290184043 83.7788344360888,208.5 88.14932171721011,208.16460017219651 92.13417776674032,203.80439348972868 91.4914590488188,186.1956978389062 85.83553433278576,181.66770382528193 77.60873474599794,185.86029148800299 78.89417218137532,204.13979459297843 85.44990310212597,207.82920024706982 92.26272151013836,203.63669290184043 91.62000279221684,186.02799467591103 84.80718438467011,181.5 77.73727848939598,185.5248850391945 78.25145346391946,203.46899228950497 83.0075719752349,207.82920024706982 89.69184663938358,206.82299988158047 92.00563402287662,203.13359099067748 91.87709027901292,187.0342132867081 86.73534053843468,181.83540762588382 78.12290972005576,185.3571817780612 78.63708469411358,204.3074951072922 84.55009689740837,208.5 90.72019658749923,206.31989936868194 92.26272151013836,203.30129165260587 91.62000279221684,186.1956978389062 85.70699058938771,181.66770382528193 81.33650330919772,182.17081515409518 77.86582223325968,186.1956978389062 78.3799972073175,203.63669290184043 82.36485325777903,207.99690022179857" stroke="#4dd2ff" stroke-linecap="round" stroke-linejoin="round" stroke-width="0.5"><title>2023-10-06 2.9km</title><desc>1696597953000</desc></polyline><polyline fill="none" points="108.68619011976261,183.3565927369982 108.59524700598558,183.2005930129444 108.24157934131654,182.8292632095836 108.10684880238841,182.0118658612846 108.069797904187,181.94374740801595 108.10348053891357,181.8844181809227 108.23989520958276,181.8646417198197 108.64577095807908,181.8668391056699 108.6255613772446,181.72840316921884 108.30220808383456,181.7701538240899 106.89932634730212,181.77235122376533 104.96089071856113,181.85365478573658 104.7385853293381,181.8844181809227 104.39333832334523,182.00527376640093 103.15550149699993,182.59855072100527 102.65363023951795,182.79410724964964 102.41279940120148,182.97428067472538 102.60815868263307,184.12558178961808 102.73615269460424,186.4345095700337 102.78162425148912,189.20651180519508 102.75299401197844,189.5161887092445 102.77320359281293,191.1698871662784 102.68899700598558,191.35435221161788 102.77320359281293,191.58712630102855 102.79172904191364,193.73462669727087 102.76141467065463,194.65457649763994 102.46669161676255,194.76654745309406 102.31343562874099,194.94438196318515 101.51852544910071,194.9312091086158 101.5,194.95755480621847 101.58589071856113,194.97072763771484 101.57747005987767,195.02122338489698 101.51684131736693,195.03659162213808 101.53031437125173,195.05854621951676 101.95808383233816,195.04537346493726 102.30164670658269,195.0717189625684 102.48690119759704,195.28906755732078 102.72267964071216,195.34614848572983 102.78162425148912,195.3900567447954 102.79341317364742,196.8367621983134 102.6755239520935,197.03652394637083 102.60815868263307,197.35921039777713 102.61657934130926,197.47116122293664 102.77825598802156,197.47774653965553 102.80688622753951,197.64018343945736 102.79509730538848,199.67049673251404 102.69741766467632,199.86363659167364 102.69236526946042,200.02824246953332 102.63847305389208,200.0984737627523 102.53574101795675,200.15553644714146 102.67383982035244,200.08311069536558 102.76646706586325,200.2213777371844 102.7698353293381,200.3311125804421 102.8506736526906,200.48912934897453 102.92645958084177,201.05973164424358 103.06455838323018,202.76263140735955 103.0308757485036,203.21465749060553 102.94161676646036,203.40116915152248 102.69741766467632,203.71055398709086 102.71425898203597,203.92777783805377 102.96182634730212,204.06600956576585 103.10834580838127,204.21521064113495 103.20939371257555,204.43023311921024 103.32559880239569,204.8953732785576 103.51085329341004,205.31223196525298 103.8948353293381,205.88703922397326 104.81605538921576,207.16601633567097 105.1511976047841,207.50603485284864 105.09056886227336,207.4577746275927 105.0501497005971,207.4687428741845 105.67159431137407,207.78901215234418 105.96631736526615,207.8723687925949 106.28293413173378,207.90746618728735 107.84749251497124,207.9250148539668 108.45546407185611,207.89649826023742 108.59019461077696,207.99082217188243 108.7552395209641,208.25404856796376 108.90175898203597,208.27159683078207 108.99607035927329,208.0544356391838 109.15269461077696,207.81533535174367 109.52151946107915,207.51480942263697 112.5815868263453,206.40697955944597 112.68600299401442,206.3762662833151 112.70958083832375,206.43111137531923 112.66242514970509,206.36090962175786 112.60853293412947,206.46182453958045 112.64053143712226,206.43549897404228 112.65905688622297,206.4552431525144 112.67421407184884,206.37187866732802 112.73147455089202,206.4552431525144 112.70958083832375,206.37846009082932 112.76684131736693,206.34335913222367 113.36639221556834,206.16785311180683 114.08046407184884,206.13494550522955 115.96500748503604,206.16127159624102 118.3867889221583,206.13275166223593 118.5198353293381,206.16127159624102 119.4056886227554,206.13494550522955 120.27133233533095,206.16565927360534 121.53779940120148,206.12836397528554 121.96388473053958,205.9879573177859 122.62743263472657,205.86948818209112 124.23914670658269,205.73566081498575 125.53592814371223,205.7575998091461 125.84749251497124,205.73566081498575 126.18431886227336,205.63693494567542 126.54640718563314,205.45045098182345 126.89165419161873,205.16304176148424 126.84449850298552,205.18278760863177 126.77544910179859,205.13671392500328 126.70134730538848,205.2091153645424 126.78218562874099,205.13232594777946 126.8815494011942,205.17401167975459 126.94386227545328,205.1411019009438 127.16616766466177,205.12793796927144 127.40868263473385,204.85368677506995 127.43057634730212,204.58820686037507 127.85160928143887,204.17352225423474 128.12107035928784,203.85975858544407 128.22043413174106,203.64472795885195 128.27432634730212,203.40775187380405 128.36021706586325,196.10793860192916 128.39389970060438,195.89499251196867 128.39221556886332,195.3768842805348 128.47642215569067,195.15295062310724 128.5,194.8807130592295 128.4949476047841,194.54480024189888 128.42252994012233,194.33402758483226 128.4258982035899,193.80049609502657 128.35853293412947,192.36008610570025 128.39221556886332,189.95323958443896" stroke="#ff0000" stroke-linecap="round" stroke-linejoin="round" stroke-width="0.5"><title>2023-09-14 39.1km</title><desc>1694696482000</desc></polyline><polyline fill="none" points="144.69565367279574,181.5 137.63481887197122,188.3294751845533 138.48698858963326,201.82947419618722 141.40871333470568,206.91178328637034 147.4956398862414,207.38824854465201 152.36518112802878,203.10005369817372 151.51301141036674,186.42357945349067 147.25216282438487,181.97647640679497 142.13914452074096,182.770603285986 138.24351152777672,187.05887840176 138.8522041826509,204.68827598600183 145.06086926534772,208.5 152.24344259686768,203.4176983416546 151.51301141036674,187.535352369654 148.34780960390344,183.40590437175706 143.11305276909843,182.770603285986 137.63481887197122,188.3294751845533 138.7304656514898,202.62358655931894 144.57391514163464,207.8647135932697 149.44345638295636,206.7529614875093 151.7564884731546,203.89416513219476 151.2695343485102,186.42357945349067 147.61737841786817,182.6117779565975 142.01740598957986,182.9294285926735 138.36525005847216,186.26475465798285 138.60872712079436,204.05298734956887 142.38262158306316,207.38824854465201 146.88694723136723,207.8647135932697 151.87822700385004,202.1471192111494 151.87822700385004,185.3118053986691" stroke="#4dd2ff" stroke-linecap="round" stroke-linejoin="round" stroke-width="0.5"><title>2023-09-11 1.8km</title><desc>1694438011000</desc></polyline><polyline fill="none" points="175.24657534249127,196.72912134061335 179.62328767124563,193.27094943705015 186.28082191757858,195.68362980266102 185.41780821909197,199.5438963713823 169.45205479464494,200.50895877956646 167.35616438370198,199.22220852551982 164.52054794528522,200.26769333635457 163.22602739743888,199.14178653480485 163.0410958903376,196.16616460564546 172.6575342467986,197.1312329415232 179.99315068498254,194.47729094314855 186.15753424656577,195.20109457644867 185.97260273969732,199.70474022370763 169.14383561629802,199.86558402900118 165.81506849313155,197.69418868847424 164.76712328800932,199.14178653480485 162.79452054784633,198.57883226958802 162.73287671245635,196.08574216801208 171.85616438346915,196.64869898522738 181.47260273969732,194.31644556182437 186.65068493131548,195.4423622424947 185.23287671222351,199.70474022370763 172.2876712330617,199.46347442740807 165.75342465774156,200.58938057057094 162.42465753434226,198.57883226958802 162.5479452055879,196.2465870315791 176.8493150684517,195.92489725718042 183.38356164377183,194.39686825824901 186.58904109569266,195.52278477448272 185.47945205471478,199.62431830348214 169.26712328777649,199.86558402900118 165.32191780838184,200.83064587268746 163.22602739743888,199.78516213217517 161.5,196.88996601616964 161.99315068521537,196.08574216801208 166.98630136996508,196.4074318485218 173.45890410942957,195.12067199742887 178.57534246565774,196.0053197183879 185.91095890384167,195.12067199742887 185.91095890384167,188.847674608347 188.5,189.0085215891013 185.5410958903376,188.52598050562665 185.10958904097788,199.5438963713823 172.16438356158324,199.30263050476788 164.4589041096624,201.47401949443156 162.36301369895227,197.4529220102704 162.73287671245635,196.4878542391234 173.21232876717113,195.20109457644867 178.7602739725262,196.08574216801208 182.64383561629802,195.28151714347769 186.21917808195576,196.16616460564546 185.72602739697322,200.02642778703012 169.14383561629802,199.70474022370763 168.34246575366706,200.83064587268746 164.33561643841676,201.47401949443156 163.16438356181607,200.42853697692044 162.73287671245635,196.16616460564546 171.42465753434226,193.91433190292446 174.93835616461,195.12067199742887 178.57534246565774,194.87940419034567" stroke="#4dd2ff" stroke-linecap="round" stroke-linejoin="round" stroke-width="0.5"><title>2023-08-30 4.9km</title><desc>1693396264000</desc></polyline><polyline fill="none" points="15.23067120462656,213.51244428521022 18.572810003068298,217.03421328705736 20.758054601494223,233.97209405410103 25.257087599486113,237.99690022249706 34.126609795261174,232.96589030476753 34.25515359593555,214.51866510382388 26.156894199550152,211.66770382528193 19.472616602201015,215.3571817779448 20.88659840123728,234.64289606327657 24.871456199791282,238.5 30.27029579784721,238.16460017266218 34.64078499563038,235.14599731226917 34.64078499563038,217.20191630290356 32.06990899704397,212.84162991598714 26.928156998939812,211.66770382528193 19.858248001895845,217.36961929430254 21.143686002120376,235.31369767943397 24.61436859983951,238.3323000984965 34.512241195421666,233.80439349031076 34.38369739567861,216.86651024629828 31.94136519683525,213.00933354522567 26.799613199196756,211.83540762588382 21.914948801975697,213.34474073001184 19.72970420215279,216.86651024629828 20.50096700200811,234.13979459286202 27.05670079914853,238.16460017266218 34.512241195421666,234.81059650389943 34.126609795261174,216.86651024629828 32.19845279678702,213.51244428521022 25.514175199903548,211.83540762588382 19.72970420215279,215.69258827588055 20.50096700200811,233.13359099067748 26.799613199196756,238.3323000984965 31.94136519683525,237.32610017526895 34.64078499563038,233.6366929024225 33.740978395566344,215.5248850393109 28.856313998345286,211.5 20.629510801751167,215.0217751818709 20.629510801751167,233.6366929024225 23.586018200498074,237.6615002474282 30.398839597124606,237.99690022249706 34.512241195421666,233.46899228950497 34.38369739567861,218.87894511432387 30.141751997638494,212.170815154328 20.88659840123728,214.6863684875425 20.372423202265054,232.2950873146765 24.357281000353396,237.49380022357218 30.784470997285098,237.99690022249706 34.126609795261174,235.31369767943397 34.76932879537344,221.89759079378564" stroke="#4dd2ff" stroke-linecap="round" stroke-linejoin="round" stroke-width="0.5"><title>2023-08-25 3.1km</title><desc>1692968645000</desc></polyline><polyline fill="none" points="59.35483870934695,220.31280009931652 58.91935483831912,224.1951437544776 68.1370967742987,224.57390774285886 68.5,229.68719990062527 41.5,229.59250967216212 41.935483870562166,225.04736241674982 57.90322580607608,225.04736241674982 65.8870967742987,223.43761511310004 68.06451612897217,224.38452577602584 68.2096774186939,229.21374861942604 59.06451612897217,229.30843890324468" stroke="#4dd2ff" stroke-linecap="round" stroke-linejoin="round" stroke-width="0.5"><title>2023-08-24 1.1km</title><desc>1692883156000</desc></polyline><polyline fill="none" points="85.3379449674394,238.5 85.41746143030468,238.11098019758356 85.6162525875261,238.26658822098398 85.03975823160727,222.00481134827714 84.56265945418272,219.0220269482379 85.3379449674394,218.4514016063913 84.58253856992815,217.7510861771152 84.84096707426943,214.94979680079268 84.38374741259031,211.5" stroke="#4dd2ff" stroke-linecap="round" stroke-linejoin="round" stroke-width="0.5"><title>2023-08-21 1.2km</title><desc>1692620048000</desc></polyline><polyline fill="none" points="115.56658891425468,229.02468051756296 115.20603233244037,229.79751953664527 115.46357274800539,238.5 115.32192551944172,227.69740137329063 115.0,225.54684058270504 115.09013914543903,223.09380802355008 114.51067321043229,212.23935023228114 114.83259872987401,211.65123111658613 115.37343360256637,211.5 114.74245958449319,211.56721385417768 114.43341108574532,212.12172665009712 114.45916512730764,215.81841020203137 115.01287702081027,222.64015927595756 114.84547575068427,225.00919409366907 115.19315531163011,227.12616259037895 115.52795785182388,238.4832004797354 115.24466339475475,230.80556261688616" stroke="#4dd2ff" stroke-linecap="round" stroke-linejoin="round" stroke-width="0.5"><title>2023-08-10 4.8km</title><desc>1691669615000</desc></polyline><polyline fill="none" points="146.80481283413246,224.0110793687054 149.18716577533633,221.27972575224703 157.20053475908935,221.27972575224703 157.9946524067782,226.64823738660198 132.2941176467575,227.8726285097655 131.5,223.8227105255355 140.5962566845119,220.62043176451698 146.44385026721284,222.31575779797276 157.34491978632286,221.93901906500105 158.5,225.89476476906566 143.6283422461711,227.6842607963481 132.8716577538289,227.2133412710973 131.57219251291826,226.83660540293204 131.5,225.14129127009073 133.1604278073646,222.4099424466258 141.3903743312694,223.1634191412013 151.5695187165402,221.27972575224703 157.85026737954468,221.84483434748836 157.4171122997068,226.55405335745309 138.86363636376336,227.9668123460142 131.9331550798379,227.11915732483612 131.9331550798379,223.54015715781134 133.9545454545878,222.59831170312827 148.3208556151949,223.35178817703854 150.5588235296309,222.12738845899003 158.06684491969645,222.22157313558273 158.06684491969645,226.64823738660198 142.2566844918765,227.02497336477973 137.05882352916524,229.19120096275583 132.51069518737495,227.4958930273424 131.6443850263022,224.67036988545442 132.5828877002932,223.7285260835779 142.04010695172474,223.25760366610484 143.3395721926354,222.03320376906777 148.39304812811315,223.7285260835779 158.28342245984823,222.59831170312827 158.06684491969645,226.74242140172282 137.4919786094688,227.7784446599544 132.0775401070714,226.45986931480002 132.0053475932218,223.54015715781134 133.59358288766816,222.4099424466258 148.9705882356502,223.54015715781134 158.5,222.69249631051207 157.9224598929286,226.9307893908117 141.1737967915833,227.4958930273424 138.6470588236116,229.00283363478957 133.0882352939807,227.8726285097655 132.2219251333736,225.51802812964888 133.23262032074854,223.25760366610484 148.68181818164885,223.91689495416358 158.2112299464643,222.5041270814836 158.42780748661608,227.02497336477973 144.4224598929286,226.9307893908117 140.8850267380476,227.4958930273424 139.4411764703691,229.3795682354248" stroke="#4dd2ff" stroke-linecap="round" stroke-linejoin="round" stroke-width="0.5"><title>2023-08-08 4.7km</title><desc>1691498421000</desc></polyline><polyline fill="none" points="176.92443649237975,211.5 177.1241421661107,220.33470591754303 178.19529077969491,220.68997891817708 178.14082559593953,221.21104457628098 171.8047092204215,221.0215663490817 172.53091167018283,222.60843965646927 172.82139265025035,233.33719011524227 173.31157930393238,237.0080122128129 173.8380760801956,238.5" stroke="#4dd2ff" stroke-linecap="round" stroke-linejoin="round" stroke-width="0.5"><title>2023-08-04 1.6km</title><desc>1691107871000</desc></polyline><polyline fill="none" points="24.434554973850027,253.06356320006307 32.06806282722391,251.3115291815484 37.510471204295754,252.2336529561435 38.14659685874358,257.3975211729994 27.473821989726275,256.7520399586065 11.853403141489252,258.13521318056155 11.924083769554272,255.00001618842361 13.973821989726275,252.69471433776198 19.416230366565287,251.95701596525032 24.71727748727426,252.8791387960664 32.28010471211746,250.48161663144128 38.00523560238071,252.51028982555727 38.35863874363713,257.3053096116055 11.853403141489252,258.0430017267354 11.924083769554272,254.72338041168405 14.115183246321976,252.69471433776198 20.759162303525954,251.49595404439606 24.010471204295754,252.6025020882371 37.439790576230735,252.6025020882371 38.5,257.3975211729994 12.701570680830628,258.504058860708 11.5,256.5676166333142 12.772251309128478,254.26232051325496 20.405759162502363,252.04922830912983 37.369109947932884,252.51028982555727 37.93455497385003,257.21309803659096 12.842931937193498,258.504058860708 12.206806282745674,254.53895649279002 17.578534031519666,252.97135100484593 28.958115183282644,253.89347235218156 38.14659685874358,252.8791387960664 38.21727748727426,256.9364632302313 13.973821989726275,258.41184746084036 11.641361256595701,257.0286748458748 12.418848167872056,254.6311684589018 18.780104712117463,252.69471433776198 38.07591623067856,253.34019970556255 38.14659685874358,256.8442516013165 22.526178010739386,257.5819442560896 18.07329842960462,259.5183833685587 14.75130890053697,258.9651156574255 12.913612565491349,258.0430017267354 12.418848167872056,255.00001618842361 17.649214660050347,252.6025020882371 28.887434555217624,254.3545325200539 37.722513088956475,253.06356320006307 38.28795811533928,257.3053096116055 22.879581151995808,256.9364632302313 17.86125654471107,258.504058860708" stroke="#4dd2ff" stroke-linecap="round" stroke-linejoin="round" stroke-width="0.5"><title>2023-07-26 4.8km</title><desc>1690377436000</desc></polyline><polyline fill="none" points="50.5,253.49708411691245 65.62000000011176,251.24268283619313 68.42799999983981,251.8062838979531 67.8519999999553,256.78473846788984 50.21200000029057,256.97260392288445 43.66000000014901,259.22698509308975 41.78799999970943,257.2544020017376 42.1480000000447,253.5910173318116 48.34000000031665,251.24268283619313 52.73199999984354,252.74561790260486 67.8519999999553,251.90021736058407 67.70800000010058,256.31507459114073 43.15599999995902,258.47552558220923 41.5,256.50294018298155 42.075999999884516,253.7788837206317 47.90800000028685,250.96088211983442 52.15599999995902,250.77301490691025 55.39600000018254,252.74561790260486 61.73199999984354,250.96088211983442 67.99599999981001,251.99415080901235 68.0679999999702,256.87867120222654 41.9320000000298,256.97260392288445 41.9320000000298,253.5910173318116 43.15599999995902,253.02741783601232 58.420000000391155,252.65168456389802 64.03599999984726,250.96088211983442 68.2839999999851,251.99415080901235 67.92399999964982,256.69080572010716 41.9320000000298,257.16046932234894 42.075999999884516,253.49708411691245 45.027999999932945,252.27595107199159 57.84400000050664,252.46381784550613 64.03599999984726,250.77301490691025 68.5,251.99415080901235 67.92399999964982,256.87867120222654 42.364000000059605,257.72406519192737 42.868000000249594,253.21528438961832 55.10800000000745,252.65168456389802 62.524000000208616,250.86694852029905 68.21199999982491,252.08808424370363 68.14000000013039,256.78473846788984 41.9320000000298,256.78473846788984 42.29200000036508,253.21528438961832 51.580000000074506,254.530348726199 63.10000000009313,250.86694852029905 68.35600000014529,251.90021736058407 68.2839999999851,256.87867120222654 43.083999999798834,257.4422673190711" stroke="#4dd2ff" stroke-linecap="round" stroke-linejoin="round" stroke-width="0.5"><title>2023-07-24 4.9km</title><desc>1690201802000</desc></polyline><polyline fill="none" points="88.09070937347133,241.80918372313317 88.05121149017941,241.5 86.92552181414794,242.1441321441962 86.76753028074745,243.0716782946256 87.20200699777342,248.81720258526911 88.24870090687182,249.30672289905488 88.28819879039656,249.71894947676628 83.64719749463256,249.92506240401417 81.13908190082293,249.64165706688073 81.94878850982059,250.54339973890455 82.14627792662941,251.72854023214313 82.38326522696298,262.7293552663323 83.50895490287803,268.5 82.77824406058062,265.69198665853764 83.64719749463256,264.919131097442 82.91648665233515,242.35025393293472 87.93271784007084,242.01530590372568 88.54493503225967,241.88647956910427 88.64367974072229,241.52576533101092 88.86091809917707,241.96377538118395" stroke="#4dd2ff" stroke-linecap="round" stroke-linejoin="round" stroke-width="0.5"><title>2023-07-24 3.0km</title><desc>1690157385000</desc></polyline><polyline fill="none" points="115.18140674883034,259.79373846709495 115.68675412045559,268.5 115.32394062291132,256.86896365902066 115.05183049966581,255.58406809056032 115.29802537307842,254.48513291648123 115.10366099938983,253.94411483879958 114.55944075295702,242.70050969385193 114.88338137581013,241.85508163082704 115.4923897467088,241.58454334440466 114.9481695004506,241.5338173451819 114.5076102532912,242.22707074056234 114.5076102532912,245.8454477910127 115.01295762491645,253.8595805353325 115.12957624916453,252.91279211294022 114.4557797536254,242.59905865287874 114.68901700212155,241.92271610349417 115.29802537307842,241.56763468044664 114.84450850106077,241.5 114.35211875429377,242.37924775850115 114.31324587960262,245.72709145543922 114.80563562631141,254.1300900886199" stroke="#4dd2ff" stroke-linecap="round" stroke-linejoin="round" stroke-width="0.5"><title>2023-07-22 4.9km</title><desc>1690030226000</desc></polyline><polyline fill="none" points="141.78209478687495,252.69520053523593 137.1129774195142,249.89641083835158 139.13205520017073,264.3841881727567 143.0440183999017,267.3475742052542 149.35363646410406,266.03051470941864 152.5084454966709,260.59762800252065 151.37271424476057,246.76834353117738 148.97505938028917,242.65245225431863 144.68451909674332,241.5 138.12251631030813,244.7927175963996 139.38443992240354,263.23175816470757 141.90828714799136,267.0183094756212 145.5678656254895,268.00610337546095 152.8870225804858,262.0793269771384 152.129868412856,250.0610457189614 147.2083663227968,241.66463610855862 141.65590242575854,242.15854428964667 137.6177468644455,246.10980193840805 138.62728575477377,262.73785922897514 144.30594201292843,267.8414711188525 151.87748368969187,263.72565688437317 151.6250989669934,246.76834353117738 144.05355728976429,242.48781628976576 137.870131587144,246.93297886964865 138.8796704779379,264.71345367317554 144.05355728976429,268.5 152.63463785732165,262.9024922319222 152.00367605080828,250.22568057558965" stroke="#4dd2ff" stroke-linecap="round" stroke-linejoin="round" stroke-width="0.5"><title>2023-07-18 1.7km</title><desc>1689685608000</desc></polyline></svg>