<?xml version="1.0" encoding="utf-8" ?>
<svg baseProfile="full" height="300mm" version="1.1" viewBox="0,0,200,300" width="200mm" xmlns="http://www.w3.org/2000/svg" xmlns:ev="http://www.w3.org/2001/xml-events" xmlns:xlink="http://www.w3.org/1999/xlink"><defs /><rect fill="#222222" height="300" width="200" x="0" y="0" /><text fill="#FFFFFF" style="font-size:12px; font-family:Arial; font-weight:bold;" x="10" y="20">Over 10km Runs</text><text fill="#FFFFFF" style="font-size:4px; font-family:Arial" x="10" y="280">ATHLETE</text><text fill="#FFFFFF" style="font-size:9px; font-family:Arial" x="10" y="290">Yunlong</text><text fill="#FFFFFF" style="font-size:4px; font-family:Arial" x="120" y="280">STATISTICS</text><text fill="#FFFFFF" style="font-size:3px; font-family:Arial" x="120" y="285">Number: 45</text><text fill="#FFFFFF" style="font-size:3px; font-family:Arial" x="120" y="290">Weekly: 1.8</text><text fill="#FFFFFF" style="font-size:3px; font-family:Arial" x="141" y="285">Total: 221.5 km</text><text fill="#FFFFFF" style="font-size:3px; font-family:Arial" x="141" y="290">Avg: 4.9 km</text><text fill="#FFFFFF" style="font-size:3px; font-family:Arial" x="167" y="285">Min: 1.1 km</text><text fill="#FFFFFF" style="font-size:3px; font-family:Arial" x="167" y="290">Max: 39.1 km</text><polyline fill="none" points="12.379986419953639,46.42720910139178 11.710830079769948,46.45706595932279 11.5,46.34360978343102 11.623748090292793,45.97338218175719 11.84374469530303,45.788267126245046 12.118740451551275,45.72258093773053 12.118740451551275,45.459835130441206 12.297487693082076,45.41803450573207 12.746647428255528,45.44192058222325 19.167798336449778,44.85073609573374 19.69029027328361,44.88656570142484 20.455695128184743,44.737275471008616 21.665676455624634,44.62978616821056 21.959005262266146,44.67158759724407 22.256917331542354,44.564098122114956 25.556866406375775,44.21774122799252 27.894330334413098,44.05650512315333 28.233491767110536,44.10427885000172 28.60931930062361,43.99678788624442 31.748854184348602,43.83555091172457 31.79927007301012,44.02067479145262 32.50967577661504,44.00873134058929 32.72050585641409,43.81763565316214 33.58215922594536,43.728059242799645 38.5,43.54293404067721 34.393396706844214,43.650426195374166 32.74342216941295,43.7997203867526 32.40884399935021,43.69222862380775 31.721354608715046,43.745974540554016 31.638855881843483,43.69222862380775 31.53802410454955,43.84749441308668 31.331777287385194,43.88929664042007 26.569767441862496,44.128165692545736 17.893651332560694,45.00002591266821 17.265744355798233,44.988082747331646 14.107876421650872,45.36429078271976" stroke="#4dd2ff" stroke-linecap="round" stroke-linejoin="round" stroke-width="0.5"><title>2024-10-19 10.0km</title><desc>1729295146000</desc></polyline><polyline fill="none" points="61.84348477749154,58.5 60.28542344458401,57.21734252999886 59.15882524999324,55.3402689423674 46.45463284349535,44.73449344524124 48.61194853519555,42.66959098567895 53.933327241335064,35.41098763594346 57.576793742831796,31.5 58.487660368322395,31.844169784351834 63.54536715650465,36.38090149278287 61.48393216216937,39.13418135914253 58.05619723000564,43.107602265517926 57.049449907033704,43.60818548608222 51.63219050352927,38.66487479902571 55.49138857424259,33.4398588144104 57.8164954863023,31.5 63.52139698213432,36.44347642916546 60.35733396769501,40.47952111961786 57.16930077888537,43.60818548608222 51.68013085226994,38.85259754672006 51.77601154963486,38.03913111555448 57.24121130176354,31.6564408797567 58.05619723000564,31.562576365759014 62.97008297208231,35.66128840755846 63.44948645902332,36.193176573709934 63.281695238663815,36.97536264851806 57.8884060094133,43.2953211106942 57.00150955840945,43.51432622158609 51.63219050352927,38.727449066529516 51.752041375264525,37.97655664640479 56.498135896981694,32.532507690018974" stroke="#4dd2ff" stroke-linecap="round" stroke-linejoin="round" stroke-width="0.5"><title>2024-10-10 5.0km</title><desc>1728516073000</desc></polyline><polyline fill="none" points="95.35389182518702,55.32044669067545 92.53301727224607,58.5 91.22943130449858,58.165312676428584 86.33564136025961,53.64697626957786 85.82275507797021,52.61499551679299 75.75736178655643,44.554196760786 74.64610817481298,43.18745312401734 77.65931508375797,39.56135106565489 78.85604974254966,39.33820406938321 78.59960660140496,38.86401583456609 81.22814879845828,35.29361946246354 84.71150146611035,31.555789068792365 85.6731632455485,31.72315617716231 90.09680743096396,36.01886164091411 85.37397958082147,41.7928066533932 84.60465015738737,42.43434529780643 83.89943151909392,42.18330869427882 79.98867361608427,38.94769619705039 79.43304681021255,38.02721018822922 81.89062691305298,34.59626861049037 84.56190963392146,31.667367157380795 85.13890670146793,31.5 85.75864429271314,31.918417617751402 89.58392114855815,35.20993749493209 90.03269664570689,36.01886164091411 85.07479591609444,41.960164768926916 84.13450439844746,42.266987598879496 79.64674942777492,38.58508102752967 79.3475657630479,37.94352942144906 82.95914000144694,33.229453535881476 84.96794460737146,31.5 89.84036428981926,35.4051953619346 89.79762376635335,36.54884456380387 85.07479591609444,42.071736764293746 83.92080178088509,42.09962975284725 82.18981057789642,40.732868507970124" stroke="#4dd2ff" stroke-linecap="round" stroke-linejoin="round" stroke-width="0.5"><title>2024-10-05 4.9km</title><desc>1728122302000</desc></polyline><polyline fill="none" points="108.54641883540899,36.350347816129215 111.2767800972797,58.338325308519416 120.70893718395382,52.84137178666424 121.57768849423155,37.80544802627992 117.23393194144592,33.11678496142849 110.90445810742676,33.92517655855045 109.29106281604618,47.829419840243645 111.1526727671735,57.5299514986109 120.21250786352903,52.03299397206865 121.70179582433775,39.74557867087424 118.9714345629327,33.601819990202785 113.13839004887268,32.955106571433134 110.28392145689577,35.05692380503751 109.29106281604618,45.565950249903835 111.4008874273859,57.20660180982668 119.84018587321043,54.134775065700524 121.57768849423155,39.74557867087424 117.35803927155212,32.955106571433134 111.64910208806396,33.601819990202785 109.91159946657717,35.865313988528214 108.91874082572758,47.50606732419692 110.40802878700197,56.2365521780448 113.38660470908508,56.883252026862465 120.46072252374142,52.84137178666424 121.70179582433775,37.48209258879069 116.86160995112732,32.955106571433134 110.28392145689577,34.57188941235654 109.04284815629944,49.122828961815685 111.1526727671735,57.69162630813662 120.58482985384762,53.48807361465879 121.70179582433775,39.422223798930645 120.83304451406002,35.541957985726185 116.98571728169918,32.955106571433134 110.28392145689577,35.05692380503751 109.53927747672424,55.751527043641545 111.4008874273859,57.044926930218935 120.95715184416622,53.00304727931507 121.82590315444395,38.61383620707784 117.73036126233637,32.955106571433134 110.03570679621771,35.05692380503751 109.66338480636477,54.45812564983498 112.02142407791689,57.5299514986109 121.45358116459101,52.84137178666424 121.57768849423155,36.67370358295739 117.23393194144592,33.11678496142849 109.53927747672424,35.865313988528214 108.67052616598085,45.565950249903835 110.65624344721437,55.26650169771165 112.64196072844788,56.398227175464854 121.20536650437862,53.00304727931507 121.70179582433775,37.967125709401444 117.35803927155212,33.11678496142849 110.03570679621771,35.05692380503751 109.41517014661804,52.518020731862634 113.51071203872561,57.69162630813662 121.08125917427242,54.29645036929287 121.57768849423155,38.290481005446054 119.71607854263857,34.086854807450436 116.24107330059633,32.79342815768905 109.41517014661804,35.865313988528214 108.79463349562138,45.88930333114695 111.4008874273859,58.17665059340652 121.08125917427242,54.94315134908538 121.32947383401915,38.290481005446054 117.85446859197691,32.955106571433134 109.66338480636477,34.41021123412065 110.03570679621771,57.20660180982668 120.70893718395382,55.589851951925084 121.82590315444395,50.416236575343646 121.20536650437862,35.865313988528214 116.98571728169918,32.63174972019624 112.51785339834169,32.63174972019624 109.04284815629944,36.51202571147587 110.15981412678957,56.07487715652678 117.73036126233637,57.20660180982668 121.57768849423155,51.062939816503786 120.70893718395382,36.350347816129215 115.620536650531,32.30839277501218 110.65624344721437,33.27846332779154 107.92588218534365,35.21860188920982 110.03570679621771,55.42817683657631 114.37946334993467,58.01497585559264 119.71607854263857,57.368276666267775 121.82590315444395,51.70964268106036 120.58482985384762,35.865313988528214 118.35089791193604,33.440141670638695 111.77320941770449,33.601819990202785 108.91874082572758,38.12880336889066 110.03570679621771,55.589851951925084 118.72321990225464,57.5299514986109 121.57768849423155,53.48807361465879 120.70893718395382,34.89524569781497 114.8758926698938,32.30839277501218 109.41517014661804,35.865313988528214 110.03570679621771,55.26650169771165 113.01428271830082,57.85330109333154 118.84732723236084,57.5299514986109 121.70179582433775,50.739588242955506 120.70893718395382,33.92517655855045 112.89017538866028,32.955106571433134 109.16695548640564,37.80544802627992 109.66338480636477,54.94315134908538 113.01428271830082,58.5 116.36518063070253,58.338325308519416 121.45358116459101,52.84137178666424 120.58482985384762,33.76349828590173 113.13839004887268,32.63174972019624 109.04284815629944,36.67370358295739 109.04284815629944,53.16472274775151 113.13839004887268,57.368276666267775 117.23393194144592,57.85330109333154 121.82590315444395,52.518020731862634 121.20536650437862,35.21860188920982 115.99285864084959,32.470071259653196 109.29106281604618,36.67370358295739 109.53927747672424,51.386291296221316 112.39374606823549,55.751527043641545 118.35089791193604,56.883252026862465 122.07411781465635,51.062939816503786 121.82590315444395,36.51202571147587 116.61339529138058,31.5 109.41517014661804,35.865313988528214 109.53927747672424,53.48807361465879 114.25535601936281,57.69162630813662 120.95715184416622,54.61980090616271 122.07411781465635,37.32041483500507 117.48214660165831,32.30839277501218 110.15981412678957,33.92517655855045 109.29106281604618,52.67969627096318 116.24107330059633,57.5299514986109 120.70893718395382,55.42817683657631 122.07411781465635,36.83538143092301 116.98571728169918,31.661678602336906 109.53927747672424,35.38027994928416 108.42231150576845,50.739588242955506" stroke="#4dd2ff" stroke-linecap="round" stroke-linejoin="round" stroke-width="0.5"><title>2024-09-08 8.9km</title><desc>1725751236000</desc></polyline><polyline fill="none" points="145.1808413346298,32.112590444041416 147.35093735228293,31.5 146.6999085471034,31.829856537282467 147.38710561930202,44.03431182334316 153.46337446849793,42.24372560062329 154.87393687991425,43.139019951515365 154.36758114257827,45.40080516351736 154.69309554528445,57.604748184094205 140.11728396010585,58.5 135.74092365801334,57.98169661915745 136.17494286154397,48.6992135681794 135.16223138663918,42.29084641765803 135.12606311985292,33.00791285108426 135.99410152668133,32.159712737833615" stroke="#4dd2ff" stroke-linecap="round" stroke-linejoin="round" stroke-width="0.5"><title>2024-08-20 2.0km</title><desc>1724107925000</desc></polyline><polyline fill="none" points="179.2065217391355,32.444747336237924 173.56521739135496,32.103657095940434 173.72826086956775,37.94471668387996 173.51630434783874,38.285793184739305 167.59782608697424,37.092021921955165 167.1576086957357,37.98735129040142 167.2065217391355,43.03946340709808 166.68478260876145,43.06077996300883 162.36413043487119,40.84384136964218 161.51630434783874,41.078326862087124 161.5,56.10592445252405 181.26086956518702,57.896342904059566 181.35869565216126,54.63520704687107 180.7065217391355,47.06823679966328 181.73369565216126,46.87639298551949 185.92391304345801,47.11086872384476 187.17934782605153,46.83376099234738 188.05978260870324,47.13218468129344 187.78260869567748,46.599284806041396 188.5,46.172963495817385 187.211956521729,39.7140423184901 186.1684782608645,36.77226009356673" stroke="#4dd2ff" stroke-linecap="round" stroke-linejoin="round" stroke-width="0.5"><title>2024-08-18 4.9km</title><desc>1723938111000</desc></polyline><polyline fill="none" points="34.443861112056766,84.87138854208752 32.93284333415795,87.33648849208839 31.588037511799484,88.5 30.439664000528865,87.94782629986003 28.052255911403336,85.58134195210005 27.13053506682627,84.98971437026921 26.586568666796666,84.12198921720847 26.314585466810968,84.20087355295254 19.348793510522228,78.44219565209642 12.367891376488842,71.99297305631626 11.703043554269243,70.13901095344045 11.869255509867799,68.77810763835441 11.627492665371392,68.12723597510194 11.929696220962796,66.45073387435696 12.685205109941307,66.15487839639536 14.211333065584768,64.04442380268301 16.764953110308852,61.5 19.78698866616469,63.68939080875134 20.920251999632455,65.22786035749596 21.88730337744346,65.99708854247001 22.839244577568024,65.89846978985588 24.471143777715042,67.37774349730171 25.196432311146054,68.67949092178605 21.313116621924564,73.35384389283718 21.993074621947017,73.76801924470055 25.75550888897851,69.31063665996771 27.236306311329827,70.13901095344045 30.42455382278422,73.07772628414386 31.270723778405227,73.53134777100058 33.02350440080045,75.42470791822416 33.869674356421456,75.83887690318807 36.31752315670019,78.20553239014407 37.193913467926905,78.67885849825689 38.37250733462861,80.11854852194665 37.79832057910971,81.20323632235522 35.92465853440808,82.99788241377973 35.68289568996988,83.60923990885203 34.74606466770638,84.29947890769108" stroke="#4dd2ff" stroke-linecap="round" stroke-linejoin="round" stroke-width="0.5"><title>2024-08-14 5.1km</title><desc>1723587841000</desc></polyline><polyline fill="none" points="64.74818897573277,85.97594424164708 62.63129002926871,88.46589150284126 62.26540626073256,88.5 60.8802748513408,87.05038006593531 60.08317092701327,86.64107234880794 59.534345274209045,85.89067113280908 58.920183234266005,85.65190609599813 58.00547381292563,84.52629290318146 52.112131684145425,79.83612087347137 46.179587723105215,74.34411581286986 45.683031180058606,73.13311091373907 45.77450212225085,72.26322638594138 45.43475290859351,71.12042703592306 45.63076207024278,68.39130860591831 47.329508138413075,66.49794512863446 47.74766101670684,66.46383018911729 47.355642693291884,66.42971523968299 46.806817040545866,65.74741415165772 46.480135104386136,65.90093224492739 45.6568966251798,67.04378280184756 45.879040341766085,68.08427878130897 45.52622385072755,68.25485100602236 45.25181102426723,64.34868442667357 45.356349243898876,61.99468672552757 48.361823056824505,61.5 49.44640708487714,61.7217563781669 51.77238247054629,61.56823277670628 49.42027252999833,64.7239550259037 54.77785628341371,69.32945027811365 56.55500601622043,70.3187551294468 57.35210994054796,71.61507290684676 60.932543961156625,74.66818541123939 57.63959004438948,78.77867418661481 58.24068480695132,78.94923075303086 60.331449198536575,76.35674399560958" stroke="#4dd2ff" stroke-linecap="round" stroke-linejoin="round" stroke-width="0.5"><title>2024-08-10 5.2km</title><desc>1723241479000</desc></polyline><polyline fill="none" points="93.17520891362801,85.4549167984951 91.91169916430954,87.08433109683392 91.2799442896503,88.43888936055009 90.42256267409539,87.83032139827264 89.82089136482682,87.79105885431636 88.64763231197139,85.84754856022482 86.57186629524222,84.74817673064535 86.07548746519024,83.8058508468821 84.46601671306416,82.66719823672611 81.38245125341928,79.6045673834742 79.77298050140962,78.70147057407303 78.0281337047345,76.89525871023943 75.50111420603935,74.73562563557061 75.30557103059255,74.93195735226618 74.68885793862864,74.2055285647366 73.51559888571501,73.49872921065253 73.07938718661899,72.61522477920516 72.28217270190362,72.16365359969495 71.6955431754468,70.78929717469146 71.95125348184956,70.04321207368048 71.5,68.49212713052111 71.98133704729844,66.68577774746518 73.1245125348214,65.78259393072221 73.71114206122002,64.7223269049573 76.49387186631793,61.62001597182825 77.065459609963,61.561110639435356 77.12562674086075,61.875272113029496 77.4114206128288,61.83600196907355 78.73509749304503,62.81775211704371 79.23147632309701,63.583512242446886 80.61532033421099,64.60451894010475 81.0816155988141,64.64378827322798 81.75849582173396,66.13601440966886 83.1272980500944,66.4501651644241 84.60139275761321,66.29308987900731 85.57910863502184,66.90175558492774 85.84986072423635,67.92273701644444 85.62423398322426,68.25651772142737 82.66100278543308,71.3979424721183 81.39749303623103,73.55762929908815 81.8938718662248,73.75396274049126 82.75125348183792,72.9882606936153 84.4810584958177,70.61259318386146 85.57910863502184,69.4738285458734 86.03036211698782,69.37565872776031 91.80640668520937,74.08772893108835 92.93454038997879,75.50131770520238 94.72451253479812,76.83636008766189 95.58189415041124,76.93452444419381 95.79247910861159,77.58240739502071 96.55961002787808,78.03396032789897 96.8002785515855,78.56404226558516 98.5,79.36897749771015 98.24428969359724,80.58618745241256 94.84484679665184,84.1592238292069" stroke="#4dd2ff" stroke-linecap="round" stroke-linejoin="round" stroke-width="0.5"><title>2024-08-09 5.2km</title><desc>1723159591000</desc></polyline><polyline fill="none" points="123.64698572165798,85.36351127257512 123.82950784778222,85.74068780467496 122.84084633161547,86.23697111717775 122.11075782740954,87.16997882806754 122.04991711874027,87.68610799571616 121.15251666563563,88.5 119.58586841705255,86.33622756171098 119.05351221602177,86.27667370368727 118.27779318031389,85.36351127257512 117.13702989253215,84.84737326564209 116.66551440017065,84.4106395716517 116.7111449316726,83.91434957571619 116.37652103387518,84.11286579203443 103.15887707221555,72.77712437052105 102.20063591044163,71.38738858627039 101.86601201270241,70.3351505890314 101.57701864652336,67.77400888623379 101.72912041813834,66.3445134118665 103.1132465407718,65.37165370672301 105.15141028165817,62.6515803460934 106.53553640423343,61.5 107.08310278243152,61.519854916390614 110.76396565785399,64.71645854317467 111.66136611090042,65.07383811577165 111.85909841413377,65.92757439297566 114.6425608364516,67.59532277606195 114.9619745570235,68.27035795661504 119.3881361138192,72.00284476217348 119.50981753115775,72.34035180165665 115.90500554163009,76.56904527434381 115.69206306122942,76.9859515739372 115.93542589602293,77.28374100319343 116.60467369150138,77.04550951207057 118.26258300314657,74.78228947255411 120.30074674409116,72.91609716558014 128.42298135347664,79.96381643947097 127.25179771118565,81.7902078715124 125.44178662786726,83.53716796422668" stroke="#4dd2ff" stroke-linecap="round" stroke-linejoin="round" stroke-width="0.5"><title>2024-08-08 4.9km</title><desc>1723122982000</desc></polyline><polyline fill="none" points="158.4269192913489,73.97718026632356 158.46013779529312,73.95550234961411 158.46345964567445,74.0162004763879 158.5,73.87746171811341 158.45349409450137,73.80375648844347 158.1910679133871,73.9858514285479 157.82898622048378,73.6390029588656 157.74261811023462,73.62599606222466 157.63631889765384,73.72571545709798 157.52337598426675,73.64333858979808 157.4436515748239,73.66935236212157 156.7460629921261,74.50178101246456 155.7328986220382,75.47291820264218 152.30142716536648,79.50886601677121 152.10875984252198,79.61723512291428 147.2555364173313,75.49893036807771 146.2357283464662,74.83994846887617 146.0530265748239,74.5494715286386 145.97662401576235,74.21130075566361 145.07640255906153,73.76473599846577 144.64456200788845,73.87746171811341 144.2027559055132,73.8817973141413 143.32246555118763,73.76473599846577 142.39899114174477,73.75606477149267 134.51624015749258,74.06822734319394 133.99138779527857,74.03787834867035 133.63262795277114,73.83410572287539 133.22071850394423,74.07256291129488 131.6328740157478,74.14193191470804 131.5830462598533,74.1029118702827 131.5,72.27758345286566 131.51660925196484,71.56216276771556 136.67876476379752,71.34102924109357 136.7983513779618,71.3497011752097 137.8746309055132,71.85266900884199 138.36958661417884,72.00876073754262 143.71776574803516,72.03477594566175 144.2459399606305,71.93505085706056 145.45177165354835,71.39306080768802 145.97994586615823,71.40606868504256 146.47157972441346,71.28899758309126 146.48818897639285,71.19360597264313 148.1690452756011,70.46948691017496 148.37500000001455,70.51284783147821 148.73375984253653,70.43913422747755 150.36146653543983,70.38276487708754 150.37807578741922,70.50851174220224 150.45115649607033,70.53452826831563 153.6002706693107,70.43479812741316 153.6600639763783,70.62558592971982 153.68331692914944,71.3497011752097 153.77300688976538,71.6792327897947 153.96567421260988,72.01309660714469 156.74938484252198,74.41073526835862 156.92212106300576,74.28934050751923 157.08821358268324,74.34570242263726 157.66621555118763,73.73872230992856 158.1578494094574,74.10724743330866" stroke="#4dd2ff" stroke-linecap="round" stroke-linejoin="round" stroke-width="0.5"><title>2024-07-21 16.7km</title><desc>1721568012000</desc></polyline><polyline fill="none" points="163.48353388218675,76.67436205971171 162.2865737809334,75.58071554321214 161.92748575046426,74.44242206035415 161.94458518049214,72.36668853271112 161.5,71.3622911945713 161.63679544016486,69.50971874357492 163.00474984169705,68.68386593749165 164.8856871437165,65.849147944391 166.3391386953881,64.66613980516559 166.6298290057457,63.88490298129909 167.31380620639538,63.817939638742246 169.348638378724,65.20184274150233 169.57093096891185,65.849147944391 173.02501583273988,68.59458428506332 173.21310956293019,69.15259375491587 174.20487650408177,69.44275787194783 176.2055098163546,71.58549117493385 177.00918302719947,71.85333072005596 181.8312222925597,76.31725385579921 185.3024065864738,79.01786388960318 186.12317922734655,80.06684827477147 188.5,81.71842608237057 188.43160227988847,82.23175067496777 186.84135528816842,83.77171408235154 185.47340088663623,86.1820603612432" stroke="#4dd2ff" stroke-linecap="round" stroke-linejoin="round" stroke-width="0.5"><title>2024-07-16 2.5km</title><desc>1721136594000</desc></polyline><polyline fill="none" points="35.094464619265636,102.04863265130552 33.73267822878552,103.59310542929961 32.68606510775862,105.0211206335116 31.603771993948612,105.75839603874192 30.640412189328345,106.79832497290408 29.63542572647566,106.0765854153251 22.909747090598103,100.3023152679707 22.808653777785366,99.85214412885034 22.70161379946512,96.1031566953061 22.66593380671111,93.61144696160409 22.77297378500225,91.99681861638237 23.962306877132505,91.67078192459303 25.448973242251668,91.5 25.651159867906244,96.39035558557953 25.781986508023692,96.96474869849771 26.10310644292622,97.64780267798778 31.252918731741374,102.02534879786981 33.42345162489801,104.07428876162885 32.6265984531492,105.09872905365046 31.615665324847214,105.75063529839463 30.616625527472934,106.81384614580384 30.72961217124248,106.93801536554747 30.664198851183755,107.09322648135276 31.46699868835276,107.8227126404272 31.443212026468245,107.93911907781876 30.152785621554358,109.48342029947162 29.76030570117291,110.15855293702771 28.678012587333797,111.44671320591078 27.637346131756203,112.47101108835705 26.810759632731788,112.99867197409912 25.906866482720943,113.22370222562677 24.84241336528794,114.47299074109105 24.84241336528794,114.92303777917186 26.01985312649049,115.95502777613365 26.42422637779964,116.1567678353058 26.989159596530953,116.05589790164595 27.61355946987169,115.35756233049324 27.982252728485037,114.83768432402212 27.904946077469504,114.32556070855571 26.459906370553654,113.16162501023791 25.91875981364865,113.2392215181062 24.84836003073724,114.4807502051226 24.824573368910933,115.1247817635558 24.652120070531964,115.73776839277707 24.12881351003307,116.65335548121948 22.885960428742692,118.27499213251212 22.59457382117398,118.5 19.12172119220486,115.63689766227253 15.2801753047097,111.93558511753872 14.90553538070526,111.45447311272801 15.214761984650977,111.5631116888544 18.146468056715094,107.58213852677727 19.323907817859435,105.23842392365623 19.42500113073038,104.84262083615249 20.198067640594672,104.36920541989821 22.523213835665956,103.58534437203343 23.177347036311403,103.15848447263124 24.414253452123376,101.82355497306344 25.550066555093508,100.20141517257434 27.096199574851198,98.4860841704176 31.28265205907519,102.03311008349556 33.39371829756419,104.00443983915102 34.56521139331744,102.6229644661762 34.91606465546647,102.11072287716524 34.86849133175565,102.00206493418227" stroke="#4dd2ff" stroke-linecap="round" stroke-linejoin="round" stroke-width="0.5"><title>2024-07-06 16.1km</title><desc>1720267100000</desc></polyline><polyline fill="none" points="46.312978896312416,102.66674423438963 48.22923355130479,101.33340739167761 51.29524099966511,117.00001678068656 59.599011172540486,117.50001140637323 63.17601986275986,112.33338969573379 61.00426458707079,94.5000315879006 54.61674906872213,92.33334290015046 48.61248448258266,97.50005527865142 50.017737896647304,114.66670562699437 54.23349813837558,118.33333529520314 59.85451179370284,117.50001140637323 63.303770173341036,111.16672993882094 61.770766449160874,95.166704201838 54.61674906872213,92.16667436843272 50.14548820676282,95.66670840629376 49.123485723976046,99.6667341440916 50.65648944815621,114.83337086765096 56.022002483252436,118.00000581308268 60.36551303509623,116.83335185656324 63.43152048345655,110.00006898795255 62.920519242063165,97.83339075685944 60.36551303509623,93.16668519063387 51.29524099966511,93.50002193625551 48.86798510327935,99.16673169471323 50.27323851687834,115.16670127620455 54.105747828260064,117.833341035177 60.493263345677406,117.33334655570798 63.303770173341036,114.00004441977944 62.79276893194765,98.00005845958367 58.57700869021937,92.16667436843272 55.0,91.5 49.76223727595061,95.33337229397148 49.37898634467274,112.66672083549201 51.03974037896842,116.000026871101 56.405253414064646,118.5 63.303770173341036,114.16670975787565 62.66501862090081,97.50005527865142 56.27750310394913,91.833337233169 51.93399255210534,93.33335357543547 48.99573541386053,97.33338750316761 50.14548820676282,114.16670975787565 52.95599503489211,117.16668168001343 58.449258380103856,118.16667056630831 63.55927079403773,113.33338282222394 62.154017379973084,95.00003608502448 54.61674906872213,92.00000581296626 48.99573541386053,97.83339075685944 50.27323851687834,114.66670562699437 56.022002483252436,118.16667056630831 61.13201489718631,117.16668168001343 63.687021103687584,109.66673706821166" stroke="#4dd2ff" stroke-linecap="round" stroke-linejoin="round" stroke-width="0.5"><title>2024-02-29 2.9km</title><desc>1709196138000</desc></polyline><polyline fill="none" points="73.05535122239962,91.5 82.89212080324069,97.33338750316761 82.50887004099786,112.83338636858389 87.6188802132383,118.33333529508673 94.26189343677834,116.83335185598116 96.81689852289855,113.16671736212447 95.7948964885436,96.3333803373389 90.55713606160134,91.833337233169 85.31937563605607,92.33334289991762 81.8701187693514,95.66670840617735 83.14762131264433,114.33337507175747 88.89638275606558,118.33333529508673 96.30589750595391,115.16670127632096 95.9226467423141,96.3333803373389 90.55713606160134,92.16667436878197 82.3811197867617,94.83336794318166 82.89212080324069,112.83338636858389 85.57487614406273,117.33334655524231 92.34563962183893,118.5 96.43364775972441,115.00003608386032 96.6891482686624,103.1667451482499 93.36764165665954,93.00001678115223 83.78637258382514,93.50002193602268 81.8701187693514,98.66672902554274 84.29737360123545,116.50002193532418 92.98439089395106,118.5 96.05039699701592,116.00002687051892 96.94464877760038,111.16672993893735 94.77289445372298,94.83336794318166 91.83463860535994,92.50001140648965 84.8083746181801,93.00001678115223 81.99786902358755,98.00005845935084 83.91412283852696,115.66669670608826" stroke="#4dd2ff" stroke-linecap="round" stroke-linejoin="round" stroke-width="0.5"><title>2024-02-26 2.1km</title><desc>1708947688000</desc></polyline><polyline fill="none" points="110.49268657295033,102.26694831845816 106.81065588677302,108.06449348235037 109.34998739464208,115.68407914135605 113.9207841088064,118.5 121.15787890693173,116.84357681323308 122.42754466086626,97.79453605914023 116.07921589072794,91.5 109.47695396933705,94.64727240230422 108.71515451744199,111.54300633713137 112.52415177971125,117.17486164462753 117.22191506950185,117.67178870958742 122.68147781165317,114.52458028239198 122.55451123602688,97.62889082136098 116.71404876746237,91.66564613406081 108.9690876682289,95.80679160903674 108.84212109260261,112.53686519083567 111.25448602577671,117.00921924074646 114.55561698554084,118.00307329848874 122.30057808570564,114.85586579178926 122.42754466086626,97.79453605914023 121.15787890693173,94.4816267042188 115.4443830139935,91.66564613406081 108.84212109260261,97.29760027374141 109.2230208190158,114.19329467555508 114.42865041084588,118.00307329848874 120.01517972862348,116.67793436127249 123.18934411276132,111.70864954008721 122.30057808570564,95.97243711340707 119.507313426584,92.32823042757809 115.19044986274093,91.5 109.47695396933705,95.3098549512215 108.71515451744199,112.03993587312289 113.53988438239321,118.00307329848874 118.99944712501019,117.50614637858234 122.68147781165317,114.19329467555508 122.93541096244007,98.78840697626583 121.66574520803988,95.1442093505757 116.96798191871494,92.32823042757809 111.50841917656362,93.32210614078213 109.60392054542899,95.97243711340707 108.9690876682289,114.35893749108072 113.41291780676693,118.16871555661783 121.66574520803988,115.35279387363698 122.30057808570564,98.1258264615899 120.01517972862348,93.81904367066454 116.07921589072794,92.32823042757809 108.58818794228137,96.46937347960193 108.84212109260261,113.53072317270562 111.38145260093734,117.8374310163781 120.26911287894472,116.84357681323308 122.55451123602688,113.19943727517966 122.68147781165317,103.4264597252477" stroke="#4dd2ff" stroke-linecap="round" stroke-linejoin="round" stroke-width="0.5"><title>2024-01-18 3.0km</title><desc>1705581243000</desc></polyline><polyline fill="none" points="141.80624317470938,94.83336794329807 138.22923553083092,96.1667123909574 138.10148525843397,114.16670975799207 141.16749180993065,117.50001140625682 146.27750272955745,118.33333529555239 151.38751364918426,115.0000360844424 151.38751364918426,97.00005187850911 149.08800873486325,92.83334834722336 145.12775027239695,91.5 139.76223880704492,93.66669027204625 137.46273389318958,97.33338750293478 137.71823443938047,112.66672083549201 143.59474699618295,118.00000581273343 151.13201310299337,114.66670562652871 151.25976337585598,96.83338402933441 145.89425191050395,91.83333723281976 141.03974153706804,93.00001678126864 137.84598471224308,97.00005187850911 138.35698580369353,113.33338282257318 141.03974153706804,117.50001140625682 144.87224972667173,118.5 151.38751364918426,114.50004036154132 151.77076446823776,97.66672302980442 147.17175464099273,92.00000581296626 141.42299235565588,92.66667988931295 138.48473607655615,95.83337642531842 138.35698580369353,113.33338282257318 144.3612486347556,118.5 151.89851474110037,115.0000360844424 151.00426283013076,96.83338402933441 145.76650163717568,92.66667988931295 138.35698580369353,95.66670840571169 138.48473607655615,114.16670975799207 145.25550054572523,118.5 151.38751364918426,115.33336644410156 151.5152639215812,97.16671970312018 146.66075354861096,92.00000581296626 140.91199126420543,92.83334834722336 137.71823443938047,97.33338750293478 137.97373498557135,112.00005845841952 143.21149617806077,118.00000581273343 151.13201310299337,115.50003158731852 151.5152639215812,96.83338402933441 145.51100109145045,91.5 138.10148525843397,96.33338033745531 138.35698580369353,112.50005527795292 140.40099017182365,116.16669191711117 144.74449945334345,117.66667623317335 149.98226064629853,117.0000167802209 152.53726610634476,113.16671736259013 150.87651255680248,95.33337229420431 147.04400436766446,92.00000581296626 141.67849290184677,92.16667436843272 138.35698580369353,95.33337229420431 138.10148525843397,109.16673900594469" stroke="#4dd2ff" stroke-linecap="round" stroke-linejoin="round" stroke-width="0.5"><title>2024-01-17 3.3km</title><desc>1705483266000</desc></polyline><polyline fill="none" points="168.6221255492419,106.95290702185594 165.6284293779172,109.50006975582801 170.70469679823145,116.12266671471298 176.82224984373897,117.99057184869889 182.9398028878495,115.78304727654904 183.85092781018466,99.48119743622374 180.33658882649615,93.02831864915788 175.00000000046566,91.83962653996423 169.9237325801514,95.06607371894643 169.53325047064573,111.87741659942549 174.34919648524374,117.31133396551013 183.5906064035371,115.27361793338787 183.3302849973552,98.46232422208413 178.51433898322284,91.66981328232214 169.01260765828192,96.76420021243393 169.14276836114004,109.83969103102572 172.91742875101045,117.82076241495088 182.54932077927515,116.63209568534512 183.85092781018466,99.14157313096803 180.59691023314372,92.5188793229172 173.43807156337425,92.68869245657697 169.01260765828192,96.93401272536721 169.53325047064573,113.40570842847228 175.65080351568758,118.5 183.20012429496273,116.46228605299257 183.72076710686088,97.4434501142241 179.0349817960523,91.5 173.04758945386857,92.34906616492663 170.31421468919143,95.74532461480703 169.66341117350385,113.40570842847228 171.09517890727147,116.46228605299257 177.34289265563712,118.5 184.37157062254846,113.7453285624506" stroke="#4dd2ff" stroke-linecap="round" stroke-linejoin="round" stroke-width="0.5"><title>2024-01-13 2.0km</title><desc>1705132259000</desc></polyline><polyline fill="none" points="17.045142046175897,129.26256470545195 18.467962167225778,143.94379430869594 20.796213276684284,147.31876321486197 25.711410061456263,148.5 32.82551067043096,143.10005053936038 32.308121534995735,126.39379687560722 25.840757344849408,121.83750389900524 19.114698586519808,125.7187916438561 19.114698586519808,143.60629687458277 24.54728450672701,147.82500769919716 32.9548579538241,143.77504560397938 32.69616338657215,126.39379687560722 28.427703021094203,122.17500769952312 23.64185352018103,122.006255811546 18.338614883832633,127.74380615423433 18.72665673494339,142.4250550798606 21.960338830482215,147.9937558110105 24.80597907397896,148.5 31.143995981197804,146.3062735791318 32.82551067043096,142.7625528589124 32.17877425206825,125.88754298910499 25.711410061456263,121.83750389900524 22.219033398665488,122.006255811546 18.72665673494339,126.22504560498055 18.985351303126663,143.94379430869594 25.45271549327299,148.5 32.69616338657215,143.26879934268072 31.790732400026172,125.38128887990024 25.582062777131796,121.5 18.72665673494339,126.05629430920817 19.761435005348176,142.5938039815519 25.45271549327299,147.48751140071545" stroke="#4dd2ff" stroke-linecap="round" stroke-linejoin="round" stroke-width="0.5"><title>2024-01-11 2.0km</title><desc>1704963338000</desc></polyline><polyline fill="none" points="52.08281276514754,128.10645157343242 50.21140963351354,131.2660431372933 50.43157470738515,144.04792344977614 54.944958731066436,148.3563849424827 59.67850782861933,147.78192450263305 62.10032364632934,144.47877044946654 61.329745885916054,128.82454145798692 58.13735230918974,125.5213236414711 51.31223500473425,125.95217876986135 47.45934620453045,122.79257010918809 48.560171575751156,121.5 48.34000650187954,125.37770522356732 51.97273022774607,125.95217876986135 50.10132709611207,128.96815937163774 50.54165724478662,142.61176541814348 52.74330798815936,147.3510789515567 57.807104696985334,148.5 61.54991096025333,146.3457719310536 62.320488720200956,131.12242555926787 57.476857086177915,125.5213236414711 53.62396828504279,126.09579710348044 50.321492170449346,129.82986641401658 50.651739781722426,144.04792344977614 55.05504126800224,148.21276986418525 59.01801260607317,148.0691547645256 61.990241108927876,144.47877044946654 61.43982842331752,128.6809235229157 55.49537141667679,125.09046832495369 50.87190485652536,129.5426308172755 51.20215246779844,144.90961726062233 55.715536491479725,148.0691547645256 60.228920514695346,147.06384847918525 62.54065379500389,143.61707626050338 61.7700760345906,128.53730556712253 58.797847531270236,125.09046832495369 55.93570156535134,124.80323134205537 50.87190485652536,128.82454145798692 50.98198739299551,143.47346048912732 55.49537141667679,147.63830933981808 59.67850782861933,147.2074637261685 62.320488720200956,143.7606920110411 61.990241108927876,128.96815937163774 60.55916812596843,125.80856041470543 57.25669201090932,124.65961281914497 50.651739781722426,128.39368759014178 50.54165724478662,143.18622888275422 53.29372067376971,146.63300261320546" stroke="#4dd2ff" stroke-linecap="round" stroke-linejoin="round" stroke-width="0.5"><title>2024-01-09 2.6km</title><desc>1704792913000</desc></polyline><polyline fill="none" points="74.58673413656652,131.06969162542373 79.69512871094048,127.48106644977815 80.7430045218207,145.2531975560123 85.19647671468556,148.1582317459397 90.04290233645588,147.98734758188948 94.23440557718277,144.74054371356033 94.88932795869187,140.29753432807047 94.49637452978641,127.31017926183995 90.8288091942668,122.18355200090446 84.54155433317646,121.84177605004515 80.7430045218207,124.9177560058888 80.7430045218207,143.03169594914652 86.37533700093627,148.5 93.84145214874297,146.79115773225203 94.75834348192438,128.33550201519392 90.8288091942668,122.18355200090446 84.54155433317646,122.18355200090446 81.13595794979483,125.77219344524201 81.13595794979483,142.17727112979628 84.93450776254758,147.47469493933022 91.74570052837953,147.6455791783519 94.75834348192438,145.2531975560123 94.75834348192438,127.82284075079951 91.74570052837953,122.69621573900804 86.50632147677243,121.5 83.62466299906373,121.84177605004515 80.87398899765685,125.94308085832745 81.00497347395867,144.05700490798336 87.292228335049,147.98734758188948 95.15129691082984,144.9114283528179 94.88932795869187,128.67727606592234 90.43585576536134,121.84177605004515 84.8035232857801,121.67088803753722 80.4810355687514,126.96840481087565 81.26694242609665,144.9114283528179 87.94715071609244,148.3291158854263 95.15129691082984,144.22788964677602 94.23440557718277,125.25953105615918 89.91191786015406,121.84177605004515 84.8035232857801,122.0126640376402 80.7430045218207,125.4304185443325 80.7430045218207,142.6899260963546 85.851399095729,147.81646339292638 94.88932795869187,144.74054371356033 95.41326586343348,129.18993695557583 91.74570052837953,122.0126640376402 83.62466299906373,122.52532785164658 80.7430045218207,129.18993695557583 81.92186480760574,146.27850456547458 91.22176262317225,147.47469493933022" stroke="#4dd2ff" stroke-linecap="round" stroke-linejoin="round" stroke-width="0.5"><title>2024-01-08 3.0km</title><desc>1704701613000</desc></polyline><polyline fill="none" points="107.6181492912583,126.48730782361235 108.40906186727807,144.8885709445458 115.39545628754422,147.9840822427068 121.45911937020719,143.168838925194 120.80002555716783,126.14335623942316 116.05455010058358,122.01592937600799 108.54088062932715,124.93952490098309 107.88178681628779,142.4809454131173 112.89089979743585,148.15605485334527 118.2954690665938,147.8121096061077 121.72275689523667,143.85673203435726 120.9318443192169,127.17521069175564 115.92273133806884,121.84395294240676 110.91361835738644,122.53185852686875 108.01360557880253,125.62742867390625 107.74996805377305,143.68475879484322 113.68181237345561,148.32802743907087 117.76819401606917,148.15605485334527 121.98639442073181,144.20067843887955 121.59093813225627,127.69113757787272 115.39545628754422,121.5 110.51816206937656,122.53185852686875 107.6181492912583,126.31533204414882 107.74996805377305,142.9968655849807 112.49544350942597,148.15605485334527 118.16365030407906,147.9840822427068 121.59093813225627,144.8885709445458 121.98639442073181,129.5828675593948 116.84546267706901,121.67197648389265 110.51816206937656,122.70383485953789 107.88178681628779,125.4554527682485 108.80451815482229,146.43632761226036 117.50455649057403,148.15605485334527 122.51366947125643,142.65291882900055 120.27275050617754,124.59557286347263 112.23180598393083,121.67197648389265 107.35451176576316,126.83125930826645 108.14542434131727,145.06054400838912 114.99999999953434,148.5 122.11821318324655,143.51278553029988 120.27275050617754,124.76754889450967 112.89089979743585,121.67197648389265 107.4863305282779,129.06694150273688 107.88178681628779,144.02870524919126 111.30907464539632,148.15605485334527 116.05455010058358,148.5 119.74547545565292,147.46816425863653 122.64548823423684,141.7930514990585" stroke="#4dd2ff" stroke-linecap="round" stroke-linejoin="round" stroke-width="0.5"><title>2023-12-29 2.9km</title><desc>1703839119000</desc></polyline><polyline fill="none" points="139.72849306697026,124.38682242622599 137.7760830912739,128.80194872617722 139.5983324018307,145.95285700750537 147.40797230228782,147.65095295628998 151.44295291788876,142.21703717962373 150.7921495931223,125.0660737195285 148.1889362926595,122.17925298109185 142.8523490265943,121.5 138.16656508669257,126.42457511241082 139.33801107201725,146.29247639642563 147.79845429770648,147.65095295628998 151.7032742477022,143.2358983248705 150.6619889275171,124.55663528700825 142.8523490265943,121.5 138.29672575136647,126.25476252532098 138.42688641650602,144.08494859619532 144.54443767247722,148.5 152.09375624312088,143.7453285616357 150.6619889275171,124.72644812276121 142.20154570182785,121.5 138.16656508669257,128.63213648681995 138.29672575136647,143.7453285616357 139.9888143967837,146.8019052920863 145.45556232752278,148.16038125671912 151.96359557844698,143.91513859131373 151.57311358302832,125.74532461480703 143.63331301696599,122.0094397731591 137.7760830912739,128.4623242225498 138.6872077472508,144.93399824667722 146.36668698256835,148.5 151.57311358302832,143.2358983248705 151.7032742477022,126.42457511241082 148.1889362926595,122.68869245704263 143.37299168715253,122.51887932315003 137.90624375687912,128.4623242225498 138.81736841145903,145.61323752021417 147.53813296789303,148.16038125671912 152.3540775734,141.87741659930907 151.57311358302832,125.40569921641145 147.79845429770648,122.34906616492663 142.59202769678086,122.0094397731591 137.6459224266,129.31138529616874 138.94752907659858,145.7830472763162 147.27781163807958,148.3301906407578 152.22391690779477,142.55665766075253" stroke="#4dd2ff" stroke-linecap="round" stroke-linejoin="round" stroke-width="0.5"><title>2023-12-28 2.9km</title><desc>1703769423000</desc></polyline><polyline fill="none" points="170.273237825837,127.83339075697586 166.82397894188762,126.33338033687323 168.74023387720808,143.0000518776942 173.33924572262913,147.50001140648965 180.1100131617859,145.83336180110928 182.9205204001628,142.16672408941668 182.79277007095516,129.83340157847852 178.577009213157,122.50001140707172 173.21149539388716,122.16667436878197 168.61248354800045,125.00003608490806 168.61248354800045,143.16671736212447 172.82824440672994,147.33334655570798 177.42725625168532,147.83334103564266 182.53726941300556,143.16671736212447 181.8985177683644,127.33338750293478 177.42725625168532,122.33334289991762 170.4009881541133,122.50001140707172 168.10148223256692,125.00003608490806 168.35698289005086,141.5000614199089 172.06174243241549,147.50001140648965 178.06600789632648,147.66667623328976 181.13201579404995,145.00003608432598 181.7707674386911,128.16672613762785 178.3215085552074,122.16667436878197 169.76223650947213,123.00001678115223 167.46273058699444,127.83339075697586 170.01773716742173,146.00002687145025 176.91625493578613,148.0000058131991 182.66501974267885,141.5000614199089 180.74876480689272,124.166695134365 176.02200263226405,121.5 170.01773716742173,122.83334834722336 167.7182312454097,128.83339660661295 170.4009881541133,146.33335693844128 175.63875164510682,148.5 179.21576085779816,147.50001140648965 182.4095190842636,143.16671736212447 183.17602105857804,135.66674642788712" stroke="#4dd2ff" stroke-linecap="round" stroke-linejoin="round" stroke-width="0.5"><title>2023-11-08 2.1km</title><desc>1699431646000</desc></polyline><polyline fill="none" points="19.79475135030225,153.79093438549899 17.160770105198026,159.6818869812414 18.164191531948745,174.5727677618852 25.313569196499884,178.00909672433045 31.334097755141556,175.5545771131292 32.588374538812786,172.93641692830715 31.334097755141556,155.2636754421983 27.947550441138446,151.99091490660794 22.93044330831617,151.66363832645584 18.03876385372132,156.90005211986136 18.28961920971051,173.75459264428355 25.43899687472731,178.00909672433045 32.21209150366485,173.2636872860603 31.835808468516916,156.24550173606258 28.950971867423505,152.318191390601 24.310147769749165,151.5 18.164191531948745,158.04551437112968 18.28961920971051,173.918227715767 24.937286160886288,178.17273117334116 32.086663824971765,173.42732242960483 31.835808468516916,156.7364145600004 28.700116510968655,152.4818295969162 25.188141517806798,151.99091490660794 21.299883489497006,152.80910593783483 17.913336175493896,157.71823956188746 18.415046888403594,173.1000521191163 21.049028133042157,177.19092411885504 26.442418301012367,177.84546225098893 30.456104007549584,176.3727509152377 32.839229895267636,171.3000637012301 31.835808468516916,155.91822640039027 24.435575447510928,151.5 21.299883489497006,152.80910593783483 18.03876385372132,159.02733822411392 18.665902245324105,173.2636872860603 21.049028133042157,177.19092411885504 26.191562944557518,178.5 32.4629468601197,172.7727817130508 31.835808468516916,156.7364145600004 26.066135265864432,151.99091490660794 18.54047456663102,156.57277697592508 18.54047456663102,174.7364027139265 24.811858483124524,178.5 32.086663824971765,174.24549778655637 32.086663824971765,157.06368965632282 29.57811025902629,152.80910593783483 24.310147769749165,151.5 18.415046888403594,156.57277697592508 18.79132992355153,173.1000521191163" stroke="#4dd2ff" stroke-linecap="round" stroke-linejoin="round" stroke-width="0.5"><title>2023-10-27 2.9km</title><desc>1698413800000</desc></polyline><polyline fill="none" points="51.48686697892845,153.0000167810358 47.39885764522478,156.83338402980007 49.44286231184378,175.66669670597184 58.00213185418397,177.50001140672248 62.2178914793767,171.16672993870452 61.323639437090605,155.00003608467523 57.2356301038526,151.5 51.99786814535037,151.5 48.80411085346714,153.6666902723955 47.782108520157635,159.50006668525748 49.31511201988906,175.50003158731852 57.61888097925112,178.16667056665756 60.68488797917962,176.833351856214 62.60114235430956,171.33339569158852 60.812638270668685,155.00003608467523 52.76436989568174,152.5000114068389 47.9098588116467,157.66672302992083 48.9318611449562,175.00003608420957 56.46912835398689,178.5 62.2178914793767,173.16671736247372 60.94038856215775,155.3333722942043 53.658621937502176,152.00000581296626 47.9098588116467,156.83338402980007 49.05961143691093,175.16670127643738 53.658621937502176,178.33333529543597 58.12988214567304,177.83334103494417 62.2178914793767,172.5000552778365 61.45138972904533,156.16671239130665 57.49113068729639,152.1666743683163 50.72036522813141,152.83334834768903 47.526607936713845,158.3333937911084 50.209364062175155,176.833351856214 56.21362777007744,178.16667056665756 61.1958891460672,175.16670127643738 62.2178914793767,162.66674423450604 61.96239089500159,157.33338750316761 58.385382728651166,152.33334289945196 53.01987047865987,152.1666743683163 48.29310968704522,155.3333722942043 48.16535939509049,172.83338636881672 50.72036522813141,177.33334655535873 57.87438156269491,178.16667056665756 61.323639437090605,175.00003608420957 61.83464060397819,157.8333907565102 57.49113068729639,152.33334289945196 49.31511201988906,153.83335858397186 48.037609103601426,171.66672712389845 51.48686697892845,177.66667623294052" stroke="#4dd2ff" stroke-linecap="round" stroke-linejoin="round" stroke-width="0.5"><title>2023-10-21 2.9km</title><desc>1697891041000</desc></polyline><polyline fill="none" points="77.81743507133797,151.5 78.30438862601295,172.30594168405514 82.32175545021892,178.18235684302635 91.20865781931207,175.9588521438418 91.20865781931207,157.0588784016436 88.77389004686847,153.8823799417587 84.26956966845319,152.92942859232426 78.30438862601295,157.21770308096893 79.15655734576285,175.64120824378915 83.90435450198129,178.34117843292188 88.89562843600288,177.38824854406994 91.33039620751515,174.21180954331066 91.69561137352139,159.44124614959583 86.58259905176237,153.08825387549587 78.66960379201919,156.26475465786643 78.1826502373442,172.1471192111494 80.49567962111905,177.0706050619483 86.46086066309363,178.5 90.3564890990965,176.59413966536522 91.8173497626558,160.71184014517348 91.20865781931207,156.58240422513336 87.67824454978108,153.56472958507948 79.52177251176909,155.78828013280872 78.4261270146817,174.68827598600183 83.29566255863756,178.5 91.20865781931207,175.80003020563163 91.69561137352139,157.69417697924655 89.13910521287471,154.3588553033769 84.63478483399376,153.56472958507948 78.79134218022227,157.3765277370112 78.54786540288478,173.10005369863939 82.20001706155017,178.18235684302635 87.92172132665291,178.02353522996418 91.93908815085888,174.21180954331066 92.18256492866203,160.87066428991966 91.08691943064332,156.58240422513336 87.19129099464044,153.72355477511883 82.8087090048939,153.8823799417587 78.1826502373442,157.69417697924655 78.91308056889102,174.37063171423506 82.68697061575949,178.18235684302635 87.79998293798417,177.86471359303687 91.8173497626558,173.89416513266042 91.57387298485264,157.8530015652068 86.58259905176237,153.40590437164064 79.52177251176909,155.62945524486713 77.93917345954105,161.98243265401106 80.00872606644407,176.911783286836 83.53913933690637,178.5 89.99127393309027,176.911783286836 91.69561137352139,163.57067119912244" stroke="#4dd2ff" stroke-linecap="round" stroke-linejoin="round" stroke-width="0.5"><title>2023-10-16 3.1km</title><desc>1697460359000</desc></polyline><polyline fill="none" points="106.81066067703068,155.30985495168716 108.84212469542399,173.6963660841575 114.80955024808645,178.5 123.06237282138318,173.36508023599163 122.04664081288502,155.80679160915315 117.22191376937553,151.5 111.00055521400645,152.49387644033413 108.4612251915969,155.14420935045928 108.84212469542399,173.36508023599163 115.06348325079307,178.33435779006686 119.5073107900098,177.34050402313005 122.93540632072836,171.87429271859583 121.91967431129888,155.6411460810341 115.06348325079307,151.6656461340608 108.84212469542399,155.30985495168716 108.96909119607881,173.53072317223996 113.03201923239976,178.00307329790667 118.11067927768454,177.83743101579603 123.18933932296932,173.19943727517966 122.68147331802174,158.1258264617063 116.71404776489362,151.6656461340608 110.7466222117655,153.15646024933085 108.71515819430351,156.13808259309735 108.96909119607881,173.53072317223996 111.38145471783355,177.17486164346337 116.33314826199785,178.5 122.80843981960788,173.53072317223996 121.15787530411035,153.98468946525827" stroke="#4dd2ff" stroke-linecap="round" stroke-linejoin="round" stroke-width="0.5"><title>2023-10-12 1.8km</title><desc>1697101056000</desc></polyline><polyline fill="none" points="137.2064248016104,160.38614482281264 139.3021761160344,176.10762012621854 147.94715028489009,177.64557917881757 152.53160628443584,171.83550102752633 150.69782388489693,154.9177560057724 141.92186525836587,152.01266403798945 137.73036263044924,157.13929204898886 138.90922274440527,175.4240821202984 147.03025908581913,178.15823174640536 152.13865291280672,173.54435054119676 151.4837306276895,157.3101792621892 146.24435234302655,152.35443993890658 142.05284971510991,152.35443993890658 138.25430045835674,155.94308085832745 137.992331544403,172.34815614379477 141.52891188673675,177.98734758235514 150.43585497047752,176.79115773318335 152.7935751983896,171.83550102752633 151.74569954164326,156.45574294694234 147.94715028489009,152.52532785153016 142.05284971510991,152.1835520005552 137.992331544403,156.62663025967777 138.3852849160321,173.88612014369573 141.39792742952704,177.64557917881757 145.85139897139743,178.15823174640536 151.87668399885297,174.5696590502048 152.40062182722613,171.4937308243243 150.95979279885069,154.74686844309326 144.01761657185853,151.84177605051082 137.86134708765894,156.79751754796598 138.5162693732418,174.5696590502048 144.5415544002317,178.5 150.56683942722157,176.62027336878236 152.2696373704821,173.37346570240334 151.4837306276895,156.9684048112249 144.41056994348764,151.5 137.73036263044924,157.13929204898886 139.43316057277843,175.93673566239886 147.16124354302883,177.81646339269355 151.35274617001414,175.25319755647797 152.40062182722613,170.81019011954777 151.0907772560604,155.25953105674125 146.63730571419,151.67088803788647 140.61202068673447,152.52532785153016 137.73036263044924,157.99372786399908 139.17119165882468,175.5949666594388 143.62466320069507,178.5 148.60207257093862,178.15823174640536 152.40062182722613,168.75956560508348" stroke="#4dd2ff" stroke-linecap="round" stroke-linejoin="round" stroke-width="0.5"><title>2023-10-10 2.9km</title><desc>1696942258000</desc></polyline><polyline fill="none" points="174.0428181993775,175.55262200058496 175.93912176659796,174.44439391013293 180.0748695465736,174.96313992375508 180.725030769594,175.69409737778187 179.80396903690416,176.99094920723292 180.36383009015117,178.5 183.88553671492264,177.32105527706153 184.82465848163702,176.07136444227945 185.83602038410027,173.05320316445432 186.0166207238799,165.60187515296275 184.06613705470227,162.1826376451063 184.51763790403493,160.9328292532009 186.4320015052799,159.2821240483463 186.75708211679012,158.31527456500044 186.55842174310237,157.13618196752213 185.40257956879213,155.60334867464553 185.2219792290125,154.1648303034017 179.13574777997565,151.5 170.7378319822019,152.51405567086476 165.89774287724867,151.73582747044566 163.24291788320988,152.46689043255174" stroke="#4dd2ff" stroke-linecap="round" stroke-linejoin="round" stroke-width="0.5"><title>2023-10-07 3.0km</title><desc>1696669067000</desc></polyline><polyline fill="none" points="19.922522129956633,182.84162991598714 17.351647258736193,186.86651024583261 18.12290972005576,201.12118113820907 23.264659462030977,208.16460017219651 28.277865460142493,207.49380022333935 32.64835274126381,203.63669290184043 32.13417776674032,186.86651024583261 25.578446846455336,181.83540762588382 21.07941582193598,182.84162991598714 17.737278489395976,187.36961929430254 18.765628437511623,204.3074951072922 23.39320320589468,208.5 27.63514674268663,208.16460017219651 32.3912652535364,203.63669290184043 31.87709027901292,187.36961929430254 26.735340538434684,182.33851888112258 18.765628437511623,184.51866510347463 18.3799972073175,203.63669290184043 23.7788344360888,208.5 28.149321717210114,208.16460017219651 32.13417776674032,203.80439348972868 31.491459048818797,186.1956978389062 25.835534332785755,181.66770382528193 17.608734745997936,185.86029148800299 18.894172181375325,204.13979459297843 25.449903102125973,207.82920024706982 32.26272151013836,203.63669290184043 31.620002792216837,186.02799467591103 24.80718438467011,181.5 17.737278489395976,185.5248850391945 18.25145346391946,203.46899228950497 23.007571975234896,207.82920024706982 29.691846639383584,206.82299988158047 32.00563402287662,203.13359099067748 31.87709027901292,187.0342132867081 26.735340538434684,181.83540762588382 18.12290972005576,185.3571817780612 18.637084694113582,204.3074951072922 24.550096897408366,208.5 30.72019658749923,206.31989936868194 32.26272151013836,203.30129165260587 31.620002792216837,186.1956978389062 25.706990589387715,181.66770382528193 21.336503309197724,182.17081515409518 17.865822233259678,186.1956978389062 18.3799972073175,203.63669290184043 22.364853257779032,207.99690022179857" stroke="#4dd2ff" stroke-linecap="round" stroke-linejoin="round" stroke-width="0.5"><title>2023-10-06 2.9km</title><desc>1696597953000</desc></polyline><polyline fill="none" points="48.686190119762614,183.3565927369982 48.595247005985584,183.2005930129444 48.24157934131654,182.8292632095836 48.10684880238841,182.0118658612846 48.069797904187,181.94374740801595 48.10348053891357,181.8844181809227 48.239895209582755,181.8646417198197 48.64577095807908,181.8668391056699 48.625561377244594,181.72840316921884 48.30220808383456,181.7701538240899 46.89932634730212,181.77235122376533 44.96089071856113,181.85365478573658 44.73858532933809,181.8844181809227 44.39333832334523,182.00527376640093 43.15550149699993,182.59855072100527 42.65363023951795,182.79410724964964 42.41279940120148,182.97428067472538 42.608158682633075,184.12558178961808 42.73615269460424,186.4345095700337 42.78162425148912,189.20651180519508 42.752994011978444,189.5161887092445 42.77320359281293,191.1698871662784 42.688997005985584,191.35435221161788 42.77320359281293,191.58712630102855 42.79172904191364,193.73462669727087 42.76141467065463,194.65457649763994 42.466691616762546,194.76654745309406 42.31343562874099,194.94438196318515 41.51852544910071,194.9312091086158 41.5,194.95755480621847 41.58589071856113,194.97072763771484 41.57747005987767,195.02122338489698 41.516841317366925,195.03659162213808 41.530314371251734,195.05854621951676 41.95808383233816,195.04537346493726 42.30164670658269,195.0717189625684 42.486901197597035,195.28906755732078 42.72267964071216,195.34614848572983 42.78162425148912,195.3900567447954 42.79341317364742,196.8367621983134 42.6755239520935,197.03652394637083 42.608158682633075,197.35921039777713 42.61657934130926,197.47116122293664 42.778255988021556,197.47774653965553 42.80688622753951,197.64018343945736 42.79509730538848,199.67049673251404 42.69741766467632,199.86363659167364 42.692365269460424,200.02824246953332 42.638473053892085,200.0984737627523 42.53574101795675,200.15553644714146 42.67383982035244,200.08311069536558 42.76646706586325,200.2213777371844 42.76983532933809,200.3311125804421 42.8506736526906,200.48912934897453 42.926459580841765,201.05973164424358 43.06455838323018,202.76263140735955 43.030875748503604,203.21465749060553 42.941616766460356,203.40116915152248 42.69741766467632,203.71055398709086 42.71425898203597,203.92777783805377 42.96182634730212,204.06600956576585 43.10834580838127,204.21521064113495 43.20939371257555,204.43023311921024 43.32559880239569,204.8953732785576 43.51085329341004,205.31223196525298 43.89483532933809,205.88703922397326 44.81605538921576,207.16601633567097 45.1511976047841,207.50603485284864 45.09056886227336,207.4577746275927 45.0501497005971,207.4687428741845 45.671594311374065,207.78901215234418 45.96631736526615,207.8723687925949 46.28293413173378,207.90746618728735 47.847492514971236,207.9250148539668 48.45546407185611,207.89649826023742 48.59019461077696,207.99082217188243 48.755239520964096,208.25404856796376 48.90175898203597,208.27159683078207 48.99607035927329,208.0544356391838 49.15269461077696,207.81533535174367 49.52151946107915,207.51480942263697 52.5815868263453,206.40697955944597 52.686002994014416,206.3762662833151 52.709580838323745,206.43111137531923 52.662425149705086,206.36090962175786 52.60853293412947,206.46182453958045 52.64053143712226,206.43549897404228 52.65905688622297,206.4552431525144 52.67421407184884,206.37187866732802 52.73147455089202,206.4552431525144 52.709580838323745,206.37846009082932 52.766841317366925,206.34335913222367 53.36639221556834,206.16785311180683 54.08046407184884,206.13494550522955 55.96500748503604,206.16127159624102 58.3867889221583,206.13275166223593 58.51983532933809,206.16127159624102 59.405688622755406,206.13494550522955 60.27133233533095,206.16565927360534 61.53779940120148,206.12836397528554 61.963884730539576,205.9879573177859 62.627432634726574,205.86948818209112 64.23914670658269,205.73566081498575 65.53592814371223,205.7575998091461 65.84749251497124,205.73566081498575 66.18431886227336,205.63693494567542 66.54640718563314,205.45045098182345 66.89165419161873,205.16304176148424 66.84449850298552,205.18278760863177 66.77544910179859,205.13671392500328 66.70134730538848,205.2091153645424 66.78218562874099,205.13232594777946 66.8815494011942,205.17401167975459 66.94386227545328,205.1411019009438 67.16616766466177,205.12793796927144 67.40868263473385,204.85368677506995 67.43057634730212,204.58820686037507 67.85160928143887,204.17352225423474 68.12107035928784,203.85975858544407 68.22043413174106,203.64472795885195 68.27432634730212,203.40775187380405 68.36021706586325,196.10793860192916 68.39389970060438,195.89499251196867 68.39221556886332,195.3768842805348 68.47642215569067,195.15295062310724 68.5,194.8807130592295 68.4949476047841,194.54480024189888 68.42252994012233,194.33402758483226 68.4258982035899,193.80049609502657 68.35853293412947,192.36008610570025 68.39221556886332,189.95323958443896" stroke="#ff0000" stroke-linecap="round" stroke-linejoin="round" stroke-width="0.5"><title>2023-09-14 39.1km</title><desc>1694696482000</desc></polyline><polyline fill="none" points="84.69565367279574,181.5 77.63481887197122,188.3294751845533 78.48698858963326,201.82947419618722 81.40871333470568,206.91178328637034 87.4956398862414,207.38824854465201 92.36518112802878,203.10005369817372 91.51301141036674,186.42357945349067 87.25216282438487,181.97647640679497 82.13914452074096,182.770603285986 78.24351152777672,187.05887840176 78.8522041826509,204.68827598600183 85.06086926534772,208.5 92.24344259686768,203.4176983416546 91.51301141036674,187.535352369654 88.34780960390344,183.40590437175706 83.11305276909843,182.770603285986 77.63481887197122,188.3294751845533 78.7304656514898,202.62358655931894 84.57391514163464,207.8647135932697 89.44345638295636,206.7529614875093 91.7564884731546,203.89416513219476 91.2695343485102,186.42357945349067 87.61737841786817,182.6117779565975 82.01740598957986,182.9294285926735 78.36525005847216,186.26475465798285 78.60872712079436,204.05298734956887 82.38262158306316,207.38824854465201 86.88694723136723,207.8647135932697 91.87822700385004,202.1471192111494 91.87822700385004,185.3118053986691" stroke="#4dd2ff" stroke-linecap="round" stroke-linejoin="round" stroke-width="0.5"><title>2023-09-11 1.8km</title><desc>1694438011000</desc></polyline><polyline fill="none" points="115.24657534249127,196.72912134061335 119.62328767124563,193.27094943705015 126.28082191757858,195.68362980266102 125.41780821909197,199.5438963713823 109.45205479464494,200.50895877956646 107.35616438370198,199.22220852551982 104.52054794528522,200.26769333635457 103.22602739743888,199.14178653480485 103.0410958903376,196.16616460564546 112.6575342467986,197.1312329415232 119.99315068498254,194.47729094314855 126.15753424656577,195.20109457644867 125.97260273969732,199.70474022370763 109.14383561629802,199.86558402900118 105.81506849313155,197.69418868847424 104.76712328800932,199.14178653480485 102.79452054784633,198.57883226958802 102.73287671245635,196.08574216801208 111.85616438346915,196.64869898522738 121.47260273969732,194.31644556182437 126.65068493131548,195.4423622424947 125.23287671222351,199.70474022370763 112.2876712330617,199.46347442740807 105.75342465774156,200.58938057057094 102.42465753434226,198.57883226958802 102.5479452055879,196.2465870315791 116.84931506845169,195.92489725718042 123.38356164377183,194.39686825824901 126.58904109569266,195.52278477448272 125.47945205471478,199.62431830348214 109.26712328777649,199.86558402900118 105.32191780838184,200.83064587268746 103.22602739743888,199.78516213217517 101.5,196.88996601616964 101.99315068521537,196.08574216801208 106.98630136996508,196.4074318485218 113.45890410942957,195.12067199742887 118.57534246565774,196.0053197183879 125.91095890384167,195.12067199742887 125.91095890384167,188.847674608347 128.5,189.0085215891013 125.5410958903376,188.52598050562665 125.10958904097788,199.5438963713823 112.16438356158324,199.30263050476788 104.4589041096624,201.47401949443156 102.36301369895227,197.4529220102704 102.73287671245635,196.4878542391234 113.21232876717113,195.20109457644867 118.76027397252619,196.08574216801208 122.64383561629802,195.28151714347769 126.21917808195576,196.16616460564546 125.72602739697322,200.02642778703012 109.14383561629802,199.70474022370763 108.34246575366706,200.83064587268746 104.33561643841676,201.47401949443156 103.16438356181607,200.42853697692044 102.73287671245635,196.16616460564546 111.42465753434226,193.91433190292446 114.93835616461001,195.12067199742887 118.57534246565774,194.87940419034567" stroke="#4dd2ff" stroke-linecap="round" stroke-linejoin="round" stroke-width="0.5"><title>2023-08-30 4.9km</title><desc>1693396264000</desc></polyline><polyline fill="none" points="135.23067120462656,183.51244428521022 138.5728100030683,187.03421328705736 140.75805460149422,203.97209405410103 145.2570875994861,207.99690022249706 154.12660979526117,202.96589030476753 154.25515359593555,184.51866510382388 146.15689419955015,181.66770382528193 139.47261660220101,185.3571817779448 140.88659840123728,204.64289606327657 144.87145619979128,208.5 150.2702957978472,208.16460017266218 154.64078499563038,205.14599731226917 154.64078499563038,187.20191630290356 152.06990899704397,182.84162991598714 146.9281569989398,181.66770382528193 139.85824800189584,187.36961929430254 141.14368600212038,205.31369767943397 144.6143685998395,208.3323000984965 154.51224119542167,203.80439349031076 154.3836973956786,186.86651024629828 151.94136519683525,183.00933354522567 146.79961319919676,181.83540762588382 141.9149488019757,183.34474073001184 139.7297042021528,186.86651024629828 140.5009670020081,204.13979459286202 147.05670079914853,208.16460017266218 154.51224119542167,204.81059650389943 154.12660979526117,186.86651024629828 152.19845279678702,183.51244428521022 145.51417519990355,181.83540762588382 139.7297042021528,185.69258827588055 140.5009670020081,203.13359099067748 146.79961319919676,208.3323000984965 151.94136519683525,207.32610017526895 154.64078499563038,203.6366929024225 153.74097839556634,185.5248850393109 148.85631399834529,181.5 140.62951080175117,185.0217751818709 140.62951080175117,203.6366929024225 143.58601820049807,207.6615002474282 150.3988395971246,207.99690022249706 154.51224119542167,203.46899228950497 154.3836973956786,188.87894511432387 150.1417519976385,182.170815154328 140.88659840123728,184.6863684875425 140.37242320226505,202.2950873146765 144.3572810003534,207.49380022357218 150.7844709972851,207.99690022249706 154.12660979526117,205.31369767943397 154.76932879537344,191.89759079378564" stroke="#4dd2ff" stroke-linecap="round" stroke-linejoin="round" stroke-width="0.5"><title>2023-08-25 3.1km</title><desc>1692968645000</desc></polyline><polyline fill="none" points="179.35483870934695,190.31280009931652 178.91935483831912,194.1951437544776 188.1370967742987,194.57390774285886 188.5,199.68719990062527 161.5,199.59250967216212 161.93548387056217,195.04736241674982 177.90322580607608,195.04736241674982 185.8870967742987,193.43761511310004 188.06451612897217,194.38452577602584 188.2096774186939,199.21374861942604 179.06451612897217,199.30843890324468" stroke="#4dd2ff" stroke-linecap="round" stroke-linejoin="round" stroke-width="0.5"><title>2023-08-24 1.1km</title><desc>1692883156000</desc></polyline><polyline fill="none" points="25.337944967439398,238.5 25.417461430304684,238.11098019758356 25.616252587526105,238.26658822098398 25.039758231607266,222.00481134827714 24.56265945418272,219.0220269482379 25.337944967439398,218.4514016063913 24.582538569928147,217.7510861771152 24.84096707426943,214.94979680079268 24.38374741259031,211.5" stroke="#4dd2ff" stroke-linecap="round" stroke-linejoin="round" stroke-width="0.5"><title>2023-08-21 1.2km</title><desc>1692620048000</desc></polyline><polyline fill="none" points="55.56658891425468,229.02468051756296 55.20603233244037,229.79751953664527 55.46357274800539,238.5 55.32192551944172,227.69740137329063 55.0,225.54684058270504 55.090139145439025,223.09380802355008 54.51067321043229,212.23935023228114 54.83259872987401,211.65123111658613 55.373433602566365,211.5 54.74245958449319,211.56721385417768 54.43341108574532,212.12172665009712 54.45916512730764,215.81841020203137 55.012877020810265,222.64015927595756 54.84547575068427,225.00919409366907 55.19315531163011,227.12616259037895 55.527957851823885,238.4832004797354 55.24466339475475,230.80556261688616" stroke="#4dd2ff" stroke-linecap="round" stroke-linejoin="round" stroke-width="0.5"><title>2023-08-10 4.8km</title><desc>1691669615000</desc></polyline><polyline fill="none" points="86.80481283413246,224.0110793687054 89.18716577533633,221.27972575224703 97.20053475908935,221.27972575224703 97.99465240677819,226.64823738660198 72.29411764675751,227.8726285097655 71.5,223.8227105255355 80.5962566845119,220.62043176451698 86.44385026721284,222.31575779797276 97.34491978632286,221.93901906500105 98.5,225.89476476906566 83.62834224617109,227.6842607963481 72.87165775382891,227.2133412710973 71.57219251291826,226.83660540293204 71.5,225.14129127009073 73.16042780736461,222.4099424466258 81.39037433126941,223.1634191412013 91.56951871654019,221.27972575224703 97.85026737954468,221.84483434748836 97.41711229970679,226.55405335745309 78.86363636376336,227.9668123460142 71.93315507983789,227.11915732483612 71.93315507983789,223.54015715781134 73.95454545458779,222.59831170312827 88.32085561519489,223.35178817703854 90.5588235296309,222.12738845899003 98.06684491969645,222.22157313558273 98.06684491969645,226.64823738660198 82.25668449187651,227.02497336477973 77.05882352916524,229.19120096275583 72.51069518737495,227.4958930273424 71.64438502630219,224.67036988545442 72.58288770029321,223.7285260835779 82.04010695172474,223.25760366610484 83.33957219263539,222.03320376906777 88.39304812811315,223.7285260835779 98.28342245984823,222.59831170312827 98.06684491969645,226.74242140172282 77.49197860946879,227.7784446599544 72.0775401070714,226.45986931480002 72.00534759322181,223.54015715781134 73.59358288766816,222.4099424466258 88.97058823565021,223.54015715781134 98.5,222.69249631051207 97.9224598929286,226.9307893908117 81.1737967915833,227.4958930273424 78.64705882361159,229.00283363478957 73.08823529398069,227.8726285097655 72.22192513337359,225.51802812964888 73.23262032074854,223.25760366610484 88.68181818164885,223.91689495416358 98.2112299464643,222.5041270814836 98.42780748661608,227.02497336477973 84.4224598929286,226.9307893908117 80.8850267380476,227.4958930273424 79.4411764703691,229.3795682354248" stroke="#4dd2ff" stroke-linecap="round" stroke-linejoin="round" stroke-width="0.5"><title>2023-08-08 4.7km</title><desc>1691498421000</desc></polyline><polyline fill="none" points="116.92443649237975,211.5 117.12414216611069,220.33470591754303 118.19529077969491,220.68997891817708 118.14082559593953,221.21104457628098 111.8047092204215,221.0215663490817 112.53091167018283,222.60843965646927 112.82139265025035,233.33719011524227 113.31157930393238,237.0080122128129 113.8380760801956,238.5" stroke="#4dd2ff" stroke-linecap="round" stroke-linejoin="round" stroke-width="0.5"><title>2023-08-04 1.6km</title><desc>1691107871000</desc></polyline><polyline fill="none" points="144.43455497385003,223.06356320006307 152.0680628272239,221.3115291815484 157.51047120429575,222.2336529561435 158.14659685874358,227.3975211729994 147.47382198972628,226.75203995860647 131.85340314148925,228.13521318056155 131.92408376955427,225.00001618842361 133.97382198972628,222.69471433776198 139.4162303665653,221.95701596525032 144.71727748727426,222.8791387960664 152.28010471211746,220.48161663144128 158.0052356023807,222.51028982555727 158.35863874363713,227.30530961160548 131.85340314148925,228.04300172673538 131.92408376955427,224.72338041168405 134.11518324632198,222.69471433776198 140.75916230352595,221.49595404439606 144.01047120429575,222.6025020882371 157.43979057623073,222.6025020882371 158.5,227.3975211729994 132.70157068083063,228.50405886070803 131.5,226.56761663331417 132.77225130912848,224.26232051325496 140.40575916250236,222.04922830912983 157.36910994793288,222.51028982555727 157.93455497385003,227.21309803659096 132.8429319371935,228.50405886070803 132.20680628274567,224.53895649279002 137.57853403151967,222.97135100484593 148.95811518328264,223.89347235218156 158.14659685874358,222.8791387960664 158.21727748727426,226.9364632302313 133.97382198972628,228.41184746084036 131.6413612565957,227.02867484587478 132.41884816787206,224.6311684589018 138.78010471211746,222.69471433776198 158.07591623067856,223.34019970556255 158.14659685874358,226.8442516013165 142.5261780107394,227.58194425608963 138.07329842960462,229.51838336855872 134.75130890053697,228.96511565742549 132.91361256549135,228.04300172673538 132.41884816787206,225.00001618842361 137.64921466005035,222.6025020882371 148.88743455521762,224.3545325200539 157.72251308895648,223.06356320006307 158.28795811533928,227.30530961160548 142.8795811519958,226.9364632302313 137.86125654471107,228.50405886070803" stroke="#4dd2ff" stroke-linecap="round" stroke-linejoin="round" stroke-width="0.5"><title>2023-07-26 4.8km</title><desc>1690377436000</desc></polyline><polyline fill="none" points="170.5,223.49708411691245 185.62000000011176,221.24268283619313 188.4279999998398,221.8062838979531 187.8519999999553,226.78473846788984 170.21200000029057,226.97260392288445 163.660000000149,229.22698509308975 161.78799999970943,227.25440200173762 162.1480000000447,223.5910173318116 168.34000000031665,221.24268283619313 172.73199999984354,222.74561790260486 187.8519999999553,221.90021736058407 187.70800000010058,226.31507459114073 163.15599999995902,228.47552558220923 161.5,226.50294018298155 162.07599999988452,223.7788837206317 167.90800000028685,220.96088211983442 172.15599999995902,220.77301490691025 175.39600000018254,222.74561790260486 181.73199999984354,220.96088211983442 187.99599999981,221.99415080901235 188.0679999999702,226.87867120222654 161.9320000000298,226.97260392288445 161.9320000000298,223.5910173318116 163.15599999995902,223.02741783601232 178.42000000039116,222.65168456389802 184.03599999984726,220.96088211983442 188.2839999999851,221.99415080901235 187.92399999964982,226.69080572010716 161.9320000000298,227.16046932234894 162.07599999988452,223.49708411691245 165.02799999993294,222.27595107199159 177.84400000050664,222.46381784550613 184.03599999984726,220.77301490691025 188.5,221.99415080901235 187.92399999964982,226.87867120222654 162.3640000000596,227.72406519192737 162.8680000002496,223.21528438961832 175.10800000000745,222.65168456389802 182.52400000020862,220.86694852029905 188.2119999998249,222.08808424370363 188.14000000013039,226.78473846788984 161.9320000000298,226.78473846788984 162.29200000036508,223.21528438961832 171.5800000000745,224.530348726199 183.10000000009313,220.86694852029905 188.3560000001453,221.90021736058407 188.2839999999851,226.87867120222654 163.08399999979883,227.4422673190711" stroke="#4dd2ff" stroke-linecap="round" stroke-linejoin="round" stroke-width="0.5"><title>2023-07-24 4.9km</title><desc>1690201802000</desc></polyline><polyline fill="none" points="28.090709373471327,241.80918372313317 28.051211490179412,241.5 26.92552181414794,242.1441321441962 26.76753028074745,243.0716782946256 27.202006997773424,248.81720258526911 28.248700906871818,249.30672289905488 28.288198790396564,249.71894947676628 23.647197494632564,249.92506240401417 21.13908190082293,249.64165706688073 21.948788509820588,250.54339973890455 22.14627792662941,251.72854023214313 22.383265226962976,262.7293552663323 23.50895490287803,268.5 22.77824406058062,265.69198665853764 23.647197494632564,264.919131097442 22.916486652335152,242.35025393293472 27.932717840070836,242.01530590372568 28.544935032259673,241.88647956910427 28.64367974072229,241.52576533101092 28.86091809917707,241.96377538118395" stroke="#4dd2ff" stroke-linecap="round" stroke-linejoin="round" stroke-width="0.5"><title>2023-07-24 3.0km</title><desc>1690157385000</desc></polyline><polyline fill="none" points="55.18140674883034,259.79373846709495 55.68675412045559,268.5 55.32394062291132,256.86896365902066 55.05183049966581,255.58406809056032 55.29802537307842,254.48513291648123 55.10366099938983,253.94411483879958 54.559440752957016,242.70050969385193 54.88338137581013,241.85508163082704 55.492389746708795,241.58454334440466 54.948169500450604,241.5338173451819 54.507610253291205,242.22707074056234 54.507610253291205,245.8454477910127 55.01295762491645,253.8595805353325 55.12957624916453,252.91279211294022 54.45577975362539,242.59905865287874 54.689017002121545,241.92271610349417 55.29802537307842,241.56763468044664 54.84450850106077,241.5 54.35211875429377,242.37924775850115 54.31324587960262,245.72709145543922 54.805635626311414,254.1300900886199" stroke="#4dd2ff" stroke-linecap="round" stroke-linejoin="round" stroke-width="0.5"><title>2023-07-22 4.9km</title><desc>1690030226000</desc></polyline><polyline fill="none" points="81.78209478687495,252.69520053523593 77.11297741951421,249.89641083835158 79.13205520017073,264.3841881727567 83.04401839990169,267.3475742052542 89.35363646410406,266.03051470941864 92.5084454966709,260.59762800252065 91.37271424476057,246.76834353117738 88.97505938028917,242.65245225431863 84.68451909674332,241.5 78.12251631030813,244.7927175963996 79.38443992240354,263.23175816470757 81.90828714799136,267.0183094756212 85.5678656254895,268.00610337546095 92.88702258048579,262.0793269771384 92.12986841285601,250.0610457189614 87.20836632279679,241.66463610855862 81.65590242575854,242.15854428964667 77.61774686444551,246.10980193840805 78.62728575477377,262.73785922897514 84.30594201292843,267.8414711188525 91.87748368969187,263.72565688437317 91.62509896699339,246.76834353117738 84.05355728976429,242.48781628976576 77.87013158714399,246.93297886964865 78.8796704779379,264.71345367317554 84.05355728976429,268.5 92.63463785732165,262.9024922319222 92.00367605080828,250.22568057558965" stroke="#4dd2ff" stroke-linecap="round" stroke-linejoin="round" stroke-width="0.5"><title>2023-07-18 1.7km</title><desc>1689685608000</desc></polyline></svg>