<?xml version="1.0" encoding="utf-8" ?>
<svg baseProfile="full" height="300mm" version="1.1" viewBox="0,0,200,300" width="200mm" xmlns="http://www.w3.org/2000/svg" xmlns:ev="http://www.w3.org/2001/xml-events" xmlns:xlink="http://www.w3.org/1999/xlink"><defs /><rect fill="#222222" height="300" width="200" x="0" y="0" /><text fill="#FFFFFF" style="font-size:12px; font-family:Arial; font-weight:bold;" x="10" y="20">Over 10km Runs</text><text fill="#FFFFFF" style="font-size:4px; font-family:Arial" x="10" y="280">ATHLETE</text><text fill="#FFFFFF" style="font-size:9px; font-family:Arial" x="10" y="290">Yunlong</text><text fill="#FFFFFF" style="font-size:4px; font-family:Arial" x="120" y="280">STATISTICS</text><text fill="#FFFFFF" style="font-size:3px; font-family:Arial" x="120" y="285">Number: 54</text><text fill="#FFFFFF" style="font-size:3px; font-family:Arial" x="120" y="290">Weekly: 1.8</text><text fill="#FFFFFF" style="font-size:3px; font-family:Arial" x="141" y="285">Total: 278.7 km</text><text fill="#FFFFFF" style="font-size:3px; font-family:Arial" x="141" y="290">Avg: 5.2 km</text><text fill="#FFFFFF" style="font-size:3px; font-family:Arial" x="167" y="285">Min: 1.1 km</text><text fill="#FFFFFF" style="font-size:3px; font-family:Arial" x="167" y="290">Max: 39.1 km</text><polyline fill="none" points="31.058710146287922,38.33097664527304 30.992962258518673,38.57167437153112 31.834535221976694,38.984297892588074 31.610992403526325,39.0358757303984 31.47949662792962,39.87831052742695 31.781936911691446,42.04454356979841 31.53209493821487,42.164888673461974 32.34736874658847,55.33333333333576 17.343700757541228,54.06125062942738 16.686221879790537,53.76901345958322 16.488978216541,53.958108182232536 14.319297920097597,53.820584777829936 16.738820190075785,53.872156073462975 16.72567061247537,41.907006156827265 17.409448645310476,41.70069973406498 20.88093711953843,43.3855248701293 21.183377403242048,39.20780169200589 21.56471515231533,38.709215707014664 22.064399099443108,38.623252391276765 26.548405045294203,39.620422968728235 26.16706729622092,31.57404546282487 26.443208424840122,31.33333333333576 29.309816331544425,31.350527073322155" stroke="#4dd2ff" stroke-linecap="round" stroke-linejoin="round" stroke-width="0.5"><title>2025-01-31 4.9km</title><desc>1738311502000</desc></polyline><polyline fill="none" points="65.28610567509895,36.8307002777583 66.0,49.83596638889867 48.810176125203725,48.25186377437785 43.15538160462165,47.809783266122395 42.0,47.87118347657815 42.87358121323632,48.202743833404384 54.82191780820722,49.19741700995655 54.82191780820722,40.19580746005522 55.21643835614668,40.023870962890214 57.79960861057043,41.2642620466213 57.97808219172293,38.709773190217675" stroke="#4dd2ff" stroke-linecap="round" stroke-linejoin="round" stroke-width="0.5"><title>2025-01-29 5.9km</title><desc>1738137793000</desc></polyline><polyline fill="none" points="85.98256313765887,54.64754165488921 85.79501007741783,54.63965894136345 85.28075168645591,54.93131857664412 85.16579981084215,55.238741894743725 84.60314063011901,55.293920254014665 84.41558756990707,55.04955852119747 84.27643529942725,53.98538971275411 83.65932523025549,45.502821385623974 83.68957572383806,36.64831231826611 83.52622305849218,34.25900216214359 83.55647355207475,33.10767968967775 83.49597256490961,32.23234276774747 83.39312088672887,32.350632369474624 83.3689204918337,32.027306844749546 83.4536218738649,31.33333333333212 83.4899224661931,32.508351435699296 83.35077019568416,33.3757980726441 83.50807276234264,33.588714664532745 83.52622305849218,34.069745357996 83.64722503282246,41.14276798822175 83.53227315720869,43.13755576710537 83.61092444052338,44.69075852201058 83.45967197261052,45.75511027728862 83.79847750073532,47.73396043872708 83.84687829049653,50.34340908851664 84.20988421351649,54.44259072967907 84.43978796477313,55.33333333333212" stroke="#4dd2ff" stroke-linecap="round" stroke-linejoin="round" stroke-width="0.5"><title>2024-12-08 7.1km</title><desc>1733648293000</desc></polyline><polyline fill="none" points="103.33333333332848,44.2186389037015 108.38894506232464,43.786533470396535 109.00775193795562,43.67587149207975 109.3555780249153,43.718028476145264 110.19683181661821,43.5441306000248 111.54769127062173,43.50724306419943 112.15032018872444,43.380771227079094 115.09875294908124,43.07512912726088 115.97640714525187,43.090938264755096 116.51432423321239,42.98027415701654 116.93090663968178,43.00662278482923 119.09066397033166,42.82745173701187 119.25244354565802,42.885418937898066 120.05729693292233,42.79583322461258 120.17054263563477,42.85907022174797 122.13211998650513,42.643010024839896 125.86922817659797,42.52180495871653 126.17256488034036,42.458567371577374 127.33333333332848,42.46910697711792 126.41118975395511,42.50599557230453 126.19683181663277,42.448027762966376 125.39197842938302,42.542884129841696 122.30603302999225,42.62720069142597 119.2483990562614,42.86960971050212 118.54465790359245,42.83799123498102 114.54870239295997,43.090938264755096 113.95011796425388,43.23322019118132 110.05123019883467,43.60209665167349 110.05931917759881,43.54940024492316 109.0603302999516,43.696949990269786 107.2483990562614,43.79180307997012 106.91270643746248,43.876116728537454 104.74081563866639,44.07636085576087" stroke="#4dd2ff" stroke-linecap="round" stroke-linejoin="round" stroke-width="0.5"><title>2024-11-23 9.9km</title><desc>1732350310000</desc></polyline><polyline fill="none" points="137.2351089026779,41.80613156873733 140.6964034764096,39.47885256778682 143.59942473191768,55.042427696927916 148.62388459593058,50.678832982317545 152.08517917059362,51.260646713140886 153.98330845218152,48.93338975543156 153.536689797882,37.1515681403107 151.63856051536277,33.36971937358612 146.83740997780114,31.33333333331393 143.48777006799355,32.49698300776072 140.2497848221101,39.91521779366303 143.37611540453508,54.16971028014086 153.4250351334922,48.06066699733492 153.536689797882,37.29702357581118 149.07050325116143,31.624245878774673 143.93438872275874,32.06061453890288 140.13813015818596,35.55155694944551 142.37122343154624,53.87880430498626 143.59942473191768,50.969739890191704 152.75510715181008,48.3515746681951 151.86186984274536,33.51517536013853 148.40057526901364,31.33333333331393 144.38100737752393,32.20607071655104 140.6964034764096,35.55155694944551 140.36143948556855,40.35158282879274 142.37122343154624,53.58789824490668 146.05582733266056,49.3697508481564 152.08517917059362,48.49702847196022 153.6483444608748,36.569746186141856 151.0802871971391,33.36971937358612 146.2791366595775,32.35152687272057 141.25467679463327,34.96973406209145 140.47309414902702,42.38795047119493 142.14791410369799,53.73335128527833 149.18215791508555,48.49702847196022 152.53179782442749,49.80611175019294 154.31827244348824,47.47885140153812 151.9735245066695,33.80608727037907 144.38100737752393,32.64243912190432 140.47309414902702,38.75157676736126 142.25956876715645,53.87880430498626 149.96374056022614,47.62430533213774 152.19683383358642,50.24247246183222 154.4299271069467,47.62430533213774 153.87165378872305,36.424290644179564 151.9735245066695,33.36971937358612 144.82762603182346,31.915158340299968 141.03136746725067,35.11518981563859 140.47309414902702,38.31521103240084 142.7061874223873,54.02425730309915 150.63366854237393,48.93338975543156 153.4250351334922,49.3697508481564 153.75999912479892,37.58793438388966 151.63856051536277,32.35152687272057 146.83740997780114,31.915158340299968 141.58964078640565,34.533366673858836 140.47309414902702,45.29703989601694 142.59453275892884,54.31516323587857 150.29870455153286,49.951565342082176 153.4250351334922,51.260646713140886 154.76489109778777,48.06066699733492 153.536689797882,36.13337949727429 149.96374056022614,31.33333333331393 143.93438872275874,32.06061453890288 140.9197128037922,36.13337949727429 142.03625944023952,52.42427315743407 143.04115141322836,53.87880430498626 153.536689797882,50.678832982317545 154.09496311610565,40.06067282642471 149.4054672420025,32.06061453890288 141.14302213070914,34.24245497590164 139.69151150342077,42.67885979521088 141.58964078640565,55.33333333331393 153.75999912479892,51.551553451339714 152.75510715181008,35.9879238922731 149.07050325116143,31.33333333331393 141.14302213070914,34.82427828741493 139.35654751304537,47.62430533213774 139.91482083080336,55.042427696927916 152.42014316096902,53.44244518328924 152.8667618157342,37.44247899047332" stroke="#4dd2ff" stroke-linecap="round" stroke-linejoin="round" stroke-width="0.5"><title>2024-11-17 5.0km</title><desc>1731835115000</desc></polyline><polyline fill="none" points="170.06322872219607,37.83941478718771 171.50599667662755,52.44179782678839 178.3868899969384,53.164682493312284 182.60421170899644,49.405676475784276 183.15912246052176,36.10446390416473 178.83081859815866,31.91165341215674 173.83662183303386,32.48997315426823 171.50599667662755,35.81530512869358 171.1730502252467,51.429758408805355 175.16840763716027,55.18875675788149 182.60421170899644,52.15264381264569 183.15912246052176,36.82736047421349 181.38340805564076,33.21287235751515 177.83197924494743,31.622493414732162 171.28403237601742,35.52614626887953 171.39501452632248,50.99602691328619 175.16840763716027,54.75502690614667 182.38224740885198,51.86348971427651 183.27010461129248,37.11651895433897 181.27242590487003,32.923712739604525 178.05394354602322,31.91165341215674 171.6169788269326,34.94782829703763 171.06206807494164,50.27314066683175 173.3926932318136,55.33333333331393 182.7151938593015,51.28518126462586 183.27010461129248,36.97193972481182 178.60885429754853,32.05623337946599 171.72796097723767,34.6586691843695 171.6169788269326,51.429758408805355 174.72447903594002,55.33333333331393 182.82617601007223,51.71891263325233 183.27010461129248,37.11651895433897 178.49787214724347,31.767073424183764 174.2805504342541,32.200813325238414 171.28403237601742,35.67072570952587 171.06206807494164,50.85144970641704 173.72563968319446,55.33333333331393 182.27126525808126,52.58637480204925 182.60421170899644,37.55025651695905 179.60769364982843,32.34539325005608 173.94760398333892,32.48997315426823 171.6169788269326,34.803248751035426 171.1730502252467,50.56229522865033 173.3926932318136,54.89960354421055 182.38224740885198,52.008066773822065 182.9371581603773,36.10446390416473 178.27590784616768,31.767073424183764 171.50599667662755,34.6586691843695 171.1730502252467,50.85144970641704 174.5025147353299,55.18875675788149 182.27126525808126,53.74298984755296 183.04814031068236,37.11651895433897 179.49671149998903,32.05623337946599 173.83662183303386,32.05623337946599 171.39501452632248,34.51408959639957 171.28403237601742,50.70687247783644 173.3926932318136,54.610450246487744 182.9371581603773,51.71891263325233 182.60421170899644,35.95988452702295 177.94296139571816,31.33333333331393 174.61349688610062,31.91165341215674 170.8401037743315,35.95988452702295 170.8401037743315,51.57433553156443 174.72447903594002,54.32129686453845 180.4955508527346,53.59841304033762 182.9371581603773,50.70687247783644 183.15912246052176,36.68278120207833 179.05278289876878,31.622493414732162 173.05974678089842,32.634553036885336 171.1730502252467,34.803248751035426 170.50715732341632,48.53821152599994 173.28171108150855,54.4658735661651 183.15912246052176,51.429758408805355 183.04814031068236,41.88762171543203" stroke="#4dd2ff" stroke-linecap="round" stroke-linejoin="round" stroke-width="0.5"><title>2024-11-16 4.9km</title><desc>1731760965000</desc></polyline><polyline fill="none" points="33.41998844593763,71.24879731913097 35.33333333325572,70.54304751823656 34.751010976266116,67.93719046449405 35.33333333325572,69.02296646212926 34.501444251975045,70.81448990822537 24.976314269239083,80.9662926310848 11.333333333255723,69.62014190579066 13.16348931263201,68.262923597591 19.98497978062369,59.468028577044606 21.108030040515587,59.0337073689152 19.94338532630354,59.1422877186269 18.19641825533472,61.36817788137705 20.77527440781705,59.19657788152108 24.269208549987525,59.1422877186269 33.21201617573388,66.19994225591654 35.20854997099377,69.02296646212926 29.2189485845156,76.67759704004857 23.77007510093972,80.15198715610313 17.78047371469438,74.01749510661466 15.991912189638242,73.96320711344015 11.37492778757587,69.51156462388462 12.955517042195424,68.48007886070991 16.782206816831604,63.15973830773146 19.652224147925153,60.93385889887577 19.98497978062369,59.468028577044606 23.021374927833676,59.250868036586326" stroke="#4dd2ff" stroke-linecap="round" stroke-linejoin="round" stroke-width="0.5"><title>2024-11-14 2.7km</title><desc>1731589127000</desc></polyline><polyline fill="none" points="53.93664563889615,82.0 52.951133354974445,80.8974971974967 51.923384830355644,80.41974297582055 50.72669134271564,78.76596432106453 47.31963458971586,76.41388603641099 47.0802958921995,76.21175225220213 47.33371333661489,75.91773889413162 47.15068962681107,76.10149732365244 46.78464220702881,75.82585957850824 50.41695891064592,71.50745587624988 49.811572793347295,70.73564041525242 47.26331960206153,68.54880416762171 46.60161849716678,68.40178859917796 43.166404250310734,72.51815942194662 45.081113830558024,74.64979839824082 46.34820105275139,75.56859713693848 47.221083361364435,75.20107844854647 50.346565176034346,71.30531419045292 47.474500805779826,68.69581956377078 46.79872095392784,68.42016555467853 45.616106213245075,69.54115475004801 43.208640491066035,72.59166481693683 46.122941102075856,75.36646199148527 46.47490977495909,75.62372484734806 46.939508423092775,75.47671756568889 50.360643922991585,71.47070286668168 50.09314773156075,70.93778301855491 48.12212316377554,69.15524156700121 47.06621714530047,68.36503468016599 46.657933484821115,68.43854250743607 43.208640491066035,72.57328847220924 43.504294176294934,73.05107256000338 46.67201223177835,75.66047664087819 48.192516898328904,74.17202039613767 51.76851861434989,69.78005279254285 52.82442463276675,69.00822670887283 53.711385688278824,68.67744264870271 57.69567106477916,68.5304272309586 62.63731123128673,67.66670817399427 62.369815039855894,65.79223360265314 61.665877694264054,63.568555894249585 64.53794206457678,62.31886848407885 64.83359574974747,61.96968889521668 63.36940607073484,59.764321678063425 61.58140521275345,58.312433771192445 59.258411972085014,58.0 54.40124428702984,63.34802372606646" stroke="#4dd2ff" stroke-linecap="round" stroke-linejoin="round" stroke-width="0.5"><title>2024-11-11 6.9km</title><desc>1731328526000</desc></polyline><polyline fill="none" points="84.74380165280309,80.72945254827209 84.32506887044292,80.87327097781235 81.08539944887161,78.85980338523223 72.66666666662786,71.40979389222048 74.36363636364695,67.32511280961626 77.16253443516325,65.68546341967885 79.82920110190753,62.089693166170036 82.58402203849982,59.21302958040906 83.20110192836728,59.12672902218765 87.65289256186225,63.03898290653888 88.11570247926284,63.959501910809195 83.09090909094084,69.82770918225287 82.0550964185968,70.28795332080335 77.09641873277724,65.62793161364971 80.82093663909473,60.76643314799003 81.79063360881992,60.392466744975536 82.62809917354025,59.27056326488673 83.20110192836728,59.241796424787026 88.07162534433883,63.70060637676215 84.9862258953508,67.72783161931147 82.2754820935661,70.40301418711897 77.20661157020368,65.8868246080965 77.51515151502099,64.99508063554822 81.06336088152602,60.593833358128904 81.68044077127706,60.536300061125075 82.7603305784287,59.21302958040906 83.31129476579372,59.27056326488673 88.04958677687682,63.67184018531407 84.65564738295507,68.04425296206318 82.31955922860652,70.37424897684832 77.27272727258969,66.00188805168727 77.29476584016811,65.48410202491505 79.69696969690267,62.1472260083101 83.02479338843841,59.241796424787026 88.11570247926284,63.729372564092046 83.44352617068216,69.5688213804533 82.36363636353053,70.31671854369051 77.09641873277724,65.85805873670324 79.98347107425798,61.8883280861628 82.25344352610409,59.67329858463199 83.28925619833171,59.18426273186924 87.98347107437439,63.47047672679764 87.82920110179111,64.18963098798122 85.14049586770125,67.49770668623387 83.02479338843841,69.94277031792444 82.07713498605881,70.37424897684832 77.25068870512769,66.03065390208212 77.47107438009698,65.11014460139268 80.62258953158744,61.197931959235575 83.22314049582928,59.18426273186924 88.04958677687682,63.47047672679764 84.65564738295507,67.98672184678435 82.2754820935661,70.28795332080335 77.18457300274167,66.00188805168727 77.25068870512769,65.28274042376142 78.37465564743616,64.41975979568087 79.58677685935982,62.26229164197866 83.00275482085999,59.155495879094815 88.09366391180083,63.47047672679764 82.25344352610409,70.54684017501131 83.39944903575815,70.97831750739715 89.10743801645003,64.41975979568087 93.14049586758483,67.98672184678435 94.46280991716776,68.67709411897522 96.66666666662786,70.97831750739715" stroke="#4dd2ff" stroke-linecap="round" stroke-linejoin="round" stroke-width="0.5"><title>2024-10-22 9.9km</title><desc>1729553484000</desc></polyline><polyline fill="none" points="104.11554348441132,71.26863031234461 103.52073784869572,71.29516974162107 103.33333333332848,71.19431980749505 103.44333163581905,70.86522860600599 103.63888417360431,70.70068188999721 103.88332484581042,70.64229416687158 103.88332484581042,70.40874233817158 104.04221128273639,70.37158622731658 104.44146438068128,70.39281829530955 110.14915407683293,69.86732097398271 110.61359135403472,69.89916951237683 111.29395122504502,69.76646708534099 112.36949018276937,69.67092103840696 112.63022689979698,69.70807786421938 112.89503762802633,69.61253166410097 115.82832569455786,69.30465886932507 117.90607140836073,69.16133788724619 118.20754823743482,69.20380342222415 118.54161715612281,69.10825589888191 121.33231483053532,68.964934143758 121.37712895378354,69.12948870351465 122.00860069032933,69.11887230274442 122.19600520569657,68.94900946947746 122.9619193119579,68.86938599359928 127.33333333332848,68.70483025837893 123.68301929498557,68.800378840333 122.21637526170525,68.93308478822291 121.918972443862,68.83753655449618 121.30787076331035,68.88531070271347 121.23453856164997,68.83753655449618 121.14491031516809,68.97555058940998 120.96157981101715,69.01270812481744 116.72868217056384,69.22503617114853 109.0165789622697,70.00002303348083 108.45843942738429,69.98940688651783 105.65144570813572,70.32381402908504" stroke="#4dd2ff" stroke-linecap="round" stroke-linejoin="round" stroke-width="0.5"><title>2024-10-19 10.0km</title><desc>1729295146000</desc></polyline><polyline fill="none" points="152.083097579889,82.0 150.6981541729765,80.85986002665595 149.69673355552368,79.1913501709787 138.40411808306817,69.76399417353969 140.32173203118145,67.92852532058896 145.05184643669054,61.47643345416873 148.290483326884,58.0 149.10014254949056,58.305928697183845 153.59588191681542,62.338579104689416 151.76349525514524,64.78593898589315 148.71661975991447,68.31786868044583 147.82173325063195,68.76283154317935 143.00639155856334,64.3687775991275 146.43678984360304,59.72431894612964 148.50355154334102,58.0 153.57457509520464,62.394201270348276 150.76207463792525,65.9817965507682 147.92826735891867,68.76283154317935 143.0490052019013,64.53564226374147 143.13423248846084,63.812560991587816 147.992187823751,58.13905855976918 148.71661975991447,58.05562343621568 153.08451819734182,61.69892302893277 153.51065463025589,62.17171250995307 153.3615068787476,62.86698902089847 148.56747200828977,68.48472987617424 147.7791196074104,68.67940108584298 143.00639155856334,64.42439917023876 143.11292566685006,63.756939241240616 147.33167635276914,58.91778461333888" stroke="#4dd2ff" stroke-linecap="round" stroke-linejoin="round" stroke-width="0.5"><title>2024-10-10 5.0km</title><desc>1728516073000</desc></polyline><polyline fill="none" points="185.87012606696226,79.17373039170343 183.36268201982602,82.0 182.20393893739674,81.70250015682541 177.85390343144536,77.68620112851204 177.39800451381598,76.76888490380952 168.4509882548591,69.6037304540223 167.4632072665263,68.3888472213439 170.1416134078754,65.1656453916803 171.20537754904944,64.96729250611679 170.97742809029296,64.54579185294278 173.3139100430999,61.37210618885001 176.41022352559958,58.04959028336452 177.2650339960819,58.19836104636488 181.19716216099914,62.01676590302668 176.9990929608466,67.14916146967153 176.31524458446074,67.7194180424849 175.68838357261848,67.49627439489996 172.21215432544705,64.62017439736519 171.71826383145526,63.80196461176092 173.90277947846334,60.75223876486416 176.27725300798193,58.14877080655424 176.79013929027133,58.0 177.34101714915596,58.371926771331346 180.74126324325334,61.29772221771418 181.1401747962227,62.01676590302668 176.7331519256113,67.29792423904291 175.89733724319376,67.5706556434452 171.90822171373293,64.29784980224213 171.6422806783812,63.72758170794987 174.85256889031734,59.53729203189141 176.63817298447248,58.0 180.96921270212624,61.47128476615762 180.93122112576384,62.48786183448101 176.7331519256113,67.39709934602433 175.70737936079968,67.421893113642 174.16872051381506,66.20699422930193" stroke="#4dd2ff" stroke-linecap="round" stroke-linejoin="round" stroke-width="0.5"><title>2024-10-05 4.9km</title><desc>1728122302000</desc></polyline><polyline fill="none" points="17.596816742792726,88.97808694769628 20.023804530501366,108.52295582985971 28.407944163307548,103.63677492155693 29.180167550221086,90.27150935668033 25.319050614256412,86.10380885464838 19.69285165099427,86.82237916323356 18.2587225032039,99.1817065247451 19.913486903999,107.80440133216325 27.966673656366765,102.91821686411276 29.29048517718911,91.99606992973713 26.86349738901481,86.53495110245422 21.67856893176213,85.96009473025333 19.141263517085463,87.82837671559537 18.2587225032039,97.16973355552182 20.134122157935053,107.51697938656434 27.63572077592835,104.7864667251124 29.180167550221086,91.99606992973713 25.429368241224438,85.96009473025333 20.354757411405444,86.53495110245422 18.810310636647046,88.54694576759357 17.92776962276548,98.89428206603043 19.25158114405349,106.65471304714447 21.89920418569818,107.22955735732103 28.187308909837157,103.63677492155693 29.29048517718911,89.98408230120549 24.988097734283656,85.96009473025333 19.141263517085463,87.39723503327696 18.038087249733508,100.33140352170449 19.913486903999,107.94811227387981 28.29762653633952,104.21162099088542 29.29048517718911,91.70864337688545 28.518261790275574,88.25951820955379 25.098415361251682,85.96009473025333 19.141263517085463,87.82837671559537 18.47935775667429,106.22357959445799 20.134122157935053,107.37326838250738 28.62857941677794,103.78048647061223 29.400802803691477,90.99007662857184 25.760321121662855,85.96009473025333 18.92062826314941,87.82837671559537 18.589675383642316,105.07388946652645 20.6857102913782,107.80440133216325 29.069849924184382,103.63677492155693 29.180167550221086,89.26551429595565 25.319050614256412,86.10380885464838 18.47935775667429,88.54694576759357 17.70713436976075,97.16973355552182 19.47221639705822,105.79244595358614 21.23729842528701,106.79842415603343 28.84921467024833,103.78048647061223 29.29048517718911,90.41522285284009 25.429368241224438,86.10380885464838 18.92062826314941,87.82837671559537 18.369040130171925,103.34935176168801 22.009521812200546,107.94811227387981 28.738897043745965,104.93017810612218 29.180167550221086,90.70264978264458 27.525403148960322,86.96609316224931 24.436509600374848,85.8163805846707 18.369040130171925,88.54694576759357 17.817451995797455,97.4571585166268 20.134122157935053,108.37924497196218 28.738897043745965,105.50502342142863 28.959532296750695,90.70264978264458 25.87063874816522,85.96009473025333 18.589675383642316,87.25352109700907 18.92062826314941,107.51697938656434 28.407944163307548,106.0798684018082 29.400802803691477,101.48109917814145 28.84921467024833,88.54694576759357 25.098415361251682,85.67266641801689 21.126980798318982,85.67266641801689 18.038087249733508,89.12180063244887 19.030945890117437,106.51100191700971 25.760321121662855,107.51697938656434 29.180167550221086,102.05594650364947 28.407944163307548,88.97808694769628 23.8849214669317,85.38523802225245 19.47221639705822,86.24752295814687 17.04522860934958,87.97209056821885 18.92062826314941,105.93615718808724 22.781745200045407,108.2355340939248 27.525403148960322,107.66069037007401 29.400802803691477,102.63079349434702 28.29762653633952,88.54694576759357 26.31190925464034,86.3912370406324 20.46507503790781,86.53495110245422 17.92776962276548,90.55893632798688 18.92062826314941,106.0798684018082 26.642862135078758,107.80440133216325 29.180167550221086,104.21162099088542 28.407944163307548,87.6846628424828 23.223015706054866,85.38523802225245 18.369040130171925,88.54694576759357 18.92062826314941,105.79244595358614 21.568251304794103,108.09182319417596 26.753179762046784,107.80440133216325 29.29048517718911,101.76852288265945 28.407944163307548,86.82237916323356 21.4579336787574,85.96009473025333 18.148404876701534,90.27150935668033 18.589675383642316,105.50502342142863 21.568251304794103,108.66666666668607 24.546827227342874,108.52295582985971 29.069849924184382,103.63677492155693 28.29762653633952,86.67866514308844 21.67856893176213,85.67266641801689 18.038087249733508,89.26551429595565 18.038087249733508,103.92419799801428 21.67856893176213,107.66069037007401 25.319050614256412,108.09182319417596 29.400802803691477,103.34935176168801 28.84921467024833,87.97209056821885 24.215874346904457,85.52895223087398 18.2587225032039,89.26551429595565 18.47935775667429,102.34337004116969 21.016663171350956,106.22357959445799 26.31190925464034,107.22955735732103 29.62143805762753,102.05594650364947 29.400802803691477,89.12180063244887 24.767462480813265,84.66666666668607 18.369040130171925,88.54694576759357 18.47935775667429,104.21162099088542 22.67142757261172,107.94811227387981 28.62857941677794,105.21760080556851 29.62143805762753,89.84036874229787 25.539685868192464,85.38523802225245 19.030945890117437,86.82237916323356 18.2587225032039,103.49306335207075 24.436509600374848,107.80440133216325 28.407944163307548,105.93615718808724 29.62143805762753,89.4092279386823 25.098415361251682,84.81038097990677 18.47935775667429,88.1158043994219 17.4864991158247,101.76852288265945" stroke="#4dd2ff" stroke-linecap="round" stroke-linejoin="round" stroke-width="0.5"><title>2024-09-08 8.9km</title><desc>1725751236000</desc></polyline><polyline fill="none" points="54.16074785310775,85.21119150580489 56.08972209098283,84.66666666665697 55.51102981972508,84.95987247757148 56.12187166174408,95.80827717628563 61.52299952774774,94.21664497829624 62.77683278231416,95.0124621790892 62.326738793519326,97.02293792311684 62.61608492920641,107.87088727473747 49.659807964693755,108.66666666665697 45.76970991829876,108.20595255034277 46.15550476592034,99.95485650500632 45.25531678821426,94.25853014900349 45.22316721768584,86.00703364537912 45.994756912696175,85.2530779891531" stroke="#4dd2ff" stroke-linecap="round" stroke-linejoin="round" stroke-width="0.5"><title>2024-08-20 2.0km</title><desc>1724107925000</desc></polyline><polyline fill="none" points="88.40579710149905,85.50644207665755 83.39130434789695,85.20325075194705 83.53623188409256,90.39530371899309 83.34782608703244,90.69848283087777 78.08695652178722,89.63735281951085 77.69565217400668,90.4332011470251 77.73913043481298,94.92396747297607 77.27536231890554,94.94291552266805 73.43478260881966,92.9723034396884 72.68115942034638,93.18073498852027 72.66666666668607,106.53859951334016 90.23188405798282,108.13008258138143 90.31884057971183,105.23129515277105 89.73913043481298,98.50509937747847 90.65217391308397,98.33457154268399 94.37681159423664,98.54299442119373 95.49275362316985,98.29667643764697 96.27536231884733,98.56194193891133 96.0289855072624,98.08825316092407 96.66666666668607,97.70930088516616 95.52173913043225,91.96803761643241 94.59420289855916,89.35312008316396" stroke="#4dd2ff" stroke-linecap="round" stroke-linejoin="round" stroke-width="0.5"><title>2024-08-18 4.9km</title><desc>1723938111000</desc></polyline><polyline fill="none" points="123.72787654405693,105.4412342596188 122.3847496304079,107.63243421517836 121.1893666771357,108.66666666666424 120.1685902227182,108.17584559987154 118.04644969903165,106.07230395741499 117.22714228165569,105.54641277355404 116.74361659277929,104.77510152639297 116.50185374828288,104.84522093593841 110.31003867607797,99.7263961351855 104.10479233466322,93.99375382783182 103.51381649269024,92.34578751415393 103.66156045318348,91.13609567852836 103.44666014699033,90.55754308896576 103.71528552973177,89.06731899941951 104.3868489866145,88.80433635233203 105.74340716947336,86.92837671349116 108.01329165359493,84.66666666666424 110.69954548106762,86.61279182999715 111.7068906663917,87.98032031776529 112.56649189110612,88.6640787044089 113.41266184672713,88.57641759097896 114.86323891353095,89.89132755313767 115.50793983216863,91.04843637490558 112.05610366392648,95.20341679362173 112.66051077510929,95.57157266194554 116.00489679025486,91.60945480884402 117.32116116565885,92.34578751415393 120.15515895362478,94.95797891922848 120.90731002530083,95.36119801865425 122.46533724514302,97.04418481619359 123.21748831687728,97.41233502503746 125.3933539170539,99.51602879122947 126.1723675270332,99.9367631095447 127.22000651969574,101.2164875750459 126.7096182925161,102.18065450875292 125.04414091946092,103.77589547890966 124.82924061332596,104.31932436341594 123.99650192685658,104.93287014015368" stroke="#4dd2ff" stroke-linecap="round" stroke-linejoin="round" stroke-width="0.5"><title>2024-08-14 5.1km</title><desc>1723587841000</desc></polyline><polyline fill="none" points="154.66505686735036,106.42306154813559 152.783368914912,108.63634800253203 152.45813889848068,108.66666666666424 151.22691097896313,107.37811561416311 150.518374157371,107.01428653227777 150.03052913269494,106.34726322916686 149.48460731934756,106.13502764089208 148.67153227818199,105.13448258060816 143.43300594150787,100.96544077641738 138.1596335316426,96.08365850033442 137.71824993786868,95.00720970110706 137.79955744202016,94.23397900972486 137.4975581410108,93.21815736526332 137.67178850690834,90.79227431637992 139.18178501195507,89.10928455879184 139.5534764593467,89.07896016810992 139.20501572737703,89.04863576860953 138.71717070270097,88.44214591258788 138.4267867594608,88.57860643993627 137.6950192223885,89.59447360164631 137.8924803038244,90.51935891671747 137.5788656451041,90.67097867202392 137.33494313270785,87.19883060149004 137.4278659945703,85.10638820047461 140.0993982727523,84.66666666666424 141.06347296439344,84.86378344726108 143.13100664055673,84.72731802373892 141.04024224891327,87.53240446747805 145.8025389186223,91.62617802499153 147.38222756999312,92.50556011506706 148.09076439164346,93.65784258386702 151.27337240992347,96.37172036554693 148.34630226169247,100.02548816588387 148.88060871732887,100.17709400269814 150.73906595428707,97.87266132943478" stroke="#4dd2ff" stroke-linecap="round" stroke-linejoin="round" stroke-width="0.5"><title>2024-08-10 5.2km</title><desc>1723241479000</desc></polyline><polyline fill="none" points="183.9335190343554,105.9599260431205 182.8103992571705,107.40829430829763 182.24883936857805,108.61234609827079 181.48672237701248,108.07139679847023 180.95190343540162,108.0364967593996 179.90900649956893,106.30893205354369 178.06388115131995,105.33171264947305 177.6226555246394,104.49408964168106 176.19201485603116,103.48195398820826 173.451067780843,100.75961545198516 172.02042711235117,99.9568627325134 170.46945218200563,98.35134107577323 168.2232126276358,96.43166723161994 168.0493964716443,96.60618431313924 167.50120705657173,95.96046983533597 166.45831012068084,95.33220374280063 166.0705663880799,94.54686647040944 165.36193129059393,94.1454698663947 164.84048282261938,92.92381971084978 165.0677808727487,92.26063295438507 164.66666666668607,90.8818907827008 165.0945218198467,89.27624688664946 166.1106778086978,88.47341682731349 166.63212627667235,87.53095724885497 169.1056638811715,84.77334753052128 169.61374187550973,84.72098723506497 169.66722376964753,85.00024187825329 169.92126276693307,84.96533508362336 171.09786443825578,85.83800188182795 171.53909006499453,86.51867754884734 172.76917363045504,87.42623905788787 173.18365831009578,87.46114513176872 173.78532961930614,88.78756836415414 175.00204271124676,89.0668134794978 176.31234911788488,88.92719100357499 177.18142989784246,89.4682271866186 177.4220984215499,90.37576623685163 177.22154131846037,90.6724601968308 174.5875580314896,93.46483775301022 173.4644382544211,95.38455937698018 173.90566388110165,95.55907799155102 174.66778087272542,94.87845394988835 176.20538532960927,92.76674949677545 177.18142989784246,91.75451426301152 177.5825441040215,91.66725220246008 182.7168059424148,95.85575904986763 183.7195914578042,97.11228240463242 185.31067780870944,98.298986744594 186.07279480039142,98.38624395040097 186.25998142990284,98.9621399066964 186.941875580349,99.36352029146656 187.15580315695843,99.83470423608378 188.66666666668607,100.55020222019812 188.43936861655675,101.6321666243748 185.41764159698505,104.80819895930472" stroke="#4dd2ff" stroke-linecap="round" stroke-linejoin="round" stroke-width="0.5"><title>2024-08-09 5.2km</title><desc>1723159591000</desc></polyline><polyline fill="none" points="31.019542863650713,132.54534335340577 31.181784753571264,132.88061138193734 30.302974516991526,133.3217521041588 29.654006957716774,134.15109229162044 29.59992632776266,134.60987377397396 28.802237036114093,135.33333333333576 27.40966081514489,133.40998005485744 26.936455303104594,133.35704329216242 26.246927271364257,132.54534335340577 25.232915460015647,132.08655401389842 24.813790577929467,131.69834628591343 24.854351050395053,131.25719962285802 24.556907585647423,131.43365848180838 12.807890730851796,121.35744388491003 11.956120809249114,120.12212318779348 11.6586773446179,119.18680052358832 11.40179435245227,116.91023012110236 11.536995927221142,115.63956747721386 12.767330258444417,114.77480329485843 14.579031361441594,112.35696030763938 15.809365692606661,111.33333333333576 16.296091362135485,111.35098214790924 19.567969473602716,114.1924075939387 20.365658765193075,114.51007832513278 20.541420812543947,115.26895501598483 23.01560963236261,116.75139802316698 23.299532939563505,117.35142929477297 27.233898767852224,120.66919534415501 27.342060027702246,120.9692016014742 24.13778270361945,124.72804024386278 23.948500498838257,125.09862362127751 24.164823018712923,125.36332533616951 24.759709947975352,125.15156401073182 26.233407113875728,123.13981286449416 28.04510821698932,121.48097525829508 35.26487231417559,127.74561461286794 34.22382018773351,129.36907366356172 32.614921447006054,130.921927079311" stroke="#4dd2ff" stroke-linecap="round" stroke-linejoin="round" stroke-width="0.5"><title>2024-08-08 4.9km</title><desc>1723122982000</desc></polyline><polyline fill="none" points="65.9350393700879,122.42416023673104 65.96456692914944,122.40489097743193 65.96751968504395,122.45884486789873 66.0,122.33552152721131 65.95866141733131,122.27000576750288 65.72539370079176,122.4318679364842 65.4035433070967,122.1235581856563 65.32677165354835,122.11199649975242 65.23228346457472,122.20063596186264 65.13188976378297,122.1274120798189 65.06102362205274,122.15053543299473 64.44094488189148,122.8904720110786 63.54035433070385,123.75370506901345 60.49015748032252,127.34121423712713 60.318897637800546,127.43754233147774 56.00492125983874,123.77682699384422 55.09842519686208,123.19106530566751 54.936023622052744,122.93286358101068 54.86811023623159,122.63226733836564 54.06791338583571,122.2353208875229 53.68405511812307,122.33552152721131 53.29133858268324,122.33937539034741 52.50885826772719,122.2353208875229 51.68799212598242,122.22761313021329 44.681102362214006,122.50509097172653 44.21456692913489,122.47811408770576 43.895669291348895,122.29698286477651 43.529527559061535,122.50894481003706 42.118110236217035,122.57060614640613 42.073818897639285,122.53592166247108 42.0,120.91340751365715 42.014763779516215,120.27747801574696 46.60334645670082,120.08091488097125 46.70964566929615,120.08862326685085 47.666338582668686,120.53570578563631 48.10629921259533,120.67445398892414 52.86023622046923,120.69757861836479 53.32972440945741,120.60893409516393 54.40157480315247,120.12716516238834 54.8710629921261,120.13872772003742 55.30807086614368,120.03466451830172 55.32283464567445,119.94987197568116 56.81692913387087,119.30621058682118 57.0,119.34475362798003 57.3188976378151,119.27923042442308 58.765748031495605,119.2291243351865 58.78051181102637,119.34089932640018 58.845472440938465,119.36402512739005 61.64468503938406,119.27537611325533 61.69783464567445,119.44496527086085 61.71850393702334,120.08862326685085 61.79822834645165,120.38154025759286 61.96948818898818,120.6783080952373 64.44389763780055,122.8095424607618 64.59744094489724,122.70163600668275 64.74507874016126,122.75173548678686 65.25885826771264,122.21219760882377 65.69586614174477,122.53977549627234" stroke="#4dd2ff" stroke-linecap="round" stroke-linejoin="round" stroke-width="0.5"><title>2024-07-21 16.7km</title><desc>1721568012000</desc></polyline><polyline fill="none" points="74.42980789527064,124.82165516419627 73.36584336077794,123.849524927311 73.04665400041267,122.8377084981039 73.06185349373845,120.99261202907655 72.66666666668607,120.09981439517287 72.78826261340873,118.45308332762215 74.00422208145028,117.71899194444995 75.67616634996375,115.19924261723645 76.96812328475062,114.14767982682679 77.22651467175456,113.45324709449778 77.83449440565892,113.39372412333614 79.64323411439545,114.62386021467682 79.84082752792165,115.19924261723645 82.91112518461887,117.63963047561992 83.0783196114935,118.13563889326178 83.95989022584399,118.39356255285384 85.73823094781255,120.29821437773353 86.45260713528842,120.53629397338955 90.73886426002719,124.504225649609 93.8243614101666,126.90476790188404 94.55393709096825,127.83719846647 96.66666666668607,129.30526762877707 96.60586869320832,129.76155615552852 95.19231581169879,131.1304125176539 93.97635634365724,133.27294254333538" stroke="#4dd2ff" stroke-linecap="round" stroke-linejoin="round" stroke-width="0.5"><title>2024-07-16 2.5km</title><desc>1721136594000</desc></polyline><polyline fill="none" points="124.30619077270967,120.70989569004814 123.09571398116532,122.08276038159966 122.16539120691596,123.35210722979173 121.20335288351635,124.00746314554999 120.34703305721632,124.93184442036 119.45371175691253,124.29029814695969 113.47533074722742,119.15761357152951 113.3854700247175,118.75746144786899 113.29032337732497,115.42502817360582 113.25860782820382,113.21017507698343 113.35375447559636,111.77494988122999 114.41093944635941,111.48513948852633 115.73242065979866,111.33333333333212 115.91214210484759,115.6803160760719 116.02843245159602,116.19088773199837 116.31387239374453,116.79804682487884 120.89148331712931,120.68919893143902 122.82084588881116,122.51047889922847 122.11253195838071,123.42109249213536 121.2139247332234,124.00056470968411 120.32588935777312,124.94564101849392 120.42632193001918,125.05601365826442 120.36817675663042,125.19397909453619 121.08177661188529,125.84241123593529 121.06063291244209,125.9458836247286 119.91358721919823,127.31859582175457 119.56471617883653,127.91871372180321 118.60267785543692,129.0637450719223 117.67764100601198,129.9742320785408 116.94289745134301,130.44326397698023 116.13943687354913,130.643290867225 115.1932563247392,131.7537695476385 115.1932563247392,132.1538113592651 116.2398694457952,133.0711358010085 116.59931233583484,133.25046029805162 117.10147519694874,133.1607981347952 117.65649730659788,132.54005540488288 117.98422464754549,132.07794162135542 117.91550762442057,131.6227206298281 116.63102788495598,130.58811112021067 116.15000872328528,130.657085793875 115.19854224956362,131.76066684899706 115.17739855017862,132.3331393453809 115.02410672939732,132.87801634913558 114.55894534225808,133.69187153886378 113.45418704781332,135.133326340012 113.19517672996153,135.33333333333212 110.10819661532878,132.78835347757558 106.69348915977753,129.49829788225907 106.3604758939764,129.07064276687015 106.63534398638876,129.16721039009644 109.24130493932171,125.62856757935879 110.2879180603486,123.54526570991948 110.37777878288762,123.19344074324908 111.06494901390397,122.77262703991073 113.13174563171924,122.07586166403053 113.713197365636,121.69643064233969 114.81266973522725,120.5098266427267 115.82228138230857,119.06792459784629 117.19662184434128,117.54318592926211 120.91791294142604,120.69609785199646 122.79441626454354,122.44839096813666 123.83574346074602,121.22041285882733 124.14761302710394,120.7650870019279 124.10532562824665,120.6685021637204" stroke="#4dd2ff" stroke-linecap="round" stroke-linejoin="round" stroke-width="0.5"><title>2024-07-06 16.1km</title><desc>1720267100000</desc></polyline><polyline fill="none" points="138.27820346318185,121.25932820839807 139.98154093464836,120.07413990376517 142.706880888436,134.00001491617877 150.08800993161276,134.4444545834558 153.26757321180776,129.85190195182804 151.33712407760322,114.00002807821147 145.65933250589296,112.07408257806674 140.32220842922106,116.66671580332331 141.57132257474586,131.92596055741888 145.31866501178592,135.18518692918587 150.31512159435079,134.4444545834558 153.38112904317677,128.81487105682027 152.01845906628296,114.5926259572152 145.65933250589296,111.92593277199194 141.68487840611488,115.03707413899247 140.77643175469711,118.59265257255174 142.13910173159093,132.07410743797664 146.90844665188342,134.88889405620284 150.7693449202925,133.85186831699684 153.49468487408012,127.777839100454 153.04046154860407,116.96301400614902 150.7693449202925,112.81483128061518 142.706880888436,113.11113061010838 140.5493200919591,118.14820595097262 141.7984342374839,132.37040113448165 145.2051091804169,134.740747586824 150.8829007516615,134.29630804958288 153.38112904317677,131.3333728176076 152.92690571723506,117.11116307531483 149.179563280195,111.92593277199194 146.0,111.33333333337214 141.3442109124735,114.74077537248377 141.00354341743514,130.1481962982798 142.47976922616363,133.1111349965213 147.24911414599046,135.33333333337214 153.38112904317677,131.48151978489477 152.81334988540038,116.66671580332331 147.13555831462145,111.62963309616316 143.27466004667804,112.96298095607199 140.66287592379376,116.518566669547 141.68487840611488,131.48151978489477 144.18310669763014,134.14816149347462 149.06600744882599,135.03704050334636 153.6082407059148,130.74078473087866 152.35912655992433,114.44447652017698 145.65933250589296,111.77778294484597 140.66287592379376,116.96301400614902 141.7984342374839,131.92596055741888 146.90844665188342,135.03704050334636 151.45067990897223,134.14816149347462 153.72179653681815,127.481544060749" stroke="#4dd2ff" stroke-linecap="round" stroke-linejoin="round" stroke-width="0.5"><title>2024-02-29 2.9km</title><desc>1709196138000</desc></polyline><polyline fill="none" points="166.04920108662918,111.33333333337214 174.79299627011642,116.518566669547 174.45232892548665,130.29634343879297 178.99456018954515,135.18518692895304 184.89946083305404,133.85186831641477 187.17057646531612,130.59263765520882 186.26213021250442,115.62967141100671 181.606343166437,111.62963309616316 176.95055612083524,112.07408257771749 173.88455001730472,115.03707413887605 175.0201078336686,131.62966673041228 180.13011800590903,135.18518692895304 186.71635333867744,132.37040113448165 186.375685993582,115.62967141100671 181.606343166437,111.92593277222477 174.3387731439434,114.29632706055418 174.79299627011642,130.29634343879297 177.17766768392175,134.29630804911721 183.19612410850823,135.33333333337214 186.8299091202207,132.22225429676473 187.05702068377286,121.70377346512396 184.1045703617856,112.6666815832723 175.58788674138486,113.11113060975913 173.88455001730472,117.70375913381577 176.04210986802354,133.55557505367324 183.76390301715583,135.33333333337214 186.48924177559093,133.11113499605563 187.28413224685937,128.81487105682027 185.35368395922706,114.29632706055418 182.74190098280087,112.22223236132413 176.49633299419656,112.6666815832723 173.99810579931363,117.11116307496559 175.70144252339378,132.81484151654877" stroke="#4dd2ff" stroke-linecap="round" stroke-linejoin="round" stroke-width="0.5"><title>2024-02-26 2.1km</title><desc>1708947688000</desc></polyline><polyline fill="none" points="19.326832509599626,147.5706207275507 16.05391634395346,152.72399420657894 18.311099906452,159.49695923674153 22.374030319042504,162.0 28.807003472931683,160.52762383403024 29.935595253948122,143.59514316369314 24.292636347468942,138.0 18.423959084320813,140.79757546872133 17.74680401571095,155.8160056329798 21.13257935969159,160.82209923968185 25.30836895061657,161.26381218631286 30.16131361061707,158.46629358443897 30.048454432282597,143.44790295232087 24.85693223774433,138.14724100811873 17.972522371914238,141.828259208065 17.859663193579763,156.69943572522607 20.00398757820949,160.67486154736253 22.938326209783554,161.5582873764797 29.82273607607931,158.7607695927145 29.935595253948122,143.59514316369314 28.807003472931683,140.65033484820742 23.728340456727892,138.14724100811873 17.859663193579763,143.15342246554792 18.198240728117526,158.17181748943403 22.82546703191474,161.5582873764797 27.791270869784057,160.38038609892828 30.612750322557986,155.9632440356654 29.82273607607931,141.97549965634244 27.33983415691182,138.736204824585 23.502622100524604,138.0 18.423959084320813,141.3865377344191 17.74680401571095,156.2577207761351 22.03545278450474,161.5582873764797 26.888397444505244,161.11657455872046 30.16131361061707,158.17181748943403 30.38703196682036,144.4785839788965 29.25844018533826,141.2392972005182 25.08265059487894,138.736204824585 20.22970593487844,139.61964990291744 18.536818262655288,141.97549965634244 17.972522371914238,158.31905554770492 21.922593606170267,161.70552493922878 29.25844018533826,159.20248344331048 29.82273607607931,143.88962352147792 27.791270869784057,140.06137215177296 24.292636347468942,138.736204824585 17.633944837842137,142.4172208707896 17.859663193579763,157.58286504243733 20.116846756543964,161.41104979236843 28.016989225987345,160.52762383403024 30.048454432282597,157.2883886890486 30.16131361061707,148.60129753354704" stroke="#4dd2ff" stroke-linecap="round" stroke-linejoin="round" stroke-width="0.5"><title>2024-01-18 3.0km</title><desc>1705581243000</desc></polyline><polyline fill="none" points="51.16110504465178,140.96299372753128 47.98154269484803,142.14818879205268 47.86798689654097,158.14818645152263 50.59332605358213,161.11112125008367 55.13555798213929,161.85185359616298 59.67778991069645,158.88892096397467 59.67778991069645,142.88893500319682 57.63378554256633,139.18519853102043 54.11355579830706,138.0 49.34421227360144,139.9259469085373 47.300207905471325,143.18523333594203 47.52731950208545,156.81486296490766 52.75088621955365,161.55556072248146 59.450678314082325,158.59262722358108 59.564234112389386,142.74078580387868 54.79489058768377,138.2962997625582 50.47977025574073,139.33334825013299 47.64087529992685,142.88893500319682 48.09509849268943,157.40745139797218 50.47977025574073,161.11112125008367 53.8864442021586,162.0 59.67778991069645,158.44448032137007 60.01845730561763,143.48153158219066 55.93044857028872,138.44444961159024 50.82043764973059,139.03704879048746 48.20865429099649,141.85189015592914 48.09509849268943,157.40745139797218 53.43222100939602,162.0 60.13201310345903,158.88892096397467 59.337122516240925,142.74078580387868 54.681334788911045,139.03704879048746 48.09509849268943,141.70374080515467 48.20865429099649,158.14818645152263 54.22711159661412,162.0 59.67778991069645,159.18521461705677 59.79134570853785,143.03708418062888 55.47622537706047,138.44444961159024 50.36621445743367,139.18519853102043 47.52731950208545,143.18523333594203 47.75443109869957,156.22227418527473 52.41021882509813,161.55556072248146 59.450678314082325,159.33336141100153 59.79134570853785,142.74078580387868 54.45422319276258,138.0 47.86798689654097,142.2963380778674 48.09509849268943,156.66671580262482 49.911991264205426,159.92594837083016 53.77288840338588,161.25926776288543 58.42867613071576,160.6666815824574 60.699792094994336,157.25930432230234 59.2235667174682,141.40744203934446 55.816892771515995,138.44444961159024 51.047549246344715,138.59259943873622 48.09509849268943,141.40744203934446 47.86798689654097,153.70376800536178" stroke="#4dd2ff" stroke-linecap="round" stroke-linejoin="round" stroke-width="0.5"><title>2024-01-17 3.3km</title><desc>1705483266000</desc></polyline><polyline fill="none" points="78.99744493234903,151.73591735283844 76.33638166915625,154.00006200524513 80.84861937584355,159.88681485748384 86.28644430544227,161.54717497667298 91.72426923364401,159.5849309124751 92.53415805334225,145.09439772111364 89.41030117869377,139.3585054660216 84.66666666697711,138.3018902578624 80.15442895982414,141.16984330583364 79.80733375158161,156.11325919954106 84.08817465323955,160.94340796931647 92.30276124738157,159.13210482965223 92.07136444188654,144.18873264198191 87.79052354069427,138.15094513993245 79.34454014059156,142.67928907775786 79.46023854333907,154.3019475832116 82.81549222301692,161.39623325772118 91.37717402586713,160.33964060922153 92.53415805334225,144.7925094497623 89.64169798512012,138.9056705093244 83.27828583400697,139.05661551700905 79.34454014059156,142.8302335337503 79.80733375158161,157.47174082533456 85.245158680249,162.0 91.9556660396047,160.1886987137841 92.41845965012908,143.2830667681992 88.25331715168431,138.0 82.93119062576443,138.75472547998652 80.50152416806668,141.77362187986728 79.92303215432912,157.47174082533456 81.19571458408609,160.1886987137841 86.74923791596666,162.0 92.9969516643323,157.7736253888579" stroke="#4dd2ff" stroke-linecap="round" stroke-linejoin="round" stroke-width="0.5"><title>2024-01-13 2.0km</title><desc>1705132259000</desc></polyline><polyline fill="none" points="108.2623484856449,144.90005751594435 109.52707748254761,157.9500393854687 111.5966340242885,160.95001174649224 115.96569783287123,162.0 122.28934281878173,157.20004492392763 121.82944136485457,142.3500416672323 116.08067319588736,138.3000034657307 110.1019542994909,141.7500370168127 110.1019542994909,157.65004166623112 114.93091956200078,161.4000068437308 122.4043181813322,157.80004053679295 122.17436745483428,142.3500416672323 118.38018046366051,138.6000068440335 114.12609201855958,138.45000516576692 109.41210211906582,143.55004991486203 109.75702820951119,156.6000489599537 112.63141229422763,161.5500051653944 115.1608702884987,162.0 120.79466309444979,160.05002095911186 122.28934281878173,156.90004698571283 121.71446600183845,141.90003821253777 115.96569783287123,138.3000034657307 112.86136302119121,138.45000516576692 109.75702820951119,142.20004053774755 109.98697893647477,157.9500393854687 115.73574710590765,162.0 122.17436745483428,157.3500438601477 121.36953991139308,141.4500345599372 115.85072246892378,138.0 109.75702820951119,142.05003938591108 110.67683111643419,156.7500479836017 115.73574710590765,161.10001013393048" stroke="#4dd2ff" stroke-linecap="round" stroke-linejoin="round" stroke-width="0.5"><title>2024-01-11 2.0km</title><desc>1704963338000</desc></polyline><polyline fill="none" points="143.40694468049332,143.8724013985484 141.7434752304107,146.6809272331302 141.93917751824483,158.04259862197796 145.95107442792505,161.87234217108926 150.15867362590507,161.36171066894894 152.31139879720286,158.42557373282034 151.62644078815356,144.51070351823 148.7887576087378,141.57450990349753 142.72198667144403,141.95749223983148 139.2971966266632,139.14895120816072 140.2757080681622,138.0 140.0800057798624,141.44684908760246 143.30909353634343,141.95749223983148 141.64562408579513,144.63836388586788 142.03702866239473,156.76601370499702 143.99405154585838,160.97873684577644 148.49520417582244,162.0 151.82214307645336,160.08513060532277 152.50710108550265,146.5532671637484 148.2016507438384,141.57450990349753 144.77686069859192,142.0851529808715 141.8413263745606,145.40432570129633 142.13487980654463,158.04259862197796 146.04892557207495,161.74468432366848 149.57156676147133,161.6170264573302 152.21354765305296,158.42557373282034 151.72429193230346,144.3830431314418 146.4403301491402,141.19152739993297 142.3305820953101,145.14900517085334 142.62413552729413,158.80854867608286 146.63603243744,161.6170264573302 150.64792934712023,160.72342087037396 152.70280337380245,157.6596233426826 152.01784536475316,144.2553827263182 149.37586447270587,141.19152739993297 146.83173472527415,140.9362056373502 142.3305820953101,144.51070351823 142.42843323899433,157.53196487919195 146.4403301491402,161.2340527464985 150.15867362590507,160.85107886767946 152.50710108550265,157.78728178754682 152.21354765305296,144.63836388586788 150.94148277956992,141.82983147969935 148.00594845507294,140.80854472809006 142.13487980654463,144.12772230233531 142.03702866239473,157.2766478957492 144.48330726614222,160.3404467672808" stroke="#4dd2ff" stroke-linecap="round" stroke-linejoin="round" stroke-width="0.5"><title>2024-01-09 2.6km</title><desc>1704792913000</desc></polyline><polyline fill="none" points="167.41043034335598,146.5063925558934 171.95122552104294,143.31650351092685 172.88267068564892,159.1139533831738 176.8413126352243,161.6962059964426 181.14924652129412,161.54430896171834 184.87502717925236,158.6582610787591 185.45718040736392,154.70891940279398 185.1078884708695,143.16460378828924 181.8478303947486,138.60760177869815 176.25915940711275,138.30380093341228 172.88267068564892,141.0380053386325 172.88267068564892,157.13928528816905 177.8891884451732,162.0 184.5257352432236,160.481029095361 185.34074976155534,144.0760017912835 181.8478303947486,138.60760177869815 176.25915940711275,138.60760177869815 173.23196262214333,141.79750528465956 173.23196262214333,156.37979655980598 176.60845134453848,161.08861772390082 182.66284491401166,161.24051482521463 185.34074976155534,159.1139533831738 185.34074976155534,143.6203028896125 182.66284491401166,139.06330287910532 178.00561909051612,138.0 175.44414488831535,138.30380093341228 172.9991013314575,141.94940520753153 173.1155319768004,158.05067102937028 178.70420296443626,161.54430896171834 185.69004169851542,158.81015853595454 185.45718040736392,144.37980094749946 181.4985384582542,138.30380093341228 176.49202069826424,138.1519004778238 172.64980939449742,142.86080427630804 173.34839326748624,158.81015853595454 179.28635619208217,161.84810300928075 185.69004169851542,158.20256857492495 184.87502717925236,141.3418053833302 181.03281587548554,138.30380093341228 176.49202069826424,138.45570136688184 172.88267068564892,141.49370537279174 172.88267068564892,156.8354898634134 177.42346586287022,161.3924119048752 185.45718040736392,158.6582610787591 185.9229029896669,144.8354995161062 182.66284491401166,138.45570136688184 175.44414488831535,138.9114025348099 172.88267068564892,144.8354995161062 173.9305464955978,160.02533739164937 182.19712233170867,161.08861772390082" stroke="#4dd2ff" stroke-linecap="round" stroke-linejoin="round" stroke-width="0.5"><title>2024-01-08 3.0km</title><desc>1704701613000</desc></polyline><polyline fill="none" points="16.77168825874105,169.09982917644083 17.474721659440547,185.45650750619825 23.68485003337264,188.2080731044989 29.074772773310542,183.9278568222653 28.488911606371403,168.79409443493932 24.27071120077744,165.12527055642568 17.59189389226958,167.72402213409077 17.006032725330442,183.31639592268039 21.458577597513795,188.36093764740508 26.262639170046896,188.05520853865892 29.309117239899933,184.53931736387312 28.606083839200437,169.71129839261994 24.153538967017084,164.97240261547267 19.700994095299393,165.58387424598914 17.123204958625138,168.33549215446692 16.888860492035747,184.386452262057 22.161610998678952,188.5138021679595 25.793950236402452,188.36093764740508 29.543461707420647,184.84504750114866 29.191945006139576,170.16990006912965 23.68485003337264,164.66666666662786 19.349477394949645,165.58387424598914 16.77168825874105,168.94696181698237 16.888860492035747,183.7749916310422 21.107060897164047,188.36093764740508 26.1454669367522,188.2080731044989 29.191945006139576,185.45650750619825 29.543461707420647,171.8514378304826 24.973744601476938,164.81953465228435 19.349477394949645,165.73674209730234 17.006032725330442,168.18262468278408 17.826238359790295,186.83229121088516 25.5596057693474,188.36093764740508 30.01215064106509,183.46926118119154 28.020222671795636,167.41828698967583 20.872716430108994,164.81953465228435 16.537343791686,169.4055638294667 17.240377191919833,185.60937245190144 23.333333333022892,188.66666666662786 29.660633940715343,184.23358713800553 28.020222671795636,167.57115457288455 21.458577597513795,164.81953465228435 16.654516024980694,171.39283689134754 17.006032725330442,184.69218244357035 20.05251079564914,188.36093764740508 24.27071120077744,188.66666666662786 27.551533738151193,187.74947934097145 30.129322874825448,182.70493466581684" stroke="#4dd2ff" stroke-linecap="round" stroke-linejoin="round" stroke-width="0.5"><title>2023-12-29 2.9km</title><desc>1703839119000</desc></polyline><polyline fill="none" points="49.3142160596326,167.23273104557302 47.578740525990725,171.15728775656316 49.1985176904127,186.40253956220113 56.14041982451454,187.91195818327833 59.727069260552526,183.08181082631927 59.148577416315675,167.83650997281075 56.83461003797129,165.27044709422626 52.090976912528276,164.66666666662786 47.9258356327191,169.0440667665098 48.967120952904224,186.7044234634377 56.48751493124291,187.91195818327833 59.958465998061,183.98746517766267 59.032879046630114,167.38367581064813 52.090976912528276,164.66666666662786 48.04153400147334,168.8931222447427 48.157232370227575,184.7421765299514 53.59505570912734,188.66666666662786 60.30556110525504,184.44029205478728 59.032879046630114,167.5346205534879 51.512485068291426,164.66666666662786 47.9258356327191,171.00634354376234 48.04153400147334,184.44029205478728 49.545612797141075,187.15724914846942 54.404944291338325,188.36478333931882 60.1898627365008,184.59123430331238 59.842767629772425,168.44028854637872 52.78516712645069,165.11950202053413 47.578740525990725,170.8553993088426 48.388629108667374,185.49688733031508 55.21483287354931,188.66666666662786 59.842767629772425,183.98746517766267 59.958465998061,169.0440667665098 56.83461003797129,165.72328218398616 52.55377038894221,165.5723371760687 47.694438895210624,170.8553993088426 48.50432747695595,186.10065557342023 56.25611819373444,188.36478333931882 60.536957843229175,182.7799258659361 59.842767629772425,168.1383993034251 56.48751493124291,165.42139214649796 51.8595801750198,165.11950202053413 47.46304215723649,171.6101202632999 48.62002584617585,186.25159757887013 56.02472145622596,188.5157250140328 60.421259474009275,183.38369569834322" stroke="#4dd2ff" stroke-linecap="round" stroke-linejoin="round" stroke-width="0.5"><title>2023-12-28 2.9km</title><desc>1703769423000</desc></polyline><polyline fill="none" points="80.46510028932244,170.29634733963758 77.39909239253029,168.9630047439132 79.10243011265993,183.77782389137428 83.19044064218178,187.77778791694436 89.20890058763325,186.2963216009084 91.70712924422696,183.03708807949442 91.59357339609414,172.07413473643828 87.84623041143641,165.55556569516193 83.07688479404896,165.2592661055969 78.98887426452711,167.77780985319987 78.98887426452711,183.92597098858096 82.73621725011617,187.6296413828386 86.8242277787067,188.0740809206618 91.36646170029417,183.92597098858096 90.79868246009573,169.8519000026863 86.8242277787067,165.40741591108963 80.57865613652393,165.55556569516193 78.53465087292716,167.77780985319987 78.76176256872714,182.44449903990608 82.05488216178492,187.77778791694436 87.39200701890513,187.9259344296297 90.11734737176448,185.55558763060253 90.68512661196291,170.59264545573387 87.61911871563643,165.2592661055969 80.01087689679116,166.00001491652802 77.96687163226306,170.29634733963758 80.2379885930568,186.44446833024267 86.37000438664109,188.22222738945857 91.48001754842699,182.44449903990608 89.77667982783169,167.03706234169658 85.57511345064268,164.66666666662786 80.2379885930568,165.85186519753188 78.1939833285287,171.18524142820388 80.57865613652393,186.74076172313653 85.23444590624422,188.66666666662786 88.41400965116918,187.77778791694436 91.25290585216135,183.92597098858096 91.9342409404926,177.25933015812188" stroke="#4dd2ff" stroke-linecap="round" stroke-linejoin="round" stroke-width="0.5"><title>2023-11-08 2.1km</title><desc>1699431646000</desc></polyline><polyline fill="none" points="110.70644564460963,166.703052787052 108.3651289823465,171.9394550944562 109.25705913919955,185.17579356615897 115.6120615079999,188.23030819935957 120.96364244865254,186.0485129894805 122.07855514530092,183.72125949180918 120.96364244865254,168.01215594867244 117.95337816979736,165.10303547256626 113.49372738506645,164.81212295684963 109.14556786976755,169.46671299549052 109.36855040863156,184.44852679490577 115.7235527774319,188.23030819935957 121.74408133653924,184.01216647651745 121.40960752777755,168.8848904320621 118.84530832618475,165.39394790277584 114.72013135068119,164.66666666668607 109.25705913919955,170.48490166320698 109.36855040863156,184.59398019179935 115.27758769830689,188.37576104298932 121.63259006664157,184.15761993738124 121.40960752777755,169.32125738664763 118.62232578732073,165.53940408618655 115.50057023763657,165.10303547256626 112.04434087919071,165.83031638915418 109.03407660033554,170.19399072165834 109.48004167852923,183.8667129947571 111.8213583403267,187.50304366118507 116.6154829338193,188.08485533419298 120.18320356216282,186.7757785913418 122.30153768416494,182.26672328996938 121.40960752777755,168.59397902252385 114.8316226201132,164.66666666668607 112.04434087919071,165.83031638915418 109.14556786976755,171.3576339770225 109.70302421785891,184.01216647651745 111.8213583403267,187.50304366118507 116.39250039495528,188.66666666668607 121.96706387540326,183.575805967208 121.40960752777755,169.32125738664763 116.28100912505761,165.10303547256626 109.59153294796124,169.17580175644252 109.59153294796124,185.32124685682356 115.16609642934054,188.66666666668607 121.63259006664157,184.88488692144165 121.63259006664157,169.61216858337866 119.40276467474177,165.83031638915418 114.72013135068119,164.66666666668607 109.48004167852923,169.17580175644252 109.81451548729092,183.8667129947571" stroke="#4dd2ff" stroke-linecap="round" stroke-linejoin="round" stroke-width="0.5"><title>2023-10-27 2.9km</title><desc>1698413800000</desc></polyline><polyline fill="none" points="142.87721509253606,166.0000149164116 139.24342901818454,169.4074524709722 141.06032205559313,186.1481748498045 148.66856164857745,187.77778791706078 152.41590353753418,182.14820438995957 151.6210128334351,167.77780985296704 147.98722675954923,164.66666666662786 143.3314383518882,164.66666666662786 140.49254298117012,166.592613575398 139.58409646293148,171.7778370535234 140.94676624052227,186.0000280776294 148.32789420429617,188.37037383706775 151.05323375947773,187.18520165001974 152.75657098181546,182.29635172581766 151.16678957408294,167.77780985296704 144.01277324091643,165.55556569504552 139.6976522775367,170.14819824881852 140.60609879577532,185.5555876303697 147.305891870521,188.66666666662786 152.41590353753418,183.9259709888138 151.28034538868815,168.07410870597232 144.80766394454986,165.1111162782181 139.6976522775367,169.4074524709722 140.7196546108462,185.7037344679702 144.80766394454986,188.518520262558 148.78211746318266,188.0740809199633 152.41590353753418,183.33338246925268 151.73456864850596,168.81485545891337 148.2143383892253,165.25926610524766 142.19588020304218,165.85186519788112 139.35698483278975,170.7407944810111 141.74165694462135,187.18520165001974 147.07878024037927,188.37037383706775 151.50745701929554,185.7037344679702 152.41590353753418,174.5926615417702 152.18879190739244,169.85190000280272 149.00922909239307,165.40741591062397 144.23988487012684,165.25926610524766 140.03831972181797,168.07410870597232 139.92476390721276,183.62967677228153 142.19588020304218,187.62964138260577 148.55500583350658,188.37037383706775 151.6210128334351,185.5555876303697 152.07523609278724,170.29634733917192 148.2143383892253,165.40741591062397 140.94676624052227,166.74076318577863 139.81120809260756,182.59264633234125 142.87721509253606,187.92593442928046" stroke="#4dd2ff" stroke-linecap="round" stroke-linejoin="round" stroke-width="0.5"><title>2023-10-21 2.9km</title><desc>1697891041000</desc></polyline><polyline fill="none" points="170.2821645080112,164.66666666668607 170.71501211216673,183.1608370525646 174.2860048445873,188.3843171938206 182.18547361716628,186.40786857239436 182.18547361716628,169.6078919125721 180.0212355973199,166.7843377260724 176.01739526120946,165.93726985988906 170.71501211216673,169.7490694053704 171.4724954185076,186.12551843898837 175.69275955762714,188.52549194043968 180.12944749882445,187.6784431503038 182.29368551820517,184.85494181630202 182.61832122132182,171.72555213305168 178.0734213795513,166.0784478894202 171.0396478152834,168.902004140371 170.60680021112785,183.01966152107343 172.66282632993534,187.3960933884955 177.9652094785124,188.66666666668607 181.42799031035975,186.97256859153276 182.7265331223607,172.85496901796432 182.18547361716628,169.1843593112426 179.04732848890126,166.50198185344925 171.79713112162426,168.4784712292021 170.82322401320562,185.27846754319035 175.15170005243272,188.66666666668607 182.18547361716628,186.26669351611054 182.61832122132182,170.17260175931733 180.34587130043656,167.20787138078595 176.34203096386045,166.50198185344925 171.14785971632227,169.89024687738856 170.93143591377884,183.8667143988423 174.17779294401407,188.3843171938206 179.26375229051337,188.24314242665423 182.8347450233996,184.85494181630202 183.05116882547736,172.99614603549708 182.07726171659306,169.1843593112426 178.61448088428006,166.6431598001509 174.7188524492085,166.7843377260724 170.60680021112785,170.17260175931733 171.2560716168955,184.99611707933946 174.61064054770395,188.3843171938206 179.15554038947448,188.10196763835847 182.7265331223607,184.5725912291091 182.51010931981727,170.3137791690533 178.0734213795513,166.36080388590926 171.79713112162426,168.3372935510124 170.39037640858442,173.98438458138844 172.22997872624546,187.25491847720696 175.36812385497615,188.66666666668607 181.1033546072431,187.25491847720696 182.61832122132182,175.39615217701066" stroke="#4dd2ff" stroke-linecap="round" stroke-linejoin="round" stroke-width="0.5"><title>2023-10-16 3.1km</title><desc>1697460359000</desc></polyline><polyline fill="none" points="16.05392060196027,194.71987106808228 17.859666395932436,211.06343651917996 23.164044665172696,215.33333333331393 30.499886952340603,210.768960209738 29.59701405558735,195.16159254149534 25.308367794845253,191.33333333331393 19.77827130118385,192.21677905804245 17.52108905930072,194.5726305337157 17.859666395932436,210.768960209738 23.38976288959384,215.1860958133475 27.33983181323856,214.30267024278874 30.387027840595692,209.4438157498953 29.48415494337678,195.0143520719721 23.38976288959384,191.48057434143266 17.859666395932436,194.71987106808228 17.972525507677346,210.9161983752856 21.584017095621675,214.89162070921157 26.098381580319256,214.74438312510028 30.612746065016836,210.62172202236252 30.16130961617455,197.22295685485005 24.856931346468627,191.48057434143266 19.552553077228367,192.80574244383024 17.746807283721864,195.45607341604773 17.972525507677346,210.9161983752856 20.116848638281226,214.15543257194804 24.518354010768235,215.33333333331393 30.27416872838512,210.9161983752856 28.80700027057901,193.54194619134068" stroke="#4dd2ff" stroke-linecap="round" stroke-linejoin="round" stroke-width="0.5"><title>2023-10-12 1.8km</title><desc>1697101056000</desc></polyline><polyline fill="none" points="47.072377601638436,199.23212873155717 48.935267658904195,213.20677344559226 56.61968914233148,214.57384815905243 60.694761141669005,209.4093342468841 59.06473234202713,194.37133867188822 51.26388023002073,191.7890347004868 47.53810011642054,196.34603737702128 48.585975772701204,212.5991841070354 55.804674743209034,215.02953933016397 60.345469255931675,210.9283115923172 59.76331611350179,196.49793712212704 55.106090971734375,192.09283550130203 51.38031085813418,192.09283550130203 48.003822629805654,195.28273854090367 47.770961373113096,209.86502768355422 50.91458834381774,214.87764229555614 58.83187108486891,213.81436242966447 60.927622398361564,209.4093342468841 59.996177370194346,195.73843817529269 56.61968914233148,192.24473586818203 51.38031085813418,191.94093511172105 47.770961373113096,195.89033800875768 48.120253258850425,211.23210679448675 50.79815771523863,214.57384815905243 54.756799085997045,215.02953933016397 60.11260799923912,211.83969693363179 60.57833051355556,209.10553851071745 59.29759359918535,194.21943861618638 53.12677028635517,191.63713426725008 47.654530744533986,196.04223782056943 48.2366838878952,211.83969693363179 53.59249280067161,215.33333333337214 58.94830171344802,213.66246521682478 60.46189988497645,210.7764139578212 59.76331611350179,196.19413761014584 53.4760621720925,191.33333333337214 47.53810011642054,196.34603737702128 49.05169828701764,213.05487614450976 55.921105371788144,214.7257452381309 59.64688548492268,212.4472867170116 60.57833051355556,208.49794677307364 59.41402422776446,194.67513871728443 55.455382857471704,191.48523381154519 50.09957394422963,192.24473586818203 47.53810011642054,197.10553587926552 48.818837030325085,212.75108147517312 52.77747840061784,215.33333333337214 57.20184228522703,215.02953933016397 60.57833051355556,206.67516942694783" stroke="#4dd2ff" stroke-linecap="round" stroke-linejoin="round" stroke-width="0.5"><title>2023-10-10 2.9km</title><desc>1696942258000</desc></polyline><polyline fill="none" points="83.8158383994014,212.71344177830906 85.5014415702899,211.72835014233715 89.17766181909246,212.1894577100029 89.75558290630579,212.8391976691346 88.93686136609176,213.99195485087694 89.43451563565759,215.33333333332848 92.56492152437568,214.28538246850076 93.39969642809592,213.17454617092153 94.29868478584103,210.49173614618485 94.45921842119424,203.86833346930507 92.72545515967067,200.82901124010095 93.12678924802458,199.71807044728484 94.8284457824775,198.25077693186176 95.11740632599685,197.39135516890383 94.94081932719564,196.343272860031 93.91340406110976,194.98075437746593 93.75287042575656,193.70207138081605 88.34288691548863,191.33333333332848 80.87807287304895,192.23471615188464 76.5757714464562,191.5429577515024 74.21592700725887,192.19279149560316" stroke="#4dd2ff" stroke-linecap="round" stroke-linejoin="round" stroke-width="0.5"><title>2023-10-07 3.0km</title><desc>1696669067000</desc></polyline><polyline fill="none" points="110.82001967122778,192.52589325862937 108.53479756368324,196.10356466297526 109.22036419576034,208.77438323397655 113.79080841084942,215.03520015301183 118.24699152028188,214.43893353187013 122.13186910329387,211.0103936905507 121.67482468206435,196.10356466297526 115.84750830801204,191.63147344521713 111.84836961934343,192.52589325862937 108.87758087972179,196.5507727060467 109.79166972264647,211.6066623175284 113.90506951650605,215.33333333337214 117.67568599339575,215.03520015301183 121.90334689244628,211.0103936905507 121.44630247028545,196.5507727060467 116.87585825659335,192.07868344988674 109.79166972264647,194.01659120304976 109.44888640660793,211.0103936905507 114.24785283207893,215.33333333337214 118.13273041555658,215.03520015301183 121.67482468206435,211.1594608798623 121.10351915471256,195.5072869679425 116.07603051839396,191.48240340023767 108.76331977453083,195.20914798940066 109.9059308283031,211.4575951937586 115.73324720235541,214.73706688627135 121.78908578725532,211.0103936905507 121.21778025990352,195.35821748967282 115.16194167546928,191.33333333337214 108.87758087972179,194.91100892378017 109.33462530141696,210.86132647958584 113.5622862004675,214.73706688627135 119.50386367971078,213.84266656136606 121.56056357594207,210.56319199164864 121.44630247028545,196.25263403262943 116.87585825659335,191.63147344521713 109.22036419576034,194.76193935819902 109.67740861745551,211.6066623175284 114.9334194646217,215.33333333337214 120.41795252263546,213.3954661055468 121.78908578725532,210.7122592467349 121.21778025990352,195.5072869679425 115.961769413203,191.48240340023767 112.07689183065668,191.9296134703327 108.99184198537841,195.5072869679425 109.44888640660793,211.0103936905507 112.99098067358136,214.88613353052642" stroke="#4dd2ff" stroke-linecap="round" stroke-linejoin="round" stroke-width="0.5"><title>2023-10-06 2.9km</title><desc>1696597953000</desc></polyline><polyline fill="none" points="140.3877245508993,192.98363798844366 140.30688622754678,192.8449715670622 139.99251497005753,192.51490063074107 139.87275449101435,191.78832521003096 139.8398203592733,191.72777547379246 139.8697604790359,191.6750383830422 139.99101796407194,191.657459306507 140.3517964071798,191.65941253837354 140.33383233532368,191.53635837263846 140.04640718562587,191.5734700658577 138.7994011976043,191.57542331001332 137.07634730538848,191.64769314287696 136.87874251496396,191.6750383830422 136.57185628742445,191.78246557013426 135.47155688622297,192.3098228631152 135.0254491017913,192.48365088857736 134.8113772455108,192.64380504420023 134.98502994011506,193.66718381299324 135.09880239520135,195.71956406225218 135.1392215568776,198.1835660490624 135.1137724550863,198.45883440821672 135.13173652694968,199.92878859224766 135.0568862275395,200.09275752143822 135.13173652694968,200.2996678231366 135.14820359281293,202.20855706424118 135.12125748502876,203.0262902201248 134.85928143712226,203.12581995830624 134.72305389221583,203.2838950783862 134.01646706586325,203.27218587432526 134.0,203.2956042721944 134.07634730538848,203.30731345574713 134.06886227545328,203.35219856435288 134.01497005987767,203.365859219678 134.02694610778417,203.38537441734843 134.40718562874827,203.37366530216696 134.7125748503022,203.39708352228263 134.87724550897838,203.59028227317413 135.08682634730212,203.64102087620358 135.1392215568776,203.68005043981793 135.14970059879852,204.96601084294525 135.04491017964028,205.14357684121842 134.98502994011506,205.43040924246907 134.99251497005753,205.5299210870553 135.13622754490643,205.53577470191613 135.16167664670502,205.68016305729543 135.1511976047841,207.48488598445692 135.06437125748926,207.65656585926536 135.05988023951795,207.80288219514114 135.0119760479065,207.86531001133608 134.92065868263307,207.91603239745928 135.04341317364742,207.85165395143576 135.1257485029928,207.97455798860847 135.12874251497124,208.07210007150388 135.2005988023957,208.2125594213112 135.2679640718561,208.71976146154975 135.39071856287046,210.23345013987546 135.36077844311512,210.63525110275987 135.2814371257482,210.80103924579726 135.06437125748926,211.0760479885248 135.07934131736693,211.2691358560478 135.2994011976043,211.39200850290308 135.42964071856113,211.52463168100894 135.5194610778417,211.71576277263102 135.62275449102162,212.1292206920507 135.7874251496978,212.49976174689164 136.12874251497124,213.01070153242017 136.94760479041724,214.14757007615208 137.2455089820287,214.44980875808778 137.19161676646763,214.4069107800824 137.1556886227554,214.41666033260844 137.70808383233816,214.70134413541655 137.9700598802374,214.77543892675112 138.25149700598558,214.8066366109215 139.64221556886332,214.82223542574866 140.18263473053958,214.79688734243337 140.30239520958276,214.88073081945095 140.4491017964101,215.11470983819072 140.57934131736693,215.1303082940285 140.6631736526906,214.93727612371913 140.80239520958276,214.72474253488326 141.13023952095682,214.4576083756774 143.8502994011942,213.47287071950814 143.9431137724605,213.445570029613 143.96407185628777,213.4943212225062 143.92215568862593,213.43191966378436 143.8742514970072,213.5216218129599 143.90269461077696,213.4982213102603 143.91916167664021,213.51577169112443 143.9326347305323,213.4416699265139 143.98353293412947,213.51577169112443 143.96407185628777,213.44752008073647 144.01497005987767,213.41631922864326 144.54790419161873,213.26031387716193 145.1826347305323,213.23106267131516 146.85778443113668,213.25446364110303 149.01047904192092,213.22911258865406 149.12874251497124,213.25446364110303 149.91616766466905,213.23106267131516 150.68562874251802,213.2583637987609 151.8113772455108,213.22521242247603 152.19011976047477,213.1004065046991 152.77994011975534,212.99510060630382 154.2125748502949,212.876142946654 155.36526946107915,212.89564427479672 155.64221556886332,212.876142946654 155.94161676646763,212.78838661837835 156.26347305389936,212.62262309495418 156.57035928143887,212.36714823242983 156.52844311376975,212.38470009656157 156.46706586826622,212.34374571111402 156.4011976047841,212.40810254625922 156.47305389221583,212.33984528691508 156.56137724550354,212.37689927089377 156.616766467072,212.34764613417246 156.81437125748198,212.33594486157472 157.0299401197626,212.0921660222839 157.0494011976043,211.85618387588875 157.42365269461152,211.48757533709795 157.66317365269788,211.2086742981719 157.75149700599286,211.01753596342405 157.7994011976043,210.80689055449238 157.8757485029928,204.31816764615996 157.9056886227554,204.12888223286154 157.90419161676982,203.6683415826974 157.97904191616544,203.4692894427617 158.0,203.22730049709298 157.9955089820287,202.92871132613254 157.931137724554,202.74135785318413 157.93413173652516,202.26710764002382 157.8742514970072,200.9867432050669 157.90419161676982,198.84732407505726" stroke="#ff0000" stroke-linecap="round" stroke-linejoin="round" stroke-width="0.5"><title>2023-09-14 39.1km</title><desc>1694696482000</desc></polyline><polyline fill="none" points="176.39613659773022,191.33333333331393 170.119838997256,197.40397794172168 170.87732319068164,209.40397706319345 173.47441185312346,213.92158514336916 178.88501323200762,214.3451098173391 183.21349433576688,210.5333810650045 182.45601014234126,195.70984840299934 178.66858917707577,191.75686791707994 174.12368401838467,192.46275847632205 170.6608991357498,196.27455857931636 171.20195927331224,211.9451342097018 176.72077268036082,215.33333333331393 183.1052823085338,210.81573185918387 182.45601014234126,196.69809099519625 179.6424974258989,193.02747055265354 174.98938023904338,192.46275847632205 170.119838997256,197.40397794172168 171.09374724607915,210.10985471931053 176.28792457003146,214.76863430504454 180.61640567379072,213.78041021106765 182.67243419820443,211.2392578952131 182.2395860874094,195.70984840299934 178.99322526017204,192.3215804058127 174.0154719906859,192.60393652674975 170.76911116298288,195.56867080699885 170.9855352183804,211.38043319957796 174.34010807378218,214.3451098173391 178.34395309444517,214.76863430504454 182.78064622543752,209.68632818758488 182.78064622543752,194.72160479874583" stroke="#4dd2ff" stroke-linecap="round" stroke-linejoin="round" stroke-width="0.5"><title>2023-09-11 1.8km</title><desc>1694438011000</desc></polyline><polyline fill="none" points="23.552511415444314,231.53699674719246 27.442922374233603,228.4630661662668 33.36073059332557,230.60767093568575 32.593607305781916,234.0390189967584 18.401826483896002,234.89685224849381 16.53881278540939,233.7530742448871 14.018264840124175,234.6823940767208 12.867579908808693,233.681588030915 12.703196346759796,231.03659076051554 21.25114155258052,231.89442928135395 27.771689497632906,229.53536972720758 33.25114155234769,230.17875073463074 33.086757990764454,234.18199130994617 18.127853881102055,234.32496358134085 15.168949771672487,232.39483438976458 14.237442922545597,233.681588030915 12.484018264804035,233.18118423962733 12.42922374419868,230.96510414933437 20.53881278517656,231.465510209091 29.086757990764454,229.39239605495823 33.68949771672487,230.39321088217548 32.42922374396585,234.18199130994617 20.922374429181218,233.96753282434656 15.114155251067132,234.96833828490344 12.155251141637564,233.18118423962733 12.264840182615444,231.10807736139395 24.977168949786574,230.82213089527795 30.78538812790066,229.46388289623428 33.63470319611952,230.4646975773212 32.64840182638727,234.11050515863462 18.237442922312766,234.32496358134085 14.730593607295305,235.18279633123893 12.867579908808693,234.25347745078034 11.333333333255723,231.67996979210875 11.771689497865736,230.96510414933437 16.21004566201009,231.25105053200969 21.96347031951882,230.10726399772102 26.511415524873883,230.89361752744298 33.03196346992627,230.10726399772102 33.03196346992627,224.53126631851774 35.33333333325572,224.6742414125183 32.703196346759796,224.24531600496266 32.31963470298797,234.0390189967584 20.812785387970507,233.82456044864375 13.96347031975165,235.75468399503734 12.100456621032208,232.1803751202242 12.42922374419868,231.32253710142686 21.744292237330228,230.17875073463074 26.67579908668995,230.96510414933437 30.127853881102055,230.25023746085935 33.305936072720215,231.03659076051554 32.86757990834303,234.4679358106805 18.127853881102055,234.18199130994617 17.415525114163756,235.18279633123893 13.853881278540939,235.75468399503734 12.812785388203338,234.82536620169412 12.42922374419868,231.03659076051554 20.155251141637564,229.03496169147547 23.2785388128832,230.10726399772102 26.511415524873883,229.89280372470967" stroke="#4dd2ff" stroke-linecap="round" stroke-linejoin="round" stroke-width="0.5"><title>2023-08-30 4.9km</title><desc>1693396264000</desc></polyline><polyline fill="none" points="45.316152181942016,219.78883936454076 48.2869422249496,222.91930069949012 50.229381868150085,237.9751947146142 54.2285223104991,241.55280019761994 62.112542040180415,237.08079138188623 62.22680319612846,220.68325787002686 55.028350399341434,218.14907006686553 49.08677031286061,221.42860602471046 50.343643023166806,238.57146316720173 53.88573884405196,242.0 58.68470737570897,241.70186681998894 62.5695866625756,239.01866427750792 62.5695866625756,223.06837004690897 60.28436355246231,219.1925599251408 55.713917332235724,218.14907006686553 49.42955377930775,223.21743937255815 50.57216533506289,239.1677312705433 53.657216533087194,241.8509334208211 62.45532550662756,237.82612754683942 62.34106435161084,222.77023132995237 60.17010239697993,219.34162981784903 55.599656177219,218.298140111845 51.25773226795718,219.6397695376072 49.31529262429103,222.77023132995237 50.00085955718532,238.12426186027005 55.828178487718105,241.70186681998894 62.45532550662756,238.72053022566251 62.112542040180415,222.77023132995237 60.39862470794469,219.78883936454076 54.457044621929526,218.298140111845 49.31529262429103,221.7267451341031 50.00085955718532,237.2298586582765 55.599656177219,241.8509334208211 60.17010239697993,240.95653348905034 62.5695866625756,237.67706035764422 61.76975857373327,221.57767559040803 57.42783466540277,218.0 50.115120712667704,221.13046682823915 50.115120712667704,237.67706035764422 52.74312728922814,241.25466688652523 58.79896853072569,241.55280019761994 62.45532550662756,237.5279931460973 62.34106435161084,224.55906232376583 58.570446219760925,218.5962801371934 50.343643023166806,220.83232754433993 49.88659840170294,236.48452205734793 53.42869422212243,241.1056001986144 59.141751997638494,241.55280019761994 62.112542040180415,239.1677312705433 62.683847818057984,227.24230292765424" stroke="#4dd2ff" stroke-linecap="round" stroke-linejoin="round" stroke-width="0.5"><title>2023-08-25 3.1km</title><desc>1692968645000</desc></polyline><polyline fill="none" points="88.5376344085671,225.8336000883137 88.1505376342684,229.2845722262282 96.34408602165058,229.62125132704386 96.66666666674428,234.1663999116863 72.66666666674428,234.08223081973847 73.05376344081014,230.04209992603865 87.24731182795949,230.04209992603865 94.34408602188341,228.6112134339055 96.27956989244558,229.45291180099593 96.40860215038992,233.74555432843044 88.27956989244558,233.82972346962197" stroke="#4dd2ff" stroke-linecap="round" stroke-linejoin="round" stroke-width="0.5"><title>2023-08-24 1.1km</title><desc>1692883156000</desc></polyline><polyline fill="none" points="115.63372885982972,242.0 115.70441016013501,241.65420462006296 115.88111341104377,241.79252286307747 115.36867398349568,227.3376100873429 114.94458618137287,224.68624617620662 115.63372885982972,224.17902365011105 114.96225650643464,223.55652104631008 115.19197073252872,221.06648604513612 114.78555325558409,218.0" stroke="#4dd2ff" stroke-linecap="round" stroke-linejoin="round" stroke-width="0.5"><title>2023-08-21 1.2km</title><desc>1692620048000</desc></polyline><polyline fill="none" points="146.50363459048094,233.5774937933893 146.18313985108398,234.26446181035863 146.41206466488075,242.0 146.28615601733327,232.39769010959571 146.0000000000582,230.48608051796327 146.0801236848347,228.30560713204613 145.56504285376286,218.65720020647132 145.85119887103792,218.13442765919172 146.33194098010426,218.0 145.77107518620323,218.0597456481628 145.49636540957727,218.55264591120067 145.51925789099187,221.8385868462501 146.0114462407073,227.90236380085116 145.86264511174522,230.0081725277123 146.17169361037668,231.88992230256554 146.46929586835904,241.9850670930973 146.21747857314767,235.1605001038988" stroke="#4dd2ff" stroke-linecap="round" stroke-linejoin="round" stroke-width="0.5"><title>2023-08-10 4.8km</title><desc>1691669615000</desc></polyline><polyline fill="none" points="178.27094474155456,229.12095943884924 180.38859180058353,226.69308955752058 187.5115864528343,226.69308955752058 188.2174688060768,231.46509989915648 165.3725490195211,232.55344756424893 164.66666666674428,228.9535204671556 172.75222816411406,226.10705045738723 177.95008912682533,227.61400693154428 187.6399286990054,227.27912805776577 188.66666666674428,230.7953464613529 175.44741533021443,232.38600959675387 165.8859180037398,231.96741446317174 164.730837789597,231.6325381359784 164.66666666674428,230.12559224007418 166.1426024956163,227.69772661919706 173.4581105171237,228.36748368106782 182.50623885937966,226.69308955752058 188.08912655967288,227.19540830887854 187.70409982209094,231.38138076214818 171.21212121238932,232.63716652977746 165.05169340455905,231.88369539985433 165.05169340455905,228.70236191805452 166.8484848488588,227.86516595835565 179.61853832472116,228.5349228240666 181.60784313757904,227.44656751910225 188.2816399289295,227.5302872316097 188.2816399289295,231.46509989915648 174.22816399275325,231.7999763242551 169.6078431373462,233.72551196691347 165.56506238877773,232.2185715798405 164.7950089124497,229.70699545374373 165.62923351163045,228.869800963148 174.0356506241951,228.45120325876633 175.19073083787225,227.36284779472044 179.68270944734104,228.869800963148 188.4741532979533,227.86516595835565 188.2816399289295,231.54881902376655 169.9928698753938,232.4697285866132 165.18003565073013,231.2976616131491 165.1158645276446,228.70236191805452 166.5276292336639,227.69772661919706 180.19607843179256,228.70236191805452 188.66666666674428,227.9488856093376 188.15329768275842,231.71625723631587 173.26559714833274,232.2185715798405 171.01960784336552,233.5580743420287 166.0784313727636,232.55344756424893 165.3083778966684,230.46046944858972 166.20677361846901,228.45120325876633 179.93939393945038,229.03723995923065 188.4099821751006,227.78144629462622 188.60249554389156,231.7999763242551 176.15329768299125,231.71625723631587 173.0089126562234,232.2185715798405 171.72549019614235,233.89294954261277" stroke="#4dd2ff" stroke-linecap="round" stroke-linejoin="round" stroke-width="0.5"><title>2023-08-08 4.7km</title><desc>1691498421000</desc></polyline><polyline fill="none" points="25.04394354863325,244.66666666667152 25.221459703112487,252.51973859337159 26.173591804108582,252.8355368161574 26.12517830741126,253.29870629003562 20.49307486251928,253.1302811991918 21.138588151254226,254.54083525019814 21.396793466818053,264.0775023246679 21.8325149367447,267.34045530029107 22.300512071233243,268.6666666666715" stroke="#4dd2ff" stroke-linecap="round" stroke-linejoin="round" stroke-width="0.5"><title>2023-08-04 1.6km</title><desc>1691107871000</desc></polyline><polyline fill="none" points="53.49738219892606,254.9453895111801 60.2827225131914,253.38802593911532 65.12041884823702,254.2076915165526 65.685863874387,258.79779659822816 56.19895287975669,258.2240355187678 42.314136125845835,259.4535228271852 42.37696335068904,256.66668105637655 44.19895287975669,254.61752385576256 49.03664921480231,253.96179196913727 53.74869109969586,254.7814567076275 60.471204188419506,252.6503258945886 65.56020942423493,254.4535909560509 65.87434554984793,258.7158307658974 42.314136125845835,259.37155709043145 42.37696335068904,256.42078258818947 44.32460733014159,254.61752385576256 50.23036649217829,253.5519591505872 53.12041884823702,254.5355574117857 65.05759162339382,254.5355574117857 66.0,258.79779659822816 43.06806282745674,259.7813856539433 42.0,258.06010367407 43.13089005253278,256.0109515673248 49.91623036656529,254.04375849699136 64.99476439808495,254.4535909560509 65.49738219892606,258.63386492140125 43.19371727760881,259.7813856539433 42.62827225122601,256.2568502158392 47.403141361195594,254.8634231153992 57.51832460728474,255.6830865352531 65.685863874387,254.7814567076275 65.74869109969586,258.3879673157935 44.19895287975669,259.69941996515263 42.1256544503849,258.4699331963202 42.81675392691977,256.3388164078933 48.471204188419506,254.61752385576256 65.62303664931096,255.19128862716025 65.685863874387,258.30600142339244 51.80104712070897,258.9617282276158 47.84293193742633,260.6830074387253 44.89005235605873,260.1912139176857 43.25654450268485,259.37155709043145 42.81675392691977,256.66668105637655 47.46596858650446,254.5355574117857 57.455497382208705,256.09291779558407 65.30890052369796,254.9453895111801 65.8115183247719,258.7158307658974 52.115183246321976,258.3879673157935 47.654450261965394,259.7813856539433" stroke="#4dd2ff" stroke-linecap="round" stroke-linejoin="round" stroke-width="0.5"><title>2023-07-26 4.8km</title><desc>1690377436000</desc></polyline><polyline fill="none" points="80.66666666674428,255.33074143726844 94.1066666666884,253.32682918774663 96.60266666696407,253.8278079093434 96.09066666709259,258.25310086039826 80.41066666692495,258.420092375949 74.5866666669026,260.4239867494325 72.92266666679643,258.67057955713244 73.24266666686162,255.41423762828344 78.74666666705161,253.32682918774663 82.65066666691564,254.6627714690403 96.09066666709259,253.91130432055797 95.96266666683368,257.83562185883056 74.13866666681133,259.756022739748 72.66666666674428,258.00261349603534 73.17866666661575,255.58122997393366 78.36266666697338,253.07633966213325 82.13866666704416,252.90934658393962 85.0186666669324,254.6627714690403 90.65066666691564,253.07633966213325 96.21866666688584,253.9948007191415 96.28266666689888,258.33659662422724 73.05066666682251,258.420092375949 73.05066666682251,255.41423762828344 74.13866666681133,254.9132602987229 87.70666666701436,254.57927516795462 92.69866666663438,253.07633966213325 96.47466666693799,253.9948007191415 96.15466666663997,258.1696050845785 73.05066666682251,258.5870838421397 73.17866666661575,255.33074143726844 75.8026666669175,254.24528984178323 87.19466666714288,254.41228252940346 92.69866666663438,252.90934658393962 96.66666666674428,253.9948007191415 96.15466666663997,258.33659662422724 73.43466666690074,259.088057948451 73.88266666699201,255.08025279082358 84.76266666688025,254.57927516795462 91.35466666705906,252.99284312920645 96.41066666692495,254.0782971055596 96.34666666691191,258.25310086039826 73.05066666682251,258.25310086039826 73.3706666668877,255.08025279082358 81.62666666693985,256.2491988677648 91.86666666693054,252.99284312920645 96.53866666695103,253.91130432055797 96.47466666693799,258.33659662422724 74.07466666656546,258.8375709503307" stroke="#4dd2ff" stroke-linecap="round" stroke-linejoin="round" stroke-width="0.5"><title>2023-07-24 4.9km</title><desc>1690201802000</desc></polyline><polyline fill="none" points="118.08063055423554,244.94149664278666 118.04552132461686,244.66666666667152 117.04490827926202,245.2392285726237 116.90447136067087,246.0637140396575 117.29067288688384,251.17084674246144 118.22106747282669,251.60597591027908 118.25617670256179,251.97239953490498 114.13084221741883,252.15561102578067 111.9014061340713,251.90369517056388 112.62114534206921,252.7052442123677 112.79669149039546,253.7587024285749 113.0073468683986,263.53720468118263 114.00795991363702,268.6666666666715 113.35843916493468,266.170654807589 114.13084221741883,265.4836720866151 113.48132146871649,245.42244794039289 117.94019363558618,245.1247163588705 118.48438669531606,245.01020406142925 118.57215976947919,244.68956918311596 118.76526053261478,245.07891144993482" stroke="#4dd2ff" stroke-linecap="round" stroke-linejoin="round" stroke-width="0.5"><title>2023-07-24 3.0km</title><desc>1690157385000</desc></polyline><polyline fill="none" points="146.1612504433724,260.92776752630016 146.61044810700696,268.66666666666424 146.28794722032035,258.3279676969105 146.04607155517442,257.1858383027211 146.26491144270403,256.2090070368722 146.09214311046526,255.72810207893053 145.60839178034803,245.73378639453585 145.89633900066838,244.98229478295252 146.4376797748264,244.74181630613748 145.95392844476737,244.69672652905138 145.5623202251154,245.31295176938875 145.5623202251154,248.52928692534624 146.01151788874995,255.65296047585434 146.11517888808157,254.81137076705636 145.51624866982456,245.64360769144696 145.7235706684878,245.04241431421542 146.26491144270403,244.72678638262005 145.8617853342439,244.66666666666424 145.4241055593593,245.44822022978042 145.38955189293483,248.42408129372052 145.82723166781943,255.8934134121082" stroke="#4dd2ff" stroke-linecap="round" stroke-linejoin="round" stroke-width="0.5"><title>2023-07-22 4.9km</title><desc>1690030226000</desc></polyline><polyline fill="none" points="173.8063064776361,254.6179560312885 169.65597992856055,252.1301429673913 171.45071573369205,265.0081672645756 174.92801635572687,267.64228818245465 180.5365657461807,266.4715686305426 183.34084044164047,261.64233600214357 182.3313015513122,249.34963869431522 180.20005278289318,245.69106867047958 176.38623919710517,244.66666666668607 170.55334783159196,247.59352675225819 171.67505770921707,263.9837850352633 173.9184774653986,267.34960842272267 177.1714361119084,268.2276474448154 183.677353404928,262.95940175745636 183.00432747835293,252.2764850835083 178.62965895375237,244.81300987419672 173.6941354898736,245.2520393684972 170.10466388007626,248.76426838967018 171.00203178217635,263.5447637590114 176.04972623381764,268.08130766113754 182.77998550236225,264.4228061194299 182.55564352637157,249.34963869431522 175.82538425782695,245.54472559079295 170.32900585560128,249.4959812174202 171.2263737586327,265.30084770941176 175.82538425782695,268.66666666668607 183.45301142893732,263.69110420608195 182.89215649012476,252.4228271782631" stroke="#4dd2ff" stroke-linecap="round" stroke-linejoin="round" stroke-width="0.5"><title>2023-07-18 1.7km</title><desc>1689685608000</desc></polyline></svg>