<?xml version="1.0" encoding="utf-8" ?>
<svg baseProfile="full" height="300mm" version="1.1" viewBox="0,0,200,300" width="200mm" xmlns="http://www.w3.org/2000/svg" xmlns:ev="http://www.w3.org/2001/xml-events" xmlns:xlink="http://www.w3.org/1999/xlink"><defs /><rect fill="#222222" height="300" width="200" x="0" y="0" /><text fill="#FFFFFF" style="font-size:12px; font-family:Arial; font-weight:bold;" x="10" y="20">Over 10km Runs</text><text fill="#FFFFFF" style="font-size:4px; font-family:Arial" x="10" y="280">ATHLETE</text><text fill="#FFFFFF" style="font-size:9px; font-family:Arial" x="10" y="290">Yunlong</text><text fill="#FFFFFF" style="font-size:4px; font-family:Arial" x="120" y="280">STATISTICS</text><text fill="#FFFFFF" style="font-size:3px; font-family:Arial" x="120" y="285">Number: 46</text><text fill="#FFFFFF" style="font-size:3px; font-family:Arial" x="120" y="290">Weekly: 1.8</text><text fill="#FFFFFF" style="font-size:3px; font-family:Arial" x="141" y="285">Total: 231.4 km</text><text fill="#FFFFFF" style="font-size:3px; font-family:Arial" x="141" y="290">Avg: 5.0 km</text><text fill="#FFFFFF" style="font-size:3px; font-family:Arial" x="167" y="285">Min: 1.1 km</text><text fill="#FFFFFF" style="font-size:3px; font-family:Arial" x="167" y="290">Max: 39.1 km</text><polyline fill="none" points="25.086776859359816,57.07063411679701 24.615702479262836,57.23242985003162 20.971074379980564,54.967278808384435 11.5,46.58601812874258 13.40909090905916,41.990751910809195 16.55785123957321,40.14614634712052 19.55785123957321,36.10090481193038 22.657024793326855,32.864658277947456 23.351239669369534,32.767570149953826 28.359504132182337,37.16885576983623 28.880165289272554,38.20443964964943 23.227272727293894,44.80617283002357 22.06198347103782,45.323947485900135 16.483471074374393,40.08142306533409 20.673553718952462,34.61223729146877 21.764462809893303,34.191525088084745 22.706611570203677,32.92938367299212 23.351239669369534,32.89702097787813 28.830578512279317,37.9131821738556 25.359504132298753,42.44381057172723 22.309917355305515,45.45339096049429 16.607438016566448,40.372677684092196 16.954545454471372,39.36946571497538 20.94628099165857,34.418062527882284 21.640495867701247,34.353337568754796 22.855371900717728,32.864658277947456 23.47520661156159,32.92938367299212 28.80578512395732,37.880820208461955 24.987603305722587,42.799784582311986 22.359504132182337,45.42103009893617 16.681818181765266,40.50212405814091 16.706611570203677,39.919614778016694 19.409090908942744,36.16562925933977 23.15289256197866,32.89702097787813 28.880165289272554,37.945544134578086 23.62396694207564,44.51492405300087 22.409090908942744,45.35630836164637 16.483471074374393,40.34031607878569 19.731404958642088,35.874369096927694 22.285123966867104,33.38246090769826 23.450413223123178,32.83229557334562 28.731404958642088,37.65428631764371 28.55785123957321,38.46333486147341 25.5330578511348,42.18492002200219 23.15289256197866,44.93561660764681 22.086776859359816,45.42103009893617 16.657024793326855,40.534485639829654 16.90495867759455,39.498912676557666 20.450413223123178,35.097673454132746 23.376033057807945,32.83229557334562 28.80578512395732,37.65428631764371 24.987603305722587,42.735062077626935 22.309917355305515,45.323947485900135 16.582644628128037,40.50212405814091 16.657024793326855,39.69308297672251 17.921487603336573,38.722229770122794 19.28512396675069,36.2950780972169 23.128099173423834,32.79993286397075 28.855371900717728,37.65428631764371 22.285123966867104,45.61519519687863 23.574380165198818,46.10060719581088 29.99586776853539,38.722229770122794 34.5330578511348,42.735062077626935 36.020661156857386,43.51173088383803 38.5,46.10060719581088" stroke="#4dd2ff" stroke-linecap="round" stroke-linejoin="round" stroke-width="0.5"><title>2024-10-22 9.9km</title><desc>1729553484000</desc></polyline><polyline fill="none" points="42.37998641995364,46.42720910139178 41.71083007976995,46.45706595932279 41.5,46.34360978343102 41.62374809029279,45.97338218175719 41.84374469530303,45.788267126245046 42.118740451551275,45.72258093773053 42.118740451551275,45.459835130441206 42.297487693082076,45.41803450573207 42.74664742825553,45.44192058222325 49.16779833644978,44.85073609573374 49.69029027328361,44.88656570142484 50.45569512818474,44.737275471008616 51.665676455624634,44.62978616821056 51.959005262266146,44.67158759724407 52.256917331542354,44.564098122114956 55.556866406375775,44.21774122799252 57.8943303344131,44.05650512315333 58.233491767110536,44.10427885000172 58.60931930062361,43.99678788624442 61.7488541843486,43.83555091172457 61.79927007301012,44.02067479145262 62.50967577661504,44.00873134058929 62.72050585641409,43.81763565316214 63.58215922594536,43.728059242799645 68.5,43.54293404067721 64.39339670684421,43.650426195374166 62.74342216941295,43.7997203867526 62.40884399935021,43.69222862380775 61.721354608715046,43.745974540554016 61.63885588184348,43.69222862380775 61.53802410454955,43.84749441308668 61.331777287385194,43.88929664042007 56.569767441862496,44.128165692545736 47.893651332560694,45.00002591266821 47.26574435579823,44.988082747331646 44.10787642165087,45.36429078271976" stroke="#4dd2ff" stroke-linecap="round" stroke-linejoin="round" stroke-width="0.5"><title>2024-10-19 10.0km</title><desc>1729295146000</desc></polyline><polyline fill="none" points="91.84348477749154,58.5 90.28542344458401,57.21734252999886 89.15882524999324,55.3402689423674 76.45463284349535,44.73449344524124 78.61194853519555,42.66959098567895 83.93332724133506,35.41098763594346 87.5767937428318,31.5 88.4876603683224,31.844169784351834 93.54536715650465,36.38090149278287 91.48393216216937,39.13418135914253 88.05619723000564,43.107602265517926 87.0494499070337,43.60818548608222 81.63219050352927,38.66487479902571 85.49138857424259,33.4398588144104 87.8164954863023,31.5 93.52139698213432,36.44347642916546 90.35733396769501,40.47952111961786 87.16930077888537,43.60818548608222 81.68013085226994,38.85259754672006 81.77601154963486,38.03913111555448 87.24121130176354,31.6564408797567 88.05619723000564,31.562576365759014 92.97008297208231,35.66128840755846 93.44948645902332,36.193176573709934 93.28169523866381,36.97536264851806 87.8884060094133,43.2953211106942 87.00150955840945,43.51432622158609 81.63219050352927,38.727449066529516 81.75204137526453,37.97655664640479 86.4981358969817,32.532507690018974" stroke="#4dd2ff" stroke-linecap="round" stroke-linejoin="round" stroke-width="0.5"><title>2024-10-10 5.0km</title><desc>1728516073000</desc></polyline><polyline fill="none" points="125.35389182518702,55.32044669067545 122.53301727224607,58.5 121.22943130449858,58.165312676428584 116.33564136025961,53.64697626957786 115.82275507797021,52.61499551679299 105.75736178655643,44.554196760786 104.64610817481298,43.18745312401734 107.65931508375797,39.56135106565489 108.85604974254966,39.33820406938321 108.59960660140496,38.86401583456609 111.22814879845828,35.29361946246354 114.71150146611035,31.555789068792365 115.6731632455485,31.72315617716231 120.09680743096396,36.01886164091411 115.37397958082147,41.7928066533932 114.60465015738737,42.43434529780643 113.89943151909392,42.18330869427882 109.98867361608427,38.94769619705039 109.43304681021255,38.02721018822922 111.89062691305298,34.59626861049037 114.56190963392146,31.667367157380795 115.13890670146793,31.5 115.75864429271314,31.918417617751402 119.58392114855815,35.20993749493209 120.03269664570689,36.01886164091411 115.07479591609444,41.960164768926916 114.13450439844746,42.266987598879496 109.64674942777492,38.58508102752967 109.3475657630479,37.94352942144906 112.95914000144694,33.229453535881476 114.96794460737146,31.5 119.84036428981926,35.4051953619346 119.79762376635335,36.54884456380387 115.07479591609444,42.071736764293746 113.92080178088509,42.09962975284725 112.18981057789642,40.732868507970124" stroke="#4dd2ff" stroke-linecap="round" stroke-linejoin="round" stroke-width="0.5"><title>2024-10-05 4.9km</title><desc>1728122302000</desc></polyline><polyline fill="none" points="138.54641883540899,36.350347816129215 141.2767800972797,58.338325308519416 150.70893718395382,52.84137178666424 151.57768849423155,37.80544802627992 147.23393194144592,33.11678496142849 140.90445810742676,33.92517655855045 139.29106281604618,47.829419840243645 141.1526727671735,57.5299514986109 150.21250786352903,52.03299397206865 151.70179582433775,39.74557867087424 148.9714345629327,33.601819990202785 143.13839004887268,32.955106571433134 140.28392145689577,35.05692380503751 139.29106281604618,45.565950249903835 141.4008874273859,57.20660180982668 149.84018587321043,54.134775065700524 151.57768849423155,39.74557867087424 147.35803927155212,32.955106571433134 141.64910208806396,33.601819990202785 139.91159946657717,35.865313988528214 138.91874082572758,47.50606732419692 140.40802878700197,56.2365521780448 143.38660470908508,56.883252026862465 150.46072252374142,52.84137178666424 151.70179582433775,37.48209258879069 146.86160995112732,32.955106571433134 140.28392145689577,34.57188941235654 139.04284815629944,49.122828961815685 141.1526727671735,57.69162630813662 150.58482985384762,53.48807361465879 151.70179582433775,39.422223798930645 150.83304451406002,35.541957985726185 146.98571728169918,32.955106571433134 140.28392145689577,35.05692380503751 139.53927747672424,55.751527043641545 141.4008874273859,57.044926930218935 150.95715184416622,53.00304727931507 151.82590315444395,38.61383620707784 147.73036126233637,32.955106571433134 140.0357067962177,35.05692380503751 139.66338480636477,54.45812564983498 142.0214240779169,57.5299514986109 151.45358116459101,52.84137178666424 151.57768849423155,36.67370358295739 147.23393194144592,33.11678496142849 139.53927747672424,35.865313988528214 138.67052616598085,45.565950249903835 140.65624344721437,55.26650169771165 142.64196072844788,56.398227175464854 151.20536650437862,53.00304727931507 151.70179582433775,37.967125709401444 147.35803927155212,33.11678496142849 140.0357067962177,35.05692380503751 139.41517014661804,52.518020731862634 143.51071203872561,57.69162630813662 151.08125917427242,54.29645036929287 151.57768849423155,38.290481005446054 149.71607854263857,34.086854807450436 146.24107330059633,32.79342815768905 139.41517014661804,35.865313988528214 138.79463349562138,45.88930333114695 141.4008874273859,58.17665059340652 151.08125917427242,54.94315134908538 151.32947383401915,38.290481005446054 147.8544685919769,32.955106571433134 139.66338480636477,34.41021123412065 140.0357067962177,57.20660180982668 150.70893718395382,55.589851951925084 151.82590315444395,50.416236575343646 151.20536650437862,35.865313988528214 146.98571728169918,32.63174972019624 142.51785339834169,32.63174972019624 139.04284815629944,36.51202571147587 140.15981412678957,56.07487715652678 147.73036126233637,57.20660180982668 151.57768849423155,51.062939816503786 150.70893718395382,36.350347816129215 145.620536650531,32.30839277501218 140.65624344721437,33.27846332779154 137.92588218534365,35.21860188920982 140.0357067962177,55.42817683657631 144.37946334993467,58.01497585559264 149.71607854263857,57.368276666267775 151.82590315444395,51.70964268106036 150.58482985384762,35.865313988528214 148.35089791193604,33.440141670638695 141.7732094177045,33.601819990202785 138.91874082572758,38.12880336889066 140.0357067962177,55.589851951925084 148.72321990225464,57.5299514986109 151.57768849423155,53.48807361465879 150.70893718395382,34.89524569781497 144.8758926698938,32.30839277501218 139.41517014661804,35.865313988528214 140.0357067962177,55.26650169771165 143.01428271830082,57.85330109333154 148.84732723236084,57.5299514986109 151.70179582433775,50.739588242955506 150.70893718395382,33.92517655855045 142.89017538866028,32.955106571433134 139.16695548640564,37.80544802627992 139.66338480636477,54.94315134908538 143.01428271830082,58.5 146.36518063070253,58.338325308519416 151.45358116459101,52.84137178666424 150.58482985384762,33.76349828590173 143.13839004887268,32.63174972019624 139.04284815629944,36.67370358295739 139.04284815629944,53.16472274775151 143.13839004887268,57.368276666267775 147.23393194144592,57.85330109333154 151.82590315444395,52.518020731862634 151.20536650437862,35.21860188920982 145.9928586408496,32.470071259653196 139.29106281604618,36.67370358295739 139.53927747672424,51.386291296221316 142.3937460682355,55.751527043641545 148.35089791193604,56.883252026862465 152.07411781465635,51.062939816503786 151.82590315444395,36.51202571147587 146.61339529138058,31.5 139.41517014661804,35.865313988528214 139.53927747672424,53.48807361465879 144.2553560193628,57.69162630813662 150.95715184416622,54.61980090616271 152.07411781465635,37.32041483500507 147.48214660165831,32.30839277501218 140.15981412678957,33.92517655855045 139.29106281604618,52.67969627096318 146.24107330059633,57.5299514986109 150.70893718395382,55.42817683657631 152.07411781465635,36.83538143092301 146.98571728169918,31.661678602336906 139.53927747672424,35.38027994928416 138.42231150576845,50.739588242955506" stroke="#4dd2ff" stroke-linecap="round" stroke-linejoin="round" stroke-width="0.5"><title>2024-09-08 8.9km</title><desc>1725751236000</desc></polyline><polyline fill="none" points="175.1808413346298,32.112590444041416 177.35093735228293,31.5 176.6999085471034,31.829856537282467 177.38710561930202,44.03431182334316 183.46337446849793,42.24372560062329 184.87393687991425,43.139019951515365 184.36758114257827,45.40080516351736 184.69309554528445,57.604748184094205 170.11728396010585,58.5 165.74092365801334,57.98169661915745 166.17494286154397,48.6992135681794 165.16223138663918,42.29084641765803 165.12606311985292,33.00791285108426 165.99410152668133,32.159712737833615" stroke="#4dd2ff" stroke-linecap="round" stroke-linejoin="round" stroke-width="0.5"><title>2024-08-20 2.0km</title><desc>1724107925000</desc></polyline><polyline fill="none" points="29.206521739135496,62.444747336237924 23.565217391354963,62.103657095940434 23.728260869567748,67.94471668387996 23.51630434783874,68.2857931847393 17.597826086974237,67.09202192195517 17.15760869573569,67.98735129040142 17.206521739135496,73.03946340709808 16.684782608761452,73.06077996300883 12.364130434871186,70.84384136964218 11.51630434783874,71.07832686208712 11.5,86.10592445252405 31.260869565187022,87.89634290405957 31.35869565216126,84.63520704687107 30.706521739135496,77.06823679966328 31.73369565216126,76.87639298551949 35.923913043458015,77.11086872384476 37.179347826051526,76.83376099234738 38.059782608703244,77.13218468129344 37.78260869567748,76.5992848060414 38.5,76.17296349581738 37.21195652172901,69.7140423184901 36.168478260864504,66.77226009356673" stroke="#4dd2ff" stroke-linecap="round" stroke-linejoin="round" stroke-width="0.5"><title>2024-08-18 4.9km</title><desc>1723938111000</desc></polyline><polyline fill="none" points="64.44386111205677,84.87138854208752 62.93284333415795,87.33648849208839 61.588037511799484,88.5 60.439664000528865,87.94782629986003 58.052255911403336,85.58134195210005 57.13053506682627,84.98971437026921 56.586568666796666,84.12198921720847 56.31458546681097,84.20087355295254 49.34879351052223,78.44219565209642 42.36789137648884,71.99297305631626 41.70304355426924,70.13901095344045 41.8692555098678,68.77810763835441 41.62749266537139,68.12723597510194 41.929696220962796,66.45073387435696 42.68520510994131,66.15487839639536 44.21133306558477,64.04442380268301 46.76495311030885,61.5 49.78698866616469,63.68939080875134 50.920251999632455,65.22786035749596 51.88730337744346,65.99708854247001 52.839244577568024,65.89846978985588 54.47114377771504,67.37774349730171 55.196432311146054,68.67949092178605 51.313116621924564,73.35384389283718 51.99307462194702,73.76801924470055 55.75550888897851,69.31063665996771 57.23630631132983,70.13901095344045 60.42455382278422,73.07772628414386 61.27072377840523,73.53134777100058 63.02350440080045,75.42470791822416 63.869674356421456,75.83887690318807 66.31752315670019,78.20553239014407 67.1939134679269,78.67885849825689 68.37250733462861,80.11854852194665 67.79832057910971,81.20323632235522 65.92465853440808,82.99788241377973 65.68289568996988,83.60923990885203 64.74606466770638,84.29947890769108" stroke="#4dd2ff" stroke-linecap="round" stroke-linejoin="round" stroke-width="0.5"><title>2024-08-14 5.1km</title><desc>1723587841000</desc></polyline><polyline fill="none" points="94.74818897573277,85.97594424164708 92.63129002926871,88.46589150284126 92.26540626073256,88.5 90.8802748513408,87.05038006593531 90.08317092701327,86.64107234880794 89.53434527420904,85.89067113280908 88.920183234266,85.65190609599813 88.00547381292563,84.52629290318146 82.11213168414542,79.83612087347137 76.17958772310521,74.34411581286986 75.6830311800586,73.13311091373907 75.77450212225085,72.26322638594138 75.43475290859351,71.12042703592306 75.63076207024278,68.39130860591831 77.32950813841308,66.49794512863446 77.74766101670684,66.46383018911729 77.35564269329188,66.42971523968299 76.80681704054587,65.74741415165772 76.48013510438614,65.90093224492739 75.6568966251798,67.04378280184756 75.87904034176609,68.08427878130897 75.52622385072755,68.25485100602236 75.25181102426723,64.34868442667357 75.35634924389888,61.99468672552757 78.3618230568245,61.5 79.44640708487714,61.7217563781669 81.77238247054629,61.56823277670628 79.42027252999833,64.7239550259037 84.77785628341371,69.32945027811365 86.55500601622043,70.3187551294468 87.35210994054796,71.61507290684676 90.93254396115663,74.66818541123939 87.63959004438948,78.77867418661481 88.24068480695132,78.94923075303086 90.33144919853657,76.35674399560958" stroke="#4dd2ff" stroke-linecap="round" stroke-linejoin="round" stroke-width="0.5"><title>2024-08-10 5.2km</title><desc>1723241479000</desc></polyline><polyline fill="none" points="123.17520891362801,85.4549167984951 121.91169916430954,87.08433109683392 121.2799442896503,88.43888936055009 120.42256267409539,87.83032139827264 119.82089136482682,87.79105885431636 118.64763231197139,85.84754856022482 116.57186629524222,84.74817673064535 116.07548746519024,83.8058508468821 114.46601671306416,82.66719823672611 111.38245125341928,79.6045673834742 109.77298050140962,78.70147057407303 108.0281337047345,76.89525871023943 105.50111420603935,74.73562563557061 105.30557103059255,74.93195735226618 104.68885793862864,74.2055285647366 103.51559888571501,73.49872921065253 103.07938718661899,72.61522477920516 102.28217270190362,72.16365359969495 101.6955431754468,70.78929717469146 101.95125348184956,70.04321207368048 101.5,68.49212713052111 101.98133704729844,66.68577774746518 103.1245125348214,65.78259393072221 103.71114206122002,64.7223269049573 106.49387186631793,61.62001597182825 107.065459609963,61.561110639435356 107.12562674086075,61.875272113029496 107.4114206128288,61.83600196907355 108.73509749304503,62.81775211704371 109.23147632309701,63.583512242446886 110.61532033421099,64.60451894010475 111.0816155988141,64.64378827322798 111.75849582173396,66.13601440966886 113.1272980500944,66.4501651644241 114.60139275761321,66.29308987900731 115.57910863502184,66.90175558492774 115.84986072423635,67.92273701644444 115.62423398322426,68.25651772142737 112.66100278543308,71.3979424721183 111.39749303623103,73.55762929908815 111.8938718662248,73.75396274049126 112.75125348183792,72.9882606936153 114.4810584958177,70.61259318386146 115.57910863502184,69.4738285458734 116.03036211698782,69.37565872776031 121.80640668520937,74.08772893108835 122.93454038997879,75.50131770520238 124.72451253479812,76.83636008766189 125.58189415041124,76.93452444419381 125.79247910861159,77.58240739502071 126.55961002787808,78.03396032789897 126.8002785515855,78.56404226558516 128.5,79.36897749771015 128.24428969359724,80.58618745241256 124.84484679665184,84.1592238292069" stroke="#4dd2ff" stroke-linecap="round" stroke-linejoin="round" stroke-width="0.5"><title>2024-08-09 5.2km</title><desc>1723159591000</desc></polyline><polyline fill="none" points="153.64698572165798,85.36351127257512 153.82950784778222,85.74068780467496 152.84084633161547,86.23697111717775 152.11075782740954,87.16997882806754 152.04991711874027,87.68610799571616 151.15251666563563,88.5 149.58586841705255,86.33622756171098 149.05351221602177,86.27667370368727 148.2777931803139,85.36351127257512 147.13702989253215,84.84737326564209 146.66551440017065,84.4106395716517 146.7111449316726,83.91434957571619 146.37652103387518,84.11286579203443 133.15887707221555,72.77712437052105 132.20063591044163,71.38738858627039 131.8660120127024,70.3351505890314 131.57701864652336,67.77400888623379 131.72912041813834,66.3445134118665 133.1132465407718,65.37165370672301 135.15141028165817,62.6515803460934 136.53553640423343,61.5 137.08310278243152,61.519854916390614 140.763965657854,64.71645854317467 141.66136611090042,65.07383811577165 141.85909841413377,65.92757439297566 144.6425608364516,67.59532277606195 144.9619745570235,68.27035795661504 149.3881361138192,72.00284476217348 149.50981753115775,72.34035180165665 145.9050055416301,76.56904527434381 145.69206306122942,76.9859515739372 145.93542589602293,77.28374100319343 146.60467369150138,77.04550951207057 148.26258300314657,74.78228947255411 150.30074674409116,72.91609716558014 158.42298135347664,79.96381643947097 157.25179771118565,81.7902078715124 155.44178662786726,83.53716796422668" stroke="#4dd2ff" stroke-linecap="round" stroke-linejoin="round" stroke-width="0.5"><title>2024-08-08 4.9km</title><desc>1723122982000</desc></polyline><polyline fill="none" points="188.4269192913489,73.97718026632356 188.46013779529312,73.95550234961411 188.46345964567445,74.0162004763879 188.5,73.87746171811341 188.45349409450137,73.80375648844347 188.1910679133871,73.9858514285479 187.82898622048378,73.6390029588656 187.74261811023462,73.62599606222466 187.63631889765384,73.72571545709798 187.52337598426675,73.64333858979808 187.4436515748239,73.66935236212157 186.7460629921261,74.50178101246456 185.7328986220382,75.47291820264218 182.30142716536648,79.50886601677121 182.10875984252198,79.61723512291428 177.2555364173313,75.49893036807771 176.2357283464662,74.83994846887617 176.0530265748239,74.5494715286386 175.97662401576235,74.21130075566361 175.07640255906153,73.76473599846577 174.64456200788845,73.87746171811341 174.2027559055132,73.8817973141413 173.32246555118763,73.76473599846577 172.39899114174477,73.75606477149267 164.51624015749258,74.06822734319394 163.99138779527857,74.03787834867035 163.63262795277114,73.83410572287539 163.22071850394423,74.07256291129488 161.6328740157478,74.14193191470804 161.5830462598533,74.1029118702827 161.5,72.27758345286566 161.51660925196484,71.56216276771556 166.67876476379752,71.34102924109357 166.7983513779618,71.3497011752097 167.8746309055132,71.85266900884199 168.36958661417884,72.00876073754262 173.71776574803516,72.03477594566175 174.2459399606305,71.93505085706056 175.45177165354835,71.39306080768802 175.97994586615823,71.40606868504256 176.47157972441346,71.28899758309126 176.48818897639285,71.19360597264313 178.1690452756011,70.46948691017496 178.37500000001455,70.51284783147821 178.73375984253653,70.43913422747755 180.36146653543983,70.38276487708754 180.37807578741922,70.50851174220224 180.45115649607033,70.53452826831563 183.6002706693107,70.43479812741316 183.6600639763783,70.62558592971982 183.68331692914944,71.3497011752097 183.77300688976538,71.6792327897947 183.96567421260988,72.01309660714469 186.74938484252198,74.41073526835862 186.92212106300576,74.28934050751923 187.08821358268324,74.34570242263726 187.66621555118763,73.73872230992856 188.1578494094574,74.10724743330866" stroke="#4dd2ff" stroke-linecap="round" stroke-linejoin="round" stroke-width="0.5"><title>2024-07-21 16.7km</title><desc>1721568012000</desc></polyline><polyline fill="none" points="13.483533882186748,106.67436205971171 12.286573780933395,105.58071554321214 11.927485750464257,104.44242206035415 11.94458518049214,102.36668853271112 11.5,101.3622911945713 11.63679544016486,99.50971874357492 13.004749841697048,98.68386593749165 14.885687143716495,95.849147944391 16.3391386953881,94.66613980516559 16.629829005745705,93.88490298129909 17.313806206395384,93.81793963874225 19.34863837872399,95.20184274150233 19.570930968911853,95.849147944391 23.025015832739882,98.59458428506332 23.213109562930185,99.15259375491587 24.204876504081767,99.44275787194783 26.205509816354606,101.58549117493385 27.00918302719947,101.85333072005596 31.831222292559687,106.31725385579921 35.30240658647381,109.01786388960318 36.123179227346554,110.06684827477147 38.5,111.71842608237057 38.431602279888466,112.23175067496777 36.841355288168415,113.77171408235154 35.47340088663623,116.1820603612432" stroke="#4dd2ff" stroke-linecap="round" stroke-linejoin="round" stroke-width="0.5"><title>2024-07-16 2.5km</title><desc>1721136594000</desc></polyline><polyline fill="none" points="65.09446461926564,102.04863265130552 63.73267822878552,103.59310542929961 62.68606510775862,105.0211206335116 61.60377199394861,105.75839603874192 60.640412189328345,106.79832497290408 59.63542572647566,106.0765854153251 52.9097470905981,100.3023152679707 52.808653777785366,99.85214412885034 52.70161379946512,96.1031566953061 52.66593380671111,93.61144696160409 52.77297378500225,91.99681861638237 53.962306877132505,91.67078192459303 55.44897324225167,91.5 55.651159867906244,96.39035558557953 55.78198650802369,96.96474869849771 56.10310644292622,97.64780267798778 61.252918731741374,102.02534879786981 63.42345162489801,104.07428876162885 62.6265984531492,105.09872905365046 61.615665324847214,105.75063529839463 60.616625527472934,106.81384614580384 60.72961217124248,106.93801536554747 60.664198851183755,107.09322648135276 61.46699868835276,107.8227126404272 61.443212026468245,107.93911907781876 60.15278562155436,109.48342029947162 59.76030570117291,110.15855293702771 58.6780125873338,111.44671320591078 57.6373461317562,112.47101108835705 56.81075963273179,112.99867197409912 55.90686648272094,113.22370222562677 54.84241336528794,114.47299074109105 54.84241336528794,114.92303777917186 56.01985312649049,115.95502777613365 56.42422637779964,116.1567678353058 56.98915959653095,116.05589790164595 57.61355946987169,115.35756233049324 57.98225272848504,114.83768432402212 57.9049460774695,114.32556070855571 56.459906370553654,113.16162501023791 55.91875981364865,113.2392215181062 54.84836003073724,114.4807502051226 54.82457336891093,115.1247817635558 54.652120070531964,115.73776839277707 54.12881351003307,116.65335548121948 52.88596042874269,118.27499213251212 52.59457382117398,118.5 49.12172119220486,115.63689766227253 45.2801753047097,111.93558511753872 44.90553538070526,111.45447311272801 45.21476198465098,111.5631116888544 48.146468056715094,107.58213852677727 49.323907817859435,105.23842392365623 49.42500113073038,104.84262083615249 50.19806764059467,104.36920541989821 52.523213835665956,103.58534437203343 53.1773470363114,103.15848447263124 54.414253452123376,101.82355497306344 55.55006655509351,100.20141517257434 57.0961995748512,98.4860841704176 61.28265205907519,102.03311008349556 63.39371829756419,104.00443983915102 64.56521139331744,102.6229644661762 64.91606465546647,102.11072287716524 64.86849133175565,102.00206493418227" stroke="#4dd2ff" stroke-linecap="round" stroke-linejoin="round" stroke-width="0.5"><title>2024-07-06 16.1km</title><desc>1720267100000</desc></polyline><polyline fill="none" points="76.31297889631242,102.66674423438963 78.22923355130479,101.33340739167761 81.29524099966511,117.00001678068656 89.59901117254049,117.50001140637323 93.17601986275986,112.33338969573379 91.0042645870708,94.5000315879006 84.61674906872213,92.33334290015046 78.61248448258266,97.50005527865142 80.0177378966473,114.66670562699437 84.23349813837558,118.33333529520314 89.85451179370284,117.50001140637323 93.30377017334104,111.16672993882094 91.77076644916087,95.166704201838 84.61674906872213,92.16667436843272 80.14548820676282,95.66670840629376 79.12348572397605,99.6667341440916 80.65648944815621,114.83337086765096 86.02200248325244,118.00000581308268 90.36551303509623,116.83335185656324 93.43152048345655,110.00006898795255 92.92051924206316,97.83339075685944 90.36551303509623,93.16668519063387 81.29524099966511,93.50002193625551 78.86798510327935,99.16673169471323 80.27323851687834,115.16670127620455 84.10574782826006,117.833341035177 90.4932633456774,117.33334655570798 93.30377017334104,114.00004441977944 92.79276893194765,98.00005845958367 88.57700869021937,92.16667436843272 85.0,91.5 79.76223727595061,95.33337229397148 79.37898634467274,112.66672083549201 81.03974037896842,116.000026871101 86.40525341406465,118.5 93.30377017334104,114.16670975787565 92.66501862090081,97.50005527865142 86.27750310394913,91.833337233169 81.93399255210534,93.33335357543547 78.99573541386053,97.33338750316761 80.14548820676282,114.16670975787565 82.95599503489211,117.16668168001343 88.44925838010386,118.16667056630831 93.55927079403773,113.33338282222394 92.15401737997308,95.00003608502448 84.61674906872213,92.00000581296626 78.99573541386053,97.83339075685944 80.27323851687834,114.66670562699437 86.02200248325244,118.16667056630831 91.13201489718631,117.16668168001343 93.68702110368758,109.66673706821166" stroke="#4dd2ff" stroke-linecap="round" stroke-linejoin="round" stroke-width="0.5"><title>2024-02-29 2.9km</title><desc>1709196138000</desc></polyline><polyline fill="none" points="103.05535122239962,91.5 112.89212080324069,97.33338750316761 112.50887004099786,112.83338636858389 117.6188802132383,118.33333529508673 124.26189343677834,116.83335185598116 126.81689852289855,113.16671736212447 125.7948964885436,96.3333803373389 120.55713606160134,91.833337233169 115.31937563605607,92.33334289991762 111.8701187693514,95.66670840617735 113.14762131264433,114.33337507175747 118.89638275606558,118.33333529508673 126.30589750595391,115.16670127632096 125.9226467423141,96.3333803373389 120.55713606160134,92.16667436878197 112.3811197867617,94.83336794318166 112.89212080324069,112.83338636858389 115.57487614406273,117.33334655524231 122.34563962183893,118.5 126.43364775972441,115.00003608386032 126.6891482686624,103.1667451482499 123.36764165665954,93.00001678115223 113.78637258382514,93.50002193602268 111.8701187693514,98.66672902554274 114.29737360123545,116.50002193532418 122.98439089395106,118.5 126.05039699701592,116.00002687051892 126.94464877760038,111.16672993893735 124.77289445372298,94.83336794318166 121.83463860535994,92.50001140648965 114.8083746181801,93.00001678115223 111.99786902358755,98.00005845935084 113.91412283852696,115.66669670608826" stroke="#4dd2ff" stroke-linecap="round" stroke-linejoin="round" stroke-width="0.5"><title>2024-02-26 2.1km</title><desc>1708947688000</desc></polyline><polyline fill="none" points="140.49268657295033,102.26694831845816 136.81065588677302,108.06449348235037 139.34998739464208,115.68407914135605 143.9207841088064,118.5 151.15787890693173,116.84357681323308 152.42754466086626,97.79453605914023 146.07921589072794,91.5 139.47695396933705,94.64727240230422 138.715154517442,111.54300633713137 142.52415177971125,117.17486164462753 147.22191506950185,117.67178870958742 152.68147781165317,114.52458028239198 152.55451123602688,97.62889082136098 146.71404876746237,91.66564613406081 138.9690876682289,95.80679160903674 138.8421210926026,112.53686519083567 141.2544860257767,117.00921924074646 144.55561698554084,118.00307329848874 152.30057808570564,114.85586579178926 152.42754466086626,97.79453605914023 151.15787890693173,94.4816267042188 145.4443830139935,91.66564613406081 138.8421210926026,97.29760027374141 139.2230208190158,114.19329467555508 144.42865041084588,118.00307329848874 150.01517972862348,116.67793436127249 153.18934411276132,111.70864954008721 152.30057808570564,95.97243711340707 149.507313426584,92.32823042757809 145.19044986274093,91.5 139.47695396933705,95.3098549512215 138.715154517442,112.03993587312289 143.5398843823932,118.00307329848874 148.9994471250102,117.50614637858234 152.68147781165317,114.19329467555508 152.93541096244007,98.78840697626583 151.66574520803988,95.1442093505757 146.96798191871494,92.32823042757809 141.50841917656362,93.32210614078213 139.603920545429,95.97243711340707 138.9690876682289,114.35893749108072 143.41291780676693,118.16871555661783 151.66574520803988,115.35279387363698 152.30057808570564,98.1258264615899 150.01517972862348,93.81904367066454 146.07921589072794,92.32823042757809 138.58818794228137,96.46937347960193 138.8421210926026,113.53072317270562 141.38145260093734,117.8374310163781 150.26911287894472,116.84357681323308 152.55451123602688,113.19943727517966 152.68147781165317,103.4264597252477" stroke="#4dd2ff" stroke-linecap="round" stroke-linejoin="round" stroke-width="0.5"><title>2024-01-18 3.0km</title><desc>1705581243000</desc></polyline><polyline fill="none" points="171.80624317470938,94.83336794329807 168.22923553083092,96.1667123909574 168.10148525843397,114.16670975799207 171.16749180993065,117.50001140625682 176.27750272955745,118.33333529555239 181.38751364918426,115.0000360844424 181.38751364918426,97.00005187850911 179.08800873486325,92.83334834722336 175.12775027239695,91.5 169.76223880704492,93.66669027204625 167.46273389318958,97.33338750293478 167.71823443938047,112.66672083549201 173.59474699618295,118.00000581273343 181.13201310299337,114.66670562652871 181.25976337585598,96.83338402933441 175.89425191050395,91.83333723281976 171.03974153706804,93.00001678126864 167.84598471224308,97.00005187850911 168.35698580369353,113.33338282257318 171.03974153706804,117.50001140625682 174.87224972667173,118.5 181.38751364918426,114.50004036154132 181.77076446823776,97.66672302980442 177.17175464099273,92.00000581296626 171.42299235565588,92.66667988931295 168.48473607655615,95.83337642531842 168.35698580369353,113.33338282257318 174.3612486347556,118.5 181.89851474110037,115.0000360844424 181.00426283013076,96.83338402933441 175.76650163717568,92.66667988931295 168.35698580369353,95.66670840571169 168.48473607655615,114.16670975799207 175.25550054572523,118.5 181.38751364918426,115.33336644410156 181.5152639215812,97.16671970312018 176.66075354861096,92.00000581296626 170.91199126420543,92.83334834722336 167.71823443938047,97.33338750293478 167.97373498557135,112.00005845841952 173.21149617806077,118.00000581273343 181.13201310299337,115.50003158731852 181.5152639215812,96.83338402933441 175.51100109145045,91.5 168.10148525843397,96.33338033745531 168.35698580369353,112.50005527795292 170.40099017182365,116.16669191711117 174.74449945334345,117.66667623317335 179.98226064629853,117.0000167802209 182.53726610634476,113.16671736259013 180.87651255680248,95.33337229420431 177.04400436766446,92.00000581296626 171.67849290184677,92.16667436843272 168.35698580369353,95.33337229420431 168.10148525843397,109.16673900594469" stroke="#4dd2ff" stroke-linecap="round" stroke-linejoin="round" stroke-width="0.5"><title>2024-01-17 3.3km</title><desc>1705483266000</desc></polyline><polyline fill="none" points="18.6221255492419,136.95290702185594 15.6284293779172,139.500069755828 20.704696798231453,146.12266671471298 26.822249843738973,147.9905718486989 32.93980288784951,145.78304727654904 33.85092781018466,129.48119743622374 30.336588826496154,123.02831864915788 25.00000000046566,121.83962653996423 19.92373258015141,125.06607371894643 19.533250470645726,141.8774165994255 24.349196485243738,147.31133396551013 33.590606403537095,145.27361793338787 33.33028499735519,128.46232422208413 28.514338983222842,121.66981328232214 19.012607658281922,126.76420021243393 19.142768361140043,139.83969103102572 22.917428751010448,147.82076241495088 32.54932077927515,146.63209568534512 33.85092781018466,129.14157313096803 30.596910233143717,122.5188793229172 23.43807156337425,122.68869245657697 19.012607658281922,126.93401272536721 19.533250470645726,143.40570842847228 25.650803515687585,148.5 33.200124294962734,146.46228605299257 33.720767106860876,127.4434501142241 29.034981796052307,121.5 23.047589453868568,122.34906616492663 20.31421468919143,125.74532461480703 19.663411173503846,143.40570842847228 21.095178907271475,146.46228605299257 27.342892655637115,148.5 34.37157062254846,143.7453285624506" stroke="#4dd2ff" stroke-linecap="round" stroke-linejoin="round" stroke-width="0.5"><title>2024-01-13 2.0km</title><desc>1705132259000</desc></polyline><polyline fill="none" points="47.0451420461759,129.26256470545195 48.46796216722578,143.94379430869594 50.796213276684284,147.31876321486197 55.71141006145626,148.5 62.82551067043096,143.10005053936038 62.308121534995735,126.39379687560722 55.84075734484941,121.83750389900524 49.11469858651981,125.7187916438561 49.11469858651981,143.60629687458277 54.54728450672701,147.82500769919716 62.9548579538241,143.77504560397938 62.69616338657215,126.39379687560722 58.4277030210942,122.17500769952312 53.64185352018103,122.006255811546 48.33861488383263,127.74380615423433 48.72665673494339,142.4250550798606 51.960338830482215,147.9937558110105 54.80597907397896,148.5 61.143995981197804,146.3062735791318 62.82551067043096,142.7625528589124 62.17877425206825,125.88754298910499 55.71141006145626,121.83750389900524 52.21903339866549,122.006255811546 48.72665673494339,126.22504560498055 48.98535130312666,143.94379430869594 55.45271549327299,148.5 62.69616338657215,143.26879934268072 61.79073240002617,125.38128887990024 55.582062777131796,121.5 48.72665673494339,126.05629430920817 49.761435005348176,142.5938039815519 55.45271549327299,147.48751140071545" stroke="#4dd2ff" stroke-linecap="round" stroke-linejoin="round" stroke-width="0.5"><title>2024-01-11 2.0km</title><desc>1704963338000</desc></polyline><polyline fill="none" points="82.08281276514754,128.10645157343242 80.21140963351354,131.2660431372933 80.43157470738515,144.04792344977614 84.94495873106644,148.3563849424827 89.67850782861933,147.78192450263305 92.10032364632934,144.47877044946654 91.32974588591605,128.82454145798692 88.13735230918974,125.5213236414711 81.31223500473425,125.95217876986135 77.45934620453045,122.79257010918809 78.56017157575116,121.5 78.34000650187954,125.37770522356732 81.97273022774607,125.95217876986135 80.10132709611207,128.96815937163774 80.54165724478662,142.61176541814348 82.74330798815936,147.3510789515567 87.80710469698533,148.5 91.54991096025333,146.3457719310536 92.32048872020096,131.12242555926787 87.47685708617792,125.5213236414711 83.62396828504279,126.09579710348044 80.32149217044935,129.82986641401658 80.65173978172243,144.04792344977614 85.05504126800224,148.21276986418525 89.01801260607317,148.0691547645256 91.99024110892788,144.47877044946654 91.43982842331752,128.6809235229157 85.49537141667679,125.09046832495369 80.87190485652536,129.5426308172755 81.20215246779844,144.90961726062233 85.71553649147972,148.0691547645256 90.22892051469535,147.06384847918525 92.54065379500389,143.61707626050338 91.7700760345906,128.53730556712253 88.79784753127024,125.09046832495369 85.93570156535134,124.80323134205537 80.87190485652536,128.82454145798692 80.9819873929955,143.47346048912732 85.49537141667679,147.63830933981808 89.67850782861933,147.2074637261685 92.32048872020096,143.7606920110411 91.99024110892788,128.96815937163774 90.55916812596843,125.80856041470543 87.25669201090932,124.65961281914497 80.65173978172243,128.39368759014178 80.54165724478662,143.18622888275422 83.29372067376971,146.63300261320546" stroke="#4dd2ff" stroke-linecap="round" stroke-linejoin="round" stroke-width="0.5"><title>2024-01-09 2.6km</title><desc>1704792913000</desc></polyline><polyline fill="none" points="104.58673413656652,131.06969162542373 109.69512871094048,127.48106644977815 110.7430045218207,145.2531975560123 115.19647671468556,148.1582317459397 120.04290233645588,147.98734758188948 124.23440557718277,144.74054371356033 124.88932795869187,140.29753432807047 124.49637452978641,127.31017926183995 120.8288091942668,122.18355200090446 114.54155433317646,121.84177605004515 110.7430045218207,124.9177560058888 110.7430045218207,143.03169594914652 116.37533700093627,148.5 123.84145214874297,146.79115773225203 124.75834348192438,128.33550201519392 120.8288091942668,122.18355200090446 114.54155433317646,122.18355200090446 111.13595794979483,125.77219344524201 111.13595794979483,142.17727112979628 114.93450776254758,147.47469493933022 121.74570052837953,147.6455791783519 124.75834348192438,145.2531975560123 124.75834348192438,127.82284075079951 121.74570052837953,122.69621573900804 116.50632147677243,121.5 113.62466299906373,121.84177605004515 110.87398899765685,125.94308085832745 111.00497347395867,144.05700490798336 117.292228335049,147.98734758188948 125.15129691082984,144.9114283528179 124.88932795869187,128.67727606592234 120.43585576536134,121.84177605004515 114.8035232857801,121.67088803753722 110.4810355687514,126.96840481087565 111.26694242609665,144.9114283528179 117.94715071609244,148.3291158854263 125.15129691082984,144.22788964677602 124.23440557718277,125.25953105615918 119.91191786015406,121.84177605004515 114.8035232857801,122.0126640376402 110.7430045218207,125.4304185443325 110.7430045218207,142.6899260963546 115.851399095729,147.81646339292638 124.88932795869187,144.74054371356033 125.41326586343348,129.18993695557583 121.74570052837953,122.0126640376402 113.62466299906373,122.52532785164658 110.7430045218207,129.18993695557583 111.92186480760574,146.27850456547458 121.22176262317225,147.47469493933022" stroke="#4dd2ff" stroke-linecap="round" stroke-linejoin="round" stroke-width="0.5"><title>2024-01-08 3.0km</title><desc>1704701613000</desc></polyline><polyline fill="none" points="137.6181492912583,126.48730782361235 138.40906186727807,144.8885709445458 145.39545628754422,147.9840822427068 151.4591193702072,143.168838925194 150.80002555716783,126.14335623942316 146.05455010058358,122.01592937600799 138.54088062932715,124.93952490098309 137.88178681628779,142.4809454131173 142.89089979743585,148.15605485334527 148.2954690665938,147.8121096061077 151.72275689523667,143.85673203435726 150.9318443192169,127.17521069175564 145.92273133806884,121.84395294240676 140.91361835738644,122.53185852686875 138.01360557880253,125.62742867390625 137.74996805377305,143.68475879484322 143.6818123734556,148.32802743907087 147.76819401606917,148.15605485334527 151.9863944207318,144.20067843887955 151.59093813225627,127.69113757787272 145.39545628754422,121.5 140.51816206937656,122.53185852686875 137.6181492912583,126.31533204414882 137.74996805377305,142.9968655849807 142.49544350942597,148.15605485334527 148.16365030407906,147.9840822427068 151.59093813225627,144.8885709445458 151.9863944207318,129.5828675593948 146.845462677069,121.67197648389265 140.51816206937656,122.70383485953789 137.88178681628779,125.4554527682485 138.8045181548223,146.43632761226036 147.50455649057403,148.15605485334527 152.51366947125643,142.65291882900055 150.27275050617754,124.59557286347263 142.23180598393083,121.67197648389265 137.35451176576316,126.83125930826645 138.14542434131727,145.06054400838912 144.99999999953434,148.5 152.11821318324655,143.51278553029988 150.27275050617754,124.76754889450967 142.89089979743585,121.67197648389265 137.4863305282779,129.06694150273688 137.88178681628779,144.02870524919126 141.30907464539632,148.15605485334527 146.05455010058358,148.5 149.74547545565292,147.46816425863653 152.64548823423684,141.7930514990585" stroke="#4dd2ff" stroke-linecap="round" stroke-linejoin="round" stroke-width="0.5"><title>2023-12-29 2.9km</title><desc>1703839119000</desc></polyline><polyline fill="none" points="169.72849306697026,124.38682242622599 167.7760830912739,128.80194872617722 169.5983324018307,145.95285700750537 177.40797230228782,147.65095295628998 181.44295291788876,142.21703717962373 180.7921495931223,125.0660737195285 178.1889362926595,122.17925298109185 172.8523490265943,121.5 168.16656508669257,126.42457511241082 169.33801107201725,146.29247639642563 177.79845429770648,147.65095295628998 181.7032742477022,143.2358983248705 180.6619889275171,124.55663528700825 172.8523490265943,121.5 168.29672575136647,126.25476252532098 168.42688641650602,144.08494859619532 174.54443767247722,148.5 182.09375624312088,143.7453285616357 180.6619889275171,124.72644812276121 172.20154570182785,121.5 168.16656508669257,128.63213648681995 168.29672575136647,143.7453285616357 169.9888143967837,146.8019052920863 175.45556232752278,148.16038125671912 181.96359557844698,143.91513859131373 181.57311358302832,125.74532461480703 173.63331301696599,122.0094397731591 167.7760830912739,128.4623242225498 168.6872077472508,144.93399824667722 176.36668698256835,148.5 181.57311358302832,143.2358983248705 181.7032742477022,126.42457511241082 178.1889362926595,122.68869245704263 173.37299168715253,122.51887932315003 167.90624375687912,128.4623242225498 168.81736841145903,145.61323752021417 177.53813296789303,148.16038125671912 182.3540775734,141.87741659930907 181.57311358302832,125.40569921641145 177.79845429770648,122.34906616492663 172.59202769678086,122.0094397731591 167.6459224266,129.31138529616874 168.94752907659858,145.7830472763162 177.27781163807958,148.3301906407578 182.22391690779477,142.55665766075253" stroke="#4dd2ff" stroke-linecap="round" stroke-linejoin="round" stroke-width="0.5"><title>2023-12-28 2.9km</title><desc>1703769423000</desc></polyline><polyline fill="none" points="20.273237825836986,157.83339075697586 16.823978941887617,156.33338033687323 18.740233877208084,173.0000518776942 23.33924572262913,177.50001140648965 30.1100131617859,175.83336180110928 32.920520400162786,172.16672408941668 32.79277007095516,159.83340157847852 28.577009213156998,152.50001140707172 23.211495393887162,152.16667436878197 18.612483548000455,155.00003608490806 18.612483548000455,173.16671736212447 22.828244406729937,177.33334655570798 27.42725625168532,177.83334103564266 32.53726941300556,173.16671736212447 31.8985177683644,157.33338750293478 27.42725625168532,152.33334289991762 20.400988154113293,152.50001140707172 18.101482232566923,155.00003608490806 18.35698289005086,171.5000614199089 22.061742432415485,177.50001140648965 28.066007896326482,177.66667623328976 31.13201579404995,175.00003608432598 31.77076743869111,158.16672613762785 28.3215085552074,152.16667436878197 19.76223650947213,153.00001678115223 17.46273058699444,157.83339075697586 20.01773716742173,176.00002687145025 26.916254935786128,178.0000058131991 32.66501974267885,171.5000614199089 30.748764806892723,154.166695134365 26.022002632264048,151.5 20.01773716742173,152.83334834722336 17.718231245409697,158.83339660661295 20.400988154113293,176.33335693844128 25.638751645106822,178.5 29.21576085779816,177.50001140648965 32.40951908426359,173.16671736212447 33.176021058578044,165.66674642788712" stroke="#4dd2ff" stroke-linecap="round" stroke-linejoin="round" stroke-width="0.5"><title>2023-11-08 2.1km</title><desc>1699431646000</desc></polyline><polyline fill="none" points="49.79475135030225,153.79093438549899 47.160770105198026,159.6818869812414 48.164191531948745,174.5727677618852 55.313569196499884,178.00909672433045 61.334097755141556,175.5545771131292 62.588374538812786,172.93641692830715 61.334097755141556,155.2636754421983 57.947550441138446,151.99091490660794 52.93044330831617,151.66363832645584 48.03876385372132,156.90005211986136 48.28961920971051,173.75459264428355 55.43899687472731,178.00909672433045 62.21209150366485,173.2636872860603 61.835808468516916,156.24550173606258 58.950971867423505,152.318191390601 54.310147769749165,151.5 48.164191531948745,158.04551437112968 48.28961920971051,173.918227715767 54.93728616088629,178.17273117334116 62.086663824971765,173.42732242960483 61.835808468516916,156.7364145600004 58.700116510968655,152.4818295969162 55.1881415178068,151.99091490660794 51.299883489497006,152.80910593783483 47.913336175493896,157.71823956188746 48.415046888403594,173.1000521191163 51.04902813304216,177.19092411885504 56.44241830101237,177.84546225098893 60.456104007549584,176.3727509152377 62.839229895267636,171.3000637012301 61.835808468516916,155.91822640039027 54.43557544751093,151.5 51.299883489497006,152.80910593783483 48.03876385372132,159.02733822411392 48.665902245324105,173.2636872860603 51.04902813304216,177.19092411885504 56.19156294455752,178.5 62.4629468601197,172.7727817130508 61.835808468516916,156.7364145600004 56.06613526586443,151.99091490660794 48.54047456663102,156.57277697592508 48.54047456663102,174.7364027139265 54.811858483124524,178.5 62.086663824971765,174.24549778655637 62.086663824971765,157.06368965632282 59.57811025902629,152.80910593783483 54.310147769749165,151.5 48.415046888403594,156.57277697592508 48.79132992355153,173.1000521191163" stroke="#4dd2ff" stroke-linecap="round" stroke-linejoin="round" stroke-width="0.5"><title>2023-10-27 2.9km</title><desc>1698413800000</desc></polyline><polyline fill="none" points="81.48686697892845,153.0000167810358 77.39885764522478,156.83338402980007 79.44286231184378,175.66669670597184 88.00213185418397,177.50001140672248 92.2178914793767,171.16672993870452 91.3236394370906,155.00003608467523 87.2356301038526,151.5 81.99786814535037,151.5 78.80411085346714,153.6666902723955 77.78210852015764,159.50006668525748 79.31511201988906,175.50003158731852 87.61888097925112,178.16667056665756 90.68488797917962,176.833351856214 92.60114235430956,171.33339569158852 90.81263827066869,155.00003608467523 82.76436989568174,152.5000114068389 77.9098588116467,157.66672302992083 78.9318611449562,175.00003608420957 86.46912835398689,178.5 92.2178914793767,173.16671736247372 90.94038856215775,155.3333722942043 83.65862193750218,152.00000581296626 77.9098588116467,156.83338402980007 79.05961143691093,175.16670127643738 83.65862193750218,178.33333529543597 88.12988214567304,177.83334103494417 92.2178914793767,172.5000552778365 91.45138972904533,156.16671239130665 87.49113068729639,152.1666743683163 80.72036522813141,152.83334834768903 77.52660793671384,158.3333937911084 80.20936406217515,176.833351856214 86.21362777007744,178.16667056665756 91.1958891460672,175.16670127643738 92.2178914793767,162.66674423450604 91.96239089500159,157.33338750316761 88.38538272865117,152.33334289945196 83.01987047865987,152.1666743683163 78.29310968704522,155.3333722942043 78.16535939509049,172.83338636881672 80.72036522813141,177.33334655535873 87.87438156269491,178.16667056665756 91.3236394370906,175.00003608420957 91.83464060397819,157.8333907565102 87.49113068729639,152.33334289945196 79.31511201988906,153.83335858397186 78.03760910360143,171.66672712389845 81.48686697892845,177.66667623294052" stroke="#4dd2ff" stroke-linecap="round" stroke-linejoin="round" stroke-width="0.5"><title>2023-10-21 2.9km</title><desc>1697891041000</desc></polyline><polyline fill="none" points="107.81743507133797,151.5 108.30438862601295,172.30594168405514 112.32175545021892,178.18235684302635 121.20865781931207,175.9588521438418 121.20865781931207,157.0588784016436 118.77389004686847,153.8823799417587 114.26956966845319,152.92942859232426 108.30438862601295,157.21770308096893 109.15655734576285,175.64120824378915 113.90435450198129,178.34117843292188 118.89562843600288,177.38824854406994 121.33039620751515,174.21180954331066 121.69561137352139,159.44124614959583 116.58259905176237,153.08825387549587 108.66960379201919,156.26475465786643 108.1826502373442,172.1471192111494 110.49567962111905,177.0706050619483 116.46086066309363,178.5 120.3564890990965,176.59413966536522 121.8173497626558,160.71184014517348 121.20865781931207,156.58240422513336 117.67824454978108,153.56472958507948 109.52177251176909,155.78828013280872 108.4261270146817,174.68827598600183 113.29566255863756,178.5 121.20865781931207,175.80003020563163 121.69561137352139,157.69417697924655 119.13910521287471,154.3588553033769 114.63478483399376,153.56472958507948 108.79134218022227,157.3765277370112 108.54786540288478,173.10005369863939 112.20001706155017,178.18235684302635 117.92172132665291,178.02353522996418 121.93908815085888,174.21180954331066 122.18256492866203,160.87066428991966 121.08691943064332,156.58240422513336 117.19129099464044,153.72355477511883 112.8087090048939,153.8823799417587 108.1826502373442,157.69417697924655 108.91308056889102,174.37063171423506 112.68697061575949,178.18235684302635 117.79998293798417,177.86471359303687 121.8173497626558,173.89416513266042 121.57387298485264,157.8530015652068 116.58259905176237,153.40590437164064 109.52177251176909,155.62945524486713 107.93917345954105,161.98243265401106 110.00872606644407,176.911783286836 113.53913933690637,178.5 119.99127393309027,176.911783286836 121.69561137352139,163.57067119912244" stroke="#4dd2ff" stroke-linecap="round" stroke-linejoin="round" stroke-width="0.5"><title>2023-10-16 3.1km</title><desc>1697460359000</desc></polyline><polyline fill="none" points="136.81066067703068,155.30985495168716 138.842124695424,173.6963660841575 144.80955024808645,178.5 153.06237282138318,173.36508023599163 152.04664081288502,155.80679160915315 147.22191376937553,151.5 141.00055521400645,152.49387644033413 138.4612251915969,155.14420935045928 138.842124695424,173.36508023599163 145.06348325079307,178.33435779006686 149.5073107900098,177.34050402313005 152.93540632072836,171.87429271859583 151.91967431129888,155.6411460810341 145.06348325079307,151.6656461340608 138.842124695424,155.30985495168716 138.9690911960788,173.53072317223996 143.03201923239976,178.00307329790667 148.11067927768454,177.83743101579603 153.18933932296932,173.19943727517966 152.68147331802174,158.1258264617063 146.71404776489362,151.6656461340608 140.7466222117655,153.15646024933085 138.7151581943035,156.13808259309735 138.9690911960788,173.53072317223996 141.38145471783355,177.17486164346337 146.33314826199785,178.5 152.80843981960788,173.53072317223996 151.15787530411035,153.98468946525827" stroke="#4dd2ff" stroke-linecap="round" stroke-linejoin="round" stroke-width="0.5"><title>2023-10-12 1.8km</title><desc>1697101056000</desc></polyline><polyline fill="none" points="167.2064248016104,160.38614482281264 169.3021761160344,176.10762012621854 177.94715028489009,177.64557917881757 182.53160628443584,171.83550102752633 180.69782388489693,154.9177560057724 171.92186525836587,152.01266403798945 167.73036263044924,157.13929204898886 168.90922274440527,175.4240821202984 177.03025908581913,178.15823174640536 182.13865291280672,173.54435054119676 181.4837306276895,157.3101792621892 176.24435234302655,152.35443993890658 172.05284971510991,152.35443993890658 168.25430045835674,155.94308085832745 167.992331544403,172.34815614379477 171.52891188673675,177.98734758235514 180.43585497047752,176.79115773318335 182.7935751983896,171.83550102752633 181.74569954164326,156.45574294694234 177.94715028489009,152.52532785153016 172.05284971510991,152.1835520005552 167.992331544403,156.62663025967777 168.3852849160321,173.88612014369573 171.39792742952704,177.64557917881757 175.85139897139743,178.15823174640536 181.87668399885297,174.5696590502048 182.40062182722613,171.4937308243243 180.95979279885069,154.74686844309326 174.01761657185853,151.84177605051082 167.86134708765894,156.79751754796598 168.5162693732418,174.5696590502048 174.5415544002317,178.5 180.56683942722157,176.62027336878236 182.2696373704821,173.37346570240334 181.4837306276895,156.9684048112249 174.41056994348764,151.5 167.73036263044924,157.13929204898886 169.43316057277843,175.93673566239886 177.16124354302883,177.81646339269355 181.35274617001414,175.25319755647797 182.40062182722613,170.81019011954777 181.0907772560604,155.25953105674125 176.63730571419,151.67088803788647 170.61202068673447,152.52532785153016 167.73036263044924,157.99372786399908 169.17119165882468,175.5949666594388 173.62466320069507,178.5 178.60207257093862,178.15823174640536 182.40062182722613,168.75956560508348" stroke="#4dd2ff" stroke-linecap="round" stroke-linejoin="round" stroke-width="0.5"><title>2023-10-10 2.9km</title><desc>1696942258000</desc></polyline><polyline fill="none" points="24.042818199377507,205.55262200058496 25.939121766597964,204.44439391013293 30.07486954657361,204.96313992375508 30.725030769594014,205.69409737778187 29.803969036904164,206.99094920723292 30.36383009015117,208.5 33.88553671492264,207.32105527706153 34.824658481637016,206.07136444227945 35.836020384100266,203.05320316445432 36.016620723879896,195.60187515296275 34.06613705470227,192.1826376451063 34.51763790403493,190.9328292532009 36.43200150527991,189.2821240483463 36.757082116790116,188.31527456500044 36.55842174310237,187.13618196752213 35.402579568792135,185.60334867464553 35.221979229012504,184.1648303034017 29.135747779975645,181.5 20.737831982201897,182.51405567086476 15.897742877248675,181.73582747044566 13.242917883209884,182.46689043255174" stroke="#4dd2ff" stroke-linecap="round" stroke-linejoin="round" stroke-width="0.5"><title>2023-10-07 3.0km</title><desc>1696669067000</desc></polyline><polyline fill="none" points="49.92252212995663,182.84162991598714 47.35164725873619,186.86651024583261 48.12290972005576,201.12118113820907 53.26465946203098,208.16460017219651 58.27786546014249,207.49380022333935 62.64835274126381,203.63669290184043 62.13417776674032,186.86651024583261 55.578446846455336,181.83540762588382 51.07941582193598,182.84162991598714 47.737278489395976,187.36961929430254 48.76562843751162,204.3074951072922 53.39320320589468,208.5 57.63514674268663,208.16460017219651 62.3912652535364,203.63669290184043 61.87709027901292,187.36961929430254 56.735340538434684,182.33851888112258 48.76562843751162,184.51866510347463 48.3799972073175,203.63669290184043 53.7788344360888,208.5 58.149321717210114,208.16460017219651 62.13417776674032,203.80439348972868 61.4914590488188,186.1956978389062 55.835534332785755,181.66770382528193 47.608734745997936,185.86029148800299 48.894172181375325,204.13979459297843 55.44990310212597,207.82920024706982 62.26272151013836,203.63669290184043 61.62000279221684,186.02799467591103 54.80718438467011,181.5 47.737278489395976,185.5248850391945 48.25145346391946,203.46899228950497 53.007571975234896,207.82920024706982 59.691846639383584,206.82299988158047 62.00563402287662,203.13359099067748 61.87709027901292,187.0342132867081 56.735340538434684,181.83540762588382 48.12290972005576,185.3571817780612 48.63708469411358,204.3074951072922 54.550096897408366,208.5 60.72019658749923,206.31989936868194 62.26272151013836,203.30129165260587 61.62000279221684,186.1956978389062 55.706990589387715,181.66770382528193 51.336503309197724,182.17081515409518 47.86582223325968,186.1956978389062 48.3799972073175,203.63669290184043 52.36485325777903,207.99690022179857" stroke="#4dd2ff" stroke-linecap="round" stroke-linejoin="round" stroke-width="0.5"><title>2023-10-06 2.9km</title><desc>1696597953000</desc></polyline><polyline fill="none" points="78.68619011976261,183.3565927369982 78.59524700598558,183.2005930129444 78.24157934131654,182.8292632095836 78.10684880238841,182.0118658612846 78.069797904187,181.94374740801595 78.10348053891357,181.8844181809227 78.23989520958276,181.8646417198197 78.64577095807908,181.8668391056699 78.6255613772446,181.72840316921884 78.30220808383456,181.7701538240899 76.89932634730212,181.77235122376533 74.96089071856113,181.85365478573658 74.7385853293381,181.8844181809227 74.39333832334523,182.00527376640093 73.15550149699993,182.59855072100527 72.65363023951795,182.79410724964964 72.41279940120148,182.97428067472538 72.60815868263307,184.12558178961808 72.73615269460424,186.4345095700337 72.78162425148912,189.20651180519508 72.75299401197844,189.5161887092445 72.77320359281293,191.1698871662784 72.68899700598558,191.35435221161788 72.77320359281293,191.58712630102855 72.79172904191364,193.73462669727087 72.76141467065463,194.65457649763994 72.46669161676255,194.76654745309406 72.31343562874099,194.94438196318515 71.51852544910071,194.9312091086158 71.5,194.95755480621847 71.58589071856113,194.97072763771484 71.57747005987767,195.02122338489698 71.51684131736693,195.03659162213808 71.53031437125173,195.05854621951676 71.95808383233816,195.04537346493726 72.30164670658269,195.0717189625684 72.48690119759704,195.28906755732078 72.72267964071216,195.34614848572983 72.78162425148912,195.3900567447954 72.79341317364742,196.8367621983134 72.6755239520935,197.03652394637083 72.60815868263307,197.35921039777713 72.61657934130926,197.47116122293664 72.77825598802156,197.47774653965553 72.80688622753951,197.64018343945736 72.79509730538848,199.67049673251404 72.69741766467632,199.86363659167364 72.69236526946042,200.02824246953332 72.63847305389208,200.0984737627523 72.53574101795675,200.15553644714146 72.67383982035244,200.08311069536558 72.76646706586325,200.2213777371844 72.7698353293381,200.3311125804421 72.8506736526906,200.48912934897453 72.92645958084177,201.05973164424358 73.06455838323018,202.76263140735955 73.0308757485036,203.21465749060553 72.94161676646036,203.40116915152248 72.69741766467632,203.71055398709086 72.71425898203597,203.92777783805377 72.96182634730212,204.06600956576585 73.10834580838127,204.21521064113495 73.20939371257555,204.43023311921024 73.32559880239569,204.8953732785576 73.51085329341004,205.31223196525298 73.8948353293381,205.88703922397326 74.81605538921576,207.16601633567097 75.1511976047841,207.50603485284864 75.09056886227336,207.4577746275927 75.0501497005971,207.4687428741845 75.67159431137407,207.78901215234418 75.96631736526615,207.8723687925949 76.28293413173378,207.90746618728735 77.84749251497124,207.9250148539668 78.45546407185611,207.89649826023742 78.59019461077696,207.99082217188243 78.7552395209641,208.25404856796376 78.90175898203597,208.27159683078207 78.99607035927329,208.0544356391838 79.15269461077696,207.81533535174367 79.52151946107915,207.51480942263697 82.5815868263453,206.40697955944597 82.68600299401442,206.3762662833151 82.70958083832375,206.43111137531923 82.66242514970509,206.36090962175786 82.60853293412947,206.46182453958045 82.64053143712226,206.43549897404228 82.65905688622297,206.4552431525144 82.67421407184884,206.37187866732802 82.73147455089202,206.4552431525144 82.70958083832375,206.37846009082932 82.76684131736693,206.34335913222367 83.36639221556834,206.16785311180683 84.08046407184884,206.13494550522955 85.96500748503604,206.16127159624102 88.3867889221583,206.13275166223593 88.5198353293381,206.16127159624102 89.4056886227554,206.13494550522955 90.27133233533095,206.16565927360534 91.53779940120148,206.12836397528554 91.96388473053958,205.9879573177859 92.62743263472657,205.86948818209112 94.23914670658269,205.73566081498575 95.53592814371223,205.7575998091461 95.84749251497124,205.73566081498575 96.18431886227336,205.63693494567542 96.54640718563314,205.45045098182345 96.89165419161873,205.16304176148424 96.84449850298552,205.18278760863177 96.77544910179859,205.13671392500328 96.70134730538848,205.2091153645424 96.78218562874099,205.13232594777946 96.8815494011942,205.17401167975459 96.94386227545328,205.1411019009438 97.16616766466177,205.12793796927144 97.40868263473385,204.85368677506995 97.43057634730212,204.58820686037507 97.85160928143887,204.17352225423474 98.12107035928784,203.85975858544407 98.22043413174106,203.64472795885195 98.27432634730212,203.40775187380405 98.36021706586325,196.10793860192916 98.39389970060438,195.89499251196867 98.39221556886332,195.3768842805348 98.47642215569067,195.15295062310724 98.5,194.8807130592295 98.4949476047841,194.54480024189888 98.42252994012233,194.33402758483226 98.4258982035899,193.80049609502657 98.35853293412947,192.36008610570025 98.39221556886332,189.95323958443896" stroke="#ff0000" stroke-linecap="round" stroke-linejoin="round" stroke-width="0.5"><title>2023-09-14 39.1km</title><desc>1694696482000</desc></polyline><polyline fill="none" points="114.69565367279574,181.5 107.63481887197122,188.3294751845533 108.48698858963326,201.82947419618722 111.40871333470568,206.91178328637034 117.4956398862414,207.38824854465201 122.36518112802878,203.10005369817372 121.51301141036674,186.42357945349067 117.25216282438487,181.97647640679497 112.13914452074096,182.770603285986 108.24351152777672,187.05887840176 108.8522041826509,204.68827598600183 115.06086926534772,208.5 122.24344259686768,203.4176983416546 121.51301141036674,187.535352369654 118.34780960390344,183.40590437175706 113.11305276909843,182.770603285986 107.63481887197122,188.3294751845533 108.7304656514898,202.62358655931894 114.57391514163464,207.8647135932697 119.44345638295636,206.7529614875093 121.7564884731546,203.89416513219476 121.2695343485102,186.42357945349067 117.61737841786817,182.6117779565975 112.01740598957986,182.9294285926735 108.36525005847216,186.26475465798285 108.60872712079436,204.05298734956887 112.38262158306316,207.38824854465201 116.88694723136723,207.8647135932697 121.87822700385004,202.1471192111494 121.87822700385004,185.3118053986691" stroke="#4dd2ff" stroke-linecap="round" stroke-linejoin="round" stroke-width="0.5"><title>2023-09-11 1.8km</title><desc>1694438011000</desc></polyline><polyline fill="none" points="145.24657534249127,196.72912134061335 149.62328767124563,193.27094943705015 156.28082191757858,195.68362980266102 155.41780821909197,199.5438963713823 139.45205479464494,200.50895877956646 137.35616438370198,199.22220852551982 134.52054794528522,200.26769333635457 133.22602739743888,199.14178653480485 133.0410958903376,196.16616460564546 142.6575342467986,197.1312329415232 149.99315068498254,194.47729094314855 156.15753424656577,195.20109457644867 155.97260273969732,199.70474022370763 139.14383561629802,199.86558402900118 135.81506849313155,197.69418868847424 134.76712328800932,199.14178653480485 132.79452054784633,198.57883226958802 132.73287671245635,196.08574216801208 141.85616438346915,196.64869898522738 151.47260273969732,194.31644556182437 156.65068493131548,195.4423622424947 155.23287671222351,199.70474022370763 142.2876712330617,199.46347442740807 135.75342465774156,200.58938057057094 132.42465753434226,198.57883226958802 132.5479452055879,196.2465870315791 146.8493150684517,195.92489725718042 153.38356164377183,194.39686825824901 156.58904109569266,195.52278477448272 155.47945205471478,199.62431830348214 139.26712328777649,199.86558402900118 135.32191780838184,200.83064587268746 133.22602739743888,199.78516213217517 131.5,196.88996601616964 131.99315068521537,196.08574216801208 136.98630136996508,196.4074318485218 143.45890410942957,195.12067199742887 148.57534246565774,196.0053197183879 155.91095890384167,195.12067199742887 155.91095890384167,188.847674608347 158.5,189.0085215891013 155.5410958903376,188.52598050562665 155.10958904097788,199.5438963713823 142.16438356158324,199.30263050476788 134.4589041096624,201.47401949443156 132.36301369895227,197.4529220102704 132.73287671245635,196.4878542391234 143.21232876717113,195.20109457644867 148.7602739725262,196.08574216801208 152.64383561629802,195.28151714347769 156.21917808195576,196.16616460564546 155.72602739697322,200.02642778703012 139.14383561629802,199.70474022370763 138.34246575366706,200.83064587268746 134.33561643841676,201.47401949443156 133.16438356181607,200.42853697692044 132.73287671245635,196.16616460564546 141.42465753434226,193.91433190292446 144.93835616461,195.12067199742887 148.57534246565774,194.87940419034567" stroke="#4dd2ff" stroke-linecap="round" stroke-linejoin="round" stroke-width="0.5"><title>2023-08-30 4.9km</title><desc>1693396264000</desc></polyline><polyline fill="none" points="165.23067120462656,183.51244428521022 168.5728100030683,187.03421328705736 170.75805460149422,203.97209405410103 175.2570875994861,207.99690022249706 184.12660979526117,202.96589030476753 184.25515359593555,184.51866510382388 176.15689419955015,181.66770382528193 169.47261660220101,185.3571817779448 170.88659840123728,204.64289606327657 174.87145619979128,208.5 180.2702957978472,208.16460017266218 184.64078499563038,205.14599731226917 184.64078499563038,187.20191630290356 182.06990899704397,182.84162991598714 176.9281569989398,181.66770382528193 169.85824800189584,187.36961929430254 171.14368600212038,205.31369767943397 174.6143685998395,208.3323000984965 184.51224119542167,203.80439349031076 184.3836973956786,186.86651024629828 181.94136519683525,183.00933354522567 176.79961319919676,181.83540762588382 171.9149488019757,183.34474073001184 169.7297042021528,186.86651024629828 170.5009670020081,204.13979459286202 177.05670079914853,208.16460017266218 184.51224119542167,204.81059650389943 184.12660979526117,186.86651024629828 182.19845279678702,183.51244428521022 175.51417519990355,181.83540762588382 169.7297042021528,185.69258827588055 170.5009670020081,203.13359099067748 176.79961319919676,208.3323000984965 181.94136519683525,207.32610017526895 184.64078499563038,203.6366929024225 183.74097839556634,185.5248850393109 178.85631399834529,181.5 170.62951080175117,185.0217751818709 170.62951080175117,203.6366929024225 173.58601820049807,207.6615002474282 180.3988395971246,207.99690022249706 184.51224119542167,203.46899228950497 184.3836973956786,188.87894511432387 180.1417519976385,182.170815154328 170.88659840123728,184.6863684875425 170.37242320226505,202.2950873146765 174.3572810003534,207.49380022357218 180.7844709972851,207.99690022249706 184.12660979526117,205.31369767943397 184.76932879537344,191.89759079378564" stroke="#4dd2ff" stroke-linecap="round" stroke-linejoin="round" stroke-width="0.5"><title>2023-08-25 3.1km</title><desc>1692968645000</desc></polyline><polyline fill="none" points="29.35483870934695,220.31280009931652 28.919354838319123,224.1951437544776 38.1370967742987,224.57390774285886 38.5,229.68719990062527 11.5,229.59250967216212 11.935483870562166,225.04736241674982 27.90322580607608,225.04736241674982 35.8870967742987,223.43761511310004 38.06451612897217,224.38452577602584 38.2096774186939,229.21374861942604 29.064516128972173,229.30843890324468" stroke="#4dd2ff" stroke-linecap="round" stroke-linejoin="round" stroke-width="0.5"><title>2023-08-24 1.1km</title><desc>1692883156000</desc></polyline><polyline fill="none" points="55.3379449674394,238.5 55.417461430304684,238.11098019758356 55.616252587526105,238.26658822098398 55.039758231607266,222.00481134827714 54.56265945418272,219.0220269482379 55.3379449674394,218.4514016063913 54.58253856992815,217.7510861771152 54.84096707426943,214.94979680079268 54.38374741259031,211.5" stroke="#4dd2ff" stroke-linecap="round" stroke-linejoin="round" stroke-width="0.5"><title>2023-08-21 1.2km</title><desc>1692620048000</desc></polyline><polyline fill="none" points="85.56658891425468,229.02468051756296 85.20603233244037,229.79751953664527 85.46357274800539,238.5 85.32192551944172,227.69740137329063 85.0,225.54684058270504 85.09013914543903,223.09380802355008 84.51067321043229,212.23935023228114 84.83259872987401,211.65123111658613 85.37343360256637,211.5 84.74245958449319,211.56721385417768 84.43341108574532,212.12172665009712 84.45916512730764,215.81841020203137 85.01287702081027,222.64015927595756 84.84547575068427,225.00919409366907 85.19315531163011,227.12616259037895 85.52795785182388,238.4832004797354 85.24466339475475,230.80556261688616" stroke="#4dd2ff" stroke-linecap="round" stroke-linejoin="round" stroke-width="0.5"><title>2023-08-10 4.8km</title><desc>1691669615000</desc></polyline><polyline fill="none" points="116.80481283413246,224.0110793687054 119.18716577533633,221.27972575224703 127.20053475908935,221.27972575224703 127.99465240677819,226.64823738660198 102.29411764675751,227.8726285097655 101.5,223.8227105255355 110.5962566845119,220.62043176451698 116.44385026721284,222.31575779797276 127.34491978632286,221.93901906500105 128.5,225.89476476906566 113.62834224617109,227.6842607963481 102.87165775382891,227.2133412710973 101.57219251291826,226.83660540293204 101.5,225.14129127009073 103.16042780736461,222.4099424466258 111.39037433126941,223.1634191412013 121.56951871654019,221.27972575224703 127.85026737954468,221.84483434748836 127.41711229970679,226.55405335745309 108.86363636376336,227.9668123460142 101.93315507983789,227.11915732483612 101.93315507983789,223.54015715781134 103.95454545458779,222.59831170312827 118.32085561519489,223.35178817703854 120.5588235296309,222.12738845899003 128.06684491969645,222.22157313558273 128.06684491969645,226.64823738660198 112.25668449187651,227.02497336477973 107.05882352916524,229.19120096275583 102.51069518737495,227.4958930273424 101.64438502630219,224.67036988545442 102.58288770029321,223.7285260835779 112.04010695172474,223.25760366610484 113.33957219263539,222.03320376906777 118.39304812811315,223.7285260835779 128.28342245984823,222.59831170312827 128.06684491969645,226.74242140172282 107.49197860946879,227.7784446599544 102.0775401070714,226.45986931480002 102.00534759322181,223.54015715781134 103.59358288766816,222.4099424466258 118.97058823565021,223.54015715781134 128.5,222.69249631051207 127.9224598929286,226.9307893908117 111.1737967915833,227.4958930273424 108.64705882361159,229.00283363478957 103.08823529398069,227.8726285097655 102.22192513337359,225.51802812964888 103.23262032074854,223.25760366610484 118.68181818164885,223.91689495416358 128.2112299464643,222.5041270814836 128.42780748661608,227.02497336477973 114.4224598929286,226.9307893908117 110.8850267380476,227.4958930273424 109.4411764703691,229.3795682354248" stroke="#4dd2ff" stroke-linecap="round" stroke-linejoin="round" stroke-width="0.5"><title>2023-08-08 4.7km</title><desc>1691498421000</desc></polyline><polyline fill="none" points="146.92443649237975,211.5 147.1241421661107,220.33470591754303 148.19529077969491,220.68997891817708 148.14082559593953,221.21104457628098 141.8047092204215,221.0215663490817 142.53091167018283,222.60843965646927 142.82139265025035,233.33719011524227 143.31157930393238,237.0080122128129 143.8380760801956,238.5" stroke="#4dd2ff" stroke-linecap="round" stroke-linejoin="round" stroke-width="0.5"><title>2023-08-04 1.6km</title><desc>1691107871000</desc></polyline><polyline fill="none" points="174.43455497385003,223.06356320006307 182.0680628272239,221.3115291815484 187.51047120429575,222.2336529561435 188.14659685874358,227.3975211729994 177.47382198972628,226.75203995860647 161.85340314148925,228.13521318056155 161.92408376955427,225.00001618842361 163.97382198972628,222.69471433776198 169.4162303665653,221.95701596525032 174.71727748727426,222.8791387960664 182.28010471211746,220.48161663144128 188.0052356023807,222.51028982555727 188.35863874363713,227.30530961160548 161.85340314148925,228.04300172673538 161.92408376955427,224.72338041168405 164.11518324632198,222.69471433776198 170.75916230352595,221.49595404439606 174.01047120429575,222.6025020882371 187.43979057623073,222.6025020882371 188.5,227.3975211729994 162.70157068083063,228.50405886070803 161.5,226.56761663331417 162.77225130912848,224.26232051325496 170.40575916250236,222.04922830912983 187.36910994793288,222.51028982555727 187.93455497385003,227.21309803659096 162.8429319371935,228.50405886070803 162.20680628274567,224.53895649279002 167.57853403151967,222.97135100484593 178.95811518328264,223.89347235218156 188.14659685874358,222.8791387960664 188.21727748727426,226.9364632302313 163.97382198972628,228.41184746084036 161.6413612565957,227.02867484587478 162.41884816787206,224.6311684589018 168.78010471211746,222.69471433776198 188.07591623067856,223.34019970556255 188.14659685874358,226.8442516013165 172.5261780107394,227.58194425608963 168.07329842960462,229.51838336855872 164.75130890053697,228.96511565742549 162.91361256549135,228.04300172673538 162.41884816787206,225.00001618842361 167.64921466005035,222.6025020882371 178.88743455521762,224.3545325200539 187.72251308895648,223.06356320006307 188.28795811533928,227.30530961160548 172.8795811519958,226.9364632302313 167.86125654471107,228.50405886070803" stroke="#4dd2ff" stroke-linecap="round" stroke-linejoin="round" stroke-width="0.5"><title>2023-07-26 4.8km</title><desc>1690377436000</desc></polyline><polyline fill="none" points="20.5,253.49708411691245 35.62000000011176,251.24268283619313 38.42799999983981,251.8062838979531 37.8519999999553,256.78473846788984 20.212000000290573,256.97260392288445 13.660000000149012,259.22698509308975 11.787999999709427,257.2544020017376 12.148000000044703,253.5910173318116 18.34000000031665,251.24268283619313 22.731999999843538,252.74561790260486 37.8519999999553,251.90021736058407 37.70800000010058,256.31507459114073 13.155999999959022,258.47552558220923 11.5,256.50294018298155 12.075999999884516,253.7788837206317 17.908000000286847,250.96088211983442 22.155999999959022,250.77301490691025 25.39600000018254,252.74561790260486 31.731999999843538,250.96088211983442 37.99599999981001,251.99415080901235 38.0679999999702,256.87867120222654 11.932000000029802,256.97260392288445 11.932000000029802,253.5910173318116 13.155999999959022,253.02741783601232 28.420000000391155,252.65168456389802 34.03599999984726,250.96088211983442 38.2839999999851,251.99415080901235 37.92399999964982,256.69080572010716 11.932000000029802,257.16046932234894 12.075999999884516,253.49708411691245 15.027999999932945,252.27595107199159 27.84400000050664,252.46381784550613 34.03599999984726,250.77301490691025 38.5,251.99415080901235 37.92399999964982,256.87867120222654 12.364000000059605,257.72406519192737 12.868000000249594,253.21528438961832 25.10800000000745,252.65168456389802 32.524000000208616,250.86694852029905 38.21199999982491,252.08808424370363 38.140000000130385,256.78473846788984 11.932000000029802,256.78473846788984 12.292000000365078,253.21528438961832 21.580000000074506,254.530348726199 33.10000000009313,250.86694852029905 38.356000000145286,251.90021736058407 38.2839999999851,256.87867120222654 13.083999999798834,257.4422673190711" stroke="#4dd2ff" stroke-linecap="round" stroke-linejoin="round" stroke-width="0.5"><title>2023-07-24 4.9km</title><desc>1690201802000</desc></polyline><polyline fill="none" points="58.09070937347133,241.80918372313317 58.05121149017941,241.5 56.92552181414794,242.1441321441962 56.76753028074745,243.0716782946256 57.202006997773424,248.81720258526911 58.24870090687182,249.30672289905488 58.288198790396564,249.71894947676628 53.647197494632564,249.92506240401417 51.13908190082293,249.64165706688073 51.94878850982059,250.54339973890455 52.14627792662941,251.72854023214313 52.383265226962976,262.7293552663323 53.50895490287803,268.5 52.77824406058062,265.69198665853764 53.647197494632564,264.919131097442 52.91648665233515,242.35025393293472 57.932717840070836,242.01530590372568 58.54493503225967,241.88647956910427 58.64367974072229,241.52576533101092 58.86091809917707,241.96377538118395" stroke="#4dd2ff" stroke-linecap="round" stroke-linejoin="round" stroke-width="0.5"><title>2023-07-24 3.0km</title><desc>1690157385000</desc></polyline><polyline fill="none" points="85.18140674883034,259.79373846709495 85.68675412045559,268.5 85.32394062291132,256.86896365902066 85.05183049966581,255.58406809056032 85.29802537307842,254.48513291648123 85.10366099938983,253.94411483879958 84.55944075295702,242.70050969385193 84.88338137581013,241.85508163082704 85.4923897467088,241.58454334440466 84.9481695004506,241.5338173451819 84.5076102532912,242.22707074056234 84.5076102532912,245.8454477910127 85.01295762491645,253.8595805353325 85.12957624916453,252.91279211294022 84.4557797536254,242.59905865287874 84.68901700212155,241.92271610349417 85.29802537307842,241.56763468044664 84.84450850106077,241.5 84.35211875429377,242.37924775850115 84.31324587960262,245.72709145543922 84.80563562631141,254.1300900886199" stroke="#4dd2ff" stroke-linecap="round" stroke-linejoin="round" stroke-width="0.5"><title>2023-07-22 4.9km</title><desc>1690030226000</desc></polyline><polyline fill="none" points="111.78209478687495,252.69520053523593 107.11297741951421,249.89641083835158 109.13205520017073,264.3841881727567 113.04401839990169,267.3475742052542 119.35363646410406,266.03051470941864 122.5084454966709,260.59762800252065 121.37271424476057,246.76834353117738 118.97505938028917,242.65245225431863 114.68451909674332,241.5 108.12251631030813,244.7927175963996 109.38443992240354,263.23175816470757 111.90828714799136,267.0183094756212 115.5678656254895,268.00610337546095 122.88702258048579,262.0793269771384 122.12986841285601,250.0610457189614 117.20836632279679,241.66463610855862 111.65590242575854,242.15854428964667 107.61774686444551,246.10980193840805 108.62728575477377,262.73785922897514 114.30594201292843,267.8414711188525 121.87748368969187,263.72565688437317 121.62509896699339,246.76834353117738 114.05355728976429,242.48781628976576 107.87013158714399,246.93297886964865 108.8796704779379,264.71345367317554 114.05355728976429,268.5 122.63463785732165,262.9024922319222 122.00367605080828,250.22568057558965" stroke="#4dd2ff" stroke-linecap="round" stroke-linejoin="round" stroke-width="0.5"><title>2023-07-18 1.7km</title><desc>1689685608000</desc></polyline></svg>