<?xml version="1.0" encoding="utf-8" ?>
<svg baseProfile="full" height="300mm" version="1.1" viewBox="0,0,200,300" width="200mm" xmlns="http://www.w3.org/2000/svg" xmlns:ev="http://www.w3.org/2001/xml-events" xmlns:xlink="http://www.w3.org/1999/xlink"><defs /><rect fill="#222222" height="300" width="200" x="0" y="0" /><text fill="#FFFFFF" style="font-size:12px; font-family:Arial; font-weight:bold;" x="10" y="20">Over 10km Runs</text><text fill="#FFFFFF" style="font-size:4px; font-family:Arial" x="10" y="280">ATHLETE</text><text fill="#FFFFFF" style="font-size:9px; font-family:Arial" x="10" y="290">Yunlong</text><text fill="#FFFFFF" style="font-size:4px; font-family:Arial" x="120" y="280">STATISTICS</text><text fill="#FFFFFF" style="font-size:3px; font-family:Arial" x="120" y="285">Number: 49</text><text fill="#FFFFFF" style="font-size:3px; font-family:Arial" x="120" y="290">Weekly: 1.8</text><text fill="#FFFFFF" style="font-size:3px; font-family:Arial" x="141" y="285">Total: 245.9 km</text><text fill="#FFFFFF" style="font-size:3px; font-family:Arial" x="141" y="290">Avg: 5.0 km</text><text fill="#FFFFFF" style="font-size:3px; font-family:Arial" x="167" y="285">Min: 1.1 km</text><text fill="#FFFFFF" style="font-size:3px; font-family:Arial" x="167" y="290">Max: 39.1 km</text><polyline fill="none" points="16.72989538870752,37.83941478718771 18.172663343138993,52.44179782678839 25.053556663449854,53.164682493312284 29.27087837550789,49.405676475784276 29.825789127033204,36.10446390416473 25.497485264670104,31.91165341215674 20.503288499545306,32.48997315426823 18.172663343138993,35.81530512869358 17.839716891758144,51.429758408805355 21.835074303671718,55.18875675788149 29.27087837550789,52.15264381264569 29.825789127033204,36.82736047421349 28.050074722152203,33.21287235751515 24.49864591145888,31.622493414732162 17.950699042528868,35.52614626887953 18.06168119283393,50.99602691328619 21.835074303671718,54.75502690614667 29.048914075363427,51.86348971427651 29.936771277803928,37.11651895433897 27.93909257138148,32.923712739604525 24.720610212534666,31.91165341215674 18.283645493444055,34.94782829703763 17.72873474145308,50.27314066683175 20.059359898325056,55.33333333331393 29.381860525812954,51.28518126462586 29.936771277803928,36.97193972481182 25.27552096405998,32.05623337946599 18.394627643749118,34.6586691843695 18.283645493444055,51.429758408805355 21.391145702451468,55.33333333331393 29.492842676583678,51.71891263325233 29.936771277803928,37.11651895433897 25.164538813754916,31.767073424183764 20.947217100765556,32.200813325238414 17.950699042528868,35.67072570952587 17.72873474145308,50.85144970641704 20.392306349705905,55.33333333331393 28.937931924592704,52.58637480204925 29.27087837550789,37.55025651695905 26.27436031633988,32.34539325005608 20.61427064985037,32.48997315426823 18.283645493444055,34.803248751035426 17.839716891758144,50.56229522865033 20.059359898325056,54.89960354421055 29.048914075363427,52.008066773822065 29.60382482688874,36.10446390416473 24.94257451267913,31.767073424183764 18.172663343138993,34.6586691843695 17.839716891758144,50.85144970641704 21.169181401841342,55.18875675788149 28.937931924592704,53.74298984755296 29.714806977193803,37.11651895433897 26.16337816650048,32.05623337946599 20.503288499545306,32.05623337946599 18.06168119283393,34.51408959639957 17.950699042528868,50.70687247783644 20.059359898325056,54.610450246487744 29.60382482688874,51.71891263325233 29.27087837550789,35.95988452702295 24.609628062229604,31.33333333331393 21.280163552612066,31.91165341215674 17.506770440842956,35.95988452702295 17.506770440842956,51.57433553156443 21.391145702451468,54.32129686453845 27.16221751924604,53.59841304033762 29.60382482688874,50.70687247783644 29.825789127033204,36.68278120207833 25.71944956528023,31.622493414732162 19.72641344740987,32.634553036885336 17.839716891758144,34.803248751035426 17.17382398992777,48.53821152599994 19.948377748019993,54.4658735661651 29.825789127033204,51.429758408805355 29.714806977193803,41.88762171543203" stroke="#4dd2ff" stroke-linecap="round" stroke-linejoin="round" stroke-width="0.5"><title>2024-11-16 4.9km</title><desc>1731760965000</desc></polyline><polyline fill="none" points="64.08665511268191,44.58213065247401 66.0,43.8763808515796 65.41767764301039,41.270523797837086 66.0,42.356299795472296 65.16811091871932,44.1478232415684 55.64298093598336,54.29962596442783 42.0,42.953475239133695 43.830155979376286,41.59625693093403 50.651646447367966,32.80136191038764 51.774696707259864,32.36704070225824 50.61005199304782,32.47562105196994 48.863084922079,34.701511214720085 51.44194107456133,32.529911214864114 54.9358752167318,32.47562105196994 63.878682842478156,39.533275589259574 65.87521663773805,42.356299795472296 59.88561525125988,50.0109303733916 54.436741767684,53.48532048944617 48.44714038143866,47.350828439957695 46.65857885638252,47.29654044678318 42.04159445432015,42.84489795722766 43.6221837089397,41.813412194052944 47.44887348357588,36.49307164107449 50.31889081466943,34.267192232218804 50.651646447367966,32.80136191038764 53.68804159457795,32.58420136992936" stroke="#4dd2ff" stroke-linecap="round" stroke-linejoin="round" stroke-width="0.5"><title>2024-11-14 2.7km</title><desc>1731589127000</desc></polyline><polyline fill="none" points="84.60331230558222,55.33333333333576 83.61780002166051,54.23083053083246 82.59005149704171,53.75307630915631 81.39335800940171,52.09929765440029 77.98630125640193,49.747219369746745 77.74696255888557,49.54508558553789 78.00038000330096,49.251072227467375 77.81735629349714,49.4348306569882 77.45130887371488,49.159192911844 81.08362557733199,44.84078920958564 80.47823946003336,44.06897374858818 77.9299862687476,41.88213750095747 77.26828516385285,41.73512193251372 73.8330709169968,45.85149275528238 75.7477804972441,47.98313173157658 77.01486771943746,48.90193047027424 77.8877500280505,48.53441178188223 81.01323184272042,44.63864752378868 78.1411674724659,42.02915289710654 77.46538762061391,41.75349888801429 76.28277287993114,42.87448808338377 73.8753071577521,45.924998150272586 76.78960776876193,48.699795324821025 77.14157644164516,48.957058180683816 77.60617508977884,48.810050899024645 81.02731058967765,44.804036200017435 80.75981439824682,44.27111635189067 78.78878983046161,42.48857490033697 77.73288381198654,41.69836801350175 77.32460015150718,41.77187584077183 73.8753071577521,45.906621805545 74.170960842981,46.384405893339135 77.33867889846442,48.993809974213946 78.85918356501497,47.50535372947343 82.43518528103596,43.113386125878606 83.49109129945282,42.341560042208584 84.3780523549649,42.01077598203847 88.36233773146523,41.86376056429435 93.3039778979728,41.000041507330025 93.03648170654196,39.1255669359889 92.33254436095012,36.90188922758534 95.20460873126285,35.65220181741461 95.50026241643354,35.303022228552436 94.03607273742091,33.09765501139918 92.24807187943952,31.645767104528204 89.92507863877108,31.33333333333576 85.06791095371591,36.68135705940222" stroke="#4dd2ff" stroke-linecap="round" stroke-linejoin="round" stroke-width="0.5"><title>2024-11-11 6.9km</title><desc>1731328526000</desc></polyline><polyline fill="none" points="115.41046831954736,54.062785881600576 114.9917355371872,54.206604311140836 111.75206611561589,52.19313671856071 103.33333333337214,44.74312722554896 105.03030303039122,40.65844614294474 107.82920110190753,39.01879675300734 110.4958677686518,35.42302649949852 113.2506887052441,32.54636291373754 113.86776859511156,32.46006235551613 118.31955922860652,36.37231623986736 118.78236914600711,37.29283524413768 113.75757575768512,43.16104251558136 112.72176308534108,43.621286654131836 107.76308539952151,38.96126494697819 111.487603305839,34.09976648131851 112.4573002755642,33.72580007830402 113.29476584028453,32.603896598215215 113.86776859511156,32.57512975811551 118.7382920110831,37.033939710090635 115.65289256209508,41.061164952639956 112.94214876031037,43.73634752044745 107.87327823694795,39.220157941424986 108.18181818176527,38.3284139688767 111.7300275482703,33.92716669145739 112.34710743802134,33.86963339445356 113.42699724517297,32.54636291373754 113.977961432538,32.603896598215215 118.7162534436211,37.00517351864255 115.32231404969934,41.377586295391666 112.9862258953508,43.707582310176804 107.93939393933397,39.33522138501576 107.96143250691239,38.81743535824353 110.36363636364695,35.48055934163858 113.69146005518269,32.57512975811551 118.78236914600711,37.06270589742053 114.11019283742644,42.90215471378178 113.03030303027481,43.650051877018996 107.76308539952151,39.191392070031725 110.65013774100225,35.221661419491284 112.92011019284837,33.006631917960476 113.95592286507599,32.51759606519772 118.65013774111867,36.803810060126125 118.49586776853539,37.5229643213097 115.80716253444552,40.83104001956235 113.69146005518269,43.276103651252924 112.74380165280309,43.707582310176804 107.91735537187196,39.363987235410605 108.13774104684126,38.44347793472116 111.28925619833171,34.53126529256406 113.88980716257356,32.51759606519772 118.7162534436211,36.803810060126125 115.32231404969934,41.32005518011283 112.94214876031037,43.621286654131836 107.85123966948595,39.33522138501576 107.91735537187196,38.61607375708991 109.04132231418043,37.75309312900936 110.25344352610409,35.595624975307146 113.66942148760427,32.4888292124233 118.76033057854511,36.803810060126125 112.92011019284837,43.880173508339794 114.06611570250243,44.31165084072563 119.77410468319431,37.75309312900936 123.80716253432911,41.32005518011283 125.12947658391204,42.0104274523037 127.33333333337214,44.31165084072563" stroke="#4dd2ff" stroke-linecap="round" stroke-linejoin="round" stroke-width="0.5"><title>2024-10-22 9.9km</title><desc>1729553484000</desc></polyline><polyline fill="none" points="134.78221015108284,44.60196364567673 134.18740451536723,44.62850307495319 134.0,44.52765314082717 134.10999830249057,44.198561939338106 134.30555084027583,44.034015223329334 134.54999151248194,43.9756275002037 134.54999151248194,43.7420756715037 134.7088779494079,43.704919560648705 135.1081310473528,43.726151628641674 140.81582074350445,43.200654307314835 141.28025802070624,43.23250284570895 141.96061789171654,43.09980041867311 143.03615684944089,43.00425437173908 143.2968935664685,43.0414111975515 143.56170429469785,42.94586499743309 146.49499236122938,42.63799220265719 148.57273807503225,42.49467122057831 148.87421490410634,42.537136755556276 149.20828382279433,42.44158923221403 151.99898149720684,42.29826747709012 152.04379562045506,42.462822036846774 152.67526735700085,42.45220563607654 152.86267187236808,42.28234280280958 153.62858597862942,42.2027193269314 158.0,42.038163591711054 154.3496859616571,42.13371217366512 152.88304192837677,42.266418121555034 152.58563911053352,42.1708698878283 151.97453742998186,42.21864403604559 151.9012052283215,42.1708698878283 151.8115769818396,42.3088839227421 151.62824647768866,42.34604145814956 147.39534883723536,42.55836950448065 139.68324562894122,43.33335636681295 139.1251060940558,43.32274021984995 136.31811237480724,43.65714736241716" stroke="#4dd2ff" stroke-linecap="round" stroke-linejoin="round" stroke-width="0.5"><title>2024-10-19 10.0km</title><desc>1729295146000</desc></polyline><polyline fill="none" points="182.74976424663328,55.33333333332848 181.36482083972078,54.193193359984434 180.36340022226796,52.52468350430718 169.07078474981245,43.09732750686817 170.98839869792573,41.26185865391744 175.71851310343482,34.80976678749721 178.95714999362826,31.333333333328483 179.76680921623483,31.639262030512327 184.2625485835597,35.6719124380179 182.43016192188952,38.119272319221636 179.38328642665874,41.65120201377431 178.48839991737623,42.09616487650783 173.6730582253076,37.70211093245598 177.1034565103473,33.057652279458125 179.1702182100853,31.333333333328483 184.2412417619489,35.72753460367676 181.42874130466953,39.31512988409668 178.59493402566295,42.09616487650783 173.7156718686456,37.86897559706995 173.80089915520512,37.1458943249163 178.6588544904953,31.472391893097665 179.38328642665874,31.388956769544166 183.7511848640861,35.03225636226125 184.17732129700016,35.50504584328155 184.02817354549188,36.200322354226955 179.23413867503405,41.818063209502725 178.44578627415467,42.012734419171466 173.6730582253076,37.75773250356724 173.77959233359434,37.0902725745691 177.9983430195134,32.251117946667364" stroke="#4dd2ff" stroke-linecap="round" stroke-linejoin="round" stroke-width="0.5"><title>2024-10-10 5.0km</title><desc>1728516073000</desc></polyline><polyline fill="none" points="32.53679273359012,79.17373039170343 30.029348686453886,82.0 28.870605604024604,81.70250015682541 24.52057009807322,77.68620112851204 24.06467118044384,76.76888490380952 15.117654921486974,69.6037304540223 14.129873933154158,68.3888472213439 16.808280074503273,65.1656453916803 17.872044215677306,64.96729250611679 17.644094756920822,64.54579185294278 19.980576709727757,61.37210618885001 23.076890192227438,58.04959028336452 23.931700662709773,58.19836104636488 27.863828827627003,62.01676590302668 23.665759627474472,67.14916146967153 22.981911251088604,67.7194180424849 22.35505023924634,67.49627439489996 18.878820992074907,64.62017439736519 18.384930498083122,63.80196461176092 20.569446145091206,60.75223876486416 22.943919674609788,58.14877080655424 23.45680595689919,58.0 24.00768381578382,58.371926771331346 27.407929909881204,61.29772221771418 27.80684146285057,62.01676590302668 23.39981859223917,67.29792423904291 22.564003909821622,67.5706556434452 18.57488838036079,64.29784980224213 18.308947345009074,63.72758170794987 21.519235556945205,59.53729203189141 23.304839651100338,58.0 27.635879368754104,61.47128476615762 27.597887792391703,62.48786183448101 23.39981859223917,67.39709934602433 22.37404602742754,67.421893113642 20.835387180442922,66.20699422930193" stroke="#4dd2ff" stroke-linecap="round" stroke-linejoin="round" stroke-width="0.5"><title>2024-10-05 4.9km</title><desc>1728122302000</desc></polyline><polyline fill="none" points="48.26348340930417,62.311420281010214 50.69047119701281,81.85628916317364 59.074610829818994,76.97010825487087 59.84683421673253,63.60484268999426 55.98571728076786,59.43714218796231 50.35951831750572,60.155712496547494 48.925389169715345,72.51503985805903 50.58015357051045,81.13773466547718 58.63334032287821,76.2515501974267 59.95715184370056,65.32940326305106 57.53016405552626,59.868284435768146 52.345235598273575,59.29342806356726 49.80793018359691,61.1617100489093 48.925389169715345,70.50306688883575 50.8007888244465,80.85031271987827 58.302387442439795,78.11980005842634 59.84683421673253,65.32940326305106 56.096034907735884,59.29342806356726 51.02142407791689,59.868284435768146 49.47697730315849,61.8802791009075 48.59443628927693,72.22761539934436 49.918247810564935,79.9880463804584 52.56587085220963,80.56289069063496 58.8539755763486,76.97010825487087 59.95715184370056,63.31741563451942 55.6547644007951,59.29342806356726 49.80793018359691,60.73056836659089 48.704753916244954,73.66473685501842 50.58015357051045,81.28144560719375 58.96429320285097,77.54495432419935 59.95715184370056,65.04197671019938 59.18492845678702,61.59285154286772 55.76508202776313,59.29342806356726 49.80793018359691,61.1617100489093 49.146024423185736,79.55691292777192 50.8007888244465,80.70660171582131 59.295246083289385,77.11381980392616 60.06746947020292,64.32340996188577 56.4269877881743,59.29342806356726 49.58729492966086,61.1617100489093 49.25634205015376,78.40722279984038 51.352376957889646,81.13773466547718 59.73651659069583,76.97010825487087 59.84683421673253,62.598847629269585 55.98571728076786,59.43714218796231 49.146024423185736,61.8802791009075 48.3738010362722,70.50306688883575 50.138883063569665,79.12577928690007 51.903965091798455,80.13175748934736 59.515881336759776,77.11381980392616 59.95715184370056,63.74855618615402 56.096034907735884,59.43714218796231 49.58729492966086,61.1617100489093 49.03570679668337,76.68268509500194 52.67618847871199,81.28144560719375 59.40556371025741,78.26351143943612 59.84683421673253,64.03598311595852 58.19206981547177,60.29942649556324 55.103176266886294,59.14971391798463 49.03570679668337,61.8802791009075 48.4841186623089,70.79049184994074 50.8007888244465,81.71257830527611 59.40556371025741,78.83835675474256 59.62619896326214,64.03598311595852 56.537305414676666,59.29342806356726 49.25634205015376,60.586854430323 49.58729492966086,80.85031271987827 59.074610829818994,79.41320173512213 60.06746947020292,74.81443251145538 59.515881336759776,61.8802791009075 55.76508202776313,59.00599975133082 51.79364746483043,59.00599975133082 48.704753916244954,62.4551339657628 49.69761255662888,79.84433525032364 56.4269877881743,80.85031271987827 59.84683421673253,75.3892798369634 59.074610829818994,62.311420281010214 54.55158813344315,58.71857135556638 50.138883063569665,59.580856291460805 47.711895275861025,61.30542390153278 49.58729492966086,79.26949052140117 53.44841186655685,81.56886742723873 58.19206981547177,80.99402370338794 60.06746947020292,75.96412682766095 58.96429320285097,61.8802791009075 56.97857592115179,59.724570373946335 51.131741704419255,59.868284435768146 48.59443628927693,63.892269661300816 49.58729492966086,79.41320173512213 57.309528801590204,81.13773466547718 59.84683421673253,77.54495432419935 59.074610829818994,61.017996175796725 53.88968237256631,58.71857135556638 49.03570679668337,61.8802791009075 49.58729492966086,79.12577928690007 52.23491797130555,81.42515652748989 57.41984642855823,81.13773466547718 59.95715184370056,75.10185621597338 59.074610829818994,60.155712496547494 52.124600345268846,59.29342806356726 48.81507154321298,63.60484268999426 49.25634205015376,78.83835675474256 52.23491797130555,82.0 55.21349389385432,81.85628916317364 59.73651659069583,76.97010825487087 58.96429320285097,60.01199847640237 52.345235598273575,59.00599975133082 48.704753916244954,62.598847629269585 48.704753916244954,77.25753133132821 52.345235598273575,80.99402370338794 55.98571728076786,81.42515652748989 60.06746947020292,76.68268509500194 59.515881336759776,61.30542390153278 54.8825410134159,58.862285564187914 48.925389169715345,62.598847629269585 49.146024423185736,75.67670337448362 51.6833298378624,79.55691292777192 56.97857592115179,80.56289069063496 60.288104724138975,75.3892798369634 60.06746947020292,62.4551339657628 55.43412914732471,58.0 49.03570679668337,61.8802791009075 49.146024423185736,77.54495432419935 53.338094239123166,81.28144560719375 59.295246083289385,78.55093413888244 60.288104724138975,63.1737020756118 56.20635253470391,58.71857135556638 49.69761255662888,60.155712496547494 48.925389169715345,76.82639668538468 55.103176266886294,81.13773466547718 59.074610829818994,79.26949052140117 60.288104724138975,62.74256127199624 55.76508202776313,58.1437143132207 49.146024423185736,61.449137732735835 48.153165782336146,75.10185621597338" stroke="#4dd2ff" stroke-linecap="round" stroke-linejoin="round" stroke-width="0.5"><title>2024-09-08 8.9km</title><desc>1725751236000</desc></polyline><polyline fill="none" points="84.82741451973561,58.544524839147925 86.7563887576107,58.0 86.17769648635294,58.293205810914515 86.78853832837194,69.14161050962866 92.1896661943756,67.54997831163928 93.44349944894202,68.34579551243223 92.99340546014719,70.35627125645988 93.28275159583427,81.2042206080805 80.32647463132162,82.0 76.43637658492662,81.5392858836858 76.8221714325482,73.28818983834935 75.92198345484212,67.59186348234653 75.8898338843137,59.34036697872216 76.66142357932404,58.58641132249613" stroke="#4dd2ff" stroke-linecap="round" stroke-linejoin="round" stroke-width="0.5"><title>2024-08-20 2.0km</title><desc>1724107925000</desc></polyline><polyline fill="none" points="119.07246376812691,58.839775410000584 114.05797101452481,58.53658408529009 114.20289855072042,63.728637052336126 114.0144927536603,64.0318161642208 108.75362318841508,62.97068615285389 108.36231884063454,63.766534480368136 108.40579710144084,68.25730080631911 107.9420289855334,68.27624885601108 104.10144927544752,66.30563677303144 103.34782608697424,66.5140683218633 103.33333333331393,79.8719328466832 120.89855072461069,81.46341591472446 120.9855072463397,78.56462848611409 120.40579710144084,71.83843271082151 121.31884057971183,71.66790487602702 125.0434782608645,71.87632775453676 126.15942028979771,71.63000977099 126.94202898547519,71.89527527225437 126.69565217389027,71.4215864942671 127.33333333331393,71.04263421850919 126.18840579706011,65.30137094977545 125.26086956518702,62.68645341650699" stroke="#4dd2ff" stroke-linecap="round" stroke-linejoin="round" stroke-width="0.5"><title>2024-08-18 4.9km</title><desc>1723938111000</desc></polyline><polyline fill="none" points="154.394543210743,78.77456759295455 153.05141629709397,80.96576754851412 151.85603334382176,82.0 150.83525688940426,81.5091789332073 148.71311636571772,79.40563729075075 147.89380894834176,78.8797461068898 147.41028325946536,78.10843485972873 147.16852041496895,78.17855426927417 140.97670534276403,73.05972946852125 134.77145900134929,67.32708716116758 134.1804831593763,65.67912084748968 134.32822711986955,64.46942901186412 134.1133268136764,63.89087642230152 134.38195219641784,62.40065233275527 135.05351565330056,62.13766968566779 136.41007383615943,60.26171004682692 138.679958320281,58.0 141.36621214775369,59.94612516333291 142.37355733307777,61.31365365110105 143.2331585577922,61.99741203774465 144.0793285134132,61.90975092431472 145.52990558021702,63.22466088647343 146.1746064988547,64.38176970824134 142.72277033061255,68.53675012695749 143.32717744179536,68.9049059952813 146.67156345694093,64.94278814217978 147.98782783234492,65.67912084748968 150.82182562031085,68.29131225256424 151.5739766919869,68.69453135199001 153.1320039118291,70.37751814952935 153.88415498356335,70.74566835837322 156.06002058373997,72.84936212456523 156.83903419371927,73.27009644288046 157.8866731863818,74.54982090838166 157.37628495920217,75.51398784208868 155.71080758614698,77.10922881224542 155.49590728001203,77.6526576967517 154.66316859354265,78.26620347348944" stroke="#4dd2ff" stroke-linecap="round" stroke-linejoin="round" stroke-width="0.5"><title>2024-08-14 5.1km</title><desc>1723587841000</desc></polyline><polyline fill="none" points="185.33172353397822,79.75639488147135 183.45003558153985,81.96968133586779 183.12480556510855,82.0 181.893577645591,80.71144894749887 181.18504082399886,80.34761986561352 180.6971957993228,79.68059656250261 180.15127398597542,79.46836097422783 179.33819894480985,78.46781591394392 174.09967260813573,74.29877410975314 168.82630019827047,69.41699183367018 168.38491660449654,68.34054303444282 168.46622410864802,67.56731234306062 168.16422480763867,66.55149069859908 168.3384551735362,64.12560764971568 169.84845167858293,62.4426178921276 170.22014312597457,62.412293501445674 169.8716823940049,62.38196910194529 169.38383736932883,61.775479245923634 169.09345342608867,61.911939773272024 168.36168588901637,62.92780693498207 168.55914697045228,63.852692250053224 168.24553231173195,64.00431200535968 168.0016097993357,60.5321639348258 168.09453266119817,58.43972153381037 170.76606493938016,58.0 171.7301396310213,58.19711678059684 173.7976733071846,58.060651357074676 171.70690891554113,60.865737800813804 176.46920558525017,64.95951135832729 178.04889423662098,65.83889344840281 178.75743105827132,66.99117591720278 181.94003907655133,69.7050536988827 179.01296892832033,73.35882149921963 179.54727538395673,73.5104273360339 181.40573262091493,71.20599466277054" stroke="#4dd2ff" stroke-linecap="round" stroke-linejoin="round" stroke-width="0.5"><title>2024-08-10 5.2km</title><desc>1723241479000</desc></polyline><polyline fill="none" points="30.600185700983275,105.9599260431205 29.477065923798364,107.40829430829763 28.915506035205908,108.61234609827079 28.153389043640345,108.07139679847023 27.61857010202948,108.0364967593996 26.575673166196793,106.30893205354369 24.73054781794781,105.33171264947305 24.289322191267274,104.49408964168106 22.858681522659026,103.48195398820826 20.117734447470866,100.75961545198516 18.687093778979033,99.9568627325134 17.136118848633487,98.35134107577323 14.889879294263665,96.43166723161994 14.716063138272148,96.60618431313924 14.167873723199591,95.96046983533597 13.124976787308697,95.33220374280063 12.737233054707758,94.54686647040944 12.028597957221791,94.1454698663947 11.50714948924724,92.92381971084978 11.73444753937656,92.26063295438507 11.33333333331393,90.8818907827008 11.761188486474566,89.27624688664946 12.777344475325663,88.47341682731349 13.298792943300214,87.53095724885497 15.772330547799356,84.77334753052128 16.280408542137593,84.72098723506497 16.333890436275396,85.00024187825329 16.58792943356093,84.96533508362336 17.764531104883645,85.83800188182795 18.205756731622387,86.51867754884734 19.435840297082905,87.42623905788787 19.85032497672364,87.46114513176872 20.451996285934,88.78756836415414 21.66870937787462,89.0668134794978 22.97901578451274,88.92719100357499 23.848096564470325,89.4682271866186 24.08876508817775,90.37576623685163 23.88820798508823,90.6724601968308 21.25422469811747,93.46483775301022 20.131104921048973,95.38455937698018 20.572330547729507,95.55907799155102 21.334447539353278,94.87845394988835 22.872051996237133,92.76674949677545 23.848096564470325,91.75451426301152 24.24921077064937,91.66725220246008 29.383472609042656,95.85575904986763 30.38625812443206,97.11228240463242 31.977344475337304,98.298986744594 32.73946146701928,98.38624395040097 32.9266480965307,98.9621399066964 33.60854224697687,99.36352029146656 33.82246982358629,99.83470423608378 35.33333333331393,100.55020222019812 35.10603528318461,101.6321666243748 32.08430826361291,104.80819895930472" stroke="#4dd2ff" stroke-linecap="round" stroke-linejoin="round" stroke-width="0.5"><title>2024-08-09 5.2km</title><desc>1723159591000</desc></polyline><polyline fill="none" points="61.68620953033678,105.87867668673425 61.848451420257334,106.21394471526582 60.969641183677595,106.65508543748729 60.32067362440284,107.48442562494893 60.26659299444873,107.94320710730244 59.46890370280016,108.66666666666424 58.07632748183096,106.74331338818592 57.603121969790664,106.6903766254909 56.913593938050326,105.87867668673425 55.899582126701716,105.4198873472269 55.480457244615536,105.03167961924191 55.52101771708112,104.59053295618651 55.22357425233349,104.76699181513686 43.474557397537865,94.69077721823851 42.62278747593518,93.45545652112196 42.32534401130397,92.5201338569168 42.06846101913834,90.24356345443084 42.20366259390721,88.97290081054234 43.43399692513049,88.10813662818691 45.24569802812766,85.69029364096787 46.47603235929273,84.66666666666424 46.962758028821554,84.68431548123772 50.234636140288785,87.52574092726718 51.032325431879144,87.84341165846126 51.20808747923002,88.60228834931331 53.68227629904868,90.08473135649547 53.966199606249575,90.68476262810145 57.900565434538294,94.0025286774835 58.008726694388315,94.30253493480268 54.80444937030552,98.06137357719126 54.615167165524326,98.431956954606 54.83148968539899,98.69665866949799 55.42637661466142,98.4848973440603 56.9000737805618,96.47314619782264 58.71177488367539,94.81430859162356 65.93153898086166,101.07894794619642 64.89048685441958,102.7024069968902 63.28158811369212,104.25526041263947" stroke="#4dd2ff" stroke-linecap="round" stroke-linejoin="round" stroke-width="0.5"><title>2024-08-08 4.9km</title><desc>1723122982000</desc></polyline><polyline fill="none" points="96.60170603675942,95.75749357006498 96.63123359582096,95.73822431076587 96.63418635171547,95.79217820123267 96.66666666667152,95.66885486054525 96.62532808400283,95.60333910083682 96.39206036746327,95.76520126981814 96.07020997376821,95.45689151899023 95.99343832021987,95.44532983308636 95.89895013124624,95.53396929519658 95.79855643045448,95.46074541315284 95.72769028872426,95.48386876632867 95.107611548563,96.22380534441254 94.20702099737537,97.08703840234739 91.15682414699404,100.67454757046107 90.98556430447206,100.77087566481168 86.67158792651026,97.11016032717816 85.7650918635336,96.52439863900145 85.60269028872426,96.26619691434462 85.5347769029031,95.96560067169958 84.73458005250723,95.56865422085684 84.35072178479459,95.66885486054525 83.95800524935476,95.67270872368135 83.17552493439871,95.56865422085684 82.35465879265394,95.56094646354722 75.34776902888552,95.83842430506047 74.8812335958064,95.8114474210397 74.56233595802041,95.63031619811045 74.19619422573305,95.842278143371 72.78477690288855,95.90393947974007 72.7404855643108,95.86925499580502 72.66666666667152,94.24674084699109 72.68143044618773,93.6108113490809 77.27001312337234,93.41424821430519 77.37631233596767,93.42195660018479 78.3330052493402,93.86903911897025 78.77296587926685,94.00778732225808 83.52690288714075,94.03091195169873 83.99639107612893,93.94226742849787 85.06824146982399,93.46049849572228 85.53772965879762,93.47206105337136 85.9747375328152,93.36799785163566 85.98950131234596,93.2832053090151 87.48359580054239,92.63954392015512 87.66666666667152,92.67808696131397 87.98556430448662,92.61256375775702 89.43241469816712,92.56245766852044 89.44717847769789,92.67423265973412 89.51213910760998,92.69735846072399 92.31135170605558,92.60870944658927 92.36450131234596,92.77829860419479 92.38517060369486,93.42195660018479 92.46489501312317,93.7148735909268 92.6361548556597,94.01164142857124 95.11056430447206,96.14287579409574 95.26410761156876,96.03496934001669 95.41174540683278,96.0850688201208 95.92552493438416,95.54553094215771 96.36253280841629,95.87310882960628" stroke="#4dd2ff" stroke-linecap="round" stroke-linejoin="round" stroke-width="0.5"><title>2024-07-21 16.7km</title><desc>1721568012000</desc></polyline><polyline fill="none" points="105.0964745618985,98.15498849752476 104.0325100274058,97.18285826063948 103.71332066704053,96.17104183143238 103.72852016036632,94.32594536240504 103.33333333331393,93.43314772850135 103.4549292800366,91.78641666095064 104.67088874807814,91.05232527777844 106.34283301659161,88.53257595056493 107.63478995137848,87.48101316015527 107.89318133838242,86.78658042782627 108.50116107228678,86.72705745666462 110.30990078102332,87.9571935480053 110.50749419454951,88.53257595056493 113.57779185124673,90.9729638089484 113.74498627812136,91.46897222659027 114.62655689247185,91.72689588618232 116.40489761444042,93.63154771106201 117.11927380191628,93.86962730671803 121.40553092665505,97.83755898293748 124.49102807679446,100.23810123521253 125.22060375759611,101.17053179979848 127.33333333331393,102.63860096210556 127.27253535983618,103.094889488857 125.85898247832665,104.46374585098238 124.6430230102851,106.60627587666386" stroke="#4dd2ff" stroke-linecap="round" stroke-linejoin="round" stroke-width="0.5"><title>2024-07-16 2.5km</title><desc>1721136594000</desc></polyline><polyline fill="none" points="154.97285743936663,94.0432290233839 153.76238064782228,95.41609371493541 152.83205787357292,96.68544056312749 151.8700195501733,97.34079647888575 151.0136997238733,98.26517775369575 150.1203784235695,97.62363148029544 144.14199741388438,92.49094690486527 144.05213669137447,92.09079478120475 143.95699004398193,88.75836150694158 143.9252744948608,86.54350841031919 144.02042114225333,85.10828321456574 145.07760611301637,84.81847282186209 146.39908732645563,84.66666666666788 146.57880877150455,89.01364940940766 146.69509911825298,89.52422106533413 146.9805390604015,90.1313801582146 151.55814998378628,94.02253226477478 153.48751255546813,95.84381223256423 152.77919862503768,96.75442582547112 151.88059139988036,97.33389804301987 150.9925560244301,98.27897435182967 151.09298859667615,98.38934699160018 151.03484342328738,98.52731242787195 151.74844327854225,99.17574456927105 151.72729957909905,99.27921695806435 150.5802538858552,100.65192915509033 150.2313828454935,101.25204705513897 149.2693445220939,102.39707840525807 148.34430767266895,103.30756541187657 147.60956411799998,103.77659731031599 146.8061035402061,103.97662420056076 145.85992299139616,105.08710288097427 145.85992299139616,105.48714469260085 146.90653611245216,106.40446913434425 147.2659790024918,106.58379363138738 147.7681418636057,106.49413146813094 148.32316397325485,105.87338873821864 148.65089131420245,105.41127495469118 148.58217429107754,104.95605396316387 147.29769455161295,103.92144445354643 146.81667538994225,103.99041912721077 145.86520891622058,105.09400018233282 145.8440652168356,105.66647267871667 145.69077339605428,106.21134968247134 145.22561200891505,107.02520487219954 144.1208537144703,108.46665967334775 143.8618433966185,108.66666666666788 140.77486328198574,106.12168681091134 137.3601558264345,102.83163121559483 137.02714256063337,102.40397610020591 137.30201065304573,102.5005437234322 139.90797160597867,98.96190091269455 140.95458472700557,96.87859904325524 141.04444544954458,96.52677407658484 141.73161568056094,96.10596037324649 143.7984122983762,95.40919499736628 144.37986403229297,95.02976397567545 145.4793364018842,93.84315997606245 146.48894804896554,92.40125793118204 147.86328851099825,90.87651926259787 151.584579608083,94.02943118533221 153.4610829312005,95.78172430147242 154.50241012740298,94.55374619216309 154.8142796937609,94.09842033526365 154.7719922949036,94.00183549705616" stroke="#4dd2ff" stroke-linecap="round" stroke-linejoin="round" stroke-width="0.5"><title>2024-07-06 16.1km</title><desc>1720267100000</desc></polyline><polyline fill="none" points="168.94487013015896,94.5926615416538 170.64820760162547,93.4074732370209 173.3735475554131,107.3333482494345 180.75467659858987,107.77778791671153 183.93423987878487,103.18523528508376 182.00379074458033,87.3333614114672 176.32599917287007,85.40741591132246 170.98887509619817,90.00004913657904 172.23798924172297,105.2592938906746 175.98533167876303,108.5185202624416 180.9817882613279,107.77778791671153 184.04779571015388,102.14820439007599 182.68512573326007,87.92595929047093 176.32599917287007,85.25926610524766 172.35154507309198,88.37040747224819 171.44309842167422,91.92598590580747 172.80576839856803,105.40744077123236 177.57511331886053,108.22222738945857 181.4360115872696,107.18520165025257 184.16135154105723,101.11117243370973 183.70712821558118,90.29634733940475 181.4360115872696,86.1481646138709 173.3735475554131,86.4444639433641 171.2159867589362,91.48153928422835 172.465100904461,105.70373446773738 175.87177584739402,108.07408092007972 181.54956741863862,107.6296413828386 184.04779571015388,104.66670615086332 183.59357238421217,90.44449640857056 179.8462299471721,85.25926610524766 176.6666666669771,84.66666666662786 172.0108775794506,88.07410870573949 171.67021008441225,103.48152963153552 173.14643589314073,106.44446832977701 177.91578081296757,108.66666666662786 184.04779571015388,104.8148531181505 183.4800165523775,90.00004913657904 177.80222498159856,84.96296642941888 173.94132671365514,86.29631428932771 171.32954259077087,89.85190000280272 172.35154507309198,104.8148531181505 174.84977336460724,107.48149482673034 179.7326741158031,108.37037383660208 184.2749073728919,104.07411806413438 183.02579322690144,87.7778098534327 176.32599917287007,85.11111627810169 171.32954259077087,90.29634733940475 172.465100904461,105.2592938906746 177.57511331886053,108.37037383660208 182.11734657594934,107.48149482673034 184.38846320379525,100.81487739400472" stroke="#4dd2ff" stroke-linecap="round" stroke-linejoin="round" stroke-width="0.5"><title>2024-02-29 2.9km</title><desc>1709196138000</desc></polyline><polyline fill="none" points="12.715867753140628,111.33333333337214 21.459662936627865,116.518566669547 21.1189955919981,130.29634343879297 25.6612268560566,135.18518692895304 31.566127499565482,133.85186831641477 33.83724313182756,130.59263765520882 32.92879687901586,115.62967141100671 28.273009832948446,111.62963309616316 23.61722278734669,112.07408257771749 20.551216683816165,115.03707413887605 21.686774500180036,131.62966673041228 26.796784672420472,135.18518692895304 33.38302000518888,132.37040113448165 33.04235266009346,115.62967141100671 28.273009832948446,111.92593277222477 21.005439810454845,114.29632706055418 21.459662936627865,130.29634343879297 23.8443343504332,134.29630804911721 29.862790775019675,135.33333333337214 33.49657578673214,132.22225429676473 33.72368735028431,121.70377346512396 30.771237028297037,112.6666815832723 22.25455340789631,113.11113060975913 20.551216683816165,117.70375913381577 22.70877653453499,133.55557505367324 30.430569683667272,135.33333333337214 33.15590844210237,133.11113499605563 33.95079891337082,128.81487105682027 32.0203506257385,114.29632706055418 29.408567649312317,112.22223236132413 23.16299966070801,112.6666815832723 20.66477246582508,117.11116307496559 22.368109189905226,132.81484151654877" stroke="#4dd2ff" stroke-linecap="round" stroke-linejoin="round" stroke-width="0.5"><title>2024-02-26 2.1km</title><desc>1708947688000</desc></polyline><polyline fill="none" points="49.99349917611107,120.90395406086463 46.72058301046491,126.05732753989287 48.977766572963446,132.83029257005546 53.04069698555395,135.33333333331393 59.47367013944313,133.86095716734417 60.60226192045957,116.92847649700707 54.95930301398039,111.33333333331393 49.09062575083226,114.13090880203526 48.413470682222396,129.14933896629373 51.799246026203036,134.15543257299578 55.975035617128015,134.5971455196268 60.82798027712852,131.7996269177529 60.71512109879404,116.7812362856348 55.52359890425578,111.48057434143266 48.639189038425684,115.16159254137892 48.52632986009121,130.03276905854 50.670654244720936,134.00819488067646 53.604992876295,134.89162070979364 60.489402742590755,132.09410292602843 60.60226192045957,116.92847649700707 59.47367013944313,113.98366818152135 54.39500712323934,111.48057434143266 48.52632986009121,116.48675579886185 48.86490739462897,131.50515082274796 53.49213369842619,134.89162070979364 58.4579375362955,133.71371943224221 61.27941698906943,129.29657736897934 60.489402742590755,115.30883298965637 58.006500823423266,112.06953815789893 54.16928876703605,111.33333333331393 49.09062575083226,114.71987106773304 48.413470682222396,129.59105410944903 52.70211945101619,134.89162070979364 57.55506411101669,134.4499078920344 60.82798027712852,131.50515082274796 61.053698633331805,117.81191731221043 59.925106851849705,114.57263053383213 55.74931726139039,112.06953815789893 50.896372601389885,112.95298323623138 49.203484929166734,115.30883298965637 48.639189038425684,131.65238888101885 52.58926027268171,135.0388582725427 59.925106851849705,132.53581677662442 60.489402742590755,117.22295685479185 58.4579375362955,113.39470548508689 54.95930301398039,112.06953815789893 48.30061150435358,115.75055420410354 48.52632986009121,130.91619837575126 50.78351342305541,134.74438312568236 58.68365589249879,133.86095716734417 60.71512109879404,130.62172202236252 60.82798027712852,121.93463086686097" stroke="#4dd2ff" stroke-linecap="round" stroke-linejoin="round" stroke-width="0.5"><title>2024-01-18 3.0km</title><desc>1705581243000</desc></polyline><polyline fill="none" points="81.82777171116322,114.29632706090342 78.64820936135948,115.48152212542482 78.53465356305242,131.48151978489477 81.25999272009358,134.4444545834558 85.80222464865074,135.18518692953512 90.3444565772079,132.2222542973468 90.3444565772079,116.22226833656896 88.30045220907778,112.51853186439257 84.78022246481851,111.33333333337214 80.01087894011289,113.25928024190944 77.96687457198277,116.51856666931417 78.1939861685969,130.1481962982798 83.4175528860651,134.8888940558536 90.11734498059377,131.9259605569532 90.23090077890083,116.07411913725082 85.46155725419521,111.62963309593033 81.14643692225218,112.66668158350512 78.3075419664383,116.22226833656896 78.76176515920088,130.74078473134432 81.14643692225218,134.4444545834558 84.55311086867005,135.33333333337214 90.3444565772079,131.7778136547422 90.68512397212908,116.8148649155628 86.59711523680016,111.77778294496238 81.48710431624204,112.3703821238596 78.87532095750794,115.18522348930128 78.76176515920088,130.74078473134432 84.09888767590746,135.33333333337214 90.79867976997048,132.2222542973468 90.00378918275237,116.07411913725082 85.34800145542249,112.3703821238596 78.76176515920088,115.0370741385268 78.87532095750794,131.48151978489477 84.89377826312557,135.33333333337214 90.3444565772079,132.5185479504289 90.4580123750493,116.37041751400102 86.14289204357192,111.77778294496238 81.03288112394512,112.51853186439257 78.1939861685969,116.51856666931417 78.42109776521102,129.55560751864687 83.07688549160957,134.8888940558536 90.11734498059377,132.66669474437367 90.4580123750493,116.07411913725082 85.12088985927403,111.33333333337214 78.53465356305242,115.62967141123954 78.76176515920088,130.00004913599696 80.57865793071687,133.2592817042023 84.43955506989732,134.59260109625757 89.0953427972272,134.00001491582952 91.36645876150578,130.59263765567448 89.89023338397965,114.7407753727166 86.48355943802744,111.77778294496238 81.71421591285616,111.92593277210835 78.76176515920088,114.7407753727166 78.53465356305242,127.03710133873392" stroke="#4dd2ff" stroke-linecap="round" stroke-linejoin="round" stroke-width="0.5"><title>2024-01-17 3.3km</title><desc>1705483266000</desc></polyline><polyline fill="none" points="109.66411159886047,125.06925068621058 107.0030483356677,127.33339533861727 111.515286042355,133.22014819085598 116.95311097195372,134.88050831004512 122.39093590015545,132.91826424584724 123.2008247198537,118.42773105448578 120.07696784520522,112.69183879939374 115.33333333348855,111.63522359123453 110.82109562633559,114.50317663920578 110.47400041809306,129.4465925329132 114.754841319751,134.2767413026886 122.96942791389301,132.46543816302437 122.73803110839799,117.52206597535405 118.45719020720571,111.48427847330458 110.01120680710301,116.01262241113 110.12690520985052,127.63528091658372 113.48215888952836,134.72956659109332 122.04384069237858,133.67297394259367 123.2008247198537,118.12584278313443 120.30836465163156,112.23900384269655 113.94495250051841,112.38994885038119 110.01120680710301,116.16356686712243 110.47400041809306,130.8050741587067 115.91182534676045,135.33333333337214 122.62233270611614,133.52203204715624 123.08512631664053,116.61640010157134 118.91998381819576,111.33333333337214 113.59785729227588,112.08805881335866 111.16819083457813,115.10695521323942 110.58969882084057,130.8050741587067 111.86238125059754,133.52203204715624 117.4159045824781,135.33333333337214 123.66361833084375,131.10695872223005" stroke="#4dd2ff" stroke-linecap="round" stroke-linejoin="round" stroke-width="0.5"><title>2024-01-13 2.0km</title><desc>1705132259000</desc></polyline><polyline fill="none" points="138.92901515215635,118.23339084931649 140.19374414905906,131.28337271884084 142.26330069079995,134.28334507986438 146.63236449938267,135.33333333337214 152.95600948529318,130.53337825729977 152.49610803136602,115.68337500060443 146.7473398623988,111.63333679910284 140.76862096600235,115.08337035018485 140.76862096600235,130.98337499960326 145.59758622851223,134.73334017710295 153.07098484784365,131.1333738701651 152.84103412134573,115.68337500060443 149.04684713017195,111.93334017740563 144.79275868507102,111.78333849913906 140.07876878557727,116.88338324823417 140.42369487602264,129.93338229332585 143.29807896073908,134.88333849876653 145.82753695501015,135.33333333337214 151.46132976096123,133.383354292484 152.95600948529318,130.23338031908497 152.3811326683499,115.2333715459099 146.63236449938267,111.63333679910284 143.52802968770266,111.78333849913906 140.42369487602264,115.5333738711197 140.65364560298622,131.28337271884084 146.4024137724191,135.33333333337214 152.84103412134573,130.68337719351985 152.03620657790452,114.78336789330933 146.51738913543522,111.33333333337214 140.42369487602264,115.38337271928322 141.34349778294563,130.08338131697383 146.4024137724191,134.43334346730262" stroke="#4dd2ff" stroke-linecap="round" stroke-linejoin="round" stroke-width="0.5"><title>2024-01-11 2.0km</title><desc>1704963338000</desc></polyline><polyline fill="none" points="174.07361134700477,117.20573473186232 172.41014189692214,120.01426056644414 172.60584418475628,131.3759319552919 176.6177410944365,135.2056755044032 180.8253402924165,134.69504400226288 182.9780654637143,131.75890706613427 182.293107454665,117.84403685154393 179.45542427524924,114.90784323681146 173.38865333795547,115.29082557314541 169.96386329317465,112.48228454147466 170.94237473467365,111.33333333331393 170.74667244637385,114.78018242091639 173.97576020285487,115.29082557314541 172.31229075230658,117.9716972191818 172.70369532890618,130.09934703831095 174.66071821236983,134.31207017909037 179.16187084233388,135.33333333331393 182.4888097429648,133.4184639386367 183.1737677520141,119.88660049706232 178.86831741034985,114.90784323681146 175.44352736510336,115.41848631418543 172.50799304107204,118.73765903461026 172.80154647305608,131.3759319552919 176.7155922385864,135.0780176569824 180.23823342798278,134.95035979064414 182.8802143195644,131.75890706613427 182.3909585988149,117.71637646475574 177.10699681565166,114.5248607332469 172.99724876182154,118.48233850416727 173.29080219380558,132.1418820093968 177.30269910395145,134.95035979064414 181.31459601363167,134.0567542036879 183.3694700403139,130.99295667599654 182.6845120312646,117.58871605963213 180.04253113921732,114.5248607332469 177.4984013917856,114.26953897066414 172.99724876182154,117.84403685154393 173.09509990550578,130.86529821250588 177.10699681565166,134.56738607981242 180.8253402924165,134.1844122009934 183.1737677520141,131.12061512086075 182.8802143195644,117.9716972191818 181.60814944608137,115.16316481301328 178.67261512158439,114.14187806140399 172.80154647305608,117.46105563564925 172.70369532890618,130.60998122906312 175.14997393265367,133.67378010059474" stroke="#4dd2ff" stroke-linecap="round" stroke-linejoin="round" stroke-width="0.5"><title>2024-01-09 2.6km</title><desc>1704792913000</desc></polyline><polyline fill="none" points="14.077097010333091,146.5063925558934 18.61789218802005,143.31650351092685 19.549337352626026,159.1139533831738 23.50797930220142,161.6962059964426 27.815913188271224,161.54430896171834 31.541693846229464,158.6582610787591 32.12384707434103,154.70891940279398 31.77455513784662,143.16460378828924 28.514497061725706,138.60760177869815 22.925826074089855,138.30380093341228 19.549337352626026,141.0380053386325 19.549337352626026,157.13928528816905 24.55585511215031,162.0 31.192401910200715,160.481029095361 32.00741642853245,144.0760017912835 28.514497061725706,138.60760177869815 22.925826074089855,138.60760177869815 19.898629289120436,141.79750528465956 19.898629289120436,156.37979655980598 23.275118011515588,161.08861772390082 29.329511580988765,161.24051482521463 32.00741642853245,159.1139533831738 32.00741642853245,143.6203028896125 29.329511580988765,139.06330287910532 24.672285757493228,138.0 22.110811555292457,138.30380093341228 19.665767998434603,141.94940520753153 19.78219864377752,158.05067102937028 25.37086963141337,161.54430896171834 32.35670836549252,158.81015853595454 32.12384707434103,144.37980094749946 28.165205125231296,138.30380093341228 23.15868736524135,138.1519004778238 19.316476061474532,142.86080427630804 20.015059934463352,158.81015853595454 25.953022859059274,161.84810300928075 32.35670836549252,158.20256857492495 31.541693846229464,141.3418053833302 27.699482542462647,138.30380093341228 23.15868736524135,138.45570136688184 19.549337352626026,141.49370537279174 19.549337352626026,156.8354898634134 24.090132529847324,161.3924119048752 32.12384707434103,158.6582610787591 32.58956965664402,144.8354995161062 29.329511580988765,138.45570136688184 22.110811555292457,138.9114025348099 19.549337352626026,144.8354995161062 20.597213162574917,160.02533739164937 28.863788998685777,161.08861772390082" stroke="#4dd2ff" stroke-linecap="round" stroke-linejoin="round" stroke-width="0.5"><title>2024-01-08 3.0km</title><desc>1704701613000</desc></polyline><polyline fill="none" points="47.4383549252525,142.43316250981297 48.14138832595199,158.7898408395704 54.35151669988409,161.54140643787105 59.74143943982199,157.26119015563745 59.15557827288285,142.12742776831146 54.93737786728889,138.4586038897978 48.25856055878103,141.0573554674629 47.67269939184189,156.64972925605252 52.12524426402524,161.69427098077722 56.92930583655834,161.38854187203106 59.97578390641138,157.87265069724526 59.27275050571188,143.04463172599208 54.82020563352853,138.3057359488448 50.36766076181084,138.91720757936127 47.789871625136584,141.66882548783906 47.55552715854719,157.71978559542913 52.8282776651904,161.84713550133165 56.4606169029139,161.69427098077722 60.21012837393209,158.1783808345208 59.85861167265102,143.5032334025018 54.35151669988409,138.0 50.01614406146109,138.91720757936127 47.4383549252525,142.2802951503545 47.55552715854719,157.10832496441435 51.77372756367549,161.69427098077722 56.812133603263646,161.54140643787105 59.85861167265102,158.7898408395704 60.21012837393209,145.18477116385475 55.640411267988384,138.15286798565648 50.01614406146109,139.07007543067448 47.67269939184189,141.51595801615622 48.49290502630174,160.1656245442573 56.226272435858846,161.69427098077722 60.67881730757654,156.80259451456368 58.68688933830708,140.75162032304797 51.53938309662044,138.15286798565648 47.204010458197445,142.73889716283884 47.90704385843128,158.94270578527357 53.99999999953434,162.0 60.32730060722679,157.56692047137767 58.68688933830708,140.9044879062567 52.12524426402524,138.15286798565648 47.32118269149214,144.72617022471968 47.67269939184189,158.02551577694248 50.71917746216059,161.69427098077722 54.93737786728889,162.0 58.21820040466264,161.0828126743436 60.795989541336894,156.03826799918897" stroke="#4dd2ff" stroke-linecap="round" stroke-linejoin="round" stroke-width="0.5"><title>2023-12-29 2.9km</title><desc>1703839119000</desc></polyline><polyline fill="none" points="79.98088272614405,140.56606437894516 78.24540719250217,144.4906210899353 79.86518435692415,159.73587289557327 86.80708649102598,161.24529151665047 90.39373592706397,156.4151441596914 89.81524408282712,141.16984330618288 87.50127670448273,138.6037804275984 82.75764357903972,138.0 78.59250229923055,142.37740009988192 79.63378761941567,160.03775679680984 87.15418159775436,161.24529151665047 90.62513266457245,157.3207985110348 89.69954571314156,140.71700914402027 82.75764357903972,138.0 78.70820066798478,142.22645557811484 78.82389903673902,158.07550986332353 84.26172237563878,162.0 90.97222777176648,157.77362538815942 89.69954571314156,140.86795388686005 82.17915173480287,138.0 78.59250229923055,144.33967687713448 78.70820066798478,157.77362538815942 80.21227946365252,160.49058248184156 85.07161095784977,161.69811667269096 90.85652940301225,157.92456763668451 90.50943429628387,141.77362187975086 83.45183379296213,138.45283535390627 78.24540719250217,144.18873264221475 79.05529577517882,158.83022066368721 85.88149954006076,162.0 90.50943429628387,157.3207985110348 90.62513266457245,142.37740009988192 87.50127670448273,139.0566155173583 83.22043705545366,138.90567050944082 78.36110556172207,144.18873264221475 79.1709941434674,159.43398890679237 86.92278486024588,161.69811667269096 91.20362450974062,156.11325919930823 90.50943429628387,141.47173263679724 87.15418159775436,138.7547254798701 82.52624684153125,138.45283535390627 78.12970882374793,144.94345359667204 79.2866925126873,159.58493091224227 86.69138812273741,161.84905834740493 91.08792614052072,156.71702903171536" stroke="#4dd2ff" stroke-linecap="round" stroke-linejoin="round" stroke-width="0.5"><title>2023-12-28 2.9km</title><desc>1703769423000</desc></polyline><polyline fill="none" points="111.13176695629954,143.62968067300972 108.0657590595074,142.29633807728533 109.76909677963704,157.11115722474642 113.85710730915889,161.1111212503165 119.87556725461036,159.62965493428055 122.37379591120407,156.37042141286656 122.26024006307125,145.40746806981042 118.51289707841352,138.88889902853407 113.74355146102607,138.59259943896905 109.65554093150422,141.111143186572 109.65554093150422,157.2593043219531 113.40288391709328,160.96297471621074 117.49089444568381,161.40741425403394 122.03312836727127,157.2593043219531 121.46534912707284,143.18523333605845 117.49089444568381,138.74074924446177 111.24532280350104,138.88889902853407 109.20131753990427,141.111143186572 109.42842923570424,155.77783237327822 112.72154882876202,161.1111212503165 118.05867368588224,161.25926776300184 120.78401403874159,158.88892096397467 121.35179327894002,143.925978789106 118.28578538261354,138.59259943896905 110.67754356376827,139.33334824990015 108.63353829924017,143.62968067300972 110.9046552600339,159.7778016636148 117.03667105361819,161.5555607228307 122.1466842154041,155.77783237327822 120.4433464948088,140.37039567506872 116.24178011761978,138.0 110.9046552600339,139.18519853090402 108.86064999550581,144.51857476157602 111.24532280350104,160.07409505650867 115.90111257322133,162.0 119.08067631814629,161.1111212503165 121.91957251913846,157.2593043219531 122.60090760746971,150.59266349149402" stroke="#4dd2ff" stroke-linecap="round" stroke-linejoin="round" stroke-width="0.5"><title>2023-11-08 2.1km</title><desc>1699431646000</desc></polyline><polyline fill="none" points="141.37311231112108,140.03638612036593 139.03179564885795,145.27278842777014 139.923725805711,158.5091268994729 146.27872817451134,161.5636415326735 151.63030911516398,159.38184632279444 152.74522181181237,157.0545928251231 151.63030911516398,141.34548928198637 148.6200448363088,138.4363688058802 144.1603940515779,138.14545629016357 139.812234536279,142.80004632880446 140.035217075143,157.7818601282197 146.39021944394335,161.5636415326735 152.41074800305068,157.34549980983138 152.076274194289,142.21822376537602 149.5119749926962,138.72728123608977 145.38679801719263,138.0 139.923725805711,143.8182349965209 140.035217075143,157.92731352511328 145.94425436481833,161.70909437630326 152.29925673315302,157.49095327069517 152.076274194289,142.65459071996156 149.28899245383218,138.87273741950048 146.167236904148,138.4363688058802 142.71100754570216,139.1636497224681 139.70074326684698,143.52732405497227 140.14670834504068,157.20004632807104 142.48802500683814,160.836376994499 147.28214960033074,161.4181886675069 150.84987022867426,160.10911192465574 152.9682043506764,155.6000566232833 152.076274194289,141.92731235583778 145.49828928662464,138.0 142.71100754570216,139.1636497224681 139.812234536279,144.69096731033642 140.36969088437036,157.34549980983138 142.48802500683814,160.836376994499 147.05916706146672,162.0 152.6337305419147,156.90913930052193 152.076274194289,142.65459071996156 146.94767579156905,138.4363688058802 140.2581996144727,142.50913508975646 140.2581996144727,158.6545801901375 145.832763095852,162.0 152.29925673315302,158.21822025475558 152.29925673315302,142.9455019166926 150.06943134125322,139.1636497224681 145.38679801719263,138.0 140.14670834504068,142.50913508975646 140.48118215380237,157.20004632807104" stroke="#4dd2ff" stroke-linecap="round" stroke-linejoin="round" stroke-width="0.5"><title>2023-10-27 2.9km</title><desc>1698413800000</desc></polyline><polyline fill="none" points="173.5438817590475,139.33334824978374 169.910095684696,142.74078580434434 171.72698872210458,159.48150818317663 179.3352283150889,161.11112125043292 183.08257020404562,155.4815377233317 182.28767949994653,141.11114318633918 178.65389342606068,138.0 173.99810501839966,138.0 171.15920964768156,139.92594690877013 170.25076312944293,145.11117038689554 171.6134329070337,159.33336141100153 178.99456087080762,161.70370717043988 181.71990042598918,160.51853498339187 183.4232376483269,155.6296850591898 181.8334562405944,141.11114318633918 174.67943990742788,138.88889902841765 170.36431894404814,143.48153158219066 171.27276546228677,158.88892096374184 177.97255853703246,162.0 183.08257020404562,157.25930432218593 181.9470120551996,141.40744203934446 175.4743306110613,138.44444961159024 170.36431894404814,142.74078580434434 171.38632127735764,159.03706780134235 175.4743306110613,161.85185359593015 179.4487841296941,161.40741425333545 183.08257020404562,156.66671580262482 182.4012353150174,142.1481887922855 178.88100505573675,138.5925994386198 172.86254686955363,139.18519853125326 170.0236514993012,144.07412781438325 172.4083236111328,160.51853498339187 177.74544690689072,161.70370717043988 182.174123685807,159.03706780134235 183.08257020404562,147.92599487514235 182.8554585739039,143.18523333617486 179.67589575890452,138.7407492439961 174.9065515366383,138.5925994386198 170.70498638832942,141.40744203934446 170.5914305737242,156.96301010565367 172.86254686955363,160.9629747159779 179.22167250001803,161.70370717043988 182.28767949994653,158.88892096374184 182.74190275929868,143.62968067254405 178.88100505573675,138.7407492439961 171.6134329070337,140.07409651915077 170.477874759119,155.92597966571338 173.5438817590475,161.2592677626526" stroke="#4dd2ff" stroke-linecap="round" stroke-linejoin="round" stroke-width="0.5"><title>2023-10-21 2.9km</title><desc>1697891041000</desc></polyline><polyline fill="none" points="16.94883117452264,164.66666666668607 17.38167877867818,183.1608370525646 20.952671511098742,188.3843171938206 28.852140283677727,186.40786857239436 28.852140283677727,169.6078919125721 26.687902263831347,166.7843377260724 22.684061927720904,165.93726985988906 17.38167877867818,169.7490694053704 18.139162085019052,186.12551843898837 22.359426224138588,188.52549194043968 26.796114165335894,187.6784431503038 28.960352184716612,184.85494181630202 29.284987887833267,171.72555213305168 24.740088046062738,166.0784478894202 17.706314481794834,168.902004140371 17.273466877639294,183.01966152107343 19.32949299644679,187.3960933884955 24.631876145023853,188.66666666668607 28.094656976871192,186.97256859153276 29.393199788872153,172.85496901796432 28.852140283677727,169.1843593112426 25.713995155412704,166.50198185344925 18.463797788135707,168.4784712292021 17.489890679717064,185.27846754319035 21.818366718944162,188.66666666668607 28.852140283677727,186.26669351611054 29.284987887833267,170.17260175931733 27.012537966948003,167.20787138078595 23.0086976303719,166.50198185344925 17.81452638283372,169.89024687738856 17.598102580290288,183.8667143988423 20.84445961052552,188.3843171938206 25.930418957024813,188.24314242665423 29.501411689911038,184.85494181630202 29.717835491988808,172.99614603549708 28.743928383104503,169.1843593112426 25.281147550791502,166.6431598001509 21.385519115719944,166.7843377260724 17.273466877639294,170.17260175931733 17.922738283406943,184.99611707933946 21.277307214215398,188.3843171938206 25.822207055985928,188.10196763835847 29.393199788872153,184.5725912291091 29.17677598632872,170.3137791690533 24.740088046062738,166.36080388590926 18.463797788135707,168.3372935510124 17.057043075095862,173.98438458138844 18.89664539275691,187.25491847720696 22.034790521487594,188.66666666668607 27.770021273754537,187.25491847720696 29.284987887833267,175.39615217701066" stroke="#4dd2ff" stroke-linecap="round" stroke-linejoin="round" stroke-width="0.5"><title>2023-10-16 3.1km</title><desc>1697460359000</desc></polyline><polyline fill="none" points="46.72058726847172,168.05320440145442 48.52633306244388,184.3967698525521 53.83071133168414,188.66666666668607 61.16655361885205,184.10229354311014 60.2636807220988,168.49492587486748 55.9750344613567,164.66666666668607 50.444937967695296,165.5501123914146 48.18775572581217,167.90596386708785 48.52633306244388,184.10229354311014 54.056429556105286,188.51942914671963 58.00649847975001,187.63600357616087 61.05369450710714,182.77714908326743 60.150821609888226,168.34768540534424 54.056429556105286,164.8139076748048 48.52633306244388,168.05320440145442 48.63919217418879,184.24953170865774 52.25068376213312,188.2249540425837 56.7650482468307,188.07771645847242 61.27941273152828,183.95505535573466 60.827976282685995,170.5562901882222 55.523598012980074,164.8139076748048 50.219219743739814,166.13907577720238 48.41347395023331,168.78940674941987 48.63919217418879,184.24953170865774 50.78351530479267,187.48876590532018 55.18502067727968,188.66666666668607 60.94083539489657,184.24953170865774 59.47366693709046,166.87527952471282" stroke="#4dd2ff" stroke-linecap="round" stroke-linejoin="round" stroke-width="0.5"><title>2023-10-12 1.8km</title><desc>1697101056000</desc></polyline><polyline fill="none" points="77.73904426814988,172.5654620648129 79.60193432541564,186.54010677884798 87.28635580884293,187.90718149230815 91.36142780818045,182.74266758013982 89.73139900853857,167.70467200514395 81.93054689653218,165.12236803374253 78.20476678293198,169.679370710277 79.25264243921265,185.93251744029112 86.47134140972048,188.3628726634197 91.01213592244312,184.2616449255729 90.42998278001323,169.83127045538276 85.77275763824582,165.42616883455776 82.04697752464563,165.42616883455776 78.6704892963171,168.6160718741594 78.43762803962454,183.19836101680994 81.58125501032919,188.21097562881187 89.49853775138035,187.1476957629202 91.59428906487301,182.74266758013982 90.66284403670579,169.0717715085484 87.28635580884293,165.57806920143776 82.04697752464563,165.27426844497677 78.43762803962454,169.2236713420134 78.78691992536187,184.56544012774248 81.46482438175008,187.90718149230815 85.42346575250849,188.3628726634197 90.77927466575056,185.1730302668875 91.244997180067,182.43887184397317 89.9642602656968,167.5527719494421 83.79343695286661,164.9704676005058 78.32119741104543,169.37557115382515 78.90335055440664,185.1730302668875 84.25915946718305,188.66666666662786 89.61496837995946,186.9957985500805 91.12856655148789,184.10974729107693 90.42998278001323,169.52747094340157 84.14272883860394,164.66666666662786 78.20476678293198,169.679370710277 79.71836495352909,186.38820947776549 86.58777203829959,188.05907857138664 90.31355215143412,185.78062005026732 91.244997180067,181.83128010632936 90.0806908942759,168.00847205054015 86.12204952398315,164.8185671448009 80.76624061074108,165.57806920143776 78.20476678293198,170.43886921252124 79.48550369683653,186.08441480842885 83.44414506712928,188.66666666662786 87.86850895173848,188.3628726634197 91.244997180067,180.00850276020356" stroke="#4dd2ff" stroke-linecap="round" stroke-linejoin="round" stroke-width="0.5"><title>2023-10-10 2.9km</title><desc>1696942258000</desc></polyline><polyline fill="none" points="114.48250506608747,186.0467751116521 116.16810823697597,185.06168347568018 119.84432848577853,185.52279104334593 120.42224957299186,186.17253100247763 119.60352803277783,187.32528818421997 120.10118230234366,188.66666666667152 123.23158819106175,187.6187158018438 124.06636309478199,186.50787950426457 124.9653514525271,183.82506947952788 125.1258850878803,177.2016668026481 123.39212182635674,174.162344573444 123.79345591471065,173.05140378062788 125.49511244916357,171.5841102652048 125.78407299268292,170.72468850224686 125.60748599388171,169.67660619337403 124.58007072779583,168.31408771080896 124.41953709244262,167.03540471415909 119.0095535821747,164.66666666667152 111.54473953973502,165.56804948522768 107.24243811314227,164.87629108484543 104.88259367394494,165.5261248289462" stroke="#4dd2ff" stroke-linecap="round" stroke-linejoin="round" stroke-width="0.5"><title>2023-10-07 3.0km</title><desc>1696669067000</desc></polyline><polyline fill="none" points="141.48668633773923,165.8592265918851 139.2014642301947,169.43689799623098 139.88703086227179,182.10771656723227 144.45747507736087,188.36853348626755 148.91365818679333,187.77226686512586 152.7985357698053,184.34372702380642 152.3414913485758,169.43689799623098 146.51417497452348,164.96480677847285 142.51503628585488,165.8592265918851 139.54424754623324,169.88410603930242 140.45833638915792,184.9399956507841 144.5717361830175,188.66666666662786 148.3423526599072,188.36853348626755 152.57001355895773,184.34372702380642 152.1129691367969,169.88410603930242 147.5425249231048,165.41201678314246 140.45833638915792,167.34992453630548 140.11555307311937,184.34372702380642 144.91451949859038,188.66666666662786 148.79939708206803,188.36853348626755 152.3414913485758,184.49279421311803 151.770185821224,168.84062030119821 146.7426971849054,164.8157367334934 139.42998644104227,168.54248132265639 140.57259749481454,184.79092852701433 146.39991386886686,188.07040021952707 152.45575245376676,184.34372702380642 151.88444692641497,168.69155082292855 145.82860834198073,164.66666666662786 139.54424754623324,168.2443422570359 140.0012919679284,184.19465981284156 144.22895286697894,188.07040021952707 150.17053034622222,187.17599989462178 152.22723024245352,183.89652532490436 152.1129691367969,169.58596736588515 147.5425249231048,164.96480677847285 139.88703086227179,168.09527269145474 140.34407528396696,184.9399956507841 145.60008613113314,188.66666666662786 151.0846191891469,186.72879943880253 152.45575245376676,184.04559257999063 151.88444692641497,168.84062030119821 146.62843607971445,164.8157367334934 142.74355849716812,165.26294680358842 139.65850865188986,168.84062030119821 140.11555307311937,184.34372702380642 143.6576473400928,188.21946686378215" stroke="#4dd2ff" stroke-linecap="round" stroke-linejoin="round" stroke-width="0.5"><title>2023-10-06 2.9km</title><desc>1696597953000</desc></polyline><polyline fill="none" points="171.05439121756353,166.3169713217767 170.97355289421102,166.17830490039523 170.65918163672177,165.8482339640741 170.5394211576786,165.121658543364 170.50648702593753,165.0611088071255 170.53642714570015,165.00837171637522 170.65768463073618,164.99079263984004 171.01846307384403,164.99274587170657 171.00049900198792,164.8696917059715 170.7130738522901,164.90680339919072 169.46606786426855,164.90875664334635 167.74301397205272,164.98102647621 167.5454091816282,165.00837171637522 167.2385229540887,165.1157989034673 166.1382235528872,165.64315619644822 165.69211576845555,165.8169842219104 165.47804391217505,165.97713837753327 165.6516966067793,167.00051714632627 165.7654690618656,169.0528973955852 165.80588822354184,171.51689938239542 165.78043912175053,171.79216774154975 165.79840319361392,173.2621219255807 165.72355289420375,173.42609085477125 165.79840319361392,173.63300115646962 165.81487025947717,175.5418903975742 165.787924151693,176.35962355345782 165.5259481037865,176.45915329163927 165.38972055888007,176.61722841171922 164.6831337325275,176.6055192076583 164.66666666666424,176.62893760552743 164.74301397205272,176.64064678908017 164.73552894211753,176.6855318976859 164.6816367265419,176.69919255301102 164.6936127744484,176.71870775068146 165.0738522954125,176.70699863549999 165.37924151696643,176.73041685561566 165.54391217564262,176.92361560650716 165.75349301396636,176.9743542095366 165.80588822354184,177.01338377315096 165.81636726546276,178.29934417627828 165.71157684630452,178.47691017455145 165.6516966067793,178.7637425758021 165.65918163672177,178.86325442038833 165.80289421157067,178.86910803524916 165.82834331336926,179.01349639062846 165.81786427144834,180.81821931778995 165.7310379241535,180.9898991925984 165.7265469061822,181.13621552847417 165.67864271457074,181.1986433446691 165.58732534929732,181.2493657307923 165.71007984031166,181.1849872847688 165.79241516965703,181.3078913219415 165.79540918163548,181.4054334048369 165.86726546905993,181.54589275464423 165.93463073852035,182.05309479488278 166.0573852295347,183.5667834732085 166.02744510977936,183.9685844360929 165.94810379241244,184.1343725791303 165.7310379241535,184.40938132185784 165.74600798403117,184.60246918938083 165.96606786426855,184.7253418362361 166.09630738522537,184.85796501434197 166.18612774450594,185.04909610596405 166.28942115768587,185.46255402538372 166.45409181636205,185.83309508022467 166.79540918163548,186.3440348657532 167.6142714570815,187.4809034094851 167.91217564869294,187.7831420914208 167.85828343313187,187.74024411341543 167.82235528941965,187.74999366594147 168.3747504990024,188.03467746874958 168.63672654690163,188.10877226008415 168.91816367264983,188.13996994425452 170.30888223552756,188.1555687590817 170.84930139720382,188.1302206757664 170.969061876247,188.21406415278398 171.11576846307435,188.44804317152375 171.24600798403117,188.46364162736154 171.32984031935484,188.27060945705216 171.469061876247,188.0580758682163 171.79690618762106,187.79094170901044 174.51696606785845,186.80620405284117 174.60978043912473,186.77890336294604 174.63073852295202,186.82765455583922 174.58882235529018,186.7652529971174 174.54091816367145,186.85495514629292 174.5693612774412,186.83155464359334 174.58582834330446,186.84910502445746 174.59930139719654,186.77500325984693 174.6501996007937,186.84910502445746 174.63073852295202,186.7808534140695 174.6816367265419,186.7496525619763 175.21457085828297,186.59364721049496 175.84930139719654,186.5643960046482 177.52445109780092,186.58779697443606 179.67714570858516,186.5624459219871 179.79540918163548,186.58779697443606 180.5828343313333,186.5643960046482 181.35229540918226,186.59169713209394 182.47804391217505,186.55854575580906 182.856786427139,186.43373983803212 183.44660678641958,186.32843393963685 184.87924151695915,186.20947627998703 186.0319361277434,186.22897760812975 186.30888223552756,186.20947627998703 186.60828343313187,186.12171995171138 186.9301397205636,185.9559564282872 187.2370259481031,185.70048156576286 187.195109780434,185.7180334298946 187.13373253493046,185.67707904444705 187.06786427144834,185.74143587959225 187.13972055888007,185.6731786202481 187.22804391216778,185.7102326042268 187.28343313373625,185.6809794675055 187.48103792414622,185.66927819490775 187.69660678642686,185.42549935561692 187.71606786426855,185.18951720922178 188.09031936127576,184.82090867043098 188.32984031936212,184.54200763150493 188.4181636726571,184.35086929675708 188.46606786426855,184.1402238878254 188.54241516965703,177.651500979493 188.57235528941965,177.46221556619457 188.57085828343406,177.00167491603042 188.64570858282968,176.80262277609472 188.66666666666424,176.560633830426 188.66217564869294,176.26204465946557 188.59780439121823,176.07469118651716 188.6007984031894,175.60044097335685 188.54091816367145,174.32007653839992 188.57085828343406,172.1806574083903" stroke="#ff0000" stroke-linecap="round" stroke-linejoin="round" stroke-width="0.5"><title>2023-09-14 39.1km</title><desc>1694696482000</desc></polyline><polyline fill="none" points="23.062803264707327,191.33333333331393 16.78650566423312,197.40397794172168 17.543989857658744,209.40397706319345 20.141078520100564,213.92158514336916 25.55167989898473,214.3451098173391 29.88016100274399,210.5333810650045 29.122676809318364,195.70984840299934 25.33525584405288,191.75686791707994 20.790350685361773,192.46275847632205 17.327565802726895,196.27455857931636 17.86862594028935,211.9451342097018 23.38743934733793,215.33333333331393 29.771948975510895,210.81573185918387 29.122676809318364,196.69809099519625 26.309164092876017,193.02747055265354 21.656046906020492,192.46275847632205 16.78650566423312,197.40397794172168 17.760413913056254,210.10985471931053 22.95459123700857,214.76863430504454 27.28307234076783,213.78041021106765 29.339100865181535,211.2392578952131 28.906252754386514,195.70984840299934 25.659891927149147,192.3215804058127 20.682138657663018,192.60393652674975 17.43577782995999,195.56867080699885 17.6522018853575,211.38043319957796 21.006774740759283,214.3451098173391 25.010619761422276,214.76863430504454 29.44731289241463,209.68632818758488 29.44731289241463,194.72160479874583" stroke="#4dd2ff" stroke-linecap="round" stroke-linejoin="round" stroke-width="0.5"><title>2023-09-11 1.8km</title><desc>1694438011000</desc></polyline><polyline fill="none" points="54.21917808218859,204.8703300805355 58.10958904097788,201.79639949960983 64.02739726006985,203.94100426902878 63.26027397252619,207.37235233010142 49.06849315064028,208.23018558183685 47.20547945215367,207.08640757823014 44.68493150686845,208.01572741006385 43.53424657555297,207.01492136425804 43.36986301350407,204.36992409385857 51.9178082193248,205.22776261469699 58.43835616437718,202.86870306055062 63.91780821909197,203.51208406797377 63.75342465750873,207.5153246432892 48.79452054784633,207.6582969146839 45.835616438416764,205.72816772310762 44.904109589289874,207.01492136425804 43.15068493154831,206.51451757297036 43.09589041094296,204.2984374826774 51.20547945192084,204.79884354243404 59.75342465750873,202.72572938830126 64.35616438346915,203.72654421551852 63.095890410710126,207.5153246432892 51.589041095925495,207.3008661576896 45.78082191781141,208.30167161824647 42.82191780838184,206.51451757297036 42.93150684935972,204.441410694737 55.64383561653085,204.15546422862099 61.45205479464494,202.79721622957732 64.3013698628638,203.79803091066424 63.31506849313155,207.44383849197766 48.90410958905704,207.6582969146839 45.39726027403958,208.51612966458197 43.53424657555297,207.58681078412337 42.0,205.01330312545178 42.43835616461001,204.2984374826774 46.876712328754365,204.58438386535272 52.630136986263096,203.44059733106405 57.17808219161816,204.22695086078602 63.698630136670545,203.44059733106405 63.698630136670545,197.86459965186077 66.0,198.00757474586135 63.36986301350407,197.5786493383057 62.986301369732246,207.37235233010142 51.479452054714784,207.1578937819868 44.63013698649593,209.08801732838037 42.767123287776485,205.51370845356723 43.09589041094296,204.6558704347699 52.410958904074505,203.51208406797377 57.342465753434226,204.2984374826774 60.79452054784633,203.5835707942024 63.97260273946449,204.36992409385857 63.53424657508731,207.80126914402354 48.79452054784633,207.5153246432892 48.08219178090803,208.51612966458197 44.520547945285216,209.08801732838037 43.479452054947615,208.15869953503716 43.09589041094296,204.36992409385857 50.82191780838184,202.3682950248185 53.945205479627475,203.44059733106405 57.17808219161816,203.2261370580527" stroke="#4dd2ff" stroke-linecap="round" stroke-linejoin="round" stroke-width="0.5"><title>2023-08-30 4.9km</title><desc>1693396264000</desc></polyline><polyline fill="none" points="75.98281884845346,193.1221726979129 78.95360889146104,196.25263403286226 80.89604853466153,211.30852804798633 84.89518897701055,214.88613353099208 92.77920870669186,210.41412471525837 92.8934698626399,194.016591203399 85.69501706585288,191.48240340023767 79.75343697937205,194.7619393580826 81.01030968967825,211.90479650057387 84.5524055105634,215.33333333337214 89.35137404222041,215.03520015336107 93.23625332908705,212.35199761088006 93.23625332908705,196.4017033802811 90.95103021897376,192.52589325851295 86.38058399874717,191.48240340023767 80.0962204458192,196.55077270593029 81.23883200157434,212.50106460391544 84.32388319959864,215.18426675419323 93.121992173139,211.15946088021155 93.00773101812229,196.1035646633245 90.83676906349137,192.67496315122116 86.26632284373045,191.63147344521713 81.92439893446863,192.97310287097935 79.98195929080248,196.1035646633245 80.66752622369677,211.4575951936422 86.49484515422955,215.03520015336107 93.121992173139,212.05386355903465 92.77920870669186,196.1035646633245 91.06529137445614,193.1221726979129 85.12371128844097,191.63147344521713 79.98195929080248,195.06007846747525 80.66752622369677,210.56319199164864 86.26632284373045,215.18426675419323 90.83676906349137,214.28986682242248 93.23625332908705,211.01039369101636 92.43642524024472,194.91100892378017 88.09450133191422,191.33333333337214 80.78178737917915,194.4638001616113 80.78178737917915,211.01039369101636 83.40979395573959,214.58800021989737 89.46563519723713,214.88613353099208 93.121992173139,210.86132647946943 93.00773101812229,197.89239565713797 89.23711288627237,191.92961347056553 81.01030968967825,194.16566087771207 80.55326506821439,209.81785539072007 84.09536088863388,214.43893353198655 89.80841866414994,214.88613353099208 92.77920870669186,212.50106460391544 93.35051448456943,200.57563626102637" stroke="#4dd2ff" stroke-linecap="round" stroke-linejoin="round" stroke-width="0.5"><title>2023-08-25 3.1km</title><desc>1692968645000</desc></polyline><polyline fill="none" points="119.20430107507855,199.16693342162762 118.81720430077985,202.61790555954212 127.01075268816203,202.9545846603578 127.33333333325572,207.49973324500024 103.33333333325572,207.4155641530524 103.72043010732159,203.37543325935258 117.91397849447094,203.37543325935258 125.01075268839486,201.94454676721944 126.94623655895703,202.78624513430987 127.07526881690137,207.07888766174437 118.94623655895703,207.1630568029359" stroke="#4dd2ff" stroke-linecap="round" stroke-linejoin="round" stroke-width="0.5"><title>2023-08-24 1.1km</title><desc>1692883156000</desc></polyline><polyline fill="none" points="146.30039552651579,215.33333333332848 146.37107682682108,214.98753795339144 146.54778007772984,215.12585619640595 146.03534065018175,200.6709434206714 145.61125284805894,198.0195795095351 146.30039552651579,197.51235698343953 145.6289231731207,196.88985437963856 145.85863739921479,194.3998193784646 145.45221992227016,191.33333333332848" stroke="#4dd2ff" stroke-linecap="round" stroke-linejoin="round" stroke-width="0.5"><title>2023-08-21 1.2km</title><desc>1692620048000</desc></polyline><polyline fill="none" points="177.1703012571088,206.91082712672505 176.84980651771184,207.59779514369438 177.0787313315086,215.33333333333576 176.95282268396113,205.73102344293147 176.66666666668607,203.81941385129903 176.74679035146255,201.6389404653819 176.23170952039072,191.99053353980707 176.51786553766578,191.46776099252747 176.99860764673213,191.33333333333576 176.4377418528311,191.39307898149855 176.16303207620513,191.88597924453643 176.18592455761973,195.17192017958587 176.67811290733516,201.23569713418692 176.52931177837308,203.34150586104806 176.83836027700454,205.2232556359013 177.1359625349869,215.31840042643307 176.88414523977553,208.49383343723457" stroke="#4dd2ff" stroke-linecap="round" stroke-linejoin="round" stroke-width="0.5"><title>2023-08-10 4.8km</title><desc>1691669615000</desc></polyline><polyline fill="none" points="24.937611408066005,229.12095943884924 27.055258467094973,226.69308955752058 34.178253119345754,226.69308955752058 34.88413547258824,231.46509989915648 12.039215686032549,232.55344756424893 11.333333333255723,228.9535204671556 19.418894830625504,226.10705045738723 24.61675579333678,227.61400693154428 34.30659536551684,227.27912805776577 35.33333333325572,230.7953464613529 22.114081996725872,232.38600959675387 12.552584670251235,231.96741446317174 11.397504456108436,231.6325381359784 11.333333333255723,230.12559224007418 12.809269162127748,227.69772661919706 20.12477718363516,228.36748368106782 29.17290552589111,226.69308955752058 34.75579322618432,227.19540830887854 34.370766488602385,231.38138076214818 17.878787878900766,232.63716652977746 11.718360071070492,231.88369539985433 11.718360071070492,228.70236191805452 13.515151515370235,227.86516595835565 26.285204991232604,228.5349228240666 28.274509804090485,227.44656751910225 34.948306595440954,227.5302872316097 34.948306595440954,231.46509989915648 20.8948306592647,231.7999763242551 16.274509803857654,233.72551196691347 12.231729055289179,232.2185715798405 11.461675578961149,229.70699545374373 12.295900178141892,228.869800963148 20.70231729070656,228.45120325876633 21.857397504383698,227.36284779472044 26.349376113852486,228.869800963148 35.140819964464754,227.86516595835565 34.948306595440954,231.54881902376655 16.659536541905254,232.4697285866132 11.84670231724158,231.2976616131491 11.782531194156036,228.70236191805452 13.194295900175348,227.69772661919706 26.862745098304003,228.70236191805452 35.33333333325572,227.9488856093376 34.81996434926987,231.71625723631587 19.93226381484419,232.2185715798405 17.686274509876966,233.5580743420287 12.745098039275035,232.55344756424893 11.975044563179836,230.46046944858972 12.873440284980461,228.45120325876633 26.60606060596183,229.03723995923065 35.07664884161204,227.78144629462622 35.26916221040301,231.7999763242551 22.819964349502698,231.71625723631587 19.675579322734848,232.2185715798405 18.392156862653792,233.89294954261277" stroke="#4dd2ff" stroke-linecap="round" stroke-linejoin="round" stroke-width="0.5"><title>2023-08-08 4.7km</title><desc>1691498421000</desc></polyline><polyline fill="none" points="55.71061021531932,218.0 55.888126369798556,225.85307192670007 56.84025847079465,226.16887014948588 56.79184497409733,226.6320396233641 51.15974152920535,226.4636145325203 51.805254817940295,227.87416858352663 52.06346013350412,237.41083565799636 52.49918160343077,240.67378863361955 52.96717873791931,242.0" stroke="#4dd2ff" stroke-linecap="round" stroke-linejoin="round" stroke-width="0.5"><title>2023-08-04 1.6km</title><desc>1691107871000</desc></polyline><polyline fill="none" points="84.16404886567034,228.27872284449404 90.94938917993568,226.72135927242925 95.7870855149813,227.54102484986652 96.35253054113127,232.1311299315421 86.86561954650097,231.5573688520817 72.98080279259011,232.78685616049916 73.04363001743332,230.00001438969048 74.86561954650097,227.9508571890765 79.70331588154659,227.2951253024512 84.41535776644014,228.11479004094144 91.13787085516378,225.98365922790254 96.2268760909792,227.78692428936483 96.54101221659221,232.04916409921134 72.98080279259011,232.70489042374538 73.04363001743332,229.7541159215034 74.99127399688587,227.9508571890765 80.89703315892257,226.88529248390114 83.7870855149813,227.86889074509963 95.7242582901381,227.86889074509963 96.66666666674428,232.1311299315421 73.73472949420102,233.11471898725722 72.66666666674428,231.3934370073839 73.79755671927705,229.34428490063874 80.58289703330956,227.3770918303053 95.66143106482923,227.78692428936483 96.16404886567034,231.96719825471519 73.86038394435309,233.11471898725722 73.29493891797028,229.59018354915315 78.06980802793987,228.19675644871313 88.18499127402902,229.01641986856703 96.35253054113127,228.11479004094144 96.41535776644014,231.72130064910743 74.86561954650097,233.03275329846656 72.79232111712918,231.80326652963413 73.48342059366405,229.67214974120725 79.13787085516378,227.9508571890765 96.28970331605524,228.52462196047418 96.35253054113127,231.63933475670638 82.46771378745325,232.29506156092975 78.5095986041706,234.01634077203926 75.55671902280301,233.5245472509996 73.92321116942912,232.70489042374538 73.48342059366405,230.00001438969048 78.13263525324874,227.86889074509963 88.12216404895298,229.426251128898 95.97556719044223,228.27872284449404 96.47818499151617,232.04916409921134 82.78184991306625,231.72130064910743 78.32111692870967,233.11471898725722" stroke="#4dd2ff" stroke-linecap="round" stroke-linejoin="round" stroke-width="0.5"><title>2023-07-26 4.8km</title><desc>1690377436000</desc></polyline><polyline fill="none" points="111.33333333325572,228.66407477058237 124.77333333319984,226.66016252106056 127.26933333347552,227.16114124265732 126.75733333360404,231.5864341937122 111.0773333334364,231.75342570926296 105.25333333341405,233.75732008274645 103.58933333330788,232.00391289044637 103.90933333337307,228.74757096159738 109.41333333356306,226.66016252106056 113.31733333342709,227.99610480235424 126.75733333360404,227.2446376538719 126.62933333334513,231.1689551921445 104.80533333332278,233.08935607306194 103.33333333325572,231.33594682934927 103.8453333331272,228.9145633072476 109.02933333348483,226.40967299544718 112.80533333355561,226.24267991725355 115.68533333344385,227.99610480235424 121.31733333342709,226.40967299544718 126.88533333339728,227.32813405245543 126.94933333341032,231.66992995754117 103.71733333333395,231.75342570926296 103.71733333333395,228.74757096159738 104.80533333332278,228.24659363203682 118.3733333335258,227.91260850126855 123.36533333314583,226.40967299544718 127.14133333344944,227.32813405245543 126.82133333315141,231.50293841789244 103.71733333333395,231.92041717545362 103.8453333331272,228.66407477058237 106.46933333342895,227.57862317509716 117.86133333365433,227.7456158627174 123.36533333314583,226.24267991725355 127.33333333325572,227.32813405245543 126.82133333315141,231.66992995754117 104.10133333341219,232.42139128176495 104.54933333350345,228.4135861241375 115.4293333333917,227.91260850126855 122.02133333357051,226.32617646252038 127.0773333334364,227.41163043887354 127.01333333342336,231.5864341937122 103.71733333333395,231.5864341937122 104.03733333339915,228.4135861241375 112.2933333334513,229.58253220107872 122.53333333344199,226.32617646252038 127.20533333346248,227.2446376538719 127.14133333344944,231.66992995754117 104.74133333307691,232.17090428364463" stroke="#4dd2ff" stroke-linecap="round" stroke-linejoin="round" stroke-width="0.5"><title>2023-07-24 4.9km</title><desc>1690201802000</desc></polyline><polyline fill="none" points="148.7472972209216,218.27482997611514 148.71218799130293,218.0 147.7115749459481,218.57256190595217 147.57113802735694,219.39704737298598 147.9573395535699,224.50418007578992 148.88773413951276,224.93930924360757 148.92284336924786,225.30573286823346 144.7975088841049,225.48894435910915 142.56807280075736,225.23702850389236 143.28781200875528,226.03857754569617 143.46335815708153,227.0920357619034 143.67401353508467,236.8705380145111 144.6746265803231,242.0 144.02510583162075,239.5039881409175 144.7975088841049,238.8170054199436 144.14798813540256,218.75578127372137 148.60686030227225,218.45804969219898 149.15105336200213,218.34353739475773 149.23882643616525,218.02290251644445 149.43192719930084,218.4122447832633" stroke="#4dd2ff" stroke-linecap="round" stroke-linejoin="round" stroke-width="0.5"><title>2023-07-24 3.0km</title><desc>1690157385000</desc></polyline><polyline fill="none" points="176.82791711005848,234.26110085963592 177.27711477369303,242.0 176.95461388700642,231.66130103024625 176.7127382218605,230.51917163605685 176.9315781093901,229.54234037020797 176.75880977715133,229.0614354122663 176.2750584470341,219.0671197278716 176.56300566735445,218.31562811628828 177.10434644151246,218.07514963947324 176.62059511145344,218.03005986238713 176.22898689180147,218.6462851027245 176.22898689180147,221.862620258682 176.67818455543602,228.9862938091901 176.78184555476764,228.14470410039212 176.18291533651063,218.97694102478272 176.39023733517388,218.37574764755118 176.9315781093901,218.0601197159558 176.52845200092997,218.0 176.09077222604537,218.78155356311618 176.0562185596209,221.75741462705628 176.4938983345055,229.22674674544396" stroke="#4dd2ff" stroke-linecap="round" stroke-linejoin="round" stroke-width="0.5"><title>2023-07-22 4.9km</title><desc>1690030226000</desc></polyline><polyline fill="none" points="20.472973144147545,254.6179560312885 16.322646595072,252.1301429673913 18.117382400203496,265.0081672645756 21.594683022238314,267.64228818245465 27.20323241269216,266.4715686305426 30.007507108151913,261.64233600214357 28.997968217823654,249.34963869431522 26.866719449404627,245.69106867047958 23.052905863616616,244.66666666668607 17.22001449810341,247.59352675225819 18.341724375728518,263.9837850352633 20.585144131910056,267.34960842272267 23.838102778419852,268.2276474448154 30.344020071439445,262.95940175745636 29.67099414486438,252.2764850835083 25.296325620263815,244.81300987419672 20.360802156385034,245.2520393684972 16.771330546587706,248.76426838967018 17.668698448687792,263.5447637590114 22.716392900329083,268.08130766113754 29.446652168873698,264.4228061194299 29.222310192883015,249.34963869431522 22.4920509243384,245.54472559079295 16.995672522112727,249.4959812174202 17.893040425144136,265.30084770941176 22.4920509243384,268.66666666668607 30.119678095448762,263.69110420608195 29.55882315663621,252.4228271782631" stroke="#4dd2ff" stroke-linecap="round" stroke-linejoin="round" stroke-width="0.5"><title>2023-07-18 1.7km</title><desc>1689685608000</desc></polyline></svg>