<?xml version="1.0" encoding="utf-8" ?>
<svg baseProfile="full" height="300mm" version="1.1" viewBox="0,0,200,300" width="200mm" xmlns="http://www.w3.org/2000/svg" xmlns:ev="http://www.w3.org/2001/xml-events" xmlns:xlink="http://www.w3.org/1999/xlink"><defs /><rect fill="#222222" height="300" width="200" x="0" y="0" /><text fill="#FFFFFF" style="font-size:12px; font-family:Arial; font-weight:bold;" x="10" y="20">Over 10km Runs</text><text fill="#FFFFFF" style="font-size:4px; font-family:Arial" x="10" y="280">ATHLETE</text><text fill="#FFFFFF" style="font-size:9px; font-family:Arial" x="10" y="290">Yunlong</text><text fill="#FFFFFF" style="font-size:4px; font-family:Arial" x="120" y="280">STATISTICS</text><text fill="#FFFFFF" style="font-size:3px; font-family:Arial" x="120" y="285">Number: 37</text><text fill="#FFFFFF" style="font-size:3px; font-family:Arial" x="120" y="290">Weekly: 1.9</text><text fill="#FFFFFF" style="font-size:3px; font-family:Arial" x="141" y="285">Total: 175.5 km</text><text fill="#FFFFFF" style="font-size:3px; font-family:Arial" x="141" y="290">Avg: 4.7 km</text><text fill="#FFFFFF" style="font-size:3px; font-family:Arial" x="167" y="285">Min: 1.1 km</text><text fill="#FFFFFF" style="font-size:3px; font-family:Arial" x="167" y="290">Max: 39.1 km</text><polyline fill="none" points="33.17520891362801,55.454916798495105 31.91169916430954,57.08433109683392 31.279944289650302,58.43888936055009 30.42256267409539,57.830321398272645 29.82089136482682,57.79105885431636 28.647632311971392,55.84754856022482 26.571866295242216,54.748176730645355 26.075487465190236,53.805850846882095 24.466016713064164,52.66719823672611 21.382451253419276,49.604567383474205 19.77298050140962,48.70147057407303 18.0281337047345,46.89525871023943 15.501114206039347,44.735625635570614 15.305571030592546,44.93195735226618 14.688857938628644,44.205528564736596 13.515598885715008,43.49872921065253 13.079387186618987,42.615224779205164 12.282172701903619,42.16365359969495 11.6955431754468,40.789297174691455 11.951253481849562,40.04321207368048 11.5,38.49212713052111 11.981337047298439,36.68577774746518 13.124512534821406,35.782593930722214 13.711142061220016,34.7223269049573 16.49387186631793,31.620015971828252 17.065459609963,31.561110639435356 17.125626740860753,31.875272113029496 17.411420612828806,31.83600196907355 18.735097493045032,32.81775211704371 19.231476323097013,33.583512242446886 20.615320334210992,34.604518940104754 21.081615598814096,34.64378827322798 21.75849582173396,36.13601440966886 23.127298050094396,36.45016516442411 24.601392757613212,36.29308987900731 25.57910863502184,36.90175558492774 25.84986072423635,37.922737016444444 25.624233983224258,38.25651772142737 22.661002785433084,41.3979424721183 21.397493036231026,43.55762929908815 21.8938718662248,43.75396274049126 22.75125348183792,42.9882606936153 24.481058495817706,40.61259318386146 25.57910863502184,39.4738285458734 26.030362116987817,39.37565872776031 31.806406685209367,44.08772893108835 32.93454038997879,45.50131770520238 34.72451253479812,46.83636008766189 35.581894150411244,46.93452444419381 35.79247910861159,47.58240739502071 36.55961002787808,48.03396032789897 36.80027855158551,48.56404226558516 38.5,49.36897749771015 38.24428969359724,50.58618745241256 34.84484679665184,54.159223829206894" stroke="#4dd2ff" stroke-linecap="round" stroke-linejoin="round" stroke-width="0.5"><title>2024-08-09 5.2km</title><desc>1723159591000</desc></polyline><polyline fill="none" points="71.14698572165798,55.363511272575124 71.32950784778222,55.74068780467496 70.34084633161547,56.236971117177745 69.61075782740954,57.16997882806754 69.54991711874027,57.686107995716156 68.65251666563563,58.5 67.08586841705255,56.336227561710984 66.55351221602177,56.276673703687266 65.77779318031389,55.363511272575124 64.63702989253215,54.84737326564209 64.16551440017065,54.4106395716517 64.2111449316726,53.91434957571619 63.87652103387518,54.11286579203443 50.658877072215546,42.77712437052105 49.70063591044163,41.38738858627039 49.36601201270241,40.3351505890314 49.077018646523356,37.77400888623379 49.229120418138336,36.3445134118665 50.6132465407718,35.37165370672301 52.65141028165817,32.6515803460934 54.035536404233426,31.5 54.583102782431524,31.519854916390614 58.26396565785399,34.71645854317467 59.16136611090042,35.07383811577165 59.35909841413377,35.92757439297566 62.142560836451594,37.59532277606195 62.461974557023495,38.270357956615044 66.8881361138192,42.00284476217348 67.00981753115775,42.34035180165665 63.40500554163009,46.56904527434381 63.19206306122942,46.9859515739372 63.435425896022934,47.28374100319343 64.10467369150138,47.045509512070566 65.76258300314657,44.78228947255411 67.80074674409116,42.91609716558014 75.92298135347664,49.963816439470975 74.75179771118565,51.79020787151239 72.94178662786726,53.53716796422668" stroke="#4dd2ff" stroke-linecap="round" stroke-linejoin="round" stroke-width="0.5"><title>2024-08-08 4.9km</title><desc>1723122982000</desc></polyline><polyline fill="none" points="113.4269192913489,43.97718026632356 113.46013779529312,43.95550234961411 113.46345964567445,44.016200476387894 113.5,43.87746171811341 113.45349409450137,43.80375648844347 113.19106791338709,43.9858514285479 112.82898622048378,43.6390029588656 112.74261811023462,43.62599606222466 112.63631889765384,43.72571545709798 112.52337598426675,43.64333858979808 112.44365157482389,43.66935236212157 111.7460629921261,44.50178101246456 110.73289862203819,45.47291820264218 107.30142716536648,49.50886601677121 107.10875984252198,49.61723512291428 102.25553641733131,45.49893036807771 101.2357283464662,44.83994846887617 101.05302657482389,44.549471528638605 100.97662401576235,44.211300755663615 100.07640255906153,43.76473599846577 99.64456200788845,43.87746171811341 99.20275590551319,43.881797314141295 98.32246555118763,43.76473599846577 97.39899114174477,43.756064771492674 89.51624015749258,44.06822734319394 88.99138779527857,44.03787834867035 88.63262795277114,43.83410572287539 88.22071850394423,44.07256291129488 86.6328740157478,44.14193191470804 86.58304625985329,44.102911870282696 86.5,42.277583452865656 86.51660925196484,41.56216276771556 91.67876476379752,41.341029241093565 91.79835137796181,41.3497011752097 92.87463090551319,41.852669008841985 93.36958661417884,42.008760737542616 98.71776574803516,42.03477594566175 99.2459399606305,41.93505085706056 100.45177165354835,41.393060807688016 100.97994586615823,41.406068685042555 101.47157972441346,41.28899758309126 101.48818897639285,41.19360597264313 103.16904527560109,40.469486910174965 103.37500000001455,40.51284783147821 103.73375984253653,40.43913422747755 105.36146653543983,40.38276487708754 105.37807578741922,40.508511742202245 105.45115649607033,40.534528268315626 108.6002706693107,40.43479812741316 108.6600639763783,40.62558592971982 108.68331692914944,41.3497011752097 108.77300688976538,41.679232789794696 108.96567421260988,42.01309660714469 111.74938484252198,44.41073526835862 111.92212106300576,44.28934050751923 112.08821358268324,44.34570242263726 112.66621555118763,43.73872230992856 113.15784940945741,44.10724743330866" stroke="#4dd2ff" stroke-linecap="round" stroke-linejoin="round" stroke-width="0.5"><title>2024-07-21 16.7km</title><desc>1721568012000</desc></polyline><polyline fill="none" points="125.98353388218675,46.67436205971171 124.7865737809334,45.580715543212136 124.42748575046426,44.44242206035415 124.44458518049214,42.36668853271112 124.0,41.3622911945713 124.13679544016486,39.50971874357492 125.50474984169705,38.683865937491646 127.3856871437165,35.84914794439101 128.8391386953881,34.666139805165585 129.1298290057457,33.88490298129909 129.81380620639538,33.817939638742246 131.848638378724,35.20184274150233 132.07093096891185,35.84914794439101 135.52501583273988,38.59458428506332 135.71310956293019,39.15259375491587 136.70487650408177,39.44275787194783 138.7055098163546,41.58549117493385 139.50918302719947,41.853330720055965 144.3312222925597,46.31725385579921 147.8024065864738,49.01786388960318 148.62317922734655,50.06684827477147 151.0,51.71842608237057 150.93160227988847,52.23175067496777 149.34135528816842,53.77171408235154 147.97340088663623,56.1820603612432" stroke="#4dd2ff" stroke-linecap="round" stroke-linejoin="round" stroke-width="0.5"><title>2024-07-16 2.5km</title><desc>1721136594000</desc></polyline><polyline fill="none" points="185.09446461926564,42.048632651305525 183.73267822878552,43.59310542929961 182.68606510775862,45.0211206335116 181.6037719939486,45.75839603874192 180.64041218932834,46.79832497290408 179.63542572647566,46.0765854153251 172.9097470905981,40.3023152679707 172.80865377778537,39.85214412885034 172.70161379946512,36.1031566953061 172.6659338067111,33.61144696160409 172.77297378500225,31.99681861638237 173.9623068771325,31.67078192459303 175.44897324225167,31.5 175.65115986790624,36.39035558557953 175.7819865080237,36.964748698497715 176.10310644292622,37.647802677987784 181.25291873174137,42.02534879786981 183.423451624898,44.07428876162885 182.6265984531492,45.09872905365046 181.6156653248472,45.75063529839463 180.61662552747293,46.813846145803836 180.72961217124248,46.93801536554747 180.66419885118376,47.09322648135276 181.46699868835276,47.8227126404272 181.44321202646825,47.93911907781876 180.15278562155436,49.48342029947162 179.7603057011729,50.15855293702771 178.6780125873338,51.44671320591078 177.6373461317562,52.471011088357045 176.8107596327318,52.998671974099125 175.90686648272094,53.22370222562677 174.84241336528794,54.47299074109105 174.84241336528794,54.923037779171864 176.0198531264905,55.95502777613365 176.42422637779964,56.1567678353058 176.98915959653095,56.05589790164595 177.6135594698717,55.35756233049324 177.98225272848504,54.83768432402212 177.9049460774695,54.32556070855571 176.45990637055365,53.16162501023791 175.91875981364865,53.239221518106206 174.84836003073724,54.480750205122604 174.82457336891093,55.1247817635558 174.65212007053196,55.73776839277707 174.12881351003307,56.65335548121948 172.8859604287427,58.274992132512125 172.59457382117398,58.5 169.12172119220486,55.63689766227253 165.2801753047097,51.93558511753872 164.90553538070526,51.45447311272801 165.21476198465098,51.563111688854406 168.1464680567151,47.58213852677727 169.32390781785944,45.23842392365623 169.42500113073038,44.84262083615249 170.19806764059467,44.36920541989821 172.52321383566596,43.58534437203343 173.1773470363114,43.158484472631244 174.41425345212338,41.82355497306344 175.5500665550935,40.20141517257434 177.0961995748512,38.4860841704176 181.2826520590752,42.03311008349556 183.3937182975642,44.00443983915102 184.56521139331744,42.6229644661762 184.91606465546647,42.110722877165244 184.86849133175565,42.00206493418227" stroke="#4dd2ff" stroke-linecap="round" stroke-linejoin="round" stroke-width="0.5"><title>2024-07-06 16.1km</title><desc>1720267100000</desc></polyline><polyline fill="none" points="16.312978896312416,72.66674423438963 18.229233551304787,71.33340739167761 21.29524099966511,87.00001678068656 29.599011172540486,87.50001140637323 33.17601986275986,82.33338969573379 31.004264587070793,64.5000315879006 24.61674906872213,62.333342900150456 18.61248448258266,67.50005527865142 20.017737896647304,84.66670562699437 24.23349813837558,88.33333529520314 29.85451179370284,87.50001140637323 33.303770173341036,81.16672993882094 31.770766449160874,65.166704201838 24.61674906872213,62.16667436843272 20.14548820676282,65.66670840629376 19.123485723976046,69.6667341440916 20.656489448156208,84.83337086765096 26.022002483252436,88.00000581308268 30.365513035096228,86.83335185656324 33.43152048345655,80.00006898795255 32.920519242063165,67.83339075685944 30.365513035096228,63.16668519063387 21.29524099966511,63.50002193625551 18.867985103279352,69.16673169471323 20.273238516878337,85.16670127620455 24.105747828260064,87.833341035177 30.493263345677406,87.33334655570798 33.303770173341036,84.00004441977944 32.79276893194765,68.00005845958367 28.577008690219373,62.16667436843272 25.0,61.5 19.76223727595061,65.33337229397148 19.37898634467274,82.66672083549201 21.039740378968418,86.000026871101 26.405253414064646,88.5 33.303770173341036,84.16670975787565 32.66501862090081,67.50005527865142 26.27750310394913,61.833337233169004 21.933992552105337,63.33335357543547 18.99573541386053,67.33338750316761 20.14548820676282,84.16670975787565 22.955995034892112,87.16668168001343 28.449258380103856,88.16667056630831 33.55927079403773,83.33338282222394 32.154017379973084,65.00003608502448 24.61674906872213,62.000005812966265 18.99573541386053,67.83339075685944 20.273238516878337,84.66670562699437 26.022002483252436,88.16667056630831 31.13201489718631,87.16668168001343 33.687021103687584,79.66673706821166" stroke="#4dd2ff" stroke-linecap="round" stroke-linejoin="round" stroke-width="0.5"><title>2024-02-29 2.9km</title><desc>1709196138000</desc></polyline><polyline fill="none" points="50.55535122239962,61.5 60.39212080324069,67.33338750316761 60.00887004099786,82.83338636858389 65.1188802132383,88.33333529508673 71.76189343677834,86.83335185598116 74.31689852289855,83.16671736212447 73.2948964885436,66.3333803373389 68.05713606160134,61.833337233169004 62.819375636056066,62.333342899917625 59.37011876935139,65.66670840617735 60.64762131264433,84.33337507175747 66.39638275606558,88.33333529508673 73.80589750595391,85.16670127632096 73.4226467423141,66.3333803373389 68.05713606160134,62.16667436878197 59.8811197867617,64.83336794318166 60.39212080324069,82.83338636858389 63.07487614406273,87.33334655524231 69.84563962183893,88.5 73.93364775972441,85.00003608386032 74.1891482686624,73.1667451482499 70.86764165665954,63.000016781152226 61.28637258382514,63.50002193602268 59.37011876935139,68.66672902554274 61.79737360123545,86.50002193532418 70.48439089395106,88.5 73.55039699701592,86.00002687051892 74.44464877760038,81.16672993893735 72.27289445372298,64.83336794318166 69.33463860535994,62.50001140648965 62.308374618180096,63.000016781152226 59.497869023587555,68.00005845935084 61.414122838526964,85.66669670608826" stroke="#4dd2ff" stroke-linecap="round" stroke-linejoin="round" stroke-width="0.5"><title>2024-02-26 2.1km</title><desc>1708947688000</desc></polyline><polyline fill="none" points="95.49268657295033,72.26694831845816 91.81065588677302,78.06449348235037 94.34998739464208,85.68407914135605 98.9207841088064,88.5 106.15787890693173,86.84357681323308 107.42754466086626,67.79453605914023 101.07921589072794,61.5 94.47695396933705,64.64727240230422 93.71515451744199,81.54300633713137 97.52415177971125,87.17486164462753 102.22191506950185,87.67178870958742 107.68147781165317,84.52458028239198 107.55451123602688,67.62889082136098 101.71404876746237,61.66564613406081 93.9690876682289,65.80679160903674 93.84212109260261,82.53686519083567 96.25448602577671,87.00921924074646 99.55561698554084,88.00307329848874 107.30057808570564,84.85586579178926 107.42754466086626,67.79453605914023 106.15787890693173,64.4816267042188 100.4443830139935,61.66564613406081 93.84212109260261,67.29760027374141 94.2230208190158,84.19329467555508 99.42865041084588,88.00307329848874 105.01517972862348,86.67793436127249 108.18934411276132,81.70864954008721 107.30057808570564,65.97243711340707 104.507313426584,62.32823042757809 100.19044986274093,61.5 94.47695396933705,65.3098549512215 93.71515451744199,82.03993587312289 98.53988438239321,88.00307329848874 103.99944712501019,87.50614637858234 107.68147781165317,84.19329467555508 107.93541096244007,68.78840697626583 106.66574520803988,65.1442093505757 101.96798191871494,62.32823042757809 96.50841917656362,63.322106140782125 94.60392054542899,65.97243711340707 93.9690876682289,84.35893749108072 98.41291780676693,88.16871555661783 106.66574520803988,85.35279387363698 107.30057808570564,68.1258264615899 105.01517972862348,63.81904367066454 101.07921589072794,62.32823042757809 93.58818794228137,66.46937347960193 93.84212109260261,83.53072317270562 96.38145260093734,87.8374310163781 105.26911287894472,86.84357681323308 107.55451123602688,83.19943727517966 107.68147781165317,73.4264597252477" stroke="#4dd2ff" stroke-linecap="round" stroke-linejoin="round" stroke-width="0.5"><title>2024-01-18 3.0km</title><desc>1705581243000</desc></polyline><polyline fill="none" points="134.30624317470938,64.83336794329807 130.72923553083092,66.1667123909574 130.60148525843397,84.16670975799207 133.66749180993065,87.50001140625682 138.77750272955745,88.33333529555239 143.88751364918426,85.0000360844424 143.88751364918426,67.00005187850911 141.58800873486325,62.833348347223364 137.62775027239695,61.5 132.26223880704492,63.66669027204625 129.96273389318958,67.33338750293478 130.21823443938047,82.66672083549201 136.09474699618295,88.00000581273343 143.63201310299337,84.66670562652871 143.75976337585598,66.83338402933441 138.39425191050395,61.83333723281976 133.53974153706804,63.00001678126864 130.34598471224308,67.00005187850911 130.85698580369353,83.33338282257318 133.53974153706804,87.50001140625682 137.37224972667173,88.5 143.88751364918426,84.50004036154132 144.27076446823776,67.66672302980442 139.67175464099273,62.000005812966265 133.92299235565588,62.666679889312945 130.98473607655615,65.83337642531842 130.85698580369353,83.33338282257318 136.8612486347556,88.5 144.39851474110037,85.0000360844424 143.50426283013076,66.83338402933441 138.26650163717568,62.666679889312945 130.85698580369353,65.66670840571169 130.98473607655615,84.16670975799207 137.75550054572523,88.5 143.88751364918426,85.33336644410156 144.0152639215812,67.16671970312018 139.16075354861096,62.000005812966265 133.41199126420543,62.833348347223364 130.21823443938047,67.33338750293478 130.47373498557135,82.00005845841952 135.71149617806077,88.00000581273343 143.63201310299337,85.50003158731852 144.0152639215812,66.83338402933441 138.01100109145045,61.5 130.60148525843397,66.33338033745531 130.85698580369353,82.50005527795292 132.90099017182365,86.16669191711117 137.24449945334345,87.66667623317335 142.48226064629853,87.0000167802209 145.03726610634476,83.16671736259013 143.37651255680248,65.33337229420431 139.54400436766446,62.000005812966265 134.17849290184677,62.16667436843272 130.85698580369353,65.33337229420431 130.60148525843397,79.16673900594469" stroke="#4dd2ff" stroke-linecap="round" stroke-linejoin="round" stroke-width="0.5"><title>2024-01-17 3.3km</title><desc>1705483266000</desc></polyline><polyline fill="none" points="168.6221255492419,76.95290702185594 165.6284293779172,79.50006975582801 170.70469679823145,86.12266671471298 176.82224984373897,87.99057184869889 182.9398028878495,85.78304727654904 183.85092781018466,69.48119743622374 180.33658882649615,63.02831864915788 175.00000000046566,61.83962653996423 169.9237325801514,65.06607371894643 169.53325047064573,81.87741659942549 174.34919648524374,87.31133396551013 183.5906064035371,85.27361793338787 183.3302849973552,68.46232422208413 178.51433898322284,61.66981328232214 169.01260765828192,66.76420021243393 169.14276836114004,79.83969103102572 172.91742875101045,87.82076241495088 182.54932077927515,86.63209568534512 183.85092781018466,69.14157313096803 180.59691023314372,62.5188793229172 173.43807156337425,62.68869245657697 169.01260765828192,66.93401272536721 169.53325047064573,83.40570842847228 175.65080351568758,88.5 183.20012429496273,86.46228605299257 183.72076710686088,67.4434501142241 179.0349817960523,61.5 173.04758945386857,62.349066164926626 170.31421468919143,65.74532461480703 169.66341117350385,83.40570842847228 171.09517890727147,86.46228605299257 177.34289265563712,88.5 184.37157062254846,83.7453285624506" stroke="#4dd2ff" stroke-linecap="round" stroke-linejoin="round" stroke-width="0.5"><title>2024-01-13 2.0km</title><desc>1705132259000</desc></polyline><polyline fill="none" points="17.045142046175897,99.26256470545195 18.467962167225778,113.94379430869594 20.796213276684284,117.31876321486197 25.711410061456263,118.5 32.82551067043096,113.10005053936038 32.308121534995735,96.39379687560722 25.840757344849408,91.83750389900524 19.114698586519808,95.7187916438561 19.114698586519808,113.60629687458277 24.54728450672701,117.82500769919716 32.9548579538241,113.77504560397938 32.69616338657215,96.39379687560722 28.427703021094203,92.17500769952312 23.64185352018103,92.006255811546 18.338614883832633,97.74380615423433 18.72665673494339,112.42505507986061 21.960338830482215,117.99375581101049 24.80597907397896,118.5 31.143995981197804,116.30627357913181 32.82551067043096,112.76255285891239 32.17877425206825,95.88754298910499 25.711410061456263,91.83750389900524 22.219033398665488,92.006255811546 18.72665673494339,96.22504560498055 18.985351303126663,113.94379430869594 25.45271549327299,118.5 32.69616338657215,113.26879934268072 31.790732400026172,95.38128887990024 25.582062777131796,91.5 18.72665673494339,96.05629430920817 19.761435005348176,112.5938039815519 25.45271549327299,117.48751140071545" stroke="#4dd2ff" stroke-linecap="round" stroke-linejoin="round" stroke-width="0.5"><title>2024-01-11 2.0km</title><desc>1704963338000</desc></polyline><polyline fill="none" points="59.58281276514754,98.10645157343242 57.71140963351354,101.26604313729331 57.93157470738515,114.04792344977614 62.444958731066436,118.35638494248269 67.17850782861933,117.78192450263305 69.60032364632934,114.47877044946654 68.82974588591605,98.82454145798692 65.63735230918974,95.5213236414711 58.81223500473425,95.95217876986135 54.95934620453045,92.79257010918809 56.060171575751156,91.5 55.84000650187954,95.37770522356732 59.47273022774607,95.95217876986135 57.60132709611207,98.96815937163774 58.04165724478662,112.61176541814348 60.24330798815936,117.3510789515567 65.30710469698533,118.5 69.04991096025333,116.3457719310536 69.82048872020096,101.12242555926787 64.97685708617792,95.5213236414711 61.12396828504279,96.09579710348044 57.821492170449346,99.82986641401658 58.151739781722426,114.04792344977614 62.55504126800224,118.21276986418525 66.51801260607317,118.06915476452559 69.49024110892788,114.47877044946654 68.93982842331752,98.68092352291569 62.99537141667679,95.09046832495369 58.37190485652536,99.5426308172755 58.70215246779844,114.90961726062233 63.215536491479725,118.06915476452559 67.72892051469535,117.06384847918525 70.04065379500389,113.61707626050338 69.2700760345906,98.53730556712253 66.29784753127024,95.09046832495369 63.43570156535134,94.80323134205537 58.37190485652536,98.82454145798692 58.48198739299551,113.47346048912732 62.99537141667679,117.63830933981808 67.17850782861933,117.2074637261685 69.82048872020096,113.7606920110411 69.49024110892788,98.96815937163774 68.05916812596843,95.80856041470543 64.75669201090932,94.65961281914497 58.151739781722426,98.39368759014178 58.04165724478662,113.18622888275422 60.79372067376971,116.63300261320546" stroke="#4dd2ff" stroke-linecap="round" stroke-linejoin="round" stroke-width="0.5"><title>2024-01-09 2.6km</title><desc>1704792913000</desc></polyline><polyline fill="none" points="89.58673413656652,101.06969162542373 94.69512871094048,97.48106644977815 95.7430045218207,115.25319755601231 100.19647671468556,118.1582317459397 105.04290233645588,117.98734758188948 109.23440557718277,114.74054371356033 109.88932795869187,110.29753432807047 109.49637452978641,97.31017926183995 105.8288091942668,92.18355200090446 99.54155433317646,91.84177605004515 95.7430045218207,94.9177560058888 95.7430045218207,113.03169594914652 101.37533700093627,118.5 108.84145214874297,116.79115773225203 109.75834348192438,98.33550201519392 105.8288091942668,92.18355200090446 99.54155433317646,92.18355200090446 96.13595794979483,95.77219344524201 96.13595794979483,112.17727112979628 99.93450776254758,117.47469493933022 106.74570052837953,117.64557917835191 109.75834348192438,115.25319755601231 109.75834348192438,97.82284075079951 106.74570052837953,92.69621573900804 101.50632147677243,91.5 98.62466299906373,91.84177605004515 95.87398899765685,95.94308085832745 96.00497347395867,114.05700490798336 102.292228335049,117.98734758188948 110.15129691082984,114.9114283528179 109.88932795869187,98.67727606592234 105.43585576536134,91.84177605004515 99.8035232857801,91.67088803753722 95.4810355687514,96.96840481087565 96.26694242609665,114.9114283528179 102.94715071609244,118.32911588542629 110.15129691082984,114.22788964677602 109.23440557718277,95.25953105615918 104.91191786015406,91.84177605004515 99.8035232857801,92.0126640376402 95.7430045218207,95.4304185443325 95.7430045218207,112.68992609635461 100.851399095729,117.81646339292638 109.88932795869187,114.74054371356033 110.41326586343348,99.18993695557583 106.74570052837953,92.0126640376402 98.62466299906373,92.52532785164658 95.7430045218207,99.18993695557583 96.92186480760574,116.27850456547458 106.22176262317225,117.47469493933022" stroke="#4dd2ff" stroke-linecap="round" stroke-linejoin="round" stroke-width="0.5"><title>2024-01-08 3.0km</title><desc>1704701613000</desc></polyline><polyline fill="none" points="130.1181492912583,96.48730782361235 130.90906186727807,114.88857094454579 137.89545628754422,117.98408224270679 143.9591193702072,113.168838925194 143.30002555716783,96.14335623942316 138.55455010058358,92.01592937600799 131.04088062932715,94.93952490098309 130.38178681628779,112.4809454131173 135.39089979743585,118.15605485334527 140.7954690665938,117.8121096061077 144.22275689523667,113.85673203435726 143.4318443192169,97.17521069175564 138.42273133806884,91.84395294240676 133.41361835738644,92.53185852686875 130.51360557880253,95.62742867390625 130.24996805377305,113.68475879484322 136.1818123734556,118.32802743907087 140.26819401606917,118.15605485334527 144.4863944207318,114.20067843887955 144.09093813225627,97.69113757787272 137.89545628754422,91.5 133.01816206937656,92.53185852686875 130.1181492912583,96.31533204414882 130.24996805377305,112.9968655849807 134.99544350942597,118.15605485334527 140.66365030407906,117.98408224270679 144.09093813225627,114.88857094454579 144.4863944207318,99.5828675593948 139.345462677069,91.67197648389265 133.01816206937656,92.70383485953789 130.38178681628779,95.4554527682485 131.3045181548223,116.43632761226036 140.00455649057403,118.15605485334527 145.01366947125643,112.65291882900055 142.77275050617754,94.59557286347263 134.73180598393083,91.67197648389265 129.85451176576316,96.83125930826645 130.64542434131727,115.06054400838912 137.49999999953434,118.5 144.61821318324655,113.51278553029988 142.77275050617754,94.76754889450967 135.39089979743585,91.67197648389265 129.9863305282779,99.06694150273688 130.38178681628779,114.02870524919126 133.80907464539632,118.15605485334527 138.55455010058358,118.5 142.24547545565292,117.46816425863653 145.14548823423684,111.79305149905849" stroke="#4dd2ff" stroke-linecap="round" stroke-linejoin="round" stroke-width="0.5"><title>2023-12-29 2.9km</title><desc>1703839119000</desc></polyline><polyline fill="none" points="169.72849306697026,94.38682242622599 167.7760830912739,98.80194872617722 169.5983324018307,115.95285700750537 177.40797230228782,117.65095295628998 181.44295291788876,112.21703717962373 180.7921495931223,95.0660737195285 178.1889362926595,92.17925298109185 172.8523490265943,91.5 168.16656508669257,96.42457511241082 169.33801107201725,116.29247639642563 177.79845429770648,117.65095295628998 181.7032742477022,113.2358983248705 180.6619889275171,94.55663528700825 172.8523490265943,91.5 168.29672575136647,96.25476252532098 168.42688641650602,114.08494859619532 174.54443767247722,118.5 182.09375624312088,113.74532856163569 180.6619889275171,94.72644812276121 172.20154570182785,91.5 168.16656508669257,98.63213648681995 168.29672575136647,113.74532856163569 169.9888143967837,116.8019052920863 175.45556232752278,118.16038125671912 181.96359557844698,113.91513859131373 181.57311358302832,95.74532461480703 173.63331301696599,92.0094397731591 167.7760830912739,98.4623242225498 168.6872077472508,114.93399824667722 176.36668698256835,118.5 181.57311358302832,113.2358983248705 181.7032742477022,96.42457511241082 178.1889362926595,92.68869245704263 173.37299168715253,92.51887932315003 167.90624375687912,98.4623242225498 168.81736841145903,115.61323752021417 177.53813296789303,118.16038125671912 182.3540775734,111.87741659930907 181.57311358302832,95.40569921641145 177.79845429770648,92.34906616492663 172.59202769678086,92.0094397731591 167.6459224266,99.31138529616874 168.94752907659858,115.78304727631621 177.27781163807958,118.33019064075779 182.22391690779477,112.55665766075253" stroke="#4dd2ff" stroke-linecap="round" stroke-linejoin="round" stroke-width="0.5"><title>2023-12-28 2.9km</title><desc>1703769423000</desc></polyline><polyline fill="none" points="20.273237825836986,127.83339075697586 16.823978941887617,126.33338033687323 18.740233877208084,143.0000518776942 23.33924572262913,147.50001140648965 30.1100131617859,145.83336180110928 32.920520400162786,142.16672408941668 32.79277007095516,129.83340157847852 28.577009213156998,122.50001140707172 23.211495393887162,122.16667436878197 18.612483548000455,125.00003608490806 18.612483548000455,143.16671736212447 22.828244406729937,147.33334655570798 27.42725625168532,147.83334103564266 32.53726941300556,143.16671736212447 31.8985177683644,127.33338750293478 27.42725625168532,122.33334289991762 20.400988154113293,122.50001140707172 18.101482232566923,125.00003608490806 18.35698289005086,141.5000614199089 22.061742432415485,147.50001140648965 28.066007896326482,147.66667623328976 31.13201579404995,145.00003608432598 31.77076743869111,128.16672613762785 28.3215085552074,122.16667436878197 19.76223650947213,123.00001678115223 17.46273058699444,127.83339075697586 20.01773716742173,146.00002687145025 26.916254935786128,148.0000058131991 32.66501974267885,141.5000614199089 30.748764806892723,124.166695134365 26.022002632264048,121.5 20.01773716742173,122.83334834722336 17.718231245409697,128.83339660661295 20.400988154113293,146.33335693844128 25.638751645106822,148.5 29.21576085779816,147.50001140648965 32.40951908426359,143.16671736212447 33.176021058578044,135.66674642788712" stroke="#4dd2ff" stroke-linecap="round" stroke-linejoin="round" stroke-width="0.5"><title>2023-11-08 2.1km</title><desc>1699431646000</desc></polyline><polyline fill="none" points="57.29475135030225,123.79093438549899 54.660770105198026,129.6818869812414 55.664191531948745,144.5727677618852 62.813569196499884,148.00909672433045 68.83409775514156,145.5545771131292 70.08837453881279,142.93641692830715 68.83409775514156,125.26367544219829 65.44755044113845,121.99091490660794 60.43044330831617,121.66363832645584 55.53876385372132,126.90005211986136 55.78961920971051,143.75459264428355 62.93899687472731,148.00909672433045 69.71209150366485,143.2636872860603 69.33580846851692,126.24550173606258 66.4509718674235,122.31819139060099 61.810147769749165,121.5 55.664191531948745,128.04551437112968 55.78961920971051,143.918227715767 62.43728616088629,148.17273117334116 69.58666382497177,143.42732242960483 69.33580846851692,126.73641456000041 66.20011651096866,122.48182959691621 62.6881415178068,121.99091490660794 58.799883489497006,122.80910593783483 55.413336175493896,127.71823956188746 55.915046888403594,143.1000521191163 58.54902813304216,147.19092411885504 63.94241830101237,147.84546225098893 67.95610400754958,146.3727509152377 70.33922989526764,141.3000637012301 69.33580846851692,125.91822640039027 61.93557544751093,121.5 58.799883489497006,122.80910593783483 55.53876385372132,129.02733822411392 56.165902245324105,143.2636872860603 58.54902813304216,147.19092411885504 63.69156294455752,148.5 69.9629468601197,142.7727817130508 69.33580846851692,126.73641456000041 63.56613526586443,121.99091490660794 56.04047456663102,126.57277697592508 56.04047456663102,144.7364027139265 62.311858483124524,148.5 69.58666382497177,144.24549778655637 69.58666382497177,127.06368965632282 67.07811025902629,122.80910593783483 61.810147769749165,121.5 55.915046888403594,126.57277697592508 56.29132992355153,143.1000521191163" stroke="#4dd2ff" stroke-linecap="round" stroke-linejoin="round" stroke-width="0.5"><title>2023-10-27 2.9km</title><desc>1698413800000</desc></polyline><polyline fill="none" points="96.48686697892845,123.00001678103581 92.39885764522478,126.83338402980007 94.44286231184378,145.66669670597184 103.00213185418397,147.50001140672248 107.2178914793767,141.16672993870452 106.3236394370906,125.00003608467523 102.2356301038526,121.5 96.99786814535037,121.5 93.80411085346714,123.6666902723955 92.78210852015764,129.50006668525748 94.31511201988906,145.50003158731852 102.61888097925112,148.16667056665756 105.68488797917962,146.833351856214 107.60114235430956,141.33339569158852 105.81263827066869,125.00003608467523 97.76436989568174,122.5000114068389 92.9098588116467,127.66672302992083 93.9318611449562,145.00003608420957 101.46912835398689,148.5 107.2178914793767,143.16671736247372 105.94038856215775,125.33337229420431 98.65862193750218,122.00000581296626 92.9098588116467,126.83338402980007 94.05961143691093,145.16670127643738 98.65862193750218,148.33333529543597 103.12988214567304,147.83334103494417 107.2178914793767,142.5000552778365 106.45138972904533,126.16671239130665 102.49113068729639,122.16667436831631 95.72036522813141,122.83334834768903 92.52660793671384,128.3333937911084 95.20936406217515,146.833351856214 101.21362777007744,148.16667056665756 106.1958891460672,145.16670127643738 107.2178914793767,132.66674423450604 106.96239089500159,127.33338750316761 103.38538272865117,122.33334289945196 98.01987047865987,122.16667436831631 93.29310968704522,125.33337229420431 93.16535939509049,142.83338636881672 95.72036522813141,147.33334655535873 102.87438156269491,148.16667056665756 106.3236394370906,145.00003608420957 106.83464060397819,127.8333907565102 102.49113068729639,122.33334289945196 94.31511201988906,123.83335858397186 93.03760910360143,141.66672712389845 96.48686697892845,147.66667623294052" stroke="#4dd2ff" stroke-linecap="round" stroke-linejoin="round" stroke-width="0.5"><title>2023-10-21 2.9km</title><desc>1697891041000</desc></polyline><polyline fill="none" points="130.31743507133797,121.5 130.80438862601295,142.30594168405514 134.82175545021892,148.18235684302635 143.70865781931207,145.9588521438418 143.70865781931207,127.0588784016436 141.27389004686847,123.8823799417587 136.7695696684532,122.92942859232426 130.80438862601295,127.21770308096893 131.65655734576285,145.64120824378915 136.4043545019813,148.34117843292188 141.39562843600288,147.38824854406994 143.83039620751515,144.21180954331066 144.1956113735214,129.44124614959583 139.08259905176237,123.08825387549587 131.1696037920192,126.26475465786643 130.6826502373442,142.1471192111494 132.99567962111905,147.0706050619483 138.96086066309363,148.5 142.8564890990965,146.59413966536522 144.3173497626558,130.71184014517348 143.70865781931207,126.58240422513336 140.17824454978108,123.56472958507948 132.0217725117691,125.78828013280872 130.9261270146817,144.68827598600183 135.79566255863756,148.5 143.70865781931207,145.80003020563163 144.1956113735214,127.69417697924655 141.6391052128747,124.35885530337691 137.13478483399376,123.56472958507948 131.29134218022227,127.3765277370112 131.04786540288478,143.10005369863939 134.70001706155017,148.18235684302635 140.42172132665291,148.02353522996418 144.43908815085888,144.21180954331066 144.68256492866203,130.87066428991966 143.58691943064332,126.58240422513336 139.69129099464044,123.72355477511883 135.3087090048939,123.8823799417587 130.6826502373442,127.69417697924655 131.41308056889102,144.37063171423506 135.1869706157595,148.18235684302635 140.29998293798417,147.86471359303687 144.3173497626558,143.89416513266042 144.07387298485264,127.8530015652068 139.08259905176237,123.40590437164064 132.0217725117691,125.62945524486713 130.43917345954105,131.98243265401106 132.50872606644407,146.911783286836 136.03913933690637,148.5 142.49127393309027,146.911783286836 144.1956113735214,133.57067119912244" stroke="#4dd2ff" stroke-linecap="round" stroke-linejoin="round" stroke-width="0.5"><title>2023-10-16 3.1km</title><desc>1697460359000</desc></polyline><polyline fill="none" points="166.81066067703068,125.30985495168716 168.842124695424,143.6963660841575 174.80955024808645,148.5 183.06237282138318,143.36508023599163 182.04664081288502,125.80679160915315 177.22191376937553,121.5 171.00055521400645,122.49387644033413 168.4612251915969,125.14420935045928 168.842124695424,143.36508023599163 175.06348325079307,148.33435779006686 179.5073107900098,147.34050402313005 182.93540632072836,141.87429271859583 181.91967431129888,125.6411460810341 175.06348325079307,121.66564613406081 168.842124695424,125.30985495168716 168.9690911960788,143.53072317223996 173.03201923239976,148.00307329790667 178.11067927768454,147.83743101579603 183.18933932296932,143.19943727517966 182.68147331802174,128.1258264617063 176.71404776489362,121.66564613406081 170.7466222117655,123.15646024933085 168.7151581943035,126.13808259309735 168.9690911960788,143.53072317223996 171.38145471783355,147.17486164346337 176.33314826199785,148.5 182.80843981960788,143.53072317223996 181.15787530411035,123.98468946525827" stroke="#4dd2ff" stroke-linecap="round" stroke-linejoin="round" stroke-width="0.5"><title>2023-10-12 1.8km</title><desc>1697101056000</desc></polyline><polyline fill="none" points="17.20642480161041,160.38614482281264 19.30217611603439,176.10762012621854 27.947150284890085,177.64557917881757 32.53160628443584,171.83550102752633 30.697823884896934,154.9177560057724 21.92186525836587,152.01266403798945 17.730362630449235,157.13929204898886 18.90922274440527,175.4240821202984 27.030259085819125,178.15823174640536 32.13865291280672,173.54435054119676 31.48373062768951,157.3101792621892 26.24435234302655,152.35443993890658 22.052849715109915,152.35443993890658 18.254300458356738,155.94308085832745 17.992331544402987,172.34815614379477 21.52891188673675,177.98734758235514 30.43585497047752,176.79115773318335 32.79357519838959,171.83550102752633 31.745699541643262,156.45574294694234 27.947150284890085,152.52532785153016 22.052849715109915,152.1835520005552 17.992331544402987,156.62663025967777 18.385284916032106,173.88612014369573 21.397927429527044,177.64557917881757 25.85139897139743,178.15823174640536 31.876683998852968,174.5696590502048 32.40062182722613,171.4937308243243 30.959792798850685,154.74686844309326 24.017616571858525,151.84177605051082 17.86134708765894,156.79751754796598 18.516269373241812,174.5696590502048 24.54155440023169,178.5 30.566839427221566,176.62027336878236 32.26963737048209,173.37346570240334 31.48373062768951,156.9684048112249 24.410569943487644,151.5 17.730362630449235,157.13929204898886 19.433160572778434,175.93673566239886 27.16124354302883,177.81646339269355 31.352746170014143,175.25319755647797 32.40062182722613,170.81019011954777 31.09077725606039,155.25953105674125 26.637305714190006,151.67088803788647 20.612020686734468,152.52532785153016 17.730362630449235,157.99372786399908 19.171191658824682,175.5949666594388 23.624663200695068,178.5 28.602072570938617,178.15823174640536 32.40062182722613,168.75956560508348" stroke="#4dd2ff" stroke-linecap="round" stroke-linejoin="round" stroke-width="0.5"><title>2023-10-10 2.9km</title><desc>1696942258000</desc></polyline><polyline fill="none" points="61.54281819937751,175.55262200058496 63.439121766597964,174.44439391013293 67.57486954657361,174.96313992375508 68.22503076959401,175.69409737778187 67.30396903690416,176.99094920723292 67.86383009015117,178.5 71.38553671492264,177.32105527706153 72.32465848163702,176.07136444227945 73.33602038410027,173.05320316445432 73.5166207238799,165.60187515296275 71.56613705470227,162.1826376451063 72.01763790403493,160.9328292532009 73.93200150527991,159.2821240483463 74.25708211679012,158.31527456500044 74.05842174310237,157.13618196752213 72.90257956879213,155.60334867464553 72.7219792290125,154.1648303034017 66.63574777997565,151.5 58.2378319822019,152.51405567086476 53.397742877248675,151.73582747044566 50.742917883209884,152.46689043255174" stroke="#4dd2ff" stroke-linecap="round" stroke-linejoin="round" stroke-width="0.5"><title>2023-10-07 3.0km</title><desc>1696669067000</desc></polyline><polyline fill="none" points="94.92252212995663,152.84162991598714 92.3516472587362,156.86651024583261 93.12290972005576,171.12118113820907 98.26465946203098,178.16460017219651 103.2778654601425,177.49380022333935 107.6483527412638,173.63669290184043 107.13417776674032,156.86651024583261 100.57844684645534,151.83540762588382 96.07941582193598,152.84162991598714 92.73727848939598,157.36961929430254 93.76562843751162,174.3074951072922 98.39320320589468,178.5 102.63514674268663,178.16460017219651 107.3912652535364,173.63669290184043 106.87709027901292,157.36961929430254 101.73534053843468,152.33851888112258 93.76562843751162,154.51866510347463 93.3799972073175,173.63669290184043 98.7788344360888,178.5 103.14932171721011,178.16460017219651 107.13417776674032,173.80439348972868 106.4914590488188,156.1956978389062 100.83553433278576,151.66770382528193 92.60873474599794,155.86029148800299 93.89417218137532,174.13979459297843 100.44990310212597,177.82920024706982 107.26272151013836,173.63669290184043 106.62000279221684,156.02799467591103 99.80718438467011,151.5 92.73727848939598,155.5248850391945 93.25145346391946,173.46899228950497 98.0075719752349,177.82920024706982 104.69184663938358,176.82299988158047 107.00563402287662,173.13359099067748 106.87709027901292,157.0342132867081 101.73534053843468,151.83540762588382 93.12290972005576,155.3571817780612 93.63708469411358,174.3074951072922 99.55009689740837,178.5 105.72019658749923,176.31989936868194 107.26272151013836,173.30129165260587 106.62000279221684,156.1956978389062 100.70699058938771,151.66770382528193 96.33650330919772,152.17081515409518 92.86582223325968,156.1956978389062 93.3799972073175,173.63669290184043 97.36485325777903,177.99690022179857" stroke="#4dd2ff" stroke-linecap="round" stroke-linejoin="round" stroke-width="0.5"><title>2023-10-06 2.9km</title><desc>1696597953000</desc></polyline><polyline fill="none" points="131.1861901197626,153.3565927369982 131.09524700598558,153.2005930129444 130.74157934131654,152.8292632095836 130.6068488023884,152.0118658612846 130.569797904187,151.94374740801595 130.60348053891357,151.8844181809227 130.73989520958276,151.8646417198197 131.14577095807908,151.8668391056699 131.1255613772446,151.72840316921884 130.80220808383456,151.7701538240899 129.39932634730212,151.77235122376533 127.46089071856113,151.85365478573658 127.2385853293381,151.8844181809227 126.89333832334523,152.00527376640093 125.65550149699993,152.59855072100527 125.15363023951795,152.79410724964964 124.91279940120148,152.97428067472538 125.10815868263307,154.12558178961808 125.23615269460424,156.4345095700337 125.28162425148912,159.20651180519508 125.25299401197844,159.5161887092445 125.27320359281293,161.1698871662784 125.18899700598558,161.35435221161788 125.27320359281293,161.58712630102855 125.29172904191364,163.73462669727087 125.26141467065463,164.65457649763994 124.96669161676255,164.76654745309406 124.81343562874099,164.94438196318515 124.01852544910071,164.9312091086158 124.0,164.95755480621847 124.08589071856113,164.97072763771484 124.07747005987767,165.02122338489698 124.01684131736693,165.03659162213808 124.03031437125173,165.05854621951676 124.45808383233816,165.04537346493726 124.80164670658269,165.0717189625684 124.98690119759704,165.28906755732078 125.22267964071216,165.34614848572983 125.28162425148912,165.3900567447954 125.29341317364742,166.8367621983134 125.1755239520935,167.03652394637083 125.10815868263307,167.35921039777713 125.11657934130926,167.47116122293664 125.27825598802156,167.47774653965553 125.30688622753951,167.64018343945736 125.29509730538848,169.67049673251404 125.19741766467632,169.86363659167364 125.19236526946042,170.02824246953332 125.13847305389208,170.0984737627523 125.03574101795675,170.15553644714146 125.17383982035244,170.08311069536558 125.26646706586325,170.2213777371844 125.2698353293381,170.3311125804421 125.3506736526906,170.48912934897453 125.42645958084177,171.05973164424358 125.56455838323018,172.76263140735955 125.5308757485036,173.21465749060553 125.44161676646036,173.40116915152248 125.19741766467632,173.71055398709086 125.21425898203597,173.92777783805377 125.46182634730212,174.06600956576585 125.60834580838127,174.21521064113495 125.70939371257555,174.43023311921024 125.82559880239569,174.8953732785576 126.01085329341004,175.31223196525298 126.3948353293381,175.88703922397326 127.31605538921576,177.16601633567097 127.6511976047841,177.50603485284864 127.59056886227336,177.4577746275927 127.5501497005971,177.4687428741845 128.17159431137407,177.78901215234418 128.46631736526615,177.8723687925949 128.78293413173378,177.90746618728735 130.34749251497124,177.9250148539668 130.9554640718561,177.89649826023742 131.09019461077696,177.99082217188243 131.2552395209641,178.25404856796376 131.40175898203597,178.27159683078207 131.4960703592733,178.0544356391838 131.65269461077696,177.81533535174367 132.02151946107915,177.51480942263697 135.0815868263453,176.40697955944597 135.18600299401442,176.3762662833151 135.20958083832375,176.43111137531923 135.1624251497051,176.36090962175786 135.10853293412947,176.46182453958045 135.14053143712226,176.43549897404228 135.15905688622297,176.4552431525144 135.17421407184884,176.37187866732802 135.23147455089202,176.4552431525144 135.20958083832375,176.37846009082932 135.26684131736693,176.34335913222367 135.86639221556834,176.16785311180683 136.58046407184884,176.13494550522955 138.46500748503604,176.16127159624102 140.8867889221583,176.13275166223593 141.0198353293381,176.16127159624102 141.9056886227554,176.13494550522955 142.77133233533095,176.16565927360534 144.03779940120148,176.12836397528554 144.46388473053958,175.9879573177859 145.12743263472657,175.86948818209112 146.7391467065827,175.73566081498575 148.03592814371223,175.7575998091461 148.34749251497124,175.73566081498575 148.68431886227336,175.63693494567542 149.04640718563314,175.45045098182345 149.39165419161873,175.16304176148424 149.34449850298552,175.18278760863177 149.27544910179859,175.13671392500328 149.20134730538848,175.2091153645424 149.282185628741,175.13232594777946 149.3815494011942,175.17401167975459 149.44386227545328,175.1411019009438 149.66616766466177,175.12793796927144 149.90868263473385,174.85368677506995 149.93057634730212,174.58820686037507 150.35160928143887,174.17352225423474 150.62107035928784,173.85975858544407 150.72043413174106,173.64472795885195 150.77432634730212,173.40775187380405 150.86021706586325,166.10793860192916 150.89389970060438,165.89499251196867 150.89221556886332,165.3768842805348 150.97642215569067,165.15295062310724 151.0,164.8807130592295 150.9949476047841,164.54480024189888 150.92252994012233,164.33402758483226 150.9258982035899,163.80049609502657 150.85853293412947,162.36008610570025 150.89221556886332,159.95323958443896" stroke="#ff0000" stroke-linecap="round" stroke-linejoin="round" stroke-width="0.5"><title>2023-09-14 39.1km</title><desc>1694696482000</desc></polyline><polyline fill="none" points="174.69565367279574,151.5 167.63481887197122,158.3294751845533 168.48698858963326,171.82947419618722 171.40871333470568,176.91178328637034 177.4956398862414,177.38824854465201 182.36518112802878,173.10005369817372 181.51301141036674,156.42357945349067 177.25216282438487,151.97647640679497 172.13914452074096,152.770603285986 168.24351152777672,157.05887840176 168.8522041826509,174.68827598600183 175.06086926534772,178.5 182.24344259686768,173.4176983416546 181.51301141036674,157.535352369654 178.34780960390344,153.40590437175706 173.11305276909843,152.770603285986 167.63481887197122,158.3294751845533 168.7304656514898,172.62358655931894 174.57391514163464,177.8647135932697 179.44345638295636,176.7529614875093 181.7564884731546,173.89416513219476 181.2695343485102,156.42357945349067 177.61737841786817,152.6117779565975 172.01740598957986,152.9294285926735 168.36525005847216,156.26475465798285 168.60872712079436,174.05298734956887 172.38262158306316,177.38824854465201 176.88694723136723,177.8647135932697 181.87822700385004,172.1471192111494 181.87822700385004,155.3118053986691" stroke="#4dd2ff" stroke-linecap="round" stroke-linejoin="round" stroke-width="0.5"><title>2023-09-11 1.8km</title><desc>1694438011000</desc></polyline><polyline fill="none" points="25.24657534249127,196.72912134061335 29.623287671245635,193.27094943705015 36.28082191757858,195.68362980266102 35.41780821909197,199.5438963713823 19.452054794644937,200.50895877956646 17.35616438370198,199.22220852551982 14.520547945285216,200.26769333635457 13.226027397438884,199.14178653480485 13.041095890337601,196.16616460564546 22.657534246798605,197.1312329415232 29.993150684982538,194.47729094314855 36.157534246565774,195.20109457644867 35.97260273969732,199.70474022370763 19.14383561629802,199.86558402900118 15.815068493131548,197.69418868847424 14.767123288009316,199.14178653480485 12.794520547846332,198.57883226958802 12.732876712456346,196.08574216801208 21.85616438346915,196.64869898522738 31.472602739697322,194.31644556182437 36.65068493131548,195.4423622424947 35.232876712223515,199.70474022370763 22.2876712330617,199.46347442740807 15.753424657741562,200.58938057057094 12.42465753434226,198.57883226958802 12.547945205587894,196.2465870315791 26.849315068451688,195.92489725718042 33.38356164377183,194.39686825824901 36.589041095692664,195.52278477448272 35.479452054714784,199.62431830348214 19.267123287776485,199.86558402900118 15.32191780838184,200.83064587268746 13.226027397438884,199.78516213217517 11.5,196.88996601616964 11.993150685215369,196.08574216801208 16.986301369965076,196.4074318485218 23.458904109429568,195.12067199742887 28.57534246565774,196.0053197183879 35.910958903841674,195.12067199742887 35.910958903841674,188.847674608347 38.5,189.0085215891013 35.5410958903376,188.52598050562665 35.10958904097788,199.5438963713823 22.164383561583236,199.30263050476788 14.458904109662399,201.47401949443156 12.363013698952273,197.4529220102704 12.732876712456346,196.4878542391234 23.21232876717113,195.20109457644867 28.760273972526193,196.08574216801208 32.64383561629802,195.28151714347769 36.21917808195576,196.16616460564546 35.72602739697322,200.02642778703012 19.14383561629802,199.70474022370763 18.342465753667057,200.83064587268746 14.335616438416764,201.47401949443156 13.164383561816067,200.42853697692044 12.732876712456346,196.16616460564546 21.42465753434226,193.91433190292446 24.938356164610013,195.12067199742887 28.57534246565774,194.87940419034567" stroke="#4dd2ff" stroke-linecap="round" stroke-linejoin="round" stroke-width="0.5"><title>2023-08-30 4.9km</title><desc>1693396264000</desc></polyline><polyline fill="none" points="52.73067120462656,183.51244428521022 56.0728100030683,187.03421328705736 58.25805460149422,203.97209405410103 62.75708759948611,207.99690022249706 71.62660979526117,202.96589030476753 71.75515359593555,184.51866510382388 63.65689419955015,181.66770382528193 56.972616602201015,185.3571817779448 58.38659840123728,204.64289606327657 62.37145619979128,208.5 67.77029579784721,208.16460017266218 72.14078499563038,205.14599731226917 72.14078499563038,187.20191630290356 69.56990899704397,182.84162991598714 64.42815699893981,181.66770382528193 57.358248001895845,187.36961929430254 58.643686002120376,205.31369767943397 62.11436859983951,208.3323000984965 72.01224119542167,203.80439349031076 71.88369739567861,186.86651024629828 69.44136519683525,183.00933354522567 64.29961319919676,181.83540762588382 59.4149488019757,183.34474073001184 57.22970420215279,186.86651024629828 58.00096700200811,204.13979459286202 64.55670079914853,208.16460017266218 72.01224119542167,204.81059650389943 71.62660979526117,186.86651024629828 69.69845279678702,183.51244428521022 63.01417519990355,181.83540762588382 57.22970420215279,185.69258827588055 58.00096700200811,203.13359099067748 64.29961319919676,208.3323000984965 69.44136519683525,207.32610017526895 72.14078499563038,203.6366929024225 71.24097839556634,185.5248850393109 66.35631399834529,181.5 58.12951080175117,185.0217751818709 58.12951080175117,203.6366929024225 61.086018200498074,207.6615002474282 67.8988395971246,207.99690022249706 72.01224119542167,203.46899228950497 71.88369739567861,188.87894511432387 67.6417519976385,182.170815154328 58.38659840123728,184.6863684875425 57.872423202265054,202.2950873146765 61.857281000353396,207.49380022357218 68.2844709972851,207.99690022249706 71.62660979526117,205.31369767943397 72.26932879537344,191.89759079378564" stroke="#4dd2ff" stroke-linecap="round" stroke-linejoin="round" stroke-width="0.5"><title>2023-08-25 3.1km</title><desc>1692968645000</desc></polyline><polyline fill="none" points="104.35483870934695,190.31280009931652 103.91935483831912,194.1951437544776 113.1370967742987,194.57390774285886 113.5,199.68719990062527 86.5,199.59250967216212 86.93548387056217,195.04736241674982 102.90322580607608,195.04736241674982 110.8870967742987,193.43761511310004 113.06451612897217,194.38452577602584 113.2096774186939,199.21374861942604 104.06451612897217,199.30843890324468" stroke="#4dd2ff" stroke-linecap="round" stroke-linejoin="round" stroke-width="0.5"><title>2023-08-24 1.1km</title><desc>1692883156000</desc></polyline><polyline fill="none" points="137.8379449674394,208.5 137.91746143030468,208.11098019758356 138.1162525875261,208.26658822098398 137.53975823160727,192.00481134827714 137.06265945418272,189.0220269482379 137.8379449674394,188.4514016063913 137.08253856992815,187.7510861771152 137.34096707426943,184.94979680079268 136.8837474125903,181.5" stroke="#4dd2ff" stroke-linecap="round" stroke-linejoin="round" stroke-width="0.5"><title>2023-08-21 1.2km</title><desc>1692620048000</desc></polyline><polyline fill="none" points="175.56658891425468,199.02468051756296 175.20603233244037,199.79751953664527 175.4635727480054,208.5 175.32192551944172,197.69740137329063 175.0,195.54684058270504 175.09013914543903,193.09380802355008 174.5106732104323,182.23935023228114 174.832598729874,181.65123111658613 175.37343360256637,181.5 174.7424595844932,181.56721385417768 174.43341108574532,182.12172665009712 174.45916512730764,185.81841020203137 175.01287702081027,192.64015927595756 174.84547575068427,195.00919409366907 175.1931553116301,197.12616259037895 175.52795785182388,208.4832004797354 175.24466339475475,200.80556261688616" stroke="#4dd2ff" stroke-linecap="round" stroke-linejoin="round" stroke-width="0.5"><title>2023-08-10 4.8km</title><desc>1691669615000</desc></polyline><polyline fill="none" points="26.804812834132463,224.0110793687054 29.187165775336325,221.27972575224703 37.20053475908935,221.27972575224703 37.99465240677819,226.64823738660198 12.294117646757513,227.8726285097655 11.5,223.8227105255355 20.5962566845119,220.62043176451698 26.443850267212838,222.31575779797276 37.34491978632286,221.93901906500105 38.5,225.89476476906566 23.628342246171087,227.6842607963481 12.871657753828913,227.2133412710973 11.572192512918264,226.83660540293204 11.5,225.14129127009073 13.160427807364613,222.4099424466258 21.390374331269413,223.1634191412013 31.569518716540188,221.27972575224703 37.850267379544675,221.84483434748836 37.41711229970679,226.55405335745309 18.863636363763362,227.9668123460142 11.933155079837888,227.11915732483612 11.933155079837888,223.54015715781134 13.954545454587787,222.59831170312827 28.320855615194887,223.35178817703854 30.5588235296309,222.12738845899003 38.06684491969645,222.22157313558273 38.06684491969645,226.64823738660198 22.256684491876513,227.02497336477973 17.058823529165238,229.19120096275583 12.51069518737495,227.4958930273424 11.644385026302189,224.67036988545442 12.582887700293213,223.7285260835779 22.040106951724738,223.25760366610484 23.339572192635387,222.03320376906777 28.39304812811315,223.7285260835779 38.283422459848225,222.59831170312827 38.06684491969645,226.74242140172282 17.491978609468788,227.7784446599544 12.0775401070714,226.45986931480002 12.005347593221813,223.54015715781134 13.593582887668163,222.4099424466258 28.97058823565021,223.54015715781134 38.5,222.69249631051207 37.9224598929286,226.9307893908117 21.1737967915833,227.4958930273424 18.647058823611587,229.00283363478957 13.088235293980688,227.8726285097655 12.221925133373588,225.51802812964888 13.232620320748538,223.25760366610484 28.68181818164885,223.91689495416358 38.2112299464643,222.5041270814836 38.427807486616075,227.02497336477973 24.4224598929286,226.9307893908117 20.8850267380476,227.4958930273424 19.4411764703691,229.3795682354248" stroke="#4dd2ff" stroke-linecap="round" stroke-linejoin="round" stroke-width="0.5"><title>2023-08-08 4.7km</title><desc>1691498421000</desc></polyline><polyline fill="none" points="64.42443649237975,211.5 64.62414216611069,220.33470591754303 65.69529077969491,220.68997891817708 65.64082559593953,221.21104457628098 59.3047092204215,221.0215663490817 60.03091167018283,222.60843965646927 60.321392650250345,233.33719011524227 60.811579303932376,237.0080122128129 61.338076080195606,238.5" stroke="#4dd2ff" stroke-linecap="round" stroke-linejoin="round" stroke-width="0.5"><title>2023-08-04 1.6km</title><desc>1691107871000</desc></polyline><polyline fill="none" points="99.43455497385003,223.06356320006307 107.06806282722391,221.3115291815484 112.51047120429575,222.2336529561435 113.14659685874358,227.3975211729994 102.47382198972628,226.75203995860647 86.85340314148925,228.13521318056155 86.92408376955427,225.00001618842361 88.97382198972628,222.69471433776198 94.41623036656529,221.95701596525032 99.71727748727426,222.8791387960664 107.28010471211746,220.48161663144128 113.00523560238071,222.51028982555727 113.35863874363713,227.30530961160548 86.85340314148925,228.04300172673538 86.92408376955427,224.72338041168405 89.11518324632198,222.69471433776198 95.75916230352595,221.49595404439606 99.01047120429575,222.6025020882371 112.43979057623073,222.6025020882371 113.5,227.3975211729994 87.70157068083063,228.50405886070803 86.5,226.56761663331417 87.77225130912848,224.26232051325496 95.40575916250236,222.04922830912983 112.36910994793288,222.51028982555727 112.93455497385003,227.21309803659096 87.8429319371935,228.50405886070803 87.20680628274567,224.53895649279002 92.57853403151967,222.97135100484593 103.95811518328264,223.89347235218156 113.14659685874358,222.8791387960664 113.21727748727426,226.9364632302313 88.97382198972628,228.41184746084036 86.6413612565957,227.02867484587478 87.41884816787206,224.6311684589018 93.78010471211746,222.69471433776198 113.07591623067856,223.34019970556255 113.14659685874358,226.8442516013165 97.52617801073939,227.58194425608963 93.07329842960462,229.51838336855872 89.75130890053697,228.96511565742549 87.91361256549135,228.04300172673538 87.41884816787206,225.00001618842361 92.64921466005035,222.6025020882371 103.88743455521762,224.3545325200539 112.72251308895648,223.06356320006307 113.28795811533928,227.30530961160548 97.87958115199581,226.9364632302313 92.86125654471107,228.50405886070803" stroke="#4dd2ff" stroke-linecap="round" stroke-linejoin="round" stroke-width="0.5"><title>2023-07-26 4.8km</title><desc>1690377436000</desc></polyline><polyline fill="none" points="133.0,223.49708411691245 148.12000000011176,221.24268283619313 150.9279999998398,221.8062838979531 150.3519999999553,226.78473846788984 132.71200000029057,226.97260392288445 126.16000000014901,229.22698509308975 124.28799999970943,227.25440200173762 124.6480000000447,223.5910173318116 130.84000000031665,221.24268283619313 135.23199999984354,222.74561790260486 150.3519999999553,221.90021736058407 150.20800000010058,226.31507459114073 125.65599999995902,228.47552558220923 124.0,226.50294018298155 124.57599999988452,223.7788837206317 130.40800000028685,220.96088211983442 134.65599999995902,220.77301490691025 137.89600000018254,222.74561790260486 144.23199999984354,220.96088211983442 150.49599999981,221.99415080901235 150.5679999999702,226.87867120222654 124.4320000000298,226.97260392288445 124.4320000000298,223.5910173318116 125.65599999995902,223.02741783601232 140.92000000039116,222.65168456389802 146.53599999984726,220.96088211983442 150.7839999999851,221.99415080901235 150.42399999964982,226.69080572010716 124.4320000000298,227.16046932234894 124.57599999988452,223.49708411691245 127.52799999993294,222.27595107199159 140.34400000050664,222.46381784550613 146.53599999984726,220.77301490691025 151.0,221.99415080901235 150.42399999964982,226.87867120222654 124.8640000000596,227.72406519192737 125.3680000002496,223.21528438961832 137.60800000000745,222.65168456389802 145.02400000020862,220.86694852029905 150.7119999998249,222.08808424370363 150.64000000013039,226.78473846788984 124.4320000000298,226.78473846788984 124.79200000036508,223.21528438961832 134.0800000000745,224.530348726199 145.60000000009313,220.86694852029905 150.8560000001453,221.90021736058407 150.7839999999851,226.87867120222654 125.58399999979883,227.4422673190711" stroke="#4dd2ff" stroke-linecap="round" stroke-linejoin="round" stroke-width="0.5"><title>2023-07-24 4.9km</title><desc>1690201802000</desc></polyline><polyline fill="none" points="178.09070937347133,211.80918372313317 178.0512114901794,211.5 176.92552181414794,212.1441321441962 176.76753028074745,213.0716782946256 177.20200699777342,218.81720258526911 178.24870090687182,219.30672289905488 178.28819879039656,219.71894947676628 173.64719749463256,219.92506240401417 171.13908190082293,219.64165706688073 171.9487885098206,220.54339973890455 172.1462779266294,221.72854023214313 172.38326522696298,232.72935526633228 173.50895490287803,238.5 172.77824406058062,235.69198665853764 173.64719749463256,234.919131097442 172.91648665233515,212.35025393293472 177.93271784007084,212.01530590372568 178.54493503225967,211.88647956910427 178.6436797407223,211.52576533101092 178.86091809917707,211.96377538118395" stroke="#4dd2ff" stroke-linecap="round" stroke-linejoin="round" stroke-width="0.5"><title>2023-07-24 3.0km</title><desc>1690157385000</desc></polyline><polyline fill="none" points="25.18140674883034,259.79373846709495 25.68675412045559,268.5 25.323940622911323,256.86896365902066 25.05183049966581,255.58406809056032 25.298025373078417,254.48513291648123 25.10366099938983,253.94411483879958 24.559440752957016,242.70050969385193 24.88338137581013,241.85508163082704 25.492389746708795,241.58454334440466 24.948169500450604,241.5338173451819 24.507610253291205,242.22707074056234 24.507610253291205,245.8454477910127 25.012957624916453,253.8595805353325 25.12957624916453,252.91279211294022 24.455779753625393,242.59905865287874 24.689017002121545,241.92271610349417 25.298025373078417,241.56763468044664 24.844508501060773,241.5 24.35211875429377,242.37924775850115 24.31324587960262,245.72709145543922 24.805635626311414,254.1300900886199" stroke="#4dd2ff" stroke-linecap="round" stroke-linejoin="round" stroke-width="0.5"><title>2023-07-22 4.9km</title><desc>1690030226000</desc></polyline><polyline fill="none" points="59.28209478687495,252.69520053523593 54.61297741951421,249.89641083835158 56.632055200170726,264.3841881727567 60.54401839990169,267.3475742052542 66.85363646410406,266.03051470941864 70.0084454966709,260.59762800252065 68.87271424476057,246.76834353117738 66.47505938028917,242.65245225431863 62.184519096743315,241.5 55.62251631030813,244.7927175963996 56.884439922403544,263.23175816470757 59.40828714799136,267.0183094756212 63.0678656254895,268.00610337546095 70.38702258048579,262.0793269771384 69.62986841285601,250.0610457189614 64.70836632279679,241.66463610855862 59.15590242575854,242.15854428964667 55.11774686444551,246.10980193840805 56.127285754773766,262.73785922897514 61.805942012928426,267.8414711188525 69.37748368969187,263.72565688437317 69.12509896699339,246.76834353117738 61.553557289764285,242.48781628976576 55.37013158714399,246.93297886964865 56.37967047793791,264.71345367317554 61.553557289764285,268.5 70.13463785732165,262.9024922319222 69.50367605080828,250.22568057558965" stroke="#4dd2ff" stroke-linecap="round" stroke-linejoin="round" stroke-width="0.5"><title>2023-07-18 1.7km</title><desc>1689685608000</desc></polyline></svg>