<?xml version="1.0" encoding="utf-8" ?>
<svg baseProfile="full" height="300mm" version="1.1" viewBox="0,0,200,300" width="200mm" xmlns="http://www.w3.org/2000/svg" xmlns:ev="http://www.w3.org/2001/xml-events" xmlns:xlink="http://www.w3.org/1999/xlink"><defs /><rect fill="#222222" height="300" width="200" x="0" y="0" /><text fill="#FFFFFF" style="font-size:12px; font-family:Arial; font-weight:bold;" x="10" y="20">Over 10km Runs</text><text fill="#FFFFFF" style="font-size:4px; font-family:Arial" x="10" y="280">ATHLETE</text><text fill="#FFFFFF" style="font-size:9px; font-family:Arial" x="10" y="290">Yunlong</text><text fill="#FFFFFF" style="font-size:4px; font-family:Arial" x="120" y="280">STATISTICS</text><text fill="#FFFFFF" style="font-size:3px; font-family:Arial" x="120" y="285">Number: 44</text><text fill="#FFFFFF" style="font-size:3px; font-family:Arial" x="120" y="290">Weekly: 1.8</text><text fill="#FFFFFF" style="font-size:3px; font-family:Arial" x="141" y="285">Total: 211.5 km</text><text fill="#FFFFFF" style="font-size:3px; font-family:Arial" x="141" y="290">Avg: 4.8 km</text><text fill="#FFFFFF" style="font-size:3px; font-family:Arial" x="167" y="285">Min: 1.1 km</text><text fill="#FFFFFF" style="font-size:3px; font-family:Arial" x="167" y="290">Max: 39.1 km</text><polyline fill="none" points="31.84348477749154,58.5 30.285423444584012,57.21734252999886 29.158825249993242,55.3402689423674 16.454632843495347,44.73449344524124 18.611948535195552,42.66959098567895 23.933327241335064,35.41098763594346 27.576793742831796,31.5 28.487660368322395,31.844169784351834 33.54536715650465,36.38090149278287 31.483932162169367,39.13418135914253 28.056197230005637,43.107602265517926 27.049449907033704,43.60818548608222 21.632190503529273,38.66487479902571 25.491388574242592,33.4398588144104 27.8164954863023,31.5 33.52139698213432,36.44347642916546 30.357333967695013,40.47952111961786 27.169300778885372,43.60818548608222 21.68013085226994,38.85259754672006 21.77601154963486,38.03913111555448 27.241211301763542,31.6564408797567 28.056197230005637,31.562576365759014 32.97008297208231,35.66128840755846 33.44948645902332,36.193176573709934 33.281695238663815,36.97536264851806 27.888406009413302,43.2953211106942 27.001509558409452,43.51432622158609 21.632190503529273,38.727449066529516 21.752041375264525,37.97655664640479 26.498135896981694,32.532507690018974" stroke="#4dd2ff" stroke-linecap="round" stroke-linejoin="round" stroke-width="0.5"><title>2024-10-10 5.0km</title><desc>1728516073000</desc></polyline><polyline fill="none" points="65.35389182518702,55.32044669067545 62.53301727224607,58.5 61.229431304498576,58.165312676428584 56.335641360259615,53.64697626957786 55.822755077970214,52.61499551679299 45.75736178655643,44.554196760786 44.64610817481298,43.18745312401734 47.659315083757974,39.56135106565489 48.85604974254966,39.33820406938321 48.59960660140496,38.86401583456609 51.22814879845828,35.29361946246354 54.71150146611035,31.555789068792365 55.673163245548494,31.72315617716231 60.09680743096396,36.01886164091411 55.37397958082147,41.7928066533932 54.60465015738737,42.43434529780643 53.89943151909392,42.18330869427882 49.98867361608427,38.94769619705039 49.433046810212545,38.02721018822922 51.890626913052984,34.59626861049037 54.56190963392146,31.667367157380795 55.13890670146793,31.5 55.75864429271314,31.918417617751402 59.58392114855815,35.20993749493209 60.03269664570689,36.01886164091411 55.074795916094445,41.960164768926916 54.13450439844746,42.266987598879496 49.64674942777492,38.58508102752967 49.347565763047896,37.94352942144906 52.95914000144694,33.229453535881476 54.967944607371464,31.5 59.84036428981926,35.4051953619346 59.797623766353354,36.54884456380387 55.074795916094445,42.071736764293746 53.920801780885085,42.09962975284725 52.189810577896424,40.732868507970124" stroke="#4dd2ff" stroke-linecap="round" stroke-linejoin="round" stroke-width="0.5"><title>2024-10-05 4.9km</title><desc>1728122302000</desc></polyline><polyline fill="none" points="78.54641883540899,36.350347816129215 81.2767800972797,58.338325308519416 90.70893718395382,52.84137178666424 91.57768849423155,37.80544802627992 87.23393194144592,33.11678496142849 80.90445810742676,33.92517655855045 79.29106281604618,47.829419840243645 81.1526727671735,57.5299514986109 90.21250786352903,52.03299397206865 91.70179582433775,39.74557867087424 88.9714345629327,33.601819990202785 83.13839004887268,32.955106571433134 80.28392145689577,35.05692380503751 79.29106281604618,45.565950249903835 81.4008874273859,57.20660180982668 89.84018587321043,54.134775065700524 91.57768849423155,39.74557867087424 87.35803927155212,32.955106571433134 81.64910208806396,33.601819990202785 79.91159946657717,35.865313988528214 78.91874082572758,47.50606732419692 80.40802878700197,56.2365521780448 83.38660470908508,56.883252026862465 90.46072252374142,52.84137178666424 91.70179582433775,37.48209258879069 86.86160995112732,32.955106571433134 80.28392145689577,34.57188941235654 79.04284815629944,49.122828961815685 81.1526727671735,57.69162630813662 90.58482985384762,53.48807361465879 91.70179582433775,39.422223798930645 90.83304451406002,35.541957985726185 86.98571728169918,32.955106571433134 80.28392145689577,35.05692380503751 79.53927747672424,55.751527043641545 81.4008874273859,57.044926930218935 90.95715184416622,53.00304727931507 91.82590315444395,38.61383620707784 87.73036126233637,32.955106571433134 80.03570679621771,35.05692380503751 79.66338480636477,54.45812564983498 82.02142407791689,57.5299514986109 91.45358116459101,52.84137178666424 91.57768849423155,36.67370358295739 87.23393194144592,33.11678496142849 79.53927747672424,35.865313988528214 78.67052616598085,45.565950249903835 80.65624344721437,55.26650169771165 82.64196072844788,56.398227175464854 91.20536650437862,53.00304727931507 91.70179582433775,37.967125709401444 87.35803927155212,33.11678496142849 80.03570679621771,35.05692380503751 79.41517014661804,52.518020731862634 83.51071203872561,57.69162630813662 91.08125917427242,54.29645036929287 91.57768849423155,38.290481005446054 89.71607854263857,34.086854807450436 86.24107330059633,32.79342815768905 79.41517014661804,35.865313988528214 78.79463349562138,45.88930333114695 81.4008874273859,58.17665059340652 91.08125917427242,54.94315134908538 91.32947383401915,38.290481005446054 87.85446859197691,32.955106571433134 79.66338480636477,34.41021123412065 80.03570679621771,57.20660180982668 90.70893718395382,55.589851951925084 91.82590315444395,50.416236575343646 91.20536650437862,35.865313988528214 86.98571728169918,32.63174972019624 82.51785339834169,32.63174972019624 79.04284815629944,36.51202571147587 80.15981412678957,56.07487715652678 87.73036126233637,57.20660180982668 91.57768849423155,51.062939816503786 90.70893718395382,36.350347816129215 85.620536650531,32.30839277501218 80.65624344721437,33.27846332779154 77.92588218534365,35.21860188920982 80.03570679621771,55.42817683657631 84.37946334993467,58.01497585559264 89.71607854263857,57.368276666267775 91.82590315444395,51.70964268106036 90.58482985384762,35.865313988528214 88.35089791193604,33.440141670638695 81.77320941770449,33.601819990202785 78.91874082572758,38.12880336889066 80.03570679621771,55.589851951925084 88.72321990225464,57.5299514986109 91.57768849423155,53.48807361465879 90.70893718395382,34.89524569781497 84.8758926698938,32.30839277501218 79.41517014661804,35.865313988528214 80.03570679621771,55.26650169771165 83.01428271830082,57.85330109333154 88.84732723236084,57.5299514986109 91.70179582433775,50.739588242955506 90.70893718395382,33.92517655855045 82.89017538866028,32.955106571433134 79.16695548640564,37.80544802627992 79.66338480636477,54.94315134908538 83.01428271830082,58.5 86.36518063070253,58.338325308519416 91.45358116459101,52.84137178666424 90.58482985384762,33.76349828590173 83.13839004887268,32.63174972019624 79.04284815629944,36.67370358295739 79.04284815629944,53.16472274775151 83.13839004887268,57.368276666267775 87.23393194144592,57.85330109333154 91.82590315444395,52.518020731862634 91.20536650437862,35.21860188920982 85.99285864084959,32.470071259653196 79.29106281604618,36.67370358295739 79.53927747672424,51.386291296221316 82.39374606823549,55.751527043641545 88.35089791193604,56.883252026862465 92.07411781465635,51.062939816503786 91.82590315444395,36.51202571147587 86.61339529138058,31.5 79.41517014661804,35.865313988528214 79.53927747672424,53.48807361465879 84.25535601936281,57.69162630813662 90.95715184416622,54.61980090616271 92.07411781465635,37.32041483500507 87.48214660165831,32.30839277501218 80.15981412678957,33.92517655855045 79.29106281604618,52.67969627096318 86.24107330059633,57.5299514986109 90.70893718395382,55.42817683657631 92.07411781465635,36.83538143092301 86.98571728169918,31.661678602336906 79.53927747672424,35.38027994928416 78.42231150576845,50.739588242955506" stroke="#4dd2ff" stroke-linecap="round" stroke-linejoin="round" stroke-width="0.5"><title>2024-09-08 8.9km</title><desc>1725751236000</desc></polyline><polyline fill="none" points="115.1808413346298,32.112590444041416 117.35093735228293,31.5 116.6999085471034,31.829856537282467 117.38710561930202,44.03431182334316 123.46337446849793,42.24372560062329 124.87393687991425,43.139019951515365 124.36758114257827,45.40080516351736 124.69309554528445,57.604748184094205 110.11728396010585,58.5 105.74092365801334,57.98169661915745 106.17494286154397,48.6992135681794 105.16223138663918,42.29084641765803 105.12606311985292,33.00791285108426 105.99410152668133,32.159712737833615" stroke="#4dd2ff" stroke-linecap="round" stroke-linejoin="round" stroke-width="0.5"><title>2024-08-20 2.0km</title><desc>1724107925000</desc></polyline><polyline fill="none" points="149.2065217391355,32.444747336237924 143.56521739135496,32.103657095940434 143.72826086956775,37.94471668387996 143.51630434783874,38.285793184739305 137.59782608697424,37.092021921955165 137.1576086957357,37.98735129040142 137.2065217391355,43.03946340709808 136.68478260876145,43.06077996300883 132.36413043487119,40.84384136964218 131.51630434783874,41.078326862087124 131.5,56.10592445252405 151.26086956518702,57.896342904059566 151.35869565216126,54.63520704687107 150.7065217391355,47.06823679966328 151.73369565216126,46.87639298551949 155.92391304345801,47.11086872384476 157.17934782605153,46.83376099234738 158.05978260870324,47.13218468129344 157.78260869567748,46.599284806041396 158.5,46.172963495817385 157.211956521729,39.7140423184901 156.1684782608645,36.77226009356673" stroke="#4dd2ff" stroke-linecap="round" stroke-linejoin="round" stroke-width="0.5"><title>2024-08-18 4.9km</title><desc>1723938111000</desc></polyline><polyline fill="none" points="184.44386111205677,54.871388542087516 182.93284333415795,57.33648849208839 181.58803751179948,58.5 180.43966400052886,57.947826299860026 178.05225591140334,55.58134195210005 177.13053506682627,54.98971437026921 176.58656866679667,54.121989217208466 176.31458546681097,54.200873552952544 169.34879351052223,48.442195652096416 162.36789137648884,41.99297305631626 161.70304355426924,40.13901095344045 161.8692555098678,38.77810763835441 161.6274926653714,38.12723597510194 161.9296962209628,36.450733874356956 162.6852051099413,36.15487839639536 164.21133306558477,34.04442380268301 166.76495311030885,31.5 169.7869886661647,33.68939080875134 170.92025199963246,35.227860357495956 171.88730337744346,35.99708854247001 172.83924457756802,35.89846978985588 174.47114377771504,37.37774349730171 175.19643231114605,38.679490921786055 171.31311662192456,43.353843892837176 171.99307462194702,43.768019244700554 175.7555088889785,39.31063665996771 177.23630631132983,40.13901095344045 180.42455382278422,43.077726284143864 181.27072377840523,43.53134777100058 183.02350440080045,45.42470791822416 183.86967435642146,45.838876903188066 186.3175231567002,48.20553239014407 187.1939134679269,48.678858498256886 188.3725073346286,50.11854852194665 187.7983205791097,51.203236322355224 185.92465853440808,52.997882413779735 185.68289568996988,53.60923990885203 184.74606466770638,54.29947890769108" stroke="#4dd2ff" stroke-linecap="round" stroke-linejoin="round" stroke-width="0.5"><title>2024-08-14 5.1km</title><desc>1723587841000</desc></polyline><polyline fill="none" points="34.74818897573277,85.97594424164708 32.63129002926871,88.46589150284126 32.26540626073256,88.5 30.8802748513408,87.05038006593531 30.08317092701327,86.64107234880794 29.534345274209045,85.89067113280908 28.920183234266005,85.65190609599813 28.00547381292563,84.52629290318146 22.112131684145425,79.83612087347137 16.179587723105215,74.34411581286986 15.683031180058606,73.13311091373907 15.774502122250851,72.26322638594138 15.43475290859351,71.12042703592306 15.630762070242781,68.39130860591831 17.329508138413075,66.49794512863446 17.747661016706843,66.46383018911729 17.355642693291884,66.42971523968299 16.806817040545866,65.74741415165772 16.480135104386136,65.90093224492739 15.656896625179797,67.04378280184756 15.879040341766085,68.08427878130897 15.526223850727547,68.25485100602236 15.251811024267226,64.34868442667357 15.356349243898876,61.99468672552757 18.361823056824505,61.5 19.446407084877137,61.7217563781669 21.77238247054629,61.56823277670628 19.42027252999833,64.7239550259037 24.777856283413712,69.32945027811365 26.55500601622043,70.3187551294468 27.35210994054796,71.61507290684676 30.932543961156625,74.66818541123939 27.63959004438948,78.77867418661481 28.24068480695132,78.94923075303086 30.331449198536575,76.35674399560958" stroke="#4dd2ff" stroke-linecap="round" stroke-linejoin="round" stroke-width="0.5"><title>2024-08-10 5.2km</title><desc>1723241479000</desc></polyline><polyline fill="none" points="63.17520891362801,85.4549167984951 61.91169916430954,87.08433109683392 61.2799442896503,88.43888936055009 60.42256267409539,87.83032139827264 59.82089136482682,87.79105885431636 58.64763231197139,85.84754856022482 56.571866295242216,84.74817673064535 56.075487465190236,83.8058508468821 54.466016713064164,82.66719823672611 51.382451253419276,79.6045673834742 49.77298050140962,78.70147057407303 48.0281337047345,76.89525871023943 45.50111420603935,74.73562563557061 45.305571030592546,74.93195735226618 44.688857938628644,74.2055285647366 43.51559888571501,73.49872921065253 43.07938718661899,72.61522477920516 42.28217270190362,72.16365359969495 41.6955431754468,70.78929717469146 41.95125348184956,70.04321207368048 41.5,68.49212713052111 41.98133704729844,66.68577774746518 43.124512534821406,65.78259393072221 43.711142061220016,64.7223269049573 46.49387186631793,61.62001597182825 47.065459609963,61.561110639435356 47.12562674086075,61.875272113029496 47.411420612828806,61.83600196907355 48.73509749304503,62.81775211704371 49.23147632309701,63.583512242446886 50.61532033421099,64.60451894010475 51.081615598814096,64.64378827322798 51.75849582173396,66.13601440966886 53.127298050094396,66.4501651644241 54.60139275761321,66.29308987900731 55.57910863502184,66.90175558492774 55.84986072423635,67.92273701644444 55.62423398322426,68.25651772142737 52.661002785433084,71.3979424721183 51.397493036231026,73.55762929908815 51.8938718662248,73.75396274049126 52.75125348183792,72.9882606936153 54.481058495817706,70.61259318386146 55.57910863502184,69.4738285458734 56.03036211698782,69.37565872776031 61.80640668520937,74.08772893108835 62.93454038997879,75.50131770520238 64.72451253479812,76.83636008766189 65.58189415041124,76.93452444419381 65.79247910861159,77.58240739502071 66.55961002787808,78.03396032789897 66.8002785515855,78.56404226558516 68.5,79.36897749771015 68.24428969359724,80.58618745241256 64.84484679665184,84.1592238292069" stroke="#4dd2ff" stroke-linecap="round" stroke-linejoin="round" stroke-width="0.5"><title>2024-08-09 5.2km</title><desc>1723159591000</desc></polyline><polyline fill="none" points="93.64698572165798,85.36351127257512 93.82950784778222,85.74068780467496 92.84084633161547,86.23697111717775 92.11075782740954,87.16997882806754 92.04991711874027,87.68610799571616 91.15251666563563,88.5 89.58586841705255,86.33622756171098 89.05351221602177,86.27667370368727 88.27779318031389,85.36351127257512 87.13702989253215,84.84737326564209 86.66551440017065,84.4106395716517 86.7111449316726,83.91434957571619 86.37652103387518,84.11286579203443 73.15887707221555,72.77712437052105 72.20063591044163,71.38738858627039 71.86601201270241,70.3351505890314 71.57701864652336,67.77400888623379 71.72912041813834,66.3445134118665 73.1132465407718,65.37165370672301 75.15141028165817,62.6515803460934 76.53553640423343,61.5 77.08310278243152,61.519854916390614 80.76396565785399,64.71645854317467 81.66136611090042,65.07383811577165 81.85909841413377,65.92757439297566 84.6425608364516,67.59532277606195 84.9619745570235,68.27035795661504 89.3881361138192,72.00284476217348 89.50981753115775,72.34035180165665 85.90500554163009,76.56904527434381 85.69206306122942,76.9859515739372 85.93542589602293,77.28374100319343 86.60467369150138,77.04550951207057 88.26258300314657,74.78228947255411 90.30074674409116,72.91609716558014 98.42298135347664,79.96381643947097 97.25179771118565,81.7902078715124 95.44178662786726,83.53716796422668" stroke="#4dd2ff" stroke-linecap="round" stroke-linejoin="round" stroke-width="0.5"><title>2024-08-08 4.9km</title><desc>1723122982000</desc></polyline><polyline fill="none" points="128.4269192913489,73.97718026632356 128.46013779529312,73.95550234961411 128.46345964567445,74.0162004763879 128.5,73.87746171811341 128.45349409450137,73.80375648844347 128.1910679133871,73.9858514285479 127.82898622048378,73.6390029588656 127.74261811023462,73.62599606222466 127.63631889765384,73.72571545709798 127.52337598426675,73.64333858979808 127.44365157482389,73.66935236212157 126.7460629921261,74.50178101246456 125.73289862203819,75.47291820264218 122.30142716536648,79.50886601677121 122.10875984252198,79.61723512291428 117.25553641733131,75.49893036807771 116.2357283464662,74.83994846887617 116.05302657482389,74.5494715286386 115.97662401576235,74.21130075566361 115.07640255906153,73.76473599846577 114.64456200788845,73.87746171811341 114.20275590551319,73.8817973141413 113.32246555118763,73.76473599846577 112.39899114174477,73.75606477149267 104.51624015749258,74.06822734319394 103.99138779527857,74.03787834867035 103.63262795277114,73.83410572287539 103.22071850394423,74.07256291129488 101.6328740157478,74.14193191470804 101.58304625985329,74.1029118702827 101.5,72.27758345286566 101.51660925196484,71.56216276771556 106.67876476379752,71.34102924109357 106.79835137796181,71.3497011752097 107.87463090551319,71.85266900884199 108.36958661417884,72.00876073754262 113.71776574803516,72.03477594566175 114.2459399606305,71.93505085706056 115.45177165354835,71.39306080768802 115.97994586615823,71.40606868504256 116.47157972441346,71.28899758309126 116.48818897639285,71.19360597264313 118.16904527560109,70.46948691017496 118.37500000001455,70.51284783147821 118.73375984253653,70.43913422747755 120.36146653543983,70.38276487708754 120.37807578741922,70.50851174220224 120.45115649607033,70.53452826831563 123.6002706693107,70.43479812741316 123.6600639763783,70.62558592971982 123.68331692914944,71.3497011752097 123.77300688976538,71.6792327897947 123.96567421260988,72.01309660714469 126.74938484252198,74.41073526835862 126.92212106300576,74.28934050751923 127.08821358268324,74.34570242263726 127.66621555118763,73.73872230992856 128.1578494094574,74.10724743330866" stroke="#4dd2ff" stroke-linecap="round" stroke-linejoin="round" stroke-width="0.5"><title>2024-07-21 16.7km</title><desc>1721568012000</desc></polyline><polyline fill="none" points="133.48353388218675,76.67436205971171 132.2865737809334,75.58071554321214 131.92748575046426,74.44242206035415 131.94458518049214,72.36668853271112 131.5,71.3622911945713 131.63679544016486,69.50971874357492 133.00474984169705,68.68386593749165 134.8856871437165,65.849147944391 136.3391386953881,64.66613980516559 136.6298290057457,63.88490298129909 137.31380620639538,63.817939638742246 139.348638378724,65.20184274150233 139.57093096891185,65.849147944391 143.02501583273988,68.59458428506332 143.21310956293019,69.15259375491587 144.20487650408177,69.44275787194783 146.2055098163546,71.58549117493385 147.00918302719947,71.85333072005596 151.8312222925597,76.31725385579921 155.3024065864738,79.01786388960318 156.12317922734655,80.06684827477147 158.5,81.71842608237057 158.43160227988847,82.23175067496777 156.84135528816842,83.77171408235154 155.47340088663623,86.1820603612432" stroke="#4dd2ff" stroke-linecap="round" stroke-linejoin="round" stroke-width="0.5"><title>2024-07-16 2.5km</title><desc>1721136594000</desc></polyline><polyline fill="none" points="185.09446461926564,72.04863265130552 183.73267822878552,73.59310542929961 182.68606510775862,75.0211206335116 181.6037719939486,75.75839603874192 180.64041218932834,76.79832497290408 179.63542572647566,76.0765854153251 172.9097470905981,70.3023152679707 172.80865377778537,69.85214412885034 172.70161379946512,66.1031566953061 172.6659338067111,63.61144696160409 172.77297378500225,61.99681861638237 173.9623068771325,61.67078192459303 175.44897324225167,61.5 175.65115986790624,66.39035558557953 175.7819865080237,66.96474869849771 176.10310644292622,67.64780267798778 181.25291873174137,72.02534879786981 183.423451624898,74.07428876162885 182.6265984531492,75.09872905365046 181.6156653248472,75.75063529839463 180.61662552747293,76.81384614580384 180.72961217124248,76.93801536554747 180.66419885118376,77.09322648135276 181.46699868835276,77.8227126404272 181.44321202646825,77.93911907781876 180.15278562155436,79.48342029947162 179.7603057011729,80.15855293702771 178.6780125873338,81.44671320591078 177.6373461317562,82.47101108835705 176.8107596327318,82.99867197409912 175.90686648272094,83.22370222562677 174.84241336528794,84.47299074109105 174.84241336528794,84.92303777917186 176.0198531264905,85.95502777613365 176.42422637779964,86.1567678353058 176.98915959653095,86.05589790164595 177.6135594698717,85.35756233049324 177.98225272848504,84.83768432402212 177.9049460774695,84.32556070855571 176.45990637055365,83.16162501023791 175.91875981364865,83.2392215181062 174.84836003073724,84.4807502051226 174.82457336891093,85.1247817635558 174.65212007053196,85.73776839277707 174.12881351003307,86.65335548121948 172.8859604287427,88.27499213251212 172.59457382117398,88.5 169.12172119220486,85.63689766227253 165.2801753047097,81.93558511753872 164.90553538070526,81.45447311272801 165.21476198465098,81.5631116888544 168.1464680567151,77.58213852677727 169.32390781785944,75.23842392365623 169.42500113073038,74.84262083615249 170.19806764059467,74.36920541989821 172.52321383566596,73.58534437203343 173.1773470363114,73.15848447263124 174.41425345212338,71.82355497306344 175.5500665550935,70.20141517257434 177.0961995748512,68.4860841704176 181.2826520590752,72.03311008349556 183.3937182975642,74.00443983915102 184.56521139331744,72.6229644661762 184.91606465546647,72.11072287716524 184.86849133175565,72.00206493418227" stroke="#4dd2ff" stroke-linecap="round" stroke-linejoin="round" stroke-width="0.5"><title>2024-07-06 16.1km</title><desc>1720267100000</desc></polyline><polyline fill="none" points="16.312978896312416,102.66674423438963 18.229233551304787,101.33340739167761 21.29524099966511,117.00001678068656 29.599011172540486,117.50001140637323 33.17601986275986,112.33338969573379 31.004264587070793,94.5000315879006 24.61674906872213,92.33334290015046 18.61248448258266,97.50005527865142 20.017737896647304,114.66670562699437 24.23349813837558,118.33333529520314 29.85451179370284,117.50001140637323 33.303770173341036,111.16672993882094 31.770766449160874,95.166704201838 24.61674906872213,92.16667436843272 20.14548820676282,95.66670840629376 19.123485723976046,99.6667341440916 20.656489448156208,114.83337086765096 26.022002483252436,118.00000581308268 30.365513035096228,116.83335185656324 33.43152048345655,110.00006898795255 32.920519242063165,97.83339075685944 30.365513035096228,93.16668519063387 21.29524099966511,93.50002193625551 18.867985103279352,99.16673169471323 20.273238516878337,115.16670127620455 24.105747828260064,117.833341035177 30.493263345677406,117.33334655570798 33.303770173341036,114.00004441977944 32.79276893194765,98.00005845958367 28.577008690219373,92.16667436843272 25.0,91.5 19.76223727595061,95.33337229397148 19.37898634467274,112.66672083549201 21.039740378968418,116.000026871101 26.405253414064646,118.5 33.303770173341036,114.16670975787565 32.66501862090081,97.50005527865142 26.27750310394913,91.833337233169 21.933992552105337,93.33335357543547 18.99573541386053,97.33338750316761 20.14548820676282,114.16670975787565 22.955995034892112,117.16668168001343 28.449258380103856,118.16667056630831 33.55927079403773,113.33338282222394 32.154017379973084,95.00003608502448 24.61674906872213,92.00000581296626 18.99573541386053,97.83339075685944 20.273238516878337,114.66670562699437 26.022002483252436,118.16667056630831 31.13201489718631,117.16668168001343 33.687021103687584,109.66673706821166" stroke="#4dd2ff" stroke-linecap="round" stroke-linejoin="round" stroke-width="0.5"><title>2024-02-29 2.9km</title><desc>1709196138000</desc></polyline><polyline fill="none" points="43.05535122239962,91.5 52.89212080324069,97.33338750316761 52.50887004099786,112.83338636858389 57.6188802132383,118.33333529508673 64.26189343677834,116.83335185598116 66.81689852289855,113.16671736212447 65.7948964885436,96.3333803373389 60.55713606160134,91.833337233169 55.319375636056066,92.33334289991762 51.87011876935139,95.66670840617735 53.14762131264433,114.33337507175747 58.89638275606558,118.33333529508673 66.30589750595391,115.16670127632096 65.9226467423141,96.3333803373389 60.55713606160134,92.16667436878197 52.3811197867617,94.83336794318166 52.89212080324069,112.83338636858389 55.57487614406273,117.33334655524231 62.34563962183893,118.5 66.43364775972441,115.00003608386032 66.6891482686624,103.1667451482499 63.36764165665954,93.00001678115223 53.78637258382514,93.50002193602268 51.87011876935139,98.66672902554274 54.29737360123545,116.50002193532418 62.98439089395106,118.5 66.05039699701592,116.00002687051892 66.94464877760038,111.16672993893735 64.77289445372298,94.83336794318166 61.83463860535994,92.50001140648965 54.808374618180096,93.00001678115223 51.997869023587555,98.00005845935084 53.914122838526964,115.66669670608826" stroke="#4dd2ff" stroke-linecap="round" stroke-linejoin="round" stroke-width="0.5"><title>2024-02-26 2.1km</title><desc>1708947688000</desc></polyline><polyline fill="none" points="80.49268657295033,102.26694831845816 76.81065588677302,108.06449348235037 79.34998739464208,115.68407914135605 83.9207841088064,118.5 91.15787890693173,116.84357681323308 92.42754466086626,97.79453605914023 86.07921589072794,91.5 79.47695396933705,94.64727240230422 78.71515451744199,111.54300633713137 82.52415177971125,117.17486164462753 87.22191506950185,117.67178870958742 92.68147781165317,114.52458028239198 92.55451123602688,97.62889082136098 86.71404876746237,91.66564613406081 78.9690876682289,95.80679160903674 78.84212109260261,112.53686519083567 81.25448602577671,117.00921924074646 84.55561698554084,118.00307329848874 92.30057808570564,114.85586579178926 92.42754466086626,97.79453605914023 91.15787890693173,94.4816267042188 85.4443830139935,91.66564613406081 78.84212109260261,97.29760027374141 79.2230208190158,114.19329467555508 84.42865041084588,118.00307329848874 90.01517972862348,116.67793436127249 93.18934411276132,111.70864954008721 92.30057808570564,95.97243711340707 89.507313426584,92.32823042757809 85.19044986274093,91.5 79.47695396933705,95.3098549512215 78.71515451744199,112.03993587312289 83.53988438239321,118.00307329848874 88.99944712501019,117.50614637858234 92.68147781165317,114.19329467555508 92.93541096244007,98.78840697626583 91.66574520803988,95.1442093505757 86.96798191871494,92.32823042757809 81.50841917656362,93.32210614078213 79.60392054542899,95.97243711340707 78.9690876682289,114.35893749108072 83.41291780676693,118.16871555661783 91.66574520803988,115.35279387363698 92.30057808570564,98.1258264615899 90.01517972862348,93.81904367066454 86.07921589072794,92.32823042757809 78.58818794228137,96.46937347960193 78.84212109260261,113.53072317270562 81.38145260093734,117.8374310163781 90.26911287894472,116.84357681323308 92.55451123602688,113.19943727517966 92.68147781165317,103.4264597252477" stroke="#4dd2ff" stroke-linecap="round" stroke-linejoin="round" stroke-width="0.5"><title>2024-01-18 3.0km</title><desc>1705581243000</desc></polyline><polyline fill="none" points="111.80624317470938,94.83336794329807 108.22923553083092,96.1667123909574 108.10148525843397,114.16670975799207 111.16749180993065,117.50001140625682 116.27750272955745,118.33333529555239 121.38751364918426,115.0000360844424 121.38751364918426,97.00005187850911 119.08800873486325,92.83334834722336 115.12775027239695,91.5 109.76223880704492,93.66669027204625 107.46273389318958,97.33338750293478 107.71823443938047,112.66672083549201 113.59474699618295,118.00000581273343 121.13201310299337,114.66670562652871 121.25976337585598,96.83338402933441 115.89425191050395,91.83333723281976 111.03974153706804,93.00001678126864 107.84598471224308,97.00005187850911 108.35698580369353,113.33338282257318 111.03974153706804,117.50001140625682 114.87224972667173,118.5 121.38751364918426,114.50004036154132 121.77076446823776,97.66672302980442 117.17175464099273,92.00000581296626 111.42299235565588,92.66667988931295 108.48473607655615,95.83337642531842 108.35698580369353,113.33338282257318 114.36124863475561,118.5 121.89851474110037,115.0000360844424 121.00426283013076,96.83338402933441 115.76650163717568,92.66667988931295 108.35698580369353,95.66670840571169 108.48473607655615,114.16670975799207 115.25550054572523,118.5 121.38751364918426,115.33336644410156 121.51526392158121,97.16671970312018 116.66075354861096,92.00000581296626 110.91199126420543,92.83334834722336 107.71823443938047,97.33338750293478 107.97373498557135,112.00005845841952 113.21149617806077,118.00000581273343 121.13201310299337,115.50003158731852 121.51526392158121,96.83338402933441 115.51100109145045,91.5 108.10148525843397,96.33338033745531 108.35698580369353,112.50005527795292 110.40099017182365,116.16669191711117 114.74449945334345,117.66667623317335 119.98226064629853,117.0000167802209 122.53726610634476,113.16671736259013 120.87651255680248,95.33337229420431 117.04400436766446,92.00000581296626 111.67849290184677,92.16667436843272 108.35698580369353,95.33337229420431 108.10148525843397,109.16673900594469" stroke="#4dd2ff" stroke-linecap="round" stroke-linejoin="round" stroke-width="0.5"><title>2024-01-17 3.3km</title><desc>1705483266000</desc></polyline><polyline fill="none" points="138.6221255492419,106.95290702185594 135.6284293779172,109.50006975582801 140.70469679823145,116.12266671471298 146.82224984373897,117.99057184869889 152.9398028878495,115.78304727654904 153.85092781018466,99.48119743622374 150.33658882649615,93.02831864915788 145.00000000046566,91.83962653996423 139.9237325801514,95.06607371894643 139.53325047064573,111.87741659942549 144.34919648524374,117.31133396551013 153.5906064035371,115.27361793338787 153.3302849973552,98.46232422208413 148.51433898322284,91.66981328232214 139.01260765828192,96.76420021243393 139.14276836114004,109.83969103102572 142.91742875101045,117.82076241495088 152.54932077927515,116.63209568534512 153.85092781018466,99.14157313096803 150.59691023314372,92.5188793229172 143.43807156337425,92.68869245657697 139.01260765828192,96.93401272536721 139.53325047064573,113.40570842847228 145.65080351568758,118.5 153.20012429496273,116.46228605299257 153.72076710686088,97.4434501142241 149.0349817960523,91.5 143.04758945386857,92.34906616492663 140.31421468919143,95.74532461480703 139.66341117350385,113.40570842847228 141.09517890727147,116.46228605299257 147.34289265563712,118.5 154.37157062254846,113.7453285624506" stroke="#4dd2ff" stroke-linecap="round" stroke-linejoin="round" stroke-width="0.5"><title>2024-01-13 2.0km</title><desc>1705132259000</desc></polyline><polyline fill="none" points="167.0451420461759,99.26256470545195 168.46796216722578,113.94379430869594 170.79621327668428,117.31876321486197 175.71141006145626,118.5 182.82551067043096,113.10005053936038 182.30812153499573,96.39379687560722 175.8407573448494,91.83750389900524 169.1146985865198,95.7187916438561 169.1146985865198,113.60629687458277 174.547284506727,117.82500769919716 182.9548579538241,113.77504560397938 182.69616338657215,96.39379687560722 178.4277030210942,92.17500769952312 173.64185352018103,92.006255811546 168.33861488383263,97.74380615423433 168.7266567349434,112.42505507986061 171.96033883048221,117.99375581101049 174.80597907397896,118.5 181.1439959811978,116.30627357913181 182.82551067043096,112.76255285891239 182.17877425206825,95.88754298910499 175.71141006145626,91.83750389900524 172.2190333986655,92.006255811546 168.7266567349434,96.22504560498055 168.98535130312666,113.94379430869594 175.452715493273,118.5 182.69616338657215,113.26879934268072 181.79073240002617,95.38128887990024 175.5820627771318,91.5 168.7266567349434,96.05629430920817 169.76143500534818,112.5938039815519 175.452715493273,117.48751140071545" stroke="#4dd2ff" stroke-linecap="round" stroke-linejoin="round" stroke-width="0.5"><title>2024-01-11 2.0km</title><desc>1704963338000</desc></polyline><polyline fill="none" points="22.082812765147537,128.10645157343242 20.21140963351354,131.2660431372933 20.431574707385153,144.04792344977614 24.944958731066436,148.3563849424827 29.67850782861933,147.78192450263305 32.10032364632934,144.47877044946654 31.329745885916054,128.82454145798692 28.137352309189737,125.5213236414711 21.312235004734248,125.95217876986135 17.459346204530448,122.79257010918809 18.560171575751156,121.5 18.340006501879543,125.37770522356732 21.97273022774607,125.95217876986135 20.101327096112072,128.96815937163774 20.54165724478662,142.61176541814348 22.74330798815936,147.3510789515567 27.807104696985334,148.5 31.549910960253328,146.3457719310536 32.320488720200956,131.12242555926787 27.476857086177915,125.5213236414711 23.623968285042793,126.09579710348044 20.321492170449346,129.82986641401658 20.651739781722426,144.04792344977614 25.055041268002242,148.21276986418525 29.01801260607317,148.0691547645256 31.990241108927876,144.47877044946654 31.439828423317522,128.6809235229157 25.49537141667679,125.09046832495369 20.87190485652536,129.5426308172755 21.20215246779844,144.90961726062233 25.715536491479725,148.0691547645256 30.228920514695346,147.06384847918525 32.54065379500389,143.61707626050338 31.770076034590602,128.53730556712253 28.797847531270236,125.09046832495369 25.935701565351337,124.80323134205537 20.87190485652536,128.82454145798692 20.981987392995507,143.47346048912732 25.49537141667679,147.63830933981808 29.67850782861933,147.2074637261685 32.320488720200956,143.7606920110411 31.990241108927876,128.96815937163774 30.559168125968426,125.80856041470543 27.25669201090932,124.65961281914497 20.651739781722426,128.39368759014178 20.54165724478662,143.18622888275422 23.293720673769712,146.63300261320546" stroke="#4dd2ff" stroke-linecap="round" stroke-linejoin="round" stroke-width="0.5"><title>2024-01-09 2.6km</title><desc>1704792913000</desc></polyline><polyline fill="none" points="44.58673413656652,131.06969162542373 49.69512871094048,127.48106644977815 50.743004521820694,145.2531975560123 55.19647671468556,148.1582317459397 60.04290233645588,147.98734758188948 64.23440557718277,144.74054371356033 64.88932795869187,140.29753432807047 64.49637452978641,127.31017926183995 60.828809194266796,122.18355200090446 54.541554333176464,121.84177605004515 50.743004521820694,124.9177560058888 50.743004521820694,143.03169594914652 56.37533700093627,148.5 63.841452148742974,146.79115773225203 64.75834348192438,128.33550201519392 60.828809194266796,122.18355200090446 54.541554333176464,122.18355200090446 51.13595794979483,125.77219344524201 51.13595794979483,142.17727112979628 54.93450776254758,147.47469493933022 61.74570052837953,147.6455791783519 64.75834348192438,145.2531975560123 64.75834348192438,127.82284075079951 61.74570052837953,122.69621573900804 56.50632147677243,121.5 53.62466299906373,121.84177605004515 50.87398899765685,125.94308085832745 51.00497347395867,144.05700490798336 57.292228335049,147.98734758188948 65.15129691082984,144.9114283528179 64.88932795869187,128.67727606592234 60.43585576536134,121.84177605004515 54.8035232857801,121.67088803753722 50.481035568751395,126.96840481087565 51.26694242609665,144.9114283528179 57.94715071609244,148.3291158854263 65.15129691082984,144.22788964677602 64.23440557718277,125.25953105615918 59.91191786015406,121.84177605004515 54.8035232857801,122.0126640376402 50.743004521820694,125.4304185443325 50.743004521820694,142.6899260963546 55.85139909572899,147.81646339292638 64.88932795869187,144.74054371356033 65.41326586343348,129.18993695557583 61.74570052837953,122.0126640376402 53.62466299906373,122.52532785164658 50.743004521820694,129.18993695557583 51.92186480760574,146.27850456547458 61.22176262317225,147.47469493933022" stroke="#4dd2ff" stroke-linecap="round" stroke-linejoin="round" stroke-width="0.5"><title>2024-01-08 3.0km</title><desc>1704701613000</desc></polyline><polyline fill="none" points="77.6181492912583,126.48730782361235 78.40906186727807,144.8885709445458 85.39545628754422,147.9840822427068 91.45911937020719,143.168838925194 90.80002555716783,126.14335623942316 86.05455010058358,122.01592937600799 78.54088062932715,124.93952490098309 77.88178681628779,142.4809454131173 82.89089979743585,148.15605485334527 88.2954690665938,147.8121096061077 91.72275689523667,143.85673203435726 90.9318443192169,127.17521069175564 85.92273133806884,121.84395294240676 80.91361835738644,122.53185852686875 78.01360557880253,125.62742867390625 77.74996805377305,143.68475879484322 83.68181237345561,148.32802743907087 87.76819401606917,148.15605485334527 91.98639442073181,144.20067843887955 91.59093813225627,127.69113757787272 85.39545628754422,121.5 80.51816206937656,122.53185852686875 77.6181492912583,126.31533204414882 77.74996805377305,142.9968655849807 82.49544350942597,148.15605485334527 88.16365030407906,147.9840822427068 91.59093813225627,144.8885709445458 91.98639442073181,129.5828675593948 86.84546267706901,121.67197648389265 80.51816206937656,122.70383485953789 77.88178681628779,125.4554527682485 78.80451815482229,146.43632761226036 87.50455649057403,148.15605485334527 92.51366947125643,142.65291882900055 90.27275050617754,124.59557286347263 82.23180598393083,121.67197648389265 77.35451176576316,126.83125930826645 78.14542434131727,145.06054400838912 84.99999999953434,148.5 92.11821318324655,143.51278553029988 90.27275050617754,124.76754889450967 82.89089979743585,121.67197648389265 77.4863305282779,129.06694150273688 77.88178681628779,144.02870524919126 81.30907464539632,148.15605485334527 86.05455010058358,148.5 89.74547545565292,147.46816425863653 92.64548823423684,141.7930514990585" stroke="#4dd2ff" stroke-linecap="round" stroke-linejoin="round" stroke-width="0.5"><title>2023-12-29 2.9km</title><desc>1703839119000</desc></polyline><polyline fill="none" points="109.72849306697026,124.38682242622599 107.7760830912739,128.80194872617722 109.5983324018307,145.95285700750537 117.40797230228782,147.65095295628998 121.44295291788876,142.21703717962373 120.7921495931223,125.0660737195285 118.18893629265949,122.17925298109185 112.85234902659431,121.5 108.16656508669257,126.42457511241082 109.33801107201725,146.29247639642563 117.79845429770648,147.65095295628998 121.70327424770221,143.2358983248705 120.66198892751709,124.55663528700825 112.85234902659431,121.5 108.29672575136647,126.25476252532098 108.42688641650602,144.08494859619532 114.54443767247722,148.5 122.09375624312088,143.7453285616357 120.66198892751709,124.72644812276121 112.20154570182785,121.5 108.16656508669257,128.63213648681995 108.29672575136647,143.7453285616357 109.98881439678371,146.8019052920863 115.45556232752278,148.16038125671912 121.96359557844698,143.91513859131373 121.57311358302832,125.74532461480703 113.63331301696599,122.0094397731591 107.7760830912739,128.4623242225498 108.6872077472508,144.93399824667722 116.36668698256835,148.5 121.57311358302832,143.2358983248705 121.70327424770221,126.42457511241082 118.18893629265949,122.68869245704263 113.37299168715253,122.51887932315003 107.90624375687912,128.4623242225498 108.81736841145903,145.61323752021417 117.53813296789303,148.16038125671912 122.35407757339999,141.87741659930907 121.57311358302832,125.40569921641145 117.79845429770648,122.34906616492663 112.59202769678086,122.0094397731591 107.64592242660001,129.31138529616874 108.94752907659858,145.7830472763162 117.27781163807958,148.3301906407578 122.22391690779477,142.55665766075253" stroke="#4dd2ff" stroke-linecap="round" stroke-linejoin="round" stroke-width="0.5"><title>2023-12-28 2.9km</title><desc>1703769423000</desc></polyline><polyline fill="none" points="140.273237825837,127.83339075697586 136.82397894188762,126.33338033687323 138.74023387720808,143.0000518776942 143.33924572262913,147.50001140648965 150.1100131617859,145.83336180110928 152.9205204001628,142.16672408941668 152.79277007095516,129.83340157847852 148.577009213157,122.50001140707172 143.21149539388716,122.16667436878197 138.61248354800045,125.00003608490806 138.61248354800045,143.16671736212447 142.82824440672994,147.33334655570798 147.42725625168532,147.83334103564266 152.53726941300556,143.16671736212447 151.8985177683644,127.33338750293478 147.42725625168532,122.33334289991762 140.4009881541133,122.50001140707172 138.10148223256692,125.00003608490806 138.35698289005086,141.5000614199089 142.06174243241549,147.50001140648965 148.06600789632648,147.66667623328976 151.13201579404995,145.00003608432598 151.7707674386911,128.16672613762785 148.3215085552074,122.16667436878197 139.76223650947213,123.00001678115223 137.46273058699444,127.83339075697586 140.01773716742173,146.00002687145025 146.91625493578613,148.0000058131991 152.66501974267885,141.5000614199089 150.74876480689272,124.166695134365 146.02200263226405,121.5 140.01773716742173,122.83334834722336 137.7182312454097,128.83339660661295 140.4009881541133,146.33335693844128 145.63875164510682,148.5 149.21576085779816,147.50001140648965 152.4095190842636,143.16671736212447 153.17602105857804,135.66674642788712" stroke="#4dd2ff" stroke-linecap="round" stroke-linejoin="round" stroke-width="0.5"><title>2023-11-08 2.1km</title><desc>1699431646000</desc></polyline><polyline fill="none" points="169.79475135030225,123.79093438549899 167.16077010519803,129.6818869812414 168.16419153194875,144.5727677618852 175.31356919649988,148.00909672433045 181.33409775514156,145.5545771131292 182.5883745388128,142.93641692830715 181.33409775514156,125.26367544219829 177.94755044113845,121.99091490660794 172.93044330831617,121.66363832645584 168.03876385372132,126.90005211986136 168.2896192097105,143.75459264428355 175.4389968747273,148.00909672433045 182.21209150366485,143.2636872860603 181.83580846851692,126.24550173606258 178.9509718674235,122.31819139060099 174.31014776974916,121.5 168.16419153194875,128.04551437112968 168.2896192097105,143.918227715767 174.9372861608863,148.17273117334116 182.08666382497177,143.42732242960483 181.83580846851692,126.73641456000041 178.70011651096866,122.48182959691621 175.1881415178068,121.99091490660794 171.299883489497,122.80910593783483 167.9133361754939,127.71823956188746 168.4150468884036,143.1000521191163 171.04902813304216,147.19092411885504 176.44241830101237,147.84546225098893 180.45610400754958,146.3727509152377 182.83922989526764,141.3000637012301 181.83580846851692,125.91822640039027 174.43557544751093,121.5 171.299883489497,122.80910593783483 168.03876385372132,129.02733822411392 168.6659022453241,143.2636872860603 171.04902813304216,147.19092411885504 176.19156294455752,148.5 182.4629468601197,142.7727817130508 181.83580846851692,126.73641456000041 176.06613526586443,121.99091490660794 168.54047456663102,126.57277697592508 168.54047456663102,144.7364027139265 174.81185848312452,148.5 182.08666382497177,144.24549778655637 182.08666382497177,127.06368965632282 179.5781102590263,122.80910593783483 174.31014776974916,121.5 168.4150468884036,126.57277697592508 168.79132992355153,143.1000521191163" stroke="#4dd2ff" stroke-linecap="round" stroke-linejoin="round" stroke-width="0.5"><title>2023-10-27 2.9km</title><desc>1698413800000</desc></polyline><polyline fill="none" points="21.486866978928447,153.0000167810358 17.39885764522478,156.83338402980007 19.442862311843783,175.66669670597184 28.002131854183972,177.50001140672248 32.2178914793767,171.16672993870452 31.323639437090605,155.00003608467523 27.2356301038526,151.5 21.997868145350367,151.5 18.804110853467137,153.6666902723955 17.782108520157635,159.50006668525748 19.315112019889057,175.50003158731852 27.618880979251117,178.16667056665756 30.68488797917962,176.833351856214 32.60114235430956,171.33339569158852 30.812638270668685,155.00003608467523 22.76436989568174,152.5000114068389 17.9098588116467,157.66672302992083 18.9318611449562,175.00003608420957 26.46912835398689,178.5 32.2178914793767,173.16671736247372 30.94038856215775,155.3333722942043 23.658621937502176,152.00000581296626 17.9098588116467,156.83338402980007 19.059611436910927,175.16670127643738 23.658621937502176,178.33333529543597 28.129882145673037,177.83334103494417 32.2178914793767,172.5000552778365 31.45138972904533,156.16671239130665 27.49113068729639,152.1666743683163 20.720365228131413,152.83334834768903 17.526607936713845,158.3333937911084 20.209364062175155,176.833351856214 26.213627770077437,178.16667056665756 31.195889146067202,175.16670127643738 32.2178914793767,162.66674423450604 31.96239089500159,157.33338750316761 28.385382728651166,152.33334289945196 23.01987047865987,152.1666743683163 18.293109687045217,155.3333722942043 18.16535939509049,172.83338636881672 20.720365228131413,177.33334655535873 27.874381562694907,178.16667056665756 31.323639437090605,175.00003608420957 31.834640603978187,157.8333907565102 27.49113068729639,152.33334289945196 19.315112019889057,153.83335858397186 18.037609103601426,171.66672712389845 21.486866978928447,177.66667623294052" stroke="#4dd2ff" stroke-linecap="round" stroke-linejoin="round" stroke-width="0.5"><title>2023-10-21 2.9km</title><desc>1697891041000</desc></polyline><polyline fill="none" points="47.81743507133797,151.5 48.30438862601295,172.30594168405514 52.321755450218916,178.18235684302635 61.208657819312066,175.9588521438418 61.208657819312066,157.0588784016436 58.77389004686847,153.8823799417587 54.26956966845319,152.92942859232426 48.30438862601295,157.21770308096893 49.15655734576285,175.64120824378915 53.90435450198129,178.34117843292188 58.89562843600288,177.38824854406994 61.33039620751515,174.21180954331066 61.69561137352139,159.44124614959583 56.58259905176237,153.08825387549587 48.66960379201919,156.26475465786643 48.182650237344205,172.1471192111494 50.49567962111905,177.0706050619483 56.46086066309363,178.5 60.35648909909651,176.59413966536522 61.817349762655795,160.71184014517348 61.208657819312066,156.58240422513336 57.678244549781084,153.56472958507948 49.521772511769086,155.78828013280872 48.4261270146817,174.68827598600183 53.29566255863756,178.5 61.208657819312066,175.80003020563163 61.69561137352139,157.69417697924655 59.13910521287471,154.3588553033769 54.63478483399376,153.56472958507948 48.79134218022227,157.3765277370112 48.54786540288478,173.10005369863939 52.20001706155017,178.18235684302635 57.921721326652914,178.02353522996418 61.93908815085888,174.21180954331066 62.18256492866203,160.87066428991966 61.08691943064332,156.58240422513336 57.19129099464044,153.72355477511883 52.8087090048939,153.8823799417587 48.182650237344205,157.69417697924655 48.91308056889102,174.37063171423506 52.68697061575949,178.18235684302635 57.79998293798417,177.86471359303687 61.817349762655795,173.89416513266042 61.57387298485264,157.8530015652068 56.58259905176237,153.40590437164064 49.521772511769086,155.62945524486713 47.93917345954105,161.98243265401106 50.00872606644407,176.911783286836 53.53913933690637,178.5 59.99127393309027,176.911783286836 61.69561137352139,163.57067119912244" stroke="#4dd2ff" stroke-linecap="round" stroke-linejoin="round" stroke-width="0.5"><title>2023-10-16 3.1km</title><desc>1697460359000</desc></polyline><polyline fill="none" points="76.81066067703068,155.30985495168716 78.84212469542399,173.6963660841575 84.80955024808645,178.5 93.06237282138318,173.36508023599163 92.04664081288502,155.80679160915315 87.22191376937553,151.5 81.00055521400645,152.49387644033413 78.4612251915969,155.14420935045928 78.84212469542399,173.36508023599163 85.06348325079307,178.33435779006686 89.5073107900098,177.34050402313005 92.93540632072836,171.87429271859583 91.91967431129888,155.6411460810341 85.06348325079307,151.6656461340608 78.84212469542399,155.30985495168716 78.96909119607881,173.53072317223996 83.03201923239976,178.00307329790667 88.11067927768454,177.83743101579603 93.18933932296932,173.19943727517966 92.68147331802174,158.1258264617063 86.71404776489362,151.6656461340608 80.7466222117655,153.15646024933085 78.71515819430351,156.13808259309735 78.96909119607881,173.53072317223996 81.38145471783355,177.17486164346337 86.33314826199785,178.5 92.80843981960788,173.53072317223996 91.15787530411035,153.98468946525827" stroke="#4dd2ff" stroke-linecap="round" stroke-linejoin="round" stroke-width="0.5"><title>2023-10-12 1.8km</title><desc>1697101056000</desc></polyline><polyline fill="none" points="107.20642480161041,160.38614482281264 109.30217611603439,176.10762012621854 117.94715028489009,177.64557917881757 122.53160628443584,171.83550102752633 120.69782388489693,154.9177560057724 111.92186525836587,152.01266403798945 107.73036263044924,157.13929204898886 108.90922274440527,175.4240821202984 117.03025908581913,178.15823174640536 122.13865291280672,173.54435054119676 121.48373062768951,157.3101792621892 116.24435234302655,152.35443993890658 112.05284971510991,152.35443993890658 108.25430045835674,155.94308085832745 107.99233154440299,172.34815614379477 111.52891188673675,177.98734758235514 120.43585497047752,176.79115773318335 122.79357519838959,171.83550102752633 121.74569954164326,156.45574294694234 117.94715028489009,152.52532785153016 112.05284971510991,152.1835520005552 107.99233154440299,156.62663025967777 108.3852849160321,173.88612014369573 111.39792742952704,177.64557917881757 115.85139897139743,178.15823174640536 121.87668399885297,174.5696590502048 122.40062182722613,171.4937308243243 120.95979279885069,154.74686844309326 114.01761657185853,151.84177605051082 107.86134708765894,156.79751754796598 108.51626937324181,174.5696590502048 114.54155440023169,178.5 120.56683942722157,176.62027336878236 122.26963737048209,173.37346570240334 121.48373062768951,156.9684048112249 114.41056994348764,151.5 107.73036263044924,157.13929204898886 109.43316057277843,175.93673566239886 117.16124354302883,177.81646339269355 121.35274617001414,175.25319755647797 122.40062182722613,170.81019011954777 121.09077725606039,155.25953105674125 116.63730571419,151.67088803788647 110.61202068673447,152.52532785153016 107.73036263044924,157.99372786399908 109.17119165882468,175.5949666594388 113.62466320069507,178.5 118.60207257093862,178.15823174640536 122.40062182722613,168.75956560508348" stroke="#4dd2ff" stroke-linecap="round" stroke-linejoin="round" stroke-width="0.5"><title>2023-10-10 2.9km</title><desc>1696942258000</desc></polyline><polyline fill="none" points="144.0428181993775,175.55262200058496 145.93912176659796,174.44439391013293 150.0748695465736,174.96313992375508 150.725030769594,175.69409737778187 149.80396903690416,176.99094920723292 150.36383009015117,178.5 153.88553671492264,177.32105527706153 154.82465848163702,176.07136444227945 155.83602038410027,173.05320316445432 156.0166207238799,165.60187515296275 154.06613705470227,162.1826376451063 154.51763790403493,160.9328292532009 156.4320015052799,159.2821240483463 156.75708211679012,158.31527456500044 156.55842174310237,157.13618196752213 155.40257956879213,155.60334867464553 155.2219792290125,154.1648303034017 149.13574777997565,151.5 140.7378319822019,152.51405567086476 135.89774287724867,151.73582747044566 133.24291788320988,152.46689043255174" stroke="#4dd2ff" stroke-linecap="round" stroke-linejoin="round" stroke-width="0.5"><title>2023-10-07 3.0km</title><desc>1696669067000</desc></polyline><polyline fill="none" points="169.92252212995663,152.84162991598714 167.3516472587362,156.86651024583261 168.12290972005576,171.12118113820907 173.26465946203098,178.16460017219651 178.2778654601425,177.49380022333935 182.6483527412638,173.63669290184043 182.13417776674032,156.86651024583261 175.57844684645534,151.83540762588382 171.07941582193598,152.84162991598714 167.73727848939598,157.36961929430254 168.76562843751162,174.3074951072922 173.39320320589468,178.5 177.63514674268663,178.16460017219651 182.3912652535364,173.63669290184043 181.87709027901292,157.36961929430254 176.73534053843468,152.33851888112258 168.76562843751162,154.51866510347463 168.3799972073175,173.63669290184043 173.7788344360888,178.5 178.1493217172101,178.16460017219651 182.13417776674032,173.80439348972868 181.4914590488188,156.1956978389062 175.83553433278576,151.66770382528193 167.60873474599794,155.86029148800299 168.89417218137532,174.13979459297843 175.44990310212597,177.82920024706982 182.26272151013836,173.63669290184043 181.62000279221684,156.02799467591103 174.8071843846701,151.5 167.73727848939598,155.5248850391945 168.25145346391946,173.46899228950497 173.0075719752349,177.82920024706982 179.69184663938358,176.82299988158047 182.00563402287662,173.13359099067748 181.87709027901292,157.0342132867081 176.73534053843468,151.83540762588382 168.12290972005576,155.3571817780612 168.63708469411358,174.3074951072922 174.55009689740837,178.5 180.72019658749923,176.31989936868194 182.26272151013836,173.30129165260587 181.62000279221684,156.1956978389062 175.70699058938771,151.66770382528193 171.33650330919772,152.17081515409518 167.86582223325968,156.1956978389062 168.3799972073175,173.63669290184043 172.36485325777903,177.99690022179857" stroke="#4dd2ff" stroke-linecap="round" stroke-linejoin="round" stroke-width="0.5"><title>2023-10-06 2.9km</title><desc>1696597953000</desc></polyline><polyline fill="none" points="18.686190119762614,183.3565927369982 18.595247005985584,183.2005930129444 18.241579341316537,182.8292632095836 18.106848802388413,182.0118658612846 18.069797904187,181.94374740801595 18.103480538913573,181.8844181809227 18.239895209582755,181.8646417198197 18.645770958079083,181.8668391056699 18.625561377244594,181.72840316921884 18.302208083834557,181.7701538240899 16.89932634730212,181.77235122376533 14.960890718561132,181.85365478573658 14.738585329338093,181.8844181809227 14.393338323345233,182.00527376640093 13.155501496999932,182.59855072100527 12.653630239517952,182.79410724964964 12.412799401201482,182.97428067472538 12.608158682633075,184.12558178961808 12.736152694604243,186.4345095700337 12.78162425148912,189.20651180519508 12.752994011978444,189.5161887092445 12.773203592812933,191.1698871662784 12.688997005985584,191.35435221161788 12.773203592812933,191.58712630102855 12.79172904191364,193.73462669727087 12.76141467065463,194.65457649763994 12.466691616762546,194.76654745309406 12.31343562874099,194.94438196318515 11.518525449100707,194.9312091086158 11.5,194.95755480621847 11.585890718561132,194.97072763771484 11.577470059877669,195.02122338489698 11.516841317366925,195.03659162213808 11.530314371251734,195.05854621951676 11.958083832338161,195.04537346493726 12.301646706582687,195.0717189625684 12.486901197597035,195.28906755732078 12.722679640712158,195.34614848572983 12.78162425148912,195.3900567447954 12.793413173647423,196.8367621983134 12.6755239520935,197.03652394637083 12.608158682633075,197.35921039777713 12.616579341309262,197.47116122293664 12.778255988021556,197.47774653965553 12.806886227539508,197.64018343945736 12.795097305388481,199.67049673251404 12.697417664676323,199.86363659167364 12.692365269460424,200.02824246953332 12.638473053892085,200.0984737627523 12.535741017956752,200.15553644714146 12.673839820352441,200.08311069536558 12.766467065863253,200.2213777371844 12.769835329338093,200.3311125804421 12.850673652690602,200.48912934897453 12.926459580841765,201.05973164424358 13.064558383230178,202.76263140735955 13.030875748503604,203.21465749060553 12.941616766460356,203.40116915152248 12.697417664676323,203.71055398709086 12.714258982035972,203.92777783805377 12.961826347302122,204.06600956576585 13.108345808381273,204.21521064113495 13.209393712575547,204.43023311921024 13.325598802395689,204.8953732785576 13.510853293410037,205.31223196525298 13.894835329338093,205.88703922397326 14.816055389215762,207.16601633567097 15.151197604784102,207.50603485284864 15.090568862273358,207.4577746275927 15.050149700597103,207.4687428741845 15.671594311374065,207.78901215234418 15.96631736526615,207.8723687925949 16.282934131733782,207.90746618728735 17.847492514971236,207.9250148539668 18.455464071856113,207.89649826023742 18.590194610776962,207.99082217188243 18.755239520964096,208.25404856796376 18.90175898203597,208.27159683078207 18.99607035927329,208.0544356391838 19.152694610776962,207.81533535174367 19.52151946107915,207.51480942263697 22.5815868263453,206.40697955944597 22.686002994014416,206.3762662833151 22.709580838323745,206.43111137531923 22.662425149705086,206.36090962175786 22.60853293412947,206.46182453958045 22.640531437122263,206.43549897404228 22.65905688622297,206.4552431525144 22.674214071848837,206.37187866732802 22.731474550892017,206.4552431525144 22.709580838323745,206.37846009082932 22.766841317366925,206.34335913222367 23.36639221556834,206.16785311180683 24.080464071848837,206.13494550522955 25.96500748503604,206.16127159624102 28.386788922158303,206.13275166223593 28.519835329338093,206.16127159624102 29.405688622755406,206.13494550522955 30.271332335330953,206.16565927360534 31.537799401201482,206.12836397528554 31.963884730539576,205.9879573177859 32.627432634726574,205.86948818209112 34.23914670658269,205.73566081498575 35.535928143712226,205.7575998091461 35.847492514971236,205.73566081498575 36.18431886227336,205.63693494567542 36.54640718563314,205.45045098182345 36.89165419161873,205.16304176148424 36.844498502985516,205.18278760863177 36.775449101798586,205.13671392500328 36.70134730538848,205.2091153645424 36.78218562874099,205.13232594777946 36.881549401194206,205.17401167975459 36.943862275453284,205.1411019009438 37.16616766466177,205.12793796927144 37.40868263473385,204.85368677506995 37.43057634730212,204.58820686037507 37.85160928143887,204.17352225423474 38.12107035928784,203.85975858544407 38.22043413174106,203.64472795885195 38.27432634730212,203.40775187380405 38.36021706586325,196.10793860192916 38.39389970060438,195.89499251196867 38.39221556886332,195.3768842805348 38.47642215569067,195.15295062310724 38.5,194.8807130592295 38.4949476047841,194.54480024189888 38.42252994012233,194.33402758483226 38.425898203589895,193.80049609502657 38.35853293412947,192.36008610570025 38.39221556886332,189.95323958443896" stroke="#ff0000" stroke-linecap="round" stroke-linejoin="round" stroke-width="0.5"><title>2023-09-14 39.1km</title><desc>1694696482000</desc></polyline><polyline fill="none" points="54.69565367279574,181.5 47.63481887197122,188.3294751845533 48.486988589633256,201.82947419618722 51.40871333470568,206.91178328637034 57.495639886241406,207.38824854465201 62.36518112802878,203.10005369817372 61.513011410366744,186.42357945349067 57.25216282438487,181.97647640679497 52.139144520740956,182.770603285986 48.24351152777672,187.05887840176 48.852204182650894,204.68827598600183 55.06086926534772,208.5 62.24344259686768,203.4176983416546 61.513011410366744,187.535352369654 58.34780960390344,183.40590437175706 53.11305276909843,182.770603285986 47.63481887197122,188.3294751845533 48.730465651489794,202.62358655931894 54.57391514163464,207.8647135932697 59.443456382956356,206.7529614875093 61.756488473154604,203.89416513219476 61.269534348510206,186.42357945349067 57.61737841786817,182.6117779565975 52.017405989579856,182.9294285926735 48.36525005847216,186.26475465798285 48.608727120794356,204.05298734956887 52.382621583063155,207.38824854465201 56.88694723136723,207.8647135932697 61.87822700385004,202.1471192111494 61.87822700385004,185.3118053986691" stroke="#4dd2ff" stroke-linecap="round" stroke-linejoin="round" stroke-width="0.5"><title>2023-09-11 1.8km</title><desc>1694438011000</desc></polyline><polyline fill="none" points="85.24657534249127,196.72912134061335 89.62328767124563,193.27094943705015 96.28082191757858,195.68362980266102 95.41780821909197,199.5438963713823 79.45205479464494,200.50895877956646 77.35616438370198,199.22220852551982 74.52054794528522,200.26769333635457 73.22602739743888,199.14178653480485 73.0410958903376,196.16616460564546 82.6575342467986,197.1312329415232 89.99315068498254,194.47729094314855 96.15753424656577,195.20109457644867 95.97260273969732,199.70474022370763 79.14383561629802,199.86558402900118 75.81506849313155,197.69418868847424 74.76712328800932,199.14178653480485 72.79452054784633,198.57883226958802 72.73287671245635,196.08574216801208 81.85616438346915,196.64869898522738 91.47260273969732,194.31644556182437 96.65068493131548,195.4423622424947 95.23287671222351,199.70474022370763 82.2876712330617,199.46347442740807 75.75342465774156,200.58938057057094 72.42465753434226,198.57883226958802 72.5479452055879,196.2465870315791 86.84931506845169,195.92489725718042 93.38356164377183,194.39686825824901 96.58904109569266,195.52278477448272 95.47945205471478,199.62431830348214 79.26712328777649,199.86558402900118 75.32191780838184,200.83064587268746 73.22602739743888,199.78516213217517 71.5,196.88996601616964 71.99315068521537,196.08574216801208 76.98630136996508,196.4074318485218 83.45890410942957,195.12067199742887 88.57534246565774,196.0053197183879 95.91095890384167,195.12067199742887 95.91095890384167,188.847674608347 98.5,189.0085215891013 95.5410958903376,188.52598050562665 95.10958904097788,199.5438963713823 82.16438356158324,199.30263050476788 74.4589041096624,201.47401949443156 72.36301369895227,197.4529220102704 72.73287671245635,196.4878542391234 83.21232876717113,195.20109457644867 88.76027397252619,196.08574216801208 92.64383561629802,195.28151714347769 96.21917808195576,196.16616460564546 95.72602739697322,200.02642778703012 79.14383561629802,199.70474022370763 78.34246575366706,200.83064587268746 74.33561643841676,201.47401949443156 73.16438356181607,200.42853697692044 72.73287671245635,196.16616460564546 81.42465753434226,193.91433190292446 84.93835616461001,195.12067199742887 88.57534246565774,194.87940419034567" stroke="#4dd2ff" stroke-linecap="round" stroke-linejoin="round" stroke-width="0.5"><title>2023-08-30 4.9km</title><desc>1693396264000</desc></polyline><polyline fill="none" points="105.23067120462656,183.51244428521022 108.5728100030683,187.03421328705736 110.75805460149422,203.97209405410103 115.25708759948611,207.99690022249706 124.12660979526117,202.96589030476753 124.25515359593555,184.51866510382388 116.15689419955015,181.66770382528193 109.47261660220101,185.3571817779448 110.88659840123728,204.64289606327657 114.87145619979128,208.5 120.27029579784721,208.16460017266218 124.64078499563038,205.14599731226917 124.64078499563038,187.20191630290356 122.06990899704397,182.84162991598714 116.92815699893981,181.66770382528193 109.85824800189584,187.36961929430254 111.14368600212038,205.31369767943397 114.61436859983951,208.3323000984965 124.51224119542167,203.80439349031076 124.38369739567861,186.86651024629828 121.94136519683525,183.00933354522567 116.79961319919676,181.83540762588382 111.9149488019757,183.34474073001184 109.72970420215279,186.86651024629828 110.50096700200811,204.13979459286202 117.05670079914853,208.16460017266218 124.51224119542167,204.81059650389943 124.12660979526117,186.86651024629828 122.19845279678702,183.51244428521022 115.51417519990355,181.83540762588382 109.72970420215279,185.69258827588055 110.50096700200811,203.13359099067748 116.79961319919676,208.3323000984965 121.94136519683525,207.32610017526895 124.64078499563038,203.6366929024225 123.74097839556634,185.5248850393109 118.85631399834529,181.5 110.62951080175117,185.0217751818709 110.62951080175117,203.6366929024225 113.58601820049807,207.6615002474282 120.3988395971246,207.99690022249706 124.51224119542167,203.46899228950497 124.38369739567861,188.87894511432387 120.1417519976385,182.170815154328 110.88659840123728,184.6863684875425 110.37242320226505,202.2950873146765 114.3572810003534,207.49380022357218 120.7844709972851,207.99690022249706 124.12660979526117,205.31369767943397 124.76932879537344,191.89759079378564" stroke="#4dd2ff" stroke-linecap="round" stroke-linejoin="round" stroke-width="0.5"><title>2023-08-25 3.1km</title><desc>1692968645000</desc></polyline><polyline fill="none" points="149.35483870934695,190.31280009931652 148.91935483831912,194.1951437544776 158.1370967742987,194.57390774285886 158.5,199.68719990062527 131.5,199.59250967216212 131.93548387056217,195.04736241674982 147.90322580607608,195.04736241674982 155.8870967742987,193.43761511310004 158.06451612897217,194.38452577602584 158.2096774186939,199.21374861942604 149.06451612897217,199.30843890324468" stroke="#4dd2ff" stroke-linecap="round" stroke-linejoin="round" stroke-width="0.5"><title>2023-08-24 1.1km</title><desc>1692883156000</desc></polyline><polyline fill="none" points="175.3379449674394,208.5 175.41746143030468,208.11098019758356 175.6162525875261,208.26658822098398 175.03975823160727,192.00481134827714 174.56265945418272,189.0220269482379 175.3379449674394,188.4514016063913 174.58253856992815,187.7510861771152 174.84096707426943,184.94979680079268 174.3837474125903,181.5" stroke="#4dd2ff" stroke-linecap="round" stroke-linejoin="round" stroke-width="0.5"><title>2023-08-21 1.2km</title><desc>1692620048000</desc></polyline><polyline fill="none" points="25.56658891425468,229.02468051756296 25.206032332440373,229.79751953664527 25.46357274800539,238.5 25.32192551944172,227.69740137329063 25.0,225.54684058270504 25.090139145439025,223.09380802355008 24.510673210432287,212.23935023228114 24.832598729874007,211.65123111658613 25.373433602566365,211.5 24.74245958449319,211.56721385417768 24.43341108574532,212.12172665009712 24.459165127307642,215.81841020203137 25.012877020810265,222.64015927595756 24.845475750684272,225.00919409366907 25.193155311630107,227.12616259037895 25.527957851823885,238.4832004797354 25.244663394754753,230.80556261688616" stroke="#4dd2ff" stroke-linecap="round" stroke-linejoin="round" stroke-width="0.5"><title>2023-08-10 4.8km</title><desc>1691669615000</desc></polyline><polyline fill="none" points="56.80481283413246,224.0110793687054 59.187165775336325,221.27972575224703 67.20053475908935,221.27972575224703 67.99465240677819,226.64823738660198 42.29411764675751,227.8726285097655 41.5,223.8227105255355 50.5962566845119,220.62043176451698 56.44385026721284,222.31575779797276 67.34491978632286,221.93901906500105 68.5,225.89476476906566 53.62834224617109,227.6842607963481 42.87165775382891,227.2133412710973 41.572192512918264,226.83660540293204 41.5,225.14129127009073 43.16042780736461,222.4099424466258 51.39037433126941,223.1634191412013 61.56951871654019,221.27972575224703 67.85026737954468,221.84483434748836 67.41711229970679,226.55405335745309 48.86363636376336,227.9668123460142 41.93315507983789,227.11915732483612 41.93315507983789,223.54015715781134 43.95454545458779,222.59831170312827 58.32085561519489,223.35178817703854 60.5588235296309,222.12738845899003 68.06684491969645,222.22157313558273 68.06684491969645,226.64823738660198 52.25668449187651,227.02497336477973 47.05882352916524,229.19120096275583 42.51069518737495,227.4958930273424 41.64438502630219,224.67036988545442 42.58288770029321,223.7285260835779 52.04010695172474,223.25760366610484 53.33957219263539,222.03320376906777 58.39304812811315,223.7285260835779 68.28342245984823,222.59831170312827 68.06684491969645,226.74242140172282 47.49197860946879,227.7784446599544 42.0775401070714,226.45986931480002 42.00534759322181,223.54015715781134 43.59358288766816,222.4099424466258 58.97058823565021,223.54015715781134 68.5,222.69249631051207 67.9224598929286,226.9307893908117 51.1737967915833,227.4958930273424 48.64705882361159,229.00283363478957 43.08823529398069,227.8726285097655 42.22192513337359,225.51802812964888 43.23262032074854,223.25760366610484 58.68181818164885,223.91689495416358 68.2112299464643,222.5041270814836 68.42780748661608,227.02497336477973 54.4224598929286,226.9307893908117 50.8850267380476,227.4958930273424 49.4411764703691,229.3795682354248" stroke="#4dd2ff" stroke-linecap="round" stroke-linejoin="round" stroke-width="0.5"><title>2023-08-08 4.7km</title><desc>1691498421000</desc></polyline><polyline fill="none" points="86.92443649237975,211.5 87.12414216611069,220.33470591754303 88.19529077969491,220.68997891817708 88.14082559593953,221.21104457628098 81.8047092204215,221.0215663490817 82.53091167018283,222.60843965646927 82.82139265025035,233.33719011524227 83.31157930393238,237.0080122128129 83.8380760801956,238.5" stroke="#4dd2ff" stroke-linecap="round" stroke-linejoin="round" stroke-width="0.5"><title>2023-08-04 1.6km</title><desc>1691107871000</desc></polyline><polyline fill="none" points="114.43455497385003,223.06356320006307 122.06806282722391,221.3115291815484 127.51047120429575,222.2336529561435 128.14659685874358,227.3975211729994 117.47382198972628,226.75203995860647 101.85340314148925,228.13521318056155 101.92408376955427,225.00001618842361 103.97382198972628,222.69471433776198 109.41623036656529,221.95701596525032 114.71727748727426,222.8791387960664 122.28010471211746,220.48161663144128 128.0052356023807,222.51028982555727 128.35863874363713,227.30530961160548 101.85340314148925,228.04300172673538 101.92408376955427,224.72338041168405 104.11518324632198,222.69471433776198 110.75916230352595,221.49595404439606 114.01047120429575,222.6025020882371 127.43979057623073,222.6025020882371 128.5,227.3975211729994 102.70157068083063,228.50405886070803 101.5,226.56761663331417 102.77225130912848,224.26232051325496 110.40575916250236,222.04922830912983 127.36910994793288,222.51028982555727 127.93455497385003,227.21309803659096 102.8429319371935,228.50405886070803 102.20680628274567,224.53895649279002 107.57853403151967,222.97135100484593 118.95811518328264,223.89347235218156 128.14659685874358,222.8791387960664 128.21727748727426,226.9364632302313 103.97382198972628,228.41184746084036 101.6413612565957,227.02867484587478 102.41884816787206,224.6311684589018 108.78010471211746,222.69471433776198 128.07591623067856,223.34019970556255 128.14659685874358,226.8442516013165 112.52617801073939,227.58194425608963 108.07329842960462,229.51838336855872 104.75130890053697,228.96511565742549 102.91361256549135,228.04300172673538 102.41884816787206,225.00001618842361 107.64921466005035,222.6025020882371 118.88743455521762,224.3545325200539 127.72251308895648,223.06356320006307 128.28795811533928,227.30530961160548 112.87958115199581,226.9364632302313 107.86125654471107,228.50405886070803" stroke="#4dd2ff" stroke-linecap="round" stroke-linejoin="round" stroke-width="0.5"><title>2023-07-26 4.8km</title><desc>1690377436000</desc></polyline><polyline fill="none" points="140.5,223.49708411691245 155.62000000011176,221.24268283619313 158.4279999998398,221.8062838979531 157.8519999999553,226.78473846788984 140.21200000029057,226.97260392288445 133.660000000149,229.22698509308975 131.78799999970943,227.25440200173762 132.1480000000447,223.5910173318116 138.34000000031665,221.24268283619313 142.73199999984354,222.74561790260486 157.8519999999553,221.90021736058407 157.70800000010058,226.31507459114073 133.15599999995902,228.47552558220923 131.5,226.50294018298155 132.07599999988452,223.7788837206317 137.90800000028685,220.96088211983442 142.15599999995902,220.77301490691025 145.39600000018254,222.74561790260486 151.73199999984354,220.96088211983442 157.99599999981,221.99415080901235 158.0679999999702,226.87867120222654 131.9320000000298,226.97260392288445 131.9320000000298,223.5910173318116 133.15599999995902,223.02741783601232 148.42000000039116,222.65168456389802 154.03599999984726,220.96088211983442 158.2839999999851,221.99415080901235 157.92399999964982,226.69080572010716 131.9320000000298,227.16046932234894 132.07599999988452,223.49708411691245 135.02799999993294,222.27595107199159 147.84400000050664,222.46381784550613 154.03599999984726,220.77301490691025 158.5,221.99415080901235 157.92399999964982,226.87867120222654 132.3640000000596,227.72406519192737 132.8680000002496,223.21528438961832 145.10800000000745,222.65168456389802 152.52400000020862,220.86694852029905 158.2119999998249,222.08808424370363 158.14000000013039,226.78473846788984 131.9320000000298,226.78473846788984 132.29200000036508,223.21528438961832 141.5800000000745,224.530348726199 153.10000000009313,220.86694852029905 158.3560000001453,221.90021736058407 158.2839999999851,226.87867120222654 133.08399999979883,227.4422673190711" stroke="#4dd2ff" stroke-linecap="round" stroke-linejoin="round" stroke-width="0.5"><title>2023-07-24 4.9km</title><desc>1690201802000</desc></polyline><polyline fill="none" points="178.09070937347133,211.80918372313317 178.0512114901794,211.5 176.92552181414794,212.1441321441962 176.76753028074745,213.0716782946256 177.20200699777342,218.81720258526911 178.24870090687182,219.30672289905488 178.28819879039656,219.71894947676628 173.64719749463256,219.92506240401417 171.13908190082293,219.64165706688073 171.9487885098206,220.54339973890455 172.1462779266294,221.72854023214313 172.38326522696298,232.72935526633228 173.50895490287803,238.5 172.77824406058062,235.69198665853764 173.64719749463256,234.919131097442 172.91648665233515,212.35025393293472 177.93271784007084,212.01530590372568 178.54493503225967,211.88647956910427 178.6436797407223,211.52576533101092 178.86091809917707,211.96377538118395" stroke="#4dd2ff" stroke-linecap="round" stroke-linejoin="round" stroke-width="0.5"><title>2023-07-24 3.0km</title><desc>1690157385000</desc></polyline><polyline fill="none" points="25.18140674883034,259.79373846709495 25.68675412045559,268.5 25.323940622911323,256.86896365902066 25.05183049966581,255.58406809056032 25.298025373078417,254.48513291648123 25.10366099938983,253.94411483879958 24.559440752957016,242.70050969385193 24.88338137581013,241.85508163082704 25.492389746708795,241.58454334440466 24.948169500450604,241.5338173451819 24.507610253291205,242.22707074056234 24.507610253291205,245.8454477910127 25.012957624916453,253.8595805353325 25.12957624916453,252.91279211294022 24.455779753625393,242.59905865287874 24.689017002121545,241.92271610349417 25.298025373078417,241.56763468044664 24.844508501060773,241.5 24.35211875429377,242.37924775850115 24.31324587960262,245.72709145543922 24.805635626311414,254.1300900886199" stroke="#4dd2ff" stroke-linecap="round" stroke-linejoin="round" stroke-width="0.5"><title>2023-07-22 4.9km</title><desc>1690030226000</desc></polyline><polyline fill="none" points="51.78209478687495,252.69520053523593 47.11297741951421,249.89641083835158 49.132055200170726,264.3841881727567 53.04401839990169,267.3475742052542 59.353636464104056,266.03051470941864 62.5084454966709,260.59762800252065 61.37271424476057,246.76834353117738 58.97505938028917,242.65245225431863 54.684519096743315,241.5 48.12251631030813,244.7927175963996 49.384439922403544,263.23175816470757 51.90828714799136,267.0183094756212 55.5678656254895,268.00610337546095 62.88702258048579,262.0793269771384 62.12986841285601,250.0610457189614 57.20836632279679,241.66463610855862 51.65590242575854,242.15854428964667 47.61774686444551,246.10980193840805 48.627285754773766,262.73785922897514 54.305942012928426,267.8414711188525 61.87748368969187,263.72565688437317 61.62509896699339,246.76834353117738 54.053557289764285,242.48781628976576 47.87013158714399,246.93297886964865 48.87967047793791,264.71345367317554 54.053557289764285,268.5 62.63463785732165,262.9024922319222 62.00367605080828,250.22568057558965" stroke="#4dd2ff" stroke-linecap="round" stroke-linejoin="round" stroke-width="0.5"><title>2023-07-18 1.7km</title><desc>1689685608000</desc></polyline></svg>