<?xml version="1.0" encoding="utf-8" ?>
<svg baseProfile="full" height="300mm" version="1.1" viewBox="0,0,200,300" width="200mm" xmlns="http://www.w3.org/2000/svg" xmlns:ev="http://www.w3.org/2001/xml-events" xmlns:xlink="http://www.w3.org/1999/xlink"><defs /><rect fill="#222222" height="300" width="200" x="0" y="0" /><text fill="#FFFFFF" style="font-size:12px; font-family:Arial; font-weight:bold;" x="10" y="20">Over 10km Runs</text><text fill="#FFFFFF" style="font-size:4px; font-family:Arial" x="10" y="280">ATHLETE</text><text fill="#FFFFFF" style="font-size:9px; font-family:Arial" x="10" y="290">Yunlong</text><text fill="#FFFFFF" style="font-size:4px; font-family:Arial" x="120" y="280">STATISTICS</text><text fill="#FFFFFF" style="font-size:3px; font-family:Arial" x="120" y="285">Number: 52</text><text fill="#FFFFFF" style="font-size:3px; font-family:Arial" x="120" y="290">Weekly: 1.8</text><text fill="#FFFFFF" style="font-size:3px; font-family:Arial" x="141" y="285">Total: 267.9 km</text><text fill="#FFFFFF" style="font-size:3px; font-family:Arial" x="141" y="290">Avg: 5.2 km</text><text fill="#FFFFFF" style="font-size:3px; font-family:Arial" x="167" y="285">Min: 1.1 km</text><text fill="#FFFFFF" style="font-size:3px; font-family:Arial" x="167" y="290">Max: 39.1 km</text><polyline fill="none" points="24.649229804315837,54.64754165488921 24.461676744074794,54.63965894136345 23.94741835311288,54.93131857664412 23.83246647749911,55.238741894743725 23.26980729677598,55.293920254014665 23.08225423656404,55.04955852119747 22.943101966084214,53.98538971275411 22.325991896912456,45.502821385623974 22.356242390495026,36.64831231826611 22.192889725149143,34.25900216214359 22.223140218731714,33.10767968967775 22.162639231566573,32.23234276774747 22.05978755338583,32.350632369474624 22.03558715849067,32.027306844749546 22.12028854052187,31.33333333333212 22.15658913285006,32.508351435699296 22.01743686234113,33.3757980726441 22.1747394289996,33.588714664532745 22.192889725149143,34.069745357996 22.313891699479427,41.14276798822175 22.198939823865658,43.13755576710537 22.277591107180342,44.69075852201058 22.126338639267487,45.75511027728862 22.465144167392282,47.73396043872708 22.5135449571535,50.34340908851664 22.876550880173454,54.44259072967907 23.106454631430097,55.33333333333212" stroke="#4dd2ff" stroke-linecap="round" stroke-linejoin="round" stroke-width="0.5"><title>2024-12-08 7.1km</title><desc>1733648293000</desc></polyline><polyline fill="none" points="42.0,44.2186389037015 47.055611728996155,43.786533470396535 47.674418604627135,43.67587149207975 48.02224469158682,43.718028476145264 48.86349848328973,43.5441306000248 50.214357937293244,43.50724306419943 50.81698685539595,43.380771227079094 53.76541961575276,43.07512912726088 54.64307381192339,43.090938264755096 55.18099089988391,42.98027415701654 55.5975733063533,43.00662278482923 57.75733063700318,42.82745173701187 57.91911021232954,42.885418937898066 58.723963599593844,42.79583322461258 58.83720930230629,42.85907022174797 60.79878665317665,42.643010024839896 64.53589484326949,42.52180495871653 64.83923154701188,42.458567371577374 66.0,42.46910697711792 65.07785642062663,42.50599557230453 64.86349848330428,42.448027762966376 64.05864509605453,42.542884129841696 60.97269969666377,42.62720069142597 57.91506572293292,42.86960971050212 57.21132457026397,42.83799123498102 53.215369059631485,43.090938264755096 52.616784630925395,43.23322019118132 48.71789686550619,43.60209665167349 48.725985844270326,43.54940024492316 47.72699696662312,43.696949990269786 45.91506572293292,43.79180307997012 45.57937310413399,43.876116728537454 43.40748230533791,44.07636085576087" stroke="#4dd2ff" stroke-linecap="round" stroke-linejoin="round" stroke-width="0.5"><title>2024-11-23 9.9km</title><desc>1732350310000</desc></polyline><polyline fill="none" points="75.90177556918934,41.80613156873733 79.36307014292106,39.47885256778682 82.26609139842913,55.042427696927916 87.29055126244202,50.678832982317545 90.75184583710507,51.260646713140886 92.64997511869296,48.93338975543156 92.20335646439344,37.1515681403107 90.30522718187422,33.36971937358612 85.50407664431259,31.33333333331393 82.154436734505,32.49698300776072 78.91645148862153,39.91521779366303 82.04278207104653,54.16971028014086 92.09170180000365,48.06066699733492 92.20335646439344,37.29702357581118 87.73716991767287,31.624245878774673 82.60105538927019,32.06061453890288 78.8047968246974,35.55155694944551 81.03789009805769,53.87880430498626 82.26609139842913,50.969739890191704 91.42177381832153,48.3515746681951 90.52853650925681,33.51517536013853 87.06724193552509,31.33333333331393 83.04767404403538,32.20607071655104 79.36307014292106,35.55155694944551 79.02810615208,40.35158282879274 81.03789009805769,53.58789824490668 84.722493999172,49.3697508481564 90.75184583710507,48.49702847196022 92.31501112738624,36.569746186141856 89.74695386365056,33.36971937358612 84.94580332608894,32.35152687272057 79.92134346114472,34.96973406209145 79.13976081553847,42.38795047119493 80.81458077020943,53.73335128527833 87.848824581597,48.49702847196022 91.19846449093893,49.80611175019294 92.98493910999969,47.47885140153812 90.64019117318094,33.80608727037907 83.04767404403538,32.64243912190432 79.13976081553847,38.75157676736126 80.9262354336679,53.87880430498626 88.63040722673759,47.62430533213774 90.86350050009787,50.24247246183222 93.09659377345815,47.62430533213774 92.5383204552345,36.424290644179564 90.64019117318094,33.36971937358612 83.4942926983349,31.915158340299968 79.69803413376212,35.11518981563859 79.13976081553847,38.31521103240084 81.37285408889875,54.02425730309915 89.30033520888537,48.93338975543156 92.09170180000365,49.3697508481564 92.42666579131037,37.58793438388966 90.30522718187422,32.35152687272057 85.50407664431259,31.915158340299968 80.2563074529171,34.533366673858836 79.13976081553847,45.29703989601694 81.26119942544028,54.31516323587857 88.96537121804431,49.951565342082176 92.09170180000365,51.260646713140886 93.43155776429921,48.06066699733492 92.20335646439344,36.13337949727429 88.63040722673759,31.33333333331393 82.60105538927019,32.06061453890288 79.58637947030365,36.13337949727429 80.70292610675097,52.42427315743407 81.70781807973981,53.87880430498626 92.20335646439344,50.678832982317545 92.76162978261709,40.06067282642471 88.07213390851393,32.06061453890288 79.80968879722059,34.24245497590164 78.35817816993222,42.67885979521088 80.2563074529171,55.33333333331393 92.42666579131037,51.551553451339714 91.42177381832153,35.9879238922731 87.73716991767287,31.33333333331393 79.80968879722059,34.82427828741493 78.02321417955682,47.62430533213774 78.58148749731481,55.042427696927916 91.08680982748047,53.44244518328924 91.53342848224565,37.44247899047332" stroke="#4dd2ff" stroke-linecap="round" stroke-linejoin="round" stroke-width="0.5"><title>2024-11-17 5.0km</title><desc>1731835115000</desc></polyline><polyline fill="none" points="108.72989538870752,37.83941478718771 110.17266334313899,52.44179782678839 117.05355666344985,53.164682493312284 121.27087837550789,49.405676475784276 121.8257891270332,36.10446390416473 117.4974852646701,31.91165341215674 112.5032884995453,32.48997315426823 110.17266334313899,35.81530512869358 109.83971689175814,51.429758408805355 113.83507430367172,55.18875675788149 121.27087837550789,52.15264381264569 121.8257891270332,36.82736047421349 120.0500747221522,33.21287235751515 116.49864591145888,31.622493414732162 109.95069904252887,35.52614626887953 110.06168119283393,50.99602691328619 113.83507430367172,54.75502690614667 121.04891407536343,51.86348971427651 121.93677127780393,37.11651895433897 119.93909257138148,32.923712739604525 116.72061021253467,31.91165341215674 110.28364549344406,34.94782829703763 109.72873474145308,50.27314066683175 112.05935989832506,55.33333333331393 121.38186052581295,51.28518126462586 121.93677127780393,36.97193972481182 117.27552096405998,32.05623337946599 110.39462764374912,34.6586691843695 110.28364549344406,51.429758408805355 113.39114570245147,55.33333333331393 121.49284267658368,51.71891263325233 121.93677127780393,37.11651895433897 117.16453881375492,31.767073424183764 112.94721710076556,32.200813325238414 109.95069904252887,35.67072570952587 109.72873474145308,50.85144970641704 112.3923063497059,55.33333333331393 120.9379319245927,52.58637480204925 121.27087837550789,37.55025651695905 118.27436031633988,32.34539325005608 112.61427064985037,32.48997315426823 110.28364549344406,34.803248751035426 109.83971689175814,50.56229522865033 112.05935989832506,54.89960354421055 121.04891407536343,52.008066773822065 121.60382482688874,36.10446390416473 116.94257451267913,31.767073424183764 110.17266334313899,34.6586691843695 109.83971689175814,50.85144970641704 113.16918140184134,55.18875675788149 120.9379319245927,53.74298984755296 121.7148069771938,37.11651895433897 118.16337816650048,32.05623337946599 112.5032884995453,32.05623337946599 110.06168119283393,34.51408959639957 109.95069904252887,50.70687247783644 112.05935989832506,54.610450246487744 121.60382482688874,51.71891263325233 121.27087837550789,35.95988452702295 116.6096280622296,31.33333333331393 113.28016355261207,31.91165341215674 109.50677044084296,35.95988452702295 109.50677044084296,51.57433553156443 113.39114570245147,54.32129686453845 119.16221751924604,53.59841304033762 121.60382482688874,50.70687247783644 121.8257891270332,36.68278120207833 117.71944956528023,31.622493414732162 111.72641344740987,32.634553036885336 109.83971689175814,34.803248751035426 109.17382398992777,48.53821152599994 111.94837774802,54.4658735661651 121.8257891270332,51.429758408805355 121.7148069771938,41.88762171543203" stroke="#4dd2ff" stroke-linecap="round" stroke-linejoin="round" stroke-width="0.5"><title>2024-11-16 4.9km</title><desc>1731760965000</desc></polyline><polyline fill="none" points="156.0866551126819,44.58213065247401 158.0,43.8763808515796 157.4176776430104,41.270523797837086 158.0,42.356299795472296 157.16811091871932,44.1478232415684 147.64298093598336,54.29962596442783 134.0,42.953475239133695 135.8301559793763,41.59625693093403 142.65164644736797,32.80136191038764 143.77469670725986,32.36704070225824 142.61005199304782,32.47562105196994 140.863084922079,34.701511214720085 143.44194107456133,32.529911214864114 146.9358752167318,32.47562105196994 155.87868284247816,39.533275589259574 157.87521663773805,42.356299795472296 151.88561525125988,50.0109303733916 146.436741767684,53.48532048944617 140.44714038143866,47.350828439957695 138.65857885638252,47.29654044678318 134.04159445432015,42.84489795722766 135.6221837089397,41.813412194052944 139.44887348357588,36.49307164107449 142.31889081466943,34.267192232218804 142.65164644736797,32.80136191038764 145.68804159457795,32.58420136992936" stroke="#4dd2ff" stroke-linecap="round" stroke-linejoin="round" stroke-width="0.5"><title>2024-11-14 2.7km</title><desc>1731589127000</desc></polyline><polyline fill="none" points="176.60331230558222,55.33333333333576 175.6178000216605,54.23083053083246 174.5900514970417,53.75307630915631 173.3933580094017,52.09929765440029 169.98630125640193,49.747219369746745 169.74696255888557,49.54508558553789 170.00038000330096,49.251072227467375 169.81735629349714,49.4348306569882 169.45130887371488,49.159192911844 173.083625577332,44.84078920958564 172.47823946003336,44.06897374858818 169.9299862687476,41.88213750095747 169.26828516385285,41.73512193251372 165.8330709169968,45.85149275528238 167.7477804972441,47.98313173157658 169.01486771943746,48.90193047027424 169.8877500280505,48.53441178188223 173.01323184272042,44.63864752378868 170.1411674724659,42.02915289710654 169.4653876206139,41.75349888801429 168.28277287993114,42.87448808338377 165.8753071577521,45.924998150272586 168.78960776876193,48.699795324821025 169.14157644164516,48.957058180683816 169.60617508977884,48.810050899024645 173.02731058967765,44.804036200017435 172.75981439824682,44.27111635189067 170.7887898304616,42.48857490033697 169.73288381198654,41.69836801350175 169.32460015150718,41.77187584077183 165.8753071577521,45.906621805545 166.170960842981,46.384405893339135 169.33867889846442,48.993809974213946 170.85918356501497,47.50535372947343 174.43518528103596,43.113386125878606 175.49109129945282,42.341560042208584 176.3780523549649,42.01077598203847 180.36233773146523,41.86376056429435 185.3039778979728,41.000041507330025 185.03648170654196,39.1255669359889 184.33254436095012,36.90188922758534 187.20460873126285,35.65220181741461 187.50026241643354,35.303022228552436 186.0360727374209,33.09765501139918 184.24807187943952,31.645767104528204 181.92507863877108,31.33333333333576 177.0679109537159,36.68135705940222" stroke="#4dd2ff" stroke-linecap="round" stroke-linejoin="round" stroke-width="0.5"><title>2024-11-11 6.9km</title><desc>1731328526000</desc></polyline><polyline fill="none" points="23.410468319547363,80.72945254827209 22.991735537187196,80.87327097781235 19.75206611561589,78.85980338523223 11.333333333372138,71.40979389222048 13.030303030391224,67.32511280961626 15.829201101907529,65.68546341967885 18.495867768651806,62.089693166170036 21.2506887052441,59.21302958040906 21.867768595111556,59.12672902218765 26.319559228606522,63.03898290653888 26.782369146007113,63.959501910809195 21.757575757685117,69.82770918225287 20.72176308534108,70.28795332080335 15.763085399521515,65.62793161364971 19.487603305839002,60.76643314799003 20.457300275564194,60.392466744975536 21.294765840284526,59.27056326488673 21.867768595111556,59.241796424787026 26.738292011083104,63.70060637676215 23.652892562095076,67.72783161931147 20.942148760310374,70.40301418711897 15.873278236947954,65.8868246080965 16.181818181765266,64.99508063554822 19.7300275482703,60.593833358128904 20.34710743802134,60.536300061125075 21.42699724517297,59.21302958040906 21.977961432537995,59.27056326488673 26.7162534436211,63.67184018531407 23.322314049699344,68.04425296206318 20.9862258953508,70.37424897684832 15.939393939333968,66.00188805168727 15.961432506912388,65.48410202491505 18.363636363646947,62.1472260083101 21.691460055182688,59.241796424787026 26.782369146007113,63.729372564092046 22.11019283742644,69.5688213804533 21.03030303027481,70.31671854369051 15.763085399521515,65.85805873670324 18.650137741002254,61.8883280861628 20.92011019284837,59.67329858463199 21.95592286507599,59.18426273186924 26.65013774111867,63.47047672679764 26.49586776853539,64.18963098798122 23.807162534445524,67.49770668623387 21.691460055182688,69.94277031792444 20.743801652803086,70.37424897684832 15.917355371871963,66.03065390208212 16.137741046841256,65.11014460139268 19.289256198331714,61.197931959235575 21.88980716257356,59.18426273186924 26.7162534436211,63.47047672679764 23.322314049699344,67.98672184678435 20.942148760310374,70.28795332080335 15.851239669485949,66.00188805168727 15.917355371871963,65.28274042376142 17.041322314180434,64.41975979568087 18.253443526104093,62.26229164197866 21.669421487604268,59.155495879094815 26.76033057854511,63.47047672679764 20.92011019284837,70.54684017501131 22.06611570250243,70.97831750739715 27.77410468319431,64.41975979568087 31.80716253432911,67.98672184678435 33.12947658391204,68.67709411897522 35.33333333337214,70.97831750739715" stroke="#4dd2ff" stroke-linecap="round" stroke-linejoin="round" stroke-width="0.5"><title>2024-10-22 9.9km</title><desc>1729553484000</desc></polyline><polyline fill="none" points="42.782210151082836,71.26863031234461 42.187404515367234,71.29516974162107 42.0,71.19431980749505 42.10999830249057,70.86522860600599 42.30555084027583,70.70068188999721 42.54999151248194,70.64229416687158 42.54999151248194,70.40874233817158 42.708877949407906,70.37158622731658 43.1081310473528,70.39281829530955 48.815820743504446,69.86732097398271 49.28025802070624,69.89916951237683 49.96061789171654,69.76646708534099 51.036156849440886,69.67092103840696 51.2968935664685,69.70807786421938 51.56170429469785,69.61253166410097 54.49499236122938,69.30465886932507 56.57273807503225,69.16133788724619 56.87421490410634,69.20380342222415 57.20828382279433,69.10825589888191 59.99898149720684,68.964934143758 60.04379562045506,69.12948870351465 60.67526735700085,69.11887230274442 60.86267187236808,68.94900946947746 61.62858597862942,68.86938599359928 66.0,68.70483025837893 62.34968596165709,68.800378840333 60.88304192837677,68.93308478822291 60.58563911053352,68.83753655449618 59.974537429981865,68.88531070271347 59.90120522832149,68.83753655449618 59.81157698183961,68.97555058940998 59.62824647768866,69.01270812481744 55.39534883723536,69.22503617114853 47.68324562894122,70.00002303348083 47.12510609405581,69.98940688651783 44.31811237480724,70.32381402908504" stroke="#4dd2ff" stroke-linecap="round" stroke-linejoin="round" stroke-width="0.5"><title>2024-10-19 10.0km</title><desc>1729295146000</desc></polyline><polyline fill="none" points="90.74976424663328,82.0 89.36482083972078,80.85986002665595 88.36340022226796,79.1913501709787 77.07078474981245,69.76399417353969 78.98839869792573,67.92852532058896 83.71851310343482,61.47643345416873 86.95714999362826,58.0 87.76680921623483,58.305928697183845 92.26254858355969,62.338579104689416 90.43016192188952,64.78593898589315 87.38328642665874,68.31786868044583 86.48839991737623,68.76283154317935 81.67305822530761,64.3687775991275 85.10345651034731,59.72431894612964 87.1702182100853,58.0 92.24124176194891,62.394201270348276 89.42874130466953,65.9817965507682 86.59493402566295,68.76283154317935 81.71567186864559,64.53564226374147 81.80089915520512,63.812560991587816 86.65885449049529,58.13905855976918 87.38328642665874,58.05562343621568 91.7511848640861,61.69892302893277 92.17732129700016,62.17171250995307 92.02817354549188,62.86698902089847 87.23413867503405,68.48472987617424 86.44578627415467,68.67940108584298 81.67305822530761,64.42439917023876 81.77959233359434,63.756939241240616 85.99834301951341,58.91778461333888" stroke="#4dd2ff" stroke-linecap="round" stroke-linejoin="round" stroke-width="0.5"><title>2024-10-10 5.0km</title><desc>1728516073000</desc></polyline><polyline fill="none" points="124.53679273359012,79.17373039170343 122.02934868645389,82.0 120.8706056040246,81.70250015682541 116.52057009807322,77.68620112851204 116.06467118044384,76.76888490380952 107.11765492148697,69.6037304540223 106.12987393315416,68.3888472213439 108.80828007450327,65.1656453916803 109.8720442156773,64.96729250611679 109.64409475692082,64.54579185294278 111.98057670972776,61.37210618885001 115.07689019222744,58.04959028336452 115.93170066270977,58.19836104636488 119.863828827627,62.01676590302668 115.66575962747447,67.14916146967153 114.9819112510886,67.7194180424849 114.35505023924634,67.49627439489996 110.8788209920749,64.62017439736519 110.38493049808312,63.80196461176092 112.5694461450912,60.75223876486416 114.94391967460979,58.14877080655424 115.45680595689919,58.0 116.00768381578382,58.371926771331346 119.4079299098812,61.29772221771418 119.80684146285057,62.01676590302668 115.39981859223917,67.29792423904291 114.56400390982162,67.5706556434452 110.57488838036079,64.29784980224213 110.30894734500907,63.72758170794987 113.5192355569452,59.53729203189141 115.30483965110034,58.0 119.6358793687541,61.47128476615762 119.5978877923917,62.48786183448101 115.39981859223917,67.39709934602433 114.37404602742754,67.421893113642 112.83538718044292,66.20699422930193" stroke="#4dd2ff" stroke-linecap="round" stroke-linejoin="round" stroke-width="0.5"><title>2024-10-05 4.9km</title><desc>1728122302000</desc></polyline><polyline fill="none" points="140.26348340930417,62.311420281010214 142.6904711970128,81.85628916317364 151.074610829819,76.97010825487087 151.84683421673253,63.60484268999426 147.98571728076786,59.43714218796231 142.35951831750572,60.155712496547494 140.92538916971534,72.51503985805903 142.58015357051045,81.13773466547718 150.6333403228782,76.2515501974267 151.95715184370056,65.32940326305106 149.53016405552626,59.868284435768146 144.34523559827358,59.29342806356726 141.8079301835969,61.1617100489093 140.92538916971534,70.50306688883575 142.8007888244465,80.85031271987827 150.3023874424398,78.11980005842634 151.84683421673253,65.32940326305106 148.09603490773588,59.29342806356726 143.0214240779169,59.868284435768146 141.4769773031585,61.8802791009075 140.59443628927693,72.22761539934436 141.91824781056494,79.9880463804584 144.56587085220963,80.56289069063496 150.8539755763486,76.97010825487087 151.95715184370056,63.31741563451942 147.6547644007951,59.29342806356726 141.8079301835969,60.73056836659089 140.70475391624495,73.66473685501842 142.58015357051045,81.28144560719375 150.96429320285097,77.54495432419935 151.95715184370056,65.04197671019938 151.18492845678702,61.59285154286772 147.76508202776313,59.29342806356726 141.8079301835969,61.1617100489093 141.14602442318574,79.55691292777192 142.8007888244465,80.70660171582131 151.29524608328938,77.11381980392616 152.06746947020292,64.32340996188577 148.4269877881743,59.29342806356726 141.58729492966086,61.1617100489093 141.25634205015376,78.40722279984038 143.35237695788965,81.13773466547718 151.73651659069583,76.97010825487087 151.84683421673253,62.598847629269585 147.98571728076786,59.43714218796231 141.14602442318574,61.8802791009075 140.3738010362722,70.50306688883575 142.13888306356966,79.12577928690007 143.90396509179845,80.13175748934736 151.51588133675978,77.11381980392616 151.95715184370056,63.74855618615402 148.09603490773588,59.43714218796231 141.58729492966086,61.1617100489093 141.03570679668337,76.68268509500194 144.676188478712,81.28144560719375 151.4055637102574,78.26351143943612 151.84683421673253,64.03598311595852 150.19206981547177,60.29942649556324 147.1031762668863,59.14971391798463 141.03570679668337,61.8802791009075 140.4841186623089,70.79049184994074 142.8007888244465,81.71257830527611 151.4055637102574,78.83835675474256 151.62619896326214,64.03598311595852 148.53730541467667,59.29342806356726 141.25634205015376,60.586854430323 141.58729492966086,80.85031271987827 151.074610829819,79.41320173512213 152.06746947020292,74.81443251145538 151.51588133675978,61.8802791009075 147.76508202776313,59.00599975133082 143.79364746483043,59.00599975133082 140.70475391624495,62.4551339657628 141.69761255662888,79.84433525032364 148.4269877881743,80.85031271987827 151.84683421673253,75.3892798369634 151.074610829819,62.311420281010214 146.55158813344315,58.71857135556638 142.13888306356966,59.580856291460805 139.71189527586102,61.30542390153278 141.58729492966086,79.26949052140117 145.44841186655685,81.56886742723873 150.19206981547177,80.99402370338794 152.06746947020292,75.96412682766095 150.96429320285097,61.8802791009075 148.9785759211518,59.724570373946335 143.13174170441926,59.868284435768146 140.59443628927693,63.892269661300816 141.58729492966086,79.41320173512213 149.3095288015902,81.13773466547718 151.84683421673253,77.54495432419935 151.074610829819,61.017996175796725 145.8896823725663,58.71857135556638 141.03570679668337,61.8802791009075 141.58729492966086,79.12577928690007 144.23491797130555,81.42515652748989 149.41984642855823,81.13773466547718 151.95715184370056,75.10185621597338 151.074610829819,60.155712496547494 144.12460034526885,59.29342806356726 140.81507154321298,63.60484268999426 141.25634205015376,78.83835675474256 144.23491797130555,82.0 147.21349389385432,81.85628916317364 151.73651659069583,76.97010825487087 150.96429320285097,60.01199847640237 144.34523559827358,59.00599975133082 140.70475391624495,62.598847629269585 140.70475391624495,77.25753133132821 144.34523559827358,80.99402370338794 147.98571728076786,81.42515652748989 152.06746947020292,76.68268509500194 151.51588133675978,61.30542390153278 146.8825410134159,58.862285564187914 140.92538916971534,62.598847629269585 141.14602442318574,75.67670337448362 143.6833298378624,79.55691292777192 148.9785759211518,80.56289069063496 152.28810472413898,75.3892798369634 152.06746947020292,62.4551339657628 147.4341291473247,58.0 141.03570679668337,61.8802791009075 141.14602442318574,77.54495432419935 145.33809423912317,81.28144560719375 151.29524608328938,78.55093413888244 152.28810472413898,63.1737020756118 148.2063525347039,58.71857135556638 141.69761255662888,60.155712496547494 140.92538916971534,76.82639668538468 147.1031762668863,81.13773466547718 151.074610829819,79.26949052140117 152.28810472413898,62.74256127199624 147.76508202776313,58.1437143132207 141.14602442318574,61.449137732735835 140.15316578233615,75.10185621597338" stroke="#4dd2ff" stroke-linecap="round" stroke-linejoin="round" stroke-width="0.5"><title>2024-09-08 8.9km</title><desc>1725751236000</desc></polyline><polyline fill="none" points="176.8274145197356,58.544524839147925 178.7563887576107,58.0 178.17769648635294,58.293205810914515 178.78853832837194,69.14161050962866 184.1896661943756,67.54997831163928 185.44349944894202,68.34579551243223 184.9934054601472,70.35627125645988 185.28275159583427,81.2042206080805 172.32647463132162,82.0 168.43637658492662,81.5392858836858 168.8221714325482,73.28818983834935 167.92198345484212,67.59186348234653 167.8898338843137,59.34036697872216 168.66142357932404,58.58641132249613" stroke="#4dd2ff" stroke-linecap="round" stroke-linejoin="round" stroke-width="0.5"><title>2024-08-20 2.0km</title><desc>1724107925000</desc></polyline><polyline fill="none" points="27.07246376812691,85.50644207665755 22.05797101452481,85.20325075194705 22.20289855072042,90.39530371899309 22.014492753660306,90.69848283087777 16.753623188415077,89.63735281951085 16.362318840634543,90.4332011470251 16.40579710144084,94.92396747297607 15.942028985533398,94.94291552266805 12.101449275447521,92.9723034396884 11.347826086974237,93.18073498852027 11.33333333331393,106.53859951334016 28.898550724610686,108.13008258138143 28.985507246339694,105.23129515277105 28.40579710144084,98.50509937747847 29.318840579711832,98.33457154268399 33.043478260864504,98.54299442119373 34.15942028979771,98.29667643764697 34.94202898547519,98.56194193891133 34.69565217389027,98.08825316092407 35.33333333331393,97.70930088516616 34.18840579706011,91.96803761643241 33.26086956518702,89.35312008316396" stroke="#4dd2ff" stroke-linecap="round" stroke-linejoin="round" stroke-width="0.5"><title>2024-08-18 4.9km</title><desc>1723938111000</desc></polyline><polyline fill="none" points="62.394543210742995,105.4412342596188 61.051416297093965,107.63243421517836 59.856033343821764,108.66666666666424 58.83525688940426,108.17584559987154 56.713116365717724,106.07230395741499 55.89380894834176,105.54641277355404 55.41028325946536,104.77510152639297 55.16852041496895,104.84522093593841 48.976705342764035,99.7263961351855 42.771459001349285,93.99375382783182 42.18048315937631,92.34578751415393 42.32822711986955,91.13609567852836 42.113326813676395,90.55754308896576 42.38195219641784,89.06731899941951 43.053515653300565,88.80433635233203 44.41007383615943,86.92837671349116 46.679958320281,84.66666666666424 49.366212147753686,86.61279182999715 50.37355733307777,87.98032031776529 51.233158557792194,88.6640787044089 52.0793285134132,88.57641759097896 53.52990558021702,89.89132755313767 54.1746064988547,91.04843637490558 50.72277033061255,95.20341679362173 51.32717744179536,95.57157266194554 54.67156345694093,91.60945480884402 55.98782783234492,92.34578751415393 58.82182562031085,94.95797891922848 59.5739766919869,95.36119801865425 61.13200391182909,97.04418481619359 61.88415498356335,97.41233502503746 64.06002058373997,99.51602879122947 64.83903419371927,99.9367631095447 65.88667318638181,101.2164875750459 65.37628495920217,102.18065450875292 63.710807586146984,103.77589547890966 63.495907280012034,104.31932436341594 62.66316859354265,104.93287014015368" stroke="#4dd2ff" stroke-linecap="round" stroke-linejoin="round" stroke-width="0.5"><title>2024-08-14 5.1km</title><desc>1723587841000</desc></polyline><polyline fill="none" points="93.33172353397822,106.42306154813559 91.45003558153985,108.63634800253203 91.12480556510855,108.66666666666424 89.893577645591,107.37811561416311 89.18504082399886,107.01428653227777 88.6971957993228,106.34726322916686 88.15127398597542,106.13502764089208 87.33819894480985,105.13448258060816 82.09967260813573,100.96544077641738 76.82630019827047,96.08365850033442 76.38491660449654,95.00720970110706 76.46622410864802,94.23397900972486 76.16422480763867,93.21815736526332 76.3384551735362,90.79227431637992 77.84845167858293,89.10928455879184 78.22014312597457,89.07896016810992 77.87168239400489,89.04863576860953 77.38383736932883,88.44214591258788 77.09345342608867,88.57860643993627 76.36168588901637,89.59447360164631 76.55914697045228,90.51935891671747 76.24553231173195,90.67097867202392 76.00160979933571,87.19883060149004 76.09453266119817,85.10638820047461 78.76606493938016,84.66666666666424 79.7301396310213,84.86378344726108 81.7976733071846,84.72731802373892 79.70690891554113,87.53240446747805 84.46920558525017,91.62617802499153 86.04889423662098,92.50556011506706 86.75743105827132,93.65784258386702 89.94003907655133,96.37172036554693 87.01296892832033,100.02548816588387 87.54727538395673,100.17709400269814 89.40573262091493,97.87266132943478" stroke="#4dd2ff" stroke-linecap="round" stroke-linejoin="round" stroke-width="0.5"><title>2024-08-10 5.2km</title><desc>1723241479000</desc></polyline><polyline fill="none" points="122.60018570098327,105.9599260431205 121.47706592379836,107.40829430829763 120.91550603520591,108.61234609827079 120.15338904364035,108.07139679847023 119.61857010202948,108.0364967593996 118.5756731661968,106.30893205354369 116.73054781794781,105.33171264947305 116.28932219126727,104.49408964168106 114.85868152265903,103.48195398820826 112.11773444747087,100.75961545198516 110.68709377897903,99.9568627325134 109.13611884863349,98.35134107577323 106.88987929426366,96.43166723161994 106.71606313827215,96.60618431313924 106.16787372319959,95.96046983533597 105.1249767873087,95.33220374280063 104.73723305470776,94.54686647040944 104.02859795722179,94.1454698663947 103.50714948924724,92.92381971084978 103.73444753937656,92.26063295438507 103.33333333331393,90.8818907827008 103.76118848647457,89.27624688664946 104.77734447532566,88.47341682731349 105.29879294330021,87.53095724885497 107.77233054779936,84.77334753052128 108.2804085421376,84.72098723506497 108.3338904362754,85.00024187825329 108.58792943356093,84.96533508362336 109.76453110488364,85.83800188182795 110.20575673162239,86.51867754884734 111.4358402970829,87.42623905788787 111.85032497672364,87.46114513176872 112.451996285934,88.78756836415414 113.66870937787462,89.0668134794978 114.97901578451274,88.92719100357499 115.84809656447032,89.4682271866186 116.08876508817775,90.37576623685163 115.88820798508823,90.6724601968308 113.25422469811747,93.46483775301022 112.13110492104897,95.38455937698018 112.5723305477295,95.55907799155102 113.33444753935328,94.87845394988835 114.87205199623713,92.76674949677545 115.84809656447032,91.75451426301152 116.24921077064937,91.66725220246008 121.38347260904266,95.85575904986763 122.38625812443206,97.11228240463242 123.9773444753373,98.298986744594 124.73946146701928,98.38624395040097 124.9266480965307,98.9621399066964 125.60854224697687,99.36352029146656 125.82246982358629,99.83470423608378 127.33333333331393,100.55020222019812 127.10603528318461,101.6321666243748 124.08430826361291,104.80819895930472" stroke="#4dd2ff" stroke-linecap="round" stroke-linejoin="round" stroke-width="0.5"><title>2024-08-09 5.2km</title><desc>1723159591000</desc></polyline><polyline fill="none" points="153.68620953033678,105.87867668673425 153.84845142025733,106.21394471526582 152.9696411836776,106.65508543748729 152.32067362440284,107.48442562494893 152.26659299444873,107.94320710730244 151.46890370280016,108.66666666666424 150.07632748183096,106.74331338818592 149.60312196979066,106.6903766254909 148.91359393805033,105.87867668673425 147.89958212670172,105.4198873472269 147.48045724461554,105.03167961924191 147.52101771708112,104.59053295618651 147.2235742523335,104.76699181513686 135.47455739753786,94.69077721823851 134.62278747593518,93.45545652112196 134.32534401130397,92.5201338569168 134.06846101913834,90.24356345443084 134.2036625939072,88.97290081054234 135.4339969251305,88.10813662818691 137.24569802812766,85.69029364096787 138.47603235929273,84.66666666666424 138.96275802882155,84.68431548123772 142.23463614028879,87.52574092726718 143.03232543187914,87.84341165846126 143.20808747923002,88.60228834931331 145.68227629904868,90.08473135649547 145.96619960624957,90.68476262810145 149.9005654345383,94.0025286774835 150.00872669438832,94.30253493480268 146.80444937030552,98.06137357719126 146.61516716552433,98.431956954606 146.831489685399,98.69665866949799 147.42637661466142,98.4848973440603 148.9000737805618,96.47314619782264 150.7117748836754,94.81430859162356 157.93153898086166,101.07894794619642 156.89048685441958,102.7024069968902 155.28158811369212,104.25526041263947" stroke="#4dd2ff" stroke-linecap="round" stroke-linejoin="round" stroke-width="0.5"><title>2024-08-08 4.9km</title><desc>1723122982000</desc></polyline><polyline fill="none" points="188.60170603675942,95.75749357006498 188.63123359582096,95.73822431076587 188.63418635171547,95.79217820123267 188.66666666667152,95.66885486054525 188.62532808400283,95.60333910083682 188.39206036746327,95.76520126981814 188.07020997376821,95.45689151899023 187.99343832021987,95.44532983308636 187.89895013124624,95.53396929519658 187.79855643045448,95.46074541315284 187.72769028872426,95.48386876632867 187.107611548563,96.22380534441254 186.20702099737537,97.08703840234739 183.15682414699404,100.67454757046107 182.98556430447206,100.77087566481168 178.67158792651026,97.11016032717816 177.7650918635336,96.52439863900145 177.60269028872426,96.26619691434462 177.5347769029031,95.96560067169958 176.73458005250723,95.56865422085684 176.3507217847946,95.66885486054525 175.95800524935476,95.67270872368135 175.1755249343987,95.56865422085684 174.35465879265394,95.56094646354722 167.34776902888552,95.83842430506047 166.8812335958064,95.8114474210397 166.5623359580204,95.63031619811045 166.19619422573305,95.842278143371 164.78477690288855,95.90393947974007 164.7404855643108,95.86925499580502 164.66666666667152,94.24674084699109 164.68143044618773,93.6108113490809 169.27001312337234,93.41424821430519 169.37631233596767,93.42195660018479 170.3330052493402,93.86903911897025 170.77296587926685,94.00778732225808 175.52690288714075,94.03091195169873 175.99639107612893,93.94226742849787 177.068241469824,93.46049849572228 177.53772965879762,93.47206105337136 177.9747375328152,93.36799785163566 177.98950131234596,93.2832053090151 179.4835958005424,92.63954392015512 179.66666666667152,92.67808696131397 179.98556430448662,92.61256375775702 181.43241469816712,92.56245766852044 181.4471784776979,92.67423265973412 181.51213910760998,92.69735846072399 184.31135170605558,92.60870944658927 184.36450131234596,92.77829860419479 184.38517060369486,93.42195660018479 184.46489501312317,93.7148735909268 184.6361548556597,94.01164142857124 187.11056430447206,96.14287579409574 187.26410761156876,96.03496934001669 187.41174540683278,96.0850688201208 187.92552493438416,95.54553094215771 188.3625328084163,95.87310882960628" stroke="#4dd2ff" stroke-linecap="round" stroke-linejoin="round" stroke-width="0.5"><title>2024-07-21 16.7km</title><desc>1721568012000</desc></polyline><polyline fill="none" points="13.096474561898503,124.82165516419627 12.032510027405806,123.849524927311 11.713320667040534,122.8377084981039 11.728520160366315,120.99261202907655 11.33333333331393,120.09981439517287 11.454929280036595,118.45308332762215 12.670888748078141,117.71899194444995 14.342833016591612,115.19924261723645 15.63478995137848,114.14767982682679 15.89318133838242,113.45324709449778 16.501161072286777,113.39372412333614 18.309900781023316,114.62386021467682 18.50749419454951,115.19924261723645 21.57779185124673,117.63963047561992 21.74498627812136,118.13563889326178 22.626556892471854,118.39356255285384 24.404897614440415,120.29821437773353 25.11927380191628,120.53629397338955 29.405530926655047,124.504225649609 32.491028076794464,126.90476790188404 33.22060375759611,127.83719846647 35.33333333331393,129.30526762877707 35.27253535983618,129.76155615552852 33.85898247832665,131.1304125176539 32.643023010285106,133.27294254333538" stroke="#4dd2ff" stroke-linecap="round" stroke-linejoin="round" stroke-width="0.5"><title>2024-07-16 2.5km</title><desc>1721136594000</desc></polyline><polyline fill="none" points="62.972857439366635,120.70989569004814 61.76238064782228,122.08276038159966 60.83205787357292,123.35210722979173 59.87001955017331,124.00746314554999 59.01369972387329,124.93184442036 58.12037842356949,124.29029814695969 52.14199741388438,119.15761357152951 52.05213669137447,118.75746144786899 51.95699004398193,115.42502817360582 51.92527449486079,113.21017507698343 52.020421142253326,111.77494988122999 53.07760611301637,111.48513948852633 54.39908732645563,111.33333333333212 54.578808771504555,115.6803160760719 54.69509911825298,116.19088773199837 54.9805390604015,116.79804682487884 59.55814998378628,120.68919893143902 61.48751255546813,122.51047889922847 60.77919862503768,123.42109249213536 59.88059139988036,124.00056470968411 58.99255602443009,124.94564101849392 59.09298859667615,125.05601365826442 59.034843423287384,125.19397909453619 59.748443278542254,125.84241123593529 59.72729957909905,125.9458836247286 58.5802538858552,127.31859582175457 58.2313828454935,127.91871372180321 57.26934452209389,129.0637450719223 56.34430767266895,129.9742320785408 55.60956411799998,130.44326397698023 54.806103540206095,130.643290867225 53.85992299139616,131.7537695476385 53.85992299139616,132.1538113592651 54.90653611245216,133.0711358010085 55.265979002491804,133.25046029805162 55.768141863605706,133.1607981347952 56.32316397325485,132.54005540488288 56.650891314202454,132.07794162135542 56.582174291077536,131.6227206298281 55.29769455161295,130.58811112021067 54.81667538994225,130.657085793875 53.86520891622058,131.76066684899706 53.84406521683559,132.3331393453809 53.69077339605428,132.87801634913558 53.22561200891505,133.69187153886378 52.120853714470286,135.133326340012 51.8618433966185,135.33333333333212 48.774863281985745,132.78835347757558 45.36015582643449,129.49829788225907 45.027142560633365,129.07064276687015 45.30201065304573,129.16721039009644 47.90797160597867,125.62856757935879 48.95458472700557,123.54526570991948 49.04444544954458,123.19344074324908 49.731615680560935,122.77262703991073 51.798412298376206,122.07586166403053 52.37986403229297,121.69643064233969 53.47933640188421,120.5098266427267 54.48894804896554,119.06792459784629 55.863288510998245,117.54318592926211 59.584579608083004,120.69609785199646 61.46108293120051,122.44839096813666 62.50241012740298,121.22041285882733 62.81427969376091,120.7650870019279 62.77199229490361,120.6685021637204" stroke="#4dd2ff" stroke-linecap="round" stroke-linejoin="round" stroke-width="0.5"><title>2024-07-06 16.1km</title><desc>1720267100000</desc></polyline><polyline fill="none" points="76.94487013015896,121.25932820839807 78.64820760162547,120.07413990376517 81.3735475554131,134.00001491617877 88.75467659858987,134.4444545834558 91.93423987878487,129.85190195182804 90.00379074458033,114.00002807821147 84.32599917287007,112.07408257806674 78.98887509619817,116.66671580332331 80.23798924172297,131.92596055741888 83.98533167876303,135.18518692918587 88.98178826132789,134.4444545834558 92.04779571015388,128.81487105682027 90.68512573326007,114.5926259572152 84.32599917287007,111.92593277199194 80.35154507309198,115.03707413899247 79.44309842167422,118.59265257255174 80.80576839856803,132.07410743797664 85.57511331886053,134.88889405620284 89.4360115872696,133.85186831699684 92.16135154105723,127.777839100454 91.70712821558118,116.96301400614902 89.4360115872696,112.81483128061518 81.3735475554131,113.11113061010838 79.2159867589362,118.14820595097262 80.465100904461,132.37040113448165 83.87177584739402,134.740747586824 89.54956741863862,134.29630804958288 92.04779571015388,131.3333728176076 91.59357238421217,117.11116307531483 87.8462299471721,111.92593277199194 84.66666666697711,111.33333333337214 80.01087757945061,114.74077537248377 79.67021008441225,130.1481962982798 81.14643589314073,133.1111349965213 85.91578081296757,135.33333333337214 92.04779571015388,131.48151978489477 91.48001655237749,116.66671580332331 85.80222498159856,111.62963309616316 81.94132671365514,112.96298095607199 79.32954259077087,116.518566669547 80.35154507309198,131.48151978489477 82.84977336460724,134.14816149347462 87.73267411580309,135.03704050334636 92.2749073728919,130.74078473087866 91.02579322690144,114.44447652017698 84.32599917287007,111.77778294484597 79.32954259077087,116.96301400614902 80.465100904461,131.92596055741888 85.57511331886053,135.03704050334636 90.11734657594934,134.14816149347462 92.38846320379525,127.481544060749" stroke="#4dd2ff" stroke-linecap="round" stroke-linejoin="round" stroke-width="0.5"><title>2024-02-29 2.9km</title><desc>1709196138000</desc></polyline><polyline fill="none" points="104.71586775314063,111.33333333337214 113.45966293662786,116.518566669547 113.1189955919981,130.29634343879297 117.6612268560566,135.18518692895304 123.56612749956548,133.85186831641477 125.83724313182756,130.59263765520882 124.92879687901586,115.62967141100671 120.27300983294845,111.62963309616316 115.61722278734669,112.07408257771749 112.55121668381616,115.03707413887605 113.68677450018004,131.62966673041228 118.79678467242047,135.18518692895304 125.38302000518888,132.37040113448165 125.04235266009346,115.62967141100671 120.27300983294845,111.92593277222477 113.00543981045485,114.29632706055418 113.45966293662786,130.29634343879297 115.8443343504332,134.29630804911721 121.86279077501968,135.33333333337214 125.49657578673214,132.22225429676473 125.72368735028431,121.70377346512396 122.77123702829704,112.6666815832723 114.25455340789631,113.11113060975913 112.55121668381616,117.70375913381577 114.70877653453499,133.55557505367324 122.43056968366727,135.33333333337214 125.15590844210237,133.11113499605563 125.95079891337082,128.81487105682027 124.0203506257385,114.29632706055418 121.40856764931232,112.22223236132413 115.16299966070801,112.6666815832723 112.66477246582508,117.11116307496559 114.36810918990523,132.81484151654877" stroke="#4dd2ff" stroke-linecap="round" stroke-linejoin="round" stroke-width="0.5"><title>2024-02-26 2.1km</title><desc>1708947688000</desc></polyline><polyline fill="none" points="141.99349917611107,120.90395406086463 138.7205830104649,126.05732753989287 140.97776657296345,132.83029257005546 145.04069698555395,135.33333333331393 151.47367013944313,133.86095716734417 152.60226192045957,116.92847649700707 146.9593030139804,111.33333333331393 141.09062575083226,114.13090880203526 140.4134706822224,129.14933896629373 143.79924602620304,134.15543257299578 147.97503561712801,134.5971455196268 152.82798027712852,131.7996269177529 152.71512109879404,116.7812362856348 147.52359890425578,111.48057434143266 140.63918903842568,115.16159254137892 140.5263298600912,130.03276905854 142.67065424472094,134.00819488067646 145.604992876295,134.89162070979364 152.48940274259076,132.09410292602843 152.60226192045957,116.92847649700707 151.47367013944313,113.98366818152135 146.39500712323934,111.48057434143266 140.5263298600912,116.48675579886185 140.86490739462897,131.50515082274796 145.4921336984262,134.89162070979364 150.4579375362955,133.71371943224221 153.27941698906943,129.29657736897934 152.48940274259076,115.30883298965637 150.00650082342327,112.06953815789893 146.16928876703605,111.33333333331393 141.09062575083226,114.71987106773304 140.4134706822224,129.59105410944903 144.7021194510162,134.89162070979364 149.5550641110167,134.4499078920344 152.82798027712852,131.50515082274796 153.0536986333318,117.81191731221043 151.9251068518497,114.57263053383213 147.7493172613904,112.06953815789893 142.89637260138988,112.95298323623138 141.20348492916673,115.30883298965637 140.63918903842568,131.65238888101885 144.5892602726817,135.0388582725427 151.9251068518497,132.53581677662442 152.48940274259076,117.22295685479185 150.4579375362955,113.39470548508689 146.9593030139804,112.06953815789893 140.30061150435358,115.75055420410354 140.5263298600912,130.91619837575126 142.7835134230554,134.74438312568236 150.6836558924988,133.86095716734417 152.71512109879404,130.62172202236252 152.82798027712852,121.93463086686097" stroke="#4dd2ff" stroke-linecap="round" stroke-linejoin="round" stroke-width="0.5"><title>2024-01-18 3.0km</title><desc>1705581243000</desc></polyline><polyline fill="none" points="173.82777171116322,114.29632706090342 170.64820936135948,115.48152212542482 170.53465356305242,131.48151978489477 173.25999272009358,134.4444545834558 177.80222464865074,135.18518692953512 182.3444565772079,132.2222542973468 182.3444565772079,116.22226833656896 180.30045220907778,112.51853186439257 176.7802224648185,111.33333333337214 172.0108789401129,113.25928024190944 169.96687457198277,116.51856666931417 170.1939861685969,130.1481962982798 175.4175528860651,134.8888940558536 182.11734498059377,131.9259605569532 182.23090077890083,116.07411913725082 177.4615572541952,111.62963309593033 173.14643692225218,112.66668158350512 170.3075419664383,116.22226833656896 170.76176515920088,130.74078473134432 173.14643692225218,134.4444545834558 176.55311086867005,135.33333333337214 182.3444565772079,131.7778136547422 182.68512397212908,116.8148649155628 178.59711523680016,111.77778294496238 173.48710431624204,112.3703821238596 170.87532095750794,115.18522348930128 170.76176515920088,130.74078473134432 176.09888767590746,135.33333333337214 182.79867976997048,132.2222542973468 182.00378918275237,116.07411913725082 177.3480014554225,112.3703821238596 170.76176515920088,115.0370741385268 170.87532095750794,131.48151978489477 176.89377826312557,135.33333333337214 182.3444565772079,132.5185479504289 182.4580123750493,116.37041751400102 178.14289204357192,111.77778294496238 173.03288112394512,112.51853186439257 170.1939861685969,116.51856666931417 170.42109776521102,129.55560751864687 175.07688549160957,134.8888940558536 182.11734498059377,132.66669474437367 182.4580123750493,116.07411913725082 177.12088985927403,111.33333333337214 170.53465356305242,115.62967141123954 170.76176515920088,130.00004913599696 172.57865793071687,133.2592817042023 176.43955506989732,134.59260109625757 181.0953427972272,134.00001491582952 183.36645876150578,130.59263765567448 181.89023338397965,114.7407753727166 178.48355943802744,111.77778294496238 173.71421591285616,111.92593277210835 170.76176515920088,114.7407753727166 170.53465356305242,127.03710133873392" stroke="#4dd2ff" stroke-linecap="round" stroke-linejoin="round" stroke-width="0.5"><title>2024-01-17 3.3km</title><desc>1705483266000</desc></polyline><polyline fill="none" points="17.664111598860472,151.73591735283844 15.0030483356677,154.00006200524513 19.515286042355,159.88681485748384 24.95311097195372,161.54717497667298 30.390935900155455,159.5849309124751 31.2008247198537,145.09439772111364 28.076967845205218,139.3585054660216 23.333333333488554,138.3018902578624 18.82109562633559,141.16984330583364 18.474000418093055,156.11325919954106 22.754841319750994,160.94340796931647 30.969427913893014,159.13210482965223 30.73803110839799,144.18873264198191 26.457190207205713,138.15094513993245 18.011206807103008,142.67928907775786 18.12690520985052,154.3019475832116 21.482158889528364,161.39623325772118 30.04384069237858,160.33964060922153 31.2008247198537,144.7925094497623 28.308364651631564,138.9056705093244 21.94495250051841,139.05661551700905 18.011206807103008,142.8302335337503 18.474000418093055,157.47174082533456 23.911825346760452,162.0 30.62233270611614,160.1886987137841 31.085126316640526,143.2830667681992 26.91998381819576,138.0 21.597857292275876,138.75472547998652 19.168190834578127,141.77362187986728 18.589698820840567,157.47174082533456 19.862381250597537,160.1886987137841 25.415904582478106,162.0 31.663618330843747,157.7736253888579" stroke="#4dd2ff" stroke-linecap="round" stroke-linejoin="round" stroke-width="0.5"><title>2024-01-13 2.0km</title><desc>1705132259000</desc></polyline><polyline fill="none" points="46.92901515215635,144.90005751594435 48.19374414905906,157.9500393854687 50.26330069079995,160.95001174649224 54.632364499382675,162.0 60.95600948529318,157.20004492392763 60.49610803136602,142.3500416672323 54.7473398623988,138.3000034657307 48.768620966002345,141.7500370168127 48.768620966002345,157.65004166623112 53.59758622851223,161.4000068437308 61.07098484784365,157.80004053679295 60.84103412134573,142.3500416672323 57.046847130171955,138.6000068440335 52.79275868507102,138.45000516576692 48.07876878557727,143.55004991486203 48.42369487602264,156.6000489599537 51.298078960739076,161.5500051653944 53.827536955010146,162.0 59.461329760961235,160.05002095911186 60.95600948529318,156.90004698571283 60.38113266834989,141.90003821253777 54.632364499382675,138.3000034657307 51.528029687702656,138.45000516576692 48.42369487602264,142.20004053774755 48.65364560298622,157.9500393854687 54.402413772419095,162.0 60.84103412134573,157.3500438601477 60.03620657790452,141.4500345599372 54.517389135435224,138.0 48.42369487602264,142.05003938591108 49.34349778294563,156.7500479836017 54.402413772419095,161.10001013393048" stroke="#4dd2ff" stroke-linecap="round" stroke-linejoin="round" stroke-width="0.5"><title>2024-01-11 2.0km</title><desc>1704963338000</desc></polyline><polyline fill="none" points="82.07361134700477,143.8724013985484 80.41014189692214,146.6809272331302 80.60584418475628,158.04259862197796 84.6177410944365,161.87234217108926 88.82534029241651,161.36171066894894 90.9780654637143,158.42557373282034 90.293107454665,144.51070351823 87.45542427524924,141.57450990349753 81.38865333795547,141.95749223983148 77.96386329317465,139.14895120816072 78.94237473467365,138.0 78.74667244637385,141.44684908760246 81.97576020285487,141.95749223983148 80.31229075230658,144.63836388586788 80.70369532890618,156.76601370499702 82.66071821236983,160.97873684577644 87.16187084233388,162.0 90.4888097429648,160.08513060532277 91.1737677520141,146.5532671637484 86.86831741034985,141.57450990349753 83.44352736510336,142.0851529808715 80.50799304107204,145.40432570129633 80.80154647305608,158.04259862197796 84.7155922385864,161.74468432366848 88.23823342798278,161.6170264573302 90.8802143195644,158.42557373282034 90.3909585988149,144.3830431314418 85.10699681565166,141.19152739993297 80.99724876182154,145.14900517085334 81.29080219380558,158.80854867608286 85.30269910395145,161.6170264573302 89.31459601363167,160.72342087037396 91.3694700403139,157.6596233426826 90.6845120312646,144.2553827263182 88.04253113921732,141.19152739993297 85.49840139178559,140.9362056373502 80.99724876182154,144.51070351823 81.09509990550578,157.53196487919195 85.10699681565166,161.2340527464985 88.82534029241651,160.85107886767946 91.1737677520141,157.78728178754682 90.8802143195644,144.63836388586788 89.60814944608137,141.82983147969935 86.67261512158439,140.80854472809006 80.80154647305608,144.12772230233531 80.70369532890618,157.2766478957492 83.14997393265367,160.3404467672808" stroke="#4dd2ff" stroke-linecap="round" stroke-linejoin="round" stroke-width="0.5"><title>2024-01-09 2.6km</title><desc>1704792913000</desc></polyline><polyline fill="none" points="106.07709701033309,146.5063925558934 110.61789218802005,143.31650351092685 111.54933735262603,159.1139533831738 115.50797930220142,161.6962059964426 119.81591318827122,161.54430896171834 123.54169384622946,158.6582610787591 124.12384707434103,154.70891940279398 123.77455513784662,143.16460378828924 120.5144970617257,138.60760177869815 114.92582607408985,138.30380093341228 111.54933735262603,141.0380053386325 111.54933735262603,157.13928528816905 116.55585511215031,162.0 123.19240191020072,160.481029095361 124.00741642853245,144.0760017912835 120.5144970617257,138.60760177869815 114.92582607408985,138.60760177869815 111.89862928912044,141.79750528465956 111.89862928912044,156.37979655980598 115.27511801151559,161.08861772390082 121.32951158098876,161.24051482521463 124.00741642853245,159.1139533831738 124.00741642853245,143.6203028896125 121.32951158098876,139.06330287910532 116.67228575749323,138.0 114.11081155529246,138.30380093341228 111.6657679984346,141.94940520753153 111.78219864377752,158.05067102937028 117.37086963141337,161.54430896171834 124.35670836549252,158.81015853595454 124.12384707434103,144.37980094749946 120.1652051252313,138.30380093341228 115.15868736524135,138.1519004778238 111.31647606147453,142.86080427630804 112.01505993446335,158.81015853595454 117.95302285905927,161.84810300928075 124.35670836549252,158.20256857492495 123.54169384622946,141.3418053833302 119.69948254246265,138.30380093341228 115.15868736524135,138.45570136688184 111.54933735262603,141.49370537279174 111.54933735262603,156.8354898634134 116.09013252984732,161.3924119048752 124.12384707434103,158.6582610787591 124.58956965664402,144.8354995161062 121.32951158098876,138.45570136688184 114.11081155529246,138.9114025348099 111.54933735262603,144.8354995161062 112.59721316257492,160.02533739164937 120.86378899868578,161.08861772390082" stroke="#4dd2ff" stroke-linecap="round" stroke-linejoin="round" stroke-width="0.5"><title>2024-01-08 3.0km</title><desc>1704701613000</desc></polyline><polyline fill="none" points="139.4383549252525,142.43316250981297 140.141388325952,158.7898408395704 146.3515166998841,161.54140643787105 151.741439439822,157.26119015563745 151.15557827288285,142.12742776831146 146.9373778672889,138.4586038897978 140.25856055878103,141.0573554674629 139.6726993918419,156.64972925605252 144.12524426402524,161.69427098077722 148.92930583655834,161.38854187203106 151.97578390641138,157.87265069724526 151.27275050571188,143.04463172599208 146.82020563352853,138.3057359488448 142.36766076181084,138.91720757936127 139.78987162513658,141.66882548783906 139.5555271585472,157.71978559542913 144.8282776651904,161.84713550133165 148.4606169029139,161.69427098077722 152.2101283739321,158.1783808345208 151.85861167265102,143.5032334025018 146.3515166998841,138.0 142.0161440614611,138.91720757936127 139.4383549252525,142.2802951503545 139.5555271585472,157.10832496441435 143.7737275636755,161.69427098077722 148.81213360326365,161.54140643787105 151.85861167265102,158.7898408395704 152.2101283739321,145.18477116385475 147.64041126798838,138.15286798565648 142.0161440614611,139.07007543067448 139.6726993918419,141.51595801615622 140.49290502630174,160.1656245442573 148.22627243585885,161.69427098077722 152.67881730757654,156.80259451456368 150.68688933830708,140.75162032304797 143.53938309662044,138.15286798565648 139.20401045819744,142.73889716283884 139.90704385843128,158.94270578527357 145.99999999953434,162.0 152.3273006072268,157.56692047137767 150.68688933830708,140.9044879062567 144.12524426402524,138.15286798565648 139.32118269149214,144.72617022471968 139.6726993918419,158.02551577694248 142.7191774621606,161.69427098077722 146.9373778672889,162.0 150.21820040466264,161.0828126743436 152.7959895413369,156.03826799918897" stroke="#4dd2ff" stroke-linecap="round" stroke-linejoin="round" stroke-width="0.5"><title>2023-12-29 2.9km</title><desc>1703839119000</desc></polyline><polyline fill="none" points="171.98088272614405,140.56606437894516 170.24540719250217,144.4906210899353 171.86518435692415,159.73587289557327 178.80708649102598,161.24529151665047 182.39373592706397,156.4151441596914 181.81524408282712,141.16984330618288 179.50127670448273,138.6037804275984 174.75764357903972,138.0 170.59250229923055,142.37740009988192 171.63378761941567,160.03775679680984 179.15418159775436,161.24529151665047 182.62513266457245,157.3207985110348 181.69954571314156,140.71700914402027 174.75764357903972,138.0 170.70820066798478,142.22645557811484 170.82389903673902,158.07550986332353 176.26172237563878,162.0 182.97222777176648,157.77362538815942 181.69954571314156,140.86795388686005 174.17915173480287,138.0 170.59250229923055,144.33967687713448 170.70820066798478,157.77362538815942 172.21227946365252,160.49058248184156 177.07161095784977,161.69811667269096 182.85652940301225,157.92456763668451 182.50943429628387,141.77362187975086 175.45183379296213,138.45283535390627 170.24540719250217,144.18873264221475 171.05529577517882,158.83022066368721 177.88149954006076,162.0 182.50943429628387,157.3207985110348 182.62513266457245,142.37740009988192 179.50127670448273,139.0566155173583 175.22043705545366,138.90567050944082 170.36110556172207,144.18873264221475 171.1709941434674,159.43398890679237 178.92278486024588,161.69811667269096 183.20362450974062,156.11325919930823 182.50943429628387,141.47173263679724 179.15418159775436,138.7547254798701 174.52624684153125,138.45283535390627 170.12970882374793,144.94345359667204 171.2866925126873,159.58493091224227 178.6913881227374,161.84905834740493 183.08792614052072,156.71702903171536" stroke="#4dd2ff" stroke-linecap="round" stroke-linejoin="round" stroke-width="0.5"><title>2023-12-28 2.9km</title><desc>1703769423000</desc></polyline><polyline fill="none" points="19.131766956299543,170.29634733963758 16.0657590595074,168.9630047439132 17.76909677963704,183.77782389137428 21.85710730915889,187.77778791694436 27.87556725461036,186.2963216009084 30.37379591120407,183.03708807949442 30.26024006307125,172.07413473643828 26.512897078413516,165.55556569516193 21.743551461026073,165.2592661055969 17.65554093150422,167.77780985319987 17.65554093150422,183.92597098858096 21.402883917093277,187.6296413828386 25.490894445683807,188.0740809206618 30.033128367271274,183.92597098858096 29.46534912707284,169.8519000026863 25.490894445683807,165.40741591108963 19.24532280350104,165.55556569516193 17.201317539904267,167.77780985319987 17.428429235704243,182.44449903990608 20.721548828762025,187.77778791694436 26.05867368588224,187.9259344296297 28.78401403874159,185.55558763060253 29.351793278940022,170.59264545573387 26.28578538261354,165.2592661055969 18.677543563768268,166.00001491652802 16.633538299240172,170.29634733963758 18.904655260033906,186.44446833024267 25.036671053618193,188.22222738945857 30.146684215404093,182.44449903990608 28.443346494808793,167.03706234169658 24.241780117619783,164.66666666662786 18.904655260033906,165.85186519753188 16.86064999550581,171.18524142820388 19.24532280350104,186.74076172313653 23.901112573221326,188.66666666662786 27.08067631814629,187.77778791694436 29.919572519138455,183.92597098858096 30.600907607469708,177.25933015812188" stroke="#4dd2ff" stroke-linecap="round" stroke-linejoin="round" stroke-width="0.5"><title>2023-11-08 2.1km</title><desc>1699431646000</desc></polyline><polyline fill="none" points="49.373112311121076,166.703052787052 47.03179564885795,171.9394550944562 47.923725805711,185.17579356615897 54.27872817451134,188.23030819935957 59.63030911516398,186.0485129894805 60.74522181181237,183.72125949180918 59.63030911516398,168.01215594867244 56.62004483630881,165.10303547256626 52.160394051577896,164.81212295684963 47.81223453627899,169.46671299549052 48.03521707514301,184.44852679490577 54.39021944394335,188.23030819935957 60.410748003050685,184.01216647651745 60.076274194289,168.8848904320621 57.511974992696196,165.39394790277584 53.38679801719263,164.66666666668607 47.923725805711,170.48490166320698 48.03521707514301,184.59398019179935 53.944254364818335,188.37576104298932 60.299256733153015,184.15761993738124 60.076274194289,169.32125738664763 57.28899245383218,165.53940408618655 54.16723690414801,165.10303547256626 50.71100754570216,165.83031638915418 47.700743266846985,170.19399072165834 48.14670834504068,183.8667129947571 50.48802500683814,187.50304366118507 55.28214960033074,188.08485533419298 58.84987022867426,186.7757785913418 60.96820435067639,182.26672328996938 60.076274194289,168.59397902252385 53.49828928662464,164.66666666668607 50.71100754570216,165.83031638915418 47.81223453627899,171.3576339770225 48.36969088437036,184.01216647651745 50.48802500683814,187.50304366118507 55.059167061466724,188.66666666668607 60.6337305419147,183.575805967208 60.076274194289,169.32125738664763 54.947675791569054,165.10303547256626 48.25819961447269,169.17580175644252 48.25819961447269,185.32124685682356 53.83276309585199,188.66666666668607 60.299256733153015,184.88488692144165 60.299256733153015,169.61216858337866 58.06943134125322,165.83031638915418 53.38679801719263,164.66666666668607 48.14670834504068,169.17580175644252 48.481182153802365,183.8667129947571" stroke="#4dd2ff" stroke-linecap="round" stroke-linejoin="round" stroke-width="0.5"><title>2023-10-27 2.9km</title><desc>1698413800000</desc></polyline><polyline fill="none" points="81.54388175904751,166.0000149164116 77.91009568469599,169.4074524709722 79.72698872210458,186.1481748498045 87.3352283150889,187.77778791706078 91.08257020404562,182.14820438995957 90.28767949994653,167.77780985296704 86.65389342606068,164.66666666662786 81.99810501839966,164.66666666662786 79.15920964768156,166.592613575398 78.25076312944293,171.7778370535234 79.61343290703371,186.0000280776294 86.99456087080762,188.37037383706775 89.71990042598918,187.18520165001974 91.4232376483269,182.29635172581766 89.83345624059439,167.77780985296704 82.67943990742788,165.55556569504552 78.36431894404814,170.14819824881852 79.27276546228677,185.5555876303697 85.97255853703246,188.66666666662786 91.08257020404562,183.9259709888138 89.9470120551996,168.07410870597232 83.4743306110613,165.1111162782181 78.36431894404814,169.4074524709722 79.38632127735764,185.7037344679702 83.4743306110613,188.518520262558 87.4487841296941,188.0740809199633 91.08257020404562,183.33338246925268 90.4012353150174,168.81485545891337 86.88100505573675,165.25926610524766 80.86254686955363,165.85186519788112 78.0236514993012,170.7407944810111 80.4083236111328,187.18520165001974 85.74544690689072,188.37037383706775 90.17412368580699,185.7037344679702 91.08257020404562,174.5926615417702 90.85545857390389,169.85190000280272 87.67589575890452,165.40741591062397 82.90655153663829,165.25926610524766 78.70498638832942,168.07410870597232 78.59143057372421,183.62967677228153 80.86254686955363,187.62964138260577 87.22167250001803,188.37037383706775 90.28767949994653,185.5555876303697 90.74190275929868,170.29634733917192 86.88100505573675,165.40741591062397 79.61343290703371,166.74076318577863 78.477874759119,182.59264633234125 81.54388175904751,187.92593442928046" stroke="#4dd2ff" stroke-linecap="round" stroke-linejoin="round" stroke-width="0.5"><title>2023-10-21 2.9km</title><desc>1697891041000</desc></polyline><polyline fill="none" points="108.94883117452264,164.66666666668607 109.38167877867818,183.1608370525646 112.95267151109874,188.3843171938206 120.85214028367773,186.40786857239436 120.85214028367773,169.6078919125721 118.68790226383135,166.7843377260724 114.6840619277209,165.93726985988906 109.38167877867818,169.7490694053704 110.13916208501905,186.12551843898837 114.35942622413859,188.52549194043968 118.7961141653359,187.6784431503038 120.96035218471661,184.85494181630202 121.28498788783327,171.72555213305168 116.74008804606274,166.0784478894202 109.70631448179483,168.902004140371 109.2734668776393,183.01966152107343 111.32949299644679,187.3960933884955 116.63187614502385,188.66666666668607 120.09465697687119,186.97256859153276 121.39319978887215,172.85496901796432 120.85214028367773,169.1843593112426 117.7139951554127,166.50198185344925 110.46379778813571,168.4784712292021 109.48989067971706,185.27846754319035 113.81836671894416,188.66666666668607 120.85214028367773,186.26669351611054 121.28498788783327,170.17260175931733 119.012537966948,167.20787138078595 115.0086976303719,166.50198185344925 109.81452638283372,169.89024687738856 109.59810258029029,183.8667143988423 112.84445961052552,188.3843171938206 117.93041895702481,188.24314242665423 121.50141168991104,184.85494181630202 121.71783549198881,172.99614603549708 120.7439283831045,169.1843593112426 117.2811475507915,166.6431598001509 113.38551911571994,166.7843377260724 109.2734668776393,170.17260175931733 109.92273828340694,184.99611707933946 113.2773072142154,188.3843171938206 117.82220705598593,188.10196763835847 121.39319978887215,184.5725912291091 121.17677598632872,170.3137791690533 116.74008804606274,166.36080388590926 110.46379778813571,168.3372935510124 109.05704307509586,173.98438458138844 110.89664539275691,187.25491847720696 114.0347905214876,188.66666666668607 119.77002127375454,187.25491847720696 121.28498788783327,175.39615217701066" stroke="#4dd2ff" stroke-linecap="round" stroke-linejoin="round" stroke-width="0.5"><title>2023-10-16 3.1km</title><desc>1697460359000</desc></polyline><polyline fill="none" points="138.72058726847172,168.05320440145442 140.52633306244388,184.3967698525521 145.83071133168414,188.66666666668607 153.16655361885205,184.10229354311014 152.2636807220988,168.49492587486748 147.9750344613567,164.66666666668607 142.4449379676953,165.5501123914146 140.18775572581217,167.90596386708785 140.52633306244388,184.10229354311014 146.0564295561053,188.51942914671963 150.00649847975,187.63600357616087 153.05369450710714,182.77714908326743 152.15082160988823,168.34768540534424 146.0564295561053,164.8139076748048 140.52633306244388,168.05320440145442 140.6391921741888,184.24953170865774 144.25068376213312,188.2249540425837 148.7650482468307,188.07771645847242 153.27941273152828,183.95505535573466 152.827976282686,170.5562901882222 147.52359801298007,164.8139076748048 142.2192197437398,166.13907577720238 140.4134739502333,168.78940674941987 140.6391921741888,184.24953170865774 142.78351530479267,187.48876590532018 147.18502067727968,188.66666666668607 152.94083539489657,184.24953170865774 151.47366693709046,166.87527952471282" stroke="#4dd2ff" stroke-linecap="round" stroke-linejoin="round" stroke-width="0.5"><title>2023-10-12 1.8km</title><desc>1697101056000</desc></polyline><polyline fill="none" points="169.73904426814988,172.5654620648129 171.60193432541564,186.54010677884798 179.28635580884293,187.90718149230815 183.36142780818045,182.74266758013982 181.73139900853857,167.70467200514395 173.93054689653218,165.12236803374253 170.20476678293198,169.679370710277 171.25264243921265,185.93251744029112 178.47134140972048,188.3628726634197 183.01213592244312,184.2616449255729 182.42998278001323,169.83127045538276 177.77275763824582,165.42616883455776 174.04697752464563,165.42616883455776 170.6704892963171,168.6160718741594 170.43762803962454,183.19836101680994 173.5812550103292,188.21097562881187 181.49853775138035,187.1476957629202 183.594289064873,182.74266758013982 182.6628440367058,169.0717715085484 179.28635580884293,165.57806920143776 174.04697752464563,165.27426844497677 170.43762803962454,169.2236713420134 170.78691992536187,184.56544012774248 173.46482438175008,187.90718149230815 177.4234657525085,188.3628726634197 182.77927466575056,185.1730302668875 183.244997180067,182.43887184397317 181.9642602656968,167.5527719494421 175.7934369528666,164.9704676005058 170.32119741104543,169.37557115382515 170.90335055440664,185.1730302668875 176.25915946718305,188.66666666662786 181.61496837995946,186.9957985500805 183.1285665514879,184.10974729107693 182.42998278001323,169.52747094340157 176.14272883860394,164.66666666662786 170.20476678293198,169.679370710277 171.7183649535291,186.38820947776549 178.5877720382996,188.05907857138664 182.31355215143412,185.78062005026732 183.244997180067,181.83128010632936 182.0806908942759,168.00847205054015 178.12204952398315,164.8185671448009 172.76624061074108,165.57806920143776 170.20476678293198,170.43886921252124 171.48550369683653,186.08441480842885 175.44414506712928,188.66666666662786 179.86850895173848,188.3628726634197 183.244997180067,180.00850276020356" stroke="#4dd2ff" stroke-linecap="round" stroke-linejoin="round" stroke-width="0.5"><title>2023-10-10 2.9km</title><desc>1696942258000</desc></polyline><polyline fill="none" points="22.48250506608747,212.71344177830906 24.168108236975968,211.72835014233715 27.844328485778533,212.1894577100029 28.42224957299186,212.8391976691346 27.60352803277783,213.99195485087694 28.10118230234366,215.33333333332848 31.231588191061746,214.28538246850076 32.06636309478199,213.17454617092153 32.9653514525271,210.49173614618485 33.125885087880306,203.86833346930507 31.392121826356743,200.82901124010095 31.79345591471065,199.71807044728484 33.49511244916357,198.25077693186176 33.78407299268292,197.39135516890383 33.60748599388171,196.343272860031 32.58007072779583,194.98075437746593 32.419537092442624,193.70207138081605 27.009553582174703,191.33333333332848 19.54473953973502,192.23471615188464 15.24243811314227,191.5429577515024 12.882593673944939,192.19279149560316" stroke="#4dd2ff" stroke-linecap="round" stroke-linejoin="round" stroke-width="0.5"><title>2023-10-07 3.0km</title><desc>1696669067000</desc></polyline><polyline fill="none" points="49.48668633773923,192.52589325862937 47.20146423019469,196.10356466297526 47.887030862271786,208.77438323397655 52.45747507736087,215.03520015301183 56.91365818679333,214.43893353187013 60.79853576980531,211.0103936905507 60.3414913485758,196.10356466297526 54.514174974523485,191.63147344521713 50.515036285854876,192.52589325862937 47.54424754623324,196.5507727060467 48.45833638915792,211.6066623175284 52.57173618301749,215.33333333337214 56.34235265990719,215.03520015301183 60.570013558957726,211.0103936905507 60.11296913679689,196.5507727060467 55.54252492310479,192.07868344988674 48.45833638915792,194.01659120304976 48.11555307311937,211.0103936905507 52.91451949859038,215.33333333337214 56.799397082068026,215.03520015301183 60.3414913485758,211.1594608798623 59.770185821224004,195.5072869679425 54.74269718490541,191.48240340023767 47.429986441042274,195.20914798940066 48.572597494814545,211.4575951937586 54.39991386886686,214.73706688627135 60.45575245376676,211.0103936905507 59.88444692641497,195.35821748967282 53.828608341980726,191.33333333337214 47.54424754623324,194.91100892378017 48.00129196792841,210.86132647958584 52.22895286697894,214.73706688627135 58.17053034622222,213.84266656136606 60.227230242453516,210.56319199164864 60.11296913679689,196.25263403262943 55.54252492310479,191.63147344521713 47.887030862271786,194.76193935819902 48.34407528396696,211.6066623175284 53.60008613113314,215.33333333337214 59.084619189146906,213.3954661055468 60.45575245376676,210.7122592467349 59.88444692641497,195.5072869679425 54.62843607971445,191.48240340023767 50.743558497168124,191.9296134703327 47.65850865188986,195.5072869679425 48.11555307311937,211.0103936905507 51.65764734009281,214.88613353052642" stroke="#4dd2ff" stroke-linecap="round" stroke-linejoin="round" stroke-width="0.5"><title>2023-10-06 2.9km</title><desc>1696597953000</desc></polyline><polyline fill="none" points="79.05439121756353,192.98363798844366 78.97355289421102,192.8449715670622 78.65918163672177,192.51490063074107 78.53942115767859,191.78832521003096 78.50648702593753,191.72777547379246 78.53642714570015,191.6750383830422 78.65768463073618,191.657459306507 79.01846307384403,191.65941253837354 79.00049900198792,191.53635837263846 78.71307385229011,191.5734700658577 77.46606786426855,191.57542331001332 75.74301397205272,191.64769314287696 75.5454091816282,191.6750383830422 75.2385229540887,191.78246557013426 74.13822355288721,192.3098228631152 73.69211576845555,192.48365088857736 73.47804391217505,192.64380504420023 73.6516966067793,193.66718381299324 73.76546906186559,195.71956406225218 73.80588822354184,198.1835660490624 73.78043912175053,198.45883440821672 73.79840319361392,199.92878859224766 73.72355289420375,200.09275752143822 73.79840319361392,200.2996678231366 73.81487025947717,202.20855706424118 73.787924151693,203.0262902201248 73.5259481037865,203.12581995830624 73.38972055888007,203.2838950783862 72.6831337325275,203.27218587432526 72.66666666666424,203.2956042721944 72.74301397205272,203.30731345574713 72.73552894211753,203.35219856435288 72.68163672654191,203.365859219678 72.69361277444841,203.38537441734843 73.07385229541251,203.37366530216696 73.37924151696643,203.39708352228263 73.54391217564262,203.59028227317413 73.75349301396636,203.64102087620358 73.80588822354184,203.68005043981793 73.81636726546276,204.96601084294525 73.71157684630452,205.14357684121842 73.6516966067793,205.43040924246907 73.65918163672177,205.5299210870553 73.80289421157067,205.53577470191613 73.82834331336926,205.68016305729543 73.81786427144834,207.48488598445692 73.7310379241535,207.65656585926536 73.7265469061822,207.80288219514114 73.67864271457074,207.86531001133608 73.58732534929732,207.91603239745928 73.71007984031166,207.85165395143576 73.79241516965703,207.97455798860847 73.79540918163548,208.07210007150388 73.86726546905993,208.2125594213112 73.93463073852035,208.71976146154975 74.0573852295347,210.23345013987546 74.02744510977936,210.63525110275987 73.94810379241244,210.80103924579726 73.7310379241535,211.0760479885248 73.74600798403117,211.2691358560478 73.96606786426855,211.39200850290308 74.09630738522537,211.52463168100894 74.18612774450594,211.71576277263102 74.28942115768587,212.1292206920507 74.45409181636205,212.49976174689164 74.79540918163548,213.01070153242017 75.61427145708149,214.14757007615208 75.91217564869294,214.44980875808778 75.85828343313187,214.4069107800824 75.82235528941965,214.41666033260844 76.3747504990024,214.70134413541655 76.63672654690163,214.77543892675112 76.91816367264983,214.8066366109215 78.30888223552756,214.82223542574866 78.84930139720382,214.79688734243337 78.969061876247,214.88073081945095 79.11576846307435,215.11470983819072 79.24600798403117,215.1303082940285 79.32984031935484,214.93727612371913 79.469061876247,214.72474253488326 79.79690618762106,214.4576083756774 82.51696606785845,213.47287071950814 82.60978043912473,213.445570029613 82.63073852295202,213.4943212225062 82.58882235529018,213.43191966378436 82.54091816367145,213.5216218129599 82.5693612774412,213.4982213102603 82.58582834330446,213.51577169112443 82.59930139719654,213.4416699265139 82.65019960079371,213.51577169112443 82.63073852295202,213.44752008073647 82.68163672654191,213.41631922864326 83.21457085828297,213.26031387716193 83.84930139719654,213.23106267131516 85.52445109780092,213.25446364110303 87.67714570858516,213.22911258865406 87.79540918163548,213.25446364110303 88.58283433133329,213.23106267131516 89.35229540918226,213.2583637987609 90.47804391217505,213.22521242247603 90.85678642713901,213.1004065046991 91.44660678641958,212.99510060630382 92.87924151695915,212.876142946654 94.03193612774339,212.89564427479672 94.30888223552756,212.876142946654 94.60828343313187,212.78838661837835 94.9301397205636,212.62262309495418 95.23702594810311,212.36714823242983 95.195109780434,212.38470009656157 95.13373253493046,212.34374571111402 95.06786427144834,212.40810254625922 95.13972055888007,212.33984528691508 95.22804391216778,212.37689927089377 95.28343313373625,212.34764613417246 95.48103792414622,212.33594486157472 95.69660678642686,212.0921660222839 95.71606786426855,211.85618387588875 96.09031936127576,211.48757533709795 96.32984031936212,211.2086742981719 96.4181636726571,211.01753596342405 96.46606786426855,210.80689055449238 96.54241516965703,204.31816764615996 96.57235528941965,204.12888223286154 96.57085828343406,203.6683415826974 96.64570858282968,203.4692894427617 96.66666666666424,203.22730049709298 96.66217564869294,202.92871132613254 96.59780439121823,202.74135785318413 96.6007984031894,202.26710764002382 96.54091816367145,200.9867432050669 96.57085828343406,198.84732407505726" stroke="#ff0000" stroke-linecap="round" stroke-linejoin="round" stroke-width="0.5"><title>2023-09-14 39.1km</title><desc>1694696482000</desc></polyline><polyline fill="none" points="115.06280326470733,191.33333333331393 108.78650566423312,197.40397794172168 109.54398985765874,209.40397706319345 112.14107852010056,213.92158514336916 117.55167989898473,214.3451098173391 121.88016100274399,210.5333810650045 121.12267680931836,195.70984840299934 117.33525584405288,191.75686791707994 112.79035068536177,192.46275847632205 109.3275658027269,196.27455857931636 109.86862594028935,211.9451342097018 115.38743934733793,215.33333333331393 121.7719489755109,210.81573185918387 121.12267680931836,196.69809099519625 118.30916409287602,193.02747055265354 113.65604690602049,192.46275847632205 108.78650566423312,197.40397794172168 109.76041391305625,210.10985471931053 114.95459123700857,214.76863430504454 119.28307234076783,213.78041021106765 121.33910086518154,211.2392578952131 120.90625275438651,195.70984840299934 117.65989192714915,192.3215804058127 112.68213865766302,192.60393652674975 109.43577782995999,195.56867080699885 109.6522018853575,211.38043319957796 113.00677474075928,214.3451098173391 117.01061976142228,214.76863430504454 121.44731289241463,209.68632818758488 121.44731289241463,194.72160479874583" stroke="#4dd2ff" stroke-linecap="round" stroke-linejoin="round" stroke-width="0.5"><title>2023-09-11 1.8km</title><desc>1694438011000</desc></polyline><polyline fill="none" points="146.2191780821886,204.8703300805355 150.10958904097788,201.79639949960983 156.02739726006985,203.94100426902878 155.2602739725262,207.37235233010142 141.06849315064028,208.23018558183685 139.20547945215367,207.08640757823014 136.68493150686845,208.01572741006385 135.53424657555297,207.01492136425804 135.36986301350407,204.36992409385857 143.9178082193248,205.22776261469699 150.43835616437718,202.86870306055062 155.91780821909197,203.51208406797377 155.75342465750873,207.5153246432892 140.79452054784633,207.6582969146839 137.83561643841676,205.72816772310762 136.90410958928987,207.01492136425804 135.1506849315483,206.51451757297036 135.09589041094296,204.2984374826774 143.20547945192084,204.79884354243404 151.75342465750873,202.72572938830126 156.35616438346915,203.72654421551852 155.09589041071013,207.5153246432892 143.5890410959255,207.3008661576896 137.7808219178114,208.30167161824647 134.82191780838184,206.51451757297036 134.93150684935972,204.441410694737 147.64383561653085,204.15546422862099 153.45205479464494,202.79721622957732 156.3013698628638,203.79803091066424 155.31506849313155,207.44383849197766 140.90410958905704,207.6582969146839 137.39726027403958,208.51612966458197 135.53424657555297,207.58681078412337 134.0,205.01330312545178 134.43835616461,204.2984374826774 138.87671232875437,204.58438386535272 144.6301369862631,203.44059733106405 149.17808219161816,204.22695086078602 155.69863013667054,203.44059733106405 155.69863013667054,197.86459965186077 158.0,198.00757474586135 155.36986301350407,197.5786493383057 154.98630136973225,207.37235233010142 143.47945205471478,207.1578937819868 136.63013698649593,209.08801732838037 134.76712328777649,205.51370845356723 135.09589041094296,204.6558704347699 144.4109589040745,203.51208406797377 149.34246575343423,204.2984374826774 152.79452054784633,203.5835707942024 155.9726027394645,204.36992409385857 155.5342465750873,207.80126914402354 140.79452054784633,207.5153246432892 140.08219178090803,208.51612966458197 136.52054794528522,209.08801732838037 135.47945205494761,208.15869953503716 135.09589041094296,204.36992409385857 142.82191780838184,202.3682950248185 145.94520547962748,203.44059733106405 149.17808219161816,203.2261370580527" stroke="#4dd2ff" stroke-linecap="round" stroke-linejoin="round" stroke-width="0.5"><title>2023-08-30 4.9km</title><desc>1693396264000</desc></polyline><polyline fill="none" points="167.98281884845346,193.1221726979129 170.95360889146104,196.25263403286226 172.89604853466153,211.30852804798633 176.89518897701055,214.88613353099208 184.77920870669186,210.41412471525837 184.8934698626399,194.016591203399 177.69501706585288,191.48240340023767 171.75343697937205,194.7619393580826 173.01030968967825,211.90479650057387 176.5524055105634,215.33333333337214 181.3513740422204,215.03520015336107 185.23625332908705,212.35199761088006 185.23625332908705,196.4017033802811 182.95103021897376,192.52589325851295 178.38058399874717,191.48240340023767 172.0962204458192,196.55077270593029 173.23883200157434,212.50106460391544 176.32388319959864,215.18426675419323 185.121992173139,211.15946088021155 185.00773101812229,196.1035646633245 182.83676906349137,192.67496315122116 178.26632284373045,191.63147344521713 173.92439893446863,192.97310287097935 171.98195929080248,196.1035646633245 172.66752622369677,211.4575951936422 178.49484515422955,215.03520015336107 185.121992173139,212.05386355903465 184.77920870669186,196.1035646633245 183.06529137445614,193.1221726979129 177.12371128844097,191.63147344521713 171.98195929080248,195.06007846747525 172.66752622369677,210.56319199164864 178.26632284373045,215.18426675419323 182.83676906349137,214.28986682242248 185.23625332908705,211.01039369101636 184.43642524024472,194.91100892378017 180.09450133191422,191.33333333337214 172.78178737917915,194.4638001616113 172.78178737917915,211.01039369101636 175.4097939557396,214.58800021989737 181.46563519723713,214.88613353099208 185.121992173139,210.86132647946943 185.00773101812229,197.89239565713797 181.23711288627237,191.92961347056553 173.01030968967825,194.16566087771207 172.5532650682144,209.81785539072007 176.09536088863388,214.43893353198655 181.80841866414994,214.88613353099208 184.77920870669186,212.50106460391544 185.35051448456943,200.57563626102637" stroke="#4dd2ff" stroke-linecap="round" stroke-linejoin="round" stroke-width="0.5"><title>2023-08-25 3.1km</title><desc>1692968645000</desc></polyline><polyline fill="none" points="27.204301075078547,225.8336000883137 26.81720430077985,229.2845722262282 35.01075268816203,229.62125132704386 35.33333333325572,234.1663999116863 11.333333333255723,234.08223081973847 11.72043010732159,230.04209992603865 25.91397849447094,230.04209992603865 33.01075268839486,228.6112134339055 34.946236558957025,229.45291180099593 35.07526881690137,233.74555432843044 26.946236558957025,233.82972346962197" stroke="#4dd2ff" stroke-linecap="round" stroke-linejoin="round" stroke-width="0.5"><title>2023-08-24 1.1km</title><desc>1692883156000</desc></polyline><polyline fill="none" points="54.300395526515786,242.0 54.37107682682108,241.65420462006296 54.54778007772984,241.79252286307747 54.03534065018175,227.3376100873429 53.61125284805894,224.68624617620662 54.300395526515786,224.17902365011105 53.62892317312071,223.55652104631008 53.858637399214786,221.06648604513612 53.45221992227016,218.0" stroke="#4dd2ff" stroke-linecap="round" stroke-linejoin="round" stroke-width="0.5"><title>2023-08-21 1.2km</title><desc>1692620048000</desc></polyline><polyline fill="none" points="85.1703012571088,233.5774937933893 84.84980651771184,234.26446181035863 85.0787313315086,242.0 84.95282268396113,232.39769010959571 84.66666666668607,230.48608051796327 84.74679035146255,228.30560713204613 84.23170952039072,218.65720020647132 84.51786553766578,218.13442765919172 84.99860764673213,218.0 84.4377418528311,218.0597456481628 84.16303207620513,218.55264591120067 84.18592455761973,221.8385868462501 84.67811290733516,227.90236380085116 84.52931177837308,230.0081725277123 84.83836027700454,231.88992230256554 85.1359625349869,241.9850670930973 84.88414523977553,235.1605001038988" stroke="#4dd2ff" stroke-linecap="round" stroke-linejoin="round" stroke-width="0.5"><title>2023-08-10 4.8km</title><desc>1691669615000</desc></polyline><polyline fill="none" points="116.937611408066,229.12095943884924 119.05525846709497,226.69308955752058 126.17825311934575,226.69308955752058 126.88413547258824,231.46509989915648 104.03921568603255,232.55344756424893 103.33333333325572,228.9535204671556 111.4188948306255,226.10705045738723 116.61675579333678,227.61400693154428 126.30659536551684,227.27912805776577 127.33333333325572,230.7953464613529 114.11408199672587,232.38600959675387 104.55258467025124,231.96741446317174 103.39750445610844,231.6325381359784 103.33333333325572,230.12559224007418 104.80926916212775,227.69772661919706 112.12477718363516,228.36748368106782 121.17290552589111,226.69308955752058 126.75579322618432,227.19540830887854 126.37076648860238,231.38138076214818 109.87878787890077,232.63716652977746 103.71836007107049,231.88369539985433 103.71836007107049,228.70236191805452 105.51515151537023,227.86516595835565 118.2852049912326,228.5349228240666 120.27450980409048,227.44656751910225 126.94830659544095,227.5302872316097 126.94830659544095,231.46509989915648 112.8948306592647,231.7999763242551 108.27450980385765,233.72551196691347 104.23172905528918,232.2185715798405 103.46167557896115,229.70699545374373 104.29590017814189,228.869800963148 112.70231729070656,228.45120325876633 113.8573975043837,227.36284779472044 118.34937611385249,228.869800963148 127.14081996446475,227.86516595835565 126.94830659544095,231.54881902376655 108.65953654190525,232.4697285866132 103.84670231724158,231.2976616131491 103.78253119415604,228.70236191805452 105.19429590017535,227.69772661919706 118.862745098304,228.70236191805452 127.33333333325572,227.9488856093376 126.81996434926987,231.71625723631587 111.93226381484419,232.2185715798405 109.68627450987697,233.5580743420287 104.74509803927504,232.55344756424893 103.97504456317984,230.46046944858972 104.87344028498046,228.45120325876633 118.60606060596183,229.03723995923065 127.07664884161204,227.78144629462622 127.26916221040301,231.7999763242551 114.8199643495027,231.71625723631587 111.67557932273485,232.2185715798405 110.39215686265379,233.89294954261277" stroke="#4dd2ff" stroke-linecap="round" stroke-linejoin="round" stroke-width="0.5"><title>2023-08-08 4.7km</title><desc>1691498421000</desc></polyline><polyline fill="none" points="147.71061021531932,218.0 147.88812636979856,225.85307192670007 148.84025847079465,226.16887014948588 148.79184497409733,226.6320396233641 143.15974152920535,226.4636145325203 143.8052548179403,227.87416858352663 144.06346013350412,237.41083565799636 144.49918160343077,240.67378863361955 144.9671787379193,242.0" stroke="#4dd2ff" stroke-linecap="round" stroke-linejoin="round" stroke-width="0.5"><title>2023-08-04 1.6km</title><desc>1691107871000</desc></polyline><polyline fill="none" points="176.16404886567034,228.27872284449404 182.94938917993568,226.72135927242925 187.7870855149813,227.54102484986652 188.35253054113127,232.1311299315421 178.86561954650097,231.5573688520817 164.9808027925901,232.78685616049916 165.04363001743332,230.00001438969048 166.86561954650097,227.9508571890765 171.7033158815466,227.2951253024512 176.41535776644014,228.11479004094144 183.13787085516378,225.98365922790254 188.2268760909792,227.78692428936483 188.5410122165922,232.04916409921134 164.9808027925901,232.70489042374538 165.04363001743332,229.7541159215034 166.99127399688587,227.9508571890765 172.89703315892257,226.88529248390114 175.7870855149813,227.86889074509963 187.7242582901381,227.86889074509963 188.66666666674428,232.1311299315421 165.73472949420102,233.11471898725722 164.66666666674428,231.3934370073839 165.79755671927705,229.34428490063874 172.58289703330956,227.3770918303053 187.66143106482923,227.78692428936483 188.16404886567034,231.96719825471519 165.8603839443531,233.11471898725722 165.29493891797028,229.59018354915315 170.06980802793987,228.19675644871313 180.18499127402902,229.01641986856703 188.35253054113127,228.11479004094144 188.41535776644014,231.72130064910743 166.86561954650097,233.03275329846656 164.79232111712918,231.80326652963413 165.48342059366405,229.67214974120725 171.13787085516378,227.9508571890765 188.28970331605524,228.52462196047418 188.35253054113127,231.63933475670638 174.46771378745325,232.29506156092975 170.5095986041706,234.01634077203926 167.556719022803,233.5245472509996 165.92321116942912,232.70489042374538 165.48342059366405,230.00001438969048 170.13263525324874,227.86889074509963 180.12216404895298,229.426251128898 187.97556719044223,228.27872284449404 188.47818499151617,232.04916409921134 174.78184991306625,231.72130064910743 170.32111692870967,233.11471898725722" stroke="#4dd2ff" stroke-linecap="round" stroke-linejoin="round" stroke-width="0.5"><title>2023-07-26 4.8km</title><desc>1690377436000</desc></polyline><polyline fill="none" points="19.333333333255723,255.33074143726844 32.773333333199844,253.32682918774663 35.269333333475515,253.8278079093434 34.75733333360404,258.25310086039826 19.0773333334364,258.420092375949 13.253333333414048,260.4239867494325 11.589333333307877,258.67057955713244 11.90933333337307,255.41423762828344 17.41333333356306,253.32682918774663 21.317333333427086,254.6627714690403 34.75733333360404,253.91130432055797 34.62933333334513,257.83562185883056 12.805333333322778,259.756022739748 11.333333333255723,258.00261349603534 11.8453333331272,255.58122997393366 17.02933333348483,253.07633966213325 20.80533333355561,252.90934658393962 23.68533333344385,254.6627714690403 29.317333333427086,253.07633966213325 34.885333333397284,253.9948007191415 34.94933333341032,258.33659662422724 11.717333333333954,258.420092375949 11.717333333333954,255.41423762828344 12.805333333322778,254.9132602987229 26.373333333525807,254.57927516795462 31.365333333145827,253.07633966213325 35.14133333344944,253.9948007191415 34.821333333151415,258.1696050845785 11.717333333333954,258.5870838421397 11.8453333331272,255.33074143726844 14.46933333342895,254.24528984178323 25.86133333365433,254.41228252940346 31.365333333145827,252.90934658393962 35.33333333325572,253.9948007191415 34.821333333151415,258.33659662422724 12.101333333412185,259.088057948451 12.549333333503455,255.08025279082358 23.429333333391696,254.57927516795462 30.02133333357051,252.99284312920645 35.0773333334364,254.0782971055596 35.01333333342336,258.25310086039826 11.717333333333954,258.25310086039826 12.037333333399147,255.08025279082358 20.2933333334513,256.2491988677648 30.533333333441988,252.99284312920645 35.20533333346248,253.91130432055797 35.14133333344944,258.33659662422724 12.74133333307691,258.8375709503307" stroke="#4dd2ff" stroke-linecap="round" stroke-linejoin="round" stroke-width="0.5"><title>2023-07-24 4.9km</title><desc>1690201802000</desc></polyline><polyline fill="none" points="56.74729722092161,244.94149664278666 56.712187991302926,244.66666666667152 55.71157494594809,245.2392285726237 55.57113802735694,246.0637140396575 55.95733955356991,251.17084674246144 56.88773413951276,251.60597591027908 56.92284336924786,251.97239953490498 52.7975088841049,252.15561102578067 50.56807280075736,251.90369517056388 51.28781200875528,252.7052442123677 51.46335815708153,253.7587024285749 51.67401353508467,263.53720468118263 52.67462658032309,268.6666666666715 52.02510583162075,266.170654807589 52.7975088841049,265.4836720866151 52.14798813540256,245.42244794039289 56.60686030227225,245.1247163588705 57.15105336200213,245.01020406142925 57.238826436165255,244.68956918311596 57.431927199300844,245.07891144993482" stroke="#4dd2ff" stroke-linecap="round" stroke-linejoin="round" stroke-width="0.5"><title>2023-07-24 3.0km</title><desc>1690157385000</desc></polyline><polyline fill="none" points="84.82791711005848,260.92776752630016 85.27711477369303,268.66666666666424 84.95461388700642,258.3279676969105 84.71273822186049,257.1858383027211 84.9315781093901,256.2090070368722 84.75880977715133,255.72810207893053 84.2750584470341,245.73378639453585 84.56300566735445,244.98229478295252 85.10434644151246,244.74181630613748 84.62059511145344,244.69672652905138 84.22898689180147,245.31295176938875 84.22898689180147,248.52928692534624 84.67818455543602,255.65296047585434 84.78184555476764,254.81137076705636 84.18291533651063,245.64360769144696 84.39023733517388,245.04241431421542 84.9315781093901,244.72678638262005 84.52845200092997,244.66666666666424 84.09077222604537,245.44822022978042 84.0562185596209,248.42408129372052 84.4938983345055,255.8934134121082" stroke="#4dd2ff" stroke-linecap="round" stroke-linejoin="round" stroke-width="0.5"><title>2023-07-22 4.9km</title><desc>1690030226000</desc></polyline><polyline fill="none" points="112.47297314414755,254.6179560312885 108.322646595072,252.1301429673913 110.1173824002035,265.0081672645756 113.59468302223831,267.64228818245465 119.20323241269216,266.4715686305426 122.00750710815191,261.64233600214357 120.99796821782365,249.34963869431522 118.86671944940463,245.69106867047958 115.05290586361662,244.66666666668607 109.22001449810341,247.59352675225819 110.34172437572852,263.9837850352633 112.58514413191006,267.34960842272267 115.83810277841985,268.2276474448154 122.34402007143945,262.95940175745636 121.67099414486438,252.2764850835083 117.29632562026381,244.81300987419672 112.36080215638503,245.2520393684972 108.7713305465877,248.76426838967018 109.66869844868779,263.5447637590114 114.71639290032908,268.08130766113754 121.4466521688737,264.4228061194299 121.22231019288301,249.34963869431522 114.4920509243384,245.54472559079295 108.99567252211273,249.4959812174202 109.89304042514414,265.30084770941176 114.4920509243384,268.66666666668607 122.11967809544876,263.69110420608195 121.55882315663621,252.4228271782631" stroke="#4dd2ff" stroke-linecap="round" stroke-linejoin="round" stroke-width="0.5"><title>2023-07-18 1.7km</title><desc>1689685608000</desc></polyline></svg>