<?xml version="1.0" encoding="utf-8" ?>
<svg baseProfile="full" height="300mm" version="1.1" viewBox="0,0,200,300" width="200mm" xmlns="http://www.w3.org/2000/svg" xmlns:ev="http://www.w3.org/2001/xml-events" xmlns:xlink="http://www.w3.org/1999/xlink"><defs /><rect fill="#222222" height="300" width="200" x="0" y="0" /><text fill="#FFFFFF" style="font-size:12px; font-family:Arial; font-weight:bold;" x="10" y="20">Over 10km Runs</text><text fill="#FFFFFF" style="font-size:4px; font-family:Arial" x="10" y="280">ATHLETE</text><text fill="#FFFFFF" style="font-size:9px; font-family:Arial" x="10" y="290">Yunlong</text><text fill="#FFFFFF" style="font-size:4px; font-family:Arial" x="120" y="280">STATISTICS</text><text fill="#FFFFFF" style="font-size:3px; font-family:Arial" x="120" y="285">Number: 51</text><text fill="#FFFFFF" style="font-size:3px; font-family:Arial" x="120" y="290">Weekly: 1.8</text><text fill="#FFFFFF" style="font-size:3px; font-family:Arial" x="141" y="285">Total: 260.8 km</text><text fill="#FFFFFF" style="font-size:3px; font-family:Arial" x="141" y="290">Avg: 5.1 km</text><text fill="#FFFFFF" style="font-size:3px; font-family:Arial" x="167" y="285">Min: 1.1 km</text><text fill="#FFFFFF" style="font-size:3px; font-family:Arial" x="167" y="290">Max: 39.1 km</text><polyline fill="none" points="11.333333333328483,44.2186389037015 16.388945062324638,43.786533470396535 17.007751937955618,43.67587149207975 17.355578024915303,43.718028476145264 18.196831816618214,43.5441306000248 19.547691270621726,43.50724306419943 20.150320188724436,43.380771227079094 23.098752949081245,43.07512912726088 23.97640714525187,43.090938264755096 24.514324233212392,42.98027415701654 24.93090663968178,43.00662278482923 27.09066397033166,42.82745173701187 27.252443545658025,42.885418937898066 28.057296932922327,42.79583322461258 28.170542635634774,42.85907022174797 30.13211998650513,42.643010024839896 33.86922817659797,42.52180495871653 34.17256488034036,42.458567371577374 35.33333333332848,42.46910697711792 34.411189753955114,42.50599557230453 34.196831816632766,42.448027762966376 33.391978429383016,42.542884129841696 30.30603302999225,42.62720069142597 27.248399056261405,42.86960971050212 26.54465790359245,42.83799123498102 22.548702392959967,43.090938264755096 21.950117964253877,43.23322019118132 18.051230198834674,43.60209665167349 18.05931917759881,43.54940024492316 17.0603302999516,43.696949990269786 15.248399056261405,43.79180307997012 14.912706437462475,43.876116728537454 12.74081563866639,44.07636085576087" stroke="#4dd2ff" stroke-linecap="round" stroke-linejoin="round" stroke-width="0.5"><title>2024-11-23 9.9km</title><desc>1732350310000</desc></polyline><polyline fill="none" points="45.235108902677894,41.80613156873733 48.696403476409614,39.47885256778682 51.59942473191768,55.042427696927916 56.623884595930576,50.678832982317545 60.08517917059362,51.260646713140886 61.98330845218152,48.93338975543156 61.53668979788199,37.1515681403107 59.63856051536277,33.36971937358612 54.837409977801144,31.33333333331393 51.48777006799355,32.49698300776072 48.24978482211009,39.91521779366303 51.376115404535085,54.16971028014086 61.4250351334922,48.06066699733492 61.53668979788199,37.29702357581118 57.070503251161426,31.624245878774673 51.93438872275874,32.06061453890288 48.13813015818596,35.55155694944551 50.37122343154624,53.87880430498626 51.59942473191768,50.969739890191704 60.75510715181008,48.3515746681951 59.861869842745364,33.51517536013853 56.40057526901364,31.33333333331393 52.38100737752393,32.20607071655104 48.696403476409614,35.55155694944551 48.36143948556855,40.35158282879274 50.37122343154624,53.58789824490668 54.055827332660556,49.3697508481564 60.08517917059362,48.49702847196022 61.648344460874796,36.569746186141856 59.080287197139114,33.36971937358612 54.27913665957749,32.35152687272057 49.25467679463327,34.96973406209145 48.47309414902702,42.38795047119493 50.147914103697985,53.73335128527833 57.182157915085554,48.49702847196022 60.531797824427485,49.80611175019294 62.31827244348824,47.47885140153812 59.97352450666949,33.80608727037907 52.38100737752393,32.64243912190432 48.47309414902702,38.75157676736126 50.25956876715645,53.87880430498626 57.96374056022614,47.62430533213774 60.196833833586425,50.24247246183222 62.42992710694671,47.62430533213774 61.87165378872305,36.424290644179564 59.97352450666949,33.36971937358612 52.827626031823456,31.915158340299968 49.031367467250675,35.11518981563859 48.47309414902702,38.31521103240084 50.7061874223873,54.02425730309915 58.633668542373925,48.93338975543156 61.4250351334922,49.3697508481564 61.759999124798924,37.58793438388966 59.63856051536277,32.35152687272057 54.837409977801144,31.915158340299968 49.58964078640565,34.533366673858836 48.47309414902702,45.29703989601694 50.594532758928835,54.31516323587857 58.298704551532865,49.951565342082176 61.4250351334922,51.260646713140886 62.76489109778777,48.06066699733492 61.53668979788199,36.13337949727429 57.96374056022614,31.33333333331393 51.93438872275874,32.06061453890288 48.91971280379221,36.13337949727429 50.03625944023952,52.42427315743407 51.04115141322836,53.87880430498626 61.53668979788199,50.678832982317545 62.094963116105646,40.06067282642471 57.40546724200249,32.06061453890288 49.14302213070914,34.24245497590164 47.69151150342077,42.67885979521088 49.58964078640565,55.33333333331393 61.759999124798924,51.551553451339714 60.75510715181008,35.9879238922731 57.070503251161426,31.33333333331393 49.14302213070914,34.82427828741493 47.35654751304537,47.62430533213774 47.914820830803365,55.042427696927916 60.42014316096902,53.44244518328924 60.86676181573421,37.44247899047332" stroke="#4dd2ff" stroke-linecap="round" stroke-linejoin="round" stroke-width="0.5"><title>2024-11-17 5.0km</title><desc>1731835115000</desc></polyline><polyline fill="none" points="78.06322872219607,37.83941478718771 79.50599667662755,52.44179782678839 86.38688999693841,53.164682493312284 90.60421170899644,49.405676475784276 91.15912246052176,36.10446390416473 86.83081859815866,31.91165341215674 81.83662183303386,32.48997315426823 79.50599667662755,35.81530512869358 79.1730502252467,51.429758408805355 83.16840763716027,55.18875675788149 90.60421170899644,52.15264381264569 91.15912246052176,36.82736047421349 89.38340805564076,33.21287235751515 85.83197924494743,31.622493414732162 79.28403237601742,35.52614626887953 79.39501452632248,50.99602691328619 83.16840763716027,54.75502690614667 90.38224740885198,51.86348971427651 91.27010461129248,37.11651895433897 89.27242590487003,32.923712739604525 86.05394354602322,31.91165341215674 79.61697882693261,34.94782829703763 79.06206807494164,50.27314066683175 81.39269323181361,55.33333333331393 90.71519385930151,51.28518126462586 91.27010461129248,36.97193972481182 86.60885429754853,32.05623337946599 79.72796097723767,34.6586691843695 79.61697882693261,51.429758408805355 82.72447903594002,55.33333333331393 90.82617601007223,51.71891263325233 91.27010461129248,37.11651895433897 86.49787214724347,31.767073424183764 82.28055043425411,32.200813325238414 79.28403237601742,35.67072570952587 79.06206807494164,50.85144970641704 81.72563968319446,55.33333333331393 90.27126525808126,52.58637480204925 90.60421170899644,37.55025651695905 87.60769364982843,32.34539325005608 81.94760398333892,32.48997315426823 79.61697882693261,34.803248751035426 79.1730502252467,50.56229522865033 81.39269323181361,54.89960354421055 90.38224740885198,52.008066773822065 90.9371581603773,36.10446390416473 86.27590784616768,31.767073424183764 79.50599667662755,34.6586691843695 79.1730502252467,50.85144970641704 82.5025147353299,55.18875675788149 90.27126525808126,53.74298984755296 91.04814031068236,37.11651895433897 87.49671149998903,32.05623337946599 81.83662183303386,32.05623337946599 79.39501452632248,34.51408959639957 79.28403237601742,50.70687247783644 81.39269323181361,54.610450246487744 90.9371581603773,51.71891263325233 90.60421170899644,35.95988452702295 85.94296139571816,31.33333333331393 82.61349688610062,31.91165341215674 78.84010377433151,35.95988452702295 78.84010377433151,51.57433553156443 82.72447903594002,54.32129686453845 88.4955508527346,53.59841304033762 90.9371581603773,50.70687247783644 91.15912246052176,36.68278120207833 87.05278289876878,31.622493414732162 81.05974678089842,32.634553036885336 79.1730502252467,34.803248751035426 78.50715732341632,48.53821152599994 81.28171108150855,54.4658735661651 91.15912246052176,51.429758408805355 91.04814031068236,41.88762171543203" stroke="#4dd2ff" stroke-linecap="round" stroke-linejoin="round" stroke-width="0.5"><title>2024-11-16 4.9km</title><desc>1731760965000</desc></polyline><polyline fill="none" points="125.41998844593763,44.58213065247401 127.33333333325572,43.8763808515796 126.75101097626612,41.270523797837086 127.33333333325572,42.356299795472296 126.50144425197504,44.1478232415684 116.97631426923908,54.29962596442783 103.33333333325572,42.953475239133695 105.16348931263201,41.59625693093403 111.98497978062369,32.80136191038764 113.10803004051559,32.36704070225824 111.94338532630354,32.47562105196994 110.19641825533472,34.701511214720085 112.77527440781705,32.529911214864114 116.26920854998752,32.47562105196994 125.21201617573388,39.533275589259574 127.20854997099377,42.356299795472296 121.2189485845156,50.0109303733916 115.77007510093972,53.48532048944617 109.78047371469438,47.350828439957695 107.99191218963824,47.29654044678318 103.37492778757587,42.84489795722766 104.95551704219542,41.813412194052944 108.7822068168316,36.49307164107449 111.65222414792515,34.267192232218804 111.98497978062369,32.80136191038764 115.02137492783368,32.58420136992936" stroke="#4dd2ff" stroke-linecap="round" stroke-linejoin="round" stroke-width="0.5"><title>2024-11-14 2.7km</title><desc>1731589127000</desc></polyline><polyline fill="none" points="145.93664563889615,55.33333333333576 144.95113335497444,54.23083053083246 143.92338483035564,53.75307630915631 142.72669134271564,52.09929765440029 139.31963458971586,49.747219369746745 139.0802958921995,49.54508558553789 139.3337133366149,49.251072227467375 139.15068962681107,49.4348306569882 138.7846422070288,49.159192911844 142.41695891064592,44.84078920958564 141.8115727933473,44.06897374858818 139.26331960206153,41.88213750095747 138.60161849716678,41.73512193251372 135.16640425031073,45.85149275528238 137.08111383055802,47.98313173157658 138.3482010527514,48.90193047027424 139.22108336136444,48.53441178188223 142.34656517603435,44.63864752378868 139.47450080577983,42.02915289710654 138.79872095392784,41.75349888801429 137.61610621324508,42.87448808338377 135.20864049106603,45.924998150272586 138.12294110207586,48.699795324821025 138.4749097749591,48.957058180683816 138.93950842309278,48.810050899024645 142.36064392299158,44.804036200017435 142.09314773156075,44.27111635189067 140.12212316377554,42.48857490033697 139.06621714530047,41.69836801350175 138.65793348482111,41.77187584077183 135.20864049106603,45.906621805545 135.50429417629493,46.384405893339135 138.67201223177835,48.993809974213946 140.1925168983289,47.50535372947343 143.7685186143499,43.113386125878606 144.82442463276675,42.341560042208584 145.71138568827882,42.01077598203847 149.69567106477916,41.86376056429435 154.63731123128673,41.000041507330025 154.3698150398559,39.1255669359889 153.66587769426405,36.90188922758534 156.53794206457678,35.65220181741461 156.83359574974747,35.303022228552436 155.36940607073484,33.09765501139918 153.58140521275345,31.645767104528204 151.258411972085,31.33333333333576 146.40124428702984,36.68135705940222" stroke="#4dd2ff" stroke-linecap="round" stroke-linejoin="round" stroke-width="0.5"><title>2024-11-11 6.9km</title><desc>1731328526000</desc></polyline><polyline fill="none" points="176.74380165280309,54.062785881600576 176.32506887044292,54.206604311140836 173.0853994488716,52.19313671856071 164.66666666662786,44.74312722554896 166.36363636364695,40.65844614294474 169.16253443516325,39.01879675300734 171.82920110190753,35.42302649949852 174.58402203849982,32.54636291373754 175.20110192836728,32.46006235551613 179.65289256186225,36.37231623986736 180.11570247926284,37.29283524413768 175.09090909094084,43.16104251558136 174.0550964185968,43.621286654131836 169.09641873277724,38.96126494697819 172.82093663909473,34.09976648131851 173.79063360881992,33.72580007830402 174.62809917354025,32.603896598215215 175.20110192836728,32.57512975811551 180.07162534433883,37.033939710090635 176.9862258953508,41.061164952639956 174.2754820935661,43.73634752044745 169.20661157020368,39.220157941424986 169.515151515021,38.3284139688767 173.06336088152602,33.92716669145739 173.68044077127706,33.86963339445356 174.7603305784287,32.54636291373754 175.31129476579372,32.603896598215215 180.04958677687682,37.00517351864255 176.65564738295507,41.377586295391666 174.31955922860652,43.707582310176804 169.2727272725897,39.33522138501576 169.2947658401681,38.81743535824353 171.69696969690267,35.48055934163858 175.0247933884384,32.57512975811551 180.11570247926284,37.06270589742053 175.44352617068216,42.90215471378178 174.36363636353053,43.650051877018996 169.09641873277724,39.191392070031725 171.98347107425798,35.221661419491284 174.2534435261041,33.006631917960476 175.2892561983317,32.51759606519772 179.9834710743744,36.803810060126125 179.8292011017911,37.5229643213097 177.14049586770125,40.83104001956235 175.0247933884384,43.276103651252924 174.0771349860588,43.707582310176804 169.2506887051277,39.363987235410605 169.47107438009698,38.44347793472116 172.62258953158744,34.53126529256406 175.22314049582928,32.51759606519772 180.04958677687682,36.803810060126125 176.65564738295507,41.32005518011283 174.2754820935661,43.621286654131836 169.18457300274167,39.33522138501576 169.2506887051277,38.61607375708991 170.37465564743616,37.75309312900936 171.58677685935982,35.595624975307146 175.00275482086,32.4888292124233 180.09366391180083,36.803810060126125 174.2534435261041,43.880173508339794 175.39944903575815,44.31165084072563 181.10743801645003,37.75309312900936 185.14049586758483,41.32005518011283 186.46280991716776,42.0104274523037 188.66666666662786,44.31165084072563" stroke="#4dd2ff" stroke-linecap="round" stroke-linejoin="round" stroke-width="0.5"><title>2024-10-22 9.9km</title><desc>1729553484000</desc></polyline><polyline fill="none" points="12.115543484411319,71.26863031234461 11.520737848695717,71.29516974162107 11.333333333328483,71.19431980749505 11.44333163581905,70.86522860600599 11.63888417360431,70.70068188999721 11.88332484581042,70.64229416687158 11.88332484581042,70.40874233817158 12.042211282736389,70.37158622731658 12.441464380681282,70.39281829530955 18.14915407683293,69.86732097398271 18.613591354034725,69.89916951237683 19.29395122504502,69.76646708534099 20.36949018276937,69.67092103840696 20.63022689979698,69.70807786421938 20.89503762802633,69.61253166410097 23.82832569455786,69.30465886932507 25.90607140836073,69.16133788724619 26.20754823743482,69.20380342222415 26.54161715612281,69.10825589888191 29.332314830535324,68.964934143758 29.37712895378354,69.12948870351465 30.00860069032933,69.11887230274442 30.196005205696565,68.94900946947746 30.9619193119579,68.86938599359928 35.33333333332848,68.70483025837893 31.68301929498557,68.800378840333 30.216375261705252,68.93308478822291 29.918972443862003,68.83753655449618 29.307870763310348,68.88531070271347 29.23453856164997,68.83753655449618 29.14491031516809,68.97555058940998 28.961579811017145,69.01270812481744 24.728682170563843,69.22503617114853 17.016578962269705,70.00002303348083 16.45843942738429,69.98940688651783 13.651445708135725,70.32381402908504" stroke="#4dd2ff" stroke-linecap="round" stroke-linejoin="round" stroke-width="0.5"><title>2024-10-19 10.0km</title><desc>1729295146000</desc></polyline><polyline fill="none" points="60.083097579889,82.0 58.6981541729765,80.85986002665595 57.69673355552368,79.1913501709787 46.40411808306817,69.76399417353969 48.321732031181455,67.92852532058896 53.05184643669054,61.47643345416873 56.29048332688399,58.0 57.100142549490556,58.305928697183845 61.595881916815415,62.338579104689416 59.763495255145244,64.78593898589315 56.716619759914465,68.31786868044583 55.82173325063195,68.76283154317935 51.00639155856334,64.3687775991275 54.43678984360304,59.72431894612964 56.50355154334102,58.0 61.57457509520464,62.394201270348276 58.76207463792525,65.9817965507682 55.928267358918674,68.76283154317935 51.04900520190131,64.53564226374147 51.13423248846084,63.812560991587816 55.99218782375101,58.13905855976918 56.716619759914465,58.05562343621568 61.08451819734182,61.69892302893277 61.510654630255885,62.17171250995307 61.361506878747605,62.86698902089847 56.56747200828977,68.48472987617424 55.779119607410394,68.67940108584298 51.00639155856334,64.42439917023876 51.11292566685006,63.756939241240616 55.331676352769136,58.91778461333888" stroke="#4dd2ff" stroke-linecap="round" stroke-linejoin="round" stroke-width="0.5"><title>2024-10-10 5.0km</title><desc>1728516073000</desc></polyline><polyline fill="none" points="93.87012606696226,79.17373039170343 91.36268201982602,82.0 90.20393893739674,81.70250015682541 85.85390343144536,77.68620112851204 85.39800451381598,76.76888490380952 76.45098825485911,69.6037304540223 75.4632072665263,68.3888472213439 78.14161340787541,65.1656453916803 79.20537754904944,64.96729250611679 78.97742809029296,64.54579185294278 81.3139100430999,61.37210618885001 84.41022352559958,58.04959028336452 85.26503399608191,58.19836104636488 89.19716216099914,62.01676590302668 84.99909296084661,67.14916146967153 84.31524458446074,67.7194180424849 83.68838357261848,67.49627439489996 80.21215432544705,64.62017439736519 79.71826383145526,63.80196461176092 81.90277947846334,60.75223876486416 84.27725300798193,58.14877080655424 84.79013929027133,58.0 85.34101714915596,58.371926771331346 88.74126324325334,61.29772221771418 89.14017479622271,62.01676590302668 84.73315192561131,67.29792423904291 83.89733724319376,67.5706556434452 79.90822171373293,64.29784980224213 79.64228067838121,63.72758170794987 82.85256889031734,59.53729203189141 84.63817298447248,58.0 88.96921270212624,61.47128476615762 88.93122112576384,62.48786183448101 84.73315192561131,67.39709934602433 83.70737936079968,67.421893113642 82.16872051381506,66.20699422930193" stroke="#4dd2ff" stroke-linecap="round" stroke-linejoin="round" stroke-width="0.5"><title>2024-10-05 4.9km</title><desc>1728122302000</desc></polyline><polyline fill="none" points="109.59681674279273,62.311420281010214 112.02380453050137,81.85628916317364 120.40794416330755,76.97010825487087 121.18016755022109,63.60484268999426 117.31905061425641,59.43714218796231 111.69285165099427,60.155712496547494 110.2587225032039,72.51503985805903 111.913486903999,81.13773466547718 119.96667365636677,76.2515501974267 121.29048517718911,65.32940326305106 118.86349738901481,59.868284435768146 113.67856893176213,59.29342806356726 111.14126351708546,61.1617100489093 110.2587225032039,70.50306688883575 112.13412215793505,80.85031271987827 119.63572077592835,78.11980005842634 121.18016755022109,65.32940326305106 117.42936824122444,59.29342806356726 112.35475741140544,59.868284435768146 110.81031063664705,61.8802791009075 109.92776962276548,72.22761539934436 111.25158114405349,79.9880463804584 113.89920418569818,80.56289069063496 120.18730890983716,76.97010825487087 121.29048517718911,63.31741563451942 116.98809773428366,59.29342806356726 111.14126351708546,60.73056836659089 110.03808724973351,73.66473685501842 111.913486903999,81.28144560719375 120.29762653633952,77.54495432419935 121.29048517718911,65.04197671019938 120.51826179027557,61.59285154286772 117.09841536125168,59.29342806356726 111.14126351708546,61.1617100489093 110.47935775667429,79.55691292777192 112.13412215793505,80.70660171582131 120.62857941677794,77.11381980392616 121.40080280369148,64.32340996188577 117.76032112166286,59.29342806356726 110.92062826314941,61.1617100489093 110.58967538364232,78.40722279984038 112.6857102913782,81.13773466547718 121.06984992418438,76.97010825487087 121.18016755022109,62.598847629269585 117.31905061425641,59.43714218796231 110.47935775667429,61.8802791009075 109.70713436976075,70.50306688883575 111.47221639705822,79.12577928690007 113.23729842528701,80.13175748934736 120.84921467024833,77.11381980392616 121.29048517718911,63.74855618615402 117.42936824122444,59.43714218796231 110.92062826314941,61.1617100489093 110.36904013017192,76.68268509500194 114.00952181220055,81.28144560719375 120.73889704374596,78.26351143943612 121.18016755022109,64.03598311595852 119.52540314896032,60.29942649556324 116.43650960037485,59.14971391798463 110.36904013017192,61.8802791009075 109.81745199579746,70.79049184994074 112.13412215793505,81.71257830527611 120.73889704374596,78.83835675474256 120.9595322967507,64.03598311595852 117.87063874816522,59.29342806356726 110.58967538364232,60.586854430323 110.92062826314941,80.85031271987827 120.40794416330755,79.41320173512213 121.40080280369148,74.81443251145538 120.84921467024833,61.8802791009075 117.09841536125168,59.00599975133082 113.12698079831898,59.00599975133082 110.03808724973351,62.4551339657628 111.03094589011744,79.84433525032364 117.76032112166286,80.85031271987827 121.18016755022109,75.3892798369634 120.40794416330755,62.311420281010214 115.8849214669317,58.71857135556638 111.47221639705822,59.580856291460805 109.04522860934958,61.30542390153278 110.92062826314941,79.26949052140117 114.7817452000454,81.56886742723873 119.52540314896032,80.99402370338794 121.40080280369148,75.96412682766095 120.29762653633952,61.8802791009075 118.31190925464034,59.724570373946335 112.46507503790781,59.868284435768146 109.92776962276548,63.892269661300816 110.92062826314941,79.41320173512213 118.64286213507876,81.13773466547718 121.18016755022109,77.54495432419935 120.40794416330755,61.017996175796725 115.22301570605487,58.71857135556638 110.36904013017192,61.8802791009075 110.92062826314941,79.12577928690007 113.5682513047941,81.42515652748989 118.75317976204678,81.13773466547718 121.29048517718911,75.10185621597338 120.40794416330755,60.155712496547494 113.4579336787574,59.29342806356726 110.14840487670153,63.60484268999426 110.58967538364232,78.83835675474256 113.5682513047941,82.0 116.54682722734287,81.85628916317364 121.06984992418438,76.97010825487087 120.29762653633952,60.01199847640237 113.67856893176213,59.00599975133082 110.03808724973351,62.598847629269585 110.03808724973351,77.25753133132821 113.67856893176213,80.99402370338794 117.31905061425641,81.42515652748989 121.40080280369148,76.68268509500194 120.84921467024833,61.30542390153278 116.21587434690446,58.862285564187914 110.2587225032039,62.598847629269585 110.47935775667429,75.67670337448362 113.01666317135096,79.55691292777192 118.31190925464034,80.56289069063496 121.62143805762753,75.3892798369634 121.40080280369148,62.4551339657628 116.76746248081326,58.0 110.36904013017192,61.8802791009075 110.47935775667429,77.54495432419935 114.67142757261172,81.28144560719375 120.62857941677794,78.55093413888244 121.62143805762753,63.1737020756118 117.53968586819246,58.71857135556638 111.03094589011744,60.155712496547494 110.2587225032039,76.82639668538468 116.43650960037485,81.13773466547718 120.40794416330755,79.26949052140117 121.62143805762753,62.74256127199624 117.09841536125168,58.1437143132207 110.47935775667429,61.449137732735835 109.4864991158247,75.10185621597338" stroke="#4dd2ff" stroke-linecap="round" stroke-linejoin="round" stroke-width="0.5"><title>2024-09-08 8.9km</title><desc>1725751236000</desc></polyline><polyline fill="none" points="146.16074785310775,58.544524839147925 148.08972209098283,58.0 147.51102981972508,58.293205810914515 148.12187166174408,69.14161050962866 153.52299952774774,67.54997831163928 154.77683278231416,68.34579551243223 154.32673879351933,70.35627125645988 154.6160849292064,81.2042206080805 141.65980796469375,82.0 137.76970991829876,81.5392858836858 138.15550476592034,73.28818983834935 137.25531678821426,67.59186348234653 137.22316721768584,59.34036697872216 137.99475691269618,58.58641132249613" stroke="#4dd2ff" stroke-linecap="round" stroke-linejoin="round" stroke-width="0.5"><title>2024-08-20 2.0km</title><desc>1724107925000</desc></polyline><polyline fill="none" points="180.40579710149905,58.839775410000584 175.39130434789695,58.53658408529009 175.53623188409256,63.728637052336126 175.34782608703244,64.0318161642208 170.08695652178722,62.97068615285389 169.69565217400668,63.766534480368136 169.73913043481298,68.25730080631911 169.27536231890554,68.27624885601108 165.43478260881966,66.30563677303144 164.68115942034638,66.5140683218633 164.66666666668607,79.8719328466832 182.23188405798282,81.46341591472446 182.31884057971183,78.56462848611409 181.73913043481298,71.83843271082151 182.65217391308397,71.66790487602702 186.37681159423664,71.87632775453676 187.49275362316985,71.63000977099 188.27536231884733,71.89527527225437 188.0289855072624,71.4215864942671 188.66666666668607,71.04263421850919 187.52173913043225,65.30137094977545 186.59420289855916,62.68645341650699" stroke="#4dd2ff" stroke-linecap="round" stroke-linejoin="round" stroke-width="0.5"><title>2024-08-18 4.9km</title><desc>1723938111000</desc></polyline><polyline fill="none" points="31.727876544056926,105.4412342596188 30.384749630407896,107.63243421517836 29.189366677135695,108.66666666666424 28.168590222718194,108.17584559987154 26.046449699031655,106.07230395741499 25.227142281655688,105.54641277355404 24.74361659277929,104.77510152639297 24.501853748282883,104.84522093593841 18.310038676077966,99.7263961351855 12.104792334663216,93.99375382783182 11.513816492690239,92.34578751415393 11.661560453183483,91.13609567852836 11.446660146990325,90.55754308896576 11.715285529731773,89.06731899941951 12.386848986614496,88.80433635233203 13.743407169473357,86.92837671349116 16.013291653594933,84.66666666666424 18.699545481067616,86.61279182999715 19.7068906663917,87.98032031776529 20.566491891106125,88.6640787044089 21.412661846727133,88.57641759097896 22.86323891353095,89.89132755313767 23.50793983216863,91.04843637490558 20.05610366392648,95.20341679362173 20.660510775109287,95.57157266194554 24.00489679025486,91.60945480884402 25.32116116565885,92.34578751415393 28.155158953624777,94.95797891922848 28.90731002530083,95.36119801865425 30.46533724514302,97.04418481619359 31.21748831687728,97.41233502503746 33.3933539170539,99.51602879122947 34.1723675270332,99.9367631095447 35.220006519695744,101.2164875750459 34.7096182925161,102.18065450875292 33.044140919460915,103.77589547890966 32.829240613325965,104.31932436341594 31.99650192685658,104.93287014015368" stroke="#4dd2ff" stroke-linecap="round" stroke-linejoin="round" stroke-width="0.5"><title>2024-08-14 5.1km</title><desc>1723587841000</desc></polyline><polyline fill="none" points="62.66505686735036,106.42306154813559 60.78336891491199,108.63634800253203 60.458138898480684,108.66666666666424 59.22691097896313,107.37811561416311 58.518374157371,107.01428653227777 58.03052913269494,106.34726322916686 57.48460731934756,106.13502764089208 56.671532278181985,105.13448258060816 51.43300594150787,100.96544077641738 46.15963353164261,96.08365850033442 45.71824993786868,95.00720970110706 45.79955744202016,94.23397900972486 45.49755814101081,93.21815736526332 45.67178850690834,90.79227431637992 47.18178501195507,89.10928455879184 47.55347645934671,89.07896016810992 47.20501572737703,89.04863576860953 46.71717070270097,88.44214591258788 46.42678675946081,88.57860643993627 45.69501922238851,89.59447360164631 45.892480303824414,90.51935891671747 45.57886564510409,90.67097867202392 45.33494313270785,87.19883060149004 45.42786599457031,85.10638820047461 48.099398272752296,84.66666666666424 49.06347296439344,84.86378344726108 51.131006640556734,84.72731802373892 49.04024224891327,87.53240446747805 53.802538918622304,91.62617802499153 55.38222756999312,92.50556011506706 56.09076439164346,93.65784258386702 59.27337240992347,96.37172036554693 56.34630226169247,100.02548816588387 56.88060871732887,100.17709400269814 58.73906595428707,97.87266132943478" stroke="#4dd2ff" stroke-linecap="round" stroke-linejoin="round" stroke-width="0.5"><title>2024-08-10 5.2km</title><desc>1723241479000</desc></polyline><polyline fill="none" points="91.93351903435541,105.9599260431205 90.8103992571705,107.40829430829763 90.24883936857805,108.61234609827079 89.48672237701248,108.07139679847023 88.95190343540162,108.0364967593996 87.90900649956893,106.30893205354369 86.06388115131995,105.33171264947305 85.62265552463941,104.49408964168106 84.19201485603116,103.48195398820826 81.451067780843,100.75961545198516 80.02042711235117,99.9568627325134 78.46945218200563,98.35134107577323 76.2232126276358,96.43166723161994 76.04939647164429,96.60618431313924 75.50120705657173,95.96046983533597 74.45831012068084,95.33220374280063 74.0705663880799,94.54686647040944 73.36193129059393,94.1454698663947 72.84048282261938,92.92381971084978 73.0677808727487,92.26063295438507 72.66666666668607,90.8818907827008 73.0945218198467,89.27624688664946 74.1106778086978,88.47341682731349 74.63212627667235,87.53095724885497 77.1056638811715,84.77334753052128 77.61374187550973,84.72098723506497 77.66722376964753,85.00024187825329 77.92126276693307,84.96533508362336 79.09786443825578,85.83800188182795 79.53909006499453,86.51867754884734 80.76917363045504,87.42623905788787 81.18365831009578,87.46114513176872 81.78532961930614,88.78756836415414 83.00204271124676,89.0668134794978 84.31234911788488,88.92719100357499 85.18142989784246,89.4682271866186 85.42209842154989,90.37576623685163 85.22154131846037,90.6724601968308 82.5875580314896,93.46483775301022 81.46443825442111,95.38455937698018 81.90566388110165,95.55907799155102 82.66778087272542,94.87845394988835 84.20538532960927,92.76674949677545 85.18142989784246,91.75451426301152 85.58254410402151,91.66725220246008 90.7168059424148,95.85575904986763 91.7195914578042,97.11228240463242 93.31067780870944,98.298986744594 94.07279480039142,98.38624395040097 94.25998142990284,98.9621399066964 94.941875580349,99.36352029146656 95.15580315695843,99.83470423608378 96.66666666668607,100.55020222019812 96.43936861655675,101.6321666243748 93.41764159698505,104.80819895930472" stroke="#4dd2ff" stroke-linecap="round" stroke-linejoin="round" stroke-width="0.5"><title>2024-08-09 5.2km</title><desc>1723159591000</desc></polyline><polyline fill="none" points="123.01954286365071,105.87867668673425 123.18178475357126,106.21394471526582 122.30297451699153,106.65508543748729 121.65400695771677,107.48442562494893 121.59992632776266,107.94320710730244 120.8022370361141,108.66666666666424 119.40966081514489,106.74331338818592 118.9364553031046,106.6903766254909 118.24692727136426,105.87867668673425 117.23291546001565,105.4198873472269 116.81379057792947,105.03167961924191 116.85435105039505,104.59053295618651 116.55690758564742,104.76699181513686 104.8078907308518,94.69077721823851 103.95612080924911,93.45545652112196 103.6586773446179,92.5201338569168 103.40179435245227,90.24356345443084 103.53699592722114,88.97290081054234 104.76733025844442,88.10813662818691 106.5790313614416,85.69029364096787 107.80936569260666,84.66666666666424 108.29609136213548,84.68431548123772 111.56796947360272,87.52574092726718 112.36565876519307,87.84341165846126 112.54142081254395,88.60228834931331 115.01560963236261,90.08473135649547 115.2995329395635,90.68476262810145 119.23389876785222,94.0025286774835 119.34206002770225,94.30253493480268 116.13778270361945,98.06137357719126 115.94850049883826,98.431956954606 116.16482301871292,98.69665866949799 116.75970994797535,98.4848973440603 118.23340711387573,96.47314619782264 120.04510821698932,94.81430859162356 127.26487231417559,101.07894794619642 126.22382018773351,102.7024069968902 124.61492144700605,104.25526041263947" stroke="#4dd2ff" stroke-linecap="round" stroke-linejoin="round" stroke-width="0.5"><title>2024-08-08 4.9km</title><desc>1723122982000</desc></polyline><polyline fill="none" points="157.9350393700879,95.75749357006498 157.96456692914944,95.73822431076587 157.96751968504395,95.79217820123267 158.0,95.66885486054525 157.9586614173313,95.60333910083682 157.72539370079176,95.76520126981814 157.4035433070967,95.45689151899023 157.32677165354835,95.44532983308636 157.23228346457472,95.53396929519658 157.13188976378297,95.46074541315284 157.06102362205274,95.48386876632867 156.44094488189148,96.22380534441254 155.54035433070385,97.08703840234739 152.49015748032252,100.67454757046107 152.31889763780055,100.77087566481168 148.00492125983874,97.11016032717816 147.09842519686208,96.52439863900145 146.93602362205274,96.26619691434462 146.8681102362316,95.96560067169958 146.0679133858357,95.56865422085684 145.68405511812307,95.66885486054525 145.29133858268324,95.67270872368135 144.5088582677272,95.56865422085684 143.68799212598242,95.56094646354722 136.681102362214,95.83842430506047 136.2145669291349,95.8114474210397 135.8956692913489,95.63031619811045 135.52952755906153,95.842278143371 134.11811023621703,95.90393947974007 134.07381889763928,95.86925499580502 134.0,94.24674084699109 134.01476377951622,93.6108113490809 138.60334645670082,93.41424821430519 138.70964566929615,93.42195660018479 139.6663385826687,93.86903911897025 140.10629921259533,94.00778732225808 144.86023622046923,94.03091195169873 145.3297244094574,93.94226742849787 146.40157480315247,93.46049849572228 146.8710629921261,93.47206105337136 147.30807086614368,93.36799785163566 147.32283464567445,93.2832053090151 148.81692913387087,92.63954392015512 149.0,92.67808696131397 149.3188976378151,92.61256375775702 150.7657480314956,92.56245766852044 150.78051181102637,92.67423265973412 150.84547244093847,92.69735846072399 153.64468503938406,92.60870944658927 153.69783464567445,92.77829860419479 153.71850393702334,93.42195660018479 153.79822834645165,93.7148735909268 153.96948818898818,94.01164142857124 156.44389763780055,96.14287579409574 156.59744094489724,96.03496934001669 156.74507874016126,96.0850688201208 157.25885826771264,95.54553094215771 157.69586614174477,95.87310882960628" stroke="#4dd2ff" stroke-linecap="round" stroke-linejoin="round" stroke-width="0.5"><title>2024-07-21 16.7km</title><desc>1721568012000</desc></polyline><polyline fill="none" points="166.42980789527064,98.15498849752476 165.36584336077794,97.18285826063948 165.04665400041267,96.17104183143238 165.06185349373845,94.32594536240504 164.66666666668607,93.43314772850135 164.78826261340873,91.78641666095064 166.00422208145028,91.05232527777844 167.67616634996375,88.53257595056493 168.96812328475062,87.48101316015527 169.22651467175456,86.78658042782627 169.83449440565892,86.72705745666462 171.64323411439545,87.9571935480053 171.84082752792165,88.53257595056493 174.91112518461887,90.9729638089484 175.0783196114935,91.46897222659027 175.959890225844,91.72689588618232 177.73823094781255,93.63154771106201 178.45260713528842,93.86962730671803 182.73886426002719,97.83755898293748 185.8243614101666,100.23810123521253 186.55393709096825,101.17053179979848 188.66666666668607,102.63860096210556 188.60586869320832,103.094889488857 187.1923158116988,104.46374585098238 185.97635634365724,106.60627587666386" stroke="#4dd2ff" stroke-linecap="round" stroke-linejoin="round" stroke-width="0.5"><title>2024-07-16 2.5km</title><desc>1721136594000</desc></polyline><polyline fill="none" points="32.30619077270967,120.70989569004814 31.095713981165318,122.08276038159966 30.165391206915956,123.35210722979173 29.203352883516345,124.00746314554999 28.347033057216322,124.93184442036 27.453711756912526,124.29029814695969 21.475330747227417,119.15761357152951 21.385470024717506,118.75746144786899 21.290323377324967,115.42502817360582 21.25860782820382,113.21017507698343 21.35375447559636,111.77494988122999 22.410939446359407,111.48513948852633 23.732420659798663,111.33333333333212 23.91214210484759,115.6803160760719 24.028432451596018,116.19088773199837 24.313872393744532,116.79804682487884 28.891483317129314,120.68919893143902 30.820845888811164,122.51047889922847 30.112531958380714,123.42109249213536 29.213924733223394,124.00056470968411 28.32588935777312,124.94564101849392 28.426321930019185,125.05601365826442 28.36817675663042,125.19397909453619 29.08177661188529,125.84241123593529 29.060632912442088,125.9458836247286 27.913587219198234,127.31859582175457 27.564716178836534,127.91871372180321 26.602677855436923,129.0637450719223 25.67764100601198,129.9742320785408 24.942897451343015,130.44326397698023 24.13943687354913,130.643290867225 23.193256324739195,131.7537695476385 23.193256324739195,132.1538113592651 24.239869445795193,133.0711358010085 24.59931233583484,133.25046029805162 25.10147519694874,133.1607981347952 25.656497306597885,132.54005540488288 25.98422464754549,132.07794162135542 25.91550762442057,131.6227206298281 24.631027884955984,130.58811112021067 24.150008723285282,130.657085793875 23.198542249563616,131.76066684899706 23.177398550178623,132.3331393453809 23.024106729397317,132.87801634913558 22.558945342258085,133.69187153886378 21.45418704781332,135.133326340012 21.19517672996153,135.33333333333212 18.10819661532878,132.78835347757558 14.693489159777528,129.49829788225907 14.3604758939764,129.07064276687015 14.635343986388762,129.16721039009644 17.241304939321708,125.62856757935879 18.287918060348602,123.54526570991948 18.377778782887617,123.19344074324908 19.06494901390397,122.77262703991073 21.13174563171924,122.07586166403053 21.713197365636006,121.69643064233969 22.812669735227246,120.5098266427267 23.822281382308574,119.06792459784629 25.19662184434128,117.54318592926211 28.91791294142604,120.69609785199646 30.794416264543543,122.44839096813666 31.835743460746016,121.22041285882733 32.147613027103944,120.7650870019279 32.105325628246646,120.6685021637204" stroke="#4dd2ff" stroke-linecap="round" stroke-linejoin="round" stroke-width="0.5"><title>2024-07-06 16.1km</title><desc>1720267100000</desc></polyline><polyline fill="none" points="46.27820346318185,121.25932820839807 47.981540934648365,120.07413990376517 50.70688088843599,134.00001491617877 58.08800993161276,134.4444545834558 61.26757321180776,129.85190195182804 59.33712407760322,114.00002807821147 53.65933250589296,112.07408257806674 48.322208429221064,116.66671580332331 49.571322574745864,131.92596055741888 53.318665011785924,135.18518692918587 58.315121594350785,134.4444545834558 61.38112904317677,128.81487105682027 60.01845906628296,114.5926259572152 53.65933250589296,111.92593277199194 49.684878406114876,115.03707413899247 48.776431754697114,118.59265257255174 50.13910173159093,132.07410743797664 54.90844665188342,134.88889405620284 58.7693449202925,133.85186831699684 61.49468487408012,127.777839100454 61.04046154860407,116.96301400614902 58.7693449202925,112.81483128061518 50.70688088843599,113.11113061010838 48.54932009195909,118.14820595097262 49.79843423748389,132.37040113448165 53.20510918041691,134.740747586824 58.88290075166151,134.29630804958288 61.38112904317677,131.3333728176076 60.92690571723506,117.11116307531483 57.179563280195,111.92593277199194 54.0,111.33333333337214 49.3442109124735,114.74077537248377 49.00354341743514,130.1481962982798 50.479769226163626,133.1111349965213 55.24911414599046,135.33333333337214 61.38112904317677,131.48151978489477 60.813349885400385,116.66671580332331 55.13555831462145,111.62963309616316 51.27466004667804,112.96298095607199 48.66287592379376,116.518566669547 49.684878406114876,131.48151978489477 52.18310669763014,134.14816149347462 57.066007448825985,135.03704050334636 61.608240705914795,130.74078473087866 60.359126559924334,114.44447652017698 53.65933250589296,111.77778294484597 48.66287592379376,116.96301400614902 49.79843423748389,131.92596055741888 54.90844665188342,135.03704050334636 59.45067990897223,134.14816149347462 61.72179653681815,127.481544060749" stroke="#4dd2ff" stroke-linecap="round" stroke-linejoin="round" stroke-width="0.5"><title>2024-02-29 2.9km</title><desc>1709196138000</desc></polyline><polyline fill="none" points="74.04920108662918,111.33333333337214 82.79299627011642,116.518566669547 82.45232892548665,130.29634343879297 86.99456018954515,135.18518692895304 92.89946083305404,133.85186831641477 95.17057646531612,130.59263765520882 94.26213021250442,115.62967141100671 89.606343166437,111.62963309616316 84.95055612083524,112.07408257771749 81.88455001730472,115.03707413887605 83.02010783366859,131.62966673041228 88.13011800590903,135.18518692895304 94.71635333867744,132.37040113448165 94.37568599358201,115.62967141100671 89.606343166437,111.92593277222477 82.3387731439434,114.29632706055418 82.79299627011642,130.29634343879297 85.17766768392175,134.29630804911721 91.19612410850823,135.33333333337214 94.82990912022069,132.22225429676473 95.05702068377286,121.70377346512396 92.10457036178559,112.6666815832723 83.58788674138486,113.11113060975913 81.88455001730472,117.70375913381577 84.04210986802354,133.55557505367324 91.76390301715583,135.33333333337214 94.48924177559093,133.11113499605563 95.28413224685937,128.81487105682027 93.35368395922706,114.29632706055418 90.74190098280087,112.22223236132413 84.49633299419656,112.6666815832723 81.99810579931363,117.11116307496559 83.70144252339378,132.81484151654877" stroke="#4dd2ff" stroke-linecap="round" stroke-linejoin="round" stroke-width="0.5"><title>2024-02-26 2.1km</title><desc>1708947688000</desc></polyline><polyline fill="none" points="111.32683250959963,120.90395406086463 108.05391634395346,126.05732753989287 110.311099906452,132.83029257005546 114.3740303190425,135.33333333331393 120.80700347293168,133.86095716734417 121.93559525394812,116.92847649700707 116.29263634746894,111.33333333331393 110.42395908432081,114.13090880203526 109.74680401571095,129.14933896629373 113.13257935969159,134.15543257299578 117.30836895061657,134.5971455196268 122.16131361061707,131.7996269177529 122.0484544322826,116.7812362856348 116.85693223774433,111.48057434143266 109.97252237191424,115.16159254137892 109.85966319357976,130.03276905854 112.00398757820949,134.00819488067646 114.93832620978355,134.89162070979364 121.82273607607931,132.09410292602843 121.93559525394812,116.92847649700707 120.80700347293168,113.98366818152135 115.72834045672789,111.48057434143266 109.85966319357976,116.48675579886185 110.19824072811753,131.50515082274796 114.82546703191474,134.89162070979364 119.79127086978406,133.71371943224221 122.61275032255799,129.29657736897934 121.82273607607931,115.30883298965637 119.33983415691182,112.06953815789893 115.5026221005246,111.33333333331393 110.42395908432081,114.71987106773304 109.74680401571095,129.59105410944903 114.03545278450474,134.89162070979364 118.88839744450524,134.4499078920344 122.16131361061707,131.50515082274796 122.38703196682036,117.81191731221043 121.25844018533826,114.57263053383213 117.08265059487894,112.06953815789893 112.22970593487844,112.95298323623138 110.53681826265529,115.30883298965637 109.97252237191424,131.65238888101885 113.92259360617027,135.0388582725427 121.25844018533826,132.53581677662442 121.82273607607931,117.22295685479185 119.79127086978406,113.39470548508689 116.29263634746894,112.06953815789893 109.63394483784214,115.75055420410354 109.85966319357976,130.91619837575126 112.11684675654396,134.74438312568236 120.01698922598734,133.86095716734417 122.0484544322826,130.62172202236252 122.16131361061707,121.93463086686097" stroke="#4dd2ff" stroke-linecap="round" stroke-linejoin="round" stroke-width="0.5"><title>2024-01-18 3.0km</title><desc>1705581243000</desc></polyline><polyline fill="none" points="143.16110504465178,114.29632706090342 139.98154269484803,115.48152212542482 139.86798689654097,131.48151978489477 142.59332605358213,134.4444545834558 147.1355579821393,135.18518692953512 151.67778991069645,132.2222542973468 151.67778991069645,116.22226833656896 149.63378554256633,112.51853186439257 146.11355579830706,111.33333333337214 141.34421227360144,113.25928024190944 139.30020790547132,116.51856666931417 139.52731950208545,130.1481962982798 144.75088621955365,134.8888940558536 151.45067831408232,131.9259605569532 151.56423411238939,116.07411913725082 146.79489058768377,111.62963309593033 142.47977025574073,112.66668158350512 139.64087529992685,116.22226833656896 140.09509849268943,130.74078473134432 142.47977025574073,134.4444545834558 145.8864442021586,135.33333333337214 151.67778991069645,131.7778136547422 152.01845730561763,116.8148649155628 147.93044857028872,111.77778294496238 142.8204376497306,112.3703821238596 140.2086542909965,115.18522348930128 140.09509849268943,130.74078473134432 145.43222100939602,135.33333333337214 152.13201310345903,132.2222542973468 151.33712251624092,116.07411913725082 146.68133478891104,112.3703821238596 140.09509849268943,115.0370741385268 140.2086542909965,131.48151978489477 146.22711159661412,135.33333333337214 151.67778991069645,132.5185479504289 151.79134570853785,116.37041751400102 147.47622537706047,111.77778294496238 142.36621445743367,112.51853186439257 139.52731950208545,116.51856666931417 139.75443109869957,129.55560751864687 144.41021882509813,134.8888940558536 151.45067831408232,132.66669474437367 151.79134570853785,116.07411913725082 146.45422319276258,111.33333333337214 139.86798689654097,115.62967141123954 140.09509849268943,130.00004913599696 141.91199126420543,133.2592817042023 145.77288840338588,134.59260109625757 150.42867613071576,134.00001491582952 152.69979209499434,130.59263765567448 151.2235667174682,114.7407753727166 147.816892771516,111.77778294496238 143.04754924634472,111.92593277210835 140.09509849268943,114.7407753727166 139.86798689654097,127.03710133873392" stroke="#4dd2ff" stroke-linecap="round" stroke-linejoin="round" stroke-width="0.5"><title>2024-01-17 3.3km</title><desc>1705483266000</desc></polyline><polyline fill="none" points="170.99744493234903,125.06925068621058 168.33638166915625,127.33339533861727 172.84861937584355,133.22014819085598 178.28644430544227,134.88050831004512 183.724269233644,132.91826424584724 184.53415805334225,118.42773105448578 181.41030117869377,112.69183879939374 176.6666666669771,111.63522359123453 172.15442895982414,114.50317663920578 171.8073337515816,129.4465925329132 176.08817465323955,134.2767413026886 184.30276124738157,132.46543816302437 184.07136444188654,117.52206597535405 179.79052354069427,111.48427847330458 171.34454014059156,116.01262241113 171.46023854333907,127.63528091658372 174.81549222301692,134.72956659109332 183.37717402586713,133.67297394259367 184.53415805334225,118.12584278313443 181.64169798512012,112.23900384269655 175.27828583400697,112.38994885038119 171.34454014059156,116.16356686712243 171.8073337515816,130.8050741587067 177.245158680249,135.33333333337214 183.9556660396047,133.52203204715624 184.41845965012908,116.61640010157134 180.2533171516843,111.33333333337214 174.93119062576443,112.08805881335866 172.50152416806668,115.10695521323942 171.92303215432912,130.8050741587067 173.1957145840861,133.52203204715624 178.74923791596666,135.33333333337214 184.9969516643323,131.10695872223005" stroke="#4dd2ff" stroke-linecap="round" stroke-linejoin="round" stroke-width="0.5"><title>2024-01-13 2.0km</title><desc>1705132259000</desc></polyline><polyline fill="none" points="16.262348485644907,144.90005751594435 17.52707748254761,157.9500393854687 19.596634024288505,160.95001174649224 23.96569783287123,162.0 30.289342818781734,157.20004492392763 29.829441364854574,142.3500416672323 24.080673195887357,138.3000034657307 18.1019542994909,141.7500370168127 18.1019542994909,157.65004166623112 22.93091956200078,161.4000068437308 30.4043181813322,157.80004053679295 30.174367454834282,142.3500416672323 26.38018046366051,138.6000068440335 22.126092018559575,138.45000516576692 17.41210211906582,143.55004991486203 17.75702820951119,156.6000489599537 20.63141229422763,161.5500051653944 23.1608702884987,162.0 28.79466309444979,160.05002095911186 30.289342818781734,156.90004698571283 29.714466001838446,141.90003821253777 23.96569783287123,138.3000034657307 20.86136302119121,138.45000516576692 17.75702820951119,142.20004053774755 17.98697893647477,157.9500393854687 23.73574710590765,162.0 30.174367454834282,157.3500438601477 29.369539911393076,141.4500345599372 23.850722468923777,138.0 17.75702820951119,142.05003938591108 18.676831116434187,156.7500479836017 23.73574710590765,161.10001013393048" stroke="#4dd2ff" stroke-linecap="round" stroke-linejoin="round" stroke-width="0.5"><title>2024-01-11 2.0km</title><desc>1704963338000</desc></polyline><polyline fill="none" points="51.406944680493325,143.8724013985484 49.743475230410695,146.6809272331302 49.93917751824483,158.04259862197796 53.95107442792505,161.87234217108926 58.15867362590507,161.36171066894894 60.311398797202855,158.42557373282034 59.62644078815356,144.51070351823 56.7887576087378,141.57450990349753 50.72198667144403,141.95749223983148 47.29719662666321,139.14895120816072 48.2757080681622,138.0 48.080005779862404,141.44684908760246 51.309093536343426,141.95749223983148 49.645624085795134,144.63836388586788 50.03702866239473,156.76601370499702 51.99405154585838,160.97873684577644 56.49520417582244,162.0 59.82214307645336,160.08513060532277 60.507101085502654,146.5532671637484 56.2016507438384,141.57450990349753 52.77686069859192,142.0851529808715 49.841326374560595,145.40432570129633 50.13487980654463,158.04259862197796 54.04892557207495,161.74468432366848 57.57156676147133,161.6170264573302 60.213547653052956,158.42557373282034 59.72429193230346,144.3830431314418 54.44033014914021,141.19152739993297 50.33058209531009,145.14900517085334 50.62413552729413,158.80854867608286 54.63603243744001,161.6170264573302 58.647929347120225,160.72342087037396 60.70280337380245,157.6596233426826 60.01784536475316,144.2553827263182 57.37586447270587,141.19152739993297 54.831734725274146,140.9362056373502 50.33058209531009,144.51070351823 50.42843323899433,157.53196487919195 54.44033014914021,161.2340527464985 58.15867362590507,160.85107886767946 60.507101085502654,157.78728178754682 60.213547653052956,144.63836388586788 58.941482779569924,141.82983147969935 56.00594845507294,140.80854472809006 50.13487980654463,144.12772230233531 50.03702866239473,157.2766478957492 52.48330726614222,160.3404467672808" stroke="#4dd2ff" stroke-linecap="round" stroke-linejoin="round" stroke-width="0.5"><title>2024-01-09 2.6km</title><desc>1704792913000</desc></polyline><polyline fill="none" points="75.41043034335598,146.5063925558934 79.95122552104294,143.31650351092685 80.88267068564892,159.1139533831738 84.84131263522431,161.6962059964426 89.14924652129412,161.54430896171834 92.87502717925236,158.6582610787591 93.45718040736392,154.70891940279398 93.10788847086951,143.16460378828924 89.8478303947486,138.60760177869815 84.25915940711275,138.30380093341228 80.88267068564892,141.0380053386325 80.88267068564892,157.13928528816905 85.8891884451732,162.0 92.52573524322361,160.481029095361 93.34074976155534,144.0760017912835 89.8478303947486,138.60760177869815 84.25915940711275,138.60760177869815 81.23196262214333,141.79750528465956 81.23196262214333,156.37979655980598 84.60845134453848,161.08861772390082 90.66284491401166,161.24051482521463 93.34074976155534,159.1139533831738 93.34074976155534,143.6203028896125 90.66284491401166,139.06330287910532 86.00561909051612,138.0 83.44414488831535,138.30380093341228 80.9991013314575,141.94940520753153 81.11553197680041,158.05067102937028 86.70420296443626,161.54430896171834 93.69004169851542,158.81015853595454 93.45718040736392,144.37980094749946 89.49853845825419,138.30380093341228 84.49202069826424,138.1519004778238 80.64980939449742,142.86080427630804 81.34839326748624,158.81015853595454 87.28635619208217,161.84810300928075 93.69004169851542,158.20256857492495 92.87502717925236,141.3418053833302 89.03281587548554,138.30380093341228 84.49202069826424,138.45570136688184 80.88267068564892,141.49370537279174 80.88267068564892,156.8354898634134 85.42346586287022,161.3924119048752 93.45718040736392,158.6582610787591 93.92290298966691,144.8354995161062 90.66284491401166,138.45570136688184 83.44414488831535,138.9114025348099 80.88267068564892,144.8354995161062 81.93054649559781,160.02533739164937 90.19712233170867,161.08861772390082" stroke="#4dd2ff" stroke-linecap="round" stroke-linejoin="round" stroke-width="0.5"><title>2024-01-08 3.0km</title><desc>1704701613000</desc></polyline><polyline fill="none" points="108.77168825874105,142.43316250981297 109.47472165944055,158.7898408395704 115.68485003337264,161.54140643787105 121.07477277331054,157.26119015563745 120.4889116063714,142.12742776831146 116.27071120077744,138.4586038897978 109.59189389226958,141.0573554674629 109.00603272533044,156.64972925605252 113.4585775975138,161.69427098077722 118.2626391700469,161.38854187203106 121.30911723989993,157.87265069724526 120.60608383920044,143.04463172599208 116.15353896701708,138.3057359488448 111.7009940952994,138.91720757936127 109.12320495862514,141.66882548783906 108.88886049203575,157.71978559542913 114.16161099867895,161.84713550133165 117.79395023640245,161.69427098077722 121.54346170742065,158.1783808345208 121.19194500613958,143.5032334025018 115.68485003337264,138.0 111.34947739494964,138.91720757936127 108.77168825874105,142.2802951503545 108.88886049203575,157.10832496441435 113.10706089716405,161.69427098077722 118.1454669367522,161.54140643787105 121.19194500613958,158.7898408395704 121.54346170742065,145.18477116385475 116.97374460147694,138.15286798565648 111.34947739494964,139.07007543067448 109.00603272533044,141.51595801615622 109.8262383597903,160.1656245442573 117.5596057693474,161.69427098077722 122.01215064106509,156.80259451456368 120.02022267179564,140.75162032304797 112.872716430109,138.15286798565648 108.537343791686,142.73889716283884 109.24037719191983,158.94270578527357 115.33333333302289,162.0 121.66063394071534,157.56692047137767 120.02022267179564,140.9044879062567 113.4585775975138,138.15286798565648 108.6545160249807,144.72617022471968 109.00603272533044,158.02551577694248 112.05251079564914,161.69427098077722 116.27071120077744,162.0 119.55153373815119,161.0828126743436 122.12932287482545,156.03826799918897" stroke="#4dd2ff" stroke-linecap="round" stroke-linejoin="round" stroke-width="0.5"><title>2023-12-29 2.9km</title><desc>1703839119000</desc></polyline><polyline fill="none" points="141.3142160596326,140.56606437894516 139.57874052599072,144.4906210899353 141.1985176904127,159.73587289557327 148.14041982451454,161.24529151665047 151.72706926055253,156.4151441596914 151.14857741631567,141.16984330618288 148.8346100379713,138.6037804275984 144.09097691252828,138.0 139.9258356327191,142.37740009988192 140.96712095290422,160.03775679680984 148.4875149312429,161.24529151665047 151.958465998061,157.3207985110348 151.03287904663011,140.71700914402027 144.09097691252828,138.0 140.04153400147334,142.22645557811484 140.15723237022758,158.07550986332353 145.59505570912734,162.0 152.30556110525504,157.77362538815942 151.03287904663011,140.86795388686005 143.51248506829143,138.0 139.9258356327191,144.33967687713448 140.04153400147334,157.77362538815942 141.54561279714108,160.49058248184156 146.40494429133832,161.69811667269096 152.1898627365008,157.92456763668451 151.84276762977242,141.77362187975086 144.7851671264507,138.45283535390627 139.57874052599072,144.18873264221475 140.38862910866737,158.83022066368721 147.2148328735493,162.0 151.84276762977242,157.3207985110348 151.958465998061,142.37740009988192 148.8346100379713,139.0566155173583 144.5537703889422,138.90567050944082 139.69443889521062,144.18873264221475 140.50432747695595,159.43398890679237 148.25611819373444,161.69811667269096 152.53695784322917,156.11325919930823 151.84276762977242,141.47173263679724 148.4875149312429,138.7547254798701 143.8595801750198,138.45283535390627 139.4630421572365,144.94345359667204 140.62002584617585,159.58493091224227 148.02472145622596,161.84905834740493 152.42125947400928,156.71702903171536" stroke="#4dd2ff" stroke-linecap="round" stroke-linejoin="round" stroke-width="0.5"><title>2023-12-28 2.9km</title><desc>1703769423000</desc></polyline><polyline fill="none" points="172.46510028932244,143.62968067300972 169.3990923925303,142.29633807728533 171.10243011265993,157.11115722474642 175.19044064218178,161.1111212503165 181.20890058763325,159.62965493428055 183.70712924422696,156.37042141286656 183.59357339609414,145.40746806981042 179.8462304114364,138.88889902853407 175.07688479404896,138.59259943896905 170.9888742645271,141.111143186572 170.9888742645271,157.2593043219531 174.73621725011617,160.96297471621074 178.8242277787067,161.40741425403394 183.36646170029417,157.2593043219531 182.79868246009573,143.18523333605845 178.8242277787067,138.74074924446177 172.57865613652393,138.88889902853407 170.53465087292716,141.111143186572 170.76176256872714,155.77783237327822 174.05488216178492,161.1111212503165 179.39200701890513,161.25926776300184 182.11734737176448,158.88892096397467 182.68512661196291,143.925978789106 179.61911871563643,138.59259943896905 172.01087689679116,139.33334824990015 169.96687163226306,143.62968067300972 172.2379885930568,159.7778016636148 178.37000438664109,161.5555607228307 183.48001754842699,155.77783237327822 181.77667982783169,140.37039567506872 177.57511345064268,138.0 172.2379885930568,139.18519853090402 170.1939833285287,144.51857476157602 172.57865613652393,160.07409505650867 177.23444590624422,162.0 180.41400965116918,161.1111212503165 183.25290585216135,157.2593043219531 183.9342409404926,150.59266349149402" stroke="#4dd2ff" stroke-linecap="round" stroke-linejoin="round" stroke-width="0.5"><title>2023-11-08 2.1km</title><desc>1699431646000</desc></polyline><polyline fill="none" points="18.70644564460963,166.703052787052 16.365128982346505,171.9394550944562 17.257059139199555,185.17579356615897 23.612061507999897,188.23030819935957 28.963642448652536,186.0485129894805 30.078555145300925,183.72125949180918 28.963642448652536,168.01215594867244 25.95337816979736,165.10303547256626 21.49372738506645,164.81212295684963 17.145567869767547,169.46671299549052 17.368550408631563,184.44852679490577 23.723552777431905,188.23030819935957 29.74408133653924,184.01216647651745 29.409607527777553,168.8848904320621 26.84530832618475,165.39394790277584 22.720131350681186,164.66666666668607 17.257059139199555,170.48490166320698 17.368550408631563,184.59398019179935 23.27758769830689,188.37576104298932 29.63259006664157,184.15761993738124 29.409607527777553,169.32125738664763 26.622325787320733,165.53940408618655 23.500570237636566,165.10303547256626 20.044340879190713,165.83031638915418 17.03407660033554,170.19399072165834 17.480041678529233,183.8667129947571 19.821358340326697,187.50304366118507 24.615482933819294,188.08485533419298 28.183203562162817,186.7757785913418 30.30153768416494,182.26672328996938 29.409607527777553,168.59397902252385 22.831622620113194,164.66666666668607 20.044340879190713,165.83031638915418 17.145567869767547,171.3576339770225 17.70302421785891,184.01216647651745 19.821358340326697,187.50304366118507 24.392500394955277,188.66666666668607 29.967063875403255,183.575805967208 29.409607527777553,169.32125738664763 24.281009125057608,165.10303547256626 17.59153294796124,169.17580175644252 17.59153294796124,185.32124685682356 23.16609642934054,188.66666666668607 29.63259006664157,184.88488692144165 29.63259006664157,169.61216858337866 27.402764674741775,165.83031638915418 22.720131350681186,164.66666666668607 17.480041678529233,169.17580175644252 17.81451548729092,183.8667129947571" stroke="#4dd2ff" stroke-linecap="round" stroke-linejoin="round" stroke-width="0.5"><title>2023-10-27 2.9km</title><desc>1698413800000</desc></polyline><polyline fill="none" points="50.87721509253606,166.0000149164116 47.24342901818454,169.4074524709722 49.06032205559313,186.1481748498045 56.66856164857745,187.77778791706078 60.41590353753418,182.14820438995957 59.62101283343509,167.77780985296704 55.98722675954923,164.66666666662786 51.33143835188821,164.66666666662786 48.49254298117012,166.592613575398 47.584096462931484,171.7778370535234 48.946766240522265,186.0000280776294 56.32789420429617,188.37037383706775 59.053233759477735,187.18520165001974 60.75657098181546,182.29635172581766 59.16678957408294,167.77780985296704 52.01277324091643,165.55556569504552 47.69765227753669,170.14819824881852 48.606098795775324,185.5555876303697 55.30589187052101,188.66666666662786 60.41590353753418,183.9259709888138 59.28034538868815,168.07410870597232 52.80766394454986,165.1111162782181 47.69765227753669,169.4074524709722 48.71965461084619,185.7037344679702 52.80766394454986,188.518520262558 56.78211746318266,188.0740809199633 60.41590353753418,183.33338246925268 59.734568648505956,168.81485545891337 56.214338389225304,165.25926610524766 50.19588020304218,165.85186519788112 47.35698483278975,170.7407944810111 49.741656944621354,187.18520165001974 55.078780240379274,188.37037383706775 59.50745701929554,185.7037344679702 60.41590353753418,174.5926615417702 60.18879190739244,169.85190000280272 57.00922909239307,165.40741591062397 52.23988487012684,165.25926610524766 48.03831972181797,168.07410870597232 47.924763907212764,183.62967677228153 50.19588020304218,187.62964138260577 56.555005833506584,188.37037383706775 59.62101283343509,185.5555876303697 60.075236092787236,170.29634733917192 56.214338389225304,165.40741591062397 48.946766240522265,166.74076318577863 47.81120809260756,182.59264633234125 50.87721509253606,187.92593442928046" stroke="#4dd2ff" stroke-linecap="round" stroke-linejoin="round" stroke-width="0.5"><title>2023-10-21 2.9km</title><desc>1697891041000</desc></polyline><polyline fill="none" points="78.28216450801119,164.66666666668607 78.71501211216673,183.1608370525646 82.2860048445873,188.3843171938206 90.18547361716628,186.40786857239436 90.18547361716628,169.6078919125721 88.0212355973199,166.7843377260724 84.01739526120946,165.93726985988906 78.71501211216673,169.7490694053704 79.4724954185076,186.12551843898837 83.69275955762714,188.52549194043968 88.12944749882445,187.6784431503038 90.29368551820517,184.85494181630202 90.61832122132182,171.72555213305168 86.07342137955129,166.0784478894202 79.03964781528339,168.902004140371 78.60680021112785,183.01966152107343 80.66282632993534,187.3960933884955 85.9652094785124,188.66666666668607 89.42799031035975,186.97256859153276 90.7265331223607,172.85496901796432 90.18547361716628,169.1843593112426 87.04732848890126,166.50198185344925 79.79713112162426,168.4784712292021 78.82322401320562,185.27846754319035 83.15170005243272,188.66666666668607 90.18547361716628,186.26669351611054 90.61832122132182,170.17260175931733 88.34587130043656,167.20787138078595 84.34203096386045,166.50198185344925 79.14785971632227,169.89024687738856 78.93143591377884,183.8667143988423 82.17779294401407,188.3843171938206 87.26375229051337,188.24314242665423 90.83474502339959,184.85494181630202 91.05116882547736,172.99614603549708 90.07726171659306,169.1843593112426 86.61448088428006,166.6431598001509 82.7188524492085,166.7843377260724 78.60680021112785,170.17260175931733 79.2560716168955,184.99611707933946 82.61064054770395,188.3843171938206 87.15554038947448,188.10196763835847 90.7265331223607,184.5725912291091 90.51010931981727,170.3137791690533 86.07342137955129,166.36080388590926 79.79713112162426,168.3372935510124 78.39037640858442,173.98438458138844 80.22997872624546,187.25491847720696 83.36812385497615,188.66666666668607 89.10335460724309,187.25491847720696 90.61832122132182,175.39615217701066" stroke="#4dd2ff" stroke-linecap="round" stroke-linejoin="round" stroke-width="0.5"><title>2023-10-16 3.1km</title><desc>1697460359000</desc></polyline><polyline fill="none" points="108.05392060196027,168.05320440145442 109.85966639593244,184.3967698525521 115.1640446651727,188.66666666668607 122.4998869523406,184.10229354311014 121.59701405558735,168.49492587486748 117.30836779484525,164.66666666668607 111.77827130118385,165.5501123914146 109.52108905930072,167.90596386708785 109.85966639593244,184.10229354311014 115.38976288959384,188.51942914671963 119.33983181323856,187.63600357616087 122.38702784059569,182.77714908326743 121.48415494337678,168.34768540534424 115.38976288959384,164.8139076748048 109.85966639593244,168.05320440145442 109.97252550767735,184.24953170865774 113.58401709562168,188.2249540425837 118.09838158031926,188.07771645847242 122.61274606501684,183.95505535573466 122.16130961617455,170.5562901882222 116.85693134646863,164.8139076748048 111.55255307722837,166.13907577720238 109.74680728372186,168.78940674941987 109.97252550767735,184.24953170865774 112.11684863828123,187.48876590532018 116.51835401076823,188.66666666668607 122.27416872838512,184.24953170865774 120.80700027057901,166.87527952471282" stroke="#4dd2ff" stroke-linecap="round" stroke-linejoin="round" stroke-width="0.5"><title>2023-10-12 1.8km</title><desc>1697101056000</desc></polyline><polyline fill="none" points="139.07237760163844,172.5654620648129 140.9352676589042,186.54010677884798 148.61968914233148,187.90718149230815 152.694761141669,182.74266758013982 151.06473234202713,167.70467200514395 143.26388023002073,165.12236803374253 139.53810011642054,169.679370710277 140.5859757727012,185.93251744029112 147.80467474320903,188.3628726634197 152.34546925593168,184.2616449255729 151.7633161135018,169.83127045538276 147.10609097173437,165.42616883455776 143.38031085813418,165.42616883455776 140.00382262980565,168.6160718741594 139.7709613731131,183.19836101680994 142.91458834381774,188.21097562881187 150.8318710848689,187.1476957629202 152.92762239836156,182.74266758013982 151.99617737019435,169.0717715085484 148.61968914233148,165.57806920143776 143.38031085813418,165.27426844497677 139.7709613731131,169.2236713420134 140.12025325885043,184.56544012774248 142.79815771523863,187.90718149230815 146.75679908599705,188.3628726634197 152.11260799923912,185.1730302668875 152.57833051355556,182.43887184397317 151.29759359918535,167.5527719494421 145.12677028635517,164.9704676005058 139.654530744534,169.37557115382515 140.2366838878952,185.1730302668875 145.5924928006716,188.66666666662786 150.94830171344802,186.9957985500805 152.46189988497645,184.10974729107693 151.7633161135018,169.52747094340157 145.4760621720925,164.66666666662786 139.53810011642054,169.679370710277 141.05169828701764,186.38820947776549 147.92110537178814,188.05907857138664 151.64688548492268,185.78062005026732 152.57833051355556,181.83128010632936 151.41402422776446,168.00847205054015 147.4553828574717,164.8185671448009 142.09957394422963,165.57806920143776 139.53810011642054,170.43886921252124 140.81883703032508,186.08441480842885 144.77747840061784,188.66666666662786 149.20184228522703,188.3628726634197 152.57833051355556,180.00850276020356" stroke="#4dd2ff" stroke-linecap="round" stroke-linejoin="round" stroke-width="0.5"><title>2023-10-10 2.9km</title><desc>1696942258000</desc></polyline><polyline fill="none" points="175.8158383994014,186.0467751116521 177.5014415702899,185.06168347568018 181.17766181909246,185.52279104334593 181.7555829063058,186.17253100247763 180.93686136609176,187.32528818421997 181.4345156356576,188.66666666667152 184.56492152437568,187.6187158018438 185.39969642809592,186.50787950426457 186.29868478584103,183.82506947952788 186.45921842119424,177.2016668026481 184.72545515967067,174.162344573444 185.12678924802458,173.05140378062788 186.8284457824775,171.5841102652048 187.11740632599685,170.72468850224686 186.94081932719564,169.67660619337403 185.91340406110976,168.31408771080896 185.75287042575656,167.03540471415909 180.34288691548863,164.66666666667152 172.87807287304895,165.56804948522768 168.5757714464562,164.87629108484543 166.21592700725887,165.5261248289462" stroke="#4dd2ff" stroke-linecap="round" stroke-linejoin="round" stroke-width="0.5"><title>2023-10-07 3.0km</title><desc>1696669067000</desc></polyline><polyline fill="none" points="18.820019671227783,192.52589325862937 16.53479756368324,196.10356466297526 17.22036419576034,208.77438323397655 21.790808410849422,215.03520015301183 26.24699152028188,214.43893353187013 30.131869103293866,211.0103936905507 29.674824682064354,196.10356466297526 23.84750830801204,191.63147344521713 19.84836961934343,192.52589325862937 16.87758087972179,196.5507727060467 17.791669722646475,211.6066623175284 21.905069516506046,215.33333333337214 25.675685993395746,215.03520015301183 29.90334689244628,211.0103936905507 29.446302470285445,196.5507727060467 24.875858256593347,192.07868344988674 17.791669722646475,194.01659120304976 17.448886406607926,211.0103936905507 22.247852832078934,215.33333333337214 26.13273041555658,215.03520015301183 29.674824682064354,211.1594608798623 29.103519154712558,195.5072869679425 24.076030518393964,191.48240340023767 16.763319774530828,195.20914798940066 17.9059308283031,211.4575951937586 23.733247202355415,214.73706688627135 29.789085787255317,211.0103936905507 29.21778025990352,195.35821748967282 23.16194167546928,191.33333333337214 16.87758087972179,194.91100892378017 17.334625301416963,210.86132647958584 21.562286200467497,214.73706688627135 27.503863679710776,213.84266656136606 29.56056357594207,210.56319199164864 29.446302470285445,196.25263403262943 24.875858256593347,191.63147344521713 17.22036419576034,194.76193935819902 17.677408617455512,211.6066623175284 22.933419464621693,215.33333333337214 28.41795252263546,213.3954661055468 29.789085787255317,210.7122592467349 29.21778025990352,195.5072869679425 23.961769413203,191.48240340023767 20.076891830656677,191.9296134703327 16.991841985378414,195.5072869679425 17.448886406607926,211.0103936905507 20.99098067358136,214.88613353052642" stroke="#4dd2ff" stroke-linecap="round" stroke-linejoin="round" stroke-width="0.5"><title>2023-10-06 2.9km</title><desc>1696597953000</desc></polyline><polyline fill="none" points="48.38772455089929,192.98363798844366 48.306886227546784,192.8449715670622 47.99251497005753,192.51490063074107 47.87275449101435,191.78832521003096 47.83982035927329,191.72777547379246 47.869760479035904,191.6750383830422 47.99101796407194,191.657459306507 48.35179640717979,191.65941253837354 48.33383233532368,191.53635837263846 48.04640718562587,191.5734700658577 46.79940119760431,191.57542331001332 45.07634730538848,191.64769314287696 44.87874251496396,191.6750383830422 44.57185628742445,191.78246557013426 43.47155688622297,192.3098228631152 43.02544910179131,192.48365088857736 42.81137724551081,192.64380504420023 42.985029940115055,193.66718381299324 43.098802395201346,195.71956406225218 43.1392215568776,198.1835660490624 43.11377245508629,198.45883440821672 43.13173652694968,199.92878859224766 43.05688622753951,200.09275752143822 43.13173652694968,200.2996678231366 43.14820359281293,202.20855706424118 43.121257485028764,203.0262902201248 42.85928143712226,203.12581995830624 42.72305389221583,203.2838950783862 42.01646706586325,203.27218587432526 42.0,203.2956042721944 42.07634730538848,203.30731345574713 42.068862275453284,203.35219856435288 42.01497005987767,203.365859219678 42.02694610778417,203.38537441734843 42.407185628748266,203.37366530216696 42.71257485030219,203.39708352228263 42.877245508978376,203.59028227317413 43.08682634730212,203.64102087620358 43.1392215568776,203.68005043981793 43.14970059879852,204.96601084294525 43.04491017964028,205.14357684121842 42.985029940115055,205.43040924246907 42.99251497005753,205.5299210870553 43.13622754490643,205.53577470191613 43.16167664670502,205.68016305729543 43.1511976047841,207.48488598445692 43.064371257489256,207.65656585926536 43.05988023951795,207.80288219514114 43.0119760479065,207.86531001133608 42.920658682633075,207.91603239745928 43.04341317364742,207.85165395143576 43.12574850299279,207.97455798860847 43.128742514971236,208.07210007150388 43.20059880239569,208.2125594213112 43.26796407185611,208.71976146154975 43.39071856287046,210.23345013987546 43.36077844311512,210.63525110275987 43.2814371257482,210.80103924579726 43.064371257489256,211.0760479885248 43.079341317366925,211.2691358560478 43.29940119760431,211.39200850290308 43.42964071856113,211.52463168100894 43.5194610778417,211.71576277263102 43.622754491021624,212.1292206920507 43.78742514969781,212.49976174689164 44.128742514971236,213.01070153242017 44.947604790417245,214.14757007615208 45.245508982028696,214.44980875808778 45.19161676646763,214.4069107800824 45.155688622755406,214.41666033260844 45.70808383233816,214.70134413541655 45.970059880237386,214.77543892675112 46.251497005985584,214.8066366109215 47.64221556886332,214.82223542574866 48.182634730539576,214.79688734243337 48.302395209582755,214.88073081945095 48.449101796410105,215.11470983819072 48.579341317366925,215.1303082940285 48.6631736526906,214.93727612371913 48.802395209582755,214.72474253488326 49.13023952095682,214.4576083756774 51.850299401194206,213.47287071950814 51.94311377246049,213.445570029613 51.964071856287774,213.4943212225062 51.922155688625935,213.43191966378436 51.87425149700721,213.5216218129599 51.90269461077696,213.4982213102603 51.919161676640215,213.51577169112443 51.9326347305323,213.4416699265139 51.98353293412947,213.51577169112443 51.964071856287774,213.44752008073647 52.01497005987767,213.41631922864326 52.54790419161873,213.26031387716193 53.1826347305323,213.23106267131516 54.85778443113668,213.25446364110303 57.01047904192092,213.22911258865406 57.128742514971236,213.25446364110303 57.91616766466905,213.23106267131516 58.68562874251802,213.2583637987609 59.81137724551081,213.22521242247603 60.19011976047477,213.1004065046991 60.77994011975534,212.99510060630382 62.212574850294914,212.876142946654 63.36526946107915,212.89564427479672 63.64221556886332,212.876142946654 63.94161676646763,212.78838661837835 64.26347305389936,212.62262309495418 64.57035928143887,212.36714823242983 64.52844311376975,212.38470009656157 64.46706586826622,212.34374571111402 64.4011976047841,212.40810254625922 64.47305389221583,212.33984528691508 64.56137724550354,212.37689927089377 64.61676646707201,212.34764613417246 64.81437125748198,212.33594486157472 65.02994011976261,212.0921660222839 65.04940119760431,211.85618387588875 65.42365269461152,211.48757533709795 65.66317365269788,211.2086742981719 65.75149700599286,211.01753596342405 65.79940119760431,210.80689055449238 65.87574850299279,204.31816764615996 65.9056886227554,204.12888223286154 65.90419161676982,203.6683415826974 65.97904191616544,203.4692894427617 66.0,203.22730049709298 65.9955089820287,202.92871132613254 65.93113772455399,202.74135785318413 65.93413173652516,202.26710764002382 65.87425149700721,200.9867432050669 65.90419161676982,198.84732407505726" stroke="#ff0000" stroke-linecap="round" stroke-linejoin="round" stroke-width="0.5"><title>2023-09-14 39.1km</title><desc>1694696482000</desc></polyline><polyline fill="none" points="84.39613659773022,191.33333333331393 78.11983899725601,197.40397794172168 78.87732319068164,209.40397706319345 81.47441185312346,213.92158514336916 86.88501323200762,214.3451098173391 91.21349433576688,210.5333810650045 90.45601014234126,195.70984840299934 86.66858917707577,191.75686791707994 82.12368401838467,192.46275847632205 78.66089913574979,196.27455857931636 79.20195927331224,211.9451342097018 84.72077268036082,215.33333333331393 91.10528230853379,210.81573185918387 90.45601014234126,196.69809099519625 87.64249742589891,193.02747055265354 82.98938023904338,192.46275847632205 78.11983899725601,197.40397794172168 79.09374724607915,210.10985471931053 84.28792457003146,214.76863430504454 88.61640567379072,213.78041021106765 90.67243419820443,211.2392578952131 90.2395860874094,195.70984840299934 86.99322526017204,192.3215804058127 82.01547199068591,192.60393652674975 78.76911116298288,195.56867080699885 78.98553521838039,211.38043319957796 82.34010807378218,214.3451098173391 86.34395309444517,214.76863430504454 90.78064622543752,209.68632818758488 90.78064622543752,194.72160479874583" stroke="#4dd2ff" stroke-linecap="round" stroke-linejoin="round" stroke-width="0.5"><title>2023-09-11 1.8km</title><desc>1694438011000</desc></polyline><polyline fill="none" points="115.55251141544431,204.8703300805355 119.4429223742336,201.79639949960983 125.36073059332557,203.94100426902878 124.59360730578192,207.37235233010142 110.401826483896,208.23018558183685 108.53881278540939,207.08640757823014 106.01826484012417,208.01572741006385 104.8675799088087,207.01492136425804 104.7031963467598,204.36992409385857 113.25114155258052,205.22776261469699 119.7716894976329,202.86870306055062 125.25114155234769,203.51208406797377 125.08675799076445,207.5153246432892 110.12785388110206,207.6582969146839 107.16894977167249,205.72816772310762 106.2374429225456,207.01492136425804 104.48401826480404,206.51451757297036 104.42922374419868,204.2984374826774 112.53881278517656,204.79884354243404 121.08675799076445,202.72572938830126 125.68949771672487,203.72654421551852 124.42922374396585,207.5153246432892 112.92237442918122,207.3008661576896 107.11415525106713,208.30167161824647 104.15525114163756,206.51451757297036 104.26484018261544,204.441410694737 116.97716894978657,204.15546422862099 122.78538812790066,202.79721622957732 125.63470319611952,203.79803091066424 124.64840182638727,207.44383849197766 110.23744292231277,207.6582969146839 106.7305936072953,208.51612966458197 104.8675799088087,207.58681078412337 103.33333333325572,205.01330312545178 103.77168949786574,204.2984374826774 108.21004566201009,204.58438386535272 113.96347031951882,203.44059733106405 118.51141552487388,204.22695086078602 125.03196346992627,203.44059733106405 125.03196346992627,197.86459965186077 127.33333333325572,198.00757474586135 124.7031963467598,197.5786493383057 124.31963470298797,207.37235233010142 112.81278538797051,207.1578937819868 105.96347031975165,209.08801732838037 104.10045662103221,205.51370845356723 104.42922374419868,204.6558704347699 113.74429223733023,203.51208406797377 118.67579908668995,204.2984374826774 122.12785388110206,203.5835707942024 125.30593607272021,204.36992409385857 124.86757990834303,207.80126914402354 110.12785388110206,207.5153246432892 109.41552511416376,208.51612966458197 105.85388127854094,209.08801732838037 104.81278538820334,208.15869953503716 104.42922374419868,204.36992409385857 112.15525114163756,202.3682950248185 115.2785388128832,203.44059733106405 118.51141552487388,203.2261370580527" stroke="#4dd2ff" stroke-linecap="round" stroke-linejoin="round" stroke-width="0.5"><title>2023-08-30 4.9km</title><desc>1693396264000</desc></polyline><polyline fill="none" points="137.31615218194202,193.1221726979129 140.2869422249496,196.25263403286226 142.22938186815009,211.30852804798633 146.2285223104991,214.88613353099208 154.11254204018041,210.41412471525837 154.22680319612846,194.016591203399 147.02835039934143,191.48240340023767 141.0867703128606,194.7619393580826 142.3436430231668,211.90479650057387 145.88573884405196,215.33333333337214 150.68470737570897,215.03520015336107 154.5695866625756,212.35199761088006 154.5695866625756,196.4017033802811 152.2843635524623,192.52589325851295 147.71391733223572,191.48240340023767 141.42955377930775,196.55077270593029 142.5721653350629,212.50106460391544 145.6572165330872,215.18426675419323 154.45532550662756,211.15946088021155 154.34106435161084,196.1035646633245 152.17010239697993,192.67496315122116 147.599656177219,191.63147344521713 143.25773226795718,192.97310287097935 141.31529262429103,196.1035646633245 142.00085955718532,211.4575951936422 147.8281784877181,215.03520015336107 154.45532550662756,212.05386355903465 154.11254204018041,196.1035646633245 152.3986247079447,193.1221726979129 146.45704462192953,191.63147344521713 141.31529262429103,195.06007846747525 142.00085955718532,210.56319199164864 147.599656177219,215.18426675419323 152.17010239697993,214.28986682242248 154.5695866625756,211.01039369101636 153.76975857373327,194.91100892378017 149.42783466540277,191.33333333337214 142.1151207126677,194.4638001616113 142.1151207126677,211.01039369101636 144.74312728922814,214.58800021989737 150.7989685307257,214.88613353099208 154.45532550662756,210.86132647946943 154.34106435161084,197.89239565713797 150.57044621976092,191.92961347056553 142.3436430231668,194.16566087771207 141.88659840170294,209.81785539072007 145.42869422212243,214.43893353198655 151.1417519976385,214.88613353099208 154.11254204018041,212.50106460391544 154.68384781805798,200.57563626102637" stroke="#4dd2ff" stroke-linecap="round" stroke-linejoin="round" stroke-width="0.5"><title>2023-08-25 3.1km</title><desc>1692968645000</desc></polyline><polyline fill="none" points="180.5376344085671,199.16693342162762 180.1505376342684,202.61790555954212 188.34408602165058,202.9545846603578 188.66666666674428,207.49973324500024 164.66666666674428,207.4155641530524 165.05376344081014,203.37543325935258 179.2473118279595,203.37543325935258 186.3440860218834,201.94454676721944 188.27956989244558,202.78624513430987 188.40860215038992,207.07888766174437 180.27956989244558,207.1630568029359" stroke="#4dd2ff" stroke-linecap="round" stroke-linejoin="round" stroke-width="0.5"><title>2023-08-24 1.1km</title><desc>1692883156000</desc></polyline><polyline fill="none" points="23.633728859829716,242.0 23.704410160135012,241.65420462006296 23.88111341104377,241.79252286307747 23.368673983495682,227.3376100873429 22.94458618137287,224.68624617620662 23.633728859829716,224.17902365011105 22.962256506434642,223.55652104631008 23.191970732528716,221.06648604513612 22.78555325558409,218.0" stroke="#4dd2ff" stroke-linecap="round" stroke-linejoin="round" stroke-width="0.5"><title>2023-08-21 1.2km</title><desc>1692620048000</desc></polyline><polyline fill="none" points="54.50363459048094,233.5774937933893 54.18313985108398,234.26446181035863 54.412064664880745,242.0 54.28615601733327,232.39769010959571 54.00000000005821,230.48608051796327 54.08012368483469,228.30560713204613 53.56504285376286,218.65720020647132 53.85119887103792,218.13442765919172 54.331940980104264,218.0 53.771075186203234,218.0597456481628 53.496365409577265,218.55264591120067 53.51925789099187,221.8385868462501 54.0114462407073,227.90236380085116 53.86264511174522,230.0081725277123 54.17169361037668,231.88992230256554 54.46929586835904,241.9850670930973 54.21747857314767,235.1605001038988" stroke="#4dd2ff" stroke-linecap="round" stroke-linejoin="round" stroke-width="0.5"><title>2023-08-10 4.8km</title><desc>1691669615000</desc></polyline><polyline fill="none" points="86.27094474155456,229.12095943884924 88.38859180058353,226.69308955752058 95.51158645283431,226.69308955752058 96.2174688060768,231.46509989915648 73.3725490195211,232.55344756424893 72.66666666674428,228.9535204671556 80.75222816411406,226.10705045738723 85.95008912682533,227.61400693154428 95.6399286990054,227.27912805776577 96.66666666674428,230.7953464613529 83.44741533021443,232.38600959675387 73.88591800373979,231.96741446317174 72.73083778959699,231.6325381359784 72.66666666674428,230.12559224007418 74.1426024956163,227.69772661919706 81.45811051712371,228.36748368106782 90.50623885937966,226.69308955752058 96.08912655967288,227.19540830887854 95.70409982209094,231.38138076214818 79.21212121238932,232.63716652977746 73.05169340455905,231.88369539985433 73.05169340455905,228.70236191805452 74.84848484885879,227.86516595835565 87.61853832472116,228.5349228240666 89.60784313757904,227.44656751910225 96.28163992892951,227.5302872316097 96.28163992892951,231.46509989915648 82.22816399275325,231.7999763242551 77.60784313734621,233.72551196691347 73.56506238877773,232.2185715798405 72.7950089124497,229.70699545374373 73.62923351163045,228.869800963148 82.03565062419511,228.45120325876633 83.19073083787225,227.36284779472044 87.68270944734104,228.869800963148 96.47415329795331,227.86516595835565 96.28163992892951,231.54881902376655 77.99286987539381,232.4697285866132 73.18003565073013,231.2976616131491 73.11586452764459,228.70236191805452 74.5276292336639,227.69772661919706 88.19607843179256,228.70236191805452 96.66666666674428,227.9488856093376 96.15329768275842,231.71625723631587 81.26559714833274,232.2185715798405 79.01960784336552,233.5580743420287 74.07843137276359,232.55344756424893 73.30837789666839,230.46046944858972 74.20677361846901,228.45120325876633 87.93939393945038,229.03723995923065 96.4099821751006,227.78144629462622 96.60249554389156,231.7999763242551 84.15329768299125,231.71625723631587 81.0089126562234,232.2185715798405 79.72549019614235,233.89294954261277" stroke="#4dd2ff" stroke-linecap="round" stroke-linejoin="round" stroke-width="0.5"><title>2023-08-08 4.7km</title><desc>1691498421000</desc></polyline><polyline fill="none" points="117.04394354863325,218.0 117.22145970311249,225.85307192670007 118.17359180410858,226.16887014948588 118.12517830741126,226.6320396233641 112.49307486251928,226.4636145325203 113.13858815125423,227.87416858352663 113.39679346681805,237.41083565799636 113.8325149367447,240.67378863361955 114.30051207123324,242.0" stroke="#4dd2ff" stroke-linecap="round" stroke-linejoin="round" stroke-width="0.5"><title>2023-08-04 1.6km</title><desc>1691107871000</desc></polyline><polyline fill="none" points="145.49738219892606,228.27872284449404 152.2827225131914,226.72135927242925 157.12041884823702,227.54102484986652 157.685863874387,232.1311299315421 148.1989528797567,231.5573688520817 134.31413612584583,232.78685616049916 134.37696335068904,230.00001438969048 136.1989528797567,227.9508571890765 141.0366492148023,227.2951253024512 145.74869109969586,228.11479004094144 152.4712041884195,225.98365922790254 157.56020942423493,227.78692428936483 157.87434554984793,232.04916409921134 134.31413612584583,232.70489042374538 134.37696335068904,229.7541159215034 136.3246073301416,227.9508571890765 142.2303664921783,226.88529248390114 145.12041884823702,227.86889074509963 157.05759162339382,227.86889074509963 158.0,232.1311299315421 135.06806282745674,233.11471898725722 134.0,231.3934370073839 135.13089005253278,229.34428490063874 141.9162303665653,227.3770918303053 156.99476439808495,227.78692428936483 157.49738219892606,231.96719825471519 135.1937172776088,233.11471898725722 134.628272251226,229.59018354915315 139.4031413611956,228.19675644871313 149.51832460728474,229.01641986856703 157.685863874387,228.11479004094144 157.74869109969586,231.72130064910743 136.1989528797567,233.03275329846656 134.1256544503849,231.80326652963413 134.81675392691977,229.67214974120725 140.4712041884195,227.9508571890765 157.62303664931096,228.52462196047418 157.685863874387,231.63933475670638 143.80104712070897,232.29506156092975 139.84293193742633,234.01634077203926 136.89005235605873,233.5245472509996 135.25654450268485,232.70489042374538 134.81675392691977,230.00001438969048 139.46596858650446,227.86889074509963 149.4554973822087,229.426251128898 157.30890052369796,228.27872284449404 157.8115183247719,232.04916409921134 144.11518324632198,231.72130064910743 139.6544502619654,233.11471898725722" stroke="#4dd2ff" stroke-linecap="round" stroke-linejoin="round" stroke-width="0.5"><title>2023-07-26 4.8km</title><desc>1690377436000</desc></polyline><polyline fill="none" points="172.66666666674428,228.66407477058237 186.1066666666884,226.66016252106056 188.60266666696407,227.16114124265732 188.0906666670926,231.5864341937122 172.41066666692495,231.75342570926296 166.5866666669026,233.75732008274645 164.92266666679643,232.00391289044637 165.24266666686162,228.74757096159738 170.7466666670516,226.66016252106056 174.65066666691564,227.99610480235424 188.0906666670926,227.2446376538719 187.96266666683368,231.1689551921445 166.13866666681133,233.08935607306194 164.66666666674428,231.33594682934927 165.17866666661575,228.9145633072476 170.36266666697338,226.40967299544718 174.13866666704416,226.24267991725355 177.0186666669324,227.99610480235424 182.65066666691564,226.40967299544718 188.21866666688584,227.32813405245543 188.28266666689888,231.66992995754117 165.0506666668225,231.75342570926296 165.0506666668225,228.74757096159738 166.13866666681133,228.24659363203682 179.70666666701436,227.91260850126855 184.69866666663438,226.40967299544718 188.474666666938,227.32813405245543 188.15466666663997,231.50293841789244 165.0506666668225,231.92041717545362 165.17866666661575,228.66407477058237 167.8026666669175,227.57862317509716 179.19466666714288,227.7456158627174 184.69866666663438,226.24267991725355 188.66666666674428,227.32813405245543 188.15466666663997,231.66992995754117 165.43466666690074,232.42139128176495 165.882666666992,228.4135861241375 176.76266666688025,227.91260850126855 183.35466666705906,226.32617646252038 188.41066666692495,227.41163043887354 188.34666666691191,231.5864341937122 165.0506666668225,231.5864341937122 165.3706666668877,228.4135861241375 173.62666666693985,229.58253220107872 183.86666666693054,226.32617646252038 188.53866666695103,227.2446376538719 188.474666666938,231.66992995754117 166.07466666656546,232.17090428364463" stroke="#4dd2ff" stroke-linecap="round" stroke-linejoin="round" stroke-width="0.5"><title>2023-07-24 4.9km</title><desc>1690201802000</desc></polyline><polyline fill="none" points="26.08063055423554,244.94149664278666 26.045521324616857,244.66666666667152 25.044908279262017,245.2392285726237 24.90447136067087,246.0637140396575 25.29067288688384,251.17084674246144 26.22106747282669,251.60597591027908 26.25617670256179,251.97239953490498 22.13084221741883,252.15561102578067 19.901406134071294,251.90369517056388 20.621145342069212,252.7052442123677 20.79669149039546,253.7587024285749 21.0073468683986,263.53720468118263 22.007959913637023,268.6666666666715 21.35843916493468,266.170654807589 22.13084221741883,265.4836720866151 21.481321468716487,245.42244794039289 25.940193635586184,245.1247163588705 26.48438669531606,245.01020406142925 26.572159769479185,244.68956918311596 26.765260532614775,245.07891144993482" stroke="#4dd2ff" stroke-linecap="round" stroke-linejoin="round" stroke-width="0.5"><title>2023-07-24 3.0km</title><desc>1690157385000</desc></polyline><polyline fill="none" points="54.16125044337241,260.92776752630016 54.61044810700696,268.66666666666424 54.28794722032035,258.3279676969105 54.04607155517442,257.1858383027211 54.26491144270403,256.2090070368722 54.09214311046526,255.72810207893053 53.60839178034803,245.73378639453585 53.89633900066838,244.98229478295252 54.43767977482639,244.74181630613748 53.95392844476737,244.69672652905138 53.5623202251154,245.31295176938875 53.5623202251154,248.52928692534624 54.01151788874995,255.65296047585434 54.11517888808157,254.81137076705636 53.51624866982456,245.64360769144696 53.72357066848781,245.04241431421542 54.26491144270403,244.72678638262005 53.861785334243905,244.66666666666424 53.424105559359305,245.44822022978042 53.38955189293483,248.42408129372052 53.82723166781943,255.8934134121082" stroke="#4dd2ff" stroke-linecap="round" stroke-linejoin="round" stroke-width="0.5"><title>2023-07-22 4.9km</title><desc>1690030226000</desc></polyline><polyline fill="none" points="81.8063064776361,254.6179560312885 77.65597992856055,252.1301429673913 79.45071573369205,265.0081672645756 82.92801635572687,267.64228818245465 88.53656574618071,266.4715686305426 91.34084044164047,261.64233600214357 90.33130155131221,249.34963869431522 88.20005278289318,245.69106867047958 84.38623919710517,244.66666666668607 78.55334783159196,247.59352675225819 79.67505770921707,263.9837850352633 81.91847746539861,267.34960842272267 85.1714361119084,268.2276474448154 91.677353404928,262.95940175745636 91.00432747835293,252.2764850835083 86.62965895375237,244.81300987419672 81.69413548987359,245.2520393684972 78.10466388007626,248.76426838967018 79.00203178217635,263.5447637590114 84.04972623381764,268.08130766113754 90.77998550236225,264.4228061194299 90.55564352637157,249.34963869431522 83.82538425782695,245.54472559079295 78.32900585560128,249.4959812174202 79.22637375863269,265.30084770941176 83.82538425782695,268.66666666668607 91.45301142893732,263.69110420608195 90.89215649012476,252.4228271782631" stroke="#4dd2ff" stroke-linecap="round" stroke-linejoin="round" stroke-width="0.5"><title>2023-07-18 1.7km</title><desc>1689685608000</desc></polyline></svg>