<?xml version="1.0" encoding="utf-8" ?>
<svg baseProfile="full" height="200mm" version="1.1" viewBox="0,0,200,200" width="200mm" xmlns="http://www.w3.org/2000/svg" xmlns:ev="http://www.w3.org/2001/xml-events" xmlns:xlink="http://www.w3.org/1999/xlink"><defs /><rect fill="#1a1a1a" height="200" width="200" x="0" y="0" /><text alignment-baseline="middle" fill="#e1ed5e" style="dominant-baseline: central; font-size:9.0px; font-family:Arial;" text-anchor="middle" x="100.0" y="100.0">2023</text><line stroke="#e1ed5e" stroke-width="0.3" x1="100.0" x2="100.0" y1="15.0" y2="10.0" /><path d="M 100.0 14.0 a86.0,86.0 0 0,1 42.46469731375804,11.215312516191453" fill="none" id="id1" stroke="none" /><text fill="#e1ed5e" style="font-size:6.75px; font-family:Arial;" text-anchor="middle"><textPath startOffset="22.20632615414155" xlink:href="#id1">January</textPath></text><line stroke="#e1ed5e" stroke-width="0.3" x1="143.23703022742887" x2="145.7803849466894" y1="26.81831364943548" y2="22.513508569990506" /><path d="M 143.74570117128098 25.957352633546492 a86.0,86.0 0 0,1 28.547481713284135,27.462654790039103" fill="none" id="id2" stroke="none" /><text fill="#e1ed5e" style="font-size:6.75px; font-family:Arial;" text-anchor="middle"><textPath startOffset="19.985693538727396" xlink:href="#id2">February</textPath></text><line stroke="#e1ed5e" stroke-width="0.3" x1="172.23445277983987" x2="176.4835382374775" y1="55.19839476539836" y2="52.563006222186495" /><path d="M 173.08426987136738 54.67131705675599 a86.0,86.0 0 0,1 12.851231095245387,41.99856678651699" fill="none" id="id3" stroke="none" /><text fill="#e1ed5e" style="font-size:6.75px; font-family:Arial;" text-anchor="middle"><textPath startOffset="22.20632615414155" xlink:href="#id3">March</textPath></text><line stroke="#e1ed5e" stroke-width="0.3" x1="184.98032266829074" x2="189.97916517819016" y1="98.17113171792111" y2="98.06355123074" /><path d="M 185.9800911702706 98.14961562048488 a86.0,86.0 0 0,1 -9.607161424134198,41.387399972396054" fill="none" id="id4" stroke="none" /><text fill="#e1ed5e" style="font-size:6.75px; font-family:Arial;" text-anchor="middle"><textPath startOffset="21.466115282336823" xlink:href="#id4">April</textPath></text><line stroke="#e1ed5e" stroke-width="0.3" x1="174.80103733775053" x2="179.2010983576182" y1="140.37084112569926" y2="142.7455964860345" /><path d="M 175.68104954172406 140.8457921977663 a86.0,86.0 0 0,1 -30.038265399797805,32.042727171017184" fill="none" id="id5" stroke="none" /><text fill="#e1ed5e" style="font-size:6.75px; font-family:Arial;" text-anchor="middle"><textPath startOffset="22.206326154141568" xlink:href="#id5">May</textPath></text><line stroke="#e1ed5e" stroke-width="0.3" x1="143.8653032363475" x2="146.44561519142675" y1="172.8068346515853" y2="177.08958963109032" /><path d="M 144.38136562736335 173.6633856474863 a86.0,86.0 0 0,1 -40.68145358897372,12.25698825130547" fill="none" id="id6" stroke="none" /><text fill="#e1ed5e" style="font-size:6.75px; font-family:Arial;" text-anchor="middle"><textPath startOffset="21.466115282336833" xlink:href="#id6">June</textPath></text><line stroke="#e1ed5e" stroke-width="0.3" x1="102.19456741930631" x2="102.32365962044197" y1="184.97166512339345" y2="189.96999836594603" /><path d="M 102.22038585953345 185.97133177190398 a86.0,86.0 0 0,1 -42.740103519485714,-10.115201625700543" fill="none" id="id7" stroke="none" /><text fill="#e1ed5e" style="font-size:6.75px; font-family:Arial;" text-anchor="middle"><textPath startOffset="22.20632615414155" xlink:href="#id7">July</textPath></text><path d="M 94.46302465271185 120.25689768951611 l -5.696324111882066 20.839871500824604 a42.604359572977174,42.604359572977174 0 0,0 -0.7057489903953609,-0.1994517142218526 l 6.054204270382041 -20.738730993264227" fill="#ff8e0d" stroke="none" /><path d="M 93.08242187328487 119.8279376855182 l -20.747296034356005 59.46822506037314 a83.98349057148545,83.98349057148545 0 0,0 -1.36085424150068,-0.4879539141273552 l 21.76786983648641 -59.10228360520583" fill="#4dd2ff" stroke="none" /><path d="M 92.40401165467489 119.57807347666478 l -22.787965035975347 58.734220429994345 a84.0,84.0 0 0,0 -1.3435156958325676,-0.5346126223757337 l 23.795601807849774 -58.333260963212545" fill="#4dd2ff" stroke="none" /><path d="M 91.7346041902142 119.30500536409082 l -24.269636345458718 56.68518128059935 a82.66218472577194,82.66218472577194 0 0,0 -1.3032257309678843,-0.5712958621824485 l 25.241782751084344 -56.25902086512245" fill="#4be1ff" stroke="none" /><line stroke="#e1ed5e" stroke-width="0.3" x1="58.666819895761336" x2="56.23545636021788" y1="174.27360380694188" y2="178.64263932499728" /><path d="M 58.180547188652646 175.14741091055294 a86.0,86.0 0 0,1 -31.652253787137756,-30.449443065178592" fill="none" id="id8" stroke="none" /><text fill="#e1ed5e" style="font-size:6.75px; font-family:Arial;" text-anchor="middle"><textPath startOffset="22.20632615414155" xlink:href="#id8">August</textPath></text><path d="M 87.65650970185807 116.9893568818739 l -35.51918862399537 48.887969051872616 a81.42885303002049,81.42885303002049 0 0,0 -1.1268785015286564,-0.833637775570758 l 36.35545209594259 -48.26932132756209" fill="#49f0ff" stroke="none" /><path d="M 87.07902340077011 116.55440617244103 l -37.62822759143011 48.209433575997146 a82.15580918760656,82.15580918760656 0 0,0 -1.1073136295378319,-0.8797169168456388 l 38.4524987136853 -47.55458274514638" fill="#4ae7ff" stroke="none" /><path d="M 84.19399662182784 113.82643327865904 l -11.616791596822138 10.161885334490067 a36.434175085028734,36.434175085028734 0 0,0 -0.40885648887603476,-0.47559246495070356 l 11.78999059526895 -9.960415770377834" fill="#ff2303" stroke="none" /><path d="M 83.50135304334701 112.99209946851258 l -10.613190820983796 8.357511448472067 a34.50880516603731,34.50880516603731 0 0,0 -0.36348154517511216,-0.4698488949442065 l 10.755479183376977 -8.173584559414609" fill="#ff0000" stroke="none" /><path d="M 83.28015986056508 112.70617746262583 l -31.649270994997458 24.05174035585997 a60.75125870536039,60.75125870536039 0 0,0 -0.6255607251964913,-0.8380408190733847 l 32.05859298688903 -23.50338665727728" fill="#64ff29" stroke="none" /><path d="M 82.24976979558568 111.22182372390057 l -52.71331604670461 33.32573908992277 a83.36424115251762,83.36424115251762 0 0,0 -0.7563731298477316,-1.2195143197621061 l 53.2791538162203 -32.4134284387954" fill="#4cd9ff" stroke="none" /><line stroke="#e1ed5e" stroke-width="0.3" x1="26.63291911575756" x2="22.317208475507996" y1="142.92168965132927" y2="145.44649492493687" /><path d="M 25.769776987707644 143.4266507060508 a86.0,86.0 0 0,1 -11.730757126820373,-40.83630448921669" fill="none" id="id9" stroke="none" /><text fill="#e1ed5e" style="font-size:6.75px; font-family:Arial;" text-anchor="middle"><textPath startOffset="21.46611528233685" xlink:href="#id9">September</textPath></text><path d="M 80.32549172779595 107.34259656027581 l -21.701171318893362 8.098954427500512 a44.16320140720384,44.16320140720384 0 0,0 -0.25967066333951005,-0.7145021413980978 l 21.837366243238094 -7.724204489096297" fill="#ffa70f" stroke="none" /><line stroke="#e1ed5e" stroke-width="0.3" x1="15.007084014347285" x2="10.007500721073583" y1="101.09737516637583" y2="101.16192664675087" /><path d="M 14.007167355692545 101.11028546245083 a86.0,86.0 0 0,1 10.666146001902534,-42.60595125391555" fill="none" id="id10" stroke="none" /><text fill="#e1ed5e" style="font-size:6.75px; font-family:Arial;" text-anchor="middle"><textPath startOffset="22.20632615414155" xlink:href="#id10">October</textPath></text><path d="M 79.05617556472873 98.46500227214037 l -37.10430673751719 -2.719418638745769 a58.20382797783746,58.20382797783746 0 0,0 0.08183324117746898,-0.9985728183641606 l 37.05199901252023 3.357705374317708" fill="#85ff25" stroke="none" /><path d="M 79.08570108090925 98.10471618934814 l -37.45304308532713 -3.394048564280198 a58.60651541964587,58.60651541964587 0 0,0 0.09969491354945413,-1.0039141741235589 l 37.38907104609545 4.038238269108187" fill="#80ff25" stroke="none" /><path d="M 79.21141760316559 97.0276538004421 l -36.81359156234022 -5.263597915606849 a58.18798175131299,58.18798175131299 0 0,0 0.1503026229842933,-0.9903064917158101 l 36.717533045916625 5.89650351971475" fill="#86ff25" stroke="none" /><path d="M 79.32604984820605 96.31383870115002 l -22.158827556276766 -3.950914651825755 a43.50829547644206,43.50829547644206 0 0,0 0.1378058465491136,-0.7361643426198021 l 22.08753598581779 4.33175707190813" fill="#ff9d0e" stroke="none" /><path d="M 79.62865764111835 94.90015583598534 l -38.43416447469145 -9.621764041954622 a60.620239047066406,60.620239047066406 0 0,0 0.2621209556367835,-1.010058967935756 l 38.26284718718436 10.28191943543924" fill="#65ff29" stroke="none" /><path d="M 80.14247586403 93.16781622104843 l -35.24547909308231 -12.126566680331566 a58.27328018773542,58.27328018773542 0 0,0 0.33450782846372706,-0.9456986763755891 l 35.03151818380878 12.731462983133765" fill="#84ff25" stroke="none" /><path d="M 80.95270993114464 91.15688171328213 l -33.884123177463486 -15.731440442017435 a58.357891025675684,58.357891025675684 0 0,0 0.43085299181938086,-0.9074862819837007 l 33.60831199180235 16.312369139641667" fill="#83ff25" stroke="none" /><line stroke="#e1ed5e" stroke-width="0.3" x1="26.266209847984257" x2="21.92892807433627" y1="57.711370442889674" y2="55.22380399835377" /><path d="M 25.39875349325466 57.213857153982495 a86.0,86.0 0 0,1 29.58750427330802,-30.492523968695096" fill="none" id="id11" stroke="none" /><text fill="#e1ed5e" style="font-size:6.75px; font-family:Arial;" text-anchor="middle"><textPath startOffset="21.46611528233685" xlink:href="#id11">November</textPath></text><path d="M 83.17141714833178 87.43820079747576 l -21.784575871866057 -16.261230682737406 a48.18446926526779,48.18446926526779 0 0,0 0.5018620350402815,-0.6603916105065161 l 21.501437896601665 16.63380706912495" fill="#ffe715" stroke="none" /><line stroke="#e1ed5e" stroke-width="0.3" x1="56.762969772571076" x2="54.21961505331055" y1="26.818313649435495" y2="22.513508569990535" /><path d="M 56.25429882871897 25.957352633546506 a86.0,86.0 0 0,1 42.265352541879196,-11.944610805530505" fill="none" id="id12" stroke="none" /><text fill="#e1ed5e" style="font-size:6.75px; font-family:Arial;" text-anchor="middle"><textPath startOffset="22.20632615414155" xlink:href="#id12">December</textPath></text><path d="M 98.55514903715128 79.0497635885617 l -2.562251431495862 -37.15246389810873 a58.24071301812675,58.24071301812675 0 0,0 1.0007361695038264,-0.06036713863640221 l 1.9223532131524126 37.19106430612543" fill="#85ff25" stroke="none" /><path d="M 98.91598698831166 79.02799685794201 l -1.9188879430336465 -37.124022992935245 a58.17358220723293,58.17358220723293 0 0,0 1.0004725012807367,-0.04308245045496475 l 1.2795746093635858 37.1515531699144" fill="#86ff25" stroke="none" /></svg>