<?xml version="1.0" encoding="utf-8" ?>
<svg baseProfile="full" height="200mm" version="1.1" viewBox="0,0,200,200" width="200mm" xmlns="http://www.w3.org/2000/svg" xmlns:ev="http://www.w3.org/2001/xml-events" xmlns:xlink="http://www.w3.org/1999/xlink"><defs /><rect fill="#1a1a1a" height="200" width="200" x="0" y="0" /><text alignment-baseline="middle" fill="#e1ed5e" style="dominant-baseline: central; font-size:9.0px; font-family:Arial;" text-anchor="middle" x="100.0" y="100.0">2024</text><line stroke="#e1ed5e" stroke-width="0.3" x1="100.0" x2="100.0" y1="15.0" y2="10.0" /><path d="M 100.0 14.0 a86.0,86.0 0 0,1 42.35913384403234,11.155469271406648" fill="none" id="id13" stroke="none" /><text fill="#e1ed5e" style="font-size:6.75px; font-family:Arial;" text-anchor="middle"><textPath startOffset="22.145653131862478" xlink:href="#id13">January</textPath></text><path d="M 102.51750503828377 79.15144685158666 l 1.3397514529949008 -11.095063941746806 a32.17566006226264,32.17566006226264 0 0,0 0.5477862889315049,0.07092190216575102 l -1.5300155638171975 11.070430443380658" fill="#ff3d05" stroke="none" /><path d="M 102.87502721639298 79.19773525538626 l 1.3266087147665515 -9.598679810658698 a30.689919751455193,30.689919751455193 0 0,0 0.5212535183932855,0.07660631685308146 l -1.491187338767519 9.574492420506735" fill="#ff2503" stroke="none" /><path d="M 103.58742460773223 79.30868818359171 l 1.2587412859179614 -7.260085239694974 a28.368396522481078,28.368396522481078 0 0,0 0.47910880530357686,0.08730958428033524 l -1.383184824772592 7.237407481483274" fill="#ff0000" stroke="none" /><path d="M 104.29559338865022 79.4440306129975 l 1.5459628518225308 -7.397991890822965 a28.557796316116068,28.557796316116068 0 0,0 0.47900615052722467,0.10439716105249945 l -1.6727314189688895 7.370363271636747" fill="#ff0300" stroke="none" /><path d="M 105.69591212413111 79.78721728523813 l 3.3723141360585487 -11.967153178029317 a33.43323199408253,33.43323199408253 0 0,0 0.5510751670702225,0.160409949678604 l -3.5772493155103757 11.907499534048197" fill="#ff5007" stroke="none" /><path d="M 106.04205211174951 79.88797359093562 l 3.2823428660914895 -10.92585187705726 a32.40824324468835,32.40824324468835 0 0,0 0.5314324825468165,0.16463914154931167 l -3.4694159815099366 10.867896147701302" fill="#ff4106" stroke="none" /><line stroke="#e1ed5e" stroke-width="0.3" x1="143.13028292997686" x2="145.6673583964461" y1="26.7553504044142" y2="22.446841604673864" /><path d="M 143.63769802327073 25.89364864446614 a86.0,86.0 0 0,1 29.32050498858742,28.57503671076993" fill="none" id="id14" stroke="none" /><text fill="#e1ed5e" style="font-size:6.75px; font-family:Arial;" text-anchor="middle"><textPath startOffset="20.669276256404974" xlink:href="#id14">February</textPath></text><path d="M 117.21940702142032 87.97951657250589 l 6.35668164788314 -4.437457474998035 a28.752317744710304,28.752317744710304 0 0,0 0.27904844984375277,0.4071400277859962 l -6.431919834542218 4.32768271214199" fill="#ff0601" stroke="none" /><path d="M 117.81537515405839 88.88188828441811 l 9.436609040810627 -5.889141970052886 a32.12346993219954,32.12346993219954 0 0,0 0.2879364825758856,0.4703226050209631 l -9.536313487841914 5.726282248907369" fill="#ff3c05" stroke="none" /><line stroke="#e1ed5e" stroke-width="0.3" x1="172.87174338648825" x2="177.1583165268699" y1="56.24261187166439" y2="53.66864786411523" /><path d="M 173.72905801456457 55.72781907015455 a86.0,86.0 0 0,1 12.242430191666344,42.057860355516425" fill="none" id="id15" stroke="none" /><text fill="#e1ed5e" style="font-size:6.75px; font-family:Arial;" text-anchor="middle"><textPath startOffset="22.145653131862474" xlink:href="#id15">March</textPath></text><line stroke="#e1ed5e" stroke-width="0.3" x1="184.99686870605535" x2="189.99668451229388" y1="99.2704041080226" y2="99.22748670261217" /><path d="M 185.99683186730306 99.26182062694052 a86.0,86.0 0 0,1 -10.086455211305974,41.156179273409016" fill="none" id="id16" stroke="none" /><text fill="#e1ed5e" style="font-size:6.75px; font-family:Arial;" text-anchor="middle"><textPath startOffset="21.40746469413373" xlink:href="#id16">April</textPath></text><line stroke="#e1ed5e" stroke-width="0.3" x1="174.33088141563837" x2="178.70328620479359" y1="141.23008692659167" y2="143.65538615756765" /><path d="M 175.20536237346943 141.71514677278685 a86.0,86.0 0 0,1 -30.301960400862466,31.631185727798858" fill="none" id="id17" stroke="none" /><text fill="#e1ed5e" style="font-size:6.75px; font-family:Arial;" text-anchor="middle"><textPath startOffset="22.145653131862474" xlink:href="#id17">May</textPath></text><line stroke="#e1ed5e" stroke-width="0.3" x1="143.1302829299769" x2="145.66735839644613" y1="173.24464959558577" y2="177.55315839532614" /><path d="M 143.63769802327073 174.10635135553383 a86.0,86.0 0 0,1 -40.68552437913181,11.842963189579606" fill="none" id="id18" stroke="none" /><text fill="#e1ed5e" style="font-size:6.75px; font-family:Arial;" text-anchor="middle"><textPath startOffset="21.407464694133747" xlink:href="#id18">June</textPath></text><line stroke="#e1ed5e" stroke-width="0.3" x1="101.45913802915013" x2="101.54496967792366" y1="184.9874750549273" y2="189.98673829345242" /><path d="M 101.47630435890484 185.9873277026323 a86.0,86.0 0 0,1 -42.54439059252881,-10.42667462771756" fill="none" id="id19" stroke="none" /><text fill="#e1ed5e" style="font-size:6.75px; font-family:Arial;" text-anchor="middle"><textPath startOffset="22.145653131862474" xlink:href="#id19">July</textPath></text><path d="M 98.55909050195518 120.95050786540614 l -4.181337333389795 60.795727150085256 a81.93934707234081,81.93934707234081 0 0,0 -1.4024543755082033,-0.1085588384057064 l 5.224360703673235 -60.71499054468449" fill="#4ae7ff" stroke="none" /><path d="M 95.00130118170881 120.39639698878247 l -2.2442297012040773 9.157223026176036 a30.42821831009948,30.42821831009948 0 0,0 -0.5062599244824463,-0.12868929308940433 l 2.401094918911902 -9.117348501251367" fill="#ff2103" stroke="none" /><path d="M 93.27111125876986 119.89276391827306 l -20.18666622369039 59.67829175481917 a84.0,84.0 0 0,0 -1.3619769118199128,-0.4737662697256382 l 21.208148907555326 -59.32296705252494" fill="#4dd2ff" stroke="none" /><line stroke="#e1ed5e" stroke-width="0.3" x1="58.13341422392154" x2="55.67067388415222" y1="173.97424548756322" y2="178.32567169271397" /><path d="M 57.64086615596768 174.84453072859336 a86.0,86.0 0 0,1 -31.369924170532247,-30.572349798747897" fill="none" id="id20" stroke="none" /><text fill="#e1ed5e" style="font-size:6.75px; font-family:Arial;" text-anchor="middle"><textPath startOffset="22.145653131862474" xlink:href="#id20">August</textPath></text><path d="M 87.54013794807813 116.9041958592261 l -11.04671187174617 14.986986236467397 a39.618259844288374,39.618259844288374 0 0,0 -0.5439908005074838,-0.4082208382482922 l 11.30235566116442 -14.79514637095509" fill="#ffad10" stroke="none" /><path d="M 87.2517909369889 116.68781488649013 l -11.84847088835859 15.51002873388656 a40.517870112239905,40.517870112239905 0 0,0 -0.5490944237383325,-0.42697914506685647 l 12.11297525673215 -15.304348537198912" fill="#ffba11" stroke="none" /><path d="M 86.96720088162412 116.46651593811092 l -12.239446534428652 15.464140865077761 a40.72165571558599,40.72165571558599 0 0,0 -0.5444082605718579,-0.43853675807795645 l 12.503105565355773 -15.251755813206394" fill="#ffbd11" stroke="none" /><line stroke="#e1ed5e" stroke-width="0.3" x1="26.387840678322732" x2="22.057713659400548" y1="142.50000000000003" y2="145.00000000000006" /><path d="M 25.521815274538298 143.00000000000003 a86.0,86.0 0 0,1 -11.493303480769221,-40.785679425670985" fill="none" id="id21" stroke="none" /><text fill="#e1ed5e" style="font-size:6.75px; font-family:Arial;" text-anchor="middle"><textPath startOffset="21.40746469413373" xlink:href="#id21">September</textPath></text><line stroke="#e1ed5e" stroke-width="0.3" x1="15.003131293944662" x2="10.003315487706104" y1="100.72959589197737" y2="100.7725132973878" /><path d="M 14.003168132696942 100.73817937305945 a86.0,86.0 0 0,1 10.791469493833604,-42.45332614584628" fill="none" id="id22" stroke="none" /><text fill="#e1ed5e" style="font-size:6.75px; font-family:Arial;" text-anchor="middle"><textPath startOffset="22.145653131862435" xlink:href="#id22">October</textPath></text><line stroke="#e1ed5e" stroke-width="0.3" x1="26.387840678322718" x2="22.05771365940052" y1="57.49999999999999" y2="54.99999999999999" /><path d="M 25.521815274538284 56.99999999999999 a86.0,86.0 0 0,1 29.574782752854787,-30.34633250058573" fill="none" id="id23" stroke="none" /><text fill="#e1ed5e" style="font-size:6.75px; font-family:Arial;" text-anchor="middle"><textPath startOffset="21.40746469413373" xlink:href="#id23">November</textPath></text><line stroke="#e1ed5e" stroke-width="0.3" x1="56.869717070023135" x2="54.33264160355391" y1="26.7553504044142" y2="22.446841604673864" /><path d="M 56.362301976729285 25.89364864446614 a86.0,86.0 0 0,1 42.16139366436587,-11.88097634709845" fill="none" id="id24" stroke="none" /><text fill="#e1ed5e" style="font-size:6.75px; font-family:Arial;" text-anchor="middle"><textPath startOffset="22.145653131862474" xlink:href="#id24">December</textPath></text></svg>