<?xml version="1.0" encoding="utf-8" ?>
<svg baseProfile="full" height="200mm" version="1.1" viewBox="0,0,200,200" width="200mm" xmlns="http://www.w3.org/2000/svg" xmlns:ev="http://www.w3.org/2001/xml-events" xmlns:xlink="http://www.w3.org/1999/xlink"><defs /><rect fill="#1a1a1a" height="200" width="200" x="0" y="0" /><text alignment-baseline="middle" fill="#e1ed5e" style="dominant-baseline: central; font-size:9.0px; font-family:Arial;" text-anchor="middle" x="100.0" y="100.0">2023</text><line stroke="#e1ed5e" stroke-width="0.3" x1="100.0" x2="100.0" y1="15.0" y2="10.0" /><path d="M 100.0 14.0 a86.0,86.0 0 0,1 42.46469731375804,11.215312516191453" fill="none" id="id1" stroke="none" /><text fill="#e1ed5e" style="font-size:6.75px; font-family:Arial;" text-anchor="middle"><textPath startOffset="22.20632615414155" xlink:href="#id1">January</textPath></text><line stroke="#e1ed5e" stroke-width="0.3" x1="143.23703022742887" x2="145.7803849466894" y1="26.81831364943548" y2="22.513508569990506" /><path d="M 143.74570117128098 25.957352633546492 a86.0,86.0 0 0,1 28.547481713284135,27.462654790039103" fill="none" id="id2" stroke="none" /><text fill="#e1ed5e" style="font-size:6.75px; font-family:Arial;" text-anchor="middle"><textPath startOffset="19.985693538727396" xlink:href="#id2">February</textPath></text><line stroke="#e1ed5e" stroke-width="0.3" x1="172.23445277983987" x2="176.4835382374775" y1="55.19839476539836" y2="52.563006222186495" /><path d="M 173.08426987136738 54.67131705675599 a86.0,86.0 0 0,1 12.851231095245387,41.99856678651699" fill="none" id="id3" stroke="none" /><text fill="#e1ed5e" style="font-size:6.75px; font-family:Arial;" text-anchor="middle"><textPath startOffset="22.20632615414155" xlink:href="#id3">March</textPath></text><line stroke="#e1ed5e" stroke-width="0.3" x1="184.98032266829074" x2="189.97916517819016" y1="98.17113171792111" y2="98.06355123074" /><path d="M 185.9800911702706 98.14961562048488 a86.0,86.0 0 0,1 -9.607161424134198,41.387399972396054" fill="none" id="id4" stroke="none" /><text fill="#e1ed5e" style="font-size:6.75px; font-family:Arial;" text-anchor="middle"><textPath startOffset="21.466115282336823" xlink:href="#id4">April</textPath></text><line stroke="#e1ed5e" stroke-width="0.3" x1="174.80103733775053" x2="179.2010983576182" y1="140.37084112569926" y2="142.7455964860345" /><path d="M 175.68104954172406 140.8457921977663 a86.0,86.0 0 0,1 -30.038265399797805,32.042727171017184" fill="none" id="id5" stroke="none" /><text fill="#e1ed5e" style="font-size:6.75px; font-family:Arial;" text-anchor="middle"><textPath startOffset="22.206326154141568" xlink:href="#id5">May</textPath></text><line stroke="#e1ed5e" stroke-width="0.3" x1="143.8653032363475" x2="146.44561519142675" y1="172.8068346515853" y2="177.08958963109032" /><path d="M 144.38136562736335 173.6633856474863 a86.0,86.0 0 0,1 -40.68145358897372,12.25698825130547" fill="none" id="id6" stroke="none" /><text fill="#e1ed5e" style="font-size:6.75px; font-family:Arial;" text-anchor="middle"><textPath startOffset="21.466115282336833" xlink:href="#id6">June</textPath></text><line stroke="#e1ed5e" stroke-width="0.3" x1="102.19456741930631" x2="102.32365962044197" y1="184.97166512339345" y2="189.96999836594603" /><path d="M 102.22038585953345 185.97133177190398 a86.0,86.0 0 0,1 -42.740103519485714,-10.115201625700543" fill="none" id="id7" stroke="none" /><text fill="#e1ed5e" style="font-size:6.75px; font-family:Arial;" text-anchor="middle"><textPath startOffset="22.20632615414155" xlink:href="#id7">July</textPath></text><path d="M 94.46302465271185 120.25689768951611 l -0.7207601141073431 2.6368843952515046 a23.73361563794344,23.73361563794344 0 0,0 -0.3931516737440692,-0.11110859008599804 l 0.7660429559560261 -2.6240870118269854" fill="#ff0f01" stroke="none" /><path d="M 93.08242187328487 119.8279376855182 l -2.625170752827916 7.524558616822449 a28.969347768763768,28.969347768763768 0 0,0 -0.46941439938215157,-0.16831530265407044 l 2.754304712839794 -7.478255773128421" fill="#ff5a08" stroke="none" /><path d="M 92.40401165467489 119.57807347666478 l -4.63437118527309 11.944733911980638 a33.81226227139102,33.81226227139102 0 0,0 -0.5408012508716807,-0.21519597858767184 l 4.839293512186629 -11.8631910889869" fill="#ff9c0e" stroke="none" /><path d="M 91.7346041902142 119.30500536409082 l -3.070855084458492 7.172418023542073 a28.80216196026305,28.80216196026305 0 0,0 -0.4540857309620143,-0.1990578401042054 l 3.19386149007825 -7.118495630143415" fill="#ff5808" stroke="none" /><line stroke="#e1ed5e" stroke-width="0.3" x1="58.666819895761336" x2="56.23545636021788" y1="174.27360380694188" y2="178.64263932499728" /><path d="M 58.180547188652646 175.14741091055294 a86.0,86.0 0 0,1 -31.652253787137756,-30.449443065178592" fill="none" id="id8" stroke="none" /><text fill="#e1ed5e" style="font-size:6.75px; font-family:Arial;" text-anchor="middle"><textPath startOffset="22.20632615414155" xlink:href="#id8">August</textPath></text><path d="M 88.8546689885994 117.79835938074946 l -1.3264349583206423 2.1182292440871557 a23.4992648577454,23.4992648577454 0 0,0 -0.3409835066987732,-0.21763180705139618 l 1.3627002670663388 -2.0950830082119554" fill="#ff0c01" stroke="none" /><path d="M 87.65650970185807 116.9893568818739 l -4.494269276607687 6.185830978051881 a28.646107586196134,28.646107586196134 0 0,0 -0.3964280668359704,-0.2932680065886888 l 4.600082313862221 -6.107553022723426" fill="#ff5507" stroke="none" /><path d="M 87.07902340077011 116.55440617244103 l -4.761127541160132 6.099975381106873 a28.738089887905378,28.738089887905378 0 0,0 -0.3873381436374608,-0.30772484724104837 l 4.865423177514951 -6.017116619860694" fill="#ff5708" stroke="none" /><path d="M 84.19399662182784 113.82643327865904 l -1.469881255426025 1.2857908871363104 a22.95289761905113,22.95289761905113 0 0,0 -0.25757248814211603,-0.2996149941896524 l 1.4917962531389197 -1.2602987937851278" fill="#ff0400" stroke="none" /><path d="M 83.50135304334701 112.99209946851258 l -1.3428949050175916 1.0574821212664285 a22.709279135401925,22.709279135401925 0 0,0 -0.23919703479251728,-0.30919441155410365 l 1.3608987570281772 -1.0342097155990722" fill="#ff0000" stroke="none" /><path d="M 83.28015986056508 112.70617746262583 l -4.004605729190445 3.0432845433091336 a26.029756242384835,26.029756242384835 0 0,0 -0.2680305484804285,-0.3590707206157656 l 4.056397544365958 -2.97390094318406" fill="#ff3004" stroke="none" /><path d="M 82.24976979558568 111.22182372390057 l -6.669854970075806 4.216730480462094 a28.89099368056413,28.89099368056413 0 0,0 -0.2621312329179569,-0.42263901186534614 l 6.7414508426617195 -4.101295137231484" fill="#ff5908" stroke="none" /><line stroke="#e1ed5e" stroke-width="0.3" x1="26.63291911575756" x2="22.317208475507996" y1="142.92168965132927" y2="145.44649492493687" /><path d="M 25.769776987707644 143.4266507060508 a86.0,86.0 0 0,1 -11.730757126820373,-40.83630448921669" fill="none" id="id9" stroke="none" /><text fill="#e1ed5e" style="font-size:6.75px; font-family:Arial;" text-anchor="middle"><textPath startOffset="21.46611528233685" xlink:href="#id9">September</textPath></text><path d="M 80.32549172779594 107.34259656027581 l -2.745865299947036 1.0247667096644122 a23.930857051220624,23.930857051220624 0 0,0 -0.14070858377037157,-0.38716959060399536 l 2.763098144722632 -0.9773493220542998" fill="#ff1202" stroke="none" /><path d="M 79.97269907076064 106.31721596034903 l -60.081902787718064 18.951647881047084 a84.0,84.0 0 0,0 -0.42309290997547855,-1.3826921097918088 l 60.399222470199675 -17.914628798703227" fill="#4dd2ff" stroke="none" /><line stroke="#e1ed5e" stroke-width="0.3" x1="15.007084014347285" x2="10.007500721073583" y1="101.09737516637583" y2="101.16192664675087" /><path d="M 14.007167355692545 101.11028546245083 a86.0,86.0 0 0,1 10.666146001902534,-42.60595125391555" fill="none" id="id10" stroke="none" /><text fill="#e1ed5e" style="font-size:6.75px; font-family:Arial;" text-anchor="middle"><textPath startOffset="22.20632615414155" xlink:href="#id10">October</textPath></text><path d="M 79.05617556472873 98.46500227214037 l -4.6948354469898215 -0.3440900570035217 a25.707427943329648,25.707427943329648 0 0,0 0.03614405141428059,-0.44104897677931126 l 4.688216911756044 0.4248529509906113" fill="#ff2c04" stroke="none" /><path d="M 79.08570108090925 98.10471618934814 l -4.738961315691109 -0.4294514817676348 a25.75838028396315,25.75838028396315 0 0,0 0.043817303881589255,-0.44123427036010043 l 4.7308668861272904 0.5109612828321656" fill="#ff2c04" stroke="none" /><path d="M 79.21141760316559 97.0276538004421 l -4.658051040288627 -0.666006947595279 a25.7054229085364,25.7054229085364 0 0,0 0.06639846187802144,-0.43748290304035997 l 4.645896684971303 0.746088963027731" fill="#ff2c04" stroke="none" /><path d="M 79.32604984820605 96.31383870115002 l -2.8037728830479236 -0.49991216078072453 a23.847991318141844,23.847991318141844 0 0,0 0.07553485136810047,-0.4035101963722874 l 2.7947523077699614 0.5481004346155846" fill="#ff1101" stroke="none" /><path d="M 79.62865764111835 94.90015583598534 l -4.86310333265891 -1.2174489394533097 a26.013178227860465,26.013178227860465 0 0,0 0.11248057156196133,-0.433433525941088 l 4.841426429226641 1.3009788909432616" fill="#ff3004" stroke="none" /><path d="M 80.14247586403 93.16781622104843 l -4.4596366066861055 -1.5343834747770826 a25.71621578295181,25.71621578295181 0 0,0 0.14761955170785676,-0.41734035134073444 l 4.432563974168439 1.610921452544428" fill="#ff2c04" stroke="none" /><path d="M 80.95270993114464 91.15688171328213 l -4.287383233140274 -1.9905108251143875 a25.726921655021364,25.726921655021364 0 0,0 0.18994040001363177,-0.40006292326995513 l 4.252484639284892 2.0640161640248746" fill="#ff2c04" stroke="none" /><line stroke="#e1ed5e" stroke-width="0.3" x1="26.266209847984243" x2="21.928928074336255" y1="57.711370442889674" y2="55.22380399835377" /><path d="M 25.398753493254645 57.213857153982495 a86.0,86.0 0 0,1 29.58750427330803,-30.492523968695096" fill="none" id="id11" stroke="none" /><text fill="#e1ed5e" style="font-size:6.75px; font-family:Arial;" text-anchor="middle"><textPath startOffset="21.46611528233685" xlink:href="#id11">November</textPath></text><path d="M 83.17141714833178 87.43820079747576 l -2.7564185398851 -2.057545577149964 a24.43967105535859,24.43967105535859 0 0,0 0.2545497177531128,-0.3349575905805724 l 2.7205928819078786 2.104687943611563" fill="#ff1902" stroke="none" /><line stroke="#e1ed5e" stroke-width="0.3" x1="56.762969772571076" x2="54.21961505331055" y1="26.818313649435495" y2="22.513508569990535" /><path d="M 56.25429882871897 25.957352633546506 a86.0,86.0 0 0,1 42.265352541879196,-11.944610805530505" fill="none" id="id12" stroke="none" /><text fill="#e1ed5e" style="font-size:6.75px; font-family:Arial;" text-anchor="middle"><textPath startOffset="22.20632615414155" xlink:href="#id12">December</textPath></text><path d="M 98.55514903715128 79.0497635885617 l -0.3242035737194889 -4.700928808231439 a25.71209503483034,25.71209503483034 0 0,0 0.4418047472575754,-0.02665086887100538 l 0.2432367776222905 4.705812946482752" fill="#ff2c04" stroke="none" /><path d="M 98.91598698831166 79.02799685794201 l -0.24279831442441804 -4.69733015940888 a25.70360092354566,25.70360092354566 0 0,0 0.4420519578164167,-0.019035687184571524 l 0.16190552421867724 4.700813573117644" fill="#ff2c04" stroke="none" /></svg>